<?xml version="1.0" encoding="UTF-8" standalone="no"?>
<!-- Created with Inkscape (http://www.inkscape.org/) -->

<svg
   width="515mm"
   height="627mm"
   viewBox="0 0 515 627"
   version="1.1"
   id="svg1"
   xml:space="preserve"
   inkscape:version="1.4.2 (f4327f4, 2025-05-13)"
   sodipodi:docname="Apprentice.svg"
   xmlns:inkscape="http://www.inkscape.org/namespaces/inkscape"
   xmlns:sodipodi="http://sodipodi.sourceforge.net/DTD/sodipodi-0.dtd"
   xmlns="http://www.w3.org/2000/svg"
   xmlns:svg="http://www.w3.org/2000/svg"><sodipodi:namedview
     id="namedview1"
     pagecolor="#ffffff"
     bordercolor="#000000"
     borderopacity="0.25"
     inkscape:showpageshadow="2"
     inkscape:pageopacity="0.0"
     inkscape:pagecheckerboard="0"
     inkscape:deskcolor="#d1d1d1"
     inkscape:document-units="mm"
     inkscape:zoom="0.36945286"
     inkscape:cx="-98.794741"
     inkscape:cy="1200.4238"
     inkscape:window-width="2560"
     inkscape:window-height="1369"
     inkscape:window-x="-8"
     inkscape:window-y="-8"
     inkscape:window-maximized="1"
     inkscape:current-layer="layer1" /><defs
     id="defs1" /><g
     inkscape:label="Layer 1"
     inkscape:groupmode="layer"
     id="layer1"><path
       id="path73"
       style="fill:#000000;fill-opacity:1;stroke-width:7.05794;stroke-dasharray:none"
       d="m 242.1447,167.37496 c -3.06619,-0.11174 -6.38883,1.57356 -10.60348,5.26861 -5.94148,5.209 -10.31794,11.66295 -7.90858,11.66295 0.86984,0 3.23502,-2.18872 5.25555,-4.86479 4.03585,-5.34526 9.47083,-9.06212 13.24992,-9.06212 3.46515,0 3.87017,2.04475 1.86774,9.39482 -2.59332,9.51865 -2.30894,15.52304 0.90632,19.18086 4.13215,4.7007 13.86395,24.6271 12.60982,25.81998 -0.27203,0.25873 -3.21475,-1.01002 -6.53811,-2.81843 -6.9324,-3.77246 -17.4937,-6.67944 -21.65794,-5.96123 -2.13564,0.36846 -2.87632,0.0203 -2.97423,-1.40399 -0.11884,-1.72285 -0.1771,-1.72914 -0.63579,-0.0712 -0.27756,1.00346 -1.61359,2.13966 -2.96763,2.52553 -1.354,0.38546 -5.37611,2.08774 -8.9382,3.78302 -3.56204,1.69528 -6.47645,2.86079 -6.47645,2.58829 0,-0.27249 1.24705,-3.0389 2.77184,-6.14534 5.31681,-10.83165 10.65323,-24.93388 9.56956,-25.29061 -0.60025,-0.19758 -0.75648,-0.87446 -0.34738,-1.5044 0.44358,-0.68267 0.212,-0.83228 -0.5742,-0.37049 -0.72523,0.42637 -1.02734,1.22377 -0.67094,1.77225 0.35631,0.54853 0.18815,0.99804 -0.37421,0.99804 -1.2207,0 -3.72427,5.43992 -6.96487,15.1321 -1.30521,3.90373 -4.04262,9.73373 -6.08268,12.95606 -2.04011,3.22235 -4.01172,6.60719 -4.38001,7.52 -0.44975,1.11482 -2.91428,1.90753 -7.50819,2.41462 -3.76175,0.41527 -6.8395,0.96225 -6.8395,1.21774 0,0.25549 1.0193,3.34549 2.26589,6.86513 2.62089,7.39968 8.18541,16.43823 11.46365,18.62218 2.15488,1.43557 2.18493,1.76978 0.60935,6.88186 -1.68925,5.48105 -1.05801,7.66647 2.2175,7.66647 0.80534,0 1.46515,0.50352 1.46515,1.11942 0,0.70012 -1.48253,0.85552 -3.95539,0.4143 -4.37107,-0.77996 -7.3081,0.74854 -7.3081,3.80185 0,1.117 -2.69423,3.44044 -6.74924,5.82102 -7.39251,4.33992 -10.57018,7.81122 -15.20125,16.60513 -1.67988,3.18987 -5.58007,8.68661 -8.66758,12.21531 -7.35707,8.40841 -10.00359,12.56159 -13.77794,21.62266 -1.71798,4.12452 -4.84861,10.15989 -6.95824,13.41217 -3.48379,5.37076 -3.83662,6.66162 -3.83662,14.07547 0,10.24961 1.32007,11.89941 11.26344,14.07543 4.0267,0.88122 10.86927,2.65858 15.20567,3.94831 10.13016,3.01283 22.6504,3.38541 26.8035,0.79721 5.67946,-3.53948 6.62167,-2.00066 1.65651,2.70546 -2.64372,2.50577 -9.36846,10.05089 -14.94387,16.76624 -5.57537,6.7154 -15.12395,18.18336 -21.22017,25.48521 -10.34684,12.39311 -12.40961,16.40008 -8.43879,16.40008 1.05574,0 1.07379,-0.29881 0.075,-1.24916 -0.99896,-0.95018 -0.95528,-1.52578 0.17837,-2.4104 0.81902,-0.63919 6.52559,-7.18736 12.6824,-14.55254 14.10995,-16.87929 19.98119,-23.88613 29.79973,-35.56001 4.3078,-5.12183 8.70295,-9.56327 9.76752,-9.86978 3.26366,-0.93996 9.5303,-0.37574 12.568,1.13199 1.58622,0.78736 3.39418,1.43593 4.017,1.43957 0.62276,0.004 1.68622,1.69359 2.36486,3.75582 0.89855,2.72519 0.89664,3.74497 -0.004,3.73282 -2.2169,-0.0284 -4.39263,-1.86982 -5.88252,-4.9757 -1.45398,-3.03091 -1.45718,-3.03182 -0.85136,-0.21338 0.70569,3.28297 -1.20657,4.99857 -2.71468,2.43555 -1.6276,-2.76623 -2.63244,7.12248 -1.36835,13.46239 0.98883,4.95913 0.77194,6.0049 -2.76303,13.38284 -2.10911,4.40195 -5.33378,9.82601 -7.16726,12.05211 -1.83347,2.22609 -3.66553,5.85635 -4.072,8.06825 -0.748,4.07058 -4.33751,8.29835 -7.04405,8.29835 -0.81242,0 -1.47613,0.51561 -1.47613,1.14453 0,1.63264 4.55955,0.12271 7.58521,-2.51082 1.38439,-1.20495 2.83323,-3.92122 3.22066,-6.03655 0.3874,-2.11532 2.18119,-5.63774 3.98401,-7.82758 1.80278,-2.18982 5.33655,-7.85429 7.85363,-12.58778 2.51702,-4.73345 5.23852,-8.60596 6.04747,-8.60596 2.98697,0 6.06545,3.93426 8.3838,10.71298 3.06925,8.97449 3.15954,9.08026 8.88536,10.43684 4.50532,1.06732 6.14331,0.72991 23.09005,-4.76645 10.03238,-3.25386 18.95814,-6.46396 19.83424,-7.13292 1.35562,-1.03514 1.47115,-0.17857 0.78095,5.74775 -0.44609,3.82988 -0.9623,10.57912 -1.14838,14.99817 -0.18604,4.41908 -0.73731,12.01198 -1.22535,16.87296 h -0.003 c -0.76926,7.66287 -0.65193,8.83821 0.87558,8.83821 1.3308,0 1.94621,-1.64567 2.51887,-6.73119 0.41676,-3.70276 0.6503,-7.4389 0.51919,-8.30256 -0.13155,-0.86369 -0.17114,-2.7766 -0.0881,-4.24963 0.12426,-2.20773 0.36441,-2.39592 1.36613,-1.07129 0.983,1.29966 1.07218,1.19722 0.47075,-0.53564 -0.4091,-1.17842 -0.98994,-8.70986 -1.29133,-16.73696 l -0.54776,-14.59436 2.84885,-0.51891 c 1.56648,-0.28506 3.13515,-0.2466 3.48461,0.0858 0.34951,0.33243 0.28821,7.66566 -0.13409,16.29547 -0.55346,11.30482 -0.40911,15.90161 0.51698,16.44611 1.2342,0.72535 1.81491,-11.7112 1.30453,-27.96468 l -0.17582,-5.56155 4.30299,-0.68838 c 2.36628,-0.37858 5.98354,-1.17809 8.03841,-1.77641 2.05484,-0.59829 3.85557,-0.91962 4.00154,-0.71351 3.01515,4.25513 4.06737,7.14085 4.66825,12.81793 0.73748,6.96805 3.51036,20.41743 4.86611,23.59577 0.56273,1.31917 1.37481,1.52822 3.25809,0.84531 l 2.50787,-0.90806 -3.35485,-7.11205 c -2.21576,-4.69712 -3.59057,-9.71408 -4.04777,-14.77429 -0.38186,-4.22419 -1.71544,-9.66927 -2.97207,-12.1358 -1.89839,-3.72629 -2.08948,-5.18191 -1.14834,-8.70851 0.82799,-3.1028 0.73984,-5.31116 -0.32779,-8.26487 -1.21535,-3.36307 -1.19615,-4.40929 0.11665,-6.31483 2.05374,-2.9812 2.40103,-10.77598 1.25392,-28.21366 -0.69595,-10.57827 -0.60165,-14.19472 0.37419,-14.19472 0.84098,0 0.72225,-0.56002 -0.33418,-1.5651 -1.37642,-1.30921 -5.28607,-17.38549 -5.27755,-21.70846 0.004,-2.2887 6.97671,-0.26643 12.2292,3.5466 2.69867,1.95896 7.51377,4.33568 10.70026,5.28327 12.91137,3.83946 15.66902,5.02971 14.08156,6.07626 -1.1044,0.728 -0.89215,0.84093 0.76338,0.40368 1.26131,-0.33282 5.31832,0.42045 9.01293,1.67596 8.34562,2.83606 17.81751,3.08313 22.74688,0.59217 10.68886,-5.40133 9.157,-23.44604 -3.04685,-35.89272 -3.07309,-3.13418 -7.09042,-8.19405 -8.92935,-11.24652 -3.62355,-6.01492 -9.74771,-12.5145 -11.79143,-12.51453 -0.70084,0 -2.6896,-1.68731 -4.41959,-3.74956 -1.73002,-2.06223 -4.03486,-3.74957 -5.12352,-3.74957 -1.08866,0 -2.58945,-0.57764 -3.33286,-1.28471 -1.05106,-0.99986 -1.35071,-0.77122 -1.35071,1.03362 0,3.76081 -3.47264,9.58984 -6.49409,10.89925 -3.74645,1.62348 -12.65379,2.73385 -12.65379,1.57765 0,-0.50617 3.12669,-3.91846 6.94726,-7.58488 6.13675,-5.8892 7.21995,-6.52781 9.29238,-5.47786 2.18611,1.10756 2.23281,1.04849 0.69295,-0.86208 -0.90884,-1.12756 -1.72461,-2.18277 -1.81273,-2.34555 -0.0881,-0.16277 -3.73067,3.18904 -8.0956,7.44888 -7.51995,7.33886 -8.09141,7.67918 -10.86305,6.47801 -1.60882,-0.6972 -3.89277,-2.78406 -5.07734,-4.63673 -2.71345,-4.24388 -7.63234,-7.3738 -11.60664,-7.3819 -2.51523,-0.004 -3.23647,0.61845 -4.01483,3.47542 -0.52169,1.91498 -1.67736,3.48175 -2.56725,3.48175 -0.88985,0 -3.01349,1.80779 -4.72099,4.01738 -2.92463,3.78461 -5.1764,4.88982 -6.80647,3.33941 -1.23055,-1.1704 6.09456,-9.92273 7.78764,-9.30481 0.93,0.33931 1.55974,-0.12426 1.55974,-1.15081 0,-0.94687 0.74448,-1.72204 1.6543,-1.72204 0.96724,0 1.39983,-0.63258 1.04054,-1.52324 -0.33801,-0.83778 -0.017,-2.58497 0.71059,-3.88137 1.14386,-2.03278 1.97727,-2.27207 6.0519,-1.74088 2.59847,0.3389 5.58755,0.93278 6.64365,1.31823 1.08729,0.39682 1.92051,0.19193 1.92051,-0.47081 0,-0.64375 -2.24511,-1.70714 -4.98934,-2.36438 -3.71705,-0.89022 -4.82243,-1.60874 -4.33606,-2.81425 0.65324,-1.61913 4.91557,-1.50684 11.29646,0.2972 1.46052,0.41291 2.53427,0.25548 2.53427,-0.37252 0,-0.59916 -2.55836,-1.67411 -5.68453,-2.38741 -3.30845,-0.7549 -5.50129,-1.80683 -5.24672,-2.51715 0.5048,-1.40824 7.98435,-1.58186 11.9102,-0.27614 1.96817,0.65461 2.54177,0.52726 2.18672,-0.48543 -0.26479,-0.75491 -2.47964,-1.99568 -4.92115,-2.75775 l -4.43938,-1.38516 6.37311,0.31583 c 8.05084,0.39802 11.0886,2.31238 15.61703,9.84046 2.48143,4.12524 3.98668,5.67399 4.78032,4.91918 0.7936,-0.75487 -0.0898,-3.0922 -2.80267,-7.42377 -3.7284,-5.95294 -3.85173,-6.4531 -2.1361,-8.52433 2.22371,-2.68458 17.82367,-10.22572 19.32608,-9.34252 0.59385,0.34903 1.08013,0.12103 1.08013,-0.50633 0,-0.62751 5.32205,-3.65851 11.8266,-6.73539 6.50461,-3.07688 11.82664,-6.23908 11.82664,-7.0283 0,-0.86576 -0.78351,-1.21447 -1.97109,-0.8788 -1.08411,0.30651 -3.49172,0.912 -5.35014,1.3454 -3.37827,0.78786 -3.37839,0.78814 -0.56316,1.46258 l 2.81582,0.67376 -3.37903,1.65085 c -4.15905,2.03212 -11.8266,3.25626 -11.8266,1.88733 0,-0.55221 0.59063,-1.00432 1.31334,-1.00432 0.72281,0 0.9498,-0.34781 0.50378,-0.77211 -0.44601,-0.42409 -1.87898,-0.78727 -3.18546,-0.80348 -1.30649,-0.0161 -2.5681,-0.57301 -2.80267,-1.2345 -0.54601,-1.53999 4.42146,-2.82446 5.35673,-1.38513 0.42873,0.6598 1.28125,0.42002 2.18451,-0.61516 0.81455,-0.9335 2.28858,-1.6232 3.27784,-1.53372 3.8408,0.34781 4.66793,-0.25508 7.41143,-5.40461 3.27091,-6.13951 3.3403,-6.46338 1.37048,-6.46338 -0.80582,0 -2.55231,2.12649 -3.88052,4.72669 -2.17317,4.25444 -3.04383,4.90314 -8.70937,6.46965 -3.46263,0.95759 -6.78455,1.45247 -7.38283,1.1006 -2.04138,-1.2 -1.09496,-3.77695 1.76872,-4.81248 1.57213,-0.56852 4.70323,-2.22732 6.95824,-3.68468 3.22212,-2.08248 3.71185,-2.7917 2.28569,-3.31224 -1.04893,-0.38264 -3.62058,0.50438 -6.0937,2.10285 -2.35335,1.52097 -4.73352,2.76612 -5.29072,2.76612 -1.68639,0 0.0763,-8.58698 2.22627,-10.84693 1.23012,-1.2928 3.12038,-1.98623 4.88152,-1.79107 2.28054,0.25266 2.86568,0.90184 2.84013,3.14065 -0.0213,1.76819 0.47308,2.6365 1.32211,2.32676 4.69588,-1.71391 1.29261,-8.89891 -4.21503,-8.89891 -5.05376,0 -9.63043,4.8014 -10.63203,11.15449 -1.0116,6.41569 1.39401,15.46963 4.5493,17.12405 1.23897,0.64962 2.45176,1.28961 2.69488,1.42282 1.33356,0.72984 -3.34374,3.88855 -10.63207,7.17896 -4.55729,2.05747 -10.21057,5.38283 -12.56353,7.39029 -3.17972,2.71254 -4.85721,3.45008 -6.53151,2.87075 -1.23897,-0.42839 -3.01293,-0.53245 -3.9422,-0.22999 -0.92918,0.30205 0.23541,-1.09068 2.58705,-3.09462 3.17338,-2.70421 4.696,-5.16191 5.9067,-9.535 2.94911,-10.6518 5.1198,-24.6599 4.39324,-28.34336 -0.76095,-3.85777 1.10525,-9.00315 2.15368,-5.93818 0.30225,0.88382 0.80323,2.33008 1.11314,3.2139 0.31033,0.88382 0.60437,-0.69796 0.65333,-3.51523 0.0639,-3.68499 -0.39975,-5.29974 -1.64992,-5.75611 -0.95591,-0.34902 -1.96041,-0.42456 -2.23286,-0.1652 -0.27201,0.25914 -1.28243,6.2256 -2.24392,13.25734 -3.77887,27.63575 -8.10974,37.95998 -15.92725,37.95998 -3.45,0 -10.4454,3.44177 -11.46804,5.64314 -0.21029,0.45252 -2.61778,3.43417 -5.35013,6.6245 -3.46787,4.04908 -4.96734,6.79123 -4.96734,9.08511 0,3.87033 -0.40484,3.98184 -4.19741,1.14454 -1.63773,-1.22531 -4.60769,-2.15362 -6.93626,-2.16983 -3.60939,-0.0243 -4.50286,-0.63217 -7.8646,-5.34601 l -3.79261,-5.31882 6.89446,-14.64667 c 3.79214,-8.05614 6.64168,-14.88709 6.33347,-15.18024 -0.30821,-0.29315 -2.52222,0.0243 -4.92115,0.70931 -6.63108,1.88958 -8.03718,1.57975 -9.37155,-2.06099 -1.37398,-3.74951 -10.13738,-20.40469 -13.01868,-24.74239 -1.68878,-2.54237 -1.74944,-3.73779 -0.53676,-10.464 2.17619,-12.07016 1.87071,-15.95454 -1.36393,-17.35629 -0.98882,-0.42852 -1.98297,-0.66582 -3.00505,-0.70304 z m 126.43,9.76932 c -1.41896,0.0684 -3.4194,0.6542 -6.05192,1.55883 -9.31545,3.2011 -23.33222,11.32514 -28.97259,16.79138 -4.18817,4.05904 -4.45918,4.68239 -3.75076,8.64572 l 0.76337,4.27052 0.71055,-3.96086 c 0.39122,-2.17868 1.38342,-4.72992 2.20209,-5.66827 4.21579,-4.83149 32.78304,-20.08449 34.52068,-18.43177 0.41081,0.39074 -1.13919,6.3071 -3.44503,13.1485 -2.30578,6.84153 -3.93568,12.68184 -3.62321,12.97904 1.44144,1.37103 3.14039,-1.57794 6.16187,-10.69415 4.77322,-14.40141 5.74166,-18.84434 1.48495,-18.63894 z m -146.28179,15.06724 c -0.11832,0.11251 -0.19967,0.48706 -0.22648,1.11108 -0.0489,1.12951 0.21754,1.76196 0.59177,1.40605 0.37421,-0.35589 0.4155,-1.27924 0.0902,-2.05259 -0.17964,-0.42729 -0.33715,-0.57719 -0.45537,-0.46454 z m 1.33752,6.51776 c -0.20348,-0.0721 -0.34738,0.54196 -0.34738,1.64673 0,1.47315 0.25499,2.07564 0.5676,1.33913 0.31247,-0.73652 0.31247,-1.94175 0,-2.67825 -0.0779,-0.18423 -0.15199,-0.28343 -0.22009,-0.30773 z m 0.91514,7.40915 c -0.11832,0.11251 -0.19965,0.48706 -0.22648,1.11104 -0.0489,1.12915 0.21754,1.76197 0.59177,1.40607 0.3742,-0.35591 0.4155,-1.27929 0.0903,-2.05261 -0.17964,-0.42733 -0.33672,-0.57715 -0.45537,-0.4645 z m 101.34683,0.0324 c -1.27286,1.21065 1.01312,10.27568 2.59147,10.27568 0.89131,0 1.62131,0.20124 1.62131,0.44778 0,0.24658 0.3082,1.21053 0.68418,2.14257 0.51111,1.26674 -0.0256,1.69484 -2.13172,1.69484 -1.54871,0 -3.12412,0.76279 -3.50001,1.69483 -0.86478,2.14747 -0.88768,7.39453 -0.0341,8.20631 0.79159,0.75296 7.26159,-0.92668 8.64777,-2.24512 0.58475,-0.55613 0.31375,-4.9121 -0.65116,-10.46401 -1.042,-5.99613 -1.69461,-8.03962 -1.76872,-5.52807 -0.1673,5.66384 -3.16273,4.2281 -4.1424,-1.98566 -0.41422,-2.62652 -1.00566,-4.53392 -1.31553,-4.23915 z m -98.28235,12.11907 6.25208,0.61306 c 4.02988,0.39559 8.52127,1.83255 12.63835,4.04248 8.48405,4.55412 11.57598,5.28647 17.22075,4.08015 2.60391,-0.55452 4.93511,-0.81951 5.18074,-0.58589 0.24564,0.23363 -1.6938,5.14964 -4.30958,10.92643 -3.98592,8.80255 -4.9472,10.19334 -5.94412,8.58925 -6.3903,-10.28294 -13.03385,-14.67882 -23.24182,-15.38112 -5.17355,-0.35591 -6.68795,-0.84916 -6.74925,-2.20327 -0.0698,-1.53611 -0.17242,-1.52695 -0.84699,0.0899 -0.42187,1.01084 -3.55195,3.18021 -6.95823,4.82083 -6.86999,3.3088 -13.37407,10.54522 -15.82384,17.60531 -1.80142,5.19155 -2.52095,5.67517 -4.83099,3.24738 -1.88733,-1.98357 -9.75652,-17.52344 -9.75652,-19.26667 0,-0.55122 2.28378,-1.24704 5.07517,-1.54627 3.57524,-0.38343 7.6532,-2.14828 13.79775,-5.97163 8.06243,-5.01672 13.63856,-7.68951 16.03941,-7.68951 0.53605,0 1.19427,1.0847 1.46289,2.41043 0.39847,1.96708 0.51502,1.84022 0.64017,-0.68631 z m 102.8339,4.74762 c 0.30949,0.008 0.43128,0.46867 0.61817,1.39141 0.21582,1.06573 -0.29119,2.35051 -1.12634,2.85401 -3.54926,2.13937 -4.41183,0.10361 -1.23633,-2.91677 0.93863,-0.89286 1.435,-1.33687 1.7445,-1.32865 z m -70.6077,1.27634 c 0.13451,0.0202 0.28267,0.0765 0.43775,0.16721 0.61949,0.36401 1.12638,0.87414 1.12638,1.13409 0,0.25995 -0.50689,0.47288 -1.12638,0.47288 -0.61948,0 -1.12633,-0.51009 -1.12633,-1.13408 0,-0.46791 0.2848,-0.70481 0.68858,-0.64027 z m -24.00962,8.53063 c 3.45477,0.14901 6.45788,0.92799 8.12638,2.51505 2.61635,2.48847 2.00103,3.58426 -2.01294,3.58426 -3.48599,0 -8.25746,2.25003 -10.08864,4.75805 -0.51948,0.71142 -0.8635,0.53577 -0.92395,-0.47287 -0.083,-1.38339 -0.20348,-1.37237 -0.86239,0.0587 -0.65862,1.42974 -1.15907,1.45845 -3.58142,0.22796 -1.67935,-0.85418 -4.52059,-1.19353 -7.03963,-0.84532 -3.67613,0.50823 -4.22379,0.3057 -4.22379,-1.55675 0,-4.26928 8.90549,-7.65372 17.03374,-8.21466 1.21925,-0.0843 2.42105,-0.104 3.57264,-0.0542 z m -6.56447,2.31 c -0.20391,-0.0721 -0.34736,0.54191 -0.34736,1.64669 0,1.47315 0.25499,2.07564 0.56754,1.33912 0.31247,-0.7365 0.31247,-1.94173 0,-2.67824 -0.0783,-0.18424 -0.15197,-0.28344 -0.22009,-0.30773 z m 19.66923,2.71798 c 2.09246,0 9.08995,9.8073 9.08995,12.74051 0,0.58448 2.01409,4.1191 4.47675,7.85483 l 4.47897,6.79184 -5.00914,9.07257 c -2.75904,4.99777 -5.03448,8.10834 -5.06853,6.92789 -0.27245,-9.69132 -3.38057,-26.88733 -6.68548,-36.987 -1.15201,-3.52063 -1.72909,-6.40064 -1.28252,-6.40064 z m -5.83855,3.26414 c 2.07118,-0.0996 3.66501,0.2474 3.66501,1.09429 0,0.65739 -0.96187,0.85268 -2.26147,0.46032 -1.2434,-0.37534 -3.85416,0.0733 -5.80331,0.99809 -1.94922,0.92487 -3.97446,1.68227 -4.49877,1.68227 -1.84313,0 -0.92038,-1.03302 2.3693,-2.65104 1.90831,-0.9386 4.45805,-1.48416 6.52924,-1.58393 z m 95.90429,0.1988 c -0.16645,-0.13927 -0.55495,0.16157 -1.00534,0.82439 -0.60054,0.88381 -1.09113,2.08903 -1.09113,2.67825 0,0.58921 0.49059,0.34822 1.09113,-0.53564 0.60049,-0.88382 1.09116,-2.08905 1.09116,-2.67826 0,-0.14738 -0.0298,-0.24213 -0.0859,-0.28868 z m -116.39844,3.06535 c 1.17627,0.0708 2.09052,0.58499 3.38781,1.58182 2.11042,1.62159 2.08893,1.66111 -0.62915,1.12153 -1.54872,-0.30731 -4.7166,-0.15062 -7.03967,0.34944 -5.12452,1.10266 -5.61854,-0.33688 -0.67756,-1.97523 2.34342,-0.77701 3.78231,-1.14858 4.95857,-1.07756 z m -11.23708,0.0405 c 0.78218,0.11381 1.14838,2.55204 1.28916,7.34007 0.2716,9.23327 3.17802,18.00023 9.15156,27.6069 1.9235,3.09331 3.13021,5.59823 2.68164,5.56988 -1.6414,-0.10813 -19.87,-12.31913 -20.95176,-14.03567 -1.30189,-2.06576 0.56006,-11.22643 4.03901,-19.88183 1.81035,-4.50407 3.00824,-6.71317 3.79039,-6.59935 z m 33.60994,0.46033 v 0.001 c 1.042,-0.0116 1.84919,0.10361 2.1537,0.39316 0.86022,0.8181 0.25116,1.15125 -2.1141,1.16341 v -0.001 c -1.82747,0.008 -4.46228,0.30609 -5.8561,0.6612 -1.39385,0.35712 -2.53428,0.36845 -2.53428,0.0284 0,-1.02987 5.22479,-2.20922 8.35078,-2.2451 z m -14.18489,1.12778 c 0.50863,-0.29883 1.85761,1.96295 2.99628,5.0259 1.13869,3.06299 2.2963,6.17044 2.57386,6.90696 0.27756,0.73651 -0.26819,1.33912 -1.21216,1.33912 -0.94391,0 -1.97102,-0.60261 -2.28348,-1.33912 -0.4544,-1.07129 -0.58666,-1.07129 -0.65776,0 -0.0489,0.73651 -0.59483,1.33912 -1.21432,1.33912 -1.34641,0 -1.53654,-12.48762 -0.20263,-13.27198 z m 105.95781,0.6633 c -0.16645,-0.13929 -0.55495,0.16155 -1.00534,0.82438 -0.6005,0.88385 -1.09118,2.08904 -1.09118,2.67826 0,0.5892 0.49068,0.3482 1.09118,-0.53566 0.60054,-0.88382 1.09112,-2.08903 1.09112,-2.67824 0,-0.1474 -0.0298,-0.24213 -0.0859,-0.2887 z m -112.66526,2.33716 c 0.58854,0.0453 0.66405,0.21096 0.15197,0.49382 -2.53839,1.39878 -10.92848,2.65084 -9.57394,1.427 0.6195,-0.55971 3.40721,-1.31759 6.19491,-1.68645 1.53731,-0.20367 2.63869,-0.2798 3.22722,-0.23444 z m 18.44607,0.0943 h 7.02865 l 1.30892,5.35646 c 0.72037,2.94606 1.35204,7.04385 1.40355,9.10606 0.0515,2.06227 -1.12225,6.15999 -2.60906,9.10605 l -2.70369,5.3565 0.60939,-7.04506 c 0.58249,-6.73034 0.47197,-7.14937 -2.50128,-9.37385 -1.71179,-1.2807 -3.72479,-2.32883 -4.47242,-2.32883 -0.74754,0 -1.97882,-1.80779 -2.73662,-4.01738 -0.75779,-2.20954 -1.59864,-4.49946 -1.86769,-5.08866 -0.29672,-0.64947 2.27888,-1.07129 6.54025,-1.07129 z m -11.22164,0.94155 c -0.11833,0.11251 -0.19966,0.48702 -0.22648,1.11105 -0.0489,1.1291 0.21753,1.76201 0.59178,1.4061 0.37419,-0.35591 0.41548,-1.27932 0.0902,-2.05265 -0.17965,-0.42733 -0.33673,-0.5771 -0.45538,-0.4645 z m -4.80455,1.33496 c 0.78516,0.0547 1.06613,1.21758 1.37932,4.43792 0.41422,4.26027 0.0728,5.4621 -2.14048,7.52422 -3.34102,3.1126 -3.30927,6.01941 0.12983,11.74033 1.50529,2.50412 2.31231,4.55302 1.79291,4.55302 -2.39728,0 -8.04234,-8.10618 -10.13711,-14.55669 -3.25596,-10.02651 -3.11011,-10.91847 1.92052,-11.7822 2.32309,-0.39883 5.06011,-1.13519 6.08269,-1.63625 0.39378,-0.19313 0.71063,-0.29841 0.97236,-0.28019 z m 10.62547,10.35099 c 1.89131,-0.0364 3.73618,0.21542 5.29294,0.82859 l 3.50661,1.38306 -0.63578,7.04296 c -0.34951,3.8739 -1.42765,9.91716 -2.39787,13.4289 -1.99354,7.21577 -2.22104,10.21919 -0.77215,10.21919 1.01042,0 3.47597,-7.9353 3.55941,-11.4558 0.0256,-1.06481 1.54573,-3.60524 3.37904,-5.64524 1.83325,-2.03997 3.34191,-4.45043 3.35042,-5.35647 0.017,-1.45468 0.14474,-1.45797 1.10875,-0.0405 2.21975,3.26697 1.26008,14.65079 -1.87209,22.21899 -1.64858,3.98341 -3.16639,7.4394 -3.37243,7.68113 -0.20604,0.24213 -1.39053,-0.43471 -2.63329,-1.50442 -4.15853,-3.57948 -2.3177,-0.14374 2.34288,4.37305 4.18221,4.0531 4.46633,4.66733 3.10845,6.7354 -0.82187,1.25172 -2.03397,2.27652 -2.69267,2.27652 -2.23181,0 -8.39655,-7.04892 -8.47615,-9.69191 -0.0648,-2.14423 -0.22647,-2.27676 -0.87554,-0.71351 -0.70071,1.68758 -1.5514,1.35771 -7.15185,-2.77868 -8.56292,-6.3243 -16.45533,-11.13674 -26.7067,-16.28712 -6.27199,-3.1511 -8.55101,-4.86479 -8.55101,-6.42778 0,-5.30947 10.48674,-1.61532 28.15864,9.92208 4.95594,3.23555 9.51762,5.95924 10.13712,6.05115 0.61948,0.0919 1.72355,0.52338 2.45507,0.95832 0.73158,0.43511 1.59283,0.38993 1.91168,-0.10038 0.68662,-1.05664 -2.03419,-9.03978 -2.82465,-8.28792 -0.8632,0.82102 -11.11604,-16.47099 -11.11604,-18.74774 0,-3.278 6.0932,-5.97439 11.76721,-6.08254 z m -0.38484,1.96475 c -2.68671,0.0243 -5.34523,1.05675 -8.00321,3.1051 l -2.81587,2.16978 4.50536,-0.5712 c 12.04764,-1.52707 14.99651,-2.96512 9.01078,-4.39402 -0.90284,-0.2154 -1.8015,-0.31784 -2.69706,-0.30974 z m 37.11652,1.8099 c 5.13009,0.11987 4.63415,2.47573 -0.95252,10.60002 -3.15822,4.59271 -8.35232,13.29093 -11.54285,19.32941 -3.1905,6.03854 -6.19308,11.20956 -6.67225,11.49137 -0.47914,0.28182 -1.72777,-0.3879 -2.77407,-1.48768 -1.8012,-1.89307 -1.6027,-2.63267 3.72003,-13.94153 7.75119,-16.46876 13.37246,-25.76359 15.67642,-25.91624 0.96404,-0.064 1.81243,-0.0924 2.54524,-0.0754 z m 20.25225,1.50235 c 0.68358,-0.0243 1.31249,0.28262 2.08326,0.74697 1.58359,0.95382 -3.48674,7.88526 -15.56202,21.27326 -2.51469,2.78803 -11.75696,13.7211 -20.53819,24.29463 -13.30183,16.01673 -16.10826,18.87687 -16.82259,17.14077 -0.70714,-1.71838 -0.87202,-1.53748 -0.93715,1.02946 -0.0907,3.5722 -4.99945,10.27776 -7.52359,10.27776 -0.93429,0 -1.38908,0.47693 -1.00977,1.06084 0.3793,0.58395 -0.22478,2.25626 -1.34191,3.7161 -2.45713,3.21062 -2.81693,3.27073 -4.47679,0.74278 -1.05687,-1.6096 -0.84648,-2.49747 1.13513,-4.75806 1.33999,-1.5287 5.47865,-6.48651 9.19557,-11.01641 7.26597,-8.85534 20.3165,-24.27869 30.71924,-36.30487 3.54749,-4.10113 8.98434,-10.64318 12.08182,-14.53999 8.39741,-10.56453 10.94611,-13.59347 12.99699,-13.66324 z m 5.50853,1.83919 2.84005,4.27684 c 1.56128,2.35235 3.91278,4.82361 5.22693,5.49252 2.35518,1.19886 2.33611,1.26838 -1.33091,4.86685 -4.24092,4.16165 -3.94914,4.09132 -8.04942,1.97523 l -3.08205,-1.59021 2.21089,-5.53438 c 1.2159,-3.0436 2.03705,-5.69756 1.8259,-5.89839 -0.53435,-0.50823 -3.90696,4.51651 -5.19612,7.74177 -0.58738,1.4694 -1.58711,2.67199 -2.22192,2.67199 -1.68852,0 -1.40951,-1.67925 0.5346,-3.2139 0.92923,-0.73348 1.6895,-2.04916 1.6895,-2.92306 0,-0.87389 1.24914,-3.00047 2.77627,-4.72668 z m 35.95723,0.73862 c 1.21747,0.0242 2.78211,0.75699 4.17097,2.18236 2.91569,2.99237 3.23855,3.83295 1.94914,5.05936 -0.44091,0.41935 -1.76656,-0.34457 -2.94789,-1.69691 l -2.1493,-2.45854 1.92934,3.06116 c 1.90759,3.02817 1.88834,3.09741 -1.73573,6.65377 -2.01435,1.97673 -5.30599,4.33482 -7.31464,5.2414 -4.9088,2.21557 -7.93079,2.07547 -10.63207,-0.49382 -3.52121,-3.3491 -2.73,-4.83564 3.36363,-6.32106 5.56158,-1.35573 11.27885,-6.00812 11.27885,-9.1793 0,-1.39553 0.87022,-2.07459 2.0877,-2.04842 z m -100.68026,1.97521 c -0.20349,-0.0721 -0.34737,0.54192 -0.34737,1.6467 0,1.47315 0.25499,2.07564 0.56759,1.33912 0.31246,-0.73652 0.31246,-1.94174 0,-2.67826 -0.0779,-0.18422 -0.15198,-0.28342 -0.22009,-0.30772 z m 110.1662,5.43182 c 0.52682,-0.0551 1.23786,0.34498 2.54087,1.15709 1.52432,0.94993 4.63026,4.63907 6.90327,8.19794 2.27293,3.55891 6.40431,8.90161 9.18012,11.87427 5.59453,5.99127 9.75844,13.90027 10.89388,20.68738 0.97503,5.82838 -1.62139,10.71849 -6.77787,12.76769 -2.10715,0.83741 -4.98794,1.47359 -6.4017,1.41448 -3.61475,-0.15144 -11.17222,-1.91142 -12.62076,-2.93982 -0.66801,-0.47422 -3.4952,-1.47935 -6.28289,-2.23259 -2.7877,-0.75316 -5.57543,-1.74876 -6.19491,-2.21371 -0.61948,-0.46495 -4.42098,-1.64 -8.44757,-2.61128 -7.7743,-1.87522 -14.9362,-5.90434 -17.74437,-9.98068 -2.9849,-4.33299 0.67169,-21.24124 4.85739,-22.45962 0.65542,-0.19071 2.30711,2.19314 3.6694,5.29792 1.3623,3.10474 4.4749,8.04153 6.91869,10.97243 3.94169,4.72746 4.2602,5.5243 2.80923,7.04925 -1.4651,1.53983 -1.0629,1.97384 3.87183,4.1722 8.1133,3.61436 9.12044,2.39917 3.09744,-3.7412 -6.36273,-6.48674 -12.48789,-14.74663 -14.65788,-19.77087 l -1.61914,-3.74954 5.40736,-0.004 c 4.73609,-0.004 6.12802,-0.58541 11.22384,-4.67228 5.55349,-4.45395 5.89342,-4.57396 7.50165,-2.67197 1.57808,1.86634 1.60806,1.83954 0.45759,-0.41847 -0.87445,-1.71868 -0.88232,-3.02529 -0.0213,-4.55303 0.56683,-1.0073 0.90969,-1.51635 1.43654,-1.57137 z m -109.25102,1.97729 c -0.11832,0.11252 -0.19966,0.48702 -0.22647,1.11105 -0.0489,1.12952 0.21753,1.76201 0.59176,1.4061 0.3742,-0.35591 0.4155,-1.27931 0.0902,-2.05264 -0.17964,-0.42733 -0.33715,-0.5771 -0.45537,-0.46451 z m 39.29665,1.72833 c 1.07831,0.24455 -0.083,2.36975 -3.52863,6.51565 -2.56326,3.08425 -5.31629,7.10014 -6.1179,8.92401 -1.47783,3.36262 -5.18517,7.10738 -5.18517,5.23723 0,-1.84044 11.64904,-19.80494 13.21257,-20.3756 0.39931,-0.14577 0.7403,-0.24336 1.02075,-0.29073 0.24521,-0.0413 0.44431,-0.0453 0.59838,-0.0116 z m -49.31719,0.40591 c 0.23201,-0.11097 1.02024,0.2814 2.5893,1.07129 1.74552,0.87859 4.32938,3.55926 5.74171,5.95701 1.41223,2.39782 2.14657,4.35843 1.6301,4.35843 -1.30491,0 -7.58547,-6.43885 -9.20656,-9.43872 -0.66133,-1.22381 -0.98661,-1.83703 -0.75455,-1.94801 z m -30.82046,1.20312 c 0.82387,-0.004 1.60048,0.22148 2.49685,0.67792 2.31506,1.17843 2.32439,1.26536 0.28394,2.68453 -2.1367,1.48603 -4.47058,1.73837 -7.02647,0.75745 -2.19252,-0.84146 -1.67285,-2.04576 1.47174,-3.40849 1.07964,-0.46864 1.9502,-0.70639 2.77407,-0.71141 z m 117.769,1.09432 c 0.2618,-0.0364 0.47049,-0.0202 0.60713,0.0608 1.35915,0.79899 1.25741,4.46374 -0.14729,5.28954 -3.08755,1.81496 -5.99294,9.86398 -6.08489,16.86042 -0.1,7.61331 -1.11212,8.79104 -4.65718,5.41927 -4.06063,-3.86223 0.66734,-21.24764 7.08366,-26.04806 1.16011,-0.86806 2.41378,-1.47084 3.19866,-1.58183 z m -22.87667,1.36213 c 1.59669,-0.29275 1.87327,2.28603 1.29576,7.86107 -0.41974,4.05058 -0.47015,7.36517 -0.11445,7.36517 0.35589,0 3.00475,-2.28991 5.88912,-5.08867 3.14737,-3.0538 4.94366,-4.23194 4.48995,-2.94605 -0.41591,1.17842 -1.30776,4.40528 -1.98208,7.17058 -1.16102,4.76131 -1.39435,4.99668 -4.4086,4.42329 -3.4595,-0.65807 -3.70223,-0.34375 -4.87497,6.36504 -0.55388,3.1686 -0.30693,4.17518 1.15278,4.70786 2.18931,0.79907 4.31013,-1.79889 2.71024,-3.32063 -1.15093,-1.09465 -1.5118,-5.95491 -0.44218,-5.95491 0.35036,0 1.64267,0.51196 2.87305,1.13826 1.89946,0.96674 2.12827,1.83472 1.51134,5.74776 -0.44516,2.82353 0.009,8.04287 1.17256,13.47075 1.04489,4.87319 1.68788,10.22828 1.42989,11.90149 -0.25797,1.67317 -0.0745,3.17579 0.40699,3.33735 0.48154,0.16156 1.33215,5.83693 1.8897,12.61286 2.03577,24.74236 0.40697,30.443 -9.38255,32.85665 -3.0844,0.76049 -6.15019,1.39184 -6.81306,1.404 -0.70058,0.0116 -1.77056,-4.80075 -2.55628,-11.49553 -2.40272,-20.47157 -5.62139,-33.08673 -11.27446,-44.19112 -2.84958,-5.59752 -5.82164,-10.55969 -6.60408,-11.02682 -0.78246,-0.46718 -1.97182,-1.82404 -2.64206,-3.01513 -1.28188,-2.27822 0.27842,-4.8529 8.3442,-13.7846 l 3.36141,-3.72236 -0.73694,5.10121 c -0.58525,4.06119 -0.37803,5.23074 1.00974,5.73732 1.43599,0.52411 1.18827,1.22506 -1.40351,3.97762 -1.73062,1.83792 0.40441,0.0875 4.74516,-3.88972 4.34061,-3.97721 8.51376,-7.23128 9.27254,-7.23128 0.75882,0 1.37933,-0.44693 1.37933,-0.99386 0,-0.54694 -2.80995,-1.59386 -6.24331,-2.32466 -4.02266,-0.85624 -6.05689,-1.78817 -5.71973,-2.62383 0.28778,-0.71323 2.95418,-4.19239 5.92432,-7.73137 3.05857,-3.64435 5.09821,-5.61006 6.34011,-5.83774 z m -87.40393,1.65297 c 1.78533,0.0899 4.27119,1.22538 8.07143,3.55705 2.5131,1.5419 2.54346,1.70422 0.67095,3.67216 -2.46471,2.59036 -2.33717,2.6118 -8.1924,-1.33078 -4.42937,-2.98254 -4.72702,-3.45288 -3.13924,-4.96311 0.70008,-0.66586 1.51812,-0.98934 2.58926,-0.93532 z m 92.66168,0.69885 c 1.34754,-0.1656 4.57795,1.49773 4.57795,2.56946 0,0.73389 -1.57629,2.74923 -3.50219,4.47979 l -3.50224,3.14695 0.81617,-4.82086 c 0.44793,-2.65141 0.97133,-4.98579 1.16375,-5.18701 0.1009,-0.10529 0.25415,-0.1648 0.44656,-0.18829 z m -107.9773,0.0879 c 1.13978,0.0458 2.27522,0.38628 3.29981,1.0378 1.42721,0.90738 1.19785,1.48667 -1.4717,3.73281 -3.67461,3.09171 -4.12624,3.1658 -7.02648,1.14871 -2.13096,-1.48193 -2.13274,-1.55206 -0.0426,-3.74955 1.42875,-1.50161 3.34051,-2.24593 5.24014,-2.16977 z m 160.34576,3.14482 c -0.30991,0 -0.0213,0.96419 0.64235,2.14261 0.66307,1.17846 1.4588,2.14262 1.76871,2.14262 0.30992,0 0.0213,-0.96416 -0.64234,-2.14262 -0.66308,-1.17842 -1.45881,-2.14261 -1.76872,-2.14261 z m -152.29415,0.37858 c 0.95899,0.10361 2.23368,0.79927 4.71877,2.18444 2.78059,1.54987 5.38948,3.33496 5.79891,3.96507 0.40954,0.63011 -0.67218,2.55286 -2.4045,4.27263 -1.73229,1.71973 -3.68852,3.11085 -4.34696,3.09466 -2.13781,-0.057 -10.78852,-7.96954 -9.92153,-9.07468 0.46223,-0.58921 1.95947,-1.97271 3.32842,-3.07372 1.22347,-0.98399 1.86787,-1.47213 2.82689,-1.3684 z m 21.75472,3.46709 c 2.00563,0.21014 4.69017,1.93282 10.49568,6.04488 l 6.02772,4.27055 -4.90139,3.09252 c -2.69548,1.70095 -5.1546,3.08376 -5.46452,3.07162 -0.68351,-0.0244 -12.3898,-12.45378 -12.3898,-13.15478 0,-0.27291 1.27183,-1.2886 2.82689,-2.25768 1.24272,-0.77449 2.20204,-1.19324 3.40542,-1.06711 z m -37.78316,1.11104 c 0.37377,0.0563 0.77688,0.21662 1.25174,0.45822 2.22185,1.13097 2.22024,1.17296 -0.24179,5.09288 -3.19701,5.08985 -3.35294,5.20727 -6.28511,4.74551 -2.89751,-0.45623 -2.52695,-2.21633 1.57511,-7.49284 1.72364,-2.21711 2.57884,-2.97249 3.70022,-2.80377 z m 30.12975,3.38967 5.77248,6.7835 5.77252,6.78556 -4.78033,3.99438 c -4.73597,3.95839 -6.46493,4.83504 -6.4743,3.28293 -0.003,-0.44191 -2.07828,-3.4031 -4.61098,-6.58052 l -4.60438,-5.77707 4.46361,-4.24542 z m -23.27048,0.2239 c 1.20325,0 10.0506,7.42539 10.04251,8.42813 -0.003,0.37332 -1.1435,1.94968 -2.53427,3.50263 l -2.52767,2.82264 -3.94223,-2.6406 c -2.16821,-1.45286 -4.65663,-3.02639 -5.5283,-3.49636 -1.30709,-0.70469 -1.14229,-1.53489 0.93715,-4.73506 1.38686,-2.13431 2.98564,-3.88138 3.55281,-3.88138 z m 92.83106,3.46081 c 0.49901,0.0437 1.1445,0.15912 1.97552,0.32837 2.01337,0.41025 3.88767,0.94471 4.16438,1.18847 0.27671,0.24374 -0.75605,1.64187 -2.29446,3.1051 -3.18768,3.03181 -5.53055,1.97644 -5.53055,-2.48994 0,-1.73605 0.18815,-2.2627 1.68511,-2.13212 z m -43.97144,4.43168 c 1.04353,-0.0364 1.90775,0.39154 2.85325,1.20518 1.24497,1.07165 2.32154,3.19766 2.39347,4.72668 0.0852,1.81525 0.31035,2.13015 0.6468,0.90602 0.66794,-2.43087 1.78367,-2.36779 4.2656,0.2405 1.91662,2.0145 1.91846,2.24951 0.0507,4.96105 -1.5396,2.23493 -2.17182,2.53054 -2.94566,1.3684 -0.73826,-1.1087 -0.99035,-0.89135 -1.00313,0.86624 -0.0213,2.98473 -13.09275,18.53919 -15.59726,18.55942 -1.41815,0.0116 -1.52032,0.23241 -0.41803,0.89763 2.5612,1.5453 -0.87244,3.02137 -8.78201,3.77468 -4.02666,0.38345 -8.69128,0.98302 -10.36588,1.33286 -2.65525,0.55467 -3.24293,0.17612 -4.59778,-2.96076 -2.07969,-4.81512 -1.26481,-7.32023 2.42426,-7.45304 2.918,-0.10491 2.92285,-0.11859 0.31035,-0.81604 l -2.65747,-0.70931 3.78379,-4.48399 c 2.08012,-2.46693 4.1559,-4.51014 4.6132,-4.54253 0.45729,-0.0324 1.15468,1.87392 1.55093,4.23077 0.54293,3.22948 1.23982,4.28521 2.82902,4.28521 2.785,0 2.67841,-2.65658 -0.26394,-6.58683 -2.31558,-3.09299 -2.3223,-3.22325 -0.28138,-5.37112 1.14994,-1.21038 3.53845,-3.18103 5.3061,-4.37938 3.571,-2.42089 5.1819,-1.42735 5.21597,3.2139 0.0129,1.69075 0.69014,2.41042 2.27027,2.41042 2.92124,0 2.84588,-1.46393 -0.28138,-5.49669 l -2.53431,-3.26827 3.28444,-2.49411 c 3.95301,-3.00319 6.19137,-4.35543 7.93063,-4.41702 z m 122.7408,0.67792 c -0.30991,0 -0.0213,0.9642 0.64235,2.14257 0.66307,1.17843 1.4588,2.14261 1.76872,2.14261 0.30991,0 0.0213,-0.96418 -0.64234,-2.14261 -0.66309,-1.17837 -1.45882,-2.14257 -1.76873,-2.14257 z m -185.56312,0.12142 c 2.11409,-0.19071 5.00543,0.68185 8.92056,2.64266 7.55188,3.78221 13.37271,9.39563 16.1802,15.60293 1.74701,3.86262 2.11826,6.06503 1.44313,8.54315 -0.79802,2.92922 -1.08932,3.13254 -2.38028,1.65301 -0.80948,-0.92767 -1.21425,-2.0863 -0.89756,-2.57363 0.83055,-1.27815 -4.53337,-10.99034 -8.06919,-14.60901 -3.46128,-3.54235 -13.01747,-8.13992 -16.948,-8.15611 -2.24718,-0.008 -2.44849,-0.26603 -1.26933,-1.61742 0.76351,-0.875 1.75199,-1.3712 3.02047,-1.48558 z m 26.4625,0.89135 3.39003,4.04666 c 1.86454,2.22565 4.1421,5.42513 5.06196,7.10992 1.58763,2.90791 1.51348,3.22034 -1.44756,6.15995 -1.71555,1.70318 -3.42467,3.09673 -3.79921,3.09673 -0.37462,0 -1.46217,-1.56672 -2.41545,-3.48171 -0.95333,-1.91493 -2.66955,-4.97281 -3.81461,-6.79604 -2.05539,-3.27266 -2.04947,-3.35853 0.47074,-6.72492 z m -32.31642,3.96717 c 0.4206,-0.0405 0.90071,-0.0284 1.47171,0.0243 0.76136,0.0697 1.68307,0.21419 2.84448,0.42057 6.73085,1.196 10.60789,3.16232 15.00546,7.60792 4.22065,4.26676 7.78176,10.53511 5.98592,10.53511 -0.67968,0 -0.39633,0.79915 0.62914,1.77435 1.73475,1.65001 1.6062,1.87506 -1.85671,3.25993 -2.04673,0.81855 -4.55009,2.20352 -5.56353,3.07579 -1.62526,1.39925 -2.59518,1.40071 -8.21436,0.008 -3.50377,-0.86803 -6.86369,-1.8708 -7.46866,-2.2263 -0.61365,-0.36077 -0.81488,0.0612 -0.45538,0.95204 0.35462,0.87839 2.15523,1.91118 4.00381,2.29745 1.84858,0.38627 3.65191,1.42184 4.006,2.29951 0.49697,1.2317 0.84205,1.28693 1.51794,0.24699 0.6704,-1.03178 2.44882,-0.67643 7.58743,1.51696 6.91673,2.95232 10.89771,3.58333 11.9916,1.89991 0.49348,-0.75944 -8.36562,-3.58422 -11.9432,-3.80813 -1.95799,-0.12271 -2.16786,-1.65511 -0.22647,-1.65511 1.21832,0 2.69595,-0.42697 3.28444,-0.94994 0.58849,-0.52301 2.1874,-1.27147 3.55281,-1.66341 2.04057,-0.58577 2.99318,0.0559 5.35013,3.60726 3.50062,5.27439 3.50019,5.25848 0.19156,6.45501 -2.81276,1.01718 -6.71754,7.69747 -8.01419,13.70927 -1.16941,5.42165 1.04077,4.09289 2.63766,-1.58604 1.73906,-6.18437 6.25771,-12.07303 9.26378,-12.07303 2.14291,0 2.15121,0.1 0.26819,2.83309 -3.33399,4.83961 -4.77015,14.14264 -2.95226,19.11389 1.40832,3.85113 1.3703,4.40208 -0.38697,5.62432 -2.5028,1.74078 -3.24139,1.70426 -5.29951,-0.25308 -2.12824,-2.02291 -2.97649,-2.03194 -2.97649,-0.0364 0,0.86313 -0.887,2.00061 -1.9711,2.52759 v -0.003 c -5.55119,2.69826 -16.18284,1.63842 -29.56653,-2.94816 -3.40718,-1.16761 -8.33872,-2.44666 -10.95987,-2.84143 -2.62111,-0.39478 -5.40884,-1.45327 -6.19491,-2.35393 -0.79211,-0.90759 -1.4992,-4.78743 -1.58609,-8.70431 -0.13921,-6.27543 0.2716,-7.74988 3.68039,-13.15481 2.11137,-3.34772 5.10791,-9.29376 6.65909,-13.2134 2.68919,-6.79532 8.08202,-15.5279 12.65817,-20.50112 1.0575,-1.14928 1.78528,-1.70185 3.04686,-1.81829 z m 165.87627,1.44793 c 0.61949,0 1.75867,0.72311 2.52988,1.60693 0.7822,0.89636 0.90331,1.60696 0.27501,1.60696 -0.6195,0 -1.75647,-0.72315 -2.52767,-1.60696 -0.78219,-0.89642 -0.9056,-1.60693 -0.27713,-1.60693 z m -71.00152,4.19731 1.89634,2.75357 c 1.04302,1.51388 1.59078,3.2209 1.21871,3.79347 -0.37206,0.57257 0.10555,1.03991 1.06256,1.03991 2.59587,0 8.37209,11.77823 11.46585,23.37818 2.52065,9.45099 6.07609,31.21775 6.07609,37.20464 0,2.20067 -0.54448,2.62384 -3.37903,2.62384 -3.06124,0 -3.37882,-0.32715 -3.37904,-3.4817 -2.9e-4,-5.0385 -4.13244,-28.27169 -6.14428,-34.54942 -2.19115,-6.8374 -2.20204,-6.73051 0.79415,-7.27939 2.37033,-0.43405 2.35135,-0.47244 -0.29713,-0.60889 -2.33509,-0.12026 -3.37006,-1.30321 -5.90011,-6.7479 -2.48114,-5.33942 -2.8031,-6.90578 -1.6829,-8.1896 1.16822,-1.3388 1.01276,-1.47562 -0.99215,-0.87042 -1.76795,0.53375 -2.8315,0.0575 -4.15123,-1.85804 -1.66548,-2.41766 -1.61503,-2.71766 0.81839,-4.89197 z m -6.59307,7.58695 c 0.49476,0 1.586,1.21976 2.42431,2.70963 1.44314,2.56468 1.22734,3.0065 -4.03462,8.30261 l -5.55695,5.59293 5.88695,-5.29164 c 3.23796,-2.91054 6.09011,-5.08 6.33786,-4.82087 1.67778,1.75371 5.19453,9.84188 4.64618,10.6858 -0.36951,0.56902 -0.17752,1.03364 0.42678,1.03364 1.82597,0 7.07453,23.48479 8.67858,38.8346 0.75022,7.17947 0.73376,7.23125 -2.04371,7.23125 -2.49328,0 -3.18688,-1.01958 -6.37749,-9.37385 -7.49944,-19.63622 -7.12311,-18.9819 -11.10947,-19.35035 -2.50591,-0.23161 -3.63462,-0.8952 -3.64739,-2.14258 -0.009,-1.05622 -0.36099,-1.35058 -0.84476,-0.70724 -0.91349,1.21479 -13.70339,5.22026 -14.43791,4.52164 -0.25329,-0.24092 -1.17455,-2.69063 -2.04588,-5.44436 -1.50735,-4.76375 -1.46716,-5.0979 0.84033,-6.9028 1.33391,-1.04334 2.58795,-2.58666 2.78505,-3.42938 0.19711,-0.84276 1.59098,-2.70379 3.09747,-4.13666 1.50651,-1.43286 2.78929,-3.14361 2.85101,-3.79976 0.0617,-0.65618 0.51817,0.0116 1.01417,1.48559 0.89699,2.6642 0.90262,2.66291 1.01415,-0.43729 0.10775,-2.99404 8.12718,-14.56091 10.09534,-14.56091 z m 74.39815,7.63092 c -0.39123,-0.0161 -0.83639,0.0526 -1.24295,0.2073 -0.89853,0.34215 -0.63233,0.59723 0.67977,0.64865 1.18759,0.0466 1.85254,-0.2069 1.47835,-0.56285 -0.18732,-0.17774 -0.52387,-0.27776 -0.91517,-0.29315 z m -116.01353,3.2139 c -0.39123,-0.0161 -0.83639,0.0526 -1.24293,0.2073 -0.89853,0.34214 -0.63233,0.59723 0.67977,0.64865 1.18733,0.0466 1.85258,-0.20691 1.47831,-0.56285 -0.18732,-0.17775 -0.52383,-0.27817 -0.91515,-0.29315 z m 97.99202,1.07132 c -0.39123,-0.0161 -0.83639,0.0526 -1.24293,0.2073 -0.89849,0.34215 -0.63239,0.5972 0.67977,0.64862 1.18749,0.0466 1.85253,-0.2069 1.47829,-0.56285 -0.1873,-0.17776 -0.52383,-0.27736 -0.91518,-0.29275 z m -145.74505,1.41654 c -1.04648,0.008 -2.17851,0.56135 -3.29548,1.62369 -2.69722,2.56546 -2.21157,2.69749 2.6971,0.73441 3.01995,-1.20774 3.2892,-1.57248 1.61253,-2.18444 -0.32651,-0.11909 -0.66534,-0.17653 -1.01415,-0.1737 z m 119.78632,2.86446 c -0.81659,-0.004 -1.67315,0.0579 -2.3737,0.18626 v -0.003 c -1.40107,0.25631 -0.52003,0.4754 1.95791,0.48755 2.47803,0.0116 3.62438,-0.19637 2.5475,-0.4645 -0.53847,-0.13322 -1.31509,-0.20327 -2.13171,-0.20732 z m -31.52666,2.15306 c -0.61241,-0.008 -1.26477,0.0547 -1.8127,0.19031 v 0.003 c -1.09588,0.2717 -0.47257,0.51333 1.38594,0.53358 1.85841,0.0203 2.75567,-0.20043 1.99311,-0.49382 -0.38145,-0.14698 -0.95388,-0.22512 -1.56635,-0.23241 z m -33.70675,2.16979 c 4.00142,-0.0161 5.6663,0.92711 7.29923,3.41898 1.52917,2.33348 -0.72793,3.87381 -5.7065,3.8981 -2.43146,0.0116 -3.69427,0.61115 -4.05663,1.92914 -0.38016,1.38307 0.13112,1.9215 1.84134,1.94174 1.30112,0.0161 2.72461,-0.48009 3.16342,-1.10059 0.53528,-0.75668 1.27669,-0.64748 2.25271,0.33485 1.15843,1.16644 1.16447,1.56531 0.0383,1.95847 -1.0366,0.36116 -0.81029,1.3024 0.84476,3.51307 3.60049,4.80928 2.4945,8.97061 -1.24515,4.68487 -0.8411,-0.96395 -3.45706,-2.90889 -5.81211,-4.32288 -2.35499,-1.414 -3.98136,-3.02915 -3.61661,-3.59051 0.36653,-0.56442 -0.12,-0.73546 -1.08675,-0.38303 -2.88593,1.0533 -2.04921,2.24425 4.4482,6.34621 3.78218,2.38778 6.19491,4.68203 6.19491,5.88794 0,3.28577 -2.10785,3.47854 -5.79015,0.53147 -4.40272,-3.52356 -9.9787,-6.30284 -9.9787,-4.97359 0,0.55628 1.64726,1.98254 3.66059,3.16996 5.24678,3.0945 8.88418,6.55331 8.12424,7.72295 -1.4531,2.23627 -14.66668,-1.14619 -17.69813,-4.52999 -2.30749,-2.57565 -2.55845,-6.2894 -0.56321,-8.33394 1.1388,-1.16692 1.1059,-1.27888 -0.17156,-0.58588 -2.62034,1.42156 -0.75366,-7.54699 2.56288,-12.31364 2.71987,-3.90915 3.25039,-4.15654 10.42968,-4.88783 1.9382,-0.1976 3.53234,-0.31016 4.86616,-0.31584 z m 8.08461,6.86512 c 1.63121,0.22918 3.0898,3.35579 4.04117,8.77125 0.40271,2.29226 0.15709,3.48174 -0.71935,3.48174 -0.73217,0 -2.00567,-1.56681 -2.82907,-3.48174 -2.86137,-6.65446 -3.04941,-8.01716 -1.20113,-8.69176 0.23925,-0.0875 0.47534,-0.11213 0.70838,-0.0794 z m 20.44583,9.31944 c 0.75337,0.23929 -2.68433,1.75961 -7.64026,3.37922 -13.1335,4.2921 -12.65854,4.18108 -10.40549,2.43973 2.55099,-1.97167 16.25029,-6.38909 18.04575,-5.81895 z m 6.56666,1.20106 c 1.12872,-0.12748 2.12508,0.63999 2.12508,2.11956 0,0.73296 1.97923,6.52372 4.39979,12.86605 3.68823,9.66371 4.1273,11.63084 2.70365,12.15046 -0.93437,0.34091 -2.14738,-0.0523 -2.69484,-0.8746 -0.71169,-1.06893 -0.99921,-1.11396 -1.01197,-0.15709 -0.0129,0.90122 -1.97404,1.33912 -6.00135,1.33912 -5.06094,0 -6.44129,-0.45454 -8.94035,-2.94609 -4.2287,-4.21603 -5.52146,-8.05049 -4.06097,-12.03535 1.33539,-3.64345 3.93547,-5.37327 8.07358,-5.37327 3.44944,0 5.2096,1.97417 6.02551,6.75634 0.53673,3.14591 0.26138,3.8491 -1.74454,4.45466 -1.30964,0.39559 -3.52072,0.42086 -4.91455,0.0587 -2.27361,-0.5912 -2.32244,-0.53209 -0.47075,0.56702 1.17231,0.69574 3.68274,0.93596 5.80989,0.55657 2.55671,-0.4562 3.8987,-0.23363 4.2282,0.70097 0.26649,0.75299 0.381,-1.42173 0.25754,-4.83343 -0.31459,-8.6792 -3.03527,-11.42341 -10.29107,-10.37609 -6.54063,0.9441 -9.33089,4.06751 -9.36494,10.4891 -0.0129,2.54287 0.49645,5.54759 1.13297,6.67888 1.05679,1.87813 0.90431,1.96648 -1.76212,1.00225 -1.6061,-0.58079 -4.02743,-1.03715 -5.38095,-1.01691 -1.35499,0.0203 0.29331,0.97954 3.66944,2.13424 3.37232,1.15343 6.6406,2.5833 7.26401,3.17623 1.48809,1.41558 -12.11453,1.25115 -16.85113,-0.20285 -2.69388,-0.82705 -3.88534,-2.15678 -5.39638,-6.03443 -1.23377,-3.16625 -1.51094,-5.11167 -0.76554,-5.34813 0.64418,-0.20408 1.17035,-0.94706 1.17035,-1.65087 0,-0.70375 1.13251,-2.20177 2.51669,-3.32901 3.30504,-2.69149 26.76827,-10.46044 26.76827,-8.8633 0,0.66298 0.68261,0.31623 1.51788,-0.77 0.5859,-0.76207 1.31148,-1.16203 1.98873,-1.23868 z m -50.14875,16.73064 c -0.25416,0 -5.3128,5.94431 -11.23926,13.20923 -5.92646,7.26498 -14.65775,17.50928 -19.40304,22.76509 -8.87255,9.82714 -17.32858,20.23704 -17.32858,21.33186 0,2.41838 8.15127,-5.39016 15.01865,-14.38725 5.45223,-7.14293 19.01808,-23.61137 25.99177,-31.55309 6.31065,-7.18665 8.87046,-11.36584 6.96046,-11.36584 z m 95.59852,7.2585 c 0.94694,0.0956 1.33543,0.61131 1.90511,1.62369 1.36755,2.43041 -0.30949,9.37169 -2.71467,11.234 -1.84496,1.42865 -18.55194,4.61857 -27.84623,5.31674 -4.04138,0.30368 -12.16282,0.92363 -18.04797,1.37885 -18.81917,1.45562 -22.47888,1.22237 -30.42011,-1.93542 -11.07888,-4.40552 -11.42507,-4.69801 -12.07737,-10.20248 -1.00778,-8.50372 -0.52137,-8.71468 10.07111,-4.37932 l 9.33631,3.82067 16.33203,-0.60887 c 17.26544,-0.6455 38.26535,-2.9766 48.1974,-5.34814 2.8108,-0.67112 4.31741,-0.99532 5.26439,-0.89972 z m -25.47037,19.44238 c 0.2384,-0.0405 0.52175,0.0631 0.82937,0.35591 0.36483,0.34659 0.44256,1.51315 0.17368,2.59039 -0.4667,1.87028 -0.52634,1.8723 -1.364,0.0364 -0.66252,-1.45185 -0.35376,-2.86119 0.36101,-2.98164 z m -51.42468,0.7219 c 0.42358,-0.10968 1.41393,0.11419 2.56066,0.61095 1.91155,0.82843 3.36894,2.91278 4.66819,6.6726 1.03924,3.00736 2.12322,6.07003 2.40887,6.80653 0.5669,1.46101 -1.76158,1.77582 -3.8366,0.51893 -1.15817,-0.70153 -6.02112,-12.31986 -6.02112,-14.38514 0,-0.11252 0.0787,-0.18747 0.22009,-0.22391 z m 45.36179,0.69464 c 3.01685,-0.0498 3.97554,0.32757 4.38876,1.35168 0.87892,2.17845 -2.55281,3.49203 -3.88718,1.48769 -0.81558,-1.2245 -0.99922,-1.18426 -1.01199,0.22999 -0.0129,1.24705 -4.40771,3.21883 -15.81281,7.09105 -8.68695,2.94938 -15.99347,5.05394 -16.2374,4.6786 -0.36866,-0.567 -5.13494,-12.19484 -5.13673,-12.53131 -3e-4,-0.0587 5.95553,-0.4458 13.23455,-0.85997 7.27901,-0.41422 16.59485,-0.98318 20.70319,-1.26378 1.51939,-0.10361 2.75397,-0.16762 3.75961,-0.18423 z m 42.35235,22.76929 1.61031,2.67826 c 0.88534,1.47304 1.62862,3.28087 1.6499,4.01739 0.043,1.44303 -1.36838,1.78476 -2.58705,0.62561 -0.41293,-0.39276 -0.73187,-2.20067 -0.71058,-4.01738 z m -25.81575,13.92693 -2.31209,2.67821 c -1.40473,1.62657 -2.32144,4.25583 -2.33848,6.69564 -0.0129,2.20957 0.45317,4.01738 1.03612,4.01738 1.64076,0 2.1267,-1.26762 2.89949,-7.55977 z m -108.55149,3.26827 c -0.87057,0.0911 -1.95275,1.47841 -1.98213,2.967 -0.0298,1.46824 4.83711,0.29881 5.38972,-1.29517 0.2963,-0.85441 0.009,-1.19003 -0.67755,-0.78676 -0.65703,0.38627 -1.54769,0.16156 -1.97769,-0.50005 -0.19626,-0.30205 -0.4622,-0.41534 -0.75235,-0.38506 z" /></g></svg>
