<?xml version="1.0" encoding="UTF-8" standalone="no"?>
<!-- Created with Inkscape (http://www.inkscape.org/) -->

<svg
   width="210mm"
   height="297mm"
   viewBox="0 0 210 297"
   version="1.1"
   id="svg1"
   xml:space="preserve"
   inkscape:version="1.3.2 (091e20e, 2023-11-25, custom)"
   sodipodi:docname="Apprentice.svg"
   xmlns:inkscape="http://www.inkscape.org/namespaces/inkscape"
   xmlns:sodipodi="http://sodipodi.sourceforge.net/DTD/sodipodi-0.dtd"
   xmlns="http://www.w3.org/2000/svg"
   xmlns:svg="http://www.w3.org/2000/svg"><sodipodi:namedview
     id="namedview1"
     pagecolor="#ffffff"
     bordercolor="#000000"
     borderopacity="0.25"
     inkscape:showpageshadow="2"
     inkscape:pageopacity="0.0"
     inkscape:pagecheckerboard="0"
     inkscape:deskcolor="#d1d1d1"
     inkscape:document-units="mm"
     inkscape:zoom="1.0449705"
     inkscape:cx="553.12564"
     inkscape:cy="642.60185"
     inkscape:window-width="2560"
     inkscape:window-height="1369"
     inkscape:window-x="-8"
     inkscape:window-y="-8"
     inkscape:window-maximized="1"
     inkscape:current-layer="layer1" /><defs
     id="defs1" /><g
     inkscape:label="Layer 1"
     inkscape:groupmode="layer"
     id="layer1"><path
       id="path73"
       style="fill:#000000;fill-opacity:1;stroke-width:1.7;stroke-dasharray:none"
       d="m 100.39579,75.011129 c -0.720265,-0.0276 -1.500765,0.38863 -2.490805,1.30121 -1.39568,1.28649 -2.42373,2.88045 -1.85776,2.88045 0.20433,0 0.75992,-0.54056 1.23455,-1.20148 0.94804,-1.32014 2.22474,-2.23811 3.112465,-2.23811 0.81398,0 0.90912,0.505 0.43874,2.32028 -0.60918,2.35086 -0.54238,3.83379 0.2129,4.73718 0.97066,1.16095 3.2567,6.08226 2.9621,6.37687 -0.0639,0.0639 -0.75516,-0.24945 -1.53583,-0.69608 -1.62845,-0.9317 -4.109345,-1.64965 -5.087545,-1.47227 -0.50167,0.091 -0.67566,0.005 -0.69866,-0.34675 -0.0279,-0.4255 -0.0416,-0.42705 -0.14935,-0.0176 -0.0652,0.24783 -0.37904,0.52844 -0.69711,0.62374 -0.31806,0.0952 -1.26287,0.51562 -2.09962,0.93431 -0.83674,0.41869 -1.52135,0.70654 -1.52135,0.63924 0,-0.0673 0.29294,-0.75053 0.65112,-1.51774 1.24894,-2.67514 2.50249,-6.15803 2.24793,-6.24613 -0.141,-0.0488 -0.1777,-0.21597 -0.0816,-0.37155 0.1042,-0.1686 0.0498,-0.20555 -0.13488,-0.0915 -0.17036,0.1053 -0.24133,0.30224 -0.15761,0.4377 0.0837,0.13547 0.0442,0.24649 -0.0879,0.24649 -0.28675,0 -0.87485,1.34352 -1.63608,3.73724 -0.3066,0.96412 -0.94963,2.40398 -1.42885,3.19981 -0.47923,0.79584 -0.94237,1.63181 -1.02888,1.85725 -0.10565,0.27533 -0.68458,0.47111 -1.76371,0.59635 -0.88365,0.10256 -1.60663,0.23765 -1.60663,0.30075 0,0.0631 0.23944,0.82625 0.53227,1.69551 0.61566,1.82753 1.92279,4.05982 2.69286,4.5992 0.50619,0.35455 0.51325,0.43709 0.14314,1.69964 -0.39681,1.353681 -0.24853,1.893421 0.5209,1.893421 0.18918,0 0.34417,0.12436 0.34417,0.27647 0,0.17291 -0.34825,0.21129 -0.92914,0.10232 -1.02678,-0.19263 -1.7167,0.18487 -1.7167,0.93896 0,0.27587 -0.63289,0.8497 -1.58543,1.43764 -1.73653,1.07185 -2.48298,1.92917 -3.57084,4.10104 -0.39461,0.78782 -1.31078,2.14537 -2.03605,3.01687 -1.72821,2.07666 -2.34989,3.10239 -3.2365,5.34024 -0.40356,1.01865 -1.13896,2.50923 -1.63452,3.31246 -0.81836,1.32644 -0.90124,1.64525 -0.90124,3.47628 0,2.53139 0.31009,2.93885 2.64583,3.47627 0.94589,0.21764 2.55324,0.6566 3.57188,0.97513 2.37962,0.74409 5.32068,0.83611 6.29626,0.19689 1.33413,-0.87416 1.55546,-0.49411 0.38912,0.66818 -0.62102,0.61886 -2.20069,2.48231 -3.51038,4.14083 -1.30968,1.65853 -3.55268,4.49082 -4.98471,6.29419 -2.43052,3.06078 -2.91507,4.0504 -1.98231,4.0504 0.248,0 0.25224,-0.0738 0.0176,-0.30851 -0.23466,-0.23467 -0.2244,-0.37683 0.0419,-0.59531 0.19239,-0.15786 1.53289,-1.77509 2.97915,-3.5941 3.31449,-4.16875 4.69367,-5.89926 7.00009,-8.78241 1.01192,-1.26496 2.04436,-2.36188 2.29443,-2.43758 0.76665,-0.23215 2.23871,-0.0928 2.95228,0.27957 0.37261,0.19446 0.79731,0.35464 0.94361,0.35554 0.14629,9e-4 0.3961,0.41827 0.55552,0.92759 0.21107,0.67305 0.21062,0.92491 -10e-4,0.92191 -0.52076,-0.007 -1.03185,-0.4618 -1.38183,-1.22887 -0.34155,-0.74856 -0.3423,-0.74878 -0.19999,-0.0527 0.16577,0.81081 -0.28343,1.23452 -0.63769,0.60152 -0.38233,-0.68319 -0.61837,1.75907 -0.32143,3.32486 0.23228,1.22478 0.18133,1.48306 -0.64905,3.30522 -0.49544,1.08717 -1.25293,2.42677 -1.68362,2.97656 -0.43069,0.54979 -0.86105,1.44637 -0.95653,1.99265 -0.17571,1.00533 -1.0189,2.04948 -1.65468,2.04948 -0.19084,0 -0.34675,0.12734 -0.34675,0.28267 0,0.40322 1.07106,0.0303 1.7818,-0.62011 0.3252,-0.29759 0.66554,-0.96844 0.75655,-1.49087 0.091,-0.52243 0.51237,-1.39238 0.93586,-1.93321 0.42348,-0.54083 1.25358,-1.93981 1.84485,-3.10886 0.59126,-1.16904 1.23055,-2.12545 1.42058,-2.12545 0.70165,0 1.4248,0.97166 1.96939,2.64583 0.72098,2.21647 0.74219,2.24259 2.08721,2.57763 1.05832,0.2636 1.44309,0.18027 5.423955,-1.17719 2.35665,-0.80362 4.45335,-1.59643 4.65915,-1.76165 0.31844,-0.25565 0.34558,-0.0441 0.18345,1.41955 -0.10479,0.94588 -0.22605,2.61277 -0.26976,3.70416 -0.0437,1.0914 -0.1732,2.96665 -0.28784,4.16719 h -5.1e-4 c -0.1807,1.89253 -0.15314,2.18281 0.20568,2.18281 0.31261,0 0.45717,-0.40644 0.59169,-1.66243 0.0979,-0.91449 0.15276,-1.83722 0.12196,-2.05052 -0.0309,-0.21331 -0.0402,-0.68575 -0.0207,-1.04955 0.0292,-0.54525 0.0856,-0.59173 0.32091,-0.26458 0.23091,0.32098 0.25186,0.29568 0.11058,-0.13229 -0.0961,-0.29104 -0.23254,-2.15111 -0.30334,-4.1336 l -0.12867,-3.60443 0.66921,-0.12816 c 0.36797,-0.0704 0.73646,-0.0609 0.81855,0.0212 0.0821,0.0821 0.0677,1.89322 -0.0315,4.02456 -0.13001,2.792 -0.0961,3.92729 0.12144,4.06177 0.28992,0.17914 0.42633,-2.89237 0.30644,-6.90656 l -0.0413,-1.37356 1.01079,-0.17001 c 0.55585,-0.0935 1.40556,-0.29096 1.88826,-0.43873 0.48269,-0.14776 0.90569,-0.22712 0.93998,-0.17622 0.70827,1.05091 0.95544,1.76361 1.09659,3.1657 0.17324,1.72093 0.8246,5.04258 1.14307,5.82755 0.13219,0.3258 0.32295,0.37743 0.76534,0.20877 l 0.58911,-0.22427 -0.78807,-1.75649 c -0.52049,-1.16007 -0.84344,-2.39913 -0.95084,-3.64887 -0.0897,-1.04327 -0.40296,-2.38806 -0.69815,-2.99723 -0.44594,-0.9203 -0.49083,-1.2798 -0.26975,-2.15078 0.1945,-0.76631 0.17379,-1.31172 -0.077,-2.04121 -0.28549,-0.83059 -0.28098,-1.08898 0.0274,-1.5596 0.48243,-0.73628 0.56401,-2.66139 0.29455,-6.96805 -0.16348,-2.61256 -0.14133,-3.50573 0.0879,-3.50573 0.19755,0 0.16966,-0.13831 -0.0785,-0.38654 -0.32333,-0.32334 -1.24172,-4.29377 -1.23972,-5.36143 9.4e-4,-0.56525 1.63886,-0.0658 2.87269,0.87592 0.63393,0.48381 1.76502,1.0708 2.51354,1.30483 3.03294,0.94825 3.68072,1.24221 3.30782,1.50068 -0.25943,0.1798 -0.20957,0.20769 0.17932,0.0997 0.29629,-0.0822 1.2493,0.10384 2.11718,0.41392 1.96042,0.70043 4.18541,0.76145 5.34334,0.14625 2.51086,-1.33399 2.15102,-5.79057 -0.71572,-8.86458 -0.72188,-0.77406 -1.66557,-2.02372 -2.09754,-2.7776 -0.85119,-1.48553 -2.28978,-3.09076 -2.76986,-3.09077 -0.16463,0 -0.6318,-0.41672 -1.03818,-0.92604 -0.40639,-0.509321 -0.94781,-0.926051 -1.20354,-0.926051 -0.25573,0 -0.60827,-0.14266 -0.7829,-0.31729 -0.2469,-0.24694 -0.31729,-0.19047 -0.31729,0.25528 0,0.928821 -0.81574,2.368441 -1.52549,2.691831 -0.88006,0.40096 -2.97243,0.67519 -2.97243,0.38964 0,-0.12501 0.73447,-0.96776 1.63194,-1.87327 1.44155,-1.454481 1.696,-1.612201 2.18282,-1.352891 0.51353,0.27354 0.5245,0.25895 0.16278,-0.21291 -0.21349,-0.27848 -0.40512,-0.53909 -0.42582,-0.57929 -0.0207,-0.0402 -0.87635,0.78761 -1.90169,1.839681 -1.76647,1.81251 -1.90071,1.89656 -2.55178,1.5999 -0.37792,-0.17219 -0.91443,-0.68759 -1.19269,-1.14515 -0.6374,-1.048131 -1.79287,-1.821141 -2.72645,-1.823141 -0.59084,-0.001 -0.76026,0.15274 -0.9431,0.85834 -0.12255,0.472951 -0.39402,0.859901 -0.60306,0.859901 -0.20903,0 -0.70788,0.44648 -1.10898,0.99219 -0.68701,0.9347 -1.21596,1.20766 -1.59887,0.82475 -0.28906,-0.28906 1.43164,-2.45066 1.82935,-2.29805 0.21846,0.0838 0.36639,-0.0307 0.36639,-0.284221 0,-0.23385 0.17488,-0.4253 0.3886,-0.4253 0.22721,0 0.32883,-0.15623 0.24443,-0.3762 -0.0794,-0.20691 -0.004,-0.63842 0.16692,-0.9586 0.2687,-0.50204 0.46447,-0.56114 1.42162,-0.42995 0.61039,0.0837 1.31254,0.23037 1.56062,0.32557 0.25541,0.098 0.45114,0.0474 0.45114,-0.11628 0,-0.15899 -0.52739,-0.42162 -1.17202,-0.58394 -0.87315,-0.21986 -1.13281,-0.39732 -1.01856,-0.69505 0.15345,-0.39988 1.15469,-0.37215 2.65359,0.0734 0.34308,0.10198 0.59531,0.0631 0.59531,-0.092 0,-0.14798 -0.60097,-0.41346 -1.33532,-0.58963 -0.77717,-0.18644 -1.29228,-0.44624 -1.23248,-0.62167 0.11858,-0.3478 1.87556,-0.39068 2.79776,-0.0682 0.46233,0.16167 0.59707,0.13022 0.51367,-0.11989 -0.0622,-0.18644 -0.58248,-0.49288 -1.156,-0.68109 l -1.04283,-0.3421 1.49707,0.078 c 1.89118,0.0983 2.60476,0.5711 3.66851,2.43034 0.5829,1.01883 0.93649,1.40133 1.12292,1.21491 0.18642,-0.18643 -0.0211,-0.76369 -0.65836,-1.83348 -0.87582,-1.47022 -0.90479,-1.59375 -0.50178,-2.10529 0.52236,-0.66302 4.18686,-2.52549 4.53978,-2.30736 0.1395,0.0862 0.25373,0.0299 0.25373,-0.12505 0,-0.15498 1.25017,-0.90356 2.77812,-1.66347 1.52796,-0.75991 2.77813,-1.54089 2.77813,-1.73581 0,-0.21382 -0.18405,-0.29994 -0.46302,-0.21704 -0.25466,0.0757 -0.82022,0.22524 -1.25677,0.33228 -0.79357,0.19458 -0.7936,0.19465 -0.13229,0.36122 l 0.66145,0.1664 -0.79375,0.40772 c -0.97698,0.50188 -2.77812,0.80421 -2.77812,0.46612 0,-0.13638 0.13874,-0.24804 0.30851,-0.24804 0.16979,0 0.22311,-0.0859 0.11834,-0.19069 -0.10477,-0.10474 -0.44138,-0.19444 -0.74828,-0.19844 -0.3069,-0.004 -0.60326,-0.14152 -0.65836,-0.30489 -0.12826,-0.38034 1.03862,-0.69757 1.25832,-0.34209 0.10071,0.16295 0.30097,0.10373 0.51315,-0.15193 0.19134,-0.23055 0.5376,-0.40089 0.76998,-0.37879 0.90222,0.0859 1.09652,-0.063 1.74098,-1.3348 0.76835,-1.5163 0.78465,-1.59629 0.32193,-1.59629 -0.18929,0 -0.59955,0.52519 -0.91155,1.16737 -0.51049,1.05074 -0.71501,1.21095 -2.04587,1.59784 -0.81339,0.2365 -1.59372,0.35872 -1.73426,0.27182 -0.47953,-0.29637 -0.25721,-0.93281 0.41548,-1.18856 0.3693,-0.14041 1.10481,-0.55009 1.63452,-0.91002 0.75689,-0.51432 0.87193,-0.68948 0.53692,-0.81804 -0.2464,-0.0945 -0.85049,0.12457 -1.43144,0.51935 -0.55281,0.37564 -1.11192,0.68316 -1.24281,0.68316 -0.39614,0 0.0179,-2.12076 0.52296,-2.67891 0.28896,-0.31929 0.73299,-0.49055 1.14669,-0.44235 0.53571,0.0624 0.67316,0.22273 0.66716,0.77566 -0.005,0.4367 0.11113,0.65115 0.31057,0.57465 1.10308,-0.42329 0.30364,-2.1978 -0.99013,-2.1978 -1.18715,0 -2.26223,1.18582 -2.49751,2.75487 -0.23763,1.58451 0.32746,3.8206 1.06865,4.2292 0.29104,0.16044 0.57593,0.3185 0.63304,0.3514 0.31326,0.18025 -0.78546,0.96037 -2.49752,1.77302 -1.07053,0.50814 -2.39851,1.32942 -2.95123,1.82521 -0.74693,0.66993 -1.14098,0.85208 -1.53428,0.709 -0.29104,-0.1058 -0.70775,-0.1315 -0.92604,-0.0568 -0.21827,0.0746 0.0553,-0.26937 0.60771,-0.76429 0.74544,-0.66787 1.10311,-1.27486 1.38751,-2.3549 0.69276,-2.63072 1.20266,-6.09036 1.03199,-7.00008 -0.17875,-0.95277 0.25963,-2.22355 0.50591,-1.46658 0.071,0.21828 0.18868,0.57547 0.26148,0.79375 0.0729,0.21828 0.14197,-0.17238 0.15347,-0.86817 0.015,-0.9101 -0.0939,-1.3089 -0.38757,-1.42161 -0.22455,-0.0862 -0.46051,-0.10486 -0.52451,-0.0408 -0.0639,0.064 -0.30125,1.53756 -0.52711,3.27422 -0.88767,6.82532 -1.90501,9.37514 -3.74138,9.37514 -0.81042,0 -2.45367,0.85003 -2.69389,1.39371 -0.0494,0.11176 -0.61493,0.84815 -1.25677,1.63608 -0.81462,1.00002 -1.16685,1.67726 -1.16685,2.24379 0,0.95587 -0.0951,0.98341 -0.98599,0.28267 -0.38471,-0.30262 -1.08237,-0.53189 -1.62936,-0.53589 -0.84786,-0.006 -1.05774,-0.15613 -1.84743,-1.32033 l -0.8909,-1.31361 1.61954,-3.61735 c 0.89079,-1.98966 1.56016,-3.67673 1.48776,-3.74913 -0.0724,-0.0724 -0.59248,0.006 -1.156,0.17518 -1.55767,0.46668 -1.88797,0.39016 -2.20142,-0.50901 -0.32282,-0.92604 -2.38138,-5.03944 -3.05821,-6.11074 -0.3967,-0.6279 -0.41095,-0.92314 -0.12609,-2.58434 0.5112,-2.98102 0.43944,-3.94036 -0.32039,-4.28656 -0.23228,-0.10583 -0.46581,-0.16444 -0.7059,-0.17363 z m 29.69896,2.41277 c -0.33332,0.0169 -0.80323,0.16157 -1.42162,0.38499 -2.18824,0.79059 -5.48084,2.79702 -6.80579,4.14704 -0.98382,1.00248 -1.04748,1.15643 -0.88107,2.13527 l 0.17932,1.05471 0.16691,-0.97823 c 0.0919,-0.53808 0.32497,-1.16817 0.51728,-1.39992 0.99031,-1.19325 7.70088,-4.96035 8.10906,-4.55217 0.0965,0.0965 -0.2676,1.55769 -0.80925,3.24734 -0.54164,1.68968 -0.92451,3.13209 -0.85111,3.20549 0.3386,0.33861 0.73769,-0.38971 1.44745,-2.64118 1.12125,-3.55678 1.34874,-4.65407 0.34882,-4.60334 z m -34.362235,3.72122 c -0.0278,0.0278 -0.0469,0.12029 -0.0532,0.27441 -0.0115,0.27896 0.0511,0.43516 0.13901,0.34726 0.0879,-0.0879 0.0976,-0.31594 0.0212,-0.50694 -0.0422,-0.10553 -0.0792,-0.14255 -0.10697,-0.11473 z m 0.31419,1.60972 c -0.0478,-0.0178 -0.0816,0.13385 -0.0816,0.4067 0,0.36383 0.0599,0.51263 0.13333,0.33073 0.0734,-0.1819 0.0734,-0.47956 0,-0.66146 -0.0183,-0.0455 -0.0357,-0.07 -0.0517,-0.076 z m 0.21497,1.82987 c -0.0278,0.0278 -0.0469,0.12029 -0.0532,0.2744 -0.0115,0.27887 0.0511,0.43516 0.13901,0.34726 0.0879,-0.0879 0.0976,-0.31595 0.0212,-0.50694 -0.0422,-0.10554 -0.0791,-0.14254 -0.10697,-0.11472 z m 23.806815,0.008 c -0.299,0.299 0.23799,2.53783 0.60875,2.53783 0.20937,0 0.38085,0.0497 0.38085,0.11059 0,0.0609 0.0724,0.29897 0.16072,0.52916 0.12006,0.31285 -0.006,0.41858 -0.50075,0.41858 -0.3638,0 -0.73387,0.18839 -0.82217,0.41858 -0.20314,0.53037 -0.20852,1.82626 -0.008,2.02675 0.18595,0.18596 1.70578,-0.22887 2.0314,-0.55449 0.13736,-0.13735 0.0737,-1.21316 -0.15296,-2.58434 -0.24477,-1.48089 -0.39807,-1.98558 -0.41548,-1.36529 -0.0393,1.39882 -0.74294,1.04423 -0.97307,-0.49041 -0.0973,-0.64868 -0.23623,-1.11976 -0.30902,-1.04696 z m -23.086955,2.9931 1.46864,0.15141 c 0.94664,0.0977 2.001685,0.45259 2.968805,0.99839 1.99294,1.12475 2.71925,1.30562 4.04523,1.00769 0.61167,-0.13695 1.15928,-0.2024 1.21698,-0.1447 0.0577,0.0577 -0.39788,1.27183 -1.01234,2.69855 -0.93631,2.174 -1.16212,2.51749 -1.3963,2.12132 -1.50111,-2.53962 -3.06171,-3.62529 -5.459605,-3.79874 -1.21529,-0.0879 -1.57103,-0.20972 -1.58543,-0.54415 -0.0164,-0.37938 -0.0405,-0.37712 -0.19896,0.0222 -0.0991,0.24965 -0.83437,0.78543 -1.63452,1.19062 -1.61379,0.81719 -3.14163,2.6044 -3.71709,4.34806 -0.42316,1.28218 -0.59218,1.40162 -1.13482,0.80202 -0.44334,-0.48989 -2.29185,-4.32784 -2.29185,-4.75837 0,-0.13614 0.53647,-0.30799 1.19218,-0.38189 0.83984,-0.0947 1.79777,-0.53057 3.24115,-1.47484 1.8939,-1.239 3.20376,-1.89911 3.76773,-1.89911 0.12592,0 0.28054,0.26789 0.34364,0.59531 0.0936,0.48582 0.12098,0.45449 0.15038,-0.1695 z m 24.156135,1.17254 c 0.0727,0.002 0.10131,0.11575 0.14521,0.34364 0.0507,0.26321 -0.0684,0.58052 -0.26458,0.70487 -0.83374,0.52837 -1.03636,0.0256 -0.29042,-0.72037 0.22049,-0.22051 0.33709,-0.33017 0.40979,-0.32814 z m -16.58606,0.31522 c 0.0316,0.005 0.0664,0.0189 0.10283,0.0413 0.14552,0.0899 0.26459,0.21589 0.26459,0.28009 0,0.0642 -0.11907,0.11679 -0.26459,0.11679 -0.14552,0 -0.26458,-0.12598 -0.26458,-0.28009 0,-0.11556 0.0669,-0.17407 0.16175,-0.15813 z m -5.639965,2.10685 c 0.81154,0.0368 1.516985,0.22919 1.908925,0.62115 0.61459,0.61459 0.47005,0.88522 -0.47285,0.88522 -0.818875,0 -1.939715,0.5557 -2.369865,1.17512 -0.12203,0.1757 -0.20284,0.13232 -0.21704,-0.11679 -0.0195,-0.34166 -0.0478,-0.33894 -0.20258,0.0145 -0.15471,0.35311 -0.27227,0.3602 -0.84129,0.0563 -0.39449,-0.21096 -1.06191,-0.29477 -1.65364,-0.20877 -0.86354,0.12552 -0.99219,0.0755 -0.99219,-0.38448 0,-1.0544 2.09194,-1.89027 4.0013,-2.02881 0.28641,-0.0208 0.56872,-0.0257 0.83923,-0.0134 z m -1.54202,0.57051 c -0.0479,-0.0178 -0.0816,0.13384 -0.0816,0.40669 0,0.36383 0.0599,0.51263 0.13332,0.33073 0.0734,-0.1819 0.0734,-0.47956 0,-0.66146 -0.0184,-0.0455 -0.0357,-0.07 -0.0517,-0.076 z m 4.620385,0.67127 c 0.49153,0 2.13527,2.42215 2.13527,3.14658 0,0.14435 0.47312,1.01731 1.05161,1.93994 l 1.05213,1.67741 -1.17667,2.240691 c -0.64811,1.23432 -1.18262,2.00255 -1.19062,1.71101 -0.064,-2.39351 -0.79411,-6.640481 -1.57045,-9.134841 -0.27061,-0.8695 -0.40617,-1.58079 -0.30127,-1.58079 z m -1.3715,0.80616 c 0.48653,-0.0246 0.86093,0.0611 0.86093,0.27026 0,0.16236 -0.22595,0.21059 -0.53123,0.11369 -0.29208,-0.0927 -0.90536,0.0181 -1.363225,0.2465 -0.45788,0.22842 -0.93362,0.41548 -1.05678,0.41548 -0.43296,0 -0.2162,-0.25513 0.55656,-0.65474 0.44827,-0.23181 1.047215,-0.36655 1.533745,-0.39119 z m 22.52834,0.0491 c -0.0391,-0.0344 -0.13036,0.0399 -0.23616,0.2036 -0.14107,0.21828 -0.25631,0.51594 -0.25631,0.66146 0,0.14552 0.11524,0.086 0.25631,-0.13229 0.14106,-0.21828 0.25632,-0.51594 0.25632,-0.66146 0,-0.0364 -0.007,-0.0598 -0.0202,-0.0713 z m -27.342505,0.75706 c 0.27631,0.0175 0.49107,0.14448 0.79581,0.39067 0.49575,0.40049 0.4907,0.41025 -0.14779,0.27699 -0.3638,-0.0759 -1.10795,-0.0372 -1.65365,0.0863 -1.20377,0.27233 -1.31982,-0.0832 -0.15916,-0.48783 0.55048,-0.1919 0.88848,-0.28367 1.16479,-0.26613 z m -2.63964,0.01 c 0.18374,0.0281 0.26976,0.63029 0.30283,1.81281 0.0638,2.28038 0.74653,4.445591 2.14974,6.818191 0.45184,0.76397 0.7353,1.38262 0.62993,1.37562 -0.38557,-0.0267 -4.66755,-3.04251 -4.92166,-3.46645 -0.30582,-0.51019 0.13156,-2.772641 0.94878,-4.910301 0.42526,-1.11239 0.70665,-1.65798 0.89038,-1.62987 z m 7.895125,0.11369 v 5.1e-4 c 0.24477,-0.003 0.43438,0.0256 0.50591,0.0971 0.20207,0.20205 0.059,0.28433 -0.49661,0.28733 v -5.2e-4 c -0.42928,0.002 -1.04821,0.0756 -1.375625,0.1633 -0.32742,0.0882 -0.59531,0.091 -0.59531,0.007 0,-0.25435 1.227325,-0.54562 1.961635,-0.55448 z m -3.332095,0.27853 c 0.11948,-0.0738 0.43636,0.4848 0.70384,1.24127 0.26748,0.75648 0.53941,1.52394 0.60461,1.70584 0.0652,0.1819 -0.063,0.33073 -0.28474,0.33073 -0.22173,0 -0.463,-0.14883 -0.5364,-0.33073 -0.10674,-0.26458 -0.13781,-0.26458 -0.15451,0 -0.0115,0.1819 -0.13973,0.33073 -0.28525,0.33073 -0.31628,0 -0.36094,-3.08412 -0.0476,-3.27784 z m 24.889955,0.16382 c -0.0391,-0.0344 -0.13036,0.0399 -0.23616,0.2036 -0.14106,0.21829 -0.25632,0.51594 -0.25632,0.66146 0,0.14552 0.11526,0.086 0.25632,-0.13229 0.14107,-0.21828 0.25631,-0.51594 0.25631,-0.66146 0,-0.0364 -0.007,-0.0598 -0.0202,-0.0713 z m -26.465565,0.57722 c 0.13825,0.0112 0.15599,0.0521 0.0357,0.12196 -0.59628,0.34546 -2.56715,0.65469 -2.24896,0.35243 0.14552,-0.13823 0.80037,-0.32541 1.45521,-0.41651 0.36112,-0.0503 0.61984,-0.0691 0.75809,-0.0579 z m 4.333065,0.0233 h 1.65106 l 0.30747,1.32291 c 0.16922,0.7276 0.3176,1.73965 0.3297,2.24896 0.0121,0.50933 -0.26362,1.521361 -0.61288,2.248961 l -0.63511,1.32292 0.14315,-1.73995 c 0.13683,-1.662221 0.11087,-1.765711 -0.58756,-2.315101 -0.40211,-0.3163 -0.87497,-0.57516 -1.05059,-0.57516 -0.175605,0 -0.464835,-0.44648 -0.642845,-0.99219 -0.17801,-0.5457 -0.37553,-1.11125 -0.43873,-1.25677 -0.0697,-0.1604 0.53532,-0.26458 1.536335,-0.26458 z m -2.636015,0.23254 c -0.0278,0.0278 -0.0469,0.12028 -0.0532,0.2744 -0.0115,0.27886 0.0511,0.43517 0.13901,0.34727 0.0879,-0.0879 0.0976,-0.31596 0.0212,-0.50695 -0.0422,-0.10554 -0.0791,-0.14253 -0.10697,-0.11472 z m -1.12861,0.3297 c 0.18444,0.0135 0.25044,0.30071 0.32401,1.09605 0.0973,1.05218 0.0171,1.349 -0.50281,1.85829 -0.78482,0.76873 -0.77736,1.486641 0.0305,2.899561 0.3536,0.61845 0.54317,1.12448 0.42116,1.12448 -0.56313,0 -1.88918,-2.00202 -2.38125,-3.595131 -0.76484,-2.47629 -0.73058,-2.69658 0.45114,-2.9099 0.5457,-0.0985 1.18864,-0.28036 1.42885,-0.40411 0.0925,-0.0477 0.16693,-0.0737 0.22841,-0.0692 z m 2.49597,2.55643 c 0.44428,-0.009 0.877645,0.0532 1.243335,0.20464 l 0.82372,0.34158 -0.14935,1.739431 c -0.0821,0.95675 -0.33536,2.44928 -0.56327,3.31659 -0.46829,1.78211 -0.52173,2.52388 -0.18138,2.52388 0.23735,0 0.81652,-1.95982 0.83612,-2.82929 0.006,-0.26298 0.3631,-0.8904 0.79375,-1.39423 0.43064,-0.50382 0.78503,-1.09914 0.78703,-1.32291 0.004,-0.35927 0.034,-0.36008 0.26045,-0.01 0.52143,0.80686 0.296,3.61837 -0.43976,5.48752 -0.38726,0.9838 -0.7438,1.83734 -0.7922,1.89704 -0.0484,0.0598 -0.32664,-0.10736 -0.61857,-0.37155 -0.97686,-0.88404 -0.54444,-0.0355 0.55035,1.08003 0.98242,1.00101 1.04916,1.15271 0.73019,1.66347 -0.19306,0.30914 -0.47779,0.56224 -0.63252,0.56224 -0.52426,0 -1.972385,-1.7409 -1.991085,-2.39365 -0.0152,-0.52957 -0.0532,-0.5623 -0.20567,-0.17622 -0.1646,0.41679 -0.36443,0.33532 -1.68,-0.68626 -2.01147,-1.56194 -3.86543,-2.75049 -6.27352,-4.0225 -1.47332,-0.77824 -2.00867,-1.20148 -2.00867,-1.5875 0,-1.3113 2.46338,-0.39894 6.61459,2.4505 1.16417,0.7991 2.23573,1.47178 2.38125,1.49448 0.14552,0.0227 0.40487,0.12926 0.57671,0.23668 0.17185,0.10746 0.37416,0.0963 0.44906,-0.0248 0.16129,-0.26096 -0.47784,-2.23259 -0.66352,-2.0469 -0.20277,0.20277 -2.61121,-4.06791 -2.61121,-4.630211 0,-0.80958 1.43132,-1.47552 2.76417,-1.50223 z m -0.0904,0.48524 c -0.63112,0.006 -1.25562,0.26099 -1.87999,0.76688 l -0.66146,0.535881 1.05833,-0.141071 c 2.830045,-0.37715 3.522745,-0.73231 2.11667,-1.08521 -0.21208,-0.0532 -0.42318,-0.0785 -0.63355,-0.0765 z m 8.718835,0.447 c 1.20508,0.0296 1.08858,0.61144 -0.22375,2.617931 -0.74188,1.13428 -1.962,3.28252 -2.71147,4.77387 -0.74946,1.49136 -1.45478,2.76847 -1.56734,2.83807 -0.11255,0.0696 -0.40586,-0.0958 -0.65164,-0.36742 -0.42311,-0.46754 -0.37648,-0.6502 0.87385,-3.4432 1.82079,-4.06736 3.14125,-6.362941 3.68246,-6.400641 0.22646,-0.0158 0.42575,-0.0228 0.59789,-0.0186 z m 4.75734,0.37104 c 0.16058,-0.006 0.30831,0.0698 0.48937,0.18448 0.37199,0.235571 -0.81905,1.947461 -3.65559,5.253951 -0.59071,0.68857 -2.76176,3.38876 -4.82451,6.00015 -3.12466,3.95572 -3.7839,4.6621 -3.9517,4.23333 -0.16611,-0.4244 -0.20484,-0.37972 -0.22014,0.25425 -0.0213,0.88224 -1.174395,2.53834 -1.767325,2.53834 -0.21947,0 -0.3263,0.11779 -0.2372,0.262 0.0891,0.14422 -0.0528,0.55724 -0.31522,0.91778 -0.57719,0.79294 -0.66171,0.80779 -1.05162,0.18345 -0.24826,-0.39753 -0.19884,-0.61681 0.26665,-1.17512 0.31477,-0.37755 1.28696,-1.602 2.16008,-2.72077 1.706805,-2.18704 4.772435,-5.99621 7.216085,-8.96637 0.83332,-1.01287 2.11046,-2.62859 2.83807,-3.591 1.97259,-2.60917 2.57129,-3.357241 3.05305,-3.374471 z m 1.29398,0.454231 0.66714,1.05627 c 0.36675,0.58097 0.91913,1.19131 1.22783,1.35651 0.55324,0.29609 0.54876,0.31326 -0.31264,1.20199 -0.99621,1.02782 -0.92767,1.01045 -1.89084,0.48783 l -0.72399,-0.39274 0.51935,-1.36685 c 0.28562,-0.75169 0.47851,-1.40715 0.42891,-1.45675 -0.12552,-0.12552 -0.91776,1.11546 -1.22059,1.91202 -0.13798,0.3629 -0.37282,0.65991 -0.52194,0.65991 -0.39664,0 -0.3311,-0.41473 0.12558,-0.79375 0.21828,-0.18115 0.39687,-0.50609 0.39687,-0.72192 0,-0.21583 0.29343,-0.74104 0.65216,-1.16737 z m 8.44651,0.18242 c 0.28599,0.006 0.65353,0.18696 0.97978,0.53899 0.68491,0.73904 0.76075,0.94664 0.45786,1.24953 -0.10357,0.10357 -0.41497,-0.0851 -0.69247,-0.41909 l -0.50488,-0.6072 0.45321,0.75603 c 0.4481,0.74788 0.44358,0.76498 -0.40773,1.64331 -0.47318,0.4882 -1.2464,1.07059 -1.71824,1.29449 -1.1531,0.54719 -1.86298,0.51259 -2.49752,-0.12196 -0.82715,-0.82714 -0.64129,-1.19428 0.79013,-1.56114 1.30644,-0.33483 2.64945,-1.48385 2.64945,-2.26705 0,-0.34466 0.20442,-0.51237 0.49041,-0.50591 z m -23.650235,0.48783 c -0.0478,-0.0178 -0.0816,0.13384 -0.0816,0.40669 0,0.36383 0.0599,0.51263 0.13333,0.33073 0.0734,-0.1819 0.0734,-0.47956 0,-0.66146 -0.0183,-0.0455 -0.0357,-0.07 -0.0517,-0.076 z m 25.878525,1.34152 c 0.12375,-0.0136 0.29078,0.0852 0.59686,0.28577 0.35807,0.23461 1.08767,1.14573 1.62161,2.02468 0.53392,0.87896 1.5044,2.19847 2.15645,2.93264 1.31418,1.47969 2.2923,3.43301 2.55902,5.10925 0.22904,1.43946 -0.38087,2.64719 -1.59215,3.15329 -0.49498,0.20682 -1.17169,0.36394 -1.50379,0.34934 -0.84912,-0.0374 -2.6244,-0.47207 -2.96467,-0.72606 -0.15692,-0.11712 -0.82104,-0.36536 -1.47588,-0.55139 -0.65484,-0.18601 -1.30969,-0.4319 -1.45521,-0.54673 -0.14552,-0.11483 -1.03851,-0.40504 -1.98437,-0.64492 -1.82622,-0.46313 -3.50858,-1.45822 -4.16823,-2.46497 -0.70117,-1.07014 0.15778,-5.24604 1.14102,-5.54695 0.15396,-0.0471 0.54195,0.54165 0.86196,1.30845 0.32001,0.76679 1.05117,1.98605 1.62523,2.70991 0.92592,1.16756 1.00074,1.36436 0.6599,1.74098 -0.34416,0.3803 -0.24968,0.48749 0.90951,1.03043 1.90585,0.89265 2.14243,0.59253 0.7276,-0.92398 -1.49463,-1.60206 -2.93346,-3.64204 -3.4432,-4.8829 l -0.38034,-0.92604 1.27021,-0.001 c 1.11253,-10e-4 1.4395,-0.14458 2.63653,-1.15393 1.30454,-1.10001 1.38439,-1.12965 1.76217,-0.65991 0.3707,0.46094 0.37774,0.45432 0.10749,-0.10335 -0.20541,-0.42447 -0.20726,-0.74717 -0.005,-1.12448 0.13315,-0.24878 0.21369,-0.3745 0.33745,-0.38809 z m -25.663545,0.48834 c -0.0278,0.0278 -0.0469,0.12028 -0.0532,0.2744 -0.0115,0.27896 0.0511,0.43517 0.13901,0.34727 0.0879,-0.0879 0.0976,-0.31596 0.0212,-0.50695 -0.0422,-0.10554 -0.0792,-0.14253 -0.10697,-0.11472 z m 9.230955,0.42685 c 0.2533,0.0604 -0.0195,0.58527 -0.82889,1.6092 -0.60212,0.76173 -1.24882,1.75355 -1.43712,2.204 -0.34715,0.83048 -1.21802,1.75534 -1.21802,1.29346 0,-0.45454 2.73641,-4.89131 3.10369,-5.03225 0.0938,-0.036 0.1739,-0.0601 0.23978,-0.0718 0.0576,-0.0102 0.10437,-0.0112 0.14056,-0.003 z m -11.584825,0.10025 c 0.0545,-0.0274 0.23966,0.0695 0.60824,0.26458 0.41003,0.21699 1.01699,0.87905 1.34875,1.47123 0.33174,0.5922 0.50424,1.07642 0.38292,1.07642 -0.30653,0 -1.78186,-1.59023 -2.16266,-2.33112 -0.15535,-0.30225 -0.23176,-0.4537 -0.17725,-0.48111 z m -7.23986,0.29714 c 0.19353,-0.001 0.37596,0.0547 0.58652,0.16743 0.54382,0.29104 0.54601,0.31251 0.0667,0.66301 -0.50192,0.36701 -1.05016,0.42933 -1.65055,0.18707 -0.51503,-0.20782 -0.39296,-0.50525 0.34572,-0.84181 0.25361,-0.11574 0.45811,-0.17446 0.65164,-0.1757 z m 27.664455,0.27027 c 0.0615,-0.009 0.11052,-0.005 0.14262,0.015 0.31927,0.19733 0.29537,1.10243 -0.0346,1.30638 -0.72528,0.44825 -1.40777,2.43615 -1.42937,4.16409 -0.0235,1.88029 -0.26124,2.17116 -1.09399,1.33842 -0.95386,-0.95387 0.15676,-5.24762 1.66398,-6.4332 0.27252,-0.21439 0.56701,-0.36326 0.75138,-0.39067 z m -5.37383,0.33641 c 0.37507,-0.0723 0.44004,0.56459 0.30438,1.94148 -0.0986,1.00039 -0.11044,1.81901 -0.0269,1.81901 0.0836,0 0.70583,-0.56555 1.38338,-1.25677 0.73933,-0.75421 1.16129,-1.04518 1.05471,-0.7276 -0.0977,0.29104 -0.3072,1.08799 -0.4656,1.77095 -0.27273,1.17592 -0.32754,1.23405 -1.0356,1.09244 -0.81265,-0.16253 -0.86967,-0.0849 -1.14515,1.572 -0.13011,0.78256 -0.0721,1.03116 0.27079,1.16272 0.51428,0.19735 1.01247,-0.44428 0.63665,-0.82011 -0.27036,-0.27035 -0.35513,-1.47071 -0.10387,-1.47071 0.0823,0 0.38587,0.12644 0.67489,0.28112 0.44619,0.23876 0.49994,0.45313 0.35502,1.41955 -0.10457,0.69734 0.002,1.98638 0.27544,3.32693 0.24545,1.20355 0.39649,2.52612 0.33589,2.93936 -0.0606,0.41323 -0.0175,0.78434 0.0956,0.82424 0.11312,0.0399 0.31293,1.44157 0.4439,3.11505 0.47821,6.11073 0.0956,7.51864 -2.204,8.11475 -0.72454,0.18782 -1.44471,0.34375 -1.60042,0.34675 -0.16457,0.003 -0.41591,-1.18566 -0.60048,-2.8391 -0.56441,-5.05595 -1.32049,-8.17157 -2.64842,-10.91407 -0.66938,-1.38244 -1.36753,-2.60797 -1.55133,-2.72334 -0.1838,-0.11538 -0.46319,-0.45049 -0.62063,-0.74466 -0.30112,-0.56266 0.0654,-1.19854 1.96009,-3.40444 l 0.78961,-0.91933 -0.17311,1.25987 c -0.13748,1.00301 -0.0888,1.29186 0.23719,1.41697 0.33732,0.12944 0.27913,0.30256 -0.32969,0.98237 -0.40653,0.45392 0.095,0.0216 1.11466,-0.96066 1.01963,-0.98227 1.99992,-1.78594 2.17816,-1.78594 0.17825,0 0.32401,-0.11038 0.32401,-0.24546 0,-0.13508 -0.66007,-0.39364 -1.46658,-0.57413 -0.94494,-0.21147 -1.42279,-0.44163 -1.34359,-0.64802 0.0676,-0.17615 0.69395,-1.03541 1.39165,-1.90945 0.71847,-0.90006 1.19759,-1.38554 1.48932,-1.44177 z m -20.531565,0.40824 c 0.41938,0.0222 1.00332,0.30264 1.89601,0.8785 0.59034,0.38081 0.59747,0.4209 0.15761,0.90693 -0.57897,0.63975 -0.54901,0.64505 -1.92443,-0.32867 -1.04048,-0.73661 -1.1104,-0.85277 -0.73742,-1.22576 0.16445,-0.16445 0.35661,-0.24434 0.60823,-0.231 z m 21.766635,0.1726 c 0.31654,-0.0409 1.07538,0.3699 1.07538,0.63459 0,0.18125 -0.37028,0.67899 -0.82268,1.10639 l -0.82269,0.77722 0.19172,-1.19063 c 0.10522,-0.65483 0.22817,-1.23136 0.27337,-1.28106 0.0237,-0.026 0.0597,-0.0407 0.1049,-0.0465 z m -25.364345,0.0217 c 0.26774,0.0113 0.53446,0.0954 0.77514,0.25631 0.33526,0.2241 0.28138,0.36717 -0.34571,0.92191 -0.86318,0.76357 -0.96927,0.78187 -1.65055,0.2837 -0.50057,-0.366 -0.50099,-0.38332 -0.01,-0.92604 0.33562,-0.37086 0.7847,-0.55469 1.23093,-0.53588 z m 37.665925,0.77669 c -0.0728,0 -0.005,0.23813 0.15089,0.52917 0.15576,0.29105 0.34268,0.52917 0.41548,0.52917 0.0728,0 0.005,-0.23812 -0.15089,-0.52917 -0.15576,-0.29104 -0.34268,-0.52917 -0.41548,-0.52917 z m -35.774565,0.0935 c 0.22527,0.0256 0.5247,0.1974 1.10846,0.5395 0.65317,0.38278 1.26601,0.82365 1.36219,0.97927 0.0962,0.15562 -0.1579,0.63049 -0.56483,1.05523 -0.40692,0.42473 -0.86645,0.7683 -1.02112,0.7643 -0.50218,-0.0141 -2.53427,-1.96827 -2.33061,-2.24121 0.10858,-0.14552 0.46029,-0.48721 0.78186,-0.75913 0.2874,-0.24302 0.43877,-0.36358 0.66405,-0.33796 z m 5.11028,0.85628 c 0.47113,0.0519 1.10174,0.47736 2.46548,1.49293 l 1.41594,1.05472 -1.15136,0.76377 c -0.63318,0.42009 -1.21084,0.76161 -1.28364,0.75861 -0.16056,-0.006 -2.91042,-3.07576 -2.91042,-3.24889 0,-0.0674 0.29876,-0.31825 0.66405,-0.55759 0.29192,-0.19128 0.51727,-0.2947 0.79995,-0.26355 z m -8.87543,0.2744 c 0.0878,0.0139 0.18249,0.0535 0.29404,0.11317 0.52192,0.27932 0.52154,0.28969 -0.0568,1.25781 -0.75099,1.25706 -0.78762,1.28606 -1.4764,1.17202 -0.68064,-0.11268 -0.59359,-0.54738 0.37,-1.85054 0.40489,-0.54757 0.60578,-0.73413 0.8692,-0.69246 z m 7.07761,0.83716 1.35598,1.67535 1.35599,1.67586 -1.12292,0.98651 c -1.1125,0.97762 -1.51864,1.19413 -1.52084,0.8108 -6.3e-4,-0.10914 -0.4882,-0.84048 -1.08314,-1.62522 l -1.08159,-1.42679 1.04852,-1.04851 z m -5.46634,0.0553 c 0.28265,0 2.36093,1.83388 2.35903,2.08153 -7.2e-4,0.0922 -0.26861,0.48152 -0.59531,0.86506 l -0.59376,0.69712 -0.92605,-0.65216 c -0.50932,-0.35882 -1.09386,-0.74744 -1.29862,-0.86351 -0.30704,-0.17404 -0.26833,-0.37908 0.22014,-1.16944 0.32578,-0.52712 0.70134,-0.9586 0.83457,-0.9586 z m 21.806425,0.85473 c 0.11722,0.0108 0.26885,0.0393 0.46406,0.0811 0.47295,0.10132 0.91323,0.23332 0.97823,0.29352 0.065,0.0602 -0.1776,0.4055 -0.53898,0.76688 -0.7488,0.74878 -1.29915,0.48813 -1.29915,-0.61495 0,-0.42876 0.0442,-0.55883 0.39584,-0.52658 z m -10.329085,1.09451 c 0.24513,-0.009 0.44814,0.0967 0.67024,0.29765 0.29245,0.26467 0.54534,0.78974 0.56224,1.16737 0.02,0.44832 0.0729,0.52609 0.151935,0.22376 0.1569,-0.60036 0.41899,-0.58478 1.00201,0.0594 0.45022,0.49753 0.45065,0.55557 0.0119,1.22525 -0.36166,0.55197 -0.51017,0.62498 -0.69195,0.33796 -0.17342,-0.27382 -0.23264,-0.22014 -0.23564,0.21394 -0.005,0.73715 -3.075545,4.5787 -3.663865,4.5837 -0.33313,0.003 -0.35713,0.0574 -0.0982,0.22169 0.60164,0.38165 -0.20494,0.7462 -2.06293,0.93225 -0.94588,0.0947 -2.04162,0.24278 -2.43499,0.32918 -0.62373,0.13699 -0.76178,0.0435 -1.08004,-0.73123 -0.48853,-1.18921 -0.29711,-1.80791 0.56947,-1.84071 0.68545,-0.0259 0.68659,-0.0293 0.0729,-0.20154 l -0.62425,-0.17518 0.88883,-1.10743 c 0.48863,-0.60927 0.97624,-1.11389 1.08366,-1.12189 0.10742,-0.008 0.27124,0.46281 0.36432,1.04489 0.12754,0.7976 0.29124,1.05834 0.66455,1.05834 0.65421,0 0.62917,-0.65611 -0.062,-1.62678 -0.54394,-0.76389 -0.54552,-0.79606 -0.0661,-1.32653 0.27013,-0.29893 0.8312,-0.78563 1.24643,-1.08159 0.83884,-0.5979 1.21725,-0.35252 1.22525,0.79375 0.003,0.41757 0.16212,0.59531 0.5333,0.59531 0.68621,0 0.66851,-0.36155 -0.0661,-1.35754 l -0.59532,-0.80718 0.77153,-0.61598 c 0.92858,-0.74171 1.45438,-1.07568 1.86294,-1.09089 z m 28.832355,0.16743 c -0.0728,0 -0.005,0.23813 0.15089,0.52916 0.15576,0.29104 0.34268,0.52917 0.41548,0.52917 0.0728,0 0.005,-0.23813 -0.15089,-0.52917 -0.15576,-0.29103 -0.34268,-0.52916 -0.41548,-0.52916 z m -43.589595,0.03 c 0.49661,-0.0471 1.1758,0.1684 2.09548,0.65267 1.77397,0.93411 3.14131,2.32048 3.8008,3.85352 0.41038,0.95397 0.49759,1.49791 0.339,2.10994 -0.18746,0.72344 -0.25589,0.77366 -0.55914,0.40825 -0.19015,-0.22911 -0.28523,-0.51526 -0.21084,-0.63562 0.1951,-0.31567 -1.06491,-2.71433 -1.89549,-3.60805 -0.81307,-0.87487 -3.05786,-2.01035 -3.98116,-2.01435 -0.52787,-0.002 -0.57516,-0.0657 -0.29817,-0.39946 0.17935,-0.2161 0.41155,-0.33865 0.70952,-0.3669 z m 6.21616,0.22014 0.79633,0.99942 c 0.43799,0.54968 0.973,1.33987 1.18908,1.75597 0.37294,0.71818 0.35552,0.79534 -0.34004,1.52135 -0.40299,0.42064 -0.80447,0.76481 -0.89245,0.76481 -0.088,0 -0.34347,-0.38694 -0.5674,-0.85989 -0.22394,-0.47294 -0.62709,-1.22816 -0.89607,-1.67845 -0.48282,-0.80826 -0.48143,-0.82947 0.11058,-1.66088 z m -7.59127,0.97979 c 0.0988,-0.01 0.21158,-0.007 0.34571,0.006 0.17885,0.0172 0.39536,0.0529 0.66818,0.10387 1.58111,0.29538 2.49184,0.78101 3.52485,1.87896 0.99145,1.05378 1.82797,2.6019 1.40612,2.6019 -0.15966,0 -0.0931,0.19737 0.14779,0.43822 0.4075,0.40751 0.3773,0.46309 -0.43615,0.80512 -0.48079,0.20216 -1.06884,0.54421 -1.3069,0.75964 -0.38178,0.34558 -0.60962,0.34594 -1.92959,0.002 -0.82305,-0.21438 -1.61231,-0.46204 -1.75442,-0.54984 -0.14415,-0.0891 -0.19142,0.0151 -0.10697,0.23513 0.0833,0.21694 0.50627,0.47201 0.94051,0.56741 0.43424,0.0954 0.85785,0.35116 0.94103,0.56792 0.11674,0.3042 0.1978,0.31784 0.35657,0.061 0.15748,-0.25482 0.57524,-0.16706 1.78232,0.37465 1.62477,0.72915 2.55992,0.88499 2.81688,0.46923 0.11592,-0.18756 -1.96512,-0.88521 -2.80551,-0.94051 -0.45994,-0.0303 -0.50924,-0.40877 -0.0532,-0.40877 0.28619,0 0.63329,-0.10545 0.77153,-0.23461 0.13824,-0.12917 0.51383,-0.31402 0.83457,-0.41082 0.47934,-0.14467 0.70311,0.0138 1.25677,0.8909 0.82231,1.30264 0.82221,1.29871 0.045,1.59422 -0.66073,0.25122 -1.57798,1.90108 -1.88257,3.38584 -0.2747,1.33901 0.24448,1.01084 0.6196,-0.39171 0.40851,-1.52738 1.46996,-2.98173 2.1761,-2.98173 0.50338,0 0.50533,0.0247 0.063,0.6997 -0.78317,1.19526 -1.12053,3.49287 -0.6935,4.72064 0.33082,0.95113 0.32189,1.0872 -0.0909,1.38906 -0.58792,0.42993 -0.76142,0.42091 -1.24488,-0.0625 -0.49993,-0.49961 -0.69919,-0.50184 -0.69919,-0.009 0,0.21317 -0.20836,0.4941 -0.46302,0.62425 v -5.2e-4 c -1.304,0.6664 -3.80142,0.40465 -6.94531,-0.72812 -0.80036,-0.28837 -1.9588,-0.60426 -2.57452,-0.70176 -0.61571,-0.0975 -1.27056,-0.35892 -1.45521,-0.58136 -0.18607,-0.22415 -0.35217,-1.18237 -0.37258,-2.14974 -0.0327,-1.54987 0.0638,-1.91402 0.86454,-3.2489 0.49597,-0.8268 1.19987,-2.29532 1.56425,-3.26337 0.6317,-1.67827 1.8985,-3.83499 2.97346,-5.06325 0.24841,-0.28384 0.41937,-0.42031 0.71572,-0.44907 z m 38.965065,0.3576 c 0.14552,0 0.41312,0.17859 0.59428,0.39687 0.18374,0.22138 0.21219,0.39688 0.0646,0.39688 -0.14552,0 -0.4126,-0.1786 -0.59376,-0.39688 -0.18374,-0.22139 -0.21273,-0.39687 -0.0651,-0.39687 z m -16.67857,1.03663 0.44546,0.68006 c 0.24501,0.37389 0.37368,0.79548 0.28628,0.93689 -0.0874,0.14141 0.0248,0.25683 0.2496,0.25683 0.60978,0 1.96664,2.90892 2.69338,5.77381 0.59211,2.33415 1.4273,7.70998 1.4273,9.18859 0,0.54351 -0.1279,0.64802 -0.79375,0.64802 -0.7191,0 -0.7937,-0.0808 -0.79375,-0.85989 -7e-5,-1.24438 -0.97073,-6.98238 -1.44332,-8.53282 -0.51471,-1.68866 -0.51727,-1.66226 0.18655,-1.79782 0.5568,-0.1072 0.55234,-0.11668 -0.0698,-0.15038 -0.54852,-0.0297 -0.79164,-0.32186 -1.38596,-1.66656 -0.58283,-1.3187 -0.65846,-1.70555 -0.39532,-2.02262 0.27442,-0.33065 0.2379,-0.36444 -0.23306,-0.21497 -0.4153,0.13182 -0.66513,0.0142 -0.97514,-0.45889 -0.39123,-0.5971 -0.37938,-0.67119 0.19224,-1.20819 z m -1.54874,1.87378 c 0.11622,0 0.37256,0.30125 0.56948,0.66921 0.339,0.63341 0.28831,0.74253 -0.94775,2.05053 l -1.30535,1.38131 1.38287,-1.3069 c 0.76061,-0.71883 1.43059,-1.25463 1.48879,-1.19063 0.39412,0.43312 1.22022,2.43069 1.09141,2.63912 -0.0868,0.14053 -0.0417,0.25528 0.10025,0.25528 0.42893,0 1.66184,5.80014 2.03864,9.59115 0.17623,1.77314 0.17236,1.78593 -0.48008,1.78593 -0.58568,0 -0.74861,-0.25181 -1.4981,-2.3151 -1.76165,-4.84964 -1.67325,-4.68804 -2.60966,-4.77904 -0.58865,-0.0572 -0.85379,-0.22109 -0.85679,-0.52916 -0.002,-0.26086 -0.0848,-0.33356 -0.19844,-0.17467 -0.21458,0.30002 -3.218985,1.28927 -3.391525,1.11673 -0.0595,-0.0595 -0.27591,-0.66452 -0.48059,-1.34462 -0.35408,-1.17652 -0.34464,-1.25905 0.1974,-1.70481 0.31334,-0.25768 0.60792,-0.63884 0.65422,-0.84697 0.0463,-0.20814 0.37373,-0.66777 0.72761,-1.02165 0.353885,-0.35388 0.655215,-0.77639 0.669715,-0.93844 0.0145,-0.16206 0.12172,0.003 0.23823,0.3669 0.21071,0.65799 0.21203,0.65767 0.23823,-0.108 0.0253,-0.73945 1.90911,-3.59617 2.37144,-3.59617 z m 17.47645,1.88464 c -0.0919,-0.004 -0.19647,0.013 -0.29197,0.0512 -0.21107,0.0845 -0.14854,0.1475 0.15968,0.1602 0.27897,0.0115 0.43517,-0.0511 0.34727,-0.13901 -0.044,-0.0439 -0.12306,-0.0686 -0.21498,-0.0724 z m -27.252085,0.79375 c -0.0919,-0.004 -0.19647,0.013 -0.29197,0.0512 -0.21107,0.0845 -0.14854,0.1475 0.15968,0.1602 0.27891,0.0115 0.43518,-0.0511 0.34726,-0.13901 -0.044,-0.0439 -0.12305,-0.0687 -0.21497,-0.0724 z m 23.018755,0.26459 c -0.0919,-0.004 -0.19647,0.013 -0.29197,0.0512 -0.21106,0.0845 -0.14855,0.14749 0.15968,0.16019 0.27895,0.0115 0.43517,-0.0511 0.34726,-0.13901 -0.044,-0.0439 -0.12305,-0.0685 -0.21498,-0.0723 z m -34.236155,0.34985 c -0.24582,0.002 -0.51174,0.13864 -0.77412,0.40101 -0.63359,0.6336 -0.51951,0.66621 0.63356,0.18138 0.7094,-0.29828 0.77265,-0.38836 0.37879,-0.5395 -0.0767,-0.0294 -0.15629,-0.0436 -0.23823,-0.0429 z m 28.138335,0.70745 c -0.19182,-9.2e-4 -0.39303,0.0143 -0.55759,0.046 v -5.2e-4 c -0.32912,0.0633 -0.12216,0.11741 0.45992,0.12041 0.5821,0.003 0.85138,-0.0485 0.59842,-0.11472 -0.12649,-0.0329 -0.30892,-0.0502 -0.50075,-0.0512 z m -7.40575,0.53175 c -0.14386,-0.002 -0.2971,0.0135 -0.42581,0.047 v 5.2e-4 c -0.25743,0.0671 -0.11101,0.12678 0.32556,0.13178 0.43655,0.005 0.64732,-0.0495 0.46819,-0.12196 -0.0896,-0.0363 -0.22407,-0.0556 -0.36794,-0.0574 z m -7.917865,0.53588 c 0.93995,-0.004 1.33104,0.22897 1.71462,0.8444 0.35921,0.57631 -0.17099,0.95673 -1.34048,0.96273 -0.57116,0.003 -0.8678,0.15094 -0.95292,0.47645 -0.0893,0.34158 0.0308,0.47456 0.43254,0.47956 0.30564,0.004 0.64002,-0.11857 0.7431,-0.27182 0.12574,-0.18688 0.2999,-0.15991 0.52917,0.0827 0.27212,0.28808 0.27354,0.38659 0.009,0.48369 -0.2435,0.0892 -0.19034,0.32166 0.19844,0.86764 0.84577,1.18777 0.58597,2.21551 -0.29249,1.15704 -0.19758,-0.23807 -0.81208,-0.71842 -1.36529,-1.06764 -0.5532,-0.34922 -0.93524,-0.74812 -0.84956,-0.88676 0.0861,-0.1394 -0.0282,-0.18164 -0.25528,-0.0946 -0.67792,0.26014 -0.48137,0.55427 1.0449,1.56735 0.88845,0.58972 1.45521,1.15634 1.45521,1.45417 0,0.8115 -0.49514,0.85911 -1.36013,0.13126 -1.03422,-0.87023 -2.34404,-1.55664 -2.34404,-1.22835 0,0.13739 0.38695,0.48964 0.85989,0.7829 1.23249,0.76426 2.08693,1.6185 1.90842,1.90737 -0.34134,0.5523 -3.44527,-0.28308 -4.15737,-1.11879 -0.54204,-0.63612 -0.60099,-1.55332 -0.1323,-2.05827 0.26751,-0.2882 0.25978,-0.31585 -0.0403,-0.1447 -0.61553,0.35109 -0.17704,-1.86391 0.60203,-3.04115 0.63891,-0.96546 0.76353,-1.02656 2.44998,-1.20717 0.45529,-0.0488 0.82976,-0.0766 1.14308,-0.078 z m 1.89911,1.69551 c 0.38318,0.0566 0.72581,0.82879 0.94929,2.16627 0.0946,0.56613 0.0369,0.8599 -0.16898,0.8599 -0.17199,0 -0.47114,-0.38696 -0.66456,-0.8599 -0.67215,-1.64348 -0.71632,-1.98003 -0.28215,-2.14664 0.0562,-0.0216 0.11166,-0.0277 0.1664,-0.0196 z m 4.802815,2.30166 c 0.17697,0.0591 -0.63056,0.43458 -1.79473,0.83458 -3.085115,1.06004 -2.973545,1.03262 -2.444295,0.60255 0.59924,-0.48695 3.817265,-1.57794 4.239025,-1.43713 z m 1.54254,0.29663 c 0.26514,-0.0315 0.49919,0.15806 0.49919,0.52348 0,0.18102 0.46493,1.61119 1.03353,3.17758 0.86638,2.38669 0.96952,2.87252 0.6351,3.00085 -0.21949,0.0842 -0.50443,-0.0129 -0.63303,-0.216 -0.16718,-0.264 -0.23472,-0.27512 -0.23772,-0.0388 -0.003,0.22258 -0.46371,0.33073 -1.40974,0.33073 -1.18884,0 -1.51309,-0.11226 -2.10013,-0.72761 -0.99334,-1.04125 -1.297015,-1.98826 -0.95394,-2.97242 0.31369,-0.89984 0.92446,-1.32706 1.89652,-1.32706 0.81029,0 1.22376,0.48757 1.41542,1.66864 0.12608,0.77696 0.0614,0.95063 -0.4098,1.10019 -0.30764,0.0977 -0.82703,0.10394 -1.15445,0.0145 -0.53408,-0.14601 -0.54555,-0.13141 -0.11058,0.14004 0.27538,0.17183 0.86509,0.23116 1.36477,0.13746 0.60058,-0.11267 0.91582,-0.0577 0.99322,0.17312 0.0626,0.18597 0.0895,-0.35113 0.0605,-1.19373 -0.0739,-2.14354 -0.713,-2.82129 -2.41742,-2.56263 -1.53642,0.23317 -2.191865,1.00457 -2.199865,2.59054 -0.003,0.62802 0.11662,1.37011 0.26614,1.64951 0.248245,0.46385 0.212425,0.48567 -0.41393,0.24753 -0.37728,-0.14344 -0.94606,-0.25615 -1.26401,-0.25115 -0.31829,0.005 0.0689,0.24192 0.86197,0.5271 0.79217,0.28487 1.559905,0.63801 1.706345,0.78445 0.34956,0.34961 -2.845755,0.309 -3.958405,-0.0501 -0.6328,-0.20426 -0.91268,-0.53267 -1.26763,-1.49035 -0.28982,-0.78198 -0.35493,-1.26245 -0.17983,-1.32085 0.15132,-0.0504 0.27492,-0.2339 0.27492,-0.40772 0,-0.17381 0.26603,-0.54378 0.59118,-0.82218 0.77637,-0.66473 6.287985,-2.58346 6.287985,-2.18901 0,0.16374 0.16035,0.0781 0.35656,-0.19017 0.13763,-0.18821 0.30807,-0.28699 0.46716,-0.30592 z m -11.780165,4.13204 c -0.0597,0 -1.248,1.46809 -2.64015,3.26234 -1.39215,1.79426 -3.44317,4.32434 -4.55786,5.62239 -2.0842,2.42705 -4.07056,4.99803 -4.07056,5.26842 0,0.59728 1.91477,-1.33123 3.52795,-3.55328 1.28075,-1.76412 4.46743,-5.8314 6.10558,-7.7928 1.4824,-1.77492 2.08371,-2.80707 1.63504,-2.80707 z m 22.456515,1.79266 c 0.22244,0.0236 0.3137,0.15098 0.44752,0.40101 0.32124,0.60025 -0.0727,2.31457 -0.63769,2.77451 -0.43339,0.35284 -4.35793,1.14067 -6.5412,1.3131 -0.94934,0.075 -2.8571,0.22811 -4.23955,0.34054 -4.420705,0.3595 -5.280385,0.30189 -7.145815,-0.478 -2.60248,-1.08805 -2.6838,-1.16029 -2.83703,-2.51975 -0.23673,-2.1002 -0.12247,-2.1523 2.36575,-1.08158 l 2.19314,0.94361 3.836465,-0.15038 c 4.05573,-0.15942 8.9887,-0.73514 11.32178,-1.32085 0.66027,-0.16575 1.01418,-0.24582 1.23663,-0.22221 z m -5.9831,4.80177 c 0.056,-0.01 0.12256,0.0156 0.19482,0.0879 0.0857,0.0856 0.10396,0.37371 0.0408,0.63976 -0.10963,0.46191 -0.12364,0.46241 -0.32041,0.009 -0.15563,-0.35857 -0.0831,-0.70664 0.0848,-0.73639 z m -12.079885,0.17829 c 0.0995,-0.0271 0.33214,0.0282 0.60151,0.15089 0.44903,0.2046 0.79138,0.71938 1.09658,1.64796 0.24412,0.74274 0.49875,1.49914 0.56585,1.68104 0.13317,0.36083 -0.4138,0.43858 -0.90123,0.12816 -0.27206,-0.17326 -1.41439,-3.04269 -1.41439,-3.55276 0,-0.0278 0.0185,-0.0463 0.0517,-0.0553 z m 10.655685,0.17156 c 0.70867,-0.0123 0.93387,0.0809 1.03094,0.33383 0.20646,0.53802 -0.59967,0.86244 -0.91312,0.36742 -0.19158,-0.30242 -0.23472,-0.29248 -0.23772,0.0568 -0.003,0.30799 -1.03539,0.79497 -3.7145,1.75131 -2.0406,0.72842 -3.756935,1.24819 -3.814235,1.15549 -0.0866,-0.14003 -1.20622,-3.01181 -1.20664,-3.09491 -7e-5,-0.0145 1.39898,-0.1101 3.108855,-0.21239 1.70987,-0.1023 3.8982,-0.24282 4.86327,-0.31212 0.35691,-0.0256 0.64692,-0.0414 0.88315,-0.0455 z m 9.94875,5.62343 0.37827,0.66146 c 0.20797,0.3638 0.38257,0.81029 0.38757,0.99219 0.0101,0.35639 -0.32144,0.44079 -0.60771,0.15451 -0.097,-0.097 -0.17192,-0.54351 -0.16692,-0.99219 z m -6.06423,3.43959 -0.54312,0.66145 c -0.32998,0.40172 -0.54532,1.05108 -0.54932,1.65365 -0.003,0.54571 0.10645,0.99219 0.24339,0.99219 0.38542,0 0.49957,-0.31307 0.6811,-1.86707 z M 85.015885,144.427 c -0.2045,0.0225 -0.45871,0.36513 -0.46561,0.73277 -0.007,0.36262 1.13626,0.0738 1.26607,-0.31987 0.0696,-0.21102 0.002,-0.29391 -0.15916,-0.19431 -0.15434,0.0954 -0.36356,0.0399 -0.46457,-0.1235 -0.0461,-0.0746 -0.10857,-0.10258 -0.17673,-0.0951 z" /></g></svg>
