<?xml version="1.0" standalone="no"?>
<!DOCTYPE svg PUBLIC "-//W3C//DTD SVG 20010904//EN"
 "http://www.w3.org/TR/2001/REC-SVG-20010904/DTD/svg10.dtd">
<svg version="1.0" xmlns="http://www.w3.org/2000/svg"
 width="515.000000pt" height="627.000000pt" viewBox="0 0 515.000000 627.000000"
 preserveAspectRatio="xMidYMid meet">

<g transform="translate(0.000000,627.000000) scale(0.100000,-0.100000)"
fill="#000000" stroke="none">
<path d="M2486 4819 c-79 -51 -83 -55 -151 -164 -54 -87 -71 -142 -57 -182 12
-36 5 -51 -54 -115 -50 -53 -62 -88 -45 -133 16 -45 15 -51 -23 -113 -39 -64
-60 -128 -33 -102 8 8 33 51 56 95 38 74 40 83 30 116 -16 51 -7 78 47 138 45
50 47 54 49 119 2 71 22 123 70 180 14 16 25 36 25 44 0 18 27 42 105 96 62
43 110 53 133 30 9 -9 15 -9 24 0 7 7 29 12 49 12 57 0 101 -56 163 -210 15
-35 37 -76 50 -90 37 -40 46 -64 46 -129 0 -49 4 -64 22 -81 12 -11 25 -20 30
-20 18 0 18 -49 -1 -94 l-21 -47 -29 17 c-28 17 -28 18 -14 52 13 32 13 39 -2
73 -10 21 -28 48 -40 59 -20 19 -22 26 -13 57 15 57 4 84 -77 190 -88 113 -99
123 -125 116 -13 -3 -26 3 -38 17 -12 15 -30 23 -56 24 -62 2 -78 -29 -87
-166 -5 -62 -13 -144 -19 -183 -6 -44 -7 -81 -1 -100 9 -29 9 -29 10 11 1 23
11 73 22 110 15 45 23 100 24 159 1 50 7 101 14 113 8 15 8 22 1 22 -6 0 -8 5
-4 11 5 8 8 8 14 0 3 -7 14 -9 23 -6 9 4 24 1 34 -5 14 -9 14 -10 2 -6 -10 2
-27 -6 -40 -20 -22 -23 -22 -27 -11 -97 10 -67 9 -81 -13 -163 -28 -100 -30
-154 -13 -300 11 -97 10 -103 -10 -136 -58 -94 13 -186 112 -144 39 16 49 39
43 101 -4 38 -6 40 -41 43 -21 2 -36 -1 -36 -7 0 -6 8 -11 18 -11 26 0 42 -20
42 -51 0 -38 -25 -59 -69 -59 -69 0 -89 50 -51 125 11 22 20 56 20 77 0 56 20
48 88 -35 59 -73 59 -74 52 -122 -9 -59 -45 -95 -93 -95 -95 0 -157 50 -157
126 0 25 6 60 14 79 20 46 22 86 7 113 -27 51 -49 167 -45 247 l4 80 -21 -55
c-22 -61 -28 -184 -10 -219 9 -16 7 -22 -7 -33 -11 -7 -19 -21 -19 -31 0 -15
4 -14 27 8 35 33 43 32 57 -12 9 -31 8 -45 -9 -90 -11 -30 -18 -72 -17 -96 2
-41 0 -45 -78 -120 -45 -44 -86 -91 -92 -105 -5 -15 -19 -85 -30 -157 -26
-166 -37 -202 -69 -236 -15 -15 -28 -33 -30 -40 -7 -28 -65 -77 -103 -87 -22
-6 -39 -6 -39 -1 0 5 9 9 19 9 10 0 29 9 42 21 l24 21 -25 -8 c-14 -4 -50 -8
-81 -8 l-57 -1 27 -17 c21 -14 22 -18 8 -18 -26 0 -57 18 -57 34 0 18 23 27
41 15 33 -21 129 -1 129 27 0 10 -7 10 -35 -2 -19 -7 -45 -14 -57 -14 -17 1
-13 5 16 15 21 7 51 26 67 41 29 27 29 27 51 8 l23 -19 -19 22 c-18 22 -18 23
2 47 15 20 21 48 27 133 12 189 24 232 119 416 47 92 86 169 86 172 0 3 -14
-8 -30 -25 -32 -32 -90 -150 -90 -181 0 -10 -4 -20 -9 -24 -14 -8 -24 14 -12
28 6 8 6 18 1 27 -14 21 -12 82 3 101 7 9 26 23 44 33 34 17 87 65 80 72 -5 5
-124 -73 -132 -87 -13 -20 -23 -7 -20 26 4 45 23 74 80 120 25 21 45 46 45 56
0 10 5 21 10 24 14 9 4 -81 -13 -113 -6 -13 -30 -35 -53 -48 -40 -24 -74 -54
-60 -54 10 0 109 74 125 93 7 9 17 14 22 11 15 -9 10 94 -7 153 -28 97 2 208
87 321 23 29 39 56 36 58 -8 9 -92 -92 -121 -146 -35 -65 -41 -106 -30 -210 5
-55 5 -55 -45 -110 -57 -62 -101 -141 -101 -181 0 -15 -8 -36 -17 -45 -16 -16
-16 -17 -2 -12 13 5 18 0 22 -20 2 -15 8 -36 13 -47 8 -20 8 -20 -20 -2 -43
28 -45 9 -4 -29 l37 -33 -24 -53 c-27 -59 -40 -135 -50 -283 -9 -133 -31 -168
-79 -128 -17 15 -17 13 2 -8 l23 -27 -27 -21 c-15 -12 -39 -24 -53 -27 -54
-12 -83 -28 -92 -52 -11 -29 -1 -45 41 -62 17 -7 30 -16 30 -20 0 -4 -15 -48
-34 -96 -57 -148 -69 -207 -63 -314 4 -65 13 -116 29 -161 41 -112 152 -249
202 -249 20 0 92 35 100 49 13 20 -14 21 -46 1 -18 -11 -40 -20 -48 -20 -23 0
-124 104 -153 159 -82 149 -75 352 17 553 32 70 38 78 73 87 21 6 40 11 43 11
3 0 3 -53 2 -117 -7 -214 31 -319 162 -446 l79 -78 -41 -42 c-23 -24 -42 -46
-42 -50 0 -23 36 4 128 96 l103 102 -7 -45 c-12 -88 -45 -285 -50 -303 -3 -10
-10 -14 -17 -10 -9 5 -9 3 0 -8 12 -15 8 -43 -18 -141 -9 -35 -11 -37 -35 -28
-34 13 -139 13 -187 -1 -21 -5 -52 -23 -70 -38 -30 -28 -31 -31 -37 -137 -8
-145 1 -213 34 -241 32 -27 86 -43 149 -43 26 0 47 -4 47 -8 0 -15 93 -59 161
-76 87 -21 145 -20 183 3 38 24 187 45 259 37 167 -18 233 -19 265 -2 39 20
65 57 61 88 -2 13 5 38 15 56 40 77 3 117 -124 133 -101 12 -150 33 -170 74
-17 34 -22 315 -10 484 7 89 11 100 69 216 l62 123 -15 74 c-21 100 -19 168 4
168 9 0 22 -10 28 -22 11 -23 11 -23 7 2 -4 20 2 29 27 45 43 27 74 75 87 136
13 61 13 344 1 414 -6 28 -12 64 -14 81 -2 18 -25 83 -51 145 -25 63 -58 149
-72 193 -17 54 -28 75 -35 68 -16 -16 4 -86 68 -238 30 -73 57 -151 60 -176 5
-38 3 -48 -21 -76 -29 -35 -45 -41 -45 -16 0 29 -59 192 -83 231 -13 21 -31
58 -41 83 -26 67 -93 166 -142 209 -51 44 -160 104 -220 120 -37 10 -42 15
-47 49 -4 20 -4 47 -1 59 l6 23 30 -25 c34 -29 68 -40 102 -31 20 5 25 1 32
-26 12 -41 55 -70 130 -88 33 -7 71 -22 86 -32 33 -23 40 -23 58 1 7 11 17 18
21 15 4 -2 15 16 24 41 21 53 10 94 -31 115 -21 12 -24 20 -24 74 0 63 -12 95
-61 158 -14 18 -38 65 -54 103 -39 96 -82 163 -114 179 -16 9 -60 14 -118 14
l-93 0 -74 -49z m179 -119 c4 -7 12 -7 25 0 29 15 36 13 58 -22 l20 -31 -34
-32 c-29 -28 -34 -39 -34 -78 0 -25 -4 -57 -10 -71 -7 -20 -6 -26 4 -26 14 0
26 30 26 68 0 16 6 22 21 22 11 0 30 5 41 11 20 11 21 10 16 -49 -14 -151
-125 -215 -197 -114 -20 28 -20 29 -2 88 17 54 21 59 47 60 26 0 29 3 27 34
-1 24 -11 42 -37 66 -40 37 -40 37 -26 65 11 20 45 26 55 9z m165 -122 c43
-71 48 -114 20 -179 -12 -29 -24 -76 -27 -105 -3 -30 -9 -54 -14 -54 -11 0
-49 50 -49 65 0 7 14 39 30 70 25 48 30 68 30 129 -1 46 -6 78 -15 90 -14 19
-20 36 -11 36 1 0 18 -24 36 -52z m-180 7 c0 -2 3 -10 6 -19 4 -12 0 -16 -15
-16 -12 0 -21 6 -21 14 0 8 -3 22 -7 31 -5 15 -3 16 15 6 12 -7 22 -13 22 -16z
m137 9 c7 -19 -21 -44 -49 -44 -24 0 -23 15 2 40 24 24 39 25 47 4z m133 -282
c0 -13 -5 -32 -11 -44 -6 -11 -8 -22 -5 -25 3 -3 11 6 17 21 18 38 33 32 26
-11 -9 -52 -18 -57 -73 -41 -46 13 -49 16 -46 43 5 39 21 69 22 40 0 -11 7
-31 15 -45 17 -30 19 -24 4 18 -7 22 -7 42 1 73 l12 43 19 -24 c10 -14 19 -35
19 -48z m-461 -78 c11 -26 5 -53 -9 -37 -12 13 -21 63 -12 63 5 0 14 -12 21
-26z m171 -49 c38 -39 41 -45 23 -45 -28 0 -83 47 -83 71 0 28 11 24 60 -26z
m70 0 c62 -32 71 -45 28 -45 -26 0 -42 9 -68 35 -40 41 -28 44 40 10z m10 -92
c57 -71 164 -303 146 -320 -3 -4 -6 1 -6 9 0 25 -96 208 -137 262 -69 90 -67
86 -50 86 9 0 29 -17 47 -37z m128 -12 c54 -56 122 -166 122 -196 0 -11 -11
-56 -25 -100 -14 -44 -25 -97 -25 -117 0 -21 -5 -38 -11 -38 -7 0 -9 13 -5 38
13 76 -59 282 -137 391 -53 74 -53 71 -7 71 36 0 47 -6 88 -49z m-45 -213 c35
-75 93 -245 86 -252 -2 -2 -44 5 -94 15 -49 10 -117 21 -150 25 l-60 6 -31 94
c-18 52 -31 94 -29 94 1 0 16 -7 31 -15 16 -8 52 -15 81 -15 63 0 109 33 119
86 3 19 8 34 9 34 2 0 19 -33 38 -72z m-302 -32 c11 -25 29 -88 41 -141 l22
-96 -27 -55 c-29 -58 -33 -74 -18 -74 6 0 22 23 37 50 15 28 31 50 37 50 15 0
137 -99 215 -174 67 -65 75 -77 98 -151 14 -44 28 -110 31 -147 6 -66 5 -68
-18 -69 l-24 -1 25 -7 c14 -4 25 -11 25 -16 -1 -63 -22 -152 -56 -237 -22 -56
-44 -107 -47 -113 -4 -5 -10 26 -13 70 l-5 80 -2 -99 -2 -99 -89 -166 c-132
-248 -134 -252 -150 -246 -10 4 -11 2 -3 -7 13 -16 -102 -223 -235 -425 -29
-43 -41 -53 -73 -58 -21 -3 -56 -1 -79 5 -59 15 -81 55 -81 141 l0 66 53 0
c133 -2 269 132 292 286 4 26 11 49 15 52 4 2 27 -9 51 -26 42 -29 24 -9 -26
28 l-23 18 24 160 c14 88 29 197 34 242 9 85 29 142 80 225 17 27 30 59 30 71
0 13 -20 65 -45 115 -61 127 -79 198 -71 295 4 57 2 77 -7 77 -7 0 -18 -9 -25
-21 -8 -12 -10 -19 -5 -16 4 3 9 -34 10 -81 1 -58 8 -106 21 -143 l20 -56 -33
-62 c-43 -79 -107 -163 -155 -201 -42 -33 -116 -69 -142 -70 -23 0 -52 59 -68
135 -13 64 -7 226 10 267 17 43 46 72 65 64 15 -5 16 -4 5 9 -10 12 -8 21 13
48 34 44 63 162 83 331 5 44 14 67 37 95 52 62 111 121 120 121 4 0 17 -20 28
-44z m496 8 c-3 -3 8 -36 25 -72 37 -84 71 -206 64 -230 -4 -10 -19 -31 -35
-46 l-29 -28 -17 33 c-10 19 -31 48 -48 66 l-30 32 26 99 c15 54 27 111 27
125 0 15 5 27 12 27 6 0 9 -3 5 -6z m-222 -231 l90 -17 -53 -8 c-29 -4 -90 -5
-135 0 -76 6 -82 9 -85 31 -4 23 -2 23 45 17 26 -4 89 -14 138 -23z m424 -239
c1 -155 -13 -226 -51 -261 -42 -37 -53 -37 -20 0 17 21 32 42 32 47 0 15 -17
12 -23 -4 -3 -8 -16 -20 -29 -27 -21 -11 -21 -9 4 16 15 15 30 36 34 47 7 22
-6 40 -14 19 -7 -21 -52 -64 -59 -57 -4 3 1 14 10 24 9 10 26 40 38 67 26 57
29 163 9 260 l-12 57 34 35 33 34 6 -58 c4 -32 7 -121 8 -199z m-257 166 c19
-21 41 -52 49 -67 8 -15 20 -34 27 -41 10 -11 12 -9 12 9 0 13 15 38 33 57
l32 33 10 -78 c13 -97 4 -171 -27 -220 l-23 -38 -7 99 c-7 103 -11 117 -29 99
-12 -12 -13 -48 -4 -173 l8 -95 -36 67 c-60 114 -143 210 -286 331 l-45 37 75
1 c41 0 92 4 114 8 22 5 45 9 52 10 6 0 27 -17 45 -39z m34 -373 c19 -41 36
-94 38 -122 3 -28 12 -93 22 -145 l17 -95 -58 -115 c-51 -102 -62 -134 -92
-280 -29 -138 -35 -187 -36 -300 -2 -153 12 -210 63 -272 42 -50 142 -98 219
-105 55 -5 61 -8 61 -29 0 -12 -12 -32 -26 -43 -36 -28 -163 -30 -212 -3 -81
44 -151 138 -182 242 -24 85 -32 152 -17 143 7 -4 6 1 -2 10 -11 14 -13 40 -8
115 13 214 52 391 112 512 47 94 84 203 91 268 4 31 12 60 18 64 8 5 7 8 -1 8
-8 0 -13 13 -13 33 0 31 -22 134 -35 170 -4 9 -4 17 -1 17 4 0 23 -33 42 -73z
m75 -62 c5 3 6 -1 3 -9 -3 -9 -1 -16 6 -16 7 0 5 -7 -5 -17 -14 -14 -18 -14
-26 -2 -11 17 -12 53 -1 63 4 4 8 1 10 -8 2 -9 8 -14 13 -11z m-462 -53 c29
-73 27 -94 -18 -170 -49 -85 -75 -160 -61 -177 10 -12 4 -25 -11 -25 -5 0 -6
8 -3 18 3 9 -23 -14 -59 -53 l-65 -70 -37 35 c-48 45 -135 148 -135 160 0 5
17 14 38 21 44 14 71 31 131 79 56 44 156 168 172 215 15 41 21 38 48 -33z
m-399 -258 c0 -19 -16 -18 -24 2 -11 27 -7 37 9 24 8 -7 15 -19 15 -26z m569
-459 c-10 -77 -19 -166 -19 -198 0 -44 -3 -56 -12 -51 -10 6 -10 4 0 -7 6 -7
12 -28 12 -47 0 -99 61 -243 136 -322 l52 -55 -42 3 c-24 2 -82 -4 -131 -13
-48 -9 -89 -14 -91 -12 -14 14 -27 153 -27 292 -1 165 5 211 26 198 7 -4 6 0
-2 10 -11 14 -11 26 -1 64 11 46 111 286 116 281 1 -2 -6 -66 -17 -143z m161
-5 c-19 -100 -10 -314 15 -365 26 -53 84 -81 194 -94 46 -6 90 -16 97 -22 34
-28 2 -99 -46 -99 -44 0 -148 36 -191 66 -102 70 -123 181 -88 469 14 117 21
154 27 130 2 -11 -1 -49 -8 -85z m-266 -97 c-12 -55 -16 -63 -30 -63 -20 0
-18 17 7 56 25 41 31 43 23 7z m-41 -220 c-3 -86 -1 -179 7 -248 21 -177 27
-160 -55 -159 -69 0 -178 30 -218 59 -17 12 -15 18 26 76 46 67 87 137 181
307 32 56 59 102 61 102 2 0 1 -62 -2 -137z m-244 88 c11 -7 10 -14 -7 -37
-52 -73 -129 -124 -187 -124 -51 0 -65 14 -65 61 0 45 30 86 73 98 42 12 168
13 186 2z m-5 -349 c-30 -51 -53 -77 -61 -69 -4 5 -1 14 7 20 9 7 26 27 39 45
28 39 38 42 15 4z"/>
<path d="M2660 4410 c-11 -7 -3 -10 30 -9 34 0 40 2 25 9 -27 12 -37 12 -55 0z"/>
<path d="M2660 4380 c0 -5 14 -10 30 -10 17 0 30 5 30 10 0 6 -13 10 -30 10
-16 0 -30 -4 -30 -10z"/>
<path d="M2395 3374 l-30 -26 33 22 c17 12 32 23 32 26 0 7 -4 5 -35 -22z"/>
<path d="M2804 2275 c0 -60 1 -84 3 -52 2 32 2 81 0 110 -2 29 -3 3 -3 -58z"/>
<path d="M2670 2116 c0 -2 8 -10 18 -17 15 -13 16 -12 3 4 -13 16 -21 21 -21
13z"/>
<path d="M2943 4123 c9 -2 25 -2 35 0 9 3 1 5 -18 5 -19 0 -27 -2 -17 -5z"/>
<path d="M2101 3904 c0 -11 3 -14 6 -6 3 7 2 16 -1 19 -3 4 -6 -2 -5 -13z"/>
<path d="M2091 3864 c0 -11 3 -14 6 -6 3 7 2 16 -1 19 -3 4 -6 -2 -5 -13z"/>
<path d="M2071 3774 c0 -11 3 -14 6 -6 3 7 2 16 -1 19 -3 4 -6 -2 -5 -13z"/>
<path d="M2061 3734 c0 -11 3 -14 6 -6 3 7 2 16 -1 19 -3 4 -6 -2 -5 -13z"/>
<path d="M2051 3694 c0 -11 3 -14 6 -6 3 7 2 16 -1 19 -3 4 -6 -2 -5 -13z"/>
<path d="M2031 3604 c0 -11 3 -14 6 -6 3 7 2 16 -1 19 -3 4 -6 -2 -5 -13z"/>
<path d="M2021 3564 c0 -11 3 -14 6 -6 3 7 2 16 -1 19 -3 4 -6 -2 -5 -13z"/>
<path d="M2300 2386 c0 -2 8 -10 18 -17 15 -13 16 -12 3 4 -13 16 -21 21 -21
13z"/>
<path d="M2340 2356 c0 -2 14 -14 30 -26 17 -12 30 -19 30 -16 0 2 -13 14 -30
26 -16 12 -30 19 -30 16z"/>
</g>
</svg>
