<?xml version="1.0" standalone="no"?>
<!DOCTYPE svg PUBLIC "-//W3C//DTD SVG 20010904//EN"
 "http://www.w3.org/TR/2001/REC-SVG-20010904/DTD/svg10.dtd">
<svg version="1.0" xmlns="http://www.w3.org/2000/svg"
 width="515.000000pt" height="627.000000pt" viewBox="0 0 515.000000 627.000000"
 preserveAspectRatio="xMidYMid meet">

<g transform="translate(0.000000,627.000000) scale(0.100000,-0.100000)"
fill="#000000" stroke="none">
<path d="M1306 4919 c-34 -9 -82 -52 -102 -91 -33 -64 -7 -165 60 -230 20 -20
48 -59 62 -87 27 -54 55 -75 117 -86 25 -5 37 -13 37 -24 0 -12 5 -10 20 9
l20 25 19 -25 c15 -19 21 -22 24 -10 3 8 10 30 16 49 6 19 11 62 11 96 0 51
-4 65 -22 82 -58 53 -124 59 -167 15 -16 -15 -33 -26 -40 -24 -22 7 -11 32 26
57 28 18 51 25 88 25 134 0 187 -115 131 -283 -28 -84 -32 -107 -16 -107 6 0
10 7 10 17 0 9 8 40 17 70 16 51 18 53 53 53 30 0 39 -5 48 -25 19 -41 14 -54
-20 -63 -43 -11 -59 -38 -34 -57 37 -27 114 9 127 59 12 43 0 84 -36 122 -25
26 -40 34 -67 34 -35 0 -36 1 -47 58 -17 87 -80 142 -162 142 -41 0 -41 1 -25
19 23 25 24 92 3 124 -29 45 -100 71 -151 56z m112 -44 c39 -32 48 -74 27
-114 -15 -30 -47 -46 -81 -39 -26 5 -30 28 -4 28 40 0 60 18 60 55 0 42 -29
65 -82 65 -65 0 -110 -72 -93 -150 14 -65 78 -114 184 -140 46 -12 91 -49 91
-75 0 -20 -43 -20 -60 0 -7 9 -45 31 -84 49 -144 68 -194 157 -149 267 31 78
130 105 191 54z m-22 -46 c24 -27 9 -52 -37 -59 -26 -4 -35 -10 -37 -28 -3
-18 3 -26 26 -34 l29 -11 -28 -25 c-33 -27 -49 -21 -75 29 -21 42 -17 84 12
118 31 38 81 42 110 10z m134 -199 c41 -21 56 -56 48 -111 -4 -31 -38 -39 -38
-9 0 31 -42 68 -94 81 -50 12 -54 19 -30 43 21 22 67 20 114 -4z m-150 -116
c12 -30 73 -47 140 -38 54 7 59 4 34 -20 -23 -24 -120 -21 -162 4 -29 18 -52
54 -52 80 0 18 32 -3 40 -26z m65 -14 c8 -13 -1 -13 -26 0 -10 6 -19 15 -19
21 0 11 35 -5 45 -21z m297 -27 c34 -35 44 -75 28 -112 -12 -31 -60 -57 -85
-47 -22 8 -18 26 5 26 11 0 29 9 41 21 37 37 2 109 -53 109 -18 0 -28 5 -28
15 0 27 63 19 92 -12z"/>
<path d="M2495 4581 c-69 -33 -182 -131 -171 -149 4 -8 31 9 79 50 82 69 136
97 187 98 40 0 93 -29 110 -60 16 -29 2 -45 -20 -25 -10 9 -23 14 -29 11 -8
-5 -122 -162 -211 -289 -8 -12 -29 -42 -47 -66 -47 -63 -75 -144 -82 -241 l-7
-85 -17 39 c-35 80 -13 184 59 269 14 16 23 31 21 33 -5 6 -67 -15 -119 -41
-27 -13 -48 -21 -48 -19 0 20 47 88 86 124 l48 44 13 -29 13 -30 -5 32 c-6 29
-3 33 37 57 24 14 45 21 46 16 2 -6 -8 -30 -21 -55 -28 -49 -20 -72 10 -28 40
59 56 123 31 123 -7 0 -37 -13 -65 -29 -48 -27 -54 -28 -64 -13 -9 15 -10 15
-5 -1 4 -13 -11 -34 -56 -75 -61 -57 -88 -101 -88 -144 0 -13 -16 -45 -35 -72
l-35 -50 0 60 c0 76 41 166 96 212 33 28 35 32 14 26 -30 -8 -97 -53 -127 -86
-51 -55 -71 -167 -44 -249 9 -29 9 -41 -2 -62 -13 -24 -14 -23 -25 44 -17 99
-15 177 7 224 20 44 116 140 199 200 35 24 50 41 44 47 -15 15 -93 -42 -189
-136 -90 -89 -103 -117 -103 -220 0 -33 7 -89 16 -125 12 -47 14 -66 5 -69 -6
-2 -8 -9 -5 -14 4 -7 2 -8 -5 -4 -6 4 -9 11 -6 16 3 4 -3 10 -13 12 -10 3 -32
30 -49 60 -29 51 -93 118 -112 118 -5 0 -20 19 -34 43 -27 46 -99 103 -116 93
-5 -4 -20 21 -32 54 -12 33 -26 63 -30 66 -12 7 -12 7 16 -75 23 -70 25 -91 5
-91 -4 0 -25 48 -46 106 -24 65 -46 110 -58 116 -22 12 -23 16 28 -125 l36
-99 -25 -30 c-15 -17 -24 -37 -20 -45 3 -9 -25 -47 -76 -101 -45 -48 -118
-132 -164 -187 -188 -229 -231 -318 -222 -454 5 -85 31 -161 49 -143 8 8 8 19
0 39 -22 53 -38 148 -31 183 6 31 7 28 8 -20 3 -119 41 -189 104 -189 59 -1
207 80 449 244 109 75 137 90 141 77 2 -9 14 -40 25 -69 l21 -51 -72 5 c-66 5
-77 3 -128 -25 -31 -16 -108 -66 -170 -110 -158 -110 -229 -146 -275 -137 -28
5 -35 3 -32 -7 3 -7 16 -17 31 -22 41 -15 106 17 300 147 161 110 182 121 230
124 28 3 70 1 92 -4 35 -8 42 -14 56 -53 15 -41 39 -66 39 -40 0 9 -186 499
-241 635 -7 17 -13 36 -13 44 -1 18 -17 23 -36 11 -13 -8 -13 -13 -2 -31 12
-18 11 -24 -3 -38 -15 -15 -17 -15 -31 3 -21 30 -17 52 16 79 24 20 37 25 64
20 31 -5 36 -2 50 25 20 38 13 59 -31 98 -28 25 -32 32 -21 42 11 8 21 5 46
-15 32 -24 82 -108 82 -136 0 -8 7 -29 16 -47 13 -24 14 -34 4 -40 -9 -5 -8
-9 3 -13 9 -3 24 -31 33 -62 18 -55 17 -56 -4 -101 -12 -25 -26 -43 -31 -40
-5 3 -26 53 -47 111 -35 93 -56 126 -72 110 -3 -2 27 -89 67 -192 39 -104 93
-245 119 -316 27 -70 52 -124 55 -120 4 3 7 2 7 -3 0 -5 13 -17 29 -27 28 -16
30 -16 77 10 41 23 59 27 137 27 117 1 129 20 18 30 -86 7 -123 -2 -150 -36
-10 -11 -24 -19 -31 -16 -10 3 -8 9 8 24 12 10 45 43 74 73 64 64 100 82 156
74 40 -5 41 -7 45 -47 l4 -41 1 41 2 42 53 4 c62 5 144 41 210 91 26 20 47 33
47 29 0 -20 -62 -102 -101 -134 -24 -20 -74 -49 -111 -64 -76 -31 -87 -51 -32
-56 l37 -3 -44 -22 c-32 -16 -45 -19 -51 -10 -5 8 -8 7 -8 -5 0 -23 -151 -76
-239 -84 l-68 -7 -11 33 c-10 27 -14 31 -27 20 -12 -10 -11 -20 11 -78 14 -37
59 -155 99 -262 184 -487 203 -535 219 -532 9 2 16 -2 16 -8 0 -20 18 -9 22
14 3 15 1 23 -6 20 -7 -3 -27 36 -49 90 -37 94 -37 96 -27 168 6 40 15 86 20
101 12 37 120 207 131 207 5 0 9 6 9 13 0 6 40 76 88 154 48 78 95 155 104
172 12 22 24 31 43 31 l25 0 -6 -217 c-3 -120 -7 -224 -9 -230 -4 -11 12 -20
16 -10 4 7 28 465 28 534 0 46 5 84 11 88 6 4 10 -18 10 -64 0 -50 4 -71 13
-71 9 0 11 23 8 90 l-3 91 58 129 c32 70 63 126 68 123 5 -4 7 3 4 15 -3 12
-2 22 3 24 6 2 3 12 -4 22 -13 18 -16 14 -37 -50 -22 -64 -174 -375 -214 -436
-13 -20 -27 -28 -50 -29 -30 -2 -30 -2 -3 -6 15 -2 27 -6 27 -8 0 -9 -172
-291 -183 -300 -7 -5 -18 -22 -24 -37 -14 -31 -185 -290 -188 -286 -6 7 -165
424 -165 434 0 5 24 16 53 24 28 7 92 28 140 46 49 19 93 32 98 28 5 -3 9 -1
9 5 0 5 31 26 69 47 51 27 73 46 85 72 10 19 40 55 67 80 52 46 89 106 89 142
0 11 20 47 44 80 58 79 69 115 64 211 -5 76 -4 78 16 68 19 -9 20 -9 4 4 -10
8 -18 19 -18 26 0 29 -20 3 -63 -81 -55 -109 -117 -194 -178 -246 l-43 -37 22
36 c12 20 28 65 35 100 21 101 45 135 142 206 26 19 28 22 12 28 -12 5 -25 -1
-41 -18 -13 -14 -38 -32 -55 -41 -17 -9 -29 -21 -26 -26 3 -5 1 -12 -5 -15 -6
-4 -10 -3 -8 2 1 4 -6 26 -16 48 -10 22 -20 70 -23 106 -5 58 -3 69 16 88 20
20 47 21 99 5 22 -7 51 -84 41 -111 -9 -25 0 -30 19 -11 18 18 15 119 -4 146
-16 23 -64 31 -64 10 0 -7 -7 -2 -16 10 -8 12 -24 22 -35 22 -33 0 -21 20 14
21 45 2 57 -1 94 -18 42 -20 57 -59 48 -129 -4 -36 -3 -54 3 -50 5 3 12 0 15
-8 3 -7 35 -26 71 -41 57 -24 66 -31 61 -49 -6 -21 -6 -21 9 -2 9 11 16 25 16
30 0 6 -31 23 -68 38 l-67 28 -3 72 c-2 70 -4 74 -40 105 -20 18 -42 32 -49
33 -18 0 -25 18 -14 37 5 11 23 18 46 20 l37 2 -5 -44 c-2 -25 -1 -45 4 -45
10 0 16 21 25 82 3 26 10 45 15 42 11 -6 69 -105 69 -116 0 -5 -10 -8 -23 -8
-13 0 -32 -7 -43 -15 -18 -13 -16 -14 26 -15 49 0 116 -27 168 -67 18 -14 74
-49 123 -78 49 -29 84 -55 77 -58 -7 -3 -1 -6 13 -6 14 -1 54 -12 89 -26 91
-35 159 -34 238 6 34 17 75 47 92 67 16 20 30 31 30 25 0 -7 -4 -15 -10 -18
-5 -3 -10 -27 -10 -54 0 -44 5 -53 70 -130 80 -95 100 -128 100 -169 0 -26
-13 -40 -109 -111 -59 -45 -111 -81 -114 -81 -9 0 -185 107 -236 144 -24 17
-59 54 -77 83 -41 61 -88 99 -155 124 -54 21 -124 25 -134 8 -5 -7 -14 -4 -28
8 -22 18 -22 18 -4 -4 18 -21 18 -22 -7 -61 -31 -49 -54 -105 -66 -157 -11
-48 19 -476 33 -486 6 -4 6 -35 -2 -83 -6 -42 -11 -96 -11 -119 l1 -42 19 24
c23 27 28 128 8 150 -10 11 -10 13 0 7 8 -5 12 2 12 22 0 16 -3 32 -7 36 -4 4
-6 26 -5 49 2 23 -4 122 -12 220 -13 154 -13 185 0 232 15 59 57 149 74 160 5
3 113 -82 240 -189 127 -108 234 -196 237 -196 9 0 32 -20 -242 211 -212 179
-228 194 -201 197 78 9 171 -44 228 -129 47 -71 63 -84 196 -163 100 -60 111
-70 100 -84 -11 -15 -11 -15 3 -4 13 10 21 8 43 -9 37 -29 61 -80 97 -210 36
-132 49 -159 85 -188 79 -62 175 81 256 381 38 140 19 367 -41 502 l-19 44 30
27 c26 24 29 31 24 63 -4 21 -8 54 -9 74 -4 57 -54 107 -109 109 -22 0 -22 1
-3 8 24 10 43 4 71 -21 12 -11 25 -15 28 -10 12 20 -72 69 -100 58 -7 -3 -18
2 -24 10 -7 8 -20 14 -30 14 -27 0 -79 -65 -93 -117 -7 -29 -19 -48 -32 -54
-13 -5 -15 -8 -5 -9 8 0 1 -7 -17 -15 -17 -7 -60 -36 -96 -64 -78 -61 -122
-81 -180 -81 -53 0 -150 27 -142 40 4 6 -6 10 -21 10 -16 0 -60 19 -100 41
l-72 41 1 67 c2 115 -46 183 -185 260 -58 33 -65 43 -96 146 -7 23 -15 30 -35
30 -14 1 -34 8 -44 17 -31 27 -81 48 -115 48 -18 0 -60 -13 -93 -29z m272
-116 c20 -68 39 -93 92 -120 108 -55 154 -104 172 -184 9 -42 1 -93 -15 -88
-6 2 -14 22 -18 45 -9 52 -42 102 -99 147 -53 42 -67 45 -41 8 21 -30 48 -110
40 -118 -12 -12 -36 8 -41 34 -3 15 -23 51 -43 81 -29 42 -41 73 -51 129 -7
41 -19 81 -28 91 -8 9 -12 20 -8 24 14 14 27 -1 40 -49z m-91 -11 l7 -27 18
24 c24 32 32 20 37 -55 l4 -64 -36 -12 c-20 -6 -44 -22 -55 -36 l-19 -25 -12
36 c-6 19 -20 41 -31 48 -18 13 -18 16 21 75 22 34 44 62 50 62 5 0 13 -12 16
-26z m-78 -152 c4 -14 -27 -16 -46 -4 -7 5 -10 16 -6 26 6 15 9 15 27 3 12 -8
23 -19 25 -25z m142 -12 c0 -5 -14 -10 -31 -10 -17 0 -28 4 -24 10 3 6 17 10
31 10 13 0 24 -4 24 -10z m-131 -26 c2 -2 0 -15 -3 -29 -4 -17 -12 -25 -21
-22 -7 3 -30 1 -50 -4 -20 -6 -39 -8 -42 -5 -3 2 0 21 7 40 11 35 12 35 58 29
26 -3 49 -7 51 -9z m1221 -44 c0 -5 -9 -24 -20 -42 -11 -18 -20 -43 -20 -55 0
-18 -6 -23 -24 -23 -22 0 -24 3 -16 30 10 36 17 49 43 78 22 23 37 29 37 12z
m-1694 -29 c-30 -33 -45 -92 -46 -178 0 -46 -4 -83 -9 -83 -24 0 -29 132 -7
185 16 38 68 107 75 100 2 -3 -4 -14 -13 -24z m328 5 c-3 -9 -10 -16 -15 -16
-5 0 -4 9 3 20 14 22 21 20 12 -4z m501 -43 c19 -40 15 -50 -13 -32 -11 7 -24
31 -29 56 -10 42 -10 43 8 27 9 -8 25 -32 34 -51z m-531 -15 c-21 -40 -14
-189 11 -261 17 -46 17 -49 -1 -63 -18 -14 -18 -15 3 -5 19 10 23 7 33 -25 19
-57 8 -129 -26 -171 -23 -27 -42 -39 -84 -50 -34 -9 -67 -25 -86 -44 l-31 -30
-12 58 c-6 32 -14 86 -17 121 -4 34 -11 62 -16 62 -5 0 -37 -18 -71 -39 -52
-34 -75 -58 -142 -155 -44 -64 -83 -112 -86 -108 -4 4 -17 35 -29 69 l-22 62
26 33 c36 49 56 111 56 180 l0 60 31 -26 31 -27 22 24 c11 13 26 31 31 40 112
174 161 233 217 263 l27 14 -26 -51 c-48 -97 -30 -213 46 -291 32 -33 36 -34
64 -7 l22 21 -22 -11 c-30 -15 -30 -15 -42 20 -31 88 11 276 77 352 25 28 34
20 16 -15z m113 24 c9 -6 4 -13 -17 -26 -63 -37 -74 -100 -36 -209 23 -65 24
-68 6 -77 -17 -9 -21 -4 -35 42 -34 111 -32 221 6 259 20 20 55 25 76 11z
m1389 -23 c10 -11 12 -19 6 -19 -7 0 -12 5 -12 11 0 11 -42 8 -97 -7 -35 -10
-28 15 8 30 37 16 72 10 95 -15z m-1268 -65 l2 -29 -14 25 c-19 31 -20 43 -3
38 6 -3 13 -18 15 -34z m1266 23 c16 -12 14 -13 -18 -9 -21 2 -43 -1 -51 -8
-9 -7 -19 -10 -23 -6 -10 11 28 36 53 36 12 0 29 -6 39 -13z m-2325 -4 c0 -11
-59 -57 -59 -47 0 4 10 18 22 31 21 23 39 30 37 16z m38 1 c-3 -3 -12 -4 -19
-1 -8 3 -5 6 6 6 11 1 17 -2 13 -5z m2177 -45 c25 -36 32 -40 57 -35 16 3 29
1 29 -4 0 -6 -5 -10 -12 -10 -9 0 -9 -3 0 -12 10 -9 16 -9 28 4 24 24 11 48
-26 48 -16 0 -30 4 -30 9 0 17 38 23 62 10 47 -25 61 -66 32 -90 -15 -12 -16
-10 -10 21 l6 35 -13 -32 c-8 -21 -42 -56 -96 -99 l-83 -66 -30 29 c-28 26
-30 32 -26 87 3 34 10 62 16 64 7 2 12 18 12 36 0 38 6 46 34 46 13 0 32 -16
50 -41z m-2219 -23 c-36 -29 -46 -14 -14 20 16 17 26 21 33 14 7 -7 1 -18 -19
-34z m92 29 c8 -22 0 -27 -30 -20 -39 10 -43 35 -6 35 17 0 32 -6 36 -15z
m2020 -27 c-3 -8 -6 -5 -6 6 -1 11 2 17 5 13 3 -3 4 -12 1 -19z m-27 -29 c-6
-18 -10 -53 -10 -77 0 -40 5 -49 74 -121 40 -42 77 -87 80 -99 8 -24 36 -30
36 -8 0 8 3 23 6 33 4 12 3 14 -3 6 -7 -9 -19 -1 -46 31 l-37 44 59 51 c32 28
62 51 66 51 4 0 4 -12 1 -27 -4 -18 -3 -23 2 -15 24 35 74 -184 76 -328 1 -83
-2 -102 -25 -150 -28 -59 -109 -150 -134 -150 -22 0 -19 30 15 158 32 117 43
210 25 212 -5 1 -15 -31 -22 -69 -6 -39 -23 -108 -37 -153 -50 -157 -25 -215
67 -152 25 17 47 44 64 82 22 47 27 53 31 34 2 -13 -3 -31 -11 -40 -7 -9 -22
-39 -32 -67 -22 -61 -48 -91 -92 -106 -38 -12 -73 3 -94 42 -27 51 27 394 69
442 13 14 13 18 3 15 -9 -2 -17 9 -21 28 -8 38 -36 78 -114 164 -57 63 -58 65
-53 114 3 38 11 55 32 73 15 13 29 22 31 20 2 -2 -1 -19 -6 -38z m-2061 -3
c-15 -6 -34 -18 -44 -26 -17 -14 -17 -14 -6 8 13 25 50 43 66 34 5 -3 -2 -11
-16 -16z m61 -3 c0 -20 -24 -11 -28 10 -2 12 1 15 12 11 9 -3 16 -13 16 -21z
m207 -105 c3 -16 10 -31 14 -34 12 -7 11 -121 -1 -163 -10 -35 -50 -101 -62
-101 -3 0 -10 13 -16 28 -8 24 -5 34 19 66 36 49 43 84 28 136 -11 35 -10 43
2 51 12 7 11 9 -2 9 -14 0 -44 52 -67 115 -2 6 15 -10 38 -35 23 -24 44 -57
47 -72z m-342 82 c-4 -11 -2 -20 4 -20 7 0 7 -8 -1 -25 -10 -22 -8 -30 11 -56
l22 -30 -51 -64 c-29 -36 -49 -65 -47 -65 3 0 28 29 56 64 51 64 51 64 86 53
28 -8 38 -18 51 -56 9 -25 27 -72 39 -103 l22 -57 -56 -44 c-81 -63 -167 -120
-236 -155 -33 -17 -87 -49 -120 -71 -77 -53 -97 -55 -74 -8 10 21 9 21 -5 3
-15 -18 -16 -18 -26 8 -36 96 30 231 229 470 102 122 125 177 32 80 -85 -90
-214 -266 -260 -356 -47 -91 -53 -153 -23 -225 23 -58 48 -57 155 10 47 28
112 67 144 85 32 18 101 64 153 101 52 38 98 66 102 62 3 -3 8 -15 10 -26 6
-37 -497 -355 -562 -355 -24 0 -24 3 -5 40 9 17 13 30 11 30 -3 0 -12 -13 -21
-30 -9 -16 -19 -30 -24 -30 -5 0 -19 19 -30 43 -28 59 -28 162 0 237 25 67
149 232 294 393 104 114 133 138 120 97z m105 -112 c0 -5 -9 -8 -20 -8 -23 0
-26 10 -8 28 9 9 14 9 20 -1 4 -6 8 -15 8 -19z m1070 -40 c0 -77 -37 -148
-118 -227 -77 -75 -174 -129 -252 -138 -44 -5 -50 -4 -51 13 -1 17 -2 17 -6 2
-5 -19 -33 -25 -33 -8 0 30 95 90 141 90 70 0 185 108 264 249 22 39 43 71 48
71 4 0 7 -24 7 -52z m-210 2 c0 -35 -15 -40 -25 -9 -5 14 -2 25 6 30 19 12 19
12 19 -21z m-325 -177 c4 -21 11 -60 16 -86 15 -78 13 -84 -33 -105 -46 -20
-117 -90 -163 -161 -33 -50 -40 -46 -70 41 l-18 54 36 47 c19 25 54 77 78 114
36 59 112 130 141 132 4 1 10 -16 13 -36z m1551 -185 c-23 -107 -30 -169 -27
-246 1 -24 11 -44 35 -68 37 -37 65 -42 109 -20 15 8 27 12 26 8 -2 -19 -57
-97 -81 -115 -47 -35 -70 -1 -119 174 -35 129 -47 154 -91 204 -17 20 -28 38
-26 41 20 19 192 143 195 140 3 -2 -7 -55 -21 -118z m-1074 -98 c-3 -31 -8
-40 -23 -40 -10 0 -19 3 -19 6 0 7 40 74 44 74 1 0 0 -18 -2 -40z m-221 -30
c-13 -11 -33 -20 -45 -20 -17 1 -14 4 14 20 45 25 61 25 31 0z m-219 -689 c-3
-29 -7 -39 -13 -30 -12 20 -11 53 3 67 15 15 16 14 10 -37z"/>
<path d="M2098 3803 c7 -3 16 -2 19 1 4 3 -2 6 -13 5 -11 0 -14 -3 -6 -6z"/>
<path d="M2228 3763 c7 -3 16 -2 19 1 4 3 -2 6 -13 5 -11 0 -14 -3 -6 -6z"/>
<path d="M2313 3655 c0 -38 2 -53 4 -32 2 20 2 52 0 70 -2 17 -4 1 -4 -38z"/>
<path d="M3901 3834 c0 -11 3 -14 6 -6 3 7 2 16 -1 19 -3 4 -6 -2 -5 -13z"/>
<path d="M1464 3678 l-19 -23 23 19 c21 18 27 26 19 26 -2 0 -12 -10 -23 -22z"/>
<path d="M1375 3550 c-9 -16 -13 -30 -11 -30 3 0 12 14 21 30 9 17 13 30 11
30 -3 0 -12 -13 -21 -30z"/>
<path d="M1335 3480 c-9 -16 -13 -30 -11 -30 3 0 12 14 21 30 9 17 13 30 11
30 -3 0 -12 -13 -21 -30z"/>
<path d="M1285 3390 c-9 -16 -13 -30 -11 -30 3 0 12 14 21 30 9 17 13 30 11
30 -3 0 -12 -13 -21 -30z"/>
<path d="M3578 4043 c7 -3 16 -2 19 1 4 3 -2 6 -13 5 -11 0 -14 -3 -6 -6z"/>
<path d="M3538 4033 c7 -3 16 -2 19 1 4 3 -2 6 -13 5 -11 0 -14 -3 -6 -6z"/>
<path d="M3468 4013 c7 -3 16 -2 19 1 4 3 -2 6 -13 5 -11 0 -14 -3 -6 -6z"/>
<path d="M3428 4003 c7 -3 16 -2 19 1 4 3 -2 6 -13 5 -11 0 -14 -3 -6 -6z"/>
<path d="M3318 3973 c7 -3 16 -2 19 1 4 3 -2 6 -13 5 -11 0 -14 -3 -6 -6z"/>
<path d="M2810 3891 c14 -11 30 -21 35 -21 11 0 -7 14 -40 31 -13 7 -12 3 5
-10z"/>
<path d="M3058 3903 c7 -3 16 -2 19 1 4 3 -2 6 -13 5 -11 0 -14 -3 -6 -6z"/>
<path d="M2948 3873 c7 -3 16 -2 19 1 4 3 -2 6 -13 5 -11 0 -14 -3 -6 -6z"/>
<path d="M2831 3674 c0 -11 3 -14 6 -6 3 7 2 16 -1 19 -3 4 -6 -2 -5 -13z"/>
<path d="M2801 3564 c0 -11 3 -14 6 -6 3 7 2 16 -1 19 -3 4 -6 -2 -5 -13z"/>
<path d="M2771 3454 c0 -11 3 -14 6 -6 3 7 2 16 -1 19 -3 4 -6 -2 -5 -13z"/>
<path d="M2751 3384 c0 -11 3 -14 6 -6 3 7 2 16 -1 19 -3 4 -6 -2 -5 -13z"/>
<path d="M2716 3282 c-2 -4 -6 -96 -8 -204 -2 -148 0 -200 10 -209 10 -11 12
-9 12 7 0 10 3 108 6 217 4 131 2 197 -5 197 -5 0 -12 -3 -15 -8z"/>
<path d="M2772 3235 c12 -24 23 -43 26 -41 4 5 -36 86 -43 86 -3 0 5 -20 17
-45z"/>
<path d="M1845 3214 c-45 -24 -64 -44 -101 -101 -34 -54 -92 -93 -136 -93 -34
0 -68 27 -68 55 0 23 23 55 40 55 22 0 40 -14 40 -31 0 -12 7 -19 20 -19 47 0
8 82 -44 96 -30 7 -87 -19 -105 -48 -7 -12 -13 -41 -13 -65 3 -134 175 -181
279 -76 19 18 38 33 44 33 18 0 -32 -61 -57 -71 -14 -5 -27 -16 -30 -24 -4 -8
-25 -23 -48 -34 -23 -10 -86 -46 -140 -80 -162 -102 -235 -131 -332 -131 l-35
0 40 -52 c34 -47 91 -148 91 -163 0 -3 -36 -5 -80 -5 -78 0 -81 -1 -92 -27 -6
-16 -13 -67 -16 -116 -4 -75 -2 -86 11 -82 11 5 16 27 19 88 2 46 8 88 12 95
8 13 176 18 176 5 0 -4 -37 -46 -82 -93 -46 -48 26 24 160 159 133 135 270
278 304 316 l61 70 -69 -70 c-319 -327 -358 -365 -366 -353 -4 7 -8 18 -8 24
0 6 -22 47 -49 92 l-48 81 71 15 c56 13 101 34 206 98 74 44 151 88 172 97 20
9 59 45 88 79 28 34 54 62 56 62 3 0 -3 -14 -11 -31 -9 -17 -15 -33 -12 -35 2
-2 16 22 30 54 23 49 34 62 73 80 26 13 48 21 50 19 2 -2 36 -89 75 -193 38
-104 81 -215 94 -246 l24 -56 -91 -134 c-137 -201 -348 -495 -391 -544 -41
-47 -42 -64 -4 -57 17 3 26 -1 31 -13 9 -23 3 -26 -29 -14 -15 6 -30 8 -33 5
-3 -3 0 -5 6 -5 19 0 14 -14 -34 -93 -54 -89 -54 -111 4 -151 31 -21 49 -26
101 -26 59 0 69 4 152 54 l89 55 67 -31 c61 -29 69 -30 110 -20 63 17 71 15
78 -18 13 -60 69 -59 132 2 30 29 31 29 38 9 10 -32 61 -27 109 9 22 17 50 30
62 30 19 0 23 -6 26 -37 l3 -38 70 -6 c50 -3 91 -15 145 -40 85 -39 135 -42
222 -14 69 23 75 29 83 75 6 38 -6 77 -29 92 -17 11 -81 9 -113 -3 l-28 -11
33 -16 c40 -20 41 -32 2 -32 -20 0 -40 9 -57 26 l-26 26 7 207 c4 113 12 238
18 276 10 67 9 150 -8 525 -3 74 -10 139 -14 144 -18 19 -23 -79 -12 -259 14
-226 15 -327 2 -414 -5 -36 -12 -129 -16 -208 -6 -120 -9 -143 -21 -138 -61
23 -125 10 -178 -36 -32 -29 -35 -29 -58 -14 -29 18 -62 9 -109 -30 -36 -30
-64 -32 -71 -5 -8 30 -35 24 -79 -16 -48 -43 -81 -43 -86 -1 -5 40 -31 49 -88
32 -42 -12 -52 -12 -97 3 -47 17 -51 21 -68 71 l-18 53 90 119 c49 65 91 119
93 119 3 0 21 -22 41 -50 l37 -50 156 0 157 1 90 84 90 83 5 317 c5 298 2 363
-13 338 -3 -5 -7 -150 -8 -322 l-2 -312 -86 -85 -86 -85 -142 3 c-155 3 -164
7 -205 76 -16 26 -16 31 -1 51 l15 23 22 -39 c21 -37 24 -38 86 -44 36 -4 103
-7 150 -8 l85 -1 53 65 53 64 9 218 c16 378 16 406 3 410 -7 3 -13 -2 -13 -10
0 -8 -26 -36 -57 -63 -71 -59 -83 -70 -63 -59 8 5 39 29 68 53 l52 44 0 -53
c0 -30 -5 -162 -11 -294 l-11 -240 -46 -55 c-25 -30 -47 -57 -49 -59 -1 -2
-63 0 -137 4 l-135 7 -20 41 -20 40 21 30 c18 25 22 27 30 13 6 -11 23 -16 55
-16 39 0 44 2 38 18 -4 9 -12 29 -17 44 -13 36 -32 25 -24 -14 5 -24 3 -27
-10 -20 -8 5 -21 19 -27 32 -18 36 -40 39 -33 4 4 -21 0 -36 -15 -53 -32 -39
-42 -16 -34 75 l8 79 15 -32 c9 -18 22 -33 29 -33 7 0 13 2 13 5 0 2 -21 57
-46 122 -25 65 -60 159 -79 208 -52 143 -197 507 -215 540 -19 35 -44 41 -85
19z m55 -29 c0 -8 5 -15 10 -15 6 0 10 -5 10 -10 0 -6 -6 -10 -12 -9 -7 1 -22
-1 -33 -6 -19 -7 -101 -44 -117 -53 -4 -2 7 13 25 34 53 60 117 93 117 59z
m-272 -37 c7 -7 12 -18 12 -25 0 -10 -6 -9 -25 3 -31 20 -65 9 -90 -29 -30
-46 17 -107 83 -107 40 0 60 10 128 61 53 40 134 76 134 58 0 -19 -85 -89
-144 -119 -101 -51 -181 -38 -212 36 -32 78 -5 134 64 134 21 0 43 -5 50 -12z
m306 -27 c6 -9 -53 -35 -61 -27 -2 2 3 11 12 20 18 18 41 21 49 7z m193 -740
c-20 -88 -37 -167 -37 -176 0 -9 11 -31 25 -49 14 -18 25 -38 25 -45 0 -13
-156 -224 -170 -229 -4 -2 -17 13 -29 31 -12 19 -38 43 -58 52 -46 22 -91 10
-154 -39 -24 -19 -45 -33 -47 -31 -2 2 70 106 159 232 89 125 183 257 208 293
26 36 57 82 70 103 16 27 27 35 34 28 7 -7 -1 -59 -26 -170z m59 -48 c-13 -83
-13 -99 -1 -123 12 -23 12 -30 -1 -49 -20 -28 -26 -27 -53 9 l-22 31 33 146
c32 142 33 145 46 113 11 -27 11 -48 -2 -127z m-317 -384 c33 -12 88 -90 76
-109 -3 -5 -2 -10 4 -10 5 0 15 -17 22 -37 16 -53 24 -60 81 -79 43 -14 55
-14 96 -3 63 19 63 19 76 -21 9 -29 16 -36 43 -38 25 -2 40 5 71 32 46 42 48
42 55 16 8 -30 51 -25 102 10 51 35 85 39 92 10 7 -25 15 -25 29 -2 17 27 111
74 148 74 51 0 76 -18 76 -53 0 -26 -3 -30 -17 -24 -57 25 -126 13 -197 -32
-27 -18 -41 -22 -49 -14 -21 21 -73 12 -112 -19 -44 -35 -71 -38 -80 -10 -9
28 -28 25 -67 -9 -31 -26 -70 -51 -82 -51 -3 0 -9 14 -14 32 -12 46 -30 54
-95 39 -52 -13 -57 -12 -111 12 -51 24 -56 29 -56 58 0 56 -22 107 -64 148
-54 53 -79 58 -139 27 l-49 -24 24 25 c17 19 82 58 104 63 1 0 15 -5 33 -11z
m-5 -90 c19 -16 38 -39 41 -50 4 -11 10 -17 13 -15 4 2 8 -18 10 -44 l3 -48
-86 -56 c-81 -53 -89 -56 -147 -56 -54 0 -66 4 -90 27 -15 15 -28 32 -28 37 0
6 13 30 29 54 l29 44 10 -31 c23 -66 65 -47 78 34 5 37 9 42 27 39 21 -4 21
-4 0 5 -31 14 -29 34 8 65 40 34 61 33 103 -5z m-165 -82 c-1 -32 -14 -63 -22
-50 -3 5 -9 29 -13 53 -7 41 -6 42 15 31 12 -7 21 -21 20 -34z m-49 -7 c0 -5
-5 -10 -11 -10 -5 0 -7 5 -4 10 3 6 8 10 11 10 2 0 4 -4 4 -10z m1164 -84 c19
-8 37 -23 41 -35 20 -64 155 -86 155 -25 0 17 -6 24 -19 24 -11 0 -23 5 -26
10 -11 18 52 11 75 -8 19 -16 22 -24 16 -55 -6 -34 -10 -38 -63 -53 -89 -26
-138 -22 -213 16 -45 23 -84 34 -127 38 -35 2 -63 8 -63 12 0 14 46 49 90 69
54 24 90 26 134 7z"/>
<path d="M2341 3154 c0 -11 3 -14 6 -6 3 7 2 16 -1 19 -3 4 -6 -2 -5 -13z"/>
<path d="M2371 3054 c0 -11 3 -14 6 -6 3 7 2 16 -1 19 -3 4 -6 -2 -5 -13z"/>
<path d="M2516 3015 c-3 -9 -27 -26 -53 -38 l-48 -22 35 -3 c59 -6 91 -52 55
-82 -20 -17 -50 -8 -50 15 0 14 6 20 23 19 14 0 19 3 13 9 -31 31 -72 -36 -51
-85 10 -22 10 -21 5 5 -5 26 -4 27 16 16 29 -15 66 2 75 36 7 27 11 29 34 15
12 -7 11 -13 -10 -37 -16 -18 -18 -22 -5 -11 12 10 39 25 60 35 l40 18 -43 3
c-31 2 -46 9 -58 27 -29 44 23 90 56 50 10 -12 10 -18 -1 -32 -12 -17 -12 -17
5 -2 26 24 6 59 -33 59 -32 0 -47 -14 -53 -47 -3 -20 -5 -20 -22 -7 -19 14
-19 14 4 39 13 14 21 27 18 30 -3 3 -8 -1 -12 -10z"/>
<path d="M2862 3005 c0 -16 2 -22 5 -12 2 9 2 23 0 30 -3 6 -5 -1 -5 -18z"/>
<path d="M2451 2790 c0 -8 4 -24 9 -35 5 -13 9 -14 9 -5 0 8 -4 24 -9 35 -5
13 -9 14 -9 5z"/>
<path d="M2383 2709 c10 -16 8 -26 -10 -57 -12 -20 -25 -36 -30 -35 -12 2 -13
-67 -2 -89 5 -10 21 -18 35 -18 l24 0 -20 -40 c-11 -22 -18 -40 -15 -40 2 0
23 37 45 83 23 45 34 74 26 64 -13 -17 -15 -17 -40 7 -24 25 -24 27 -11 61 19
44 19 71 0 79 -12 4 -13 2 -2 -15z m17 -154 c0 -18 -5 -25 -19 -25 -22 0 -32
20 -24 49 4 17 9 19 24 10 11 -5 19 -20 19 -34z"/>
<path d="M2497 2533 c-8 -64 -16 -73 -65 -73 -24 -1 -25 -2 -9 -11 10 -6 31
-7 47 -4 17 4 30 2 30 -3 0 -11 -33 -22 -70 -22 -23 -1 -23 -2 -7 -11 11 -6
32 -8 48 -5 37 7 39 -15 4 -38 -39 -25 -48 -61 -29 -102 9 -19 25 -39 35 -45
16 -8 14 -3 -6 27 -32 46 -31 59 2 92 l26 26 14 -34 13 -35 -3 33 c-4 38 1 39
37 11 28 -22 35 -71 15 -112 -10 -21 -9 -21 10 2 31 35 28 86 -8 122 -16 16
-37 29 -45 29 -9 0 -16 8 -16 20 0 22 35 35 75 28 21 -4 23 -3 13 9 -7 9 -26
13 -49 12 -21 -2 -41 0 -44 3 -10 10 64 30 83 23 13 -5 14 -3 5 6 -6 6 -29 10
-52 7 l-40 -3 -3 55 -3 55 -8 -62z"/>
<path d="M1115 2179 c17 -56 55 -129 87 -165 20 -22 43 -53 51 -70 36 -71 139
-132 261 -155 34 -6 53 -6 62 2 20 17 17 32 -5 26 -60 -15 -217 46 -265 105
-37 44 -156 227 -156 239 0 6 -4 7 -10 4 -5 -3 -10 1 -10 9 0 8 -5 18 -11 22
-8 4 -9 -1 -4 -17z"/>
<path d="M1160 2197 c0 -3 21 -22 47 -43 26 -21 44 -33 40 -27 -9 14 -87 77
-87 70z"/>
<path d="M1260 2116 c0 -3 62 -55 138 -117 75 -62 145 -119 155 -127 9 -8 17
-13 17 -10 0 3 -30 30 -67 60 -38 30 -107 87 -155 127 -49 40 -88 70 -88 67z"/>
</g>
</svg>
