<?xml version="1.0" standalone="no"?>
<!DOCTYPE svg PUBLIC "-//W3C//DTD SVG 20010904//EN"
 "http://www.w3.org/TR/2001/REC-SVG-20010904/DTD/svg10.dtd">
<svg version="1.0" xmlns="http://www.w3.org/2000/svg"
 width="515.000000pt" height="627.000000pt" viewBox="0 0 515.000000 627.000000"
 preserveAspectRatio="xMidYMid meet">

<g transform="translate(0.000000,627.000000) scale(0.100000,-0.100000)"
fill="#000000" stroke="none">
<path d="M2490 4514 c-278 -34 -557 -115 -885 -258 -138 -61 -326 -157 -403
-207 l-47 -31 65 7 c36 3 171 17 300 30 129 14 254 25 278 25 31 0 42 4 42 15
0 9 -9 15 -22 15 -20 0 -17 5 22 46 54 55 94 77 191 104 96 26 127 26 77 -1
-53 -27 -47 -33 7 -7 24 12 42 24 40 28 -2 3 4 6 13 7 9 1 71 7 137 14 211 22
592 -23 955 -113 47 -11 89 -24 93 -28 11 -10 -42 -90 -59 -90 -8 0 -65 11
-127 24 -172 37 -389 58 -594 58 -220 -1 -570 -19 -635 -33 -74 -17 -59 -32
25 -25 440 38 923 32 1106 -13 20 -5 70 -14 112 -21 96 -15 108 -22 89 -47
-14 -17 -13 -17 7 1 22 18 24 18 120 -4 54 -12 172 -47 263 -76 90 -29 165
-52 165 -51 1 1 32 42 69 90 80 104 92 82 -104 191 -389 217 -788 342 -1120
350 -80 3 -161 2 -180 0z m285 -34 c204 -23 407 -77 638 -169 171 -68 485
-226 474 -238 -3 -2 -51 1 -108 7 -135 14 -375 88 -372 115 1 15 -1 16 -13 3
-13 -13 -33 -10 -157 19 -316 74 -658 118 -856 111 -61 -2 -111 -2 -111 -1 0
2 27 16 60 33 33 17 60 33 60 35 0 3 -35 -12 -77 -34 -53 -26 -108 -44 -170
-55 -93 -17 -198 -48 -241 -70 -19 -10 -40 -9 -110 6 -48 11 -88 20 -89 22 -6
5 206 84 324 120 282 88 531 120 748 96z m-1025 -251 c52 -11 97 -22 99 -25 3
-2 -15 -24 -39 -49 -40 -41 -48 -44 -109 -50 -279 -28 -415 -45 -424 -54 -6
-6 -20 -11 -30 -11 -16 0 -17 3 -7 15 7 8 20 15 30 15 10 0 100 40 201 90 101
49 184 90 184 90 1 0 43 -9 95 -21z m1815 -126 c49 -16 89 -36 105 -53 146
-154 146 -155 108 -132 -40 25 -152 62 -335 112 -68 19 -123 37 -123 40 0 4
13 25 30 48 l29 41 53 -15 c29 -8 89 -27 133 -41z m369 -54 c-3 -5 -9 -7 -13
-4 -5 2 -30 -25 -57 -62 l-48 -66 -34 39 c-19 22 -47 55 -62 74 l-28 36 71 -8
c120 -12 147 -10 147 8 0 13 3 14 15 4 8 -7 12 -16 9 -21z"/>
<path d="M2488 4393 c7 -3 16 -2 19 1 4 3 -2 6 -13 5 -11 0 -14 -3 -6 -6z"/>
<path d="M2538 4383 c7 -3 16 -2 19 1 4 3 -2 6 -13 5 -11 0 -14 -3 -6 -6z"/>
<path d="M2588 4373 c6 -2 18 -2 25 0 6 3 1 5 -13 5 -14 0 -19 -2 -12 -5z"/>
<path d="M2648 4363 c7 -3 16 -2 19 1 4 3 -2 6 -13 5 -11 0 -14 -3 -6 -6z"/>
<path d="M2698 4353 c7 -3 16 -2 19 1 4 3 -2 6 -13 5 -11 0 -14 -3 -6 -6z"/>
<path d="M2758 4343 c7 -3 16 -2 19 1 4 3 -2 6 -13 5 -11 0 -14 -3 -6 -6z"/>
<path d="M2808 4333 c7 -3 16 -2 19 1 4 3 -2 6 -13 5 -11 0 -14 -3 -6 -6z"/>
<path d="M2858 4323 c6 -2 18 -2 25 0 6 3 1 5 -13 5 -14 0 -19 -2 -12 -5z"/>
<path d="M2918 4313 c7 -3 16 -2 19 1 4 3 -2 6 -13 5 -11 0 -14 -3 -6 -6z"/>
<path d="M2968 4303 c6 -2 18 -2 25 0 6 3 1 5 -13 5 -14 0 -19 -2 -12 -5z"/>
<path d="M3028 4293 c7 -3 16 -2 19 1 4 3 -2 6 -13 5 -11 0 -14 -3 -6 -6z"/>
<path d="M3078 4283 c7 -3 16 -2 19 1 4 3 -2 6 -13 5 -11 0 -14 -3 -6 -6z"/>
<path d="M3138 4273 c7 -3 16 -2 19 1 4 3 -2 6 -13 5 -11 0 -14 -3 -6 -6z"/>
<path d="M3188 4263 c7 -3 16 -2 19 1 4 3 -2 6 -13 5 -11 0 -14 -3 -6 -6z"/>
<path d="M3238 4253 c6 -2 18 -2 25 0 6 3 1 5 -13 5 -14 0 -19 -2 -12 -5z"/>
<path d="M3288 4243 c6 -2 18 -2 25 0 6 3 1 5 -13 5 -14 0 -19 -2 -12 -5z"/>
<path d="M3348 4233 c7 -3 16 -2 19 1 4 3 -2 6 -13 5 -11 0 -14 -3 -6 -6z"/>
<path d="M3150 3840 c-22 -33 -38 -60 -36 -60 3 0 24 27 46 60 22 33 38 60 36
60 -3 0 -24 -27 -46 -60z"/>
<path d="M2805 3759 c-194 -26 -436 -105 -740 -244 -224 -102 -431 -182 -536
-208 -89 -22 -91 -23 -131 -75 -22 -30 -38 -55 -36 -56 1 -1 31 -26 66 -54 41
-34 73 -52 90 -52 66 -1 246 -12 342 -20 91 -8 138 -20 360 -94 261 -86 354
-109 495 -121 146 -13 345 24 593 110 56 19 111 35 122 35 12 0 43 -12 71 -26
28 -14 53 -24 55 -21 2 2 -19 14 -47 27 -41 20 -47 26 -32 31 32 13 176 9 252
-6 60 -13 77 -13 91 -3 9 7 38 29 64 48 35 26 46 40 42 55 -2 11 -10 46 -16
78 -11 57 -12 58 -141 171 -219 193 -475 366 -594 402 -33 10 -62 21 -65 24
-9 9 -233 9 -305 -1z m237 -28 l27 -6 -27 -42 -27 -43 -111 0 c-281 0 -580
-96 -904 -290 -57 -34 -118 -73 -135 -85 -17 -13 -62 -29 -104 -37 -71 -14
-79 -14 -163 8 -50 12 -92 24 -94 27 -2 2 64 26 148 54 84 28 244 91 355 141
339 153 506 213 698 251 145 29 272 37 337 22z m109 -17 c74 -22 136 -55 256
-135 153 -103 461 -354 449 -366 -11 -12 -149 -22 -166 -13 -10 6 -35 43 -54
84 -27 56 -52 89 -100 133 -102 94 -292 184 -445 213 -30 6 -56 12 -58 14 -6
5 48 86 57 86 3 0 31 -7 61 -16z m-174 -126 c-25 -33 -25 -33 -103 -30 -193 9
-516 -89 -794 -240 -41 -22 -101 -46 -132 -53 -32 -6 -58 -11 -58 -10 0 2 48
32 108 68 324 196 620 293 906 296 l99 1 -26 -32z m178 6 c33 -8 116 -42 184
-76 99 -48 135 -73 185 -122 57 -57 118 -146 99 -146 -4 0 -34 23 -67 50 -85
73 -137 107 -232 152 -84 39 -251 88 -303 88 -48 0 -57 14 -32 49 21 29 26 31
64 25 23 -3 69 -13 102 -20z m-248 -70 c14 -4 20 -11 16 -18 -4 -6 0 -5 9 2
14 11 22 8 56 -23 l40 -35 30 17 c44 25 76 10 134 -64 40 -51 49 -68 46 -95
-3 -32 -4 -31 -43 39 -42 77 -68 95 -119 86 -24 -5 -27 -9 -19 -32 4 -14 8
-61 8 -103 0 -51 4 -78 11 -78 21 0 64 -41 64 -61 0 -25 -8 -24 -37 3 -30 28
-83 34 -76 8 3 -11 -11 -31 -44 -58 l-48 -42 -86 0 c-146 0 -169 6 -209 55
-19 24 -42 65 -52 92 -15 45 -18 48 -50 45 -48 -4 -76 29 -90 106 -17 93 -32
77 -26 -27 6 -107 27 -150 78 -167 43 -14 49 -10 25 16 -20 22 -15 36 9 27 19
-8 49 -64 40 -78 -4 -7 -21 -8 -43 -5 -20 4 -52 9 -72 12 -36 6 -36 6 -49 74
-7 38 -10 93 -7 123 6 59 -6 96 -20 62 -10 -27 -10 -159 0 -213 l9 -42 -99 36
c-54 19 -125 45 -158 56 -33 11 -64 24 -69 28 -8 8 95 60 239 122 39 17 77 36
85 43 8 7 30 13 48 13 l32 1 0 -57 c0 -66 25 -102 72 -102 23 0 28 4 28 24 0
32 25 101 50 136 17 24 18 29 5 34 -10 4 -15 -1 -15 -14 0 -11 -4 -20 -10 -20
-9 0 -14 30 -7 47 3 10 48 10 54 0 3 -4 15 -1 27 7 33 21 181 34 233 20z m168
-8 c55 -4 99 -19 120 -40 19 -18 59 -105 52 -112 -3 -3 -16 16 -29 42 -13 27
-28 49 -34 49 -6 0 -27 9 -47 20 -32 17 -41 18 -71 7 -32 -12 -38 -11 -66 9
-37 28 -39 43 -2 35 15 -4 50 -9 77 -10z m-495 -52 c0 -8 -7 -29 -16 -45 -20
-39 -46 -34 -60 11 -15 43 1 53 27 19 l19 -24 0 26 c0 14 3 29 6 32 10 10 24
-2 24 -19z m670 -3 c0 -5 19 -16 43 -26 55 -22 151 -79 206 -123 l43 -35 -43
-23 c-25 -12 -87 -39 -139 -59 -52 -20 -103 -44 -112 -52 -10 -9 -18 -11 -18
-5 0 6 5 12 11 14 26 9 39 178 18 253 -6 22 -19 45 -28 52 -15 11 -15 12 2 13
9 0 17 -4 17 -9z m-96 -78 c29 -42 28 -50 -4 -33 -18 9 -25 8 -41 -6 -18 -16
-19 -15 -29 10 -18 49 -13 66 20 66 23 0 35 -8 54 -37z m-643 11 c8 -10 21
-13 36 -9 23 5 24 4 17 -32 -8 -49 -17 -57 -43 -44 -15 9 -20 18 -15 35 3 14
-1 27 -10 35 -9 8 -16 17 -16 22 0 14 16 10 31 -7z m669 -89 c19 -19 40 -35
47 -35 31 0 2 -123 -33 -139 -23 -10 -26 -8 -45 35 -18 44 -18 48 -3 65 24 27
34 15 35 -44 1 -50 1 -51 10 -19 12 42 -4 96 -34 117 -31 22 -38 19 -25 -10
12 -27 6 -41 -11 -30 -6 3 -11 26 -11 51 0 56 22 59 70 9z m-697 -40 c20 -18
26 -31 22 -45 -10 -31 -34 -24 -51 15 -25 61 -17 70 29 30z m-195 -107 c377
-128 547 -147 782 -88 67 17 129 29 137 26 8 -3 12 -2 8 3 -3 5 12 15 32 21
21 7 103 39 181 73 139 58 145 60 170 45 15 -9 28 -20 29 -25 8 -23 -309 -151
-345 -140 -9 3 -26 8 -37 12 -13 4 -11 1 5 -9 l25 -14 -30 -12 c-60 -24 -192
-62 -280 -80 -228 -49 -490 -2 -880 160 -82 34 -168 70 -190 78 l-39 17 79 16
c72 14 84 14 115 1 19 -9 126 -46 238 -84z m-738 72 c47 -11 91 -23 99 -26 10
-3 -12 -23 -60 -54 -41 -28 -78 -50 -82 -50 -12 0 -106 73 -107 83 0 13 43 67
54 67 6 0 49 -9 96 -20z m1014 5 c3 -9 0 -15 -9 -15 -16 0 -27 14 -18 24 10
10 21 7 27 -9z m541 5 c3 -5 2 -10 -4 -10 -5 0 -13 5 -16 10 -3 6 -2 10 4 10
5 0 13 -4 16 -10z m-1255 -35 c48 -25 318 -134 420 -170 394 -138 566 -143
928 -23 64 21 104 28 125 24 22 -4 27 -3 17 3 -19 13 -17 15 65 41 39 12 111
44 161 70 71 36 94 44 106 36 14 -10 98 -164 98 -179 0 -3 -12 -1 -27 5 -37
14 -367 12 -358 -3 6 -9 -304 -108 -385 -123 -255 -48 -400 -28 -825 115
l-210 71 -185 10 c-102 5 -195 12 -208 16 -46 14 152 116 236 121 7 1 26 -6
42 -14z m2039 -72 c6 -31 10 -57 8 -58 -1 -2 -24 -21 -50 -44 -44 -38 -76 -54
-63 -32 7 10 1 26 -38 113 l-25 57 52 9 c103 19 103 19 116 -45z m-1235 -54
c-6 -10 -47 -5 -91 12 l-22 8 27 29 27 29 33 -34 c18 -18 30 -38 26 -44z m440
59 c9 -12 16 -17 16 -11 0 7 7 10 16 6 13 -5 12 -8 -6 -25 -25 -23 -71 -38
-118 -38 l-33 0 38 45 c43 50 65 55 87 23z m-635 -3 c9 -2 21 -4 27 -4 5 -1
19 -7 30 -15 17 -13 15 -14 -22 -6 -52 12 -94 28 -94 35 0 4 10 3 21 0 12 -4
29 -9 38 -10z"/>
<path d="M2750 3489 c-47 -19 -92 -62 -111 -103 -52 -115 12 -251 135 -286 42
-11 55 -11 101 4 34 10 69 31 92 54 41 41 43 45 51 114 8 78 -4 114 -58 170
-48 50 -49 51 -117 54 -37 2 -79 -1 -93 -7z m155 -42 c59 -33 85 -78 85 -146
0 -85 -8 -91 -75 -58 -78 38 -83 33 -7 -7 l64 -32 -36 -32 c-44 -38 -71 -46
-137 -40 -59 6 -96 30 -126 84 -85 147 84 315 232 231z"/>
<path d="M2846 3393 c-20 -32 -27 -46 -14 -31 26 30 62 88 55 88 -2 0 -21 -26
-41 -57z"/>
<path d="M1749 2933 c18 -35 137 -139 222 -195 277 -183 562 -245 814 -178 39
10 111 23 160 29 108 13 365 19 358 9 -2 -5 -9 -8 -15 -8 -5 0 -27 -13 -47
-29 -61 -48 -286 -180 -376 -220 -242 -108 -453 -154 -720 -155 -168 -1 -183
1 -221 21 -46 24 -84 87 -84 137 0 68 61 136 123 136 56 0 106 -44 107 -93 l0
-29 -31 26 c-37 31 -77 33 -112 6 -33 -26 -43 -70 -23 -107 46 -90 197 -59
247 51 34 76 21 149 -40 219 -107 121 -328 70 -397 -92 -25 -58 -23 -177 3
-231 49 -99 116 -151 258 -202 128 -46 347 -64 537 -44 53 6 66 10 61 22 -4
11 -15 14 -42 10 -208 -31 -466 -3 -623 68 -151 67 -226 238 -164 371 66 144
252 182 353 73 66 -70 55 -201 -21 -247 -47 -29 -114 -31 -140 -5 -9 8 -16 28
-16 44 0 36 23 60 59 60 33 0 61 -27 61 -59 0 -31 19 -22 42 20 50 91 -25 199
-139 199 -54 0 -81 -11 -117 -46 -50 -51 -69 -100 -64 -170 6 -90 37 -133 130
-178 109 -53 172 -66 368 -72 226 -8 349 8 545 74 224 75 544 247 759 408 l70
53 155 0 154 1 -94 -69 -94 -69 -6 41 -6 42 -1 -48 -2 -48 -102 -66 c-114 -74
-328 -176 -407 -195 -28 -6 -51 -15 -51 -19 0 -4 -53 -24 -117 -45 -65 -20
-137 -43 -161 -50 -23 -8 -95 -23 -160 -35 -64 -11 -126 -26 -137 -32 -41 -24
30 -19 171 13 205 45 289 70 488 144 99 36 189 67 200 67 19 1 19 2 2 6 -14 4
3 17 62 48 44 23 107 61 140 84 34 22 66 41 71 41 6 0 11 4 11 8 0 5 26 26 58
47 31 22 86 62 122 91 65 52 65 52 62 98 -4 42 -7 46 -31 48 -14 0 -30 2 -36
3 -5 1 -40 5 -78 9 -37 4 -74 14 -82 23 -8 8 -15 10 -15 4 0 -13 -117 20 -233
66 l-91 36 -136 -22 c-378 -60 -628 -81 -725 -61 -84 17 -202 64 -262 104 -51
33 -53 34 -245 50 -106 9 -221 19 -256 22 -61 5 -63 5 -53 -13z m97 -12 c16
-6 88 -15 159 -21 72 -6 151 -13 177 -17 l47 -5 -26 -39 c-14 -22 -31 -39 -37
-39 -6 0 -80 25 -163 55 -152 55 -229 72 -143 33 25 -12 101 -41 170 -65 69
-24 152 -62 186 -84 110 -71 150 -82 319 -87 110 -3 199 2 333 17 281 32 443
25 648 -29 82 -21 94 -27 78 -38 -188 -132 -374 -246 -517 -316 -197 -97 -273
-126 -430 -162 -219 -51 -541 -42 -706 19 -66 24 -128 79 -152 132 -32 75 10
193 83 231 35 18 130 16 150 -4 8 -8 2 -9 -26 -1 -88 24 -176 -53 -178 -156
-1 -65 42 -133 104 -163 137 -69 582 -18 877 100 87 35 307 152 396 211 64 42
145 115 145 130 0 5 -85 7 -197 5 -172 -4 -220 -9 -368 -38 -165 -32 -173 -32
-275 -21 -118 12 -240 47 -346 97 -76 36 -243 141 -284 179 -14 13 -40 32 -59
42 -19 10 -36 24 -39 31 -5 15 33 16 74 3z m704 -177 c120 -24 318 -9 739 56
l126 20 90 -90 89 -89 -49 15 c-96 29 -276 54 -388 54 -62 0 -197 -9 -302 -21
-136 -15 -227 -20 -320 -16 -116 4 -138 8 -209 36 -43 17 -91 41 -107 52 l-29
20 30 43 29 44 108 -54 c76 -38 133 -59 193 -70z m910 76 c0 -5 -4 -10 -9 -10
-6 0 -13 5 -16 10 -3 6 1 10 9 10 9 0 16 -4 16 -10z m151 -65 c120 -40 134
-47 137 -69 3 -22 -3 -26 -53 -41 -31 -9 -60 -15 -64 -13 -10 4 -165 168 -158
168 2 0 65 -20 138 -45z m264 -56 c35 0 32 -3 -35 -19 -41 -11 -76 -19 -77
-20 -2 0 -3 12 -3 26 0 25 2 26 38 20 20 -3 55 -6 77 -7z m89 -25 c16 -42 10
-44 -101 -44 -58 0 -104 3 -101 6 7 6 165 52 184 53 7 1 15 -6 18 -15z"/>
<path d="M3670 2875 c25 -13 50 -24 55 -24 6 0 -10 11 -35 24 -25 13 -49 24
-55 24 -5 0 10 -11 35 -24z"/>
<path d="M3678 2293 c7 -3 16 -2 19 1 4 3 -2 6 -13 5 -11 0 -14 -3 -6 -6z"/>
<path d="M3628 2283 c7 -3 16 -2 19 1 4 3 -2 6 -13 5 -11 0 -14 -3 -6 -6z"/>
<path d="M3588 2273 c7 -3 16 -2 19 1 4 3 -2 6 -13 5 -11 0 -14 -3 -6 -6z"/>
<path d="M3548 2263 c7 -3 16 -2 19 1 4 3 -2 6 -13 5 -11 0 -14 -3 -6 -6z"/>
<path d="M3498 2253 c7 -3 16 -2 19 1 4 3 -2 6 -13 5 -11 0 -14 -3 -6 -6z"/>
<path d="M3138 2173 c7 -3 16 -2 19 1 4 3 -2 6 -13 5 -11 0 -14 -3 -6 -6z"/>
<path d="M3098 2163 c7 -3 16 -2 19 1 4 3 -2 6 -13 5 -11 0 -14 -3 -6 -6z"/>
<path d="M3048 2153 c7 -3 16 -2 19 1 4 3 -2 6 -13 5 -11 0 -14 -3 -6 -6z"/>
<path d="M3008 2143 c7 -3 16 -2 19 1 4 3 -2 6 -13 5 -11 0 -14 -3 -6 -6z"/>
<path d="M2930 2130 c-20 -6 -21 -8 -5 -8 11 0 31 4 45 8 20 6 21 8 5 8 -11 0
-31 -4 -45 -8z"/>
<path d="M2868 2113 c7 -3 16 -2 19 1 4 3 -2 6 -13 5 -11 0 -14 -3 -6 -6z"/>
<path d="M2828 2103 c7 -3 16 -2 19 1 4 3 -2 6 -13 5 -11 0 -14 -3 -6 -6z"/>
<path d="M2778 2093 c7 -3 16 -2 19 1 4 3 -2 6 -13 5 -11 0 -14 -3 -6 -6z"/>
<path d="M2738 2083 c7 -3 16 -2 19 1 4 3 -2 6 -13 5 -11 0 -14 -3 -6 -6z"/>
<path d="M2660 2070 c-20 -6 -21 -8 -5 -8 11 0 31 4 45 8 20 6 21 8 5 8 -11 0
-31 -4 -45 -8z"/>
</g>
</svg>
