<?xml version="1.0" standalone="no"?>
<!DOCTYPE svg PUBLIC "-//W3C//DTD SVG 20010904//EN"
 "http://www.w3.org/TR/2001/REC-SVG-20010904/DTD/svg10.dtd">
<svg version="1.0" xmlns="http://www.w3.org/2000/svg"
 width="515.000000pt" height="627.000000pt" viewBox="0 0 515.000000 627.000000"
 preserveAspectRatio="xMidYMid meet">

<g transform="translate(0.000000,627.000000) scale(0.100000,-0.100000)"
fill="#000000" stroke="none">
<path d="M3175 4685 c-28 -29 -43 -62 -80 -170 -3 -11 3 -3 15 19 l22 38 24
-23 c13 -12 24 -24 24 -26 0 -1 -17 -11 -37 -22 -21 -11 -36 -20 -33 -21 7 0
111 43 137 58 29 16 76 78 71 93 -2 7 -14 -4 -26 -23 -29 -46 -85 -74 -118
-59 -42 19 -28 91 27 142 17 16 26 29 19 29 -7 0 -27 -16 -45 -35z"/>
<path d="M2894 4451 c-32 -15 -75 -35 -94 -43 -54 -23 -167 -124 -179 -160 -6
-18 -9 -46 -5 -63 4 -24 -2 -45 -30 -92 -139 -237 -162 -489 -70 -763 9 -25
-52 -41 -191 -50 -183 -11 -257 -40 -341 -134 -29 -32 -37 -46 -25 -46 14 -1
14 -2 -1 -11 -18 -10 -38 -67 -38 -110 0 -97 76 -206 179 -256 48 -24 71 -28
161 -31 123 -5 226 12 396 64 133 40 139 40 182 14 25 -15 32 -26 32 -50 0
-35 -38 -130 -51 -130 -5 0 -9 -7 -9 -17 0 -9 -27 -58 -59 -109 -98 -152 -131
-229 -150 -349 -25 -163 59 -324 209 -401 72 -38 184 -45 262 -18 71 25 171
122 189 185 22 73 17 166 -11 223 -30 59 -95 118 -148 134 -54 16 -135 15
-178 -3 -19 -8 -38 -15 -42 -16 -11 -3 -51 -59 -74 -103 -30 -58 -22 -150 16
-201 40 -52 82 -75 138 -75 40 0 50 4 64 25 26 40 12 70 -41 91 -48 18 -65 38
-65 74 0 19 -1 20 -16 6 -31 -31 6 -90 68 -106 26 -8 38 -16 38 -29 0 -49 -66
-52 -127 -5 -45 34 -63 73 -63 136 0 108 86 188 202 188 115 0 228 -117 228
-236 0 -50 -38 -142 -77 -185 -55 -61 -122 -89 -213 -89 -65 0 -86 4 -137 30
-142 71 -216 217 -192 374 16 99 46 172 120 289 39 62 68 103 64 92 -4 -11 -7
-36 -6 -57 2 -33 -1 -37 -35 -48 -34 -12 -36 -13 -29 -49 4 -20 8 -37 9 -38 1
-2 17 3 35 10 31 11 32 14 27 48 -4 27 -2 38 9 43 27 10 17 -50 -18 -114 -32
-58 -47 -67 -47 -29 0 27 -17 32 -45 13 -28 -18 -29 -22 -15 -59 10 -27 11
-27 36 -10 14 9 27 15 28 13 1 -2 -6 -25 -15 -53 l-17 -50 -11 28 c-13 32 -22
34 -46 7 -15 -17 -16 -24 -7 -45 11 -25 13 -25 37 -9 l25 16 0 -56 c0 -31 7
-73 15 -93 19 -46 19 -46 -10 -39 -22 6 -25 3 -25 -23 0 -23 5 -30 25 -33 21
-4 25 -1 25 19 0 24 2 23 49 -19 73 -66 165 -86 237 -52 46 22 100 84 114 131
32 105 -71 215 -178 192 -44 -9 -60 -25 -44 -41 9 -9 15 -9 24 0 7 7 31 12 55
12 61 0 103 -39 110 -103 7 -58 -9 -98 -53 -137 -52 -46 -103 -57 -160 -35
-137 52 -186 178 -130 335 26 74 60 133 69 123 4 -3 7 1 7 11 0 9 22 49 49 89
156 232 179 374 78 485 -49 52 -145 102 -199 102 -30 0 -37 4 -41 23 -4 20 -4
20 -6 -3 -1 -24 -9 -28 -138 -62 -154 -41 -295 -62 -351 -52 -49 9 -108 39
-116 59 -31 81 49 125 224 124 100 -1 168 11 237 43 l43 20 42 -33 c24 -19 45
-36 48 -39 13 -14 131 -59 185 -70 208 -42 381 90 393 299 3 61 0 87 -18 133
-44 117 -156 201 -286 214 -55 6 -136 -4 -176 -21 -13 -5 -18 -2 -19 11 0 17
-1 17 -9 -2 -4 -11 -23 -33 -42 -49 l-33 -28 -3 69 c-4 88 21 195 67 287 l36
72 50 3 c27 2 55 8 62 14 27 22 117 184 124 223 4 22 13 58 20 80 17 58 5 110
-31 132 -16 9 -26 21 -23 26 3 5 -1 13 -8 18 -25 16 -65 9 -125 -20z m76 -10
c0 -5 -15 -31 -33 -57 l-34 -49 -69 0 c-38 0 -78 -4 -89 -9 -41 -19 14 31 58
52 144 71 167 80 167 63z m71 -22 l21 -21 -51 -45 c-92 -80 -112 -151 -65
-232 15 -25 23 -43 19 -39 -5 5 -16 -10 -26 -32 -19 -41 -40 -52 -93 -48 -27
3 -33 -3 -72 -77 -79 -147 -102 -294 -68 -435 9 -36 16 -75 16 -87 0 -13 4
-20 9 -18 4 3 11 -5 15 -17 3 -12 29 -46 56 -75 72 -76 189 -115 249 -83 28
15 49 63 49 111 0 33 -6 47 -33 74 -64 64 -157 59 -224 -11 -24 -24 -45 -44
-48 -44 -15 0 -45 96 -40 124 4 20 3 26 -3 18 -7 -11 -11 -8 -15 9 -6 23 7 49
25 49 5 0 7 -10 3 -22 -3 -13 2 -7 12 12 28 54 79 75 188 75 114 0 175 -25
240 -97 56 -63 79 -133 73 -227 -6 -110 -58 -189 -161 -243 -63 -34 -187 -31
-282 6 -82 32 -105 50 -106 85 l-1 26 -7 -24 -6 -24 -32 27 c-39 33 -97 122
-88 136 3 5 0 10 -8 10 -21 0 -63 102 -83 199 -41 208 12 465 135 645 15 22
17 35 10 53 -15 40 -11 61 19 94 l28 31 56 -17 c30 -10 66 -15 80 -12 42 11
108 66 140 118 17 27 35 49 39 49 5 0 18 -9 30 -21z m15 -116 c-9 -26 -16 -56
-16 -68 0 -26 -52 -133 -57 -118 -4 10 62 226 75 248 14 23 12 -19 -2 -62z
m-39 -28 l-24 -69 -11 33 c-7 19 -12 35 -12 37 0 7 63 74 66 71 2 -2 -7 -35
-19 -72z m-152 36 c-8 -14 -61 -24 -85 -16 -34 11 -11 25 41 25 28 0 48 -4 44
-9z m104 -128 c1 -17 -3 -34 -8 -37 -18 -11 -28 54 -14 90 6 16 7 16 14 -2 4
-10 8 -33 8 -51z m76 -803 c30 -28 34 -92 9 -128 -29 -41 -149 -18 -211 40
l-22 21 21 29 c11 17 35 39 52 50 42 26 117 20 151 -12z m-505 -104 c0 -8 3
-16 8 -18 7 -3 72 -95 72 -102 0 -5 -74 -35 -115 -46 -22 -5 -85 -10 -141 -10
-166 0 -264 -45 -264 -120 0 -65 58 -112 155 -125 66 -8 238 18 362 55 109 33
129 36 136 18 3 -8 6 -6 6 5 2 41 123 3 190 -61 105 -98 92 -225 -45 -434 -37
-56 -49 -68 -52 -53 -3 11 3 24 15 32 14 10 18 21 15 48 -4 31 -7 34 -28 29
-33 -8 -32 16 6 100 17 37 33 87 37 111 5 41 3 47 -27 75 -19 17 -46 34 -62
37 -15 3 -28 11 -28 17 0 7 -3 7 -8 -1 -10 -16 -210 -78 -318 -98 -132 -25
-262 -18 -342 19 -34 16 -78 46 -97 67 -42 47 -70 133 -61 193 8 52 40 106 63
106 14 0 15 2 5 9 -10 6 -6 15 18 35 73 61 118 74 285 85 76 5 144 15 165 24
45 20 50 20 50 3z m325 -821 c0 -10 -6 -20 -12 -22 -8 -3 -13 5 -13 22 0 17 5
25 13 23 6 -3 12 -13 12 -23z m-65 -100 c0 -16 -27 -32 -37 -22 -3 4 -3 13 0
22 8 20 37 20 37 0z m-60 -109 c0 -8 -4 -17 -9 -21 -12 -7 -24 12 -16 25 9 15
25 12 25 -4z m-33 -111 c7 -20 -2 -29 -21 -22 -9 4 -13 13 -10 22 8 19 23 19
31 0z m33 -235 c0 -5 -5 -10 -11 -10 -5 0 -7 5 -4 10 3 6 8 10 11 10 2 0 4 -4
4 -10z"/>
<path d="M2713 4156 c3 -8 9 -31 13 -51 6 -36 7 -36 53 -33 42 3 46 5 44 28
-7 67 -10 70 -64 70 -40 0 -50 -3 -46 -14z m87 -15 c19 -37 12 -51 -25 -51
-32 0 -35 3 -35 29 0 42 41 56 60 22z"/>
<path d="M2668 4053 c-16 -2 -28 -6 -28 -8 0 -4 30 -72 36 -83 1 -2 21 2 44 8
31 8 40 15 36 27 -3 8 -9 26 -12 39 -6 24 -14 26 -76 17z m63 -34 c12 -24 0
-39 -33 -39 -19 0 -42 35 -33 50 11 18 54 11 66 -11z"/>
<path d="M2620 3929 c-13 -6 -26 -11 -28 -13 -3 -4 38 -76 43 -76 10 0 75 31
75 36 0 3 -8 19 -17 35 -18 31 -32 34 -73 18z m20 -18 c0 -5 10 -13 23 -17
l22 -7 -24 -11 c-19 -8 -26 -7 -37 8 -14 19 -11 36 7 36 5 0 9 -4 9 -9z"/>
<path d="M2593 3802 c-18 -8 -33 -18 -33 -21 0 -3 10 -19 23 -35 23 -28 23
-28 55 -12 38 20 39 23 9 58 -21 26 -23 26 -54 10z m47 -17 c10 -12 10 -18 0
-30 -16 -19 -34 -19 -51 1 -11 14 -10 18 6 30 24 18 30 18 45 -1z"/>
<path d="M2575 3665 l-30 -24 28 -28 27 -28 27 28 28 27 -25 25 -25 25 -30
-25z m39 -1 c19 -7 21 -28 3 -43 -10 -8 -19 -7 -32 3 -16 12 -17 16 -6 30 15
18 14 18 35 10z"/>
<path d="M2579 3534 l-24 -26 24 -19 c30 -24 33 -24 60 5 l22 24 -29 21 -29
20 -24 -25z m41 -29 c0 -17 -2 -18 -24 -9 -23 9 -20 24 4 24 11 0 20 -7 20
-15z"/>
<path d="M2982 3544 l-23 -16 20 -15 c16 -11 25 -11 42 -3 20 11 20 12 3 31
-20 23 -15 22 -42 3z m28 -14 c0 -5 -4 -10 -10 -10 -5 0 -10 5 -10 10 0 6 5
10 10 10 6 0 10 -4 10 -10z"/>
<path d="M2892 3528 c-14 -14 -16 -38 -3 -38 5 0 15 -2 23 -5 7 -3 19 4 26 16
12 18 12 23 0 30 -18 12 -32 11 -46 -3z m33 -18 c-3 -5 -10 -10 -16 -10 -5 0
-9 5 -9 10 0 6 7 10 16 10 8 0 12 -4 9 -10z"/>
<path d="M3060 3521 c0 -19 13 -41 24 -41 22 0 37 17 30 33 -6 18 -54 24 -54
8z"/>
<path d="M2806 3484 c-10 -26 -7 -31 20 -37 20 -3 27 1 35 20 12 33 13 33 -20
33 -17 0 -31 -6 -35 -16z m35 -17 c-13 -13 -26 -3 -16 12 3 6 11 8 17 5 6 -4
6 -10 -1 -17z"/>
<path d="M3138 3455 c3 -19 11 -25 29 -25 19 0 24 4 19 16 -3 9 -6 20 -6 25 0
5 -11 9 -24 9 -19 0 -22 -4 -18 -25z"/>
<path d="M2606 3398 c-15 -21 -15 -24 1 -35 27 -20 49 -15 62 13 14 31 14 30
-20 39 -21 5 -30 2 -43 -17z m47 -13 c1 -5 -6 -11 -15 -13 -11 -2 -18 3 -18
13 0 17 30 18 33 0z"/>
<path d="M3194 3395 c-7 -18 14 -47 27 -39 5 3 9 13 9 24 0 23 -29 35 -36 15z"/>
<path d="M3210 3304 c-9 -10 -10 -18 -2 -26 12 -12 32 -2 32 17 0 21 -16 26
-30 9z"/>
<path d="M2618 3283 c7 -3 16 -2 19 1 4 3 -2 6 -13 5 -11 0 -14 -3 -6 -6z"/>
<path d="M2660 3255 c0 -9 9 -15 21 -15 18 0 19 2 9 15 -7 8 -16 15 -21 15 -5
0 -9 -7 -9 -15z"/>
<path d="M3174 3219 c-3 -6 -2 -15 4 -21 13 -13 32 -2 32 18 0 16 -26 19 -36
3z"/>
<path d="M2711 3194 c0 -11 3 -14 6 -6 3 7 2 16 -1 19 -3 4 -6 -2 -5 -13z"/>
<path d="M2773 3203 c-7 -2 -13 -16 -13 -30 0 -20 4 -24 23 -21 16 2 23 11 25
31 3 27 -6 32 -35 20z"/>
<path d="M3115 3149 c-4 -6 -4 -13 -1 -16 8 -8 36 5 36 17 0 13 -27 13 -35 -1z"/>
<path d="M2888 3140 c-18 -11 -13 -50 6 -50 20 0 34 20 29 41 -6 21 -11 23
-35 9z"/>
<path d="M3030 3115 c0 -8 7 -15 15 -15 8 0 15 7 15 15 0 8 -7 15 -15 15 -8 0
-15 -7 -15 -15z"/>
<path d="M2428 3233 c7 -3 16 -2 19 1 4 3 -2 6 -13 5 -11 0 -14 -3 -6 -6z"/>
<path d="M2385 3219 c4 -5 -1 -19 -10 -29 -16 -17 -15 -19 10 -36 25 -16 27
-16 50 6 28 26 32 40 11 40 -7 0 -19 7 -26 15 -14 17 -45 21 -35 4z m45 -39
c0 -13 -7 -20 -19 -20 -22 0 -35 15 -26 30 12 19 45 11 45 -10z"/>
<path d="M2270 3188 l-21 -22 23 -18 c30 -23 41 -22 64 3 18 20 18 21 1 30
-10 6 -15 14 -12 20 12 19 -35 8 -55 -13z m53 -23 c-4 -15 -36 -12 -41 3 -3 9
3 13 19 10 13 -1 23 -7 22 -13z"/>
<path d="M2154 3169 l-32 -15 40 -18 c38 -16 41 -16 60 0 10 10 17 23 14 30
-3 7 3 14 12 17 9 2 -1 3 -23 3 -22 -1 -54 -8 -71 -17z m56 -14 c0 -8 -7 -15
-15 -15 -26 0 -18 20 13 29 1 1 2 -6 2 -14z"/>
<path d="M2060 3140 c-17 -5 -19 -8 -7 -9 13 -1 16 -7 11 -26 -6 -23 -3 -25
24 -25 24 0 31 5 36 27 10 39 -11 50 -64 33z m50 -30 c0 -5 -7 -10 -15 -10 -8
0 -15 5 -15 10 0 6 7 10 15 10 8 0 15 -4 15 -10z"/>
<path d="M2015 3057 c-13 -10 -16 -21 -11 -40 6 -24 9 -26 26 -15 12 8 20 24
20 40 0 31 -8 34 -35 15z"/>
<path d="M1990 2939 c-9 -17 -8 -23 7 -35 25 -18 31 -17 38 6 6 20 -9 50 -26
50 -5 0 -13 -9 -19 -21z"/>
<path d="M2762 2880 c0 -14 2 -19 5 -12 2 6 2 18 0 25 -3 6 -5 1 -5 -13z"/>
<path d="M2052 2843 c2 -10 14 -19 26 -21 19 -3 23 1 20 15 -2 10 -14 19 -26
21 -19 3 -23 -1 -20 -15z"/>
<path d="M2155 2810 c-4 -6 -1 -17 5 -25 9 -11 17 -12 32 -4 15 8 17 13 7 25
-14 16 -35 18 -44 4z"/>
<path d="M2265 2790 c-4 -7 -3 -16 2 -21 12 -12 45 0 40 15 -5 15 -34 19 -42
6z"/>
<path d="M2374 2789 c-8 -14 18 -31 30 -19 9 9 0 30 -14 30 -5 0 -12 -5 -16
-11z"/>
<path d="M2781 2754 c0 -11 3 -14 6 -6 3 7 2 16 -1 19 -3 4 -6 -2 -5 -13z"/>
<path d="M2792 2690 c0 -14 2 -19 5 -12 2 6 2 18 0 25 -3 6 -5 1 -5 -13z"/>
<path d="M2802 2630 c0 -14 2 -19 5 -12 2 6 2 18 0 25 -3 6 -5 1 -5 -13z"/>
<path d="M2862 2250 c0 -14 2 -19 5 -12 2 6 2 18 0 25 -3 6 -5 1 -5 -13z"/>
<path d="M2881 2134 c0 -11 3 -14 6 -6 3 7 2 16 -1 19 -3 4 -6 -2 -5 -13z"/>
<path d="M2666 2029 c-15 -22 -14 -24 6 -46 l22 -24 14 27 c13 24 12 28 -6 46
-19 20 -20 20 -36 -3z m34 -25 c0 -8 -7 -14 -15 -14 -15 0 -21 21 -9 33 10 9
24 -2 24 -19z"/>
<path d="M3130 1837 c0 -21 12 -28 27 -16 19 16 16 29 -7 29 -11 0 -20 -6 -20
-13z"/>
<path d="M2790 1817 c0 -30 13 -41 39 -32 13 4 17 12 14 25 -3 11 -9 20 -13
20 -5 0 -15 3 -24 6 -12 5 -16 0 -16 -19z"/>
<path d="M3026 1783 c-4 -8 -4 -19 0 -24 5 -9 34 -13 34 -5 0 2 3 11 6 19 3 9
-2 16 -15 20 -12 3 -22 -1 -25 -10z"/>
<path d="M2907 1779 c-14 -8 -16 -14 -6 -25 14 -17 35 -18 45 -3 11 18 -18 39
-39 28z"/>
</g>
</svg>
