<?xml version="1.0" standalone="no"?>
<!DOCTYPE svg PUBLIC "-//W3C//DTD SVG 20010904//EN"
 "http://www.w3.org/TR/2001/REC-SVG-20010904/DTD/svg10.dtd">
<svg version="1.0" xmlns="http://www.w3.org/2000/svg"
 width="515.000000pt" height="627.000000pt" viewBox="0 0 515.000000 627.000000"
 preserveAspectRatio="xMidYMid meet">

<g transform="translate(0.000000,627.000000) scale(0.100000,-0.100000)"
fill="#000000" stroke="none">
<path d="M2285 4684 c-141 -31 -245 -79 -323 -149 -80 -72 -112 -154 -112
-285 0 -56 2 -60 23 -60 51 0 60 -43 22 -105 -44 -71 -27 -135 35 -135 27 0
29 -2 24 -29 -7 -34 27 -106 62 -134 17 -13 24 -29 24 -53 0 -43 30 -74 70
-74 16 0 58 12 94 26 76 32 104 28 152 -20 38 -38 47 -87 42 -240 l-3 -100
-32 -8 c-36 -9 -38 -15 -48 -113 -4 -33 -13 -89 -22 -125 -8 -36 -15 -78 -15
-95 1 -16 -5 -55 -12 -85 -10 -43 -17 -55 -32 -55 -15 0 -20 8 -22 35 -1 19
-9 64 -17 100 -8 36 -13 79 -11 95 3 17 5 39 5 50 1 31 17 5 35 -57 9 -31 20
-59 25 -62 15 -10 -39 165 -75 241 -34 72 -34 73 -73 73 -32 0 -44 6 -70 35
-35 41 -35 41 -16 75 21 36 19 77 -4 90 -55 29 -140 -2 -181 -67 -15 -24 -40
-53 -54 -64 -32 -25 -51 -62 -59 -113 -3 -21 -14 -47 -24 -58 -25 -28 -30
-281 -7 -337 21 -48 19 -103 -5 -174 -19 -53 -19 -71 -12 -230 l8 -172 43 -78
c50 -93 89 -133 170 -176 37 -20 79 -54 112 -93 164 -188 178 -198 298 -198
41 0 82 5 90 10 18 11 14 12 -65 10 -107 -2 -181 37 -242 129 -51 76 -101 123
-170 160 -79 42 -122 88 -172 185 -42 79 -42 80 -42 190 0 61 -2 130 -6 154
-7 54 10 95 54 131 l34 28 -39 79 -40 79 0 132 c0 115 3 134 19 148 11 11 20
38 25 72 7 55 42 113 68 113 7 0 20 18 30 39 21 48 70 81 120 81 30 0 36 -3
36 -21 0 -12 -13 -44 -30 -70 -39 -63 -45 -92 -29 -132 21 -53 79 -127 100
-127 16 0 19 7 19 54 0 56 16 86 46 86 7 0 28 -28 45 -62 31 -61 32 -65 20
-121 -10 -50 -9 -65 9 -123 11 -36 20 -83 20 -105 0 -28 5 -41 19 -49 33 -17
51 -12 51 15 0 14 15 85 34 159 19 73 38 167 42 209 6 72 8 77 30 77 37 0 54
36 54 112 0 61 2 68 20 68 24 0 24 0 0 77 -22 72 -58 132 -95 161 -44 35 -78
36 -160 7 -97 -36 -125 -30 -125 25 0 32 -6 45 -31 67 -19 17 -28 34 -25 45 2
11 -3 22 -14 28 -14 8 -18 18 -13 43 6 38 -8 54 -52 59 -41 4 -43 29 -5 112
46 104 37 143 -30 129 l-33 -6 7 62 c9 81 29 144 60 191 34 51 127 111 233
150 113 41 183 42 272 6 94 -38 196 -63 286 -71 110 -9 150 -29 221 -111 32
-38 77 -85 98 -104 97 -86 135 -130 147 -168 6 -22 9 -48 6 -56 -9 -22 -63
-53 -124 -71 -29 -9 -53 -21 -53 -27 0 -21 59 -103 109 -152 34 -34 56 -66 67
-99 21 -63 39 -48 20 16 -10 34 -33 68 -80 118 -36 38 -66 73 -66 78 0 5 23
24 51 41 158 102 150 139 -80 371 -165 166 -193 184 -311 194 -93 8 -173 27
-270 64 -78 30 -141 42 -175 35z m-340 -495 c10 -29 -1 -35 -25 -14 -25 23
-25 35 -1 35 11 0 23 -9 26 -21z m1145 -174 c-27 -29 -53 -33 -48 -8 3 15 30
28 62 32 5 1 -1 -10 -14 -24z m-650 -481 c9 -26 9 -39 1 -47 -15 -15 -18 -9
-23 45 -6 54 5 55 22 2z m-386 -213 c30 -16 32 -24 11 -41 -10 -8 -15 -30 -15
-62 0 -41 -3 -49 -17 -46 -9 2 -30 22 -46 44 -37 53 -47 123 -22 160 l17 26
23 -34 c12 -18 34 -40 49 -47z m-303 -532 c12 -30 11 -33 -15 -56 -16 -13 -30
-22 -32 -20 -7 7 19 117 26 112 4 -3 13 -19 21 -36z"/>
<path d="M2190 4554 c-148 -50 -233 -124 -241 -209 -2 -23 5 -38 34 -66 46
-46 51 -92 18 -177 l-17 -44 33 -33 c18 -18 33 -44 33 -56 0 -13 7 -33 15 -43
8 -11 15 -28 15 -37 0 -14 27 -71 46 -98 2 -1 29 6 61 17 49 17 67 19 106 10
96 -20 170 -107 217 -257 25 -79 25 -112 1 -143 -11 -14 -23 -49 -27 -79 -6
-44 -14 -61 -44 -92 -32 -32 -38 -46 -43 -95 -4 -31 -18 -102 -33 -157 -15
-55 -29 -118 -31 -140 -7 -71 -13 -84 -45 -101 -40 -21 -89 -13 -135 22 -38
29 -67 85 -59 112 3 9 -5 55 -17 102 l-22 85 -36 1 c-20 1 -48 10 -62 20 -39
30 -94 110 -112 165 -21 61 -33 54 -44 -24 -4 -31 -14 -63 -22 -73 -16 -19
-23 -224 -8 -224 5 0 9 15 10 33 1 17 4 43 8 57 4 14 3 41 -2 61 -7 30 -5 41
16 72 17 25 23 44 19 63 -4 20 -2 25 8 19 7 -5 10 -18 6 -37 -3 -17 1 -59 9
-95 12 -51 13 -73 4 -102 -10 -34 -8 -43 26 -112 l37 -74 -39 38 c-62 59 -62
43 0 -22 36 -38 57 -68 57 -83 -1 -31 -33 -99 -58 -121 -18 -17 -25 -17 -57
-7 l-36 12 42 36 c32 29 41 44 42 72 1 35 -39 130 -55 130 -14 0 -9 -24 12
-55 11 -16 20 -46 20 -66 0 -31 -7 -42 -46 -74 -45 -37 -46 -40 -40 -79 4 -23
7 -90 6 -149 -1 -107 -1 -108 36 -174 43 -78 71 -106 138 -140 59 -30 126 -92
186 -172 57 -76 100 -101 171 -100 84 1 108 17 27 18 l-68 1 0 29 c0 28 3 30
53 36 84 12 99 25 21 18 l-71 -6 -48 64 c-78 104 -136 158 -212 201 -66 36
-75 45 -104 101 -31 61 -31 62 -24 167 7 97 10 108 36 138 16 18 35 53 41 78
l12 45 293 -293 c161 -161 293 -288 293 -283 0 6 -131 141 -290 300 l-291 290
-48 102 c-31 63 -47 110 -44 123 6 23 16 25 32 6 6 -8 25 -19 41 -26 33 -14
50 -53 50 -117 0 -113 120 -223 244 -223 70 0 102 12 149 58 39 38 57 83 57
144 0 20 9 65 20 100 11 34 25 97 31 138 9 51 20 83 35 100 30 34 51 78 60
125 4 22 15 53 25 69 44 72 25 199 -52 347 -69 133 -173 202 -304 203 -70 1
-70 1 -86 36 -61 129 -60 124 -49 179 14 75 -12 173 -54 202 -29 21 50 79 157
116 l68 23 57 -21 c139 -51 213 -71 301 -79 51 -6 100 -15 109 -22 33 -28 122
-148 122 -166 0 -10 -11 -33 -25 -52 -33 -45 -48 -103 -40 -157 6 -43 64 -139
126 -211 16 -18 29 -40 29 -50 0 -14 2 -15 10 -2 7 11 11 8 19 -15 17 -47 35
-78 48 -82 17 -6 -33 103 -64 140 -12 16 -23 41 -24 55 -1 25 -2 25 -7 5 -6
-20 -11 -17 -50 35 -73 99 -86 189 -36 261 13 18 18 20 25 10 6 -10 9 -8 9 7
0 39 23 48 87 32 l58 -14 -40 -13 c-22 -8 -52 -24 -66 -38 -20 -18 -28 -21
-32 -11 -3 7 -6 -15 -6 -50 -1 -44 5 -74 19 -102 11 -22 21 -50 21 -62 1 -17
2 -19 6 -5 4 14 18 3 68 -50 35 -37 64 -77 65 -88 0 -21 38 -90 45 -83 2 2 -6
31 -18 65 -15 41 -39 78 -73 115 -59 63 -100 129 -109 179 -9 51 28 94 101
115 61 17 69 26 55 52 -16 29 -171 166 -179 157 -4 -4 29 -40 73 -81 44 -40
75 -74 68 -74 -7 0 -35 5 -62 11 -37 8 -58 20 -81 45 -16 19 -30 42 -30 52 0
12 -3 13 -8 5 -5 -8 -22 5 -51 42 -47 59 -50 60 -179 69 -48 3 -113 19 -192
45 -65 23 -135 41 -155 41 -53 0 -173 -54 -222 -99 -41 -38 -79 -58 -90 -47
-10 10 7 54 33 85 32 38 170 107 245 123 51 11 62 9 115 -11 104 -39 210 -69
270 -75 140 -15 145 -17 185 -53 53 -48 63 -33 12 19 -40 40 -42 41 -139 50
-106 9 -202 33 -299 73 -76 31 -111 31 -205 -1z m-121 -243 c35 -49 47 -113
32 -172 -12 -47 -12 -55 9 -103 55 -123 53 -116 41 -158 -10 -33 -15 -37 -27
-27 -8 6 -14 17 -14 23 0 7 -9 28 -19 49 -10 20 -22 49 -26 64 -3 16 -17 40
-31 54 -24 25 -24 27 -9 62 22 52 19 123 -6 163 -11 19 -25 34 -30 34 -19 0
-8 17 19 27 39 16 39 16 61 -16z m836 -110 c3 -5 1 -12 -5 -16 -5 -3 -10 1
-10 9 0 18 6 21 15 7z m-539 -321 c69 -30 107 -62 146 -122 64 -98 113 -258
98 -320 -17 -71 -29 -81 -64 -55 -15 11 -16 17 -7 35 6 11 11 37 11 57 0 45
-42 173 -76 231 -61 103 -177 157 -282 131 -32 -9 -32 -9 -22 20 6 15 19 34
28 41 23 18 107 10 168 -18z m204 -545 c0 -25 -22 -82 -45 -117 l-26 -39 -29
17 -29 18 29 32 c18 21 31 50 35 77 7 44 7 44 36 34 16 -6 29 -16 29 -22z
m-643 -238 c22 -21 52 -41 67 -45 l27 -7 -21 -28 -21 -27 -38 19 c-48 25 -55
35 -71 96 -23 91 -23 92 -2 60 11 -16 37 -47 59 -68z m538 79 c18 -13 18 -18
6 -82 -6 -38 -21 -103 -33 -146 -19 -70 -23 -76 -50 -80 -16 -3 -30 -2 -32 1
-2 3 9 51 25 105 16 55 31 125 35 158 7 60 16 69 49 44z m-406 -201 c7 -30 14
-75 15 -99 3 -57 38 -109 92 -135 91 -46 175 -10 186 78 2 20 10 26 36 28 36
5 37 1 21 -60 -35 -138 -203 -172 -324 -65 -52 45 -71 91 -78 182 -4 62 -2 84
10 102 8 13 19 24 23 24 4 0 12 -25 19 -55z m-219 -380 c7 -4 8 -41 4 -108
l-7 -102 36 -65 c32 -57 45 -70 102 -103 81 -47 133 -93 193 -172 26 -33 53
-65 60 -71 10 -7 12 -20 7 -42 -3 -18 -9 -32 -11 -32 -17 0 -58 39 -92 88 -57
80 -116 134 -197 180 -65 36 -73 45 -114 118 l-44 79 6 104 c3 58 1 115 -3
127 -8 21 -7 22 20 14 16 -5 34 -11 40 -15z"/>
<path d="M2981 3674 c0 -11 3 -14 6 -6 3 7 2 16 -1 19 -3 4 -6 -2 -5 -13z"/>
<path d="M3066 3586 c7 -17 54 -51 54 -38 0 4 -7 18 -16 30 -17 24 -47 31 -38
8z"/>
<path d="M3035 3540 c23 -41 76 -120 81 -120 6 0 -64 111 -79 125 -7 7 -7 5
-2 -5z"/>
<path d="M3155 3354 c10 -17 26 -41 37 -55 l20 -24 -17 31 c-10 17 -26 41 -37
55 l-20 24 17 -31z"/>
<path d="M3279 3165 c5 -11 17 -29 26 -40 l16 -20 -10 20 c-5 11 -17 29 -26
40 l-16 20 10 -20z"/>
<path d="M3010 2584 c-373 -344 -468 -434 -385 -364 59 49 775 711 775 716 0
2 -1 4 -2 4 -2 -1 -176 -161 -388 -356z"/>
<path d="M2445 2003 c-11 -3 -24 -9 -30 -15 -13 -13 56 0 70 13 10 10 -5 10
-40 2z"/>
</g>
</svg>
