<?xml version="1.0" encoding="UTF-8" standalone="no"?>
<!-- Created with Inkscape (http://www.inkscape.org/) -->

<svg
   width="515mm"
   height="627mm"
   viewBox="0 0 515 627"
   version="1.1"
   id="svg1"
   xml:space="preserve"
   inkscape:version="1.4.2 (f4327f4, 2025-05-13)"
   sodipodi:docname="Steed.svg"
   xmlns:inkscape="http://www.inkscape.org/namespaces/inkscape"
   xmlns:sodipodi="http://sodipodi.sourceforge.net/DTD/sodipodi-0.dtd"
   xmlns="http://www.w3.org/2000/svg"
   xmlns:svg="http://www.w3.org/2000/svg"><sodipodi:namedview
     id="namedview1"
     pagecolor="#ffffff"
     bordercolor="#000000"
     borderopacity="0.25"
     inkscape:showpageshadow="2"
     inkscape:pageopacity="0.0"
     inkscape:pagecheckerboard="0"
     inkscape:deskcolor="#d1d1d1"
     inkscape:document-units="mm"
     inkscape:zoom="0.26124263"
     inkscape:cx="775.14147"
     inkscape:cy="2344.5637"
     inkscape:window-width="2560"
     inkscape:window-height="1369"
     inkscape:window-x="-8"
     inkscape:window-y="-8"
     inkscape:window-maximized="1"
     inkscape:current-layer="layer1" /><defs
     id="defs1"><marker
       style="overflow:visible"
       id="marker2"
       refX="0"
       refY="0"
       orient="auto-start-reverse"
       inkscape:stockid="Wide, heavy arrow"
       markerWidth="1"
       markerHeight="1"
       viewBox="0 0 1 1"
       inkscape:isstock="true"
       inkscape:collect="always"
       preserveAspectRatio="xMidYMid"><path
         style="fill:context-stroke;fill-rule:evenodd;stroke:none"
         d="m 1,0 -3,3 h -2 l 3,-3 -3,-3 h 2 z"
         id="path2" /></marker></defs><g
     inkscape:label="Layer 1"
     inkscape:groupmode="layer"
     id="layer1"><path
       style="fill:#000000;fill-opacity:1;stroke:none;stroke-width:9.88755;stroke-dasharray:none;stroke-opacity:1;marker-start:url(#marker2);paint-order:markers fill stroke"
       d="m 207.80257,260.45638 c 9.98362,-10.1543 3.83597,-25.76212 -10.60932,-27.3337 -10.43424,-1.13525 -18.46007,5.14029 -28.2915,6.99917 15.40871,-16.51922 -14.6347,-26.54163 -25.90931,-10.60931 -10.14637,14.33798 -3.49471,27.33333 -1.57176,42.43725 5.25604,41.2838 29.18555,78.17732 74.33887,80.45399 -0.0567,13.48883 -18.88502,17.2307 -23.87095,28.29148 l 24.75506,-21.21863 5.30466,23.87096 c -20.75407,-6.71454 -33.7482,30.26692 -12.37754,39.78493 -3.91062,12.08743 20.23979,32.94354 26.76887,22.76582 4.51022,-7.03062 -14.39133,-31.36705 -14.39133,-41.33212 30.6454,23.17716 27.23338,-28.69383 48.62604,-20.3345 -2.50601,3.94984 -10.51041,8.56705 -10.97769,13.26165 -0.85603,8.59989 20.24391,25.51257 27.77576,25.63915 0.0267,6.75838 18.90619,21.25428 25.07433,15.34912 11.29717,-10.81549 -17.90217,-34.9131 -25.95843,-37.45185 3.34746,-13.73617 15.5734,-26.47062 14.07209,-41.55316 -1.43879,-14.45439 -21.57116,-11.89365 -12.96695,-29.10193 3.9911,-7.98215 41.69153,-7.77815 45.99824,-0.85954 5.009,8.04684 -5.55022,21.02796 -5.55022,29.96147 -9.81133,0.0411 -21.35527,20.20779 -10.51108,23.55171 3.50966,1.08225 10.20105,-4.70235 13.1634,-6.40979 15.45418,-8.90762 24.8693,-35.7147 23.8464,-53.39038 -1.2543,-21.67465 -29.82307,-10.01306 -37.32908,-23.2079 -2.65741,-4.67147 4.70489,-13.60849 8.17803,-15.81573 14.58054,-9.26613 32.10221,-13.87424 46.85778,-22.86406 l -1.7682,-1.76823 c 19.22498,-12.75985 -5.86142,-17.12634 -17.6822,-15.84029 -14.9197,1.62324 -25.08072,17.71802 -38.90083,20.62925 -6.56645,1.38322 -34.87443,-22.58634 -37.1326,-28.65992 15.64418,-3.22085 20.31993,15.49889 30.94385,13.75285 17.31881,-2.8464 23.39743,-27.93016 3.53642,-31.43501 l 1.76823,3.53642 c -5.49699,1.9863 -7.43778,3.62478 -13.26164,0.8841 l 7.95699,-1.7682 0.88409,-4.42055 c -7.21403,1.03059 -11.56171,-7.46689 -17.68216,-9.94623 -5.60864,-2.27199 -10.70161,1.23503 -17.6822,-2.43132 4.43816,12.1411 19.25344,11.15271 29.17561,15.02987 v 0.8841 c -5.09404,2.14034 -19.20176,11.24003 -23.87096,11.00225 -14.14674,-0.7204 -11.26445,-17.47747 -7.07288,-24.26389 -8.14528,2.19036 -12.36452,-3.90483 -15.91398,-10.60932 9.50234,1.95635 21.20156,-1.69522 30.05975,2.89793 6.58065,3.4122 15.65053,17.17881 22.98682,15.66838 -5.19031,-8.18074 -24.6671,-31.12794 -33.59613,-34.45572 -22.97153,-8.56123 -40.549,18.27816 -43.86168,37.10804 -1.50629,8.56207 7.97924,37.52146 5.47658,41.35668 -2.34588,3.595 -23.10329,0.86228 -28.80725,1.96471 m 77.80166,-64.54002 c -8.00671,-0.84103 -10.52267,-7.15319 -17.6822,-9.3077 -12.05522,-3.62771 -23.99185,10.73322 -30.05975,19.03292 -2.4239,-6.31053 8.58479,-15.72565 13.26168,-18.71364 13.42912,-8.5797 28.12133,-7.2849 34.48027,8.98842 m -10.60931,-1.7682 -32.71208,9.72519 c 3.13865,-9.95993 26.98853,-25.11942 32.71208,-9.72519 m -19.45044,0.8841 -0.88409,0.8841 0.88409,-0.8841 m -2.65232,1.76823 11.49344,13.26165 c -6.57677,27.46085 28.58641,42.61613 45.06503,57.66358 4.53804,4.14394 11.08855,17.41167 3.56098,21.02218 v 0.8841 l 2.65233,-0.8841 -3.53643,14.14574 c 12.27105,1.49519 40.80052,8.69158 39.71125,23.87095 -0.43714,6.09176 -11.24925,47.35046 -19.30307,43.5424 -14.2363,-6.73132 16.07547,-36.64651 2.505,-44.6721 -7.47674,-4.42169 -44.32688,0.55142 -45.90003,-6.82728 h -0.8841 c -2.91367,4.62165 -10.12015,-5.61148 -8.84112,-9.72522 -6.52134,-3.75733 1.79049,-13.51753 7.95699,-12.37751 v -0.88413 l -1.7682,-1.7682 c 5.88384,0 8.58118,0.86075 13.26164,4.42053 l -1.76823,13.26164 c 7.63704,-5.12528 2.80497,-10.16867 4.42056,-16.79807 l -22.98686,-1.76823 -6.18875,21.21863 3.53642,-0.8841 11.49342,12.37755 c -15.72812,3.83288 -19.68788,19.22244 -30.94381,24.75505 4.5225,12.37203 -0.5146,50.89935 -15.02988,56.14095 -7.92804,2.86288 -15.39697,-3.7569 -22.10275,-6.63081 -0.45659,13.58367 4.20766,18.16185 7.95698,30.05972 C 195.64833,428.6119 203.6647,401.25424 211.339,383.34759 l 14.14577,5.30466 c -0.50898,-10.09469 -10.24625,-27.14915 -2.65234,-35.36437 l -3.53644,1.76823 -0.88411,-5.30466 c -16.09554,-0.81155 -39.60255,-2.52147 -46.8578,-19.45043 4.37374,0.02 25.89962,11.80514 22.34832,-3.53643 -1.17773,-5.08779 -7.93339,-8.25057 -6.43435,-13.26164 10.73132,6.37458 12.23956,21.37488 24.75506,25.02522 7.69925,2.2456 9.80937,-7.0512 13.60547,-11.76358 7.33693,-9.1079 16.16639,-16.2544 22.29921,-26.52328 2.45645,-4.11311 4.26524,-13.91912 8.30083,-15.91397 v -0.8841 c -2.46093,-1.41791 -14.22771,-24.30034 -13.26165,-27.40742 -5.37666,-1.08048 -7.20932,-10.27807 -8.27626,-15.02987 -3.6318,-16.17451 3.74704,-35.16174 18.00145,-44.20546 m 7.07288,3.53642 c 2.38324,3.55118 5.52834,4.84618 9.72522,5.30467 -0.12598,-5.8921 -4.69383,-6.00227 -9.72522,-5.30467 m -16.79807,55.69891 13.26165,15.02988 -8.84112,-17.68221 24.75509,-14.14574 v -0.88413 L 246.7034,252.4994 c -5.7326,-14.6705 -7.16672,-22.32822 -0.8841,-37.1326 5.5547,9.7207 9.69344,17.48989 21.21863,21.21863 v -0.88414 c -11.76952,-8.40685 -17.85355,-18.33216 -13.26164,-32.71204 -27.3319,7.12011 -10.21863,37.54815 -10.60932,53.04657 m 7.07286,-48.62601 -0.8841,7.95699 h -0.8841 c -1.878,-3.49192 -1.46188,-5.61208 1.7682,-7.95699 m 38.90083,1.7682 -2.65233,3.53646 v -0.88413 l 2.65233,-2.65233 m 2.65232,0 1.76823,3.53646 -1.76823,-3.53646 m -8.84108,0.88413 2.65233,2.65233 -2.65233,-2.65233 m -48.62604,6.18876 -0.8841,0.88409 0.8841,-0.88409 m -65.42411,19.45039 h -0.88411 c -5.00658,-18.61819 -23.10304,-6.5503 -24.68139,7.95699 -2.04169,18.76622 17.60852,27.54539 17.60852,42.43729 -20.04198,-6.98945 -28.59185,-43.61912 -12.30386,-58.13022 7.83722,-6.98223 23.75689,-5.26493 20.26084,7.73594 m 125.54356,-10.60931 c 5.70678,-1.22286 20.31893,6.60818 23.87096,10.60931 l 0.8841,-2.65232 h 1.76823 c 5.86239,21.80095 -35.12442,-13.90576 -10.60932,10.60931 v 0.88413 c -5.54822,3.52009 -16.5267,-9.74998 -24.75505,-12.37754 v -1.76823 l 4.42052,-1.7682 c -0.33281,-3.00934 4.42056,-6.95971 4.42056,-3.53646 m 19.4504,-1.7682 v 5.30466 l 2.65233,-2.65233 h 1.76823 l 0.8841,4.42053 c -3.44474,-0.92634 -13.78442,-3.73468 -5.30466,-7.07286 m -45.08958,1.7682 4.42056,6.18879 -0.8841,0.8841 h -1.76823 l -1.76823,-7.07289 m 21.21862,1.76823 v 0.8841 l 4.42056,-1.7682 -4.42056,0.8841 m -125.54355,3.53643 c -1.41129,4.73085 2.05507,6.85609 4.42055,10.60931 -8.85068,2.26846 -16.20856,11.24236 -19.4504,19.45043 -7.35947,-9.83435 -0.89206,-38.89037 15.02985,-30.05974 m 109.62958,1.76823 2.65233,3.53642 -2.65233,-3.53642 m -75.14931,22.10272 c 7.50562,2.08143 11.72895,-4.50306 6.11509,-10.58475 -7.68784,-8.32846 -19.47916,-5.1034 -26.25314,2.62777 -13.93219,15.90087 -1.41804,33.02427 -9.03756,49.51014 l -7.95698,-3.53643 c 1.86835,-15.33341 2.10547,-37.13971 14.17031,-48.55236 7.96753,-7.53686 31.21387,-12.98236 33.49792,3.46278 1.03596,7.45897 -9.83378,16.69251 -10.53564,7.07285 m 109.3349,-16.20866 -0.29473,0.58941 0.29473,-0.58941 m -131.43764,2.94702 -3.53643,2.65233 3.53643,-2.65233 m 12.37754,2.65233 -2.65233,-1.7682 2.65233,1.7682 m 15.02986,8.84112 c -6.7053,-2.00034 -10.43182,-4.59629 -14.14575,-10.60932 8.04951,0 14.107,1.38717 14.14575,10.60932 m -31.82794,-9.72522 -18.5663,26.52329 c -6.96499,-10.62609 8.90118,-24.16792 18.5663,-26.52329 m 10.60931,16.79807 c 15.24567,7.49469 3.5135,-11.15816 1.76822,-15.02984 22.64692,3.61589 -3.72617,27.57132 -1.76822,15.02984 m -0.88411,-13.85105 c 0.68375,0 0.14161,0.44018 -0.29469,0.29472 l 0.29469,-0.29472 m 178.59014,1.47354 c -3.81986,14.90383 -18.69943,14.21531 -28.29152,21.587 -4.72547,3.63162 -7.81093,10.79496 -13.26164,12.89327 -0.40376,-3.69605 -5.01147,-9.93045 -3.70835,-13.23708 3.85878,-9.79158 35.51881,-23.86304 45.26151,-21.24319 m -172.40137,10.60931 c -18.11115,-2.20683 -0.35797,20.43762 7.95698,1.7682 4.61179,2.59656 6.50499,1.91115 11.49343,0.88413 -3.50409,3.36484 -21.90373,24.69528 -24.77963,25.12346 -14.26931,2.12447 -9.67708,-29.68924 -3.29085,-35.61 5.04506,-4.67733 8.5553,3.98068 8.62007,7.83421 m 186.54711,-7.95698 c -3.50054,7.85971 -8.55629,11.9231 -16.79807,8.84108 3.10533,-8.59381 8.20459,-11.98241 16.79807,-8.84108 m -205.11341,-0.88413 -4.42055,4.42055 4.42055,-4.42055 m 28.2915,3.53646 -0.88411,6.18875 h -1.76822 v -6.18875 h 2.65233 m -32.71205,1.76819 -3.53643,22.10276 c -7.06036,-4.82404 -2.016,-17.66666 3.53643,-22.10276 m 190.96766,2.65233 -0.8841,0.88413 0.8841,-0.88413 m -116.70246,2.65233 c 3.41366,6.49962 13.49214,14.30443 11.49345,22.10276 l -3.53646,-0.8841 v 0.8841 c 7.29864,2.04758 1.11232,11.60789 -1.08058,15.91397 -6.80971,13.37175 -25.32865,24.00348 -28.97915,38.0167 -24.32502,-0.10225 -8.57381,-17.46016 -10.83034,-28.29148 -2.33258,-11.19642 -12.48697,-10.64978 -5.91862,-22.98686 4.3706,-8.20914 16.60581,-12.22069 19.40129,-19.45043 -13.33505,3.81003 -21.42685,13.50336 -25.63917,26.52332 l -7.07288,-3.53646 c 3.57927,-14.68734 22.95688,-31.35749 38.82714,-25.19711 3.65689,1.41951 14.61412,9.02641 8.03067,12.81959 l 0.88409,2.65233 -4.42052,0.8841 3.53643,-3.53643 -6.18876,-10.60934 h -7.07289 l 7.07289,5.30469 v 0.8841 l -2.65233,0.88409 v 0.88414 c 4.01787,1.78343 2.11682,5.09444 0,7.95698 7.61739,2.1764 9.04362,-1.43992 15.91397,-2.65233 v -0.88413 l -7.95698,-15.02987 6.18875,-2.65233 m 123.77534,4.42056 v 0.8841 l -38.90083,18.56633 c 3.69261,-14.40738 28.40697,-23.59505 38.90083,-19.45043 m -213.0704,-2.65233 v 1.76823 h -1.76821 v -1.76823 h 1.76821 m 5.30466,9.72522 -0.88411,0.88409 0.88411,-0.88409 m 68.66584,0.29472 0.58941,0.29472 -0.58941,-0.29472 m -80.15926,0.58941 1.76822,2.65233 c -1.98995,-0.4184 -2.75643,-0.7606 -1.76822,-2.65233 m 0.88411,3.53646 c 7.97717,12.91539 17.76603,18.34683 29.17561,27.40738 v 0.8841 l -3.53644,5.30466 c -9.3611,-2.39925 -32.12438,-22.34021 -25.63917,-33.59614 m 17.68219,2.65233 -0.88411,0.88409 0.88411,-0.88409 m 78.68575,0 v 0.88409 l 6.18876,1.76824 v -0.88414 l -6.18876,-1.76819 m 15.02988,6.18875 v 0.8841 l 22.10272,7.95699 v -0.8841 l -22.10272,-7.95699 m -80.45399,0.8841 -0.88411,3.53646 h -0.88411 v -3.53646 h 1.76822 m -19.45041,0.88413 3.53644,5.30466 c -2.53531,-0.98034 -4.56885,-2.56969 -3.53644,-5.30466 m 21.21863,0.8841 c 9.17291,4.47082 38.81117,19.29742 21.21862,31.82794 -7.57127,-12.01308 -8.16615,-20.55821 -23.87095,-25.63918 l 2.65233,-6.18876 m 123.77535,7.07289 v 0.8841 l 11.49341,-4.42056 -11.49341,3.53646 m -106.09317,-1.76823 v 1.76823 h -1.76822 v -1.76823 h 1.76822 m -21.21862,0.8841 -0.88411,0.88413 0.88411,-0.88413 m 4.42054,4.42055 c -2.37998,3.01044 -4.16818,2.05978 -6.18876,-0.88409 l 6.18876,0.88409 m 109.33489,-0.58941 0.58941,0.29473 -0.58941,-0.29473 m -99.60968,6.77817 -4.2732,7.07289 c -13.56149,23.34089 -13.80346,-21.42788 4.2732,-7.07289 m 101.67259,-3.53643 -10.60931,7.95699 v 0.8841 c 2.81413,-0.98137 11.72227,-5.74965 10.60931,-8.84109 m -133.79523,1.47351 -0.29469,0.58941 0.29469,-0.58941 m 135.56346,0.29472 -2.65232,16.79807 h 0.88409 l 1.76823,-16.79807 m -134.38465,2.65233 c 5.59562,4.51412 8.73754,12.27663 15.02986,15.42277 4.91135,2.45568 12.78322,-0.79521 15.02986,4.91173 -9.66257,1.01498 -40.14907,-1.97922 -30.05972,-20.3345 m 33.59616,2.65233 v 3.53643 h -0.88411 l 0.88411,-3.53643 m -23.87096,2.65233 3.53644,2.65233 -4.42055,-1.76823 0.88411,-0.8841 m 1.76822,2.65233 1.76822,4.42052 h -0.88411 l -0.88411,-4.42052 m 71.61286,23.87095 v 0.8841 c 4.21345,1.36317 6.98701,2.92734 8.84112,7.07289 l -7.07289,-5.30466 -0.8841,0.8841 c 10.36639,17.87828 6.49838,27.83774 4.42056,46.85781 h 0.8841 c 4.9968,-11.65921 10.59845,-25.29019 5.30466,-38.01673 l 4.42056,1.76823 v -0.88409 c -5.20893,-3.87332 -5.42613,-11.50134 -12.37755,-12.37755 5.91686,-8.85565 19.60347,-15.89699 28.29152,-22.10272 -6.61306,-2.0146 -25.19664,17.70793 -31.82798,21.21862 m -56.583,-21.21862 v 3.53642 l -4.42055,0.8841 v -0.8841 l 4.42055,-3.53642 m 108.74547,9.72518 -2.65233,-1.7682 2.65233,1.7682 m -101.67259,1.76823 c -0.46579,6.49353 -5.88223,5.76094 -10.60932,3.53642 l 10.60932,-3.53642 m -19.45041,0.8841 -0.88411,1.76823 h -0.88411 l -0.88411,-1.76823 h 2.65233 m 7.07287,0.88413 -0.8841,0.8841 0.8841,-0.8841 m 107.86138,0.8841 -2.65233,14.14574 -15.91397,-3.53643 c 3.8533,-5.40991 12.35078,-8.59842 18.5663,-10.60931 m -49.51015,10.60931 -14.14575,13.26164 c 3.64995,-2.25438 14.14575,-9.06991 14.14575,-13.26164 m 45.97372,9.72522 h 0.8841 c 3.30021,-5.57619 12.94503,5.51971 13.23708,9.72518 0.83718,12.05529 -6.24392,26.22128 -12.35298,36.2485 h -0.8841 v -5.30466 h -0.8841 l 0.8841,14.14574 c 6.18157,-1.27268 16.54488,8.61594 18.5663,14.14578 l -15.02987,2.65233 h -0.8841 c -17.84026,-14.05957 -28.59249,-19.14947 -10.60932,-37.1326 -6.54005,-2.8029 -30.62386,-25.3439 -12.37754,-29.17562 -9.13393,-14.39659 17.59228,-14.50672 19.45043,-5.30465 m -35.3644,-4.42056 c 3.86429,2.91754 4.18605,8.61018 4.42056,13.26164 h -0.8841 l -3.53646,-13.26164 m 34.48027,4.42056 v 4.42052 h 0.88413 l -0.88413,-4.42052 m -18.5663,5.30465 v 0.8841 l 15.02987,9.72522 -15.02987,-10.60932 m 17.6822,0 v 3.53643 h 0.8841 l -0.8841,-3.53643 m -0.58941,5.00994 0.29472,0.58941 -0.29472,-0.58941 m 45.679,2.94705 3.53642,10.60931 -11.49341,6.18876 c 0,-7.52556 -2.03559,-16.63013 7.95699,-16.79807 m -46.85782,6.18875 0.88413,0.8841 -0.88413,-0.8841 m 0.88413,2.65233 1.7682,18.5663 h 0.88413 l -2.65233,-18.5663 m 4.42053,32.71204 0.88413,8.84112 h 0.8841 l -1.76823,-8.84112 m 25.63918,31.82794 c -6.86872,-2.59742 -19.42236,-4.94708 -20.33453,-13.26164 12.31804,3.31241 20.02738,-5.01454 20.33453,13.26164 m -98.13617,-10.60931 c 8.31754,7.44386 19.85554,6.08891 21.21865,18.5663 -7.31986,-1.41476 -29.3391,-7.99571 -21.21865,-18.5663 z"
       id="path1" /></g></svg>
