<?xml version="1.0" encoding="UTF-8" standalone="no"?>
<!-- Created with Inkscape (http://www.inkscape.org/) -->

<svg
   width="210mm"
   height="297mm"
   viewBox="0 0 210 297"
   version="1.1"
   id="svg1"
   xml:space="preserve"
   inkscape:version="1.3.2 (091e20e, 2023-11-25, custom)"
   sodipodi:docname="steed.svg"
   xmlns:inkscape="http://www.inkscape.org/namespaces/inkscape"
   xmlns:sodipodi="http://sodipodi.sourceforge.net/DTD/sodipodi-0.dtd"
   xmlns="http://www.w3.org/2000/svg"
   xmlns:svg="http://www.w3.org/2000/svg"><sodipodi:namedview
     id="namedview1"
     pagecolor="#ffffff"
     bordercolor="#000000"
     borderopacity="0.25"
     inkscape:showpageshadow="2"
     inkscape:pageopacity="0.0"
     inkscape:pagecheckerboard="0"
     inkscape:deskcolor="#d1d1d1"
     inkscape:document-units="mm"
     inkscape:zoom="2.955623"
     inkscape:cx="424.61437"
     inkscape:cy="515.11982"
     inkscape:window-width="2560"
     inkscape:window-height="1369"
     inkscape:window-x="-8"
     inkscape:window-y="-8"
     inkscape:window-maximized="1"
     inkscape:current-layer="layer1" /><defs
     id="defs1"><marker
       style="overflow:visible"
       id="marker2"
       refX="0"
       refY="0"
       orient="auto-start-reverse"
       inkscape:stockid="Wide, heavy arrow"
       markerWidth="1"
       markerHeight="1"
       viewBox="0 0 1 1"
       inkscape:isstock="true"
       inkscape:collect="always"
       preserveAspectRatio="xMidYMid"><path
         style="fill:context-stroke;fill-rule:evenodd;stroke:none"
         d="m 1,0 -3,3 h -2 l 3,-3 -3,-3 h 2 z"
         id="path2" /></marker></defs><g
     inkscape:label="Layer 1"
     inkscape:groupmode="layer"
     id="layer1"><path
       style="fill:#000000;stroke:none;fill-opacity:1;stroke-width:2.959;stroke-dasharray:none;marker-start:url(#marker2);paint-order:markers fill stroke;stroke-opacity:1"
       d="m 95.413339,117.74995 c 2.987751,-3.03883 1.147973,-7.70971 -3.175,-8.18003 -3.122607,-0.33974 -5.524459,1.53831 -8.466667,2.09461 4.611292,-4.94363 -4.37966,-7.94299 -7.753761,-3.175 -3.036454,4.29086 -1.045844,8.17992 -0.470371,12.7 1.572951,12.35481 8.734224,23.39576 22.247049,24.07709 -0.01696,4.03674 -5.651634,5.15655 -7.14375,8.46666 l 7.408333,-6.35 1.5875,7.14375 c -6.210974,-2.00943 -10.099666,9.05784 -3.704167,11.90625 -1.170315,3.61735 6.057065,9.85886 8.010995,6.81302 1.34975,-2.10402 -4.306828,-9.38707 -4.306828,-12.36927 9.171108,6.93612 8.150008,-8.58707 14.552088,-6.08541 -0.74996,1.18205 -3.1454,2.56382 -3.28524,3.96875 -0.25618,2.57365 6.0583,7.63503 8.31232,7.67291 0.008,2.02255 5.65797,6.36067 7.50388,4.59346 3.38085,-3.2367 -5.3575,-10.44828 -7.76846,-11.20804 1.00178,-4.11076 4.66058,-7.92174 4.21129,-12.43542 -0.43058,-4.3257 -6.4555,-3.55936 -3.88056,-8.7092 1.1944,-2.38878 12.47683,-2.32773 13.76568,-0.25723 1.49902,2.40814 -1.66099,6.29294 -1.66099,8.96643 -2.93619,0.0123 -6.39089,6.04749 -3.1456,7.04821 1.05032,0.32388 3.05282,-1.40725 3.93935,-1.91823 4.6249,-2.66574 7.44252,-10.68817 7.1364,-15.97789 -0.37537,-6.48647 -8.92501,-2.99656 -11.1713,-6.94532 -0.79527,-1.39801 1.40801,-4.07255 2.4474,-4.7331 4.36345,-2.77303 9.60708,-4.15208 14.02291,-6.84242 l -0.52916,-0.52917 c 5.75337,-3.81858 -1.75412,-5.12532 -5.29167,-4.74045 -4.46495,0.48578 -7.50579,5.30239 -11.64167,6.17362 -1.96511,0.41395 -10.43671,-6.75931 -11.1125,-8.57692 4.68176,-0.96389 6.08105,4.63828 9.26042,4.11575 5.18292,-0.85183 7.00204,-8.35853 1.05833,-9.40741 l 0.52917,1.05833 c -1.64506,0.59443 -2.22587,1.08477 -3.96875,0.26458 l 2.38125,-0.52916 0.26458,-1.32292 c -2.15891,0.30842 -3.46002,-2.23458 -5.29166,-2.97656 -1.67847,-0.67993 -3.20262,0.3696 -5.29167,-0.72761 1.32819,3.63341 5.76189,3.33762 8.73125,4.49792 v 0.26458 c -1.52447,0.64053 -5.74642,3.36375 -7.14375,3.29259 -4.23363,-0.21559 -3.37106,-5.2304 -2.11667,-7.26134 -2.4376,0.6555 -3.70027,-1.16858 -4.7625,-3.175003 2.84372,0.58547 6.34489,-0.50732 8.99584,0.86725 1.96936,1.021153 4.68366,5.141023 6.87916,4.689003 -1.55328,-2.44821 -7.38201,-9.315513 -10.05416,-10.311403 -6.87458,-2.56208 -12.13491,5.47002 -13.12628,11.105153 -0.45078,2.56233 2.38791,11.22887 1.63895,12.37662 -0.70204,1.07586 -6.914012,0.25805 -8.621011,0.58797 M 118.69668,98.435357 c -2.39613,-0.25169 -3.14907,-2.1407 -5.29167,-2.78547 -3.60771,-1.08565 -7.17993,3.21208 -8.99584,5.695893 -0.72539,-1.888523 2.56913,-4.706143 3.96876,-5.600343 4.01887,-2.56761 8.41574,-2.18012 10.31875,2.68992 m -3.175,-0.52916 -9.78959,2.910413 c 0.93929,-2.980663 8.07673,-7.517373 9.78959,-2.910413 m -5.82084,0.26458 -0.26458,0.26458 0.26458,-0.26458 m -0.79375,0.52917 3.43959,3.968753 c -1.9682,8.21808 8.55492,12.75353 13.4864,17.25671 1.35808,1.24014 3.31842,5.21071 1.06568,6.29121 v 0.26458 l 0.79375,-0.26458 -1.05833,4.23333 c 3.6723,0.44746 12.21018,2.60109 11.8842,7.14375 -0.13082,1.82305 -3.36651,14.17035 -5.77674,13.03073 -4.26043,-2.01445 4.81083,-10.96703 0.74966,-13.36881 -2.23753,-1.32326 -13.2655,0.16502 -13.73629,-2.04317 h -0.26458 c -0.87196,1.3831 -3.02861,-1.67932 -2.64584,-2.91042 -1.95161,-1.12444 0.53583,-4.04533 2.38125,-3.70416 v -0.26459 l -0.52916,-0.52916 c 1.76083,0 2.56805,0.25759 3.96875,1.32291 l -0.52917,3.96875 c 2.2855,-1.53382 0.83943,-3.04313 1.32292,-5.02708 l -6.87917,-0.52917 -1.85208,6.35 1.05833,-0.26458 3.43958,3.70417 c -4.70688,1.14705 -5.8919,5.75261 -9.26041,7.40833 1.35343,3.70252 -0.154,15.23241 -4.49792,16.80104 -2.37259,0.85676 -4.60778,-1.12431 -6.614588,-1.98437 -0.136642,4.06512 1.259208,5.43521 2.381248,8.99583 -9.458174,-0.47688 -7.059152,-8.66408 -4.762498,-14.02292 l 4.233338,1.5875 c -0.15232,-3.02099 -3.066347,-8.1248 -0.793755,-10.58333 l -1.058333,0.52917 -0.264583,-1.5875 c -4.816837,-0.24287 -11.851671,-0.75459 -14.022917,-5.82084 1.308909,0.006 7.750859,3.53287 6.688079,-1.05833 -0.352455,-1.5226 -2.37419,-2.46911 -1.925579,-3.96875 3.211513,1.90769 3.662878,6.39676 7.408333,7.48918 2.304119,0.67203 2.935603,-2.11018 4.071645,-3.52043 2.19569,-2.72568 4.83804,-4.86438 6.67338,-7.9375 0.73513,-1.23091 1.27644,-4.16551 2.48415,-4.7625 v -0.26458 c -0.73647,-0.42433 -4.25786,-7.27225 -3.96875,-8.20209 -1.60905,-0.32335 -2.1575,-3.07587 -2.4768,-4.49792 -1.08687,-4.84047 1.12136,-10.52269 5.38721,-13.229163 m 2.11667,1.05833 c 0.71322,1.062743 1.65444,1.450293 2.91042,1.587503 -0.0377,-1.763303 -1.4047,-1.796273 -2.91042,-1.587503 m -5.02708,16.668753 3.96875,4.49792 -2.64584,-5.29167 7.40834,-4.23333 v -0.26459 l -7.67292,4.23334 c -1.71557,-4.39037 -2.14475,-6.68206 -0.26458,-11.1125 1.66233,2.90907 2.90091,5.23412 6.35,6.35 v -0.26459 c -3.52221,-2.51588 -5.34295,-5.48618 -3.96875,-9.78958 -8.17949,2.1308 -3.05808,11.23686 -3.175,15.875 m 2.11666,-14.55208 -0.26458,2.38125 h -0.26458 c -0.56202,-1.04501 -0.43749,-1.6795 0.52916,-2.38125 m 11.64167,0.52916 -0.79375,1.05834 v -0.26459 l 0.79375,-0.79375 m 0.79375,0 0.52917,1.05834 -0.52917,-1.05834 m -2.64583,0.26459 0.79375,0.79375 -0.79375,-0.79375 m -14.55209,1.85208 -0.26458,0.26458 0.26458,-0.26458 m -19.579168,5.82083 h -0.264583 c -1.498298,-5.57178 -6.913941,-1.96028 -7.386285,2.38125 -0.611008,5.61608 5.269618,8.24338 5.269618,12.70001 -5.997868,-2.0917 -8.556548,-13.05369 -3.682118,-17.39636 2.345407,-2.08954 7.109614,-1.57561 6.063368,2.3151 m 37.570838,-3.175 c 1.70784,-0.36596 6.08075,1.9776 7.14375,3.175 l 0.26458,-0.79375 h 0.52917 c 1.75441,6.52427 -10.51152,-4.16151 -3.175,3.175 v 0.26459 c -1.66039,1.05344 -4.94587,-2.91783 -7.40833,-3.70417 v -0.52917 l 1.32291,-0.52916 c -0.0996,-0.90059 1.32292,-2.0828 1.32292,-1.05834 m 5.82083,-0.52916 v 1.5875 l 0.79375,-0.79375 h 0.52917 l 0.26458,1.32291 c -1.03089,-0.27722 -4.1252,-1.11766 -1.5875,-2.11666 m -13.49375,0.52916 1.32292,1.85209 -0.26458,0.26458 h -0.52917 l -0.52917,-2.11667 m 6.35,0.52917 v 0.26458 l 1.32292,-0.52916 -1.32292,0.26458 m -37.570834,1.05833 c -0.422354,1.41578 0.61501,2.05179 1.322916,3.175 -2.648703,0.67887 -4.850662,3.36445 -5.820833,5.82084 -2.202432,-2.94308 -0.26696,-11.63854 4.497917,-8.99584 m 32.808334,0.52917 0.79375,1.05833 -0.79375,-1.05833 m -22.489585,6.61458 c 2.246173,0.6229 3.510069,-1.34761 1.830034,-3.16765 -2.300703,-2.49242 -5.829438,-1.52727 -7.856654,0.7864 -4.169421,4.75858 -0.424371,9.88302 -2.704629,14.81667 l -2.38125,-1.05833 c 0.559134,-4.58876 0.630097,-11.11463 4.240683,-14.53004 2.384407,-2.25552 9.341231,-3.88517 10.024767,1.03629 0.310028,2.23221 -2.942908,4.99549 -3.152951,2.11666 m 32.720145,-4.85069 -0.0882,0.17639 0.0882,-0.17639 m -39.334728,0.88194 -1.058333,0.79375 1.058333,-0.79375 m 3.704167,0.79375 -0.79375,-0.52916 0.79375,0.52916 m 4.497916,2.64584 c -2.006662,-0.59863 -3.12188,-1.37551 -4.233333,-3.175 2.408941,0 4.221736,0.41513 4.233333,3.175 m -9.524999,-2.91042 -5.55625,7.9375 c -2.084382,-3.18002 2.663813,-7.23262 5.55625,-7.9375 m 3.174999,5.02708 c 4.5625,2.2429 1.051468,-3.33925 0.529167,-4.49791 6.777437,1.08211 -1.115113,8.25114 -0.529167,4.49791 m -0.264583,-4.14514 c 0.204623,0 0.04238,0.13173 -0.08819,0.0882 l 0.08819,-0.0882 m 53.445838,0.44098 c -1.14315,4.4602 -5.59609,4.25415 -8.46667,6.46024 -1.41417,1.08682 -2.33754,3.23056 -3.96875,3.85851 -0.12083,-1.1061 -1.49976,-2.97184 -1.10978,-3.9614 1.1548,-2.93028 10.62955,-7.14138 13.5452,-6.35735 m -51.593755,3.175 c -5.420038,-0.66043 -0.107127,6.11627 2.38125,0.52916 1.380147,0.77706 1.946718,0.57194 3.439584,0.26459 -1.048652,1.00698 -6.555026,7.39044 -7.415683,7.51858 -4.270312,0.63578 -2.896014,-8.88496 -0.984838,-10.65684 1.50981,-1.39976 2.560306,1.19128 2.579687,2.34451 m 55.827085,-2.38125 c -1.04759,2.35214 -2.5606,3.56817 -5.02708,2.64583 0.92932,-2.57183 2.45535,-3.58592 5.02708,-2.64583 m -61.383334,-0.26459 -1.322917,1.32292 1.322917,-1.32292 m 8.466666,1.05834 -0.264583,1.85208 h -0.529167 v -1.85208 h 0.79375 m -9.789583,0.52916 -1.058333,6.61459 c -2.112921,-1.44367 -0.60332,-5.28702 1.058333,-6.61459 m 57.150001,0.79375 -0.26458,0.26459 0.26458,-0.26459 m -34.925,0.79375 c 1.02159,1.94511 4.03773,4.28082 3.43959,6.61459 l -1.05834,-0.26458 v 0.26458 c 2.18423,0.61277 0.33288,3.47384 -0.32338,4.7625 -2.03791,4.0017 -7.579987,7.18341 -8.672455,11.37708 -7.279634,-0.0306 -2.565844,-5.22522 -3.241146,-8.46666 -0.698061,-3.3507 -3.736916,-3.18711 -1.771237,-6.87917 1.30797,-2.45671 4.969542,-3.65723 5.806133,-5.82084 -3.990718,1.14021 -6.412312,4.04109 -7.672916,7.93751 l -2.116667,-1.05834 c 1.071151,-4.39541 6.8702,-9.38421 11.619618,-7.54062 1.09438,0.42481 4.3735,2.70129 2.4033,3.83646 l 0.26458,0.79375 -1.32291,0.26458 1.05833,-1.05833 -1.85208,-3.17501 h -2.116671 l 2.116671,1.58751 v 0.26458 l -0.79375,0.26458 v 0.26459 c 1.20241,0.53372 0.63349,1.52459 0,2.38125 2.27962,0.65132 2.70644,-0.43092 4.7625,-0.79375 v -0.26459 l -2.38125,-4.49792 1.85208,-0.79375 m 37.04167,1.32292 v 0.26458 l -11.64167,5.55626 c 1.10507,-4.31163 8.50122,-7.06118 11.64167,-5.82084 m -63.764588,-0.79375 v 0.52917 h -0.529166 v -0.52917 h 0.529166 m 1.5875,2.91042 -0.264583,0.26458 0.264583,-0.26458 m 20.549308,0.0882 0.17639,0.0882 -0.17639,-0.0882 m -23.988891,0.17639 0.529167,0.79375 c -0.595523,-0.12521 -0.824903,-0.22762 -0.529167,-0.79375 m 0.264583,1.05834 c 2.387291,3.86513 5.316757,5.49057 8.73125,8.20208 v 0.26458 l -1.058333,1.5875 c -2.801455,-0.71801 -9.613715,-6.68565 -7.672917,-10.05416 m 5.291667,0.79375 -0.264583,0.26458 0.264583,-0.26458 m 23.547921,0 v 0.26458 l 1.85208,0.52917 v -0.26459 l -1.85208,-0.52916 m 4.49792,1.85208 v 0.26458 l 6.61458,2.38125 v -0.26458 l -6.61458,-2.38125 m -24.077091,0.26458 -0.264583,1.05834 h -0.264584 v -1.05834 h 0.529167 m -5.820833,0.26459 1.058333,1.5875 c -0.758729,-0.29338 -1.367298,-0.76902 -1.058333,-1.5875 m 6.35,0.26458 c 2.745134,1.33796 11.614839,5.77505 6.349999,9.525 -2.265818,-3.5951 -2.443847,-6.15236 -7.143749,-7.67292 l 0.79375,-1.85208 m 37.041674,2.11667 v 0.26458 l 3.43958,-1.32292 -3.43958,1.05834 m -31.750008,-0.52917 v 0.52917 h -0.529167 v -0.52917 h 0.529167 m -6.35,0.26458 -0.264583,0.26459 0.264583,-0.26459 m 1.322917,1.32292 c -0.712246,0.90092 -1.247393,0.61642 -1.852083,-0.26458 l 1.852083,0.26458 m 32.720141,-0.17639 0.17639,0.0882 -0.17639,-0.0882 m -29.809725,2.02847 -1.278819,2.11667 c -4.058484,6.98512 -4.130898,-6.41262 1.278819,-2.11667 m 30.427085,-1.05833 -3.175,2.38125 v 0.26458 c 0.84217,-0.29369 3.50807,-1.72067 3.175,-2.64583 m -40.040279,0.44097 -0.08819,0.17639 0.08819,-0.17639 m 40.569449,0.0882 -0.79375,5.02708 h 0.26458 l 0.52917,-5.02708 m -40.216671,0.79375 c 1.674576,1.35092 2.614843,3.67397 4.497917,4.6155 1.469797,0.7349 3.825576,-0.23798 4.497916,1.46991 -2.891671,0.30375 -12.015225,-0.59231 -8.995833,-6.08541 m 10.054166,0.79375 v 1.05833 h -0.264583 l 0.264583,-1.05833 m -7.143749,0.79375 1.058333,0.79375 -1.322917,-0.52917 0.264584,-0.26458 m 0.529166,0.79375 0.529167,1.32291 h -0.264583 l -0.264584,-1.32291 m 21.431248,7.14375 v 0.26458 c 1.26094,0.40795 2.09097,0.87605 2.64584,2.11667 l -2.11667,-1.5875 -0.26458,0.26458 c 3.1023,5.35035 1.94474,8.33087 1.32292,14.02292 h 0.26458 c 1.49537,-3.4892 3.17175,-7.56848 1.5875,-11.37709 l 1.32292,0.52917 v -0.26458 c -1.55885,-1.15915 -1.62385,-3.44195 -3.70417,-3.70417 1.77071,-2.65019 5.86664,-4.75742 8.46667,-6.61458 -1.97906,-0.6029 -7.54048,5.29937 -9.52501,6.35 m -16.933331,-6.35 v 1.05833 l -1.322917,0.26458 v -0.26458 l 1.322917,-1.05833 m 32.543751,2.91041 -0.79375,-0.52916 0.79375,0.52916 m -30.427085,0.52917 c -0.139393,1.94329 -1.760345,1.72405 -3.175,1.05833 l 3.175,-1.05833 m -5.820833,0.26458 -0.264583,0.52917 h -0.264583 l -0.264584,-0.52917 h 0.79375 m 2.116667,0.26459 -0.264583,0.26458 0.264583,-0.26458 m 32.279171,0.26458 -0.79375,4.23333 -4.7625,-1.05833 c 1.15316,-1.619 3.69616,-2.57321 5.55625,-3.175 m -14.81667,3.175 -4.233335,3.96875 c 1.092305,-0.67466 4.233335,-2.71431 4.233335,-3.96875 m 13.75834,2.91042 h 0.26458 c 0.98764,-1.66876 3.874,1.65186 3.9614,2.91041 0.25054,3.60773 -1.86859,7.84712 -3.69682,10.84792 h -0.26458 v -1.5875 h -0.26458 l 0.26458,4.23333 c 1.84993,-0.38087 4.95131,2.57845 5.55625,4.23334 l -4.49792,0.79375 h -0.26458 c -5.33897,-4.20754 -8.55674,-5.73077 -3.175,-11.1125 -1.95721,-0.83881 -9.16466,-7.58455 -3.70417,-8.73125 -2.73347,-4.3084 5.26476,-4.34136 5.82084,-1.5875 m -10.58334,-1.32292 c 1.15645,0.87312 1.25274,2.57673 1.32292,3.96875 h -0.26458 l -1.05834,-3.96875 m 10.31875,1.32292 v 1.32291 h 0.26459 l -0.26459,-1.32291 m -5.55625,1.5875 v 0.26458 l 4.49792,2.91042 -4.49792,-3.175 m 5.29167,0 v 1.05833 h 0.26458 l -0.26458,-1.05833 m -0.17639,1.4993 0.0882,0.17639 -0.0882,-0.17639 m 13.67014,0.88195 1.05833,3.175 -3.43958,1.85208 c 0,-2.25214 -0.60918,-4.97682 2.38125,-5.02708 m -14.02292,1.85208 0.26459,0.26458 -0.26459,-0.26458 m 0.26459,0.79375 0.52916,5.55625 h 0.26459 l -0.79375,-5.55625 m 1.32291,9.78958 0.26459,2.64584 h 0.26458 l -0.52917,-2.64584 m 7.67292,9.525 c -2.05557,-0.77732 -5.81244,-1.48049 -6.08542,-3.96875 3.68636,0.99129 5.9935,-1.50068 6.08542,3.96875 m -29.368755,-3.175 c 2.489151,2.22769 5.942075,1.8222 6.350005,5.55625 -2.19058,-0.42339 -8.780176,-2.39284 -6.350005,-5.55625 z"
       id="path1" /></g></svg>
