<?xml version="1.0" standalone="no"?>
<!DOCTYPE svg PUBLIC "-//W3C//DTD SVG 20010904//EN"
 "http://www.w3.org/TR/2001/REC-SVG-20010904/DTD/svg10.dtd">
<svg version="1.0" xmlns="http://www.w3.org/2000/svg"
 width="515.000000pt" height="627.000000pt" viewBox="0 0 515.000000 627.000000"
 preserveAspectRatio="xMidYMid meet">

<g transform="translate(0.000000,627.000000) scale(0.100000,-0.100000)"
fill="#000000" stroke="none">
<path d="M2703 4737 c-80 -25 -84 -28 -103 -76 -7 -18 -42 -61 -76 -95 l-63
-61 6 -232 6 -233 -46 0 -45 0 44 -110 c33 -83 44 -123 44 -164 0 -30 5 -58
10 -61 6 -4 10 19 10 63 0 68 -30 174 -65 228 -12 19 -11 21 13 21 74 -1 102
4 102 17 0 9 -8 12 -24 9 l-25 -5 0 231 0 231 59 52 c35 32 65 70 75 94 15 39
20 42 87 62 l71 21 82 -39 82 -38 13 -83 c7 -46 21 -108 32 -138 10 -30 27
-118 39 -195 22 -147 21 -227 -1 -486 -5 -58 -12 -139 -15 -180 -3 -41 -8
-100 -11 -130 -5 -49 -4 -53 9 -36 12 17 14 17 20 2 15 -40 167 -9 245 51 l37
28 -18 -29 c-10 -15 -17 -29 -15 -31 2 -2 27 33 56 77 30 44 49 78 44 74 -11
-6 9 76 20 85 10 6 -7 103 -28 162 -8 23 -36 64 -62 91 -26 26 -38 44 -26 38
11 -6 26 -18 34 -26 7 -9 19 -16 27 -16 29 0 5 26 -51 53 -43 22 -77 30 -135
34 l-78 6 -7 86 c-11 133 -43 333 -60 366 -8 17 -21 72 -27 124 l-13 93 -62
29 c-67 30 -136 59 -138 58 0 0 -34 -10 -73 -22z m432 -784 c7 -17 76 -215 90
-258 4 -11 -7 5 -25 35 -58 102 -57 79 1 -35 6 -11 -8 0 -31 25 l-41 45 42
-65 42 -65 -64 60 c-35 33 -46 41 -25 18 52 -56 40 -66 -21 -17 l-48 39 5 55
5 54 33 -39 33 -40 -30 47 c-24 36 -31 58 -31 96 0 31 5 52 13 55 25 11 45 7
52 -10z m90 5 c27 -12 32 -26 38 -93 4 -39 4 -39 5 8 1 26 6 47 10 47 4 0 22
-18 39 -41 31 -40 31 -40 18 -97 -22 -97 -24 -99 -22 -24 1 39 -1 72 -5 72 -5
0 -8 -30 -8 -67 0 -77 -16 -76 -23 2 -2 28 -3 14 -2 -30 l2 -80 -20 88 c-11
48 -24 87 -28 87 -3 0 2 -35 12 -77 29 -126 23 -115 -72 140 l-29 77 30 0 c16
0 41 -5 55 -12z m129 -222 c-9 -26 -14 -50 -10 -53 3 -3 9 8 12 25 10 47 24
39 18 -10 -3 -24 -5 -53 -5 -66 1 -34 -22 -84 -59 -126 -34 -38 -87 -72 -98
-62 -3 3 -15 -2 -26 -11 -17 -14 -16 -12 2 9 l24 26 -29 17 c-27 16 -27 16 -3
11 22 -4 23 -4 8 8 -10 7 -15 16 -11 20 4 4 1 11 -7 16 -13 8 -12 10 2 10 9 0
20 5 24 12 5 8 2 9 -11 4 -14 -5 -16 -4 -7 7 7 8 9 17 5 21 -4 4 0 4 8 1 11
-4 19 1 24 17 6 19 8 20 12 6 6 -26 18 -22 32 9 10 22 14 24 22 12 6 -10 9 -7
9 14 0 16 4 26 10 22 6 -3 10 -15 10 -26 0 -10 4 -19 9 -19 5 0 7 10 4 23 -5
22 -5 22 11 2 15 -19 16 -19 6 9 -13 35 7 158 21 133 5 -9 2 -34 -7 -61z
m-224 -76 l45 -40 -50 26 c-63 34 -75 43 -75 61 0 18 22 6 80 -47z m17 -46
c-2 -2 -25 4 -50 13 -32 12 -47 23 -47 35 0 15 7 13 51 -13 27 -17 48 -33 46
-35z m34 29 c13 -16 12 -17 -3 -4 -17 13 -22 21 -14 21 2 0 10 -8 17 -17z
m-81 -29 c23 -9 39 -18 36 -21 -7 -8 -86 17 -86 27 0 13 3 13 50 -6z m20 -42
c-18 -6 -81 8 -76 17 3 5 24 3 46 -3 23 -6 36 -12 30 -14z m-20 -20 c0 -4 -13
-9 -30 -10 -16 -1 -30 2 -30 8 0 5 14 10 30 10 17 0 30 -4 30 -8z m15 -32
c-44 -11 -75 -11 -75 0 0 6 23 9 53 9 44 -1 48 -2 22 -9z m32 -16 c-3 -3 -12
-4 -19 -1 -8 3 -5 6 6 6 11 1 17 -2 13 -5z m-71 -20 c-41 -15 -53 -13 -41 5 3
6 23 11 43 10 l37 0 -39 -15z m14 -29 c-53 -28 -60 -30 -60 -11 0 8 17 18 38
24 62 17 69 12 22 -13z m94 19 c13 -5 8 -12 -20 -35 -20 -16 -42 -29 -48 -29
-6 0 7 12 27 26 56 38 38 41 -22 4 -28 -17 -59 -30 -68 -27 -14 3 -11 7 13 16
23 9 90 42 101 50 1 0 8 -2 17 -5z"/>
<path d="M3356 3673 c-6 -14 -5 -15 5 -6 7 7 10 15 7 18 -3 3 -9 -2 -12 -12z"/>
<path d="M2803 4595 c0 -22 2 -30 4 -17 2 12 2 30 0 40 -3 9 -5 -1 -4 -23z"/>
<path d="M2792 4470 c0 -19 2 -27 5 -17 2 9 2 25 0 35 -3 9 -5 1 -5 -18z"/>
<path d="M2640 4422 c-6 -2 -10 -42 -10 -93 l0 -89 35 0 35 0 0 93 c0 92 0 92
-25 92 -14 0 -29 -1 -35 -3z m40 -93 c0 -46 -3 -59 -15 -59 -12 0 -15 13 -15
58 0 32 3 62 6 65 15 15 24 -8 24 -64z"/>
<path d="M2783 4345 c0 -22 2 -30 4 -17 2 12 2 30 0 40 -3 9 -5 -1 -4 -23z"/>
<path d="M2773 4225 c0 -22 2 -30 4 -17 2 12 2 30 0 40 -3 9 -5 -1 -4 -23z"/>
<path d="M2605 4118 c-16 -18 -23 -27 -15 -20 21 18 30 15 31 -10 1 -17 3 -15
10 10 15 51 7 57 -26 20z"/>
<path d="M2762 4100 c0 -19 2 -27 5 -17 2 9 2 25 0 35 -3 9 -5 1 -5 -18z"/>
<path d="M2610 4046 c0 -8 -12 -17 -27 -19 -26 -4 -26 -4 5 -6 26 -1 32 3 32
19 0 11 -2 20 -5 20 -3 0 -5 -6 -5 -14z"/>
<path d="M2753 3975 c0 -22 2 -30 4 -17 2 12 2 30 0 40 -3 9 -5 -1 -4 -23z"/>
<path d="M2743 3855 c0 -22 2 -30 4 -17 2 12 2 30 0 40 -3 9 -5 -1 -4 -23z"/>
<path d="M3390 3871 c0 -5 7 -14 16 -22 25 -21 62 -101 72 -159 36 -197 -109
-381 -312 -397 -78 -7 -146 11 -146 37 0 28 -19 34 -24 8 -15 -72 -26 -319
-17 -383 17 -117 16 -122 -21 -117 -18 3 -64 25 -103 51 -38 25 -74 48 -78 50
-12 5 53 -122 67 -131 16 -11 336 -10 374 1 25 8 32 7 29 -2 -3 -7 -9 -11 -14
-10 -6 1 -62 -41 -124 -94 -132 -111 -120 -77 -138 -373 l-11 -175 33 -125 33
-126 -48 -81 c-44 -74 -51 -81 -71 -74 -23 8 -34 53 -36 143 -1 36 0 37 42 41
l42 4 -42 1 -43 2 0 103 c0 128 -17 332 -30 373 -20 61 -105 119 -208 142 -30
7 -42 7 -42 -2 0 -6 16 -94 35 -196 19 -102 45 -240 57 -307 l21 -122 -21 -78
c-27 -99 -20 -108 9 -12 12 41 26 75 30 77 5 2 4 11 -1 20 -11 19 -110 553
-110 590 0 21 3 23 33 17 49 -11 130 -52 155 -78 33 -35 50 -136 58 -344 l7
-181 -24 -5 c-23 -4 -23 -4 -1 -6 21 -1 22 -5 22 -74 l0 -73 -91 -22 c-78 -19
-94 -20 -108 -9 -9 8 -68 28 -131 46 -63 18 -161 46 -218 63 -101 31 -102 32
-102 62 0 17 -6 72 -14 121 -8 50 -26 187 -41 305 -28 212 -29 216 -71 297
l-43 82 54 6 c31 4 58 11 61 16 4 8 -27 379 -41 481 l-5 38 32 -7 c18 -3 47
-19 65 -35 l31 -30 -4 173 c-4 142 -9 185 -25 232 -11 32 -19 60 -17 61 1 2
25 17 51 35 l48 32 50 -16 c31 -11 60 -14 77 -10 23 6 17 10 -53 31 l-80 23
-62 -41 c-35 -22 -63 -44 -63 -48 0 -4 9 -33 21 -66 16 -44 22 -93 26 -197 l6
-138 -24 9 c-13 5 -43 12 -66 16 l-42 6 5 -32 c8 -67 34 -316 40 -402 8 -99 4
-105 -56 -106 -66 -1 -67 -8 -18 -112 41 -85 47 -107 62 -233 10 -77 26 -198
36 -270 11 -71 22 -157 25 -190 4 -33 11 -67 15 -75 6 -11 93 -40 246 -84
l238 -69 71 16 c38 8 78 18 88 22 11 5 17 2 17 -7 0 -14 59 -48 83 -48 7 0 37
43 69 96 l56 95 -34 130 -35 130 11 162 c18 285 8 254 114 346 50 44 112 97
138 118 l48 38 -134 5 c-74 3 -136 7 -139 10 -2 3 -10 46 -16 96 -10 70 -10
120 -1 215 6 68 13 125 14 126 1 1 20 -2 42 -8 60 -17 172 -5 237 25 65 31
135 102 173 177 36 70 45 191 20 266 -21 65 -71 143 -91 143 -8 0 -15 -4 -15
-9z m-528 -1002 c28 -20 29 -23 13 -38 -15 -15 -18 -14 -36 8 -18 22 -26 51
-13 51 3 0 19 -10 36 -21z"/>
<path d="M2412 3349 l-2 -347 45 -4 45 -3 0 217 c-1 130 -5 220 -11 224 -6 4
-8 -40 -4 -123 3 -70 2 -157 -2 -193 -7 -57 -11 -65 -28 -63 -18 2 -17 1 3 -9
29 -15 28 -28 -3 -28 -14 0 -26 1 -27 3 -1 1 -4 153 -8 337 l-6 335 -2 -346z"/>
<path d="M2721 3664 c0 -11 3 -14 6 -6 3 7 2 16 -1 19 -3 4 -6 -2 -5 -13z"/>
<path d="M2711 3614 c0 -11 3 -14 6 -6 3 7 2 16 -1 19 -3 4 -6 -2 -5 -13z"/>
<path d="M2701 3564 c0 -11 3 -14 6 -6 3 7 2 16 -1 19 -3 4 -6 -2 -5 -13z"/>
<path d="M2691 3514 c0 -11 3 -14 6 -6 3 7 2 16 -1 19 -3 4 -6 -2 -5 -13z"/>
<path d="M2681 3464 c0 -11 3 -14 6 -6 3 7 2 16 -1 19 -3 4 -6 -2 -5 -13z"/>
<path d="M2730 3380 l0 -90 40 0 40 0 0 90 0 90 -40 0 -40 0 0 -90z m50 5 c0
-37 -4 -65 -10 -65 -6 0 -10 28 -10 65 0 37 4 65 10 65 6 0 10 -28 10 -65z"/>
<path d="M2671 3414 c0 -11 3 -14 6 -6 3 7 2 16 -1 19 -3 4 -6 -2 -5 -13z"/>
<path d="M2661 3364 c0 -11 3 -14 6 -6 3 7 2 16 -1 19 -3 4 -6 -2 -5 -13z"/>
<path d="M3087 3373 c18 -2 50 -2 70 0 21 2 7 4 -32 4 -38 0 -55 -2 -38 -4z"/>
<path d="M2652 3310 c0 -14 2 -19 5 -12 2 6 2 18 0 25 -3 6 -5 1 -5 -13z"/>
<path d="M2641 3254 c0 -11 3 -14 6 -6 3 7 2 16 -1 19 -3 4 -6 -2 -5 -13z"/>
<path d="M2631 3204 c0 -11 3 -14 6 -6 3 7 2 16 -1 19 -3 4 -6 -2 -5 -13z"/>
<path d="M2621 3154 c0 -11 3 -14 6 -6 3 7 2 16 -1 19 -3 4 -6 -2 -5 -13z"/>
<path d="M1728 3131 c-86 -55 -121 -156 -88 -256 11 -32 89 -115 109 -115 5 0
17 -3 25 -6 34 -13 4 23 -32 39 -82 36 -116 151 -72 242 12 25 33 53 47 62 32
21 118 18 152 -6 47 -32 57 -36 38 -14 -10 12 -32 27 -48 33 -16 7 -29 17 -29
22 0 15 70 -1 109 -25 24 -14 33 -16 29 -6 -8 26 -89 59 -143 59 -39 0 -62 -7
-97 -29z"/>
<path d="M2611 3104 c0 -11 3 -14 6 -6 3 7 2 16 -1 19 -3 4 -6 -2 -5 -13z"/>
<path d="M2240 3010 l0 -90 40 0 40 0 0 90 0 90 -40 0 -40 0 0 -90z m50 5 c0
-37 -4 -65 -10 -65 -6 0 -10 28 -10 65 0 37 4 65 10 65 6 0 10 -28 10 -65z"/>
<path d="M2005 3038 c14 -61 10 -153 -8 -181 -9 -14 -13 -28 -8 -32 16 -9 51
79 51 128 0 46 -22 117 -36 117 -3 0 -3 -15 1 -32z"/>
<path d="M2601 3054 c0 -11 3 -14 6 -6 3 7 2 16 -1 19 -3 4 -6 -2 -5 -13z"/>
<path d="M2591 3004 c0 -11 3 -14 6 -6 3 7 2 16 -1 19 -3 4 -6 -2 -5 -13z"/>
<path d="M2581 2954 c0 -11 3 -14 6 -6 3 7 2 16 -1 19 -3 4 -6 -2 -5 -13z"/>
<path d="M1944 2941 c3 -4 1 -23 -4 -41 -6 -22 -6 -30 0 -24 16 16 24 74 11
74 -7 0 -10 -4 -7 -9z"/>
<path d="M2561 2844 c0 -11 3 -14 6 -6 3 7 2 16 -1 19 -3 4 -6 -2 -5 -13z"/>
<path d="M1850 2804 c-32 -17 -38 -24 -23 -24 12 0 35 11 50 25 34 29 31 29
-27 -1z"/>
<path d="M2551 2784 c0 -11 3 -14 6 -6 3 7 2 16 -1 19 -3 4 -6 -2 -5 -13z"/>
<path d="M1873 2773 c-17 -2 -37 -11 -45 -20 -11 -14 -9 -15 22 -9 57 12 70
17 70 27 0 5 -3 8 -7 7 -5 0 -22 -3 -40 -5z"/>
<path d="M2542 2730 c0 -14 2 -19 5 -12 2 6 2 18 0 25 -3 6 -5 1 -5 -13z"/>
<path d="M2532 2670 c0 -14 2 -19 5 -12 2 6 2 18 0 25 -3 6 -5 1 -5 -13z"/>
<path d="M2521 2614 c0 -11 3 -14 6 -6 3 7 2 16 -1 19 -3 4 -6 -2 -5 -13z"/>
<path d="M2511 2554 c0 -11 3 -14 6 -6 3 7 2 16 -1 19 -3 4 -6 -2 -5 -13z"/>
<path d="M2501 2494 c0 -11 3 -14 6 -6 3 7 2 16 -1 19 -3 4 -6 -2 -5 -13z"/>
<path d="M2492 2440 c0 -14 2 -19 5 -12 2 6 2 18 0 25 -3 6 -5 1 -5 -13z"/>
<path d="M2482 2380 c0 -14 2 -19 5 -12 2 6 2 18 0 25 -3 6 -5 1 -5 -13z"/>
<path d="M2471 2324 c0 -11 3 -14 6 -6 3 7 2 16 -1 19 -3 4 -6 -2 -5 -13z"/>
<path d="M2461 2264 c0 -11 3 -14 6 -6 3 7 2 16 -1 19 -3 4 -6 -2 -5 -13z"/>
<path d="M2489 2145 c5 -11 17 -29 26 -40 l16 -20 -10 20 c-5 11 -17 29 -26
40 l-16 20 10 -20z"/>
<path d="M2600 1970 c6 -11 13 -20 16 -20 2 0 0 9 -6 20 -6 11 -13 20 -16 20
-2 0 0 -9 6 -20z"/>
<path d="M2043 1943 c20 -2 54 -2 75 0 20 2 3 4 -38 4 -41 0 -58 -2 -37 -4z"/>
<path d="M3098 1943 c17 -2 47 -2 65 0 17 2 3 4 -33 4 -36 0 -50 -2 -32 -4z"/>
<path d="M2323 1933 c20 -2 54 -2 75 0 20 2 3 4 -38 4 -41 0 -58 -2 -37 -4z"/>
<path d="M2568 1923 c7 -3 16 -2 19 1 4 3 -2 6 -13 5 -11 0 -14 -3 -6 -6z"/>
</g>
</svg>
