<?xml version="1.0" encoding="UTF-8" standalone="no"?>
<!-- Created with Inkscape (http://www.inkscape.org/) -->

<svg
   version="1.1"
   id="svg1"
   width="1024"
   height="1024"
   viewBox="0 0 1024 1024"
   sodipodi:docname="breton.svg"
   inkscape:version="1.3.2 (091e20e, 2023-11-25, custom)"
   xml:space="preserve"
   xmlns:inkscape="http://www.inkscape.org/namespaces/inkscape"
   xmlns:sodipodi="http://sodipodi.sourceforge.net/DTD/sodipodi-0.dtd"
   xmlns="http://www.w3.org/2000/svg"
   xmlns:svg="http://www.w3.org/2000/svg"><defs
     id="defs1" /><sodipodi:namedview
     id="namedview1"
     pagecolor="#ffffff"
     bordercolor="#000000"
     borderopacity="0.25"
     inkscape:showpageshadow="2"
     inkscape:pageopacity="0.0"
     inkscape:pagecheckerboard="0"
     inkscape:deskcolor="#d1d1d1"
     inkscape:zoom="1.1455078"
     inkscape:cx="511.56352"
     inkscape:cy="511.12703"
     inkscape:window-width="2560"
     inkscape:window-height="1369"
     inkscape:window-x="-8"
     inkscape:window-y="-8"
     inkscape:window-maximized="1"
     inkscape:current-layer="g1" /><g
     inkscape:groupmode="layer"
     inkscape:label="Image"
     id="g1"><path
       style="fill:#000000"
       d="M 492.56352,956.53629 C 322.3649,951.24431 163.00895,839.1561 96.98431,682.82865 31.976091,534.43526 55.92755,353.0248 156.22632,225.9781 244.04618,110.41426 390.43959,44.781456 535.15191,53.936377 714.41983,60.182535 880.8456,186.26942 937.11189,356.28851 996.24737,519.1146 950.45017,714.12838 822.31357,831.46039 734.85774,915.74293 614.14894,962.42754 492.56352,956.53629 Z m 17.69302,-10.15926 C 490.03704,910.29034 498.89147,843.78424 449.52341,835.71355 365.8149,816.709 281.08462,760.56121 261.78397,672.12703 c -42.01208,22.20783 -84.61802,43.4411 -128.19341,62.41828 78.41693,128.86985 224.7388,214.35498 376.33063,213.23399 z m 20.80896,-27 c -19.71929,-32.46104 -11.02097,-93.77642 -54.50198,-104.2392 -77.41466,-18.25817 -162.5086,-60.87404 -189.03206,-141.45829 -7.02308,-37.91069 -29.89079,12.46878 -8.46808,27.32136 32.68833,77.52363 115.33812,115.12732 192.65291,132.56578 30.76637,23.24939 27.44818,71.96796 45.28579,105.01304 3.73989,17.09221 34.82711,9.65329 17.7223,-8.38255 -1.21962,-3.60672 -2.43925,-7.21343 -3.65888,-10.82014 z m 24.49147,25 C 542.74064,898.57554 530.99182,851.29768 508.1051,809.35882 459.59124,789.91135 402.29627,784.81438 361.22172,747.29337 c -38.78797,-15.25572 -55.88941,-83.24569 -68.68901,-95.55306 -7.1426,47.46148 44.12259,95.49175 84.74397,119.80886 36.3205,23.35629 79.12289,31.59847 119.48572,44.80771 24.105,34.22715 29.35465,79.74894 44.70918,118.8235 1.34571,9.41948 5.03493,14.59474 14.08539,9.19665 z m 20.44645,-1.38273 c 4.15092,-43.22023 0.96678,-86.79544 2.61447,-130.10201 35.7205,-23.86433 59.46627,-75.49937 27.01003,-109.93635 13.87408,42.47433 -1.43783,80.34862 -38.4559,104.54566 -1.25662,45.57207 2.28461,91.33142 -0.91714,136.92032 3.26011,-0.40285 6.55027,-0.59874 9.74854,-1.42762 z m 14.0727,-1.94285 c 17.10847,-17.36286 2.83349,-62.21911 6.35634,-88.66344 -7.6094,-44.1908 60.19457,-65.67685 39.01638,-115.72275 -0.80401,-26.62515 -32.21936,-43.89084 -12.30933,-5.62976 22.48141,53.75065 -58.31517,67.23888 -40.9025,119.51718 7.10946,24.06361 -14.76844,85.05906 7.83911,90.49877 z m 29.58012,-6.33973 C 693.19774,915.4493 760.973,876.38048 816.71166,824.94928 791.14953,777.01616 736.14272,763.25841 690.76772,741.41569 c -24.10484,-6.68688 -65.94721,-41.71556 -45.86315,4.97061 13.55685,47.42577 -50.90532,66.2486 -40.39432,109.63766 8.68046,18.82282 -16.82117,91.12877 15.14599,78.68776 z m -62.3508,-84.08469 c -24.16373,-56.66092 65.99849,-75.29955 35.81927,-127.58564 -17.57905,-26.39417 12.74421,-64.59468 -36.31167,-59.34822 -51.19016,-19.60739 -98.01499,-50.80081 -139.35672,-86.42073 -29.09669,-26.30125 -13.62616,-83.83954 -63.34077,-75.92009 -8.21558,45.84678 -4.91669,96.04945 -28.33054,137.67146 -43.03592,28.54281 14.94902,78.1631 40.02656,100.05308 39.18296,32.49604 89.69425,44.14435 138.08493,54.96929 29.55222,25.32504 33.88056,68.44412 49.20332,102.8455 7.11688,28.26306 2.8855,-46.87048 4.20562,-46.26465 z m -5.74192,-77.68953 c 0.1075,-16.97518 22.20817,-74.89998 27.6007,-63.81461 -9.21936,21.23591 -18.46131,42.76591 -27.6007,63.81461 z m -88.0448,-35.56047 c -25.75153,-41.12749 -43.75716,-88.96716 -54.07931,-134.8267 17.09103,49.57362 38.86981,100.50458 62.16064,145.5767 l -2.77132,-3.15781 z m 374.92269,64.38376 C 949.69443,683.32788 983.40424,501.40335 925.24054,350.12083 863.57199,176.74941 683.15819,53.10347 498.58641,63.700716 320.03907,62.733434 153.19325,188.11859 95.778615,355.76726 50.891397,476.17742 65.363043,614.74975 128.42918,726.02888 c 59.75024,-24.30941 117.98642,-53.95044 172.18605,-89.15692 30.57367,-6.8996 33.77715,-35.62111 1.55473,-38.46308 -19.07583,-17.28874 -2.17982,-46.75769 -34.83462,-45.37113 -12.81336,-15.30001 -22.93559,-27.90737 1.41885,-26.00312 18.88803,-29.97582 -28.38078,-65.13009 -7.19847,-101.70702 -22.76775,-33.89856 -32.63817,-75.61407 -9.0325,-112.44428 11.32564,-29.68984 -1.20518,-65.94691 20.57698,-92.87405 36.29127,-30.25785 62.46207,-71.89143 105.018,-94.05238 51.64427,-15.20305 106.73058,-26.107733 160.75469,-21.9275 44.77956,12.92194 99.30554,2.93877 133.81513,43.15806 40.85744,13.84829 71.61078,62.30671 58.021,103.93957 -20.4467,19.14069 -29.08083,32.25894 -12.04072,60.54464 29.52256,43.60012 -12.30374,86.98693 5.34118,133.95536 -4.96404,46.75266 -15.31764,93.77476 -27.98785,139.16951 -7.91522,37.07526 -10.86694,92.91213 -63.4675,88.58047 -23.43743,-10.56368 -56.58198,7.97681 -19.61938,20.17819 57.04678,30.99372 119.84511,50.81236 176.49233,82.98112 20.32722,4.62851 31.17467,59.33268 49.01433,25.22447 z M 601.49132,701.87703 c -10.44034,-26.28067 -5.138,11.88288 0,0 z m 50.31407,-42.63175 c 35.29137,-25.30701 32.24173,-81.0305 45.34675,-120.61825 9.19404,-46.84665 23.37542,-93.92264 11.81986,-141.97405 6.43678,-30.18215 -22.49365,30.70656 -26.76838,-7.89458 -9.56568,-22.50752 -13.51031,23.091 8.3599,24.8551 -25.84869,7.17925 45.06517,87.30979 -14.59372,97.63077 -21.11628,-2.23303 -21.48779,48.12737 -20.4152,7.00219 12.58735,-21.96736 55.6934,-32.26144 28.46364,-68.11943 -12.36612,-33.28954 -35.75597,-89.12138 -13.67723,-111.25 -17.22583,45.72641 63.74392,-12.93067 45.84398,-0.788 -21.91211,-35.4566 -11.02736,-87.92523 -47.77915,-114.49663 -27.59495,17.53145 -63.63497,-30.0252 -82.99226,5.96095 -16.01015,14.59439 3.9186,57.79751 -29.70794,31.87306 -30.65309,-8.21783 -26.60202,-61.21 -61.8331,-28.50308 -32.93099,37.40676 -25.34667,89.53376 -61.8194,124.91068 -20.42728,29.83197 32.32008,101.28327 -25.04359,68.89638 -31.71001,-13.73933 -18.44798,-57.35113 -58.18224,-66.2304 -49.47234,-18.56484 -52.22723,58.25135 -27.80776,85.03877 19.30254,26.37174 37.61816,71.90641 69.51414,41.31434 11.39693,30.21271 20.16897,87.01828 61.3284,106.53682 57.79413,39.58656 127.00704,81.94091 199.9433,65.85536 z m -30.2228,-55.42916 c 11.02118,-13.74221 56.51867,-6.18746 15.09898,-3.41544 l -7.89841,2.08214 z m -0.51907,-18.10766 c -21.22595,-11.05897 88.52417,-10.63818 33.42184,-0.1961 -11.13607,0.23664 -22.28498,0.60598 -33.42184,0.1961 z m -51.5,-15.79595 c 24.15011,-22.11783 86.83354,-36.11085 108.26546,-11.39381 -30.82519,-2.95751 -75.60137,-3.70516 -108.26546,11.39381 z m 9.65102,-54.03548 c 6.07882,-20.22074 36.97533,-58.96582 48.4495,-53.1201 -37.57015,11.45559 25.44273,52.78962 -15.55561,35.99149 -6.26133,-55.17461 -26.36265,29.74415 -32.89389,17.12861 z M 493.68269,508.568 c -9.02863,-15.52958 -46.59007,-69.11981 -12.32263,-27.7427 3.83565,1.63595 24.04067,44.93334 12.32263,27.7427 z m 143.88083,-10.74432 c -33.75345,-14.11874 64.73868,-14.2494 27.11448,-4.52061 -30.60215,-8.99176 2.98433,6.78604 -27.11448,4.52061 z M 367.09047,486.71722 c -11.39376,-20.15315 20.92316,9.69376 0,0 z m -9.38048,-24.05999 c -40.62436,-16.46389 -8.31195,-54.3207 -7.4909,-75.37382 -31.43636,-45.19161 -27.08084,31.7974 -31.24207,20.34362 -16.93498,-48.7406 46.17974,-49.79224 49.18207,-5.7669 9.27655,21.78864 5.94934,30.84508 2.31026,52.30716 29.60438,10.72809 -21.54496,10.90704 -7.76594,-14.97593 9.05889,-27.51171 -11.99909,-44.59686 -20.96454,-11.60981 -7.64387,7.89637 29.84371,45.37802 15.97112,35.07568 z m 216.85353,-31.99012 c 10.76534,-18.41354 41.15213,-43.75934 13.93569,-11.27853 -4.90685,2.91077 -7.79597,10.16373 -13.93569,11.27853 z m -19.90013,-21.52864 c -57.78967,-19.22805 67.78717,0.31088 6.47497,1.2946 z m 71.08841,-2.28458 c -19.43759,-34.93117 11.61377,0.19057 0,0 z m -56.58326,-8.64854 c 2.20552,-37.12754 -85.45363,9.71762 -39.86749,-17.9759 22.7652,-18.0809 96.0792,-5.63785 70.78899,9.07336 -13.29125,-35.85375 -9.14048,22.69084 -30.9215,8.90254 z m 13.19493,-15.3198 c -4.75835,-15.32663 -10.42123,11.31708 0,0 z m 22.20005,-12.72544 c -31.23466,-19.48702 -71.68438,-30.24594 -104,-7.47696 23.85634,-34.65662 72.05757,-31.37163 106.16994,-15.05885 12.78407,3.55119 42.36284,12.93045 37.58204,-9.0314 14.52776,21.81155 -20.52965,39.70452 -39.75198,31.56721 z M 331.43027,595.37602 c -1.10483,-14.4753 -29.57727,-28.82857 -5.52248,-49.23805 -14.27534,23.08944 14.49983,48.5878 10.25206,9.37647 0.99934,-20.78298 9.73139,-39.92668 -17.14442,-21.81012 22.03872,-11.34428 33.28505,-45.9464 2.09213,-61.96337 -24.25144,-34.33047 -42.97876,-93.33718 -2.16131,-122.78273 24.15289,0.98462 87.9261,-23.68211 78.20466,-22.53904 -9.41293,21.34995 -75.13817,17.82129 -28.30693,35.42836 39.0205,-0.82495 7.55922,43.62305 39.78553,57.27949 -9.03298,-16.05793 1.42017,-59.66279 0.85732,-20.33017 3.26465,20.12129 19.6009,34.83128 10.05863,5.64475 -7.13666,-18.01044 14.48219,-63.38218 -7.48194,-50.83833 22.90662,-9.49879 57.97537,-60.77447 42.14316,-68.3787 -21.47295,16.41904 -69.79737,28.1804 -30.95835,-3.45855 10.98219,-13.88857 33.48188,-60.44107 16.78259,-16.92283 -8.75491,19.94311 -28.91677,43.46189 3.21254,19.40248 16.83515,-18.70577 74.12033,-65.96855 22.22475,-73.96687 19.65684,2.49143 74.71599,15.56412 64.56546,-29.94061 6.0108,-22.06098 42.47551,-41.94335 55.67263,-28.50947 -31.03617,-6.94822 -63.85932,45.00777 -53.51232,56.54837 23.57997,-43.36414 -12.29475,41.06368 15.86949,38.10528 -5.5464,-37.97456 28.47713,-77.64805 67.04216,-76.94668 -33.21763,8.418 -76.10854,49.28211 -52.26304,86.9696 20.82869,22.28186 -2.94131,-51.24946 32.12284,-49.72575 16.84041,-10.61655 85.95405,-27.5663 34.55028,-5.17735 -49.4343,10.0092 56.27179,40.00619 39.71441,-7.4751 1.61645,-18.86525 -23.43936,-49.26782 1.87166,-15.7482 4.11576,27.13936 -4.20166,43.83603 21.76359,60.45277 3.13168,42.19736 42.86581,14.30634 21.40839,-11.73011 -15.33098,-11.5547 -44.01417,-22.62294 -7.51562,-15.06659 19.88857,10.04455 27.23075,37.35822 15.79481,-1.29168 -2.68147,-16.5867 -65.62878,-43.61848 -16.93733,-25.01668 15.87377,1.59357 -29.05089,-32.20397 -45.88843,-33.84159 -19.86939,-8.14282 -52.3517,-11.7904 -10.55122,-11.35312 -10.64758,-18.00353 -106.47332,-31.47406 -44.32111,-4.4283 -40.01669,-11.08153 -81.28117,-34.74492 -125.29948,-19.64569 -53.29743,4.57004 -115.3196,11.56244 -147.83134,60.16919 -27.82783,24.62499 -64.19617,50.20589 -64.89114,93.49242 -2.64217,20.6865 -1.5893,34.25372 5.78999,25.25758 -25.32663,34.89481 -33.91271,85.93877 -4.27398,121.08867 4.06984,27.39313 -1.16289,78.67813 19.11595,90.05329 11.36257,-61.42648 11.35916,35.772 -22.60671,33.99706 13.00821,29.60759 51.75308,-10.50622 34.90142,29.23131 -0.70144,15.83804 16.09621,32.20303 31.6707,25.62859 z m -27.91753,-68.42586 c 12.74805,-13.44453 3.49073,-84.45995 13.25267,-33.55077 8.09964,7.93939 -21.09603,56.7698 -13.25267,33.55077 z m -16.8196,-63.51631 c -9.73138,-23.94408 -3.37895,-72.81796 -0.152,-20.02655 -1.35725,0.7373 7.71176,36.66182 0.152,20.02655 z m -19.16389,-64.05682 c -10.83739,-15.66342 -6.06282,-70.1119 3.00059,-70.49094 -8.09196,12.61182 2.23527,79.9386 -3.00059,70.49094 z m 21.04614,-26 c -11.19249,-29.41809 64.35816,-67.46347 19.14183,-30.51779 -10.32052,0.0539 -19.567,51.30824 -19.14183,30.51779 z m 100.98813,-20.22047 c 15.87195,-1.29472 53.60878,-60.26953 30.39847,-18.20003 -7.36683,9.09891 -17.31325,20.0916 -30.39847,18.20003 z m -96.37646,-27.56819 c -9.27283,-28.29497 23.83981,-65.01938 37.87713,-68.38067 -20.02474,17.25462 -34.76941,46.38917 -37.87713,68.38067 z m 65.37646,-12.96134 c 23.62013,-4.80524 62.9075,-72.62142 35.41511,-18.87623 -7.51126,10.68117 -22.40161,22.59372 -35.41511,18.87623 z m -48.07102,-9.36729 c 20.09203,-17.99721 54.36711,-75.41575 57.97577,-76.03938 -7.45167,30.64058 -34.47468,64.48369 -57.97577,76.03938 z m 65.84464,-30.772 c 15.22871,-40.77462 44.78434,-73.93292 84.75451,-91.58118 17.45109,-13.62689 63.88454,-37.98814 22.17661,-7.03626 -35.0155,23.33206 -74.70555,41.97036 -93.24306,82.63495 -4.17433,5.63564 -7.68632,11.99608 -13.68806,15.98249 z m -86.77362,-15.45047 c -0.46065,-31.96721 56.64961,-88.04548 63.53838,-79.96074 -27.48885,20.9029 -50.25114,51.49712 -63.53838,79.96074 z m 84.03327,-81.7099 c 7.86248,-31.13115 62.41188,-51.06136 77.72098,-42.73086 -30.34369,3.58594 -60.51178,18.77547 -77.72098,42.73086 z m 18.96673,-4.07298 c 9.53466,-20.64189 95.93049,-45.73382 39,-20.34493 -12.93557,6.02507 -27.06614,15.47943 -39,20.34493 z m 183,-31.26386 c -26.39789,-18.60241 -72.68939,-8.6828 -91.27153,-4.42388 27.39119,-20.38902 79.80765,-12.10145 91.27153,4.42388 z m 123.81955,245.8865 c -7.71636,-8.91145 -4.21406,8.50645 0,0 z m -26.30668,-4.77083 c 24.84753,-11.22182 -17.82886,-2.6808 0,0 z m 39.58122,-2.72665 c 19.67156,-35.07425 -48.17715,-2.17446 -2.56229,2.58045 l 1.46437,-0.60801 z"
       id="path1" /></g></svg>
