<?xml version="1.0" encoding="UTF-8" standalone="no"?>
<!-- Created with Inkscape (http://www.inkscape.org/) -->

<svg
   version="1.1"
   id="svg1"
   width="1024"
   height="1024"
   viewBox="0 0 1024 1024"
   sodipodi:docname="orc.svg"
   inkscape:version="1.3.2 (091e20e, 2023-11-25, custom)"
   xml:space="preserve"
   xmlns:inkscape="http://www.inkscape.org/namespaces/inkscape"
   xmlns:sodipodi="http://sodipodi.sourceforge.net/DTD/sodipodi-0.dtd"
   xmlns="http://www.w3.org/2000/svg"
   xmlns:svg="http://www.w3.org/2000/svg"><defs
     id="defs1" /><sodipodi:namedview
     id="namedview1"
     pagecolor="#ffffff"
     bordercolor="#000000"
     borderopacity="0.25"
     inkscape:showpageshadow="2"
     inkscape:pageopacity="0.0"
     inkscape:pagecheckerboard="0"
     inkscape:deskcolor="#d1d1d1"
     inkscape:zoom="1.1455078"
     inkscape:cx="511.56352"
     inkscape:cy="511.12703"
     inkscape:window-width="2560"
     inkscape:window-height="1369"
     inkscape:window-x="-8"
     inkscape:window-y="-8"
     inkscape:window-maximized="1"
     inkscape:current-layer="g1" /><g
     inkscape:groupmode="layer"
     inkscape:label="Image"
     id="g1"><path
       style="fill:#000000"
       d="M 496.5,937.95639 C 464.61435,935.9731 444.21331,933.33503 419.05768,927.94231 362.12284,915.73695 309.00125,893.31752 261.11357,861.2836 213.92492,829.71728 169.27299,785.42645 138.40114,739.56351 c -42.286987,-62.82114 -65.674419,-126.33529 -74.013025,-201 -2.108988,-18.88409 -2.426253,-66.63205 -0.558144,-84 5.920731,-55.04548 18.136483,-99.92539 40.497819,-148.78649 18.01905,-39.3729 45.29917,-80.07456 73.1999,-109.21351 9.75993,-10.19307 10.58784,-11.3632 19.60198,-27.70463 11.83348,-21.45254 20.19017,-31.15367 34.08911,-39.57345 3.43016,-2.07795 8.04669,-4.30422 10.25894,-4.94727 2.21225,-0.64305 5.97864,-2.63949 8.36974,-4.43653 5.82774,-4.37986 13.68327,-7.1876 22.36777,-7.99474 6.00985,-0.55856 8.35923,-1.37193 14.57162,-5.04479 50.16469,-29.658182 118.9406,-49.74636 189.57275,-55.370711 19.62054,-1.562359 71.42858,-0.687487 89.6404,1.51374 53.47013,6.462829 99.52381,19.766007 145.81408,42.120215 20.64452,9.969516 31.31225,15.936506 48.60604,27.187736 65.35876,42.52201 119.44719,103.16512 154.65102,173.39235 34.55513,68.93315 50.74805,147.72704 45.90579,223.37515 -5.32556,83.19843 -29.29043,153.05088 -76.24421,222.23555 -54.53647,80.35748 -138.1454,143.2021 -231.20898,173.78813 -27.2933,8.97014 -70.54505,18.34532 -98.52374,21.35584 -10.33638,1.11221 -48.84131,2.09707 -58.5,1.49629 z m 30.94657,-10.14288 c -2.50398,-14.57937 -14.01459,-64.44308 -15.58813,-67.52748 -3.23304,-6.33728 -5.95725,-7.32932 -22.23941,-8.09866 C 463.03166,850.93112 430.11387,843.98101 394.5,832.10439 300.91503,800.89538 236.74182,756.60678 212.86396,706.7498 c -2.18991,-4.57255 -4.3825,-8.17255 -4.8724,-8 -3.52667,1.24208 -65.94981,33.47182 -65.96821,34.0601 -0.0605,1.93395 19.53189,27.97008 31.41991,41.75361 40.33254,46.76346 89.64069,85.01278 143.05674,110.972 47.52277,23.0952 98.59416,37.90058 150,43.4844 18.66259,2.02717 20.95797,2.15393 42.79531,2.36335 l 18.79532,0.18025 z M 553.75,929.9478 c 3.4375,-0.29891 6.24842,-0.62016 6.24648,-0.71388 -0.002,-0.0937 -1.57055,-9.31276 -3.48581,-20.48675 -9.06454,-52.88417 -18.64915,-81.69977 -28.77276,-86.50374 -2.40342,-1.1405 -9.48331,-2.15865 -22.15953,-3.18675 C 471.89282,816.32464 435.55314,808.92715 402.5,798.07351 379.33765,790.4677 369.9121,786.60165 347.5,775.51428 316.72783,760.29114 297.67832,747.72153 280.32712,731.191 263.52503,715.1836 253.733,700.50026 249.39891,684.81351 c -0.94975,-3.4375 -2.16807,-6.25 -2.70738,-6.25 -1.05426,0 -30.69473,15.65251 -31.9397,16.86668 -1.06975,1.04328 6.8984,16.48781 12.70338,24.62275 14.1822,19.87458 31.80695,36.00487 60.04762,54.95598 53.38306,35.82312 147.85055,68.80785 203.99717,71.22865 14.88869,0.64194 19.75524,2.17189 23.80745,7.48461 3.33337,4.37028 6.23284,15.02353 13.15692,48.34133 3.08612,14.85 5.78967,27.5225 6.00788,28.16111 0.39184,1.14672 3.40442,1.10346 19.27775,-0.27682 z m 15.3803,-4.77912 c 0.79277,-2.96425 3.97049,-26.86289 8.92275,-67.10517 5.29738,-43.04669 7.12715,-48.3329 18.15602,-52.4528 16.96809,-6.33852 27.23513,-12.47824 35.35593,-21.14295 10.53777,-11.24356 14.66244,-21.56366 14.74968,-36.90425 0.0518,-9.11476 -0.32779,-11.62138 -2.87749,-19 -1.61545,-4.675 -3.33633,-8.5 -3.82416,-8.5 -0.98982,0 -10.85444,21.64914 -19.56748,42.94329 -3.13789,7.6688 -6.15659,14.09372 -6.70822,14.2776 -1.66316,0.55439 0.49207,-12.09787 3.68338,-21.62331 1.59884,-4.77221 5.79366,-15.18394 9.32183,-23.13716 3.52817,-7.95323 7.18033,-16.71042 8.1159,-19.46042 2.34663,-6.89758 6.53597,-22.65564 6.53904,-24.59632 0.002,-1.33826 -1.95558,-1.70161 -12.11003,-2.24761 C 591.89317,684.23041 545.78091,667.28324 498.45272,638.28221 479.95189,626.94556 452.37253,607.68458 437.80976,595.93015 416.06388,578.37781 412.6854,570.74656 406.53835,525.29472 405.14226,514.97189 404,504.95939 404,503.04472 c 0,-4.24353 -0.79971,-4.34348 -4.43048,-0.55378 -7.44009,7.76579 -21.00571,9.62843 -34.00424,4.669 -3.8141,-1.45522 -10.65473,-4.88474 -15.2014,-7.62114 -4.54667,-2.73641 -8.44391,-4.97529 -8.66052,-4.97529 -0.21662,0 -0.66634,7.9875 -0.99938,17.75 -1.01427,29.73105 -6.67269,65.84225 -14.21555,90.72144 -10.27592,33.89386 -28.57938,55.87813 -57.96776,69.62504 -4.41137,2.06349 -9.25817,4.05972 -10.77067,4.43607 -3.29323,0.81944 -3.27268,0.53794 -0.66538,9.11212 4.32429,14.22059 12.21445,25.74033 27.69384,40.43339 16.34534,15.51502 34.30996,27.37388 64.22154,42.39411 48.16646,24.187 101.8558,38.95173 160.29707,44.08217 19.9186,1.74861 23.63646,3.04026 28.58491,9.93085 9.01503,12.5532 17.6467,42.40536 24.1648,83.57264 1.69308,10.69319 3.27541,20.04209 3.5163,20.77533 0.6898,2.09971 2.75474,0.81001 3.56722,-2.22799 z m -4.62996,-133.85517 c -1.23713,-10.09198 2.32558,-24.54901 9.67256,-39.25 4.26262,-8.52931 28.18449,-45.20062 30.77892,-47.18289 2.86509,-2.18907 2.3755,1.46122 -1.20808,9.00722 -1.88356,3.96625 -7.58222,13.72834 -12.66368,21.69352 -13.42091,21.03728 -20.27891,36.78897 -24.04706,55.23215 -0.64614,3.1625 -1.33551,5.75 -1.53194,5.75 -0.19643,0 -0.64676,-2.3625 -1.00072,-5.25 z M 490.2811,768.9864 c -4.54953,-3.56054 -19.11473,-23.24988 -25.83422,-34.92289 -8.62136,-14.9769 -28.48921,-54.49154 -33.70113,-67.02727 -10.57443,-25.43365 -18.28874,-51.71401 -19.28214,-65.68848 -0.75229,-10.58255 0.20226,-9.12747 5.38963,8.21575 14.2061,47.49603 36.81615,96.32867 67.31781,145.3914 5.43371,8.74028 9.74189,16.029 9.57372,16.19717 -0.16817,0.16817 -1.72682,-0.80639 -3.46367,-2.16568 z m 105.35154,154.54125 5.13264,-1.05721 2.10125,-13.70346 c 2.4557,-16.0151 3.54756,-24.4884 5.66118,-43.93327 0.85072,-7.8264 2.22414,-16.14972 3.05206,-18.49628 2.14362,-6.07568 6.6446,-10.22718 15.99497,-14.75302 15.43917,-7.47299 29.29593,-19.46167 36.83096,-31.86566 8.96528,-14.75844 12.04197,-36.03104 7.69797,-53.22475 -3.09105,-12.23451 -6.09149,-16.5357 -15.12398,-21.68049 -9.37077,-5.33747 -10.49964,-5.43018 -8.52324,-0.69998 2.06523,4.94279 4.54355,17.46106 4.54355,22.94998 0,7.68432 -2.93733,19.59596 -6.7813,27.5 -5.32129,10.94172 -17.56,22.9674 -29.7187,29.20142 -4.95,2.53797 -11.51321,5.34125 -14.58491,6.2295 -7.01975,2.02993 -10.59218,5.66771 -12.45219,12.67997 -0.78621,2.96401 -2.57379,14.61411 -3.9724,25.88911 -5.16834,41.66487 -9.56631,75.53245 -9.95389,76.65224 -0.21934,0.63373 -0.18573,1.36531 0.0747,1.62574 0.43789,0.43789 7.40755,-0.71569 20.02133,-3.31384 z m 27.66823,-6.53287 c 48.45326,-12.17796 94.52239,-32.79581 137.19913,-61.4023 19.85501,-13.30894 51.5,-38.54233 51.5,-41.06556 0,-3.05732 -54.25816,-34.6687 -134.85181,-78.5661 -3.67904,-2.00388 -4.2371,-2.10186 -3.60979,-0.63381 5.58932,13.08022 5.87412,14.43904 5.91834,28.2365 0.0505,15.75807 -1.33394,22.07167 -7.64059,34.84408 -3.01338,6.10279 -6.28344,10.62955 -12.17412,16.85264 -9.00262,9.51065 -14.85251,13.78541 -28.39835,20.75187 -9.50206,4.8868 -12.16653,7.45764 -14.04495,13.55141 -0.59339,1.925 -2.24862,13.625 -3.6783,26 -1.42969,12.375 -3.25665,26.65766 -4.05993,31.73924 -1.55977,9.86723 -1.79255,13.26076 -0.90963,13.26076 0.30298,0 6.94048,-1.60593 14.75,-3.56873 z M 829.61544,798.31351 C 877.2994,749.27266 912.7461,691.92347 933.35646,630.47097 953.25909,571.12867 960.25108,501.80061 952.39456,441.70154 945.97864,392.62249 933.01541,348.65843 912.11286,305.08846 870.14952,217.61866 800.82071,147.01252 714.71412,104.05278 666.59813,80.04707 616.49167,65.716649 558.5,59.375635 539.85466,57.336887 483.59646,57.642682 463,59.894732 416.56773,64.971711 376.77541,74.685512 336.5,90.774964 318.99675,97.767262 301,106.31712 301,107.64024 c 0,0.5078 1.4625,0.92861 3.25,0.93514 10.2677,0.0375 24.68131,6.83759 33.69134,15.89499 7.83963,7.88084 11.73632,15.37159 13.9584,26.83272 l 1.60026,8.25385 3.61514,0.003 c 2.01704,0.002 4.66939,-0.82265 6,-1.86508 5.33541,-4.17991 24.43061,-15.39025 36.51662,-21.43805 19.23453,-9.62489 40.38799,-17.19839 60.86824,-21.79246 55.82065,-12.52151 126.18977,-3.97914 179.21402,21.75547 32.57691,15.81076 51.38675,38.49547 51.68987,62.33812 l 0.0961,7.55985 4.34149,3.92173 c 10.15606,9.17413 19.38984,26.37255 27.66292,51.5237 5.78982,17.60174 5.61649,17.25069 16.78757,34 11.21687,16.81797 17.26238,29.13165 19.41612,39.54736 l 1.65361,7.99706 -7.10181,14.47779 c -3.906,7.96279 -7.86922,17.15096 -8.80716,20.41816 -2.52623,8.79985 -1.6158,21.47242 2.37508,33.05963 3.91113,11.35567 4.66366,17.32514 3.29561,26.14246 -1.22316,7.88339 -7.78624,28.00362 -13.87112,42.5242 -4.08433,9.74658 -6.55297,18.67799 -5.81781,21.04852 0.21915,0.70665 0.6515,2.45016 0.96078,3.87445 l 0.56232,2.58963 4.66004,-4.33963 c 2.56302,-2.38679 5.28369,-4.33963 6.04595,-4.33963 2.15942,0 3.45362,4.68299 4.0642,14.70599 0.88971,14.60518 -2.80642,32.71004 -8.34355,40.86946 -1.95205,2.87651 -2.68006,5.30847 -2.83511,9.47088 -0.1665,4.46992 -0.94356,6.79696 -3.84924,11.5271 -7.0162,11.42166 -9.01874,22.30663 -7.71334,41.92657 2.45345,36.87498 -7.91732,55.87744 -34.858,63.87064 -5.36835,1.59277 -21.19868,3.94268 -34.88514,5.17846 -6.35361,0.57368 -7.31173,0.92247 -7.69974,2.80306 -1.16333,5.63826 -3.80694,16.21011 -4.52734,18.1049 -0.7415,1.95028 2.13969,3.73704 36.33916,22.53562 72.0255,39.59059 112.42454,62.81265 131.63383,75.66538 3.56913,2.38807 6.75889,4.34194 7.08836,4.34194 0.32947,0 5.52146,-5.0625 11.53776,-11.25 z M 180.98265,705.13156 c 22.94036,-11.78757 46.82006,-24.24511 53.06599,-27.68343 9.95037,-5.47756 12.06454,-6.26833 17.07764,-6.38762 4.79486,-0.1141 7.55559,-1.04933 17.04756,-5.77505 33.64097,-16.74867 49.65578,-42.20774 59.31131,-94.2884 6.03495,-32.55175 5.83012,-49.36357 -0.99259,-81.46913 -1.72706,-8.12701 -2.02771,-8.69974 -6.28111,-11.96497 -7.72191,-5.92793 -23.959,-21.88849 -31.92148,-31.37784 -19.86609,-23.67557 -31.52576,-47.40964 -44.27341,-90.12161 -8.85573,-29.67181 -11.09104,-43.53344 -7.50067,-46.51319 2.28872,-1.89946 12.40332,-0.65978 23.8571,2.92401 5.43014,1.69905 10.04264,3.08918 10.25,3.08918 0.20735,0 0.37966,-6.8625 0.38291,-15.25 0.008,-21.86558 3.18035,-40.0694 9.45339,-54.25386 l 2.48282,-5.6141 -3.63292,-5.47156 c -1.9981,-3.00936 -4.64368,-8.94532 -5.87907,-13.19102 -2.16547,-7.44217 -2.34824,-7.70895 -5.08814,-7.42703 -16.59051,1.70706 -23.00117,15.89508 -15.15457,33.53996 4.10944,9.24101 4.46924,18.64877 0.98748,25.82002 -5.73718,11.81668 -21.82826,20.829 -37.17489,20.82098 -10.28733,-0.005 -13.91056,-4.10766 -7.31322,-8.28016 10.12149,-6.40136 12.08058,-10.52757 8.76549,-18.4617 -2.18374,-5.22642 -4.83228,-7.72862 -13.82612,-13.06216 -4.33062,-2.56815 -9.52348,-6.5377 -11.53968,-8.82122 -8.09083,-9.16354 -12.72645,-23.94955 -11.70917,-37.34815 l 0.56943,-7.5 -5.00376,5.5 c -53.1748,58.44831 -91.935709,142.63481 -103.840226,225.53513 -5.939225,41.35939 -5.370659,92.99239 1.480685,134.46487 8.438457,51.07959 31.173081,110.11284 59.018971,153.25 2.39649,3.7125 4.65273,6.75 5.01387,6.75 0.36114,0 19.42601,-9.64437 42.36638,-21.43195 z m 487.54721,-27.05372 c 32.21356,-3.99818 43.90058,-12.16485 49.09015,-34.30325 1.27907,-5.45642 1.45458,-10.26318 0.9388,-25.71108 -0.78906,-23.63283 0.85113,-33.52395 7.38205,-44.51712 5.38838,-9.06999 5.32719,-11.71291 -0.4133,-17.84996 -9.27167,-9.91216 -20.76174,-12.86282 -35.81813,-9.19812 -8.30051,2.02033 -9.73024,2.07834 -25.64629,1.04053 -18.83082,-1.22786 -27.38997,-0.50918 -40.9758,3.44061 -5.27281,1.53296 -9.26642,3.41213 -11.5933,5.45515 -10.47468,9.19689 -22.54655,9.869 -32.1285,1.78877 -2.79788,-2.35938 -3.27392,-2.47518 -4.43311,-1.07845 -1.40715,1.69552 -8.20428,5.41859 -9.89259,5.41859 -2.32232,0 -0.74834,-2.65042 4.41836,-7.4401 3.88159,-3.59834 7.09717,-8.09283 11.13232,-15.5599 5.72262,-10.58973 13.86585,-23.26155 22.31811,-34.72956 4.9947,-6.77679 8.60709,-8.29782 9.54843,-4.02044 3.82755,17.39202 5.10134,30.81105 3.72577,39.25 -0.5379,3.3 -0.91159,6.06107 -0.83042,6.13571 0.0812,0.0746 4.42259,-0.96538 9.64759,-2.31117 11.58151,-2.983 27.21639,-3.90307 42.74472,-2.5154 9.06081,0.80971 12.45961,0.72157 17.5,-0.45382 3.44041,-0.80228 10.30528,-1.7132 15.25528,-2.02428 l 9,-0.56559 7.62957,-10.13272 c 11.04763,-14.67219 11.13168,-14.8287 9.79936,-18.24775 -0.61831,-1.58674 -1.11984,-6.34671 -1.1145,-10.57772 0.009,-7.05967 0.49964,-8.91127 5.96322,-22.5 7.24157,-18.01085 11.76439,-31.71836 13.22297,-40.07549 1.26436,-7.24436 0.45664,-12.98452 -3.59594,-25.55468 -3.12721,-9.69991 -4.24515,-24.34236 -2.49521,-32.68154 0.63427,-3.02255 3.8252,-11.09696 7.09096,-17.94313 3.26576,-6.84617 5.78005,-12.60527 5.58731,-12.79801 -0.19274,-0.19274 -3.66633,0.84399 -7.71909,2.30385 -26.03263,9.37731 -31.07954,10.71471 -40.86865,10.82993 -5.225,0.0615 -10.625,-0.23921 -12,-0.66823 -2.1153,-0.66001 -2.69235,-0.36004 -3.75,1.94937 -2.90921,6.35232 -1.72715,6.84248 11.49942,4.76842 12.7978,-2.00681 26.57395,-1.55087 33.25058,1.10049 2.475,0.98285 4.66159,1.91291 4.85909,2.06681 0.1975,0.15389 -0.62481,1.66157 -1.82736,3.35039 l -2.18645,3.07058 -2.92264,-2.0811 L 727,372.42732 v 3.61776 c 0,4.30726 -2.14027,8.80285 -5.21679,10.95773 -2.77647,1.94471 -9.00066,2.01674 -12.61823,0.14602 -4.23373,-2.18935 -7.0637,-9.03753 -5.1852,-12.54754 1.33815,-2.50035 -0.39241,-2.72816 -5.2619,-0.69268 -5.81031,2.42875 -6.12915,3.61385 -3.01343,11.20076 3.3017,8.0398 5.59632,9.38971 17.32772,10.1938 5.92654,0.40621 8.28165,0.14942 10.86062,-1.18422 3.66662,-1.89608 5.08646,-1.44029 3.07254,0.98633 -4.29085,5.17016 -15.84772,6.51048 -25.19815,2.92239 -1.37516,-0.5277 -1.32056,0.40144 0.43419,7.38873 l 2.00715,7.99233 7.14574,4.7023 C 719.93159,423.75539 723,426.44135 723,428.30521 c 0,1.92405 -3.20453,0.80654 -9.85922,-3.43819 -2.94757,-1.88012 -5.55804,-3.21958 -5.80105,-2.97657 -0.24301,0.243 0.68819,4.43136 2.06932,9.30744 3.49471,12.33806 5.58399,25.41573 5.58776,34.97608 0.003,6.95903 -0.34431,8.62252 -2.44455,11.7174 -3.80224,5.60291 -8.41029,9.36385 -16.38312,13.37138 -8.22922,4.1364 -17.00023,5.4418 -22.17146,3.2998 -4.26305,-1.76581 -3.70965,-2.99904 1.34577,-2.99904 8.50165,0 22.64959,-6.33627 29.2572,-13.10308 3.45388,-3.53709 3.84198,-4.48457 4.21104,-10.28045 0.51072,-8.0208 -2.06246,-23.69458 -6.33972,-38.61647 -1.81302,-6.325 -4.92705,-17.8 -6.92007,-25.5 -2.82467,-10.91306 -5.07386,-16.8751 -10.20063,-27.0393 l -6.57696,-13.0393 2.61764,-3.85732 C 685.49232,354.08537 687,347.4327 687,335.38201 c 0,-6.44756 0.3986,-10.8185 0.98658,-10.8185 1.36253,0 3.73979,5.99253 4.56787,11.51453 0.67852,4.52473 0.73364,4.5813 3.81701,3.91759 1.7207,-0.3704 9.42854,-2.91062 17.12854,-5.64494 24.41395,-8.66957 25.53102,-8.96807 32.09428,-8.57614 l 6.09428,0.36392 -6.80301,-11.26447 c -3.74166,-6.19545 -9.45621,-15.21232 -12.699,-20.03747 -7.888,-11.73706 -9.13791,-14.40072 -14.56961,-31.049 -5.18241,-15.8842 -10.44824,-27.92986 -16.01164,-36.62686 -4.09211,-6.397 -12.29909,-15.59716 -13.9134,-15.59716 -0.56893,0 -1.9231,0.7875 -3.00926,1.75 -1.51894,1.34601 -1.83946,1.40372 -1.38842,0.25 0.32253,-0.825 1.34224,-3.93829 2.26602,-6.91842 5.36485,-17.30708 -10.68526,-42.72967 -36.79375,-58.27953 -21.3736,-12.72982 -56.95335,-24.37549 -91.26649,-29.87259 -18.6454,-2.98706 -54.45922,-3.73885 -71.5,-1.50089 -30.71811,4.0342 -58.56166,12.82808 -89.17196,28.16337 -5.86957,2.94057 -10.90734,5.72736 -11.19504,6.19286 -0.2877,0.46551 5.79629,-0.62491 13.51998,-2.42315 22.6626,-5.27634 36.84946,-6.68321 61.27752,-6.07671 47.75737,1.18571 84.13442,12.46461 115.43948,35.79262 13.52281,10.07697 32.25142,29.92244 28.23847,29.92244 -0.55254,0 -3.79587,-2.3625 -7.2074,-5.25 -24.57792,-20.80259 -34.88615,-27.98127 -51.913,-36.15236 -26.80295,-12.86257 -56.51723,-18.924 -92.48805,-18.86667 -43.08959,0.0687 -88.34074,13.05962 -120.5,34.59378 -7.39218,4.94988 -21.2979,17.52676 -23.12036,20.91097 -0.81626,1.51574 -0.62967,1.61974 1.47223,0.8206 1.32383,-0.50332 6.43972,-2.9405 11.36865,-5.41595 13.82713,-6.9444 36.40104,-14.3899 54.78702,-18.07027 30.137,-6.03259 75.13993,-8.24693 104.49246,-5.14148 37.13314,3.92863 62.85476,12.2744 76.62927,24.86352 2.9539,2.6997 5.37073,5.30322 5.37073,5.78561 0,0.48238 -5.9625,-2.22505 -13.25,-6.01651 -28.47759,-14.81601 -56.30355,-20.36547 -102.25,-20.3922 -48.59752,-0.0283 -89.97254,8.10481 -129,25.35751 -6.6,2.91763 -13.21698,6.14627 -14.70439,7.17474 -2.42293,1.67533 -11.63035,15.59852 -13.44839,20.33625 -0.46142,1.20244 1.47821,0.17472 5.47589,-2.90143 13.21437,-10.16822 34.18596,-18.86015 56.67689,-23.49043 43.89168,-9.03613 114.83258,-9.02304 143.05758,0.0264 8.64041,2.77026 6.09556,3.47924 -6.97411,1.94295 -28.11022,-3.30426 -77.87916,-3.83312 -104.08347,-1.10602 -40.382,4.20258 -70.90352,14.37073 -90.33787,30.09579 -5.47282,4.42827 -6.19433,5.50039 -9.15322,13.60121 -5.21978,14.29064 -7.01873,24.77785 -7.85539,45.794 -0.61854,15.5373 -0.5072,19.21112 0.61094,20.15843 0.75204,0.63714 4.60019,1.93906 8.55144,2.89317 13.02163,3.14431 35.97557,11.07573 48.78925,16.85844 17.85371,8.05724 29.40289,15.85686 41.7698,28.2088 5.71656,5.70964 10.89579,10.38556 11.5094,10.39093 2.73404,0.0239 12.23372,5.36582 15.27289,8.58828 1.83852,1.9494 3.34276,3.06809 3.34276,2.486 0,-28.35609 3.77965,-42.50969 16.42855,-61.51983 5.0952,-7.6576 20.32426,-23.56422 22.56049,-23.56422 2.06964,0 0.77545,2.19497 -8.85943,15.02585 -12.34207,16.43605 -17.83489,25.98136 -20.92089,36.35591 -2.07559,6.97769 -2.48986,10.89296 -2.94873,27.86824 -0.29364,10.8625 -0.77904,19.75 -1.07867,19.75 -0.29963,0 -4.1755,-3.53186 -8.61305,-7.84858 -4.43755,-4.31672 -9.1272,-8.4074 -10.42144,-9.0904 -2.34506,-1.23754 -2.35047,-1.22685 -1.56938,3.09858 1.99002,11.02024 0.17877,11.65774 -5.10857,1.79803 C 379.78987,376.06628 372.98809,368.48066 359.14934,358.0533 346.41748,348.45997 324.2544,338.42175 300,331.26307 291.475,328.74692 276.01196,324.18519 265.63769,321.12588 245.56775,315.20739 241,314.47937 241,317.19905 c 0,2.09421 9.1761,36.77146 13.19485,49.86446 14.53531,47.35566 36.49517,78.81312 77.3668,110.82779 16.4102,12.85409 27.53706,19.86733 36.92947,23.27659 10.85216,3.93913 21.10254,2.85289 27.38614,-2.90211 C 399.15949,495.25966 404,487.57345 404,485.36773 c 0,-0.99232 0.56961,-1.80422 1.2658,-1.80422 0.89262,0 2.69619,9.36052 6.11752,31.75 7.16476,46.88684 9.64637,55.09505 19.96832,66.0475 6.06342,6.43381 29.02763,23.83071 50.14836,37.99069 50.63763,33.94902 92.92376,52.39069 136.5,59.52987 6.57194,1.07669 39.61369,0.55113 50.52986,-0.80373 z m 5.90999,-24.89795 c -0.93476,-3.72441 0.30385,-22.76008 1.56288,-24.01911 1.74644,-1.74644 2.48491,0.45712 2.85041,8.50546 0.40842,8.9937 -0.24121,13.67815 -2.28437,16.47233 -1.34251,1.836 -1.43833,1.79285 -2.12892,-0.95868 z m -42.84552,-47.46375 c -1.79024,-2.89667 19.82862,-9.79052 33.77753,-10.77104 10.09998,-0.70995 20.4545,0.61423 26.19002,3.34931 4.07749,1.94442 3.98941,3.8814 -0.1595,3.50764 -1.59631,-0.14381 -9.42738,-0.3414 -17.40238,-0.43911 -11.83776,-0.14502 -16.33603,0.23363 -24.5,2.06235 -14.01895,3.14022 -17.13439,3.53881 -17.90567,2.29085 z m 14.43955,-27.0434 c -1.18575,-0.80424 -0.89939,-1.20986 1.49748,-2.12115 14.62604,-5.56081 40.74492,-6.45024 56.7806,-1.93355 8.22128,2.31565 3.15986,3.14244 -20.84486,3.40505 -13.1819,0.14421 -26.6671,0.57311 -29.9671,0.95312 -3.54709,0.40846 -6.59937,0.2844 -7.46612,-0.30347 z m -96.53032,-38.35923 c 2.68909,-13.19235 27.75218,-51.53342 48.4215,-74.07433 19.29005,-21.03675 18.56739,-16.71261 -1.58348,9.47501 -14.83152,19.27471 -28.08134,38.616 -40.29759,58.82403 -3.0008,4.96391 -5.84906,9.02529 -6.32945,9.02529 -0.4804,0 -0.57534,-1.4625 -0.21098,-3.25 z M 676.96421,526.8384 c -1.24586,-4.15833 -1.02006,-19.55237 0.30626,-20.87869 2.05658,-2.05658 3.17425,2.15846 3.2012,12.07254 0.0322,11.84855 -1.46769,15.6143 -3.50746,8.80615 z m 33.23213,-20.96925 c -1.82421,-4.68518 -3.18662,-10.63819 -3.15955,-13.80564 l 0.0256,-3 2.39536,3.89841 c 1.31745,2.14412 2.70141,6.12362 3.07547,8.84333 0.79682,5.79359 -0.67016,8.34467 -2.33691,4.0639 z m -88.49752,-21.40236 c -12.75005,-10.50968 -10.92236,-34.60477 3.06831,-40.45044 4.98991,-2.08492 12.53534,-1.8085 18.29749,0.67031 2.71446,1.16773 4.93538,2.52035 4.93538,3.00583 0,0.49141 -3.72181,0.59661 -8.39603,0.23732 -7.32592,-0.56311 -8.95375,-0.37538 -12.77185,1.47292 -10.54496,5.10474 -11.52937,18.30884 -2.28628,30.66643 2.44979,3.27525 4.45416,6.30136 4.45416,6.72468 0,1.76928 -3.80154,0.55764 -7.30118,-2.32705 z m 40.04501,-1.97453 c -5.20409,-2.74721 -12.37832,-3.92914 -17.74383,-2.92323 -5.12308,0.96045 -6.87515,0.0636 -4.27363,-2.18754 6.61103,-5.7207 17.71708,-4.64271 25.02363,2.42887 5.21731,5.04953 3.82755,6.28938 -3.00617,2.6819 z M 472.98787,467.21225 c -7.4129,-6.153 -29.50564,-29.63404 -33.92362,-36.05536 -1.622,-2.35749 -3.26663,-5.59292 -3.65475,-7.18986 -0.65681,-2.70253 -0.26277,-2.4944 5.69242,3.00664 7.30746,6.75018 9.90124,9.43396 22.40684,23.18436 10.1938,11.20848 16.82251,19.91168 16.31809,21.42494 -0.18754,0.5626 -3.26508,-1.40423 -6.83898,-4.37072 z m -114.7558,1.23755 c -6.19914,-1.14474 -15.90646,-6.65591 -21.40016,-12.14962 -2.81491,-2.81491 -6.32647,-7.94905 -8.55363,-12.50601 -3.70385,-7.57838 -3.77828,-7.95719 -3.77828,-19.23066 0,-9.63783 0.34609,-12.24849 2.13733,-16.1224 2.74092,-5.9278 8.67423,-12.48573 13.54446,-14.97034 2.10001,-1.07135 3.81821,-2.3525 3.81821,-2.84699 0,-2.92313 -21.36486,-22.02342 -24.66501,-22.05065 -0.64076,-0.005 -2.97642,2.04824 -5.19035,4.5634 -3.62711,4.12062 -7.97274,13.4258 -10.70718,22.92698 l -0.8634,3 -0.36507,-4 c -0.79272,-8.68545 3.31012,-21.20974 9.26738,-28.28955 l 2.58716,-3.07465 -24.28177,-12.00123 c -26.46322,-13.07942 -38.70887,-20.3452 -35.22068,-20.8977 1.1336,-0.17955 8.1086,2.13165 15.5,5.13601 26.84501,10.9116 45.12688,20.44617 59.17225,30.86018 15.3897,11.41076 22.78409,20.54536 29.88581,36.91921 4.18674,9.65301 4.1729,9.21299 0.66488,21.126 -3.08809,10.48694 -2.32444,12.65968 7.83238,22.2847 l 8.50846,8.06296 -0.31243,4.88716 c -0.27102,4.23939 -0.71006,5.10974 -3.31243,6.56654 -3.85953,2.16055 -8.89712,2.79843 -14.26793,1.80666 z m 9.20283,-5.86154 c 3.65466,-1.3895 3.23603,-4.4236 -1.06684,-7.73212 -11.53144,-8.86662 -14.30548,-13.07963 -14.34927,-21.79263 -0.0138,-2.75 0.91473,-8.17115 2.06345,-12.04699 l 2.08858,-7.047 -4.00906,-8.6776 -4.00907,-8.6776 -3.26692,1.13886 c -5.07117,1.76782 -11.36101,8.71436 -13.3716,14.76768 -2.75041,8.2807 -1.7901,20.00857 2.32237,28.36218 7.73121,15.70432 23.16219,25.67305 33.59836,21.70522 z m 30.21269,-4.78595 C 396.45625,455.87469 389,435.13904 389,433.75359 c 0,-2.75175 4.8122,2.74648 8.01707,9.15999 1.91654,3.83535 2.98293,7.49991 2.98293,10.25064 0,4.00127 -1.23775,6.44165 -2.35241,4.63809 z m 169.01908,-21.90546 c -1.33403,-1.33403 -0.58719,-2.04057 3.42874,-3.24378 6.71121,-2.01073 17.80244,-7.38126 27.71258,-13.41883 5.1194,-3.1189 9.5069,-5.67073 9.75,-5.67073 0.24311,0 0.44201,0.85485 0.44201,1.89966 0,4.60436 -16.86483,16.13809 -28.90893,19.7706 -4.6913,1.4149 -11.31887,1.76861 -12.4244,0.66308 z M 296.23687,421.31351 C 292.17415,418.4878 285.83459,406.47265 278.59792,387.88306 273.48024,374.73672 265,349.43594 265,347.31368 c 0,-2.27073 3.39732,2.08874 6.62954,8.50706 4.66468,9.26283 28.88924,67.74277 28.06156,67.74277 -0.12059,0 -1.675,-1.0125 -3.45423,-2.25 z m 340.29889,-17.69213 c -0.70709,-1.1441 7.8783,-21.01867 11.68842,-27.05787 2.04195,-3.23656 2.23478,-3.33039 2.56197,-1.24666 1.1639,7.41235 -11.55244,32.6699 -14.25039,28.30453 z m -67.54996,-5.28847 c -7.7491,-2.69961 -20.59288,-9.88526 -26.10976,-14.6075 l -3.95295,-3.38358 -4.70318,2.03588 c -2.58674,1.11973 -4.85589,1.88315 -5.04256,1.69649 -0.88898,-0.88898 2.39069,-4.91319 6.9256,-8.49783 17.65647,-13.95664 40.16372,-16.48161 74.89705,-8.40231 13.51639,3.14404 13.61014,3.17931 12.20055,4.5889 -0.62364,0.62364 -3.17388,1.13389 -5.66722,1.13389 -4.83696,0 -5.53418,0.96116 -3.06513,4.22553 1.93524,2.55863 1.92578,5.44113 -0.0179,5.44113 -3.03134,0 -7.41459,-3.07315 -10.90705,-7.64709 L 600,370.27591 v 4.17592 c 0,9.03281 -5.42656,15.10421 -13.5,15.10421 -8.41382,0 -14.09094,-6.49071 -13.25811,-15.15813 0.52539,-5.46783 0.63195,-5.41447 -7.44267,-3.72683 -5.83419,1.21938 -19.82137,6.69478 -19.76136,7.73575 0.065,1.12728 8.65039,7.50619 14.68961,10.91429 15.43202,8.70872 31.04994,9.52152 41.39618,2.15435 3.74874,-2.66934 4.8723,-1.74121 2.24485,1.85441 -3.5046,4.79598 -8.77755,6.70248 -19.3685,7.00293 -7.77325,0.22052 -10.68404,-0.14299 -16.0142,-1.9999 z M 613,360.0707 c -5.225,-1.38104 -13.55,-3.84955 -18.5,-5.48558 -17.20977,-5.68803 -29.05924,-7.99625 -44.5,-8.66841 -16.69305,-0.72666 -23.92337,0.20474 -40.47272,5.21364 -6.035,1.82658 -11.19946,3.09432 -11.47658,2.8172 -0.27711,-0.27712 1.28561,-2.04981 3.47273,-3.93931 16.13943,-13.94324 37.96796,-27.1244 49.66695,-29.99138 15.58807,-3.82006 35.96823,0.38322 75.23499,15.51672 6.00896,2.31586 14.10896,4.87207 18,5.68046 3.89105,0.80839 7.45042,1.84102 7.90973,2.29473 2.39715,2.36798 -7.26781,12.81039 -15.03776,16.24741 -6.98788,3.09107 -13.47484,3.17504 -24.29734,0.31452 z m 24.08388,-6.75719 c 3.44225,-1.7875 6.3926,-3.7 6.55636,-4.25 0.29728,-0.9985 -45.12582,-16.37845 -62.11609,-21.03209 -19.35939,-5.30254 -26.08599,-4.41155 -46.66707,6.18139 -12.84306,6.61023 -16.184,9.19767 -9.10708,7.0531 2.13839,-0.64801 10.84108,-1.14258 20.25,-1.15079 18.72148,-0.0163 27.55167,1.50927 49.67797,8.58292 28.16466,9.00407 32.10814,9.44365 41.40591,4.61547 z m 24.2946,1.13388 c 0.37498,-1.31113 1.37589,-7.55888 2.22426,-13.88388 0.84838,-6.325 1.91793,-11.88561 2.37679,-12.35691 0.45886,-0.4713 1.32776,1.5537 1.93089,4.5 1.81408,8.86183 -1.47002,22.21011 -5.82123,23.66051 -1.0435,0.34784 -1.22161,-0.13327 -0.71071,-1.91972 z M 661,306.57697 c -3.575,-0.44295 -12.95569,-1.9943 -20.84597,-3.44745 -25.57844,-4.71076 -34.29144,-5.67686 -56.52687,-6.26776 -12.03006,-0.31969 -21.25506,-0.90933 -20.5,-1.3103 3.8114,-2.02402 16.56736,-3.44418 29.87284,-3.32582 15.53033,0.13814 30.40121,1.88346 52,6.10295 19.30674,3.77173 36.41447,3.76281 46.94801,-0.0245 4.09641,-1.47285 7.5945,-2.53142 7.77354,-2.35238 1.13061,1.13061 -1.60787,3.79513 -6.0474,5.88407 -9.32292,4.38674 -21.39589,6.13859 -32.67415,4.74117 z M 449.48791,291.31351 c -8.86207,-10.26839 -12.55689,-22.39107 -12.6972,-41.65937 -0.0941,-12.9291 1.83906,-22.46689 5.59489,-27.60329 2.47248,-3.38132 2.78923,-1.04972 1.0341,7.61221 -1.29999,6.4157 -1.55897,11.31745 -1.12872,21.36328 0.65693,15.33821 2.20981,21.78532 8.24754,34.24134 2.45381,5.06229 4.46148,9.44979 4.46148,9.75 0,1.58631 -2.25266,0.0725 -5.51209,-3.70417 z M 663.5396,207.07175 c -3.76252,-13.89989 -12.14009,-27.95741 -22.7005,-38.09133 -8.39588,-8.0568 -12.014,-10.73184 -26.8391,-19.84328 -12.6569,-7.77887 -12.53633,-8.84284 0.38865,-3.42976 12.89349,5.39989 22.66058,11.88066 32.19446,21.36204 7.74728,7.70461 9.82991,10.52483 14.16098,19.1763 5.08118,10.14982 7.67083,18.92724 7.07375,23.97596 -0.58063,4.90969 -2.47393,3.51572 -4.27824,-3.14993 z m -30.47007,-6.25824 c -9.58962,-14.00316 -18.68491,-24.70099 -27.27489,-32.08057 -14.43136,-12.39786 -33.92076,-22.96493 -55.63166,-30.16322 -10.43272,-3.45899 -41.58473,-10.78448 -47.4032,-11.14701 -1.24288,-0.0774 0.21522,-0.44906 3.24022,-0.82583 10.36658,-1.29117 34.3388,2.38017 49.86219,7.63639 11.24595,3.80789 31.22867,13.53934 40.51381,19.72997 15.80955,10.54061 31.18053,27.04147 40.17929,43.13276 3.94361,7.05182 6.91158,15.46751 5.45495,15.46751 -0.49175,0 -4.51507,-5.2875 -8.94071,-11.75 z m -29.9894,354.70912 c 4.79823,-2.44787 5.57347,-4.2572 7.08138,-16.52741 0.87781,-7.14289 0.87854,-11.71458 0.003,-18.83891 -1.6624,-13.52725 -1.70677,-13.5745 -6.43276,-6.85123 -5.88233,8.36831 -16.03936,24.94381 -19.56658,31.93119 -2.7892,5.52537 -2.92353,6.22725 -1.56347,8.16901 2.99625,4.27775 14.01127,5.41664 20.47841,2.11735 z m 133.17134,-8.99846 c 3.36824,-6.68471 5.46779,-16.3284 6.35952,-29.21066 0.489,-7.06414 0.35862,-9.75 -0.47328,-9.75 -0.6315,0 -3.05833,2.51916 -5.39295,5.59813 -2.33462,3.07897 -7.94825,10.39147 -12.47474,16.25 -4.52649,5.85853 -8.23006,10.87687 -8.23015,11.15187 -10e-5,0.275 2.25251,1.83751 5.00581,3.47225 2.7533,1.63474 6.21041,4.22939 7.68247,5.76589 1.47207,1.53651 3.14794,2.65629 3.72417,2.48841 0.57622,-0.16788 2.28584,-2.76254 3.79915,-5.76589 z M 335.92971,494.4685 c 0.0526,-3.44014 -0.45122,-5.06697 -2.00469,-6.47285 -2.05081,-1.85595 -2.0689,-1.84902 -1.55259,0.59502 0.28732,1.36006 0.82733,5.17284 1.20003,8.47284 0.77646,6.87499 2.237,5.26714 2.35725,-2.59501 z M 715,353.3986 c 4.675,-1.14045 13.79958,-4.04151 20.27684,-6.44679 6.47726,-2.40529 13.56476,-4.65915 15.75,-5.00858 3.66599,-0.58622 3.97316,-0.8815 3.97316,-3.81947 0,-2.39987 -0.76206,-3.74755 -3.09401,-5.47163 -3.97515,-2.93895 -8.56329,-2.34613 -22.40599,2.89503 -13.34164,5.05144 -31.98653,11.01635 -34.43451,11.01635 -1.42208,0 -2.2557,1.02936 -2.99138,3.69377 -0.56095,2.03158 -0.89289,3.82078 -0.73766,3.97602 0.15524,0.15523 2.05554,0.71158 4.2229,1.23632 4.58316,1.10964 7.81262,0.7656 19.44065,-2.07102 z M 233.48371,284.71793 c 10.53562,-4.93021 16.45052,-12.95514 16.49433,-22.37839 0.0141,-3.03254 -1.10762,-7.50819 -3.13283,-12.5 -5.7067,-14.06603 -4.07232,-27.22436 4.32365,-34.80962 5.53742,-5.00272 10.14888,-6.77139 17.9302,-6.87692 5.69196,-0.0772 6.84178,-0.41118 8.36479,-2.42977 1.73657,-2.30165 1.70369,-2.40381 -1.99167,-6.18821 -6.04605,-6.19171 -12.25148,-8.42582 -23.47218,-8.45056 -8.40142,-0.0185 -10.22755,0.31501 -15.79148,2.88423 -12.83914,5.92865 -20.27799,18.38905 -20.28403,33.97663 -0.003,9.03391 0.8838,11.91003 6.77238,21.95245 4.29886,7.33129 4.82521,8.89809 5.15073,15.33231 0.45538,9.00098 -0.98755,13.43817 -6.22989,19.15764 l -4.11771,4.49249 4.97704,-0.67034 c 2.73737,-0.36868 7.69038,-1.94006 11.00667,-3.49194 z m -15.45242,-30.40442 c -7.52012,-11.28825 -9.95938,-21.26716 -8.07244,-33.02404 1.72985,-10.77813 4.59899,-17.13437 10.71726,-23.74283 6.47385,-6.99254 14.88004,-11.53964 24.06896,-13.01948 11.91747,-1.91925 26.33758,2.18567 33.76313,9.61122 l 3.35073,3.35072 4.57859,-6.16138 c 4.04367,-5.44153 4.50362,-6.5763 3.93689,-9.71279 -0.35294,-1.95328 -1.2404,-4.73532 -1.97214,-6.1823 -3.81092,-7.53594 -18.40393,-14.66745 -33.40227,-16.32346 -7.5598,-0.83471 -22.02182,1.84073 -30,5.54993 -27.19005,12.64113 -38.08739,28.03987 -36.8221,52.03233 0.76152,14.44002 7.49316,25.6716 19.63711,32.76404 3.68327,2.15115 7.55143,4.85547 8.59591,6.00961 2.9429,3.25187 4.03625,2.47485 1.62037,-1.15157 z m 73.55107,-35.25 c 7.63599,-12.36813 18.53266,-26.51899 24.66886,-32.03595 4.32933,-3.89245 16.11061,-12.10227 27.03065,-18.8364 4.04699,-2.49568 2.57463,-3.45919 -3.76654,-2.46479 -12.46819,1.9552 -28.15562,9.36719 -37.80787,17.86345 -5.3565,4.71498 -15.18891,17.97478 -19.13856,25.80989 -2.88588,5.72487 -2.87262,7.12885 0.15719,16.64055 1.16318,3.65166 1.81352,4.58355 2.44251,3.5 0.47148,-0.81221 3.35767,-5.52675 6.41376,-10.47675 z m 24.97162,-52.54408 c 8.25318,-4.03486 21.43484,-7.95592 26.74589,-7.95592 h 2.97994 l -0.5849,-5.66712 c -1.33882,-12.97186 -11.61319,-26.3751 -25.13543,-32.78996 -8.60913,-4.08411 -15.38733,-5.57111 -24.8587,-5.4535 l -7.20078,0.0894 4.75164,1.30739 c 14.62873,4.02502 27.87326,19.61971 28.14252,33.13622 0.13118,6.58518 -1.3751,6.84207 -3.49939,0.59681 -5.61139,-16.49711 -15.00113,-25.92053 -29.53911,-29.6451 -7.34734,-1.88236 -11.51732,-1.96365 -20.27375,-0.39523 -7.33771,1.31431 -7.98356,0.9037 5.91809,3.76257 6.89533,1.41802 14,4.79158 14,6.64771 0,1.7378 -0.20145,1.73528 -7,-0.0878 -9.13194,-2.44883 -22.51098,-2.94555 -30.2433,-1.12284 -12.03738,2.83753 -25.14616,10.90878 -33.49198,20.62146 -2.43758,2.8368 -10.49038,14.81113 -14.77434,21.96911 -0.48358,0.808 1.79575,-0.60926 5.06519,-3.14947 17.49955,-13.59642 40.86274,-18.69342 59.44443,-12.96861 15.88392,4.89366 27,14.38338 27,23.04971 v 3.00005 l 7.25,-5.5037 c 3.9875,-3.02704 10.87429,-7.27556 15.30398,-9.44117 z"
       id="path1" /></g></svg>
