<?xml version="1.0" encoding="UTF-8" standalone="no"?>
<!-- Created with Inkscape (http://www.inkscape.org/) -->

<svg
   version="1.1"
   id="svg1"
   width="1024"
   height="1024"
   viewBox="0 0 1024 1024"
   sodipodi:docname="redguard.svg"
   inkscape:version="1.3.2 (091e20e, 2023-11-25, custom)"
   xml:space="preserve"
   xmlns:inkscape="http://www.inkscape.org/namespaces/inkscape"
   xmlns:sodipodi="http://sodipodi.sourceforge.net/DTD/sodipodi-0.dtd"
   xmlns="http://www.w3.org/2000/svg"
   xmlns:svg="http://www.w3.org/2000/svg"><defs
     id="defs1" /><sodipodi:namedview
     id="namedview1"
     pagecolor="#ffffff"
     bordercolor="#000000"
     borderopacity="0.25"
     inkscape:showpageshadow="2"
     inkscape:pageopacity="0.0"
     inkscape:pagecheckerboard="0"
     inkscape:deskcolor="#d1d1d1"
     inkscape:zoom="1.1455078"
     inkscape:cx="511.56352"
     inkscape:cy="511.12703"
     inkscape:window-width="2560"
     inkscape:window-height="1369"
     inkscape:window-x="-8"
     inkscape:window-y="-8"
     inkscape:window-maximized="1"
     inkscape:current-layer="g1" /><g
     inkscape:groupmode="layer"
     inkscape:label="Image"
     id="g1"><path
       style="fill:#000000"
       d="M 483.20588,946.48745 C 301.93851,937.64988 133.94906,807.89816 81.65388,633.87355 36.077738,490.06218 69.807956,324.79151 169.52243,211.34727 261.98511,101.9731 408.88267,44.464393 551.05715,57.949955 712.22674,69.727792 862.5851,175.41111 925.42713,324.73616 c 68.82725,155.40079 38.35815,348.919 -77.51382,473.9471 C 757.45218,900.60091 618.91274,955.80725 483.20588,946.48745 Z M 542.75,934.98722 C 547.61283,903.89734 531.17638,859.31801 521.75734,824.7369 506.20244,771.60974 439.65476,790.07642 399.69339,771.18683 331.68157,752.61534 272.79116,707.80932 233.5,649.66365 c -30.87462,11.60732 -45.31968,30.14157 -11.37176,53.76998 56.9151,69.81524 144.28425,104.87179 231.37176,117.74505 46.68684,11.06666 43.14043,72.27675 54.77646,109.31385 2.13341,12.13084 25.53168,2.36481 34.47354,4.49469 z m -45.09004,-1.67371 c -10.2116,-37.84098 -8.56051,-102.78655 -61.3974,-103.29874 -94.68162,-15.31215 -186.21922,-62.26959 -242.27538,-141.95126 -14.6177,-23.74267 -53.32557,12.15292 -67.50956,21.24722 72.47985,133.54674 218.70623,223.09298 370.72147,225.9282 z m 73.03225,-1.13799 c -3.19019,-44.88157 -17.17251,-89.91421 -11.97305,-134.87886 25.31562,-30.25504 87.51751,-53.28555 52.16483,-105.25451 -18.35739,-4.66225 -21.6253,53.00272 -30.85333,65.02136 -16.52597,-35.90089 53.13792,-102.75073 -18.37971,-96.60402 -56.16495,-16.74656 -106.98222,-49.0387 -153.47689,-84.0681 -36.60411,-20.45675 -9.51941,-86.26524 -57.92434,-83.39563 -34.90779,-46.32211 -17.4637,24.95539 -27.61409,46.91881 -3.77459,45.52933 -31.45366,87.47206 -75.2995,103.04357 5.34863,19.30742 32.64595,43.67844 50.13687,60.0501 56.12466,48.97931 130.816,63.44473 201.51209,77.27107 44.81031,24.63046 43.7066,85.03497 55.45837,128.87551 4.66543,11.76604 -2.82656,31.14997 16.24875,23.0207 z M 534.2139,743.31351 c -3.42809,-24.9399 33.23196,-53.6516 37.71004,-64.2101 -3.65247,25.71086 -35.95526,54.87135 -37.77188,72.76855 l 0.0619,-8.55845 z m -63.54378,2 c -33.00001,-45.45723 -64.86011,-94.80739 -73.32809,-151.42537 22.8726,53.31103 51.03067,105.20649 78.27999,155.68281 l -1.07413,-0.34241 z M 601.4399,926.98395 c 32.23184,-18.69538 -22.02682,-82.70207 10.03803,-113.51484 41.89026,-13.25114 83.45108,-90.01598 26.70168,-108.78441 -21.55995,-9.66222 6.50302,53.0003 -24.89451,63.86411 -51.10108,12.50172 -50.17267,61.0746 -38.75692,103.0239 5.7438,16.92336 1.05218,47.85183 11.43823,58.40586 l 6.00294,-1.12484 z m 52.24478,-14.00936 C 715.97157,891.53412 774.25923,857.06518 821,810.44274 782.22382,767.50084 724.07384,749.9571 674.49855,722.75628 c 8.66478,38.14443 -12.99151,77.11934 -47.86511,93.46913 -26.87121,22.9384 -8.19402,84.65322 5.31709,103.48025 7.32725,-1.97156 14.5258,-4.37394 21.73415,-6.73107 z M 835.61961,795.31351 C 955.29505,669.02646 985.17186,468.29154 907.07201,312.69855 834.49915,158.69394 664.96174,60.158338 495.56723,68.186913 333.34504,71.454865 177.95862,172.9611 112.58822,321.95523 58.290731,438.68429 60.746569,580.07248 118.91265,694.87616 159.82986,677.17133 198.53088,654.50889 237.5,632.85478 c 4.80418,-15.33029 10.34361,-79.96922 -2.22989,-33.29127 -14.24155,49.4116 -7.51004,-37.35674 0.58616,-50.82567 3.13199,-20.94655 46.23304,-68.34421 4.9548,-34.06641 -17.10408,7.66808 -26.73905,70.59445 -31.30386,56.50958 -14.57879,-54.41395 41.76397,-76.9978 66.67317,-108.24311 10.54353,-33.48186 18.2419,-63.16017 15.46487,-99.97471 5.43134,-34.0163 -24.03891,-73.45662 -4.56532,-110.55801 3.7762,-43.21568 31.89847,-80.49285 65.56517,-106.92276 32.38842,-23.75497 70.81892,-23.48308 107.45166,-29.99977 41.42636,2.0718 88.68802,-8.78136 126.88306,14.60523 41.76056,11.98937 69.23322,47.41337 90.57415,83.33919 27.95093,37.21992 32.42118,84.9627 52.68867,125.88614 -18.35055,40.67582 1.49706,85.21888 -12.81237,128.146 -16.62535,54.73367 -24.89911,111.86408 -41.66567,166.33478 -1.57223,39.3918 -106.56383,21.45741 -49.94147,52.02571 62.18789,33.02909 128.96351,58.31612 186.86016,98.82113 8.75456,0.95153 14.6284,28.70406 22.93632,10.67268 z M 509.23771,603.71948 c -6.54373,-45.84033 15.39617,-99.62381 66.81625,-105.29061 33.47976,-11.75841 56.70895,16.92992 86.2426,0.29407 25.98259,-3.93284 29.53575,58.55646 35.38379,9.99524 8.62515,-37.45473 27.11329,-76.09571 12.08584,-114.52692 6.88795,-33.53663 -18.54099,2.55092 -8.46008,-17.94146 -15.84096,-15.63765 -20.01935,42.64575 -38.54398,6.42972 -5.81843,-26.021 -31.11291,9.38831 -9.1296,22.60768 10.93136,31.3593 35.28996,58.27173 30.96202,93.77631 -2.0381,-38.66786 -49.89564,12.62013 -74.44761,-14.96125 -21.2749,3.56883 -48.98245,0.39163 -50.41896,-16.03875 -12.16162,11.42146 -51.04708,67.39297 -25.40946,21.07369 10.73836,-18.84621 38.44549,-54.41639 53.76932,-47.67335 -33.09939,11.84288 -13.27636,52.88754 16.29998,32.33862 37.91414,26.91439 74.73859,-6.78855 48.70479,-47.42457 -21.97057,-28.67354 -19.56216,-74.33406 -12.79132,-97.99185 1.11471,51.92018 48.82324,-17.02684 75.49008,3.40476 -21.96593,-39.37691 -22.82197,-92.4574 -58.50165,-122.59307 -4.28375,-10.31345 -23.38152,-60.1044 -17.65408,-16.48486 6.61703,49.10014 -38.63235,-39.79011 -40.30758,-1.56666 11.57265,44.38564 -34.03517,-52.01185 -57.13692,-8.56203 16.76997,16.86616 20.43804,33.21417 -2.49028,11.85805 -18.15336,-23.76931 -68.42941,-3.39865 -24.13341,12.14791 -16.102,0.0272 -63.88382,-24.51835 -92.04074,-29.04596 -22.92947,-7.42697 -48.32624,-16.49415 -65.77806,7.50279 -10.3616,9.6573 -45.11507,44.44551 -11.74865,31.8467 -30.2881,26.06509 -40.99927,61.23119 -38.01724,103.01477 -8.22766,39.74552 61.41365,5.48461 66.38147,50.51802 -9.18603,-10.05185 -85.87374,-45.20409 -74.63697,16.1295 -0.505,39.60483 36.9632,109.85025 80.13576,94.56248 14.01306,4.76623 6.5275,66.92045 31.14521,83.21657 26.97652,21.77047 77.03824,59.25041 98.54995,56.22431 l -0.13034,-7.58166 z M 441.26355,492.32781 c -16.39537,-26.7336 -62.04459,-74.96959 -44.51619,-95.00206 0.60191,38.49881 56.02358,71.88495 48.16345,102.16429 z m -75.46142,-31.77197 c -23.82263,-20.24134 5.13266,-54.97662 -25.18206,-75.71402 -35.36475,18.59464 26.98753,93.63919 -13.2477,43.53495 -14.45064,-16.67822 22.89934,-78.32718 -12.6497,-46.24281 -10.17924,30.37172 -9.11007,-43.23963 18.13967,-16.84525 40.23213,19.68488 29.35514,79.21333 32.93979,95.26713 z m 174.39018,-54.3808 c 19.80864,-11.88767 40.0561,-21.09516 8.83233,-0.41146 -1.20059,0.98744 -21.56353,3.0935 -8.83233,0.41146 z M 676.5,405.48849 c -31.30055,-10.35399 -17.86659,-15.44692 6.2687,0.1797 L 676.5,405.48817 Z M 529.75908,394.16371 c -4.20917,-17.70192 -27.61359,-32.85588 -31.30794,-12.87645 29.27472,21.33234 -45.97502,-9.15584 -6.09443,-13.44652 15.95508,-13.48433 81.76813,-6.28742 32.0481,-19.93001 -19.50672,-18.32246 -72.81936,9.02477 -66.9048,-2.30596 33.16108,-43.12191 84.22458,-13.22253 124.54082,-1.22474 27.44519,21.1145 31.90749,-55.58782 31.10626,-2.86881 -0.64492,36.98307 -66.14289,4.73501 -34.2414,42.97139 -0.30335,10.7854 -36.50376,-37.21305 -28.07258,-0.88281 -2.19636,9.15845 -12.5212,13.53701 -21.07403,10.56391 z m 14.53731,-17.69542 c -0.70325,-21.93431 -20.37766,6.43783 0,0 z M 403,347.20239 c 9.33162,-23.08424 29.68079,-52.48162 17.49122,-74.05267 25.85905,21.79194 -2.95858,62.1201 -17.49122,74.05267 z m 3.5,-96.77992 c -40.54776,4.34799 -17.66604,-26.85331 5.3702,-26.21608 40.15133,5.91164 14.37784,19.65582 -5.3702,26.21608 z m -41.89712,-7.95768 c -30.56662,-9.9898 54.27687,-43.16468 20.41627,-13.19654 -7.29517,4.09262 -8.80147,20.39066 -20.41627,13.19654 z M 335,240.89656 c 1.18275,-23.7486 50.50354,-37.33301 19.67035,-9.07373 -3.44695,11.06519 -9.24941,11.04606 -19.67035,9.07373 z m -78.16793,380.91695 c 16.82204,-32.92547 19.69739,-90.2927 27.73692,-112.98741 -28.73638,24.70409 -30.25095,96.96467 -27.73696,112.98741 z m 335.5142,-14.02022 c 17.49129,-23.99919 49.46245,-11.63013 65.78371,1.84262 32.24363,-26.37065 23.53837,-103.4375 -30.45652,-86.17214 -21.08266,-9.53353 -79.76103,13.22807 -72.58228,21.78348 33.50821,-7.73855 98.28437,-10.40242 112.48373,4.26236 -40.70887,-1.15149 -82.44293,2.7243 -122.86241,-1.23209 -26.44501,33.98179 9.41223,73.61225 47.63377,59.51577 z m 14.56063,-24.17527 c -24.5986,-1.51729 -53.18499,-25.32714 -10.6223,-12.10133 20.03721,1.66899 55.2222,5.5441 62.91144,0.50291 -12.94535,15.64812 -34.39886,11.93477 -52.28914,11.59842 z M 292.555,594.03865 c 16.37748,-16.52328 12.81646,-94.38434 2.08727,-34.97514 1.681,5.38079 -14.28529,54.14497 -2.08727,34.97514 z m 22.82,-95.60014 c 12.55715,-29.5021 -60.68313,-32.45836 -28.2656,-6.39641 6.2971,2.18549 23.41596,15.98493 28.2656,6.39641 z m 354.57225,-19.82225 c 8.23178,-18.44747 -5.81268,-38.97338 -1.63992,-9.20425 1.46099,3.14955 -8.82868,16.26046 1.63992,9.20425 z M 316.79104,467.35965 c -2.77234,-19.02419 -35.11333,-49.38804 -32.03788,-9.1323 6.90946,4.50524 32.49764,28.6686 32.03788,9.1323 z M 682.8,379.36351 c 4.85126,-18.60233 -17.08796,2.33908 0,0 z m -35.2183,-13.55163 c -6.70469,0.15458 -5.55494,10.30774 0,0 z m 64.15365,1.65566 c 38.8302,-44.91734 -71.68985,-5.20054 -31.98092,-6.40403 11.37756,-4.43863 24.68079,6.49531 31.98092,6.40403 z M 296.43157,324.31351 c -5.18199,-29.9987 -7.86683,-1.94795 0.25989,10.25 l 0.0887,-3.01094 z m 0.9343,-42.48488 c -0.5568,-46.84779 -15.08765,11.35044 -1.21059,14.44252 l 0.63262,-5.65949 z m 8.07025,-44.49573 c 5.79137,-56.78453 -14.85365,41.88306 0,0 z m 28.35127,-49.56443 c 8.44197,-24.0425 -37.61471,40.7356 -4.76671,5.99113 z m 298.87603,-2.41374 c 3.41391,-23.75339 -50.64561,-54.82423 -18.18697,-20.14434 4.18683,3.04641 21.89437,43.03606 18.18697,20.14434 z m -148.76685,-8.87766 c 43.34437,-2.59319 6.45826,-24.6175 -15.72722,-9.41969 -38.41021,7.23343 0.26048,14.64598 15.72722,9.41969 z m 111.86729,-4.91356 c 28.75649,-7.83588 -40.16795,-25.16956 -4.70169,1.94481 z m -58.56248,-4.64655 c 34.24172,-4.10983 19.15303,-27.14584 -6.17615,-15.40102 -29.58806,3.50944 -12.1274,24.18499 6.17615,15.40102 z m -178.8612,-2.01716 c 58.9772,-41.78405 -41.56731,12.43983 0,0 z m 89.3511,-4.30369 c 14.81151,-7.43157 43.42809,-16.10569 10.20077,-18.93488 -25.50218,7.83331 -64.20131,31.45758 -10.20077,18.93488 z m -45.73298,-6.11707 c 21.10918,-9.31937 39.40844,-29.65771 3.16651,-19.0315 -18.8077,4.17438 -35.72195,22.05439 -3.16651,19.0315 z m 109.81294,-8.51414 c 48.92434,-31.88092 -60.35752,-0.62039 -4.84361,4.14381 z m 70.11393,-6.73461 c -31.85879,-26.32303 -32.54529,2.78334 -7.37038,5.44775 1.75243,-1.74153 14.91088,-2.43031 7.37038,-5.44775 z m -99.43606,-6.01117 c 0.99902,-15.34984 -43.6816,-4.6342 -7.94911,2.11216 l 4.204,0.9889 z"
       id="path1" /></g></svg>
