<?xml version="1.0" encoding="UTF-8" standalone="no"?>
<svg xmlns:ffdec="https://www.free-decompiler.com/flash" xmlns:xlink="http://www.w3.org/1999/xlink" ffdec:objectType="shape" height="260.0px" width="223.0px" xmlns="http://www.w3.org/2000/svg">
  <g transform="matrix(1.0, 0.0, 0.0, 1.0, 136.95, 134.0)">
    <path d="M-93.95 20.0 L-93.95 18.0 Q-101.0 24.85 -99.95 38.0 -101.45 34.0 -104.45 31.65 -124.45 16.45 -124.95 -18.0 -121.6 -31.65 -116.15 -43.1 L-115.95 -44.0 Q-98.05 -27.4 -93.05 2.0 L-92.95 3.0 Q-74.55 -51.6 -13.95 -63.9 L-12.95 -64.0 Q-6.0 -83.55 -4.45 -103.0 L-4.95 -103.0 Q-13.55 -106.2 -9.5 -116.85 L-8.95 -117.0 Q-3.1 -120.8 3.2 -116.25 L4.05 -116.0 Q2.95 -124.7 5.9 -133.05 L6.05 -134.0 Q23.3 -133.7 39.55 -128.6 55.65 -123.6 69.05 -117.0 L71.05 -116.0 Q67.05 -106.05 66.55 -98.0 L67.05 -98.0 Q76.1 -95.6 73.2 -85.95 L73.05 -85.0 Q67.25 -82.8 60.05 -82.05 L59.05 -82.0 Q54.05 -65.0 50.15 -47.0 L50.05 -46.0 Q76.2 -27.15 84.2 9.95 88.55 30.3 82.55 49.85 65.75 104.7 3.05 114.0 L2.05 114.0 -13.95 114.0 -14.95 113.9 Q-51.25 107.8 -69.95 89.0 L-69.7 89.85 Q-57.35 107.9 -35.95 117.0 L-35.7 117.65 Q-31.6 120.6 -33.95 126.0 L-36.55 125.8 Q-60.15 117.65 -72.95 98.0 L-73.9 98.15 Q-81.4 101.05 -92.95 100.0 -92.95 99.5 -93.1 99.45 -104.35 96.4 -111.95 90.0 L-111.1 89.75 Q-103.0 84.45 -88.95 85.0 L-88.75 85.6 Q-81.4 88.95 -76.95 90.0 -81.3 84.35 -86.6 79.65 -88.45 78.0 -90.35 77.5 -129.05 67.1 -136.95 27.0 -106.6 31.65 -92.2 52.15 -92.0 52.4 -91.95 52.8 -92.45 44.35 -93.9 32.0 L-93.95 31.0 -93.95 30.0 -93.95 20.0 M1.05 102.0 Q59.25 94.7 70.85 40.95 76.6 14.15 64.95 -5.35 52.6 -26.05 36.05 -43.0 L36.15 -44.0 Q41.1 -66.95 47.05 -89.0 L46.1 -89.15 Q28.1 -95.05 11.05 -97.0 L10.5 -96.9 Q4.45 -73.6 -3.95 -53.0 L-4.95 -52.95 Q-69.05 -44.6 -81.95 15.0 -82.55 93.6 -12.95 101.95 L-11.95 102.0 Q-6.7 103.75 0.95 102.5 L1.05 102.0 M-73.95 19.0 L-73.95 18.0 -73.95 14.0 -69.5 -0.85 -68.95 -1.0 Q-27.0 -10.05 -1.45 10.35 18.5 26.25 47.9 18.4 56.25 16.2 63.05 12.0 68.55 55.6 43.1 78.2 25.45 93.9 -5.95 94.65 -29.65 95.2 -44.5 85.9 -70.0 70.05 -73.95 33.0 L-73.95 32.0 -73.95 19.0 M17.05 -121.0 Q15.9 -112.85 21.05 -110.95 26.45 -108.9 32.25 -106.25 44.35 -100.8 54.05 -106.0 L53.35 -108.7 Q36.9 -115.85 17.05 -121.0 M36.8 44.45 Q41.15 34.05 31.05 40.0 30.3 44.25 32.65 45.7 35.55 47.45 36.8 44.45 M-50.95 35.0 L-50.9 35.5 Q-41.25 36.2 -39.95 28.0 L-40.1 27.05 Q-45.1 12.3 -55.95 24.0 -55.95 28.0 -55.45 31.95 L-54.95 32.0 Q-54.1 34.15 -51.9 34.85 L-50.95 35.0 M-36.2 54.75 Q-31.75 67.5 -21.95 58.0 -21.0 56.95 -20.95 55.0 -20.95 52.5 -22.15 50.85 -28.65 41.85 -36.95 50.0 -36.95 52.5 -36.2 54.75 M-106.9 4.0 Q-106.0 13.05 -103.95 21.0 L-103.45 21.0 Q-103.9 10.95 -106.95 3.0 L-106.9 4.0 M-94.95 64.0 Q-90.0 69.65 -93.35 63.2 L-93.95 63.0 Q-93.95 62.5 -94.2 62.3 -102.5 56.05 -111.95 51.0 -104.5 58.05 -95.8 63.75 L-94.95 64.0 M-84.95 73.0 Q-83.6 75.65 -81.45 77.55 L-80.95 78.0 Q-77.95 73.5 -84.95 73.0" fill="#0a0a09" fill-rule="evenodd" stroke="none"/>
    <path d="M-93.95 31.0 L-94.45 30.95 Q-94.95 25.5 -94.95 20.0 L-93.95 20.0 -93.95 30.0 -93.95 31.0" fill="#acabab" fill-rule="evenodd" stroke="none"/>
    <path d="M-106.9 4.0 L-106.95 3.0 Q-103.9 10.95 -103.45 21.0 L-103.95 21.0 Q-106.0 13.05 -106.9 4.0" fill="#eaeae9" fill-rule="evenodd" stroke="none"/>
    <path d="M-73.95 19.0 L-73.95 32.0 -73.95 33.0 -74.45 32.95 Q-74.95 26.0 -74.95 19.0 L-73.95 19.0" fill="#6f6e6d" fill-rule="evenodd" stroke="none"/>
    <path d="M-54.95 32.0 L-54.95 31.0 Q-50.05 34.1 -49.45 35.0 L-50.95 35.0 -51.9 34.85 Q-54.1 34.15 -54.95 32.0" fill="#fdfdfd" fill-rule="evenodd" stroke="none"/>
    <path d="M-54.95 32.0 L-55.45 31.95 Q-55.95 28.0 -55.95 24.0 -45.1 12.3 -40.1 27.05 L-39.95 28.0 Q-41.25 36.2 -50.9 35.5 L-50.95 35.0 -49.45 35.0 Q-50.05 34.1 -54.95 31.0 L-54.95 32.0" fill="#ecebea" fill-rule="evenodd" stroke="none"/>
    <path d="M17.15 -19.05 L17.05 -20.0 Q29.1 -31.6 32.55 -14.0 L32.05 -14.0 Q21.15 -4.0 17.15 -19.05 M7.05 0.0 Q17.7 -4.15 11.6 6.1 11.05 7.0 9.4 6.25 6.55 5.0 7.05 0.0" fill="#0c0c0b" fill-rule="evenodd" stroke="none"/>
    <path d="M36.8 44.45 Q35.55 47.45 32.65 45.7 30.3 44.25 31.05 40.0 41.15 34.05 36.8 44.45" fill="#e8e7e6" fill-rule="evenodd" stroke="none"/>
    <path d="M-36.2 54.75 Q-36.95 52.5 -36.95 50.0 -28.65 41.85 -22.15 50.85 -20.95 52.5 -20.95 55.0 -21.0 56.95 -21.95 58.0 -31.75 67.5 -36.2 54.75" fill="#eeedec" fill-rule="evenodd" stroke="none"/>
    <path d="M1.05 102.0 L0.95 102.5 Q-6.7 103.75 -11.95 102.0 L0.05 102.0 1.05 102.0" fill="#5f5f5e" fill-rule="evenodd" stroke="none"/>
    <path d="M3.05 114.0 L3.0 114.5 -13.95 114.0 2.05 114.0 3.05 114.0" fill="#787775" fill-rule="evenodd" stroke="none"/>
    <path d="M-84.95 73.0 Q-77.95 73.5 -80.95 78.0 L-81.45 77.55 Q-83.6 75.65 -84.95 73.0" fill="#e5e4e4" fill-rule="evenodd" stroke="none"/>
    <path d="M-93.95 63.0 Q-93.95 63.5 -94.2 63.75 L-94.95 64.0 -95.8 63.75 Q-104.5 58.05 -111.95 51.0 -102.5 56.05 -94.2 62.3 -93.95 62.5 -93.95 63.0" fill="#e9e8e8" fill-rule="evenodd" stroke="none"/>
    <path d="M-94.95 64.0 L-94.2 63.75 Q-93.95 63.5 -93.95 63.0 L-93.35 63.2 Q-90.0 69.65 -94.95 64.0" fill="#c2c2c2" fill-rule="evenodd" stroke="none"/>
  </g>
</svg>
