<?xml version="1.0" encoding="UTF-8" standalone="no"?>
<svg xmlns:ffdec="https://www.free-decompiler.com/flash" xmlns:xlink="http://www.w3.org/1999/xlink" ffdec:objectType="shape" height="187.2px" width="186.45px" xmlns="http://www.w3.org/2000/svg">
  <g transform="matrix(1.0, 0.0, 0.0, 1.0, 93.5, 93.05)">
    <path d="M60.4 -65.3 Q54.45 -54.8 50.8 -65.9 58.55 -79.15 61.3 -68.15 61.55 -67.3 60.4 -65.3" fill="#1a1b1a" fill-rule="evenodd" stroke="none"/>
    <path d="M28.55 -77.6 Q26.95 -75.6 26.75 -78.75 L26.55 -84.45 Q37.75 -89.45 28.55 -77.6" fill="#191816" fill-rule="evenodd" stroke="none"/>
    <path d="M7.9 -62.3 L-6.35 -63.05 -6.35 -61.6 Q-33.9 -57.05 -45.9 -36.45 -59.75 -12.9 -47.6 16.35 -45.2 22.2 -40.35 26.4 -29.85 35.4 -29.2 47.0 L-30.55 46.75 Q-55.9 37.25 -62.05 1.25 L-62.05 -0.15 -62.05 -13.0 -62.05 -14.45 -62.05 -17.3 Q-52.85 -61.65 -7.75 -70.05 L-6.35 -70.15 5.1 -70.15 6.55 -70.15 Q54.65 -63.3 63.55 -17.3 L63.7 -15.9 63.7 -0.15 63.7 1.25 Q64.1 8.1 62.7 12.85 56.9 31.4 49.4 18.4 54.65 13.0 55.1 2.7 L55.1 1.25 55.8 1.1 Q57.6 -7.65 55.1 -13.0 L54.95 -14.45 Q48.05 -54.5 7.95 -61.6 L7.9 -62.3" fill="#0f0f0e" fill-rule="evenodd" stroke="none"/>
    <path d="M10.8 -48.75 Q33.95 -40.45 41.45 -16.1 L42.25 -15.9 Q43.55 35.4 -7.75 34.15 L-9.2 34.15 Q-33.2 26.0 -39.05 -0.15 L-39.2 -1.6 -39.2 -3.0 -39.2 -13.0 -39.2 -14.45 -39.2 -17.3 Q-32.35 -40.45 -9.4 -47.95 -9.2 -48.0 -9.2 -48.75 L9.4 -48.75 10.8 -48.75 M7.9 -39.45 L-4.9 -40.15 -4.9 -38.75 -6.25 -38.5 Q-24.4 -33.25 -30.6 -15.9 -31.25 -3.8 -29.35 5.55 L-29.2 7.0 Q-23.35 16.1 -13.75 21.75 -13.45 22.0 -13.45 22.7 -4.85 25.5 6.55 25.55 L7.95 25.55 Q25.75 19.05 32.9 1.5 32.95 1.25 33.65 1.25 34.6 -31.8 9.3 -38.5 L7.95 -38.75 7.9 -39.45" fill="#100f0f" fill-rule="evenodd" stroke="none"/>
    <path d="M67.95 -44.45 Q86.2 -46.95 71.2 -39.6 66.55 -37.3 67.95 -44.45" fill="#1a1919" fill-rule="evenodd" stroke="none"/>
    <path d="M76.55 -23.0 Q90.4 -28.5 92.95 -18.75 L92.25 -18.75 Q81.1 -13.45 76.8 -21.75 76.55 -22.3 76.55 -23.0 M-72.25 32.7 Q-73.5 34.15 -76.35 33.85 -78.75 33.7 -77.75 29.85 -62.55 21.5 -72.25 32.7" fill="#141413" fill-rule="evenodd" stroke="none"/>
    <path d="M89.4 7.0 L79.4 7.0 77.95 6.85 Q74.3 6.35 75.1 1.25 89.8 -2.0 91.55 7.0 L90.8 7.0 89.4 7.0" fill="#131312" fill-rule="evenodd" stroke="none"/>
    <path d="M50.1 32.7 Q35.6 54.65 0.8 57.0 1.25 63.7 10.9 61.4 L12.25 61.25 23.6 60.55 23.65 59.85 Q49.75 50.9 68.25 34.5 68.7 34.15 69.4 34.15 77.55 33.15 77.9 39.85 L77.95 41.25 Q64.1 51.0 51.65 62.2 39.65 73.0 20.8 77.0 L19.4 77.0 3.65 77.0 2.25 77.0 -9.2 77.0 -9.2 78.4 -10.55 78.65 Q-26.6 84.55 -39.2 94.15 -39.2 93.4 -39.5 93.2 -54.9 84.15 -62.05 67.0 -56.1 63.35 -50.6 63.25 -45.85 63.2 -41.85 60.05 -30.7 51.2 -17.75 44.15 L-2.05 44.15 -0.6 44.15 10.75 43.4 10.8 42.7 Q18.6 43.35 22.55 40.2 36.1 29.55 49.4 32.7 L50.1 32.7" fill="#080808" fill-rule="evenodd" stroke="none"/>
    <path d="M-93.5 -24.45 Q-79.0 -26.8 -75.2 -18.6 -74.9 -18.0 -74.9 -17.3 -89.7 -14.65 -93.2 -23.1 L-93.5 -24.45" fill="#171716" fill-rule="evenodd" stroke="none"/>
    <path d="M-33.7 -79.45 Q-34.5 -81.3 -33.5 -85.9 -21.9 -86.75 -31.0 -77.65 -32.35 -76.3 -33.7 -79.45" fill="#191918" fill-rule="evenodd" stroke="none"/>
    <path d="M-3.55 -82.75 Q-4.25 -86.55 -3.45 -93.05 8.8 -93.45 -0.95 -81.65 -2.95 -79.25 -3.55 -82.75" fill="#1c1d1c" fill-rule="evenodd" stroke="none"/>
    <path d="M-54.9 -61.6 Q-60.25 -65.55 -63.2 -71.75 L-63.5 -73.05 Q-50.35 -73.9 -54.55 -60.95 -55.05 -59.25 -54.9 -61.6" fill="#131414" fill-rule="evenodd" stroke="none"/>
    <path d="M-70.4 -39.6 L-73.4 -39.9 Q-77.7 -40.25 -77.75 -45.9 -60.55 -45.1 -70.4 -39.6" fill="#111111" fill-rule="evenodd" stroke="none"/>
    <path d="M-92.05 2.7 Q-80.1 -2.6 -77.55 6.35 -77.25 7.5 -81.9 8.1 -91.6 9.4 -92.05 2.7" fill="#101210" fill-rule="evenodd" stroke="none"/>
  </g>
</svg>
