<?xml version="1.0" encoding="UTF-8" standalone="no"?>
<svg xmlns:ffdec="https://www.free-decompiler.com/flash" xmlns:xlink="http://www.w3.org/1999/xlink" ffdec:objectType="shape" height="229.5px" width="185.0px" xmlns="http://www.w3.org/2000/svg">
  <g transform="matrix(1.0, 0.0, 0.0, 1.0, 100.05, 114.2)">
    <path d="M33.15 -101.85 L33.2 -100.95 33.2 -94.8 33.2 -93.9 Q32.8 -85.45 28.75 -80.7 17.35 -67.35 14.7 -45.35 18.5 -37.25 23.45 -30.3 28.6 -23.05 30.85 -14.1 38.4 15.7 16.45 26.15 L15.75 26.35 Q13.35 28.3 11.15 26.15 4.9 11.2 -9.9 4.65 -33.65 -5.85 -34.75 -39.15 -23.1 -68.55 1.15 -85.45 15.65 -95.55 22.55 -113.9 22.6 -114.2 23.5 -114.2 32.6 -112.25 33.15 -101.85 M83.5 -13.6 Q85.0 -13.65 84.95 -11.8 84.65 0.3 80.25 11.6 65.95 48.45 71.15 95.85 70.7 95.85 70.5 96.1 50.35 114.3 12.9 115.3 7.15 102.1 -3.2 93.3 L-24.2 75.5 Q-44.9 57.9 -66.65 41.05 -69.5 38.8 -71.25 35.9 -87.15 9.25 -100.05 -19.75 L-100.05 -20.65 -100.05 -27.7 Q-82.7 -31.3 -74.8 -16.1 L-72.15 -10.25 Q-62.7 13.05 -42.45 25.8 -22.1 38.65 4.1 45.55 7.85 47.1 13.7 46.0 L13.8 45.55 Q48.25 39.0 56.75 6.65 62.1 -13.8 83.5 -13.6" fill="#0b0b0a" fill-rule="evenodd" stroke="none"/>
  </g>
</svg>
