<?xml version="1.0" encoding="UTF-8" standalone="no"?>
<svg xmlns:ffdec="https://www.free-decompiler.com/flash" xmlns:xlink="http://www.w3.org/1999/xlink" ffdec:objectType="shape" height="201.2px" width="201.3px" xmlns="http://www.w3.org/2000/svg">
  <g transform="matrix(1.0, 0.0, 0.0, 1.0, 100.95, 100.05)">
    <path d="M30.7 -0.5 L30.7 -2.1 Q31.5 -2.1 31.9 -2.5 32.3 -2.9 32.3 -3.7 33.9 -4.5 35.1 -5.7 35.5 -6.1 35.5 -6.95 41.95 -12.55 47.95 -18.55 48.35 -18.95 48.35 -19.75 49.95 -20.55 51.15 -21.75 51.55 -22.2 51.55 -23.0 56.4 -27.0 60.8 -31.4 61.2 -31.8 61.2 -32.6 69.15 -39.1 75.25 -47.4 75.65 -47.85 75.65 -48.65 77.25 -49.45 78.45 -50.65 78.85 -51.05 78.85 -51.85 84.1 -53.9 91.7 -54.3 L91.7 -55.1 93.3 -55.1 Q102.15 -56.7 99.9 -47.0 L99.75 -45.45 Q99.75 -44.65 99.4 -44.0 98.95 -43.05 98.15 -42.25 L98.15 -34.2 98.15 -32.6 Q82.5 -12.15 64.6 6.1 46.6 24.2 25.9 39.65 25.1 39.65 24.95 39.3 22.3 33.6 21.05 26.8 24.1 25.0 25.1 20.5 L25.9 20.35 Q33.85 24.7 42.65 14.25 L82.05 -32.6 Q70.3 -29.15 59.7 -16.5 50.15 -5.15 38.75 4.3 37.95 4.3 37.75 4.0 35.85 -0.1 30.7 -0.5" fill="#0e0d0d" fill-rule="evenodd" stroke="none"/>
    <path d="M5.0 -79.15 Q5.0 -78.35 5.35 -77.7 8.8 -70.1 9.85 -59.9 10.65 -59.9 10.9 -59.5 14.1 -54.5 17.85 -50.25 L19.45 -50.1 Q28.55 -48.1 35.5 -43.85 L35.35 -42.95 Q18.1 -38.8 9.85 -26.2 L9.85 -24.6 Q9.2 -13.2 3.4 -6.95 2.6 -6.95 2.6 -7.1 -0.6 -24.6 -9.45 -35.8 L-10.95 -36.05 Q-20.4 -39.25 -28.7 -43.85 -21.0 -46.6 -14.1 -49.95 L-12.65 -50.25 Q-7.0 -52.7 -4.85 -58.35 L-4.6 -59.9 Q-3.8 -59.9 -3.75 -60.15 -0.45 -71.0 5.0 -79.15" fill="#0d0d0d" fill-rule="evenodd" stroke="none"/>
    <path d="M33.9 -72.75 L33.6 -71.3 32.3 -69.55 Q28.55 -70.6 26.6 -73.85 L17.85 -88.8 Q27.8 -92.5 33.1 -100.05 L33.5 -98.35 Q35.75 -89.05 45.15 -87.2 38.75 -81.55 34.25 -74.1 33.9 -73.55 33.9 -72.75" fill="#131313" fill-rule="evenodd" stroke="none"/>
    <path d="M-85.2 -13.5 Q-84.85 -14.15 -84.85 -14.95 -81.75 -23.2 -79.4 -18.5 -79.25 -18.15 -78.45 -18.15 -73.8 -3.55 -63.2 2.7 L-65.3 3.5 Q-70.2 5.35 -73.65 9.15 -74.45 9.15 -74.6 9.45 L-80.05 18.75 -80.05 20.35 -80.05 21.95 -80.95 21.8 Q-85.05 6.0 -100.95 2.7 L-100.95 1.1 -100.95 -0.5 Q-97.7 -1.3 -94.85 -2.75 -94.5 -2.9 -94.5 -3.7 -93.7 -3.7 -93.3 -4.1 -92.9 -4.5 -92.9 -5.3 -88.8 -6.05 -86.9 -8.75 -86.5 -9.35 -86.5 -10.15 L-86.5 -11.75 Q-85.7 -12.55 -85.2 -13.5" fill="#0e0e0e" fill-rule="evenodd" stroke="none"/>
    <path d="M-19.85 -79.15 Q-19.55 -73.2 -22.25 -71.15 L-22.25 -69.55 -22.25 -67.95 Q-23.05 -67.95 -23.3 -68.25 -29.95 -79.5 -39.95 -87.2 -35.1 -88.0 -30.55 -89.5 -30.3 -89.6 -30.3 -90.4 -27.55 -90.9 -28.55 -95.2 L-28.7 -96.8 Q-21.0 -102.2 -15.45 -89.7 -15.05 -88.8 -13.6 -87.6 -6.6 -82.15 -19.05 -79.15 L-19.85 -79.15" fill="#141414" fill-rule="evenodd" stroke="none"/>
    <path d="M-57.6 -71.15 Q-56.05 -50.2 -38.25 -45.6 L-36.7 -45.45 -36.7 -43.85 -36.7 -42.25 -38.3 -42.1 Q-49.55 -39.85 -54.35 -31.0 L-54.45 -29.4 Q-55.8 -15.9 -60.8 -21.35 L-61.05 -22.9 Q-66.5 -38.95 -80.05 -47.05 -62.0 -51.45 -58.4 -71.0 L-57.6 -71.15" fill="#111010" fill-rule="evenodd" stroke="none"/>
    <path d="M3.4 42.6 Q4.95 41.3 3.8 39.4 0.95 34.9 -4.6 33.2 -4.6 32.4 -5.0 32.0 -9.45 27.6 -14.25 23.55 -14.25 22.75 -14.55 22.6 -20.25 19.95 -20.65 12.35 -10.3 8.95 -5.55 18.45 -5.4 18.75 -4.6 18.75 -0.6 23.55 3.8 28.0 4.2 28.4 5.0 28.4 15.8 34.5 21.7 45.75 L22.7 46.05 Q28.4 50.0 32.8 55.3 33.1 55.7 33.9 55.7 34.4 58.4 36.8 59.55 37.15 59.7 37.15 60.5 38.25 64.85 35.6 64.6 25.0 63.7 16.25 52.45 15.45 52.45 14.95 52.05 7.65 46.2 6.65 60.5 L6.65 62.1 6.65 63.7 5.1 63.55 Q0.05 62.25 -3.0 58.9 -3.0 58.1 -3.35 57.95 -9.05 55.3 -9.45 47.65 0.95 44.7 3.4 42.6" fill="#131211" fill-rule="evenodd" stroke="none"/>
    <path d="M-68.8 47.65 Q-68.8 46.85 -69.0 46.85 -74.75 45.55 -75.25 39.65 -72.05 38.8 -69.15 37.4 -68.8 37.2 -68.8 36.4 -68.0 35.6 -67.55 34.65 -67.2 34.0 -67.2 33.2 -62.4 27.2 -54.3 37.95 -51.3 42.05 -54.35 46.05 -63.1 55.3 -66.25 49.6 -66.4 49.25 -67.2 49.25 -67.2 48.45 -67.6 48.05 -68.0 47.65 -68.8 47.65" fill="#1c1c1b" fill-rule="evenodd" stroke="none"/>
    <path d="M-3.0 68.5 Q-3.0 69.3 -3.4 69.8 -15.95 84.8 -23.85 65.3 -14.1 52.15 -5.65 64.9 -5.4 65.3 -4.6 65.3 -3.8 66.1 -3.35 67.1 -3.0 67.7 -3.0 68.5" fill="#131413" fill-rule="evenodd" stroke="none"/>
    <path d="M21.05 26.8 Q20.25 26.8 19.7 26.4 17.45 24.85 13.05 25.2 L13.05 24.4 Q8.8 24.6 9.85 20.35 10.65 19.55 11.6 19.1 12.25 18.75 13.05 18.75 20.85 20.75 18.75 12.5 L17.85 12.35 17.85 10.75 19.65 9.45 21.05 9.15 Q24.1 13.4 28.3 4.3 L27.5 4.3 27.5 2.7 Q29.1 1.9 30.3 0.7 30.7 0.3 30.7 -0.5 35.85 -0.1 37.75 4.0 37.95 4.3 38.75 4.3 38.75 5.1 38.35 5.6 L25.9 18.75 25.9 20.35 25.1 20.5 Q24.1 25.0 21.05 26.8 M-33.35 88.65 Q-22.25 91.55 -33.5 87.8 L-33.35 88.65 M-20.65 81.35 Q-17.3 85.3 -17.45 92.6 L-17.45 94.2 Q-19.8 95.9 -21.85 97.0 -43.3 109.8 -43.15 82.95 -41.55 82.15 -40.35 80.95 -39.95 80.55 -39.95 79.75 -36.7 78.95 -34.7 76.95 -34.3 76.55 -33.5 76.55 -24.85 75.9 -21.7 81.05 L-20.65 81.35" fill="#10100f" fill-rule="evenodd" stroke="none"/>
    <path d="M83.6 28.65 Q88.15 30.4 94.9 38.0 L94.7 39.55 Q92.2 45.75 83.7 54.05 83.7 53.25 83.35 52.65 79.2 44.9 74.05 38.0 77.2 37.95 78.45 36.2 78.85 35.6 78.85 34.8 82.4 34.35 82.15 30.0 L82.05 28.4 83.6 28.65" fill="#121313" fill-rule="evenodd" stroke="none"/>
    <path d="M27.1 89.0 Q27.5 88.6 27.5 87.8 28.3 87.8 28.55 87.45 36.3 74.6 43.55 87.8 48.75 89.7 45.15 92.6 42.5 94.75 41.55 97.0 39.85 100.95 37.7 100.3 33.1 99.0 25.9 91.0 L25.9 89.4 Q26.7 89.4 27.1 89.0" fill="#181817" fill-rule="evenodd" stroke="none"/>
  </g>
</svg>
