<?xml version="1.0" encoding="UTF-8" standalone="no"?>
<svg xmlns:ffdec="https://www.free-decompiler.com/flash" xmlns:xlink="http://www.w3.org/1999/xlink" ffdec:objectType="shape" height="268.0px" width="247.0px" xmlns="http://www.w3.org/2000/svg">
  <g transform="matrix(1.0, 0.0, 0.0, 1.0, 122.85, 116.1)">
    <path d="M52.65 -100.1 L52.15 -100.1 52.45 -99.85 Q46.75 -93.7 46.15 -82.1 45.1 -66.85 47.35 -54.6 48.05 -50.85 49.05 -47.35 L50.05 -47.4 51.15 -48.1 Q54.85 -47.9 55.95 -50.2 L56.15 -51.1 56.2 -52.1 56.25 -54.6 Q56.1 -57.75 55.15 -60.1 L55.15 -61.1 55.15 -72.1 Q57.6 -81.15 59.1 -91.1 L59.15 -92.1 Q60.85 -92.9 60.25 -96.1 L60.15 -97.1 59.95 -98.0 59.15 -99.1 58.3 -99.35 Q56.5 -100.45 53.15 -100.1 L53.15 -100.6 52.65 -100.1 M70.15 -76.1 L70.15 -75.1 Q70.15 -62.9 74.05 -54.6 77.75 -46.55 85.15 -42.1 L86.15 -42.1 Q98.55 -42.2 108.15 -45.1 L108.0 -46.05 Q106.5 -50.5 104.7 -54.6 94.9 -76.8 76.15 -90.1 L75.95 -89.25 Q72.5 -83.25 70.15 -76.1 M35.15 -75.1 Q34.7 -80.45 31.0 -77.55 24.4 -72.35 15.85 -70.4 -14.85 -63.35 -33.85 -79.1 L-33.85 -78.1 -33.85 -77.1 Q-33.85 -72.1 -33.35 -67.15 L-32.85 -67.1 -32.85 -65.1 -32.85 -64.1 -33.85 -64.1 -33.85 -55.1 -33.85 -54.6 -33.85 -54.1 -33.9 -53.1 Q-34.7 -41.45 -39.85 -34.1 L-40.8 -34.2 Q-51.1 -36.85 -61.85 -39.1 L-62.05 -38.25 Q-65.6 -32.35 -71.85 -29.1 -71.8 -7.15 -67.95 10.9 L-67.85 11.9 Q-46.2 16.75 -19.85 16.9 L-18.85 16.9 Q-13.6 18.65 -5.85 17.95 L-4.85 17.9 5.15 17.9 6.15 17.9 16.1 17.4 16.15 16.9 Q45.1 17.35 68.2 12.0 L69.15 11.9 Q71.95 -7.8 73.65 -28.1 L73.15 -28.1 Q67.7 -32.65 63.4 -38.3 63.15 -38.6 63.15 -39.1 52.2 -36.55 41.15 -34.6 L41.15 -35.1 Q34.95 -41.65 35.1 -54.6 L35.15 -56.1 35.15 -57.1 35.15 -58.1 35.15 -75.1 M-10.85 119.9 L-11.85 119.85 Q-58.3 115.35 -88.85 94.9 -88.65 87.6 -87.35 81.8 -85.4 73.35 -84.6 65.7 -79.55 17.9 -87.85 -28.1 L-103.85 -29.45 -105.25 -29.45 Q-120.45 -30.15 -122.85 -42.1 -121.2 -48.6 -119.05 -54.6 L-116.2 -61.65 Q-102.75 -92.1 -73.7 -106.85 -60.7 -113.45 -43.85 -116.1 -27.3 -90.25 15.8 -98.05 35.2 -101.55 45.15 -116.1 103.35 -106.2 119.85 -54.6 122.5 -46.4 124.05 -37.1 L124.15 -36.1 Q108.65 -30.6 90.15 -28.15 L89.15 -28.1 Q82.7 14.4 83.95 57.9 84.05 61.5 85.3 66.6 88.35 79.2 90.15 93.9 60.05 115.8 12.15 119.85 L11.15 119.9 10.15 119.9 -10.85 119.9 M-9.85 53.9 Q33.35 55.6 65.2 46.05 L66.15 45.9 Q68.45 37.2 68.15 25.9 L68.15 24.9 Q49.1 28.35 27.15 28.9 L26.15 28.9 25.15 28.9 17.15 28.9 17.15 29.9 16.15 29.9 -16.85 29.9 -16.9 29.4 -24.85 28.9 -25.85 28.9 Q-48.15 28.2 -67.85 24.9 -66.2 34.25 -65.35 44.85 L-64.85 44.9 Q-48.45 52.5 -24.85 52.9 L-23.85 52.9 Q-18.6 54.65 -10.85 53.95 L-9.85 53.9 M13.15 66.9 L12.15 66.9 5.15 66.9 4.15 66.9 -9.85 66.9 -10.85 66.9 Q-27.35 66.9 -41.85 64.9 -41.85 81.4 -41.35 97.9 L-40.85 97.9 Q-24.25 105.8 1.15 105.6 24.65 105.4 41.55 100.25 43.8 99.55 43.15 96.9 L43.7 96.8 Q44.9 91.65 43.15 88.9 L43.15 87.9 43.15 64.9 42.15 64.95 13.15 66.9 M57.15 63.9 L57.2 64.9 Q58.7 78.85 63.15 89.9 L64.05 89.7 Q69.25 87.0 75.15 84.9 73.45 75.6 70.6 67.1 67.5 57.7 57.15 63.9 M-44.85 -73.1 L-44.85 -74.1 Q-45.45 -89.05 -48.85 -101.1 L-49.85 -101.0 Q-55.3 -100.05 -59.85 -98.1 -54.55 -78.25 -52.35 -54.6 L-51.85 -48.15 -50.95 -47.8 -49.85 -47.1 Q-43.5 -47.3 -44.1 -54.6 -44.25 -56.2 -44.75 -58.15 L-44.85 -59.1 -44.35 -59.15 Q-43.1 -67.35 -44.85 -73.1 M-103.25 -54.6 L-105.25 -50.1 -106.85 -46.1 -106.7 -45.55 -105.25 -45.1 Q-95.3 -42.2 -82.85 -42.1 L-82.6 -42.8 Q-76.55 -47.75 -72.5 -54.6 -70.4 -58.1 -68.85 -62.1 L-68.85 -63.1 -68.85 -77.1 -69.35 -77.2 Q-71.15 -85.3 -75.85 -90.1 -75.85 -89.6 -76.1 -89.4 -93.35 -75.65 -103.25 -54.6 M-55.85 66.9 L-55.9 65.9 Q-56.4 59.9 -64.85 61.9 -66.35 61.9 -66.6 62.5 -71.2 72.05 -73.85 82.9 L-73.6 83.6 Q-68.6 88.15 -60.85 89.9 L-60.75 88.95 -55.85 66.9" fill="#0a0a09" fill-rule="evenodd" stroke="none"/>
    <path d="M59.15 -92.1 Q58.65 -92.1 58.6 -92.25 58.15 -93.6 58.15 -95.1 59.8 -94.95 59.65 -97.1 L60.15 -97.1 60.25 -96.1 Q60.85 -92.9 59.15 -92.1" fill="#e4e4e3" fill-rule="evenodd" stroke="none"/>
    <path d="M53.15 -100.1 L52.65 -100.1 53.15 -100.6 53.15 -100.1 M52.45 -99.85 Q54.7 -97.9 59.05 -98.6 L59.15 -99.1 59.95 -98.0 60.15 -97.1 59.65 -97.1 Q59.8 -94.95 58.15 -95.1 58.15 -93.6 58.6 -92.25 58.65 -92.1 59.15 -92.1 L59.1 -91.1 Q57.6 -81.15 55.15 -72.1 L54.9 -72.85 54.15 -73.1 Q54.15 -66.6 54.65 -60.15 L55.15 -60.1 Q56.1 -57.75 56.25 -54.6 L56.2 -52.1 56.15 -51.1 55.45 -50.85 Q53.6 -48.65 49.15 -49.1 49.65 -48.6 50.25 -48.3 L51.15 -48.1 50.05 -47.4 49.05 -47.35 Q48.05 -50.85 47.35 -54.6 45.1 -66.85 46.15 -82.1 46.75 -93.7 52.45 -99.85" fill="#ebeae8" fill-rule="evenodd" stroke="none"/>
    <path d="M70.15 -76.1 Q72.5 -83.25 75.95 -89.25 L76.15 -90.1 Q94.9 -76.8 104.7 -54.6 106.5 -50.5 108.0 -46.05 L108.15 -45.1 Q98.55 -42.2 86.15 -42.1 L85.15 -42.1 Q77.75 -46.55 74.05 -54.6 70.15 -62.9 70.15 -75.1 L70.15 -76.1 M35.15 -75.1 L34.15 -75.1 Q34.15 -66.1 34.65 -57.15 L35.15 -57.1 35.15 -56.1 35.1 -54.6 Q34.95 -41.65 41.15 -35.1 L41.15 -34.6 Q52.2 -36.55 63.15 -39.1 63.15 -38.6 63.4 -38.3 67.7 -32.65 73.15 -28.1 L73.65 -28.1 Q71.95 -7.8 69.15 11.9 L68.2 12.0 Q45.1 17.35 16.15 16.9 L15.15 16.9 6.15 16.9 6.15 17.9 5.15 17.9 -4.85 17.9 -4.9 17.4 -18.85 16.9 -19.85 16.9 Q-46.2 16.75 -67.85 11.9 L-67.95 10.9 Q-71.8 -7.15 -71.85 -29.1 -65.6 -32.35 -62.05 -38.25 L-61.85 -39.1 Q-51.1 -36.85 -40.8 -34.2 L-39.85 -34.1 Q-34.7 -41.45 -33.9 -53.1 L-33.85 -54.1 -33.6 -54.6 Q-32.15 -57.8 -32.8 -63.1 L-32.85 -64.1 -32.85 -65.1 -32.85 -67.1 -32.8 -68.1 Q-32.1 -73.85 -33.85 -77.1 L-33.85 -78.1 -33.85 -79.1 Q-14.85 -63.35 15.85 -70.4 24.4 -72.35 31.0 -77.55 34.7 -80.45 35.15 -75.1 M26.15 28.9 L27.15 28.9 Q49.1 28.35 68.15 24.9 L68.15 25.9 Q68.45 37.2 66.15 45.9 L65.2 46.05 Q33.35 55.6 -9.85 53.9 L-9.9 53.4 -23.85 52.9 -24.85 52.9 Q-48.45 52.5 -64.85 44.9 L-65.35 44.85 Q-66.2 34.25 -67.85 24.9 -48.15 28.2 -25.85 28.9 L-24.85 28.9 Q-22.6 30.65 -17.85 29.95 L-16.85 29.9 16.15 29.9 17.15 29.9 26.1 29.4 26.15 28.9 M57.15 63.9 Q67.5 57.7 70.6 67.1 73.45 75.6 75.15 84.9 69.25 87.0 64.05 89.7 L63.15 89.9 Q58.7 78.85 57.2 64.9 L57.15 63.9 M-44.85 -59.1 L-44.75 -58.15 Q-44.25 -56.2 -44.1 -54.6 -43.5 -47.3 -49.85 -47.1 L-50.95 -47.8 -51.85 -48.15 -52.35 -54.6 Q-54.55 -78.25 -59.85 -98.1 -55.3 -100.05 -49.85 -101.0 L-48.85 -101.1 Q-45.45 -89.05 -44.85 -74.1 L-44.85 -73.1 -44.85 -60.1 -44.85 -59.1 M-103.25 -54.6 Q-93.35 -75.65 -76.1 -89.4 -75.85 -89.6 -75.85 -90.1 -71.15 -85.3 -69.35 -77.2 L-68.85 -77.1 -68.85 -63.1 -68.85 -62.1 Q-70.4 -58.1 -72.5 -54.6 -76.55 -47.75 -82.6 -42.8 L-82.85 -42.1 Q-95.3 -42.2 -105.25 -45.1 L-106.7 -45.55 -106.85 -46.1 -105.25 -50.1 -103.25 -54.6" fill="#edecea" fill-rule="evenodd" stroke="none"/>
    <path d="M52.65 -100.1 L53.15 -100.1 Q56.5 -100.45 58.3 -99.35 L59.15 -99.1 59.05 -98.6 Q54.7 -97.9 52.45 -99.85 L52.15 -100.1 52.65 -100.1" fill="#f4f4f4" fill-rule="evenodd" stroke="none"/>
    <path d="M55.15 -72.1 L55.15 -61.1 55.15 -60.1 54.65 -60.15 Q54.15 -66.6 54.15 -73.1 L54.9 -72.85 55.15 -72.1" fill="#fdfefe" fill-rule="evenodd" stroke="none"/>
    <path d="M5.15 67.9 L13.1 67.4 13.15 66.9 42.15 64.95 43.15 64.9 43.15 87.9 43.15 88.9 43.15 95.9 43.15 96.9 Q43.8 99.55 41.55 100.25 24.65 105.4 1.15 105.6 -24.25 105.8 -40.85 97.9 L-41.35 97.9 Q-41.85 81.4 -41.85 64.9 -27.35 66.9 -10.85 66.9 L-9.85 66.9 Q-4.1 68.65 4.15 67.95 L5.15 67.9" fill="#eeecea" fill-rule="evenodd" stroke="none"/>
    <path d="M56.15 -51.1 L55.95 -50.2 Q54.85 -47.9 51.15 -48.1 L50.25 -48.3 Q49.65 -48.6 49.15 -49.1 53.6 -48.65 55.45 -50.85 L56.15 -51.1" fill="#f9f9f9" fill-rule="evenodd" stroke="none"/>
    <path d="M43.15 96.9 L43.15 95.9 43.15 88.9 Q44.9 91.65 43.7 96.8 L43.15 96.9" fill="#727171" fill-rule="evenodd" stroke="none"/>
    <path d="M-33.85 -77.1 Q-32.1 -73.85 -32.8 -68.1 L-32.85 -67.1 -33.35 -67.15 Q-33.85 -72.1 -33.85 -77.1" fill="#686766" fill-rule="evenodd" stroke="none"/>
    <path d="M-32.85 -64.1 L-32.8 -63.1 Q-32.15 -57.8 -33.6 -54.6 L-33.85 -54.1 -33.85 -54.6 -33.85 -55.1 -33.85 -64.1 -32.85 -64.1" fill="#81817e" fill-rule="evenodd" stroke="none"/>
    <path d="M35.15 -57.1 L34.65 -57.15 Q34.15 -66.1 34.15 -75.1 L35.15 -75.1 35.15 -58.1 35.15 -57.1" fill="#868584" fill-rule="evenodd" stroke="none"/>
    <path d="M-44.85 -73.1 Q-43.1 -67.35 -44.35 -59.15 L-44.85 -59.1 -44.85 -60.1 -44.85 -73.1" fill="#6b6a68" fill-rule="evenodd" stroke="none"/>
    <path d="M-18.85 16.9 L-4.9 17.4 -4.85 17.9 -5.85 17.95 Q-13.6 18.65 -18.85 16.9" fill="#7f7e7d" fill-rule="evenodd" stroke="none"/>
    <path d="M-16.85 29.9 L-17.85 29.95 Q-22.6 30.65 -24.85 28.9 L-16.9 29.4 -16.85 29.9" fill="#6b6a69" fill-rule="evenodd" stroke="none"/>
    <path d="M6.15 17.9 L6.15 16.9 15.15 16.9 16.15 16.9 16.1 17.4 6.15 17.9" fill="#bbbbba" fill-rule="evenodd" stroke="none"/>
    <path d="M26.15 28.9 L26.1 29.4 17.15 29.9 17.15 28.9 25.15 28.9 26.15 28.9" fill="#6d6c6b" fill-rule="evenodd" stroke="none"/>
    <path d="M5.15 66.9 L5.15 67.9 4.15 67.95 Q-4.1 68.65 -9.85 66.9 L4.15 66.9 5.15 66.9" fill="#807e7d" fill-rule="evenodd" stroke="none"/>
    <path d="M13.15 66.9 L13.1 67.4 5.15 67.9 5.15 66.9 12.15 66.9 13.15 66.9" fill="#a7a6a4" fill-rule="evenodd" stroke="none"/>
    <path d="M-23.85 52.9 L-9.9 53.4 -9.85 53.9 -10.85 53.95 Q-18.6 54.65 -23.85 52.9" fill="#9e9c9b" fill-rule="evenodd" stroke="none"/>
    <path d="M11.15 119.9 L11.1 120.4 Q-1.1 121.65 -10.85 119.9 L10.15 119.9 11.15 119.9" fill="#7b7b79" fill-rule="evenodd" stroke="none"/>
    <path d="M-55.85 66.9 L-60.75 88.95 -60.85 89.9 Q-68.6 88.15 -73.6 83.6 L-73.85 82.9 Q-71.2 72.05 -66.6 62.5 -66.35 61.9 -64.85 61.9 -56.4 59.9 -55.9 65.9 L-55.85 66.9" fill="#eeedec" fill-rule="evenodd" stroke="none"/>
    <path d="M10.1 151.4 L-0.85 151.9 -0.85 150.9 9.15 150.9 10.15 150.9 10.1 151.4" fill="#8f8e8c" fill-rule="evenodd" stroke="none"/>
  </g>
</svg>
