<?xml version="1.0" encoding="UTF-8" standalone="no"?>
<svg xmlns:ffdec="https://www.free-decompiler.com/flash" xmlns:xlink="http://www.w3.org/1999/xlink" ffdec:objectType="shape" height="237.65px" width="218.05px" xmlns="http://www.w3.org/2000/svg">
  <g transform="matrix(1.0, 0.0, 0.0, 1.0, 83.7, 121.45)">
    <path d="M25.3 -104.45 Q17.8 -73.95 -16.5 -69.1 L-38.7 -66.45 Q-58.15 -75.5 -69.95 -91.95 -70.7 -92.95 -70.7 -94.45 -54.55 -111.8 -30.65 -121.3 L-29.7 -121.45 Q-17.7 -117.4 -6.6 -112.65 L-5.7 -112.45 Q10.15 -121.25 22.45 -112.7 L23.3 -112.45 25.2 -105.4 25.3 -104.45 M64.3 54.55 Q64.45 50.4 63.35 47.55 44.7 1.15 14.3 -33.45 L13.35 -33.6 Q6.2 -36.35 0.3 -35.45 L-0.2 -35.35 Q-3.8 -16.05 -18.7 -8.45 L-19.7 -8.5 Q-32.85 -9.8 -33.7 -23.45 -27.95 -41.7 -21.85 -59.5 -21.7 -59.95 -21.7 -60.45 3.85 -69.75 32.05 -64.85 35.6 -64.25 38.3 -61.45 60.65 -38.3 83.25 -15.4 86.45 -12.15 94.3 -13.45 100.55 -11.7 109.3 -12.4 L110.3 -12.45 111.3 -12.5 Q123.7 -13.85 131.3 -10.45 134.65 -1.8 134.3 11.55 133.35 46.65 117.3 65.55 L117.3 66.05 80.3 62.55 76.25 65.5 Q68.65 71.05 64.3 65.55 L64.8 65.45 Q66.05 58.8 64.3 54.55 M-75.7 8.55 Q-61.65 -5.1 -41.3 6.85 -38.6 8.45 -37.7 11.55 -37.6 21.15 -42.9 25.3 L-43.7 25.55 Q-64.15 28.0 -74.6 15.45 -76.45 13.3 -75.7 8.55" fill="#0a0a09" fill-rule="evenodd" stroke="none"/>
    <path d="M8.0 -0.5 L7.0 -0.5 -8.0 -0.5 7.95 0.0 8.0 -0.5 M-20.7 4.45 Q-16.05 -0.8 -9.6 -4.9 1.75 -12.0 6.3 -26.45 28.1 -3.25 45.55 24.75 56.15 41.7 54.3 69.4 54.05 73.3 52.25 78.15 35.75 122.5 -26.55 115.15 -52.25 112.1 -67.95 97.85 -83.4 83.8 -83.7 54.55 -80.9 40.85 -73.95 31.4 -73.7 31.05 -73.7 30.55 -59.9 33.75 -44.7 35.5 L-43.7 35.55 Q-40.7 34.05 -37.6 32.75 L-36.7 32.55 Q-31.1 16.15 -20.7 4.45" fill="#090a08" fill-rule="evenodd" stroke="none"/>
    <path d="M8.0 -0.5 L7.95 0.0 -8.0 -0.5 7.0 -0.5 8.0 -0.5" fill="#a4a2a0" fill-rule="evenodd" stroke="none"/>
    <path d="M94.3 -13.45 L110.25 -12.95 110.3 -12.45 109.3 -12.4 Q100.55 -11.7 94.3 -13.45" fill="#9d9c9b" fill-rule="evenodd" stroke="none"/>
    <path d="M64.3 65.55 L64.3 64.55 64.3 54.55 Q66.05 58.8 64.8 65.45 L64.3 65.55" fill="#6a6867" fill-rule="evenodd" stroke="none"/>
    <path d="M-34.7 -58.45 Q-32.55 -49.2 -37.5 -37.4 L-37.7 -36.45 Q-54.2 -33.95 -55.65 -46.45 L-55.7 -47.45 -52.9 -52.6 -52.7 -53.45 Q-46.3 -60.5 -35.7 -58.55 L-34.7 -58.45" fill="#0c0c0b" fill-rule="evenodd" stroke="none"/>
    <path d="M-41.7 -27.55 L-40.7 -27.45 Q-42.2 -22.9 -41.75 -16.45 L-41.7 -15.45 Q-35.75 -6.35 -30.95 -1.2 -30.7 -0.95 -30.7 -0.45 -38.6 0.8 -50.2 -3.0 -60.35 -6.3 -65.95 -13.05 -66.7 -13.95 -66.7 -15.45 -64.35 -22.1 -60.4 -27.2 L-59.7 -27.45 Q-51.1 -29.45 -41.7 -27.55" fill="#0b0b0a" fill-rule="evenodd" stroke="none"/>
  </g>
</svg>
