<?xml version="1.0" encoding="UTF-8" standalone="no"?>
<svg xmlns:ffdec="https://www.free-decompiler.com/flash" xmlns:xlink="http://www.w3.org/1999/xlink" ffdec:objectType="shape" height="207.15px" width="150.2px" xmlns="http://www.w3.org/2000/svg">
  <g transform="matrix(1.0, 0.0, 0.0, 1.0, 75.4, 103.05)">
    <path d="M42.0 -83.6 L40.8 -84.9 Q30.5 -92.4 14.3 -94.05 -7.15 -96.2 -25.85 -92.15 -36.3 -89.9 -42.35 -83.3 -42.35 -79.2 -40.45 -77.1 -29.3 -64.8 -6.75 -63.8 18.7 -62.6 34.85 -71.85 40.9 -75.3 42.0 -83.6 M46.75 -72.65 L45.9 -68.2 Q45.6 -56.35 47.95 -47.2 53.05 -27.3 66.1 -15.25 66.2 -29.25 63.75 -40.5 59.15 -61.1 48.7 -75.75 L48.55 -75.7 Q48.0 -73.95 46.75 -72.95 L46.75 -72.65 M-74.55 -18.3 L-74.55 -18.6 -74.55 -24.75 Q-72.3 -47.6 -64.7 -64.9 -57.0 -82.45 -43.0 -93.45 -39.45 -96.25 -34.75 -97.85 -15.7 -104.3 10.05 -102.75 30.8 -101.5 43.85 -92.7 47.6 -90.15 50.55 -86.75 L53.45 -83.25 Q64.65 -69.4 70.1 -49.5 75.55 -29.45 74.7 -4.85 74.25 7.8 70.2 16.5 68.75 19.6 66.5 22.15 54.8 35.55 38.65 44.45 23.75 52.7 3.9 55.95 L3.9 5.8 3.9 -44.35 3.9 -55.6 -3.95 -55.6 -4.25 -55.6 -4.25 -5.45 -4.25 44.7 -4.25 55.95 Q-26.0 52.6 -41.9 43.55 -55.9 35.6 -64.9 22.85 L-66.7 20.05 Q-74.65 6.25 -74.55 -14.4 L-74.55 -14.65 -74.55 -18.3 M-47.3 -58.95 Q-46.2 -68.55 -49.05 -75.45 -53.5 -69.55 -56.8 -62.4 -64.65 -45.25 -66.45 -21.95 L-66.45 -21.7 Q-66.65 -18.65 -66.15 -16.35 -63.35 -19.15 -60.85 -22.3 -49.95 -36.45 -47.3 -58.95 M-75.1 73.6 L-75.1 73.3 -75.1 71.9 Q-71.7 62.4 -64.15 57.1 L-63.9 57.05 Q-53.85 72.1 -34.55 77.95 L-29.45 79.45 Q-37.35 90.6 -43.1 103.85 L-43.15 104.1 Q-63.6 99.5 -72.8 83.5 -74.55 80.45 -75.1 76.1 L-75.1 75.8 -75.1 73.6" fill="#000000" fill-opacity="0.99607843" fill-rule="evenodd" stroke="none"/>
    <path d="M-74.55 -14.4 L-74.7 -14.4 -74.85 -18.3 -74.55 -18.3 -74.55 -14.65 -74.55 -14.4" fill="#000000" fill-opacity="0.42745098" fill-rule="evenodd" stroke="none"/>
    <path d="M-53.1 45.7 Q-38.35 56.05 -18.85 61.8 -7.25 65.25 5.55 63.5 27.45 60.6 43.25 51.4 50.4 47.25 56.85 42.5 58.8 47.95 56.0 52.7 50.3 62.55 39.3 67.4 22.0 75.0 -3.1 74.45 -27.1 73.85 -43.6 65.45 -53.45 60.45 -57.5 49.8 -58.25 47.8 -58.0 44.7 -57.2 41.55 -54.9 44.15 L-53.1 45.7 M29.1 79.45 Q49.2 74.5 60.55 60.8 L63.55 57.05 Q73.85 62.85 74.3 76.7 74.4 79.5 73.3 81.55 64.45 97.85 45.25 103.45 L42.85 104.1 Q37.2 90.7 29.2 79.7 L29.1 79.45" fill="#000000" fill-opacity="0.99215686" fill-rule="evenodd" stroke="none"/>
    <path d="M-75.1 76.1 L-75.25 76.1 -75.4 73.6 -75.1 73.6 -75.1 75.8 -75.1 76.1" fill="#000000" fill-opacity="0.56078434" fill-rule="evenodd" stroke="none"/>
  </g>
</svg>
