<?xml version="1.0" encoding="UTF-8" standalone="no"?>
<svg xmlns:ffdec="https://www.free-decompiler.com/flash" xmlns:xlink="http://www.w3.org/1999/xlink" ffdec:objectType="shape" height="182.3px" width="182.3px" xmlns="http://www.w3.org/2000/svg">
  <g transform="matrix(1.0, 0.0, 0.0, 1.0, 91.45, 90.6)">
    <path d="M59.85 -70.3 Q53.7 -69.65 47.25 -68.3 42.1 -67.2 39.5 -70.05 36.8 -73.05 38.45 -78.0 40.0 -82.65 45.7 -83.55 L62.85 -86.55 82.2 -90.6 84.25 -90.6 84.45 -90.6 Q89.6 -89.45 90.75 -84.25 90.75 -84.2 90.85 -84.2 L90.85 -81.95 90.85 -81.7 Q90.35 -80.8 90.1 -79.5 86.8 -62.65 83.85 -45.45 82.9 -39.75 78.25 -38.2 73.3 -36.55 70.3 -39.3 67.45 -41.9 68.5 -47.05 69.8 -53.55 70.55 -59.6 L68.0 -56.95 47.55 -36.6 Q57.0 -25.65 63.95 -12.1 70.8 1.3 73.7 18.8 76.4 35.15 75.95 55.0 L75.25 85.55 Q75.25 86.8 74.65 87.8 73.0 90.6 69.65 91.7 L69.4 91.7 66.45 91.7 66.45 91.6 Q61.0 90.35 60.55 84.2 58.75 84.05 57.4 83.35 55.05 82.15 53.25 80.3 L33.0 59.75 12.65 39.35 -7.85 19.0 -8.0 19.05 -15.55 26.75 -15.35 50.25 Q-15.3 53.8 -16.3 56.25 -17.7 59.7 -20.3 62.15 L-40.95 82.3 -43.35 85.05 Q-46.7 89.4 -52.25 91.45 L-52.25 91.7 -52.5 91.7 -55.0 91.7 Q-58.3 90.7 -59.9 88.0 -60.45 87.0 -60.5 86.0 -61.3 73.95 -61.15 61.4 L-69.1 61.4 -77.3 61.8 Q-89.1 62.95 -91.45 55.0 L-91.45 54.8 -91.45 52.5 Q-90.5 49.1 -88.3 47.0 L-67.75 26.75 Q-62.65 21.6 -57.1 16.9 -56.55 16.45 -55.9 16.4 -41.4 15.65 -26.3 15.8 L-26.25 15.65 -18.75 8.05 -34.4 -7.75 -54.85 -28.1 -75.2 -48.5 -78.0 -50.85 Q-82.5 -54.1 -83.95 -60.3 L-84.15 -60.3 Q-90.2 -61.0 -91.45 -66.45 L-91.45 -66.65 -91.45 -69.4 Q-88.85 -77.05 -76.85 -75.75 L-69.1 -75.4 Q-48.4 -75.65 -28.8 -74.7 -19.2 -74.25 -11.05 -72.1 5.15 -67.9 18.1 -60.4 28.1 -54.65 36.6 -47.3 L57.0 -67.7 59.85 -70.3 M-65.0 -59.85 L-44.7 -39.4 -24.3 -19.0 -8.05 -2.65 12.4 -23.0 25.9 -36.6 Q14.8 -45.9 0.75 -52.15 -13.4 -58.5 -32.2 -59.95 L-34.95 -60.05 -34.95 -60.2 -65.5 -60.3 -65.2 -59.9 -65.0 -59.85 M-65.5 45.9 L-65.5 46.0 -56.6 46.1 -56.55 45.95 -41.55 30.85 -41.8 30.85 -50.45 30.85 -50.5 31.05 -65.5 45.9 M-30.85 41.8 L-30.9 41.95 -45.9 56.85 -45.9 57.05 Q-46.05 61.7 -45.65 65.7 L-45.6 65.55 -30.6 50.45 -30.6 50.25 Q-30.45 45.75 -30.85 41.8 M36.85 -25.65 L23.3 -12.3 2.9 8.05 19.65 25.05 40.1 45.4 60.55 65.7 60.55 57.3 Q60.65 44.65 59.9 32.5 58.8 13.55 52.6 -0.5 46.3 -14.7 36.85 -25.65" fill="#000000" fill-opacity="0.99607843" fill-rule="evenodd" stroke="none"/>
    <path d="M-34.95 -60.05 L-35.15 -60.05 -65.0 -60.05 -65.0 -59.85 -65.2 -59.9 -65.5 -60.3 -34.95 -60.2 -34.95 -60.05" fill="#000000" fill-opacity="0.25882354" fill-rule="evenodd" stroke="none"/>
  </g>
</svg>
