<?xml version="1.0" encoding="UTF-8" standalone="no"?>
<svg xmlns:ffdec="https://www.free-decompiler.com/flash" xmlns:xlink="http://www.w3.org/1999/xlink" ffdec:objectType="shape" height="206.35px" width="222.55px" xmlns="http://www.w3.org/2000/svg">
  <g transform="matrix(1.0, 0.0, 0.0, 1.0, 111.55, 102.6)">
    <path d="M47.95 -99.3 Q49.1 -94.15 54.1 -90.95 57.65 -88.6 53.65 -86.9 45.85 -82.95 39.85 -77.2 38.15 -75.6 36.75 -79.5 34.55 -85.45 29.25 -89.6 28.4 -90.25 28.4 -91.95 37.65 -95.3 44.0 -101.65 46.85 -104.4 47.95 -99.3" fill="#191919" fill-rule="evenodd" stroke="none"/>
    <path d="M48.2 -52.25 Q81.5 -37.25 111.0 -17.8 111.0 -16.95 110.55 -16.5 103.9 -9.7 95.8 -4.3 L94.15 -4.2 Q80.55 -3.35 72.2 -7.65 72.2 -8.5 71.9 -8.7 65.8 -11.2 65.45 0.75 L63.8 0.75 Q48.8 0.6 41.85 -7.65 L41.55 -6.15 Q34.35 9.1 21.65 -2.6 20.8 -2.6 20.65 -2.95 L19.95 -4.3 Q8.9 0.7 4.8 14.25 L6.4 14.5 Q18.1 17.8 18.25 32.8 17.45 32.8 17.2 33.2 4.85 50.05 -15.45 37.85 -15.45 37.0 -15.85 36.5 -22.85 27.3 -15.45 17.6 L-14.0 17.3 Q-1.8 9.8 -15.45 -0.9 -15.45 -1.75 -15.85 -2.25 -19.85 -6.75 -27.25 0.75 -28.6 3.65 -31.95 0.35 -44.75 -12.15 -52.55 0.75 L-54.15 1.0 Q-68.35 6.5 -69.4 -9.35 L-69.4 -10.2 Q-77.3 -2.95 -94.65 -4.3 -94.65 -5.15 -94.85 -5.15 -107.55 -7.4 -111.55 -17.8 -82.85 -37.15 -50.4 -52.15 -48.3 -53.2 -45.8 -53.2 -32.95 -39.95 -17.45 -30.0 -13.15 -27.3 -12.15 -30.15 -10.7 -34.15 -8.7 -36.3 L-7.85 -36.5 Q-5.75 -46.0 -8.7 -51.5 -8.7 -52.35 -8.85 -52.4 -14.2 -53.7 -15.45 -58.25 5.8 -67.35 8.05 -51.5 L8.15 -49.8 6.45 -49.8 Q6.45 -42.2 7.3 -34.7 L8.15 -34.65 Q8.15 -32.95 8.85 -31.6 10.7 -28.0 15.05 -30.5 30.85 -39.8 43.55 -53.2 46.1 -53.2 48.2 -52.25" fill="#070707" fill-rule="evenodd" stroke="none"/>
    <path d="M16.6 47.95 Q38.5 66.5 41.05 95.15 L40.2 95.15 Q26.3 92.2 20.9 71.75 L19.95 71.55 19.85 69.9 Q19.45 65.35 14.9 64.8 14.9 69.9 15.75 74.75 L16.6 74.95 Q16.6 75.8 16.9 76.45 25.75 91.8 16.6 101.9 11.3 106.35 8.35 100.15 L-1.95 78.3 -2.8 78.3 Q-2.65 102.9 -18.8 101.9 L-19.65 101.75 Q-22.8 84.1 -17.15 66.5 -25.8 73.85 -31.3 85.65 -41.15 106.9 -44.1 83.35 -31.7 66.25 -19.9 48.4 -19.65 47.95 -18.8 47.95 -1.3 57.5 15.05 48.3 15.75 47.95 16.6 47.95" fill="#0c0c0c" fill-rule="evenodd" stroke="none"/>
  </g>
</svg>
