<?xml version="1.0" encoding="UTF-8" standalone="no"?>
<svg xmlns:ffdec="https://www.free-decompiler.com/flash" xmlns:xlink="http://www.w3.org/1999/xlink" ffdec:objectType="shape" height="232.3px" width="209.2px" xmlns="http://www.w3.org/2000/svg">
  <g transform="matrix(1.0, 0.0, 0.0, 1.0, 113.25, 115.6)">
    <path d="M42.1 -102.65 Q56.25 -91.05 70.0 -79.45 L84.4 -67.55 Q91.25 -62.05 95.95 -54.25 94.75 -30.45 80.2 -19.9 79.95 -19.75 79.95 -19.25 84.95 -2.25 91.75 12.85 L91.95 13.75 Q84.95 17.75 74.95 18.7 L73.95 18.75 Q72.4 24.2 72.9 31.75 L72.95 32.75 Q66.9 46.2 62.1 60.8 61.95 61.25 61.95 61.75 41.9 66.75 23.8 55.95 L22.95 55.75 Q28.9 64.85 36.7 72.0 L36.95 72.75 Q35.5 83.3 30.2 89.95 29.95 90.25 29.95 90.75 36.85 98.3 41.75 107.85 L41.95 108.75 Q29.15 120.85 7.0 114.5 -32.1 103.3 -61.55 82.45 -78.65 70.35 -99.55 63.25 -106.65 60.85 -112.35 58.45 -113.65 57.9 -113.05 55.75 -96.8 46.0 -84.75 32.0 -84.55 31.75 -84.05 31.75 -93.1 18.3 -95.45 -0.45 -96.05 -5.25 -93.85 -9.6 -82.7 -31.4 -75.65 -56.7 -74.1 -62.2 -74.0 -67.25 -73.65 -88.35 -61.0 -98.45 -35.3 -118.95 8.85 -114.95 29.3 -113.1 42.1 -102.65 M0.95 40.75 Q8.7 -24.0 54.4 -50.45 57.8 -52.4 61.05 -52.6 75.75 -53.45 81.95 -61.25 67.4 -67.35 52.55 -60.0 16.85 -42.35 2.1 -2.55 -10.6 31.75 -7.05 73.75 L-7.9 73.5 Q-32.95 57.15 -49.05 31.75 -37.9 75.6 1.6 91.6 7.3 93.9 11.95 97.75 3.1 77.1 0.0 50.75 L-0.05 49.75 Q1.7 47.0 1.0 41.75 L0.95 40.75 M61.95 -29.25 L61.7 -29.9 Q53.55 -35.7 41.95 -31.25 41.95 -30.75 42.1 -30.3 45.25 -22.05 54.95 -20.25 L55.95 -20.35 Q64.3 -21.8 61.95 -29.25" fill="#090a09" fill-rule="evenodd" stroke="none"/>
    <path d="M-0.05 49.75 L0.0 50.75 Q3.1 77.1 11.95 97.75 7.3 93.9 1.6 91.6 -37.9 75.6 -49.05 31.75 -32.95 57.15 -7.9 73.5 L-7.05 73.75 Q-10.6 31.75 2.1 -2.55 16.85 -42.35 52.55 -60.0 67.4 -67.35 81.95 -61.25 75.75 -53.45 61.05 -52.6 57.8 -52.4 54.4 -50.45 8.7 -24.0 0.95 40.75 L-0.05 40.75 -0.05 48.75 -0.05 49.75 M61.95 -29.25 Q64.3 -21.8 55.95 -20.35 L54.95 -20.25 Q45.25 -22.05 42.1 -30.3 41.95 -30.75 41.95 -31.25 53.55 -35.7 61.7 -29.9 L61.95 -29.25" fill="#edecea" fill-rule="evenodd" stroke="none"/>
    <path d="M0.95 40.75 L1.0 41.75 Q1.7 47.0 -0.05 49.75 L-0.05 48.75 -0.05 40.75 0.95 40.75" fill="#737372" fill-rule="evenodd" stroke="none"/>
  </g>
</svg>
