<?xml version="1.0" encoding="UTF-8" standalone="no"?>
<svg xmlns:ffdec="https://www.free-decompiler.com/flash" xmlns:xlink="http://www.w3.org/1999/xlink" ffdec:objectType="shape" height="271.35px" width="235.25px" xmlns="http://www.w3.org/2000/svg">
  <g transform="matrix(1.0, 0.0, 0.0, 1.0, 103.35, 120.4)">
    <path d="M35.65 -79.05 L35.85 -78.2 Q45.2 -62.75 40.65 -43.05 40.65 -42.55 40.45 -42.5 27.9 -37.3 12.65 -35.05 12.65 -34.55 12.9 -34.4 24.4 -26.3 40.65 -23.05 40.65 -22.55 40.9 -22.25 48.1 -12.5 57.65 -5.05 L53.75 -15.7 Q51.95 -20.35 52.35 -25.95 54.9 -62.2 35.65 -79.05 M64.65 -33.05 Q75.3 -16.2 82.5 4.0 L82.65 4.95 Q76.05 16.85 59.65 18.95 L59.8 20.05 Q60.05 22.1 61.65 21.95 62.25 27.05 60.3 29.7 L59.65 29.95 Q51.55 34.85 47.15 37.95 L47.65 37.95 Q54.95 39.65 55.6 47.95 L55.65 48.95 Q51.35 56.15 52.6 68.95 L52.65 69.95 Q50.35 77.65 43.85 81.35 L43.65 81.95 Q24.85 82.7 5.65 79.45 L5.65 79.95 Q-4.35 97.95 -6.3 123.95 L-6.35 124.95 Q-32.7 125.2 -52.35 114.9 L-55.15 113.35 Q-75.8 101.4 -92.35 85.95 -85.05 62.25 -83.25 34.8 -82.5 23.1 -87.7 15.5 -103.65 -7.75 -103.35 -47.05 -94.9 -97.65 -52.35 -113.35 -34.75 -119.85 -11.35 -120.35 13.5 -120.9 30.05 -111.8 68.35 -90.75 64.65 -33.05" fill="#090908" fill-rule="evenodd" stroke="none"/>
    <path d="M118.65 -7.05 Q136.45 14.55 130.3 51.05 126.95 71.25 111.0 77.3 109.85 77.75 108.15 76.75 106.1 75.5 106.65 71.95 124.95 53.05 117.6 19.15 115.1 7.5 111.3 -1.9 L110.65 -4.05 Q113.65 -9.4 118.5 -7.6 L118.65 -7.05" fill="#0a0a09" fill-rule="evenodd" stroke="none"/>
    <path d="M100.85 7.7 L101.65 7.95 Q113.5 27.05 106.55 52.2 102.9 65.45 92.45 59.5 90.6 58.45 90.65 54.95 103.1 38.35 92.95 16.25 91.65 13.4 94.65 10.95 97.7 5.0 100.85 7.7" fill="#090909" fill-rule="evenodd" stroke="none"/>
    <path d="M86.65 24.95 Q88.7 30.9 88.65 38.95 L88.65 39.95 Q86.25 49.05 79.65 48.95 L78.65 48.95 Q74.9 47.7 74.7 42.95 L74.65 41.95 Q77.3 35.1 78.75 26.15 79.15 23.95 80.65 21.95 84.7 19.7 86.5 24.0 L86.65 24.95" fill="#0d0d0c" fill-rule="evenodd" stroke="none"/>
    <path d="M35.65 -79.05 Q54.9 -62.2 52.35 -25.95 51.95 -20.35 53.75 -15.7 L57.65 -5.05 Q48.1 -12.5 40.9 -22.25 40.65 -22.55 40.65 -23.05 24.4 -26.3 12.9 -34.4 12.65 -34.55 12.65 -35.05 27.9 -37.3 40.45 -42.5 40.65 -42.55 40.65 -43.05 45.2 -62.75 35.85 -78.2 L35.65 -79.05" fill="#edecea" fill-rule="evenodd" stroke="none"/>
    <path d="M11.65 149.95 L11.6 150.45 Q-0.6 151.7 -10.35 149.95 L10.65 149.95 11.65 149.95" fill="#878585" fill-rule="evenodd" stroke="none"/>
  </g>
</svg>
