<?xml version="1.0" encoding="UTF-8" standalone="no"?>
<svg xmlns:ffdec="https://www.free-decompiler.com/flash" xmlns:xlink="http://www.w3.org/1999/xlink" ffdec:objectType="shape" height="215.15px" width="207.7px" xmlns="http://www.w3.org/2000/svg">
  <g transform="matrix(1.0, 0.0, 0.0, 1.0, 93.55, 113.2)">
    <path d="M-39.9 -96.3 L-39.95 -96.55 -22.4 -94.5 -22.1 -94.45 -30.55 -81.15 -30.75 -81.1 -39.9 -96.3" fill="#000000" fill-opacity="0.98039216" fill-rule="evenodd" stroke="none"/>
    <path d="M24.9 -49.85 L29.3 -56.45 29.35 -56.7 Q13.55 -67.5 -2.9 -77.8 L-17.05 -86.75 -13.85 -91.85 -13.8 -92.1 Q2.75 -82.0 18.9 -71.45 L51.3 -50.55 Q59.1 -45.5 67.15 -40.6 L46.4 -8.15 46.3 -7.9 28.75 -4.35 28.45 -4.3 -3.75 -25.45 Q-19.95 -35.8 -36.5 -45.75 -39.2 -47.35 -40.85 -49.85 -39.1 -51.9 -37.75 -54.55 L-37.6 -54.6 -5.05 -33.95 Q2.0 -29.5 8.85 -24.85 L13.25 -31.75 13.3 -32.0 -19.25 -52.65 Q-26.3 -57.1 -33.15 -61.75 L-21.9 -79.35 -21.8 -79.6 10.8 -58.9 24.9 -49.85 M71.0 -3.7 L86.1 -27.25 86.2 -27.5 Q101.45 -16.15 109.75 2.2 112.15 7.5 114.15 13.25 95.65 5.1 76.0 -1.75 73.4 -2.65 71.0 -3.7 M-28.95 40.8 L-50.0 73.2 -68.25 101.9 Q-81.25 102.15 -93.5 101.45 L-93.55 101.3 -72.5 69.0 -51.8 36.5 -31.05 4.0 -26.6 -3.1 Q-17.25 2.15 -8.7 8.1 L-8.45 8.2 Q-18.55 24.7 -28.95 40.8" fill="#000000" fill-opacity="0.99215686" fill-rule="evenodd" stroke="none"/>
    <path d="M74.0 -35.85 Q77.05 -34.6 79.4 -32.65 L79.65 -32.6 60.4 -2.5 60.3 -2.25 Q57.15 -3.5 54.75 -5.6 L54.65 -5.8 73.9 -35.6 74.0 -35.85 M-38.2 -69.2 L-46.45 -56.35 -46.5 -56.1 Q-51.5 -63.15 -55.7 -71.0 L-55.75 -71.25 -38.2 -69.35 -38.2 -69.2" fill="#000000" fill-opacity="0.9843137" fill-rule="evenodd" stroke="none"/>
    <path d="M30.85 -100.4 Q43.65 -106.65 56.4 -113.05 L56.45 -113.2 Q56.65 -99.05 55.7 -84.35 L55.55 -84.35 30.9 -100.25 30.85 -100.4 M47.8 -79.6 L40.45 -67.95 40.35 -67.7 Q30.9 -73.1 22.6 -79.7 L22.5 -79.9 29.6 -90.65 29.65 -90.9 Q38.8 -85.45 47.55 -79.65 L47.8 -79.6 M19.25 -0.75 Q12.0 3.15 4.05 6.35 L3.75 6.4 Q-12.1 -4.35 -28.45 -14.75 L-29.85 -15.3 Q-29.75 -23.75 -30.15 -31.7 L-30.15 -32.0 2.4 -11.2 Q10.65 -5.85 19.25 -0.75" fill="#000000" fill-opacity="0.9882353" fill-rule="evenodd" stroke="none"/>
  </g>
</svg>
