<?xml version="1.0" encoding="UTF-8" standalone="no"?>
<svg xmlns:ffdec="https://www.free-decompiler.com/flash" xmlns:xlink="http://www.w3.org/1999/xlink" ffdec:objectType="shape" height="222.55px" width="233.65px" xmlns="http://www.w3.org/2000/svg">
  <g transform="matrix(1.0, 0.0, 0.0, 1.0, 112.75, 121.45)">
    <path d="M-28.85 -102.35 Q-31.95 -100.6 -33.4 -96.75 -47.75 -58.9 -57.15 -21.75 -57.25 -21.4 -56.75 -20.9 -51.7 -18.95 -52.7 -10.9 L-52.75 -9.9 Q-67.65 31.7 -85.85 70.6 -88.55 76.3 -96.75 77.1 -108.6 75.95 -112.2 66.25 -112.25 66.1 -112.75 66.1 L-112.75 55.1 -112.75 54.1 -82.9 -25.95 Q-82.75 -26.4 -82.75 -26.9 -78.75 -28.9 -74.65 -30.7 L-73.75 -30.9 Q-60.95 -69.1 -45.9 -105.55 -42.4 -114.05 -33.95 -118.3 -25.15 -122.75 -14.75 -120.9 -18.3 -108.45 -28.85 -102.35" fill="#090a09" fill-rule="evenodd" stroke="none"/>
    <path d="M-9.75 -34.9 L-9.75 -35.9 -9.75 -63.9 Q-0.4 -112.05 55.1 -107.25 67.55 -106.2 76.4 -100.1 102.25 -82.4 98.25 -34.9 102.0 -33.15 108.25 -33.85 L109.25 -33.9 Q115.4 -32.55 116.7 -26.8 118.95 -16.65 120.05 -4.05 128.6 92.95 49.25 100.1 L48.25 100.1 39.25 100.1 Q-1.05 96.9 -18.9 71.2 -25.05 62.4 -26.65 49.95 -31.15 14.5 -29.75 -25.9 -27.45 -31.6 -21.7 -33.75 L-20.75 -33.9 -9.8 -34.4 -9.75 -34.9 M78.25 -34.9 Q80.0 -55.15 75.2 -68.9 70.3 -82.95 55.85 -86.2 16.5 -95.0 10.25 -58.9 L10.25 -35.9 10.25 -34.9 Q43.0 -33.15 78.25 -34.4 L78.25 -34.9 M36.25 -4.9 Q36.25 -4.4 36.05 -4.25 29.6 -0.55 26.25 6.1 L26.2 7.1 Q25.7 15.2 27.25 21.1 27.25 21.6 27.5 21.9 30.85 26.0 36.25 28.1 L36.15 29.1 Q33.45 43.8 34.25 57.1 L34.3 57.6 Q44.25 58.1 54.25 58.1 L54.25 57.1 Q53.75 42.1 52.25 28.1 L53.1 27.9 60.25 23.1 Q60.25 22.6 60.4 22.15 67.6 2.05 49.25 -5.9 L48.25 -5.9 Q41.45 -6.2 36.25 -4.9" fill="#090908" fill-rule="evenodd" stroke="none"/>
    <path d="M98.25 -34.9 L109.2 -34.4 109.25 -33.9 108.25 -33.85 Q102.0 -33.15 98.25 -34.9" fill="#4e4c4c" fill-rule="evenodd" stroke="none"/>
    <path d="M10.25 -34.9 L77.25 -34.9 78.25 -34.9 78.25 -34.4 Q43.0 -33.15 10.25 -34.9" fill="#4a4949" fill-rule="evenodd" stroke="none"/>
    <path d="M49.25 100.1 L49.15 100.6 Q43.0 101.85 39.25 100.1 L48.25 100.1 49.25 100.1" fill="#b5b5b2" fill-rule="evenodd" stroke="none"/>
    <path d="M-20.75 -33.9 L-20.75 -34.9 -10.75 -34.9 -9.75 -34.9 -9.8 -34.4 -20.75 -33.9" fill="#595957" fill-rule="evenodd" stroke="none"/>
  </g>
</svg>
