<?xml version="1.0" encoding="UTF-8" standalone="no"?>
<svg xmlns:ffdec="https://www.free-decompiler.com/flash" xmlns:xlink="http://www.w3.org/1999/xlink" ffdec:objectType="shape" height="218.55px" width="169.25px" xmlns="http://www.w3.org/2000/svg">
  <g transform="matrix(1.0, 0.0, 0.0, 1.0, 84.9, 108.75)">
    <path d="M83.95 -38.45 Q82.35 -15.9 76.55 2.4 69.15 25.8 57.95 45.15 46.65 64.75 32.85 81.7 19.1 98.6 -0.45 109.8 -18.45 99.7 -31.2 84.3 -45.1 67.45 -56.6 48.3 -68.15 29.05 -76.25 6.25 -84.25 -16.25 -84.9 -46.35 -61.85 -54.05 -58.7 -81.4 -58.45 -83.4 -58.45 -85.45 -39.75 -97.5 -17.1 -105.85 -8.55 -109.0 1.6 -108.7 5.8 -108.55 9.5 -107.4 33.05 -100.25 52.2 -88.6 54.7 -87.1 57.55 -85.8 58.95 -56.55 80.9 -47.75 82.5 -47.15 83.95 -46.35 L83.95 -38.8 83.95 -38.45 M36.25 -73.8 Q40.25 -47.75 61.0 -38.5 L61.3 -38.45 Q59.25 -9.8 49.85 11.4 40.35 32.7 28.4 51.45 16.4 70.2 0.6 85.1 L-0.1 85.8 Q-16.55 71.5 -28.6 52.7 -40.55 34.05 -49.95 12.7 -59.3 -8.6 -62.15 -36.4 L-62.25 -38.45 Q-41.1 -47.4 -37.2 -73.45 L-37.2 -73.8 Q-23.2 -84.7 -0.1 -85.95 9.15 -86.5 15.85 -84.2 27.4 -80.2 36.25 -73.8 M0.3 -20.6 Q-0.1 -42.4 0.4 -64.2 0.6 -72.6 -1.15 -78.6 L-1.2 -78.85 -3.9 -80.35 -4.25 -80.3 Q-22.35 -78.2 -33.05 -68.65 -34.6 -55.65 -41.3 -47.65 -47.85 -39.85 -55.35 -32.95 L-55.35 -32.6 Q-56.05 -14.45 -47.45 -5.5 L-32.7 -5.05 Q-25.0 -5.15 -17.3 -4.7 -7.05 -4.05 -1.15 -7.2 0.45 -12.8 0.3 -20.6 M29.75 -3.25 L13.65 -3.8 Q3.85 -4.6 0.25 0.0 L0.25 32.25 Q0.25 47.7 -0.35 63.1 -0.6 69.8 1.6 73.45 2.2 74.0 3.3 73.25 12.9 66.7 19.6 56.95 32.1 38.9 41.3 17.45 L46.1 6.4 Q48.25 1.55 45.55 -2.75 L29.75 -3.25 M14.05 -91.25 Q8.5 -92.7 1.6 -92.45 -27.45 -91.35 -44.05 -77.25 L-43.85 -76.45 Q-48.85 -50.3 -70.1 -40.85 -69.75 -30.95 -67.9 -22.35 -62.55 2.9 -52.2 23.3 -41.9 43.65 -29.3 61.8 -16.7 79.9 -0.45 94.35 9.4 86.2 17.5 76.25 31.2 59.25 42.75 40.0 54.2 20.85 62.05 -2.05 67.95 -19.15 69.2 -40.85 L68.15 -41.1 Q48.1 -51.85 43.15 -77.6 31.05 -86.75 14.05 -91.25" fill="#000000" fill-opacity="0.99215686" fill-rule="evenodd" stroke="none"/>
    <path d="M83.95 -46.35 Q84.6 -42.85 84.15 -38.45 L83.95 -38.45 83.95 -38.8 83.95 -46.35" fill="#000000" fill-opacity="0.5921569" fill-rule="evenodd" stroke="none"/>
  </g>
</svg>
