<?xml version="1.0" encoding="UTF-8" standalone="no"?>
<svg xmlns:ffdec="https://www.free-decompiler.com/flash" xmlns:xlink="http://www.w3.org/1999/xlink" ffdec:objectType="shape" height="185.85px" width="213.95px" xmlns="http://www.w3.org/2000/svg">
  <g transform="matrix(1.0, 0.0, 0.0, 1.0, 107.25, 92.35)">
    <path d="M46.25 -42.6 L45.5 -42.65 Q44.7 -51.1 44.7 -59.65 L46.25 -59.65 46.25 -44.15 46.25 -42.6" fill="#777674" fill-rule="evenodd" stroke="none"/>
    <path d="M46.25 -59.65 L46.25 -61.2 46.25 -62.75 Q59.1 -55.25 49.35 -40.55 48.6 -39.5 46.95 -40.55 46.25 -41.05 46.25 -42.6 L46.25 -44.15 46.25 -59.65" fill="#141312" fill-rule="evenodd" stroke="none"/>
    <path d="M5.8 -63.05 L4.4 -62.75 Q5.7 -20.65 35.0 1.3 35.4 1.6 35.4 2.35 12.05 18.6 6.1 52.0 5.95 52.75 5.95 53.55 L4.4 53.55 Q4.4 59.75 5.15 65.85 L5.95 65.95 Q10.15 65.65 12.05 67.65 16.25 71.9 11.05 74.8 4.0 78.75 4.4 89.2 -3.0 99.05 -7.15 86.35 -9.9 77.95 -14.2 70.6 -12.65 66.7 -8.0 66.0 L-6.45 65.95 -5.7 65.8 Q-3.75 57.05 -6.45 52.0 -6.45 51.2 -6.6 50.5 -14.45 18.9 -35.9 0.8 -8.25 -19.55 -4.9 -62.75 L-6.15 -63.35 Q-6.45 -63.5 -6.45 -64.3 -21.75 -73.2 -11.5 -87.8 -11.1 -88.35 -11.1 -89.1 6.15 -97.85 14.3 -83.2 14.45 -82.9 15.25 -82.9 15.7 -67.7 5.8 -63.05 M77.25 -5.4 Q78.35 -15.9 82.55 -23.65 82.7 -24.0 83.45 -24.0 83.7 3.6 106.55 9.25 L106.7 10.15 Q100.0 15.1 92.6 19.1 L91.2 19.45 Q85.65 30.15 82.7 44.1 L81.9 44.25 74.4 22.45 74.15 21.0 Q65.1 16.85 59.05 9.8 58.65 9.35 58.65 8.6 71.3 5.7 76.35 -5.05 76.5 -5.4 77.25 -5.4 M0.75 26.85 Q9.2 12.6 19.9 0.8 19.1 0.8 18.8 0.45 8.5 -11.05 -0.25 -24.0 -1.05 -24.0 -1.2 -23.65 -8.25 -10.25 -18.85 -0.75 L-18.55 0.65 Q-10.55 15.0 -0.25 27.2 0.5 27.2 0.75 26.85 M-6.45 -79.8 Q-6.85 -73.2 -2.9 -71.95 3.25 -70.1 3.6 -73.85 5.25 -89.25 -6.45 -79.8" fill="#0d0d0d" fill-rule="evenodd" stroke="none"/>
    <path d="M9.05 3.9 Q2.85 11.6 -1.8 12.45 L-1.8 11.7 Q-5.6 6.15 -10.75 1.9 -11.1 1.6 -11.1 0.8 0.5 -16.75 8.75 2.55 L9.05 3.9" fill="#131210" fill-rule="evenodd" stroke="none"/>
    <path d="M46.25 69.05 L46.25 56.65 46.25 55.1 46.25 53.55 Q58.8 56.95 48.25 75.3 45.5 80.2 46.25 70.6 L46.25 69.05" fill="#151715" fill-rule="evenodd" stroke="none"/>
    <path d="M-82.45 -24.0 Q-81.35 -11.1 -76.55 -2.1 -76.25 -1.5 -76.25 -0.75 -68.15 5.15 -59.55 10.65 -59.2 10.9 -59.2 11.7 -66.3 16.15 -74.35 20.05 -74.7 20.2 -74.7 21.0 -79.4 30.2 -80.8 42.7 L-80.9 44.25 Q-88.5 36.35 -90.1 22.55 L-90.2 21.0 Q-99.1 15.95 -106.85 9.65 -107.25 9.35 -107.25 8.6 -85.45 2.45 -83.2 -23.9 L-82.45 -24.0" fill="#0f0f0f" fill-rule="evenodd" stroke="none"/>
    <path d="M-53.0 -58.1 Q-47.15 -67.25 -45.4 -56.55 -45.25 -55.75 -45.25 -55.0 L-46.8 -55.0 -46.8 -47.25 -46.8 -45.7 -48.1 -46.0 Q-52.3 -48.65 -53.0 -55.0 L-53.0 -56.55 -53.0 -58.1" fill="#11110f" fill-rule="evenodd" stroke="none"/>
    <path d="M-46.45 73.55 Q-46.8 76.0 -48.35 78.35 -54.05 72.45 -54.55 61.3 L-54.55 59.75 Q-43.2 44.0 -46.45 73.55" fill="#1b1c1a" fill-rule="evenodd" stroke="none"/>
  </g>
</svg>
