<?xml version="1.0" encoding="UTF-8" standalone="no"?>
<svg xmlns:ffdec="https://www.free-decompiler.com/flash" xmlns:xlink="http://www.w3.org/1999/xlink" ffdec:objectType="shape" height="169.75px" width="206.0px" xmlns="http://www.w3.org/2000/svg">
  <g transform="matrix(1.0, 0.0, 0.0, 1.0, 103.3, 84.3)">
    <path d="M57.7 -69.35 Q59.65 -58.7 52.45 -47.85 48.15 -41.4 41.85 -37.9 39.2 -36.4 38.25 -38.6 37.75 -39.85 37.7 -41.35 44.95 -57.6 56.5 -69.6 56.75 -69.85 57.7 -69.35" fill="#0f0f0e" fill-rule="evenodd" stroke="none"/>
    <path d="M10.6 -25.9 Q70.45 -11.6 100.7 32.65 76.3 61.75 39.6 78.45 23.05 86.0 -0.3 85.4 -31.7 84.55 -53.0 72.95 -82.5 56.85 -101.3 30.65 -69.85 -10.4 -12.45 -25.9 L-2.3 -26.35 5.7 -26.35 6.7 -26.35 10.6 -25.9 M5.7 41.65 Q5.7 41.15 5.85 41.1 15.85 37.3 19.7 27.65 L19.7 26.65 19.7 14.65 Q19.2 14.65 19.15 14.45 15.15 4.75 4.7 1.65 L3.7 1.65 -7.3 1.65 Q-7.3 2.15 -7.45 2.2 -17.4 6.0 -21.3 15.65 L-21.3 16.65 Q-21.7 24.6 -20.3 30.65 L-19.7 30.85 Q-15.5 38.35 -7.3 41.65 L-6.3 41.65 5.7 41.65 M80.7 30.65 L80.45 29.9 Q59.55 10.3 31.7 -2.35 39.9 5.95 42.6 18.9 49.6 52.3 25.7 65.65 L25.7 66.15 Q57.95 55.9 80.7 30.65 M-35.3 -1.35 L-36.2 -1.15 Q-61.5 11.45 -81.3 29.65 L-81.05 30.45 Q-59.65 54.5 -29.3 64.65 -39.15 56.45 -42.6 43.2 -49.75 15.85 -35.3 -1.35" fill="#0c0c0a" fill-rule="evenodd" stroke="none"/>
    <path d="M0.7 -43.35 Q-7.4 -48.7 -5.35 -65.5 -4.3 -74.35 -4.3 -83.35 7.8 -88.2 6.35 -68.25 5.45 -55.1 2.95 -44.55 2.65 -43.4 0.7 -43.35" fill="#0a0a09" fill-rule="evenodd" stroke="none"/>
    <path d="M73.7 -18.35 Q85.55 -29.0 100.6 -34.7 L102.7 -35.35 Q101.2 -25.85 94.25 -21.5 86.15 -16.4 76.3 -14.05 73.2 -13.3 73.7 -18.35 M-45.0 -57.85 Q-41.8 -49.3 -38.9 -40.15 -38.35 -38.4 -39.3 -37.35 -49.2 -37.0 -52.85 -48.85 -53.8 -51.85 -55.8 -55.05 -59.0 -60.15 -60.3 -67.35 -49.8 -70.6 -45.0 -57.85" fill="#0d0d0c" fill-rule="evenodd" stroke="none"/>
    <path d="M-98.7 -25.65 Q-103.05 -28.1 -103.3 -34.35 -94.15 -36.7 -85.5 -29.3 -78.65 -23.45 -74.9 -15.1 -74.8 -14.85 -75.3 -14.35 -84.25 -11.55 -91.75 -20.1 -94.7 -23.45 -98.7 -25.65" fill="#0d0c0b" fill-rule="evenodd" stroke="none"/>
  </g>
</svg>
