<?xml version="1.0" encoding="UTF-8" standalone="no"?>
<svg xmlns:ffdec="https://www.free-decompiler.com/flash" xmlns:xlink="http://www.w3.org/1999/xlink" ffdec:objectType="shape" height="196.8px" width="196.8px" xmlns="http://www.w3.org/2000/svg">
  <g transform="matrix(1.0, 0.0, 0.0, 1.0, 98.7, 97.85)">
    <path d="M55.75 -51.15 L34.5 -27.85 13.35 -4.5 -7.9 18.8 -29.15 42.1 -42.45 56.65 -28.6 70.65 -28.5 70.8 -42.25 84.7 -42.45 84.75 -56.35 71.0 -56.4 70.8 -78.7 93.05 -84.5 98.95 -84.75 98.95 -84.8 98.75 -98.7 85.0 -98.7 84.75 -76.45 62.45 -70.55 56.9 Q-77.35 49.75 -84.45 42.9 L-84.5 42.7 -70.75 28.85 -70.55 28.8 -56.7 42.5 -56.65 42.7 -33.3 21.5 -10.0 0.25 13.35 -20.9 36.65 -42.15 59.95 -63.4 83.25 -84.6 98.1 -97.85 77.05 -74.4 55.75 -51.15" fill="#000000" fill-opacity="0.99215686" fill-rule="evenodd" stroke="none"/>
  </g>
</svg>
