<?xml version="1.0" encoding="UTF-8" standalone="no"?>
<svg xmlns:ffdec="https://www.free-decompiler.com/flash" xmlns:xlink="http://www.w3.org/1999/xlink" ffdec:objectType="shape" height="128.05px" width="217.0px" xmlns="http://www.w3.org/2000/svg">
  <g transform="matrix(1.0, 0.0, 0.0, 1.0, 108.75, 63.45)">
    <path d="M74.4 -62.85 Q75.0 -55.1 74.75 -46.45 L74.75 -46.1 Q94.85 -40.55 108.15 -28.2 L108.25 -27.9 Q94.3 -14.9 75.1 -7.2 L74.75 -7.15 74.75 9.25 74.75 9.6 39.05 9.6 38.7 9.6 Q47.85 33.05 65.75 47.75 69.45 50.8 73.3 53.65 L88.6 53.65 88.95 53.65 88.95 64.2 88.95 64.6 23.75 64.6 -41.4 64.6 -72.7 64.6 -72.7 54.0 -72.7 53.65 -58.5 53.65 -58.15 53.65 Q-40.5 38.7 -29.0 17.75 L-25.0 9.95 Q-40.95 9.3 -57.8 9.6 L-58.15 9.6 -58.15 -8.6 -58.15 -8.95 Q-83.75 -15.95 -98.55 -33.8 -104.85 -41.45 -108.75 -51.55 L-58.5 -51.55 -58.15 -51.55 -58.15 -62.85 -58.15 -63.2 7.0 -63.2 72.2 -63.45 Q73.7 -63.5 74.4 -62.85" fill="#000000" fill-opacity="0.99215686" fill-rule="evenodd" stroke="none"/>
  </g>
</svg>
