<?xml version="1.0" standalone="no"?>
<!DOCTYPE svg PUBLIC "-//W3C//DTD SVG 20010904//EN"
 "http://www.w3.org/TR/2001/REC-SVG-20010904/DTD/svg10.dtd">
<svg version="1.0" xmlns="http://www.w3.org/2000/svg"
 width="515.000000pt" height="627.000000pt" viewBox="0 0 515.000000 627.000000"
 preserveAspectRatio="xMidYMid meet">

<g transform="translate(0.000000,627.000000) scale(0.100000,-0.100000)"
fill="#000000" stroke="none">
<path d="M2398 4726 c-53 -19 -82 -40 -119 -86 -18 -22 -40 -40 -50 -40 -10 0
-21 -4 -24 -10 -3 -5 -14 -10 -25 -10 -25 0 -117 -103 -125 -139 -10 -45 -41
-79 -104 -110 -31 -16 -69 -43 -86 -61 -27 -28 -30 -38 -30 -98 0 -37 3 -83 8
-103 6 -28 43 -98 74 -138 2 -3 8 0 14 6 7 7 0 27 -23 63 -29 48 -33 62 -36
139 -5 105 2 115 103 170 64 34 73 43 100 98 35 70 92 146 107 141 6 -2 21
-37 33 -78 12 -41 29 -91 37 -110 23 -52 30 -100 15 -100 -6 0 -4 -5 6 -11 9
-5 17 -18 17 -29 0 -10 16 -37 35 -60 19 -23 35 -48 35 -55 0 -15 -83 -93
-131 -123 -40 -24 -74 -71 -107 -144 -24 -55 -58 -81 -104 -76 -28 3 -36 10
-55 51 -13 26 -28 47 -34 47 -7 0 -8 -6 -3 -17 5 -10 11 -133 14 -273 l6 -255
3 205 c1 113 5 198 8 190 3 -8 15 -39 25 -68 11 -29 47 -89 79 -132 32 -43 59
-81 59 -84 0 -4 11 -24 25 -46 23 -36 29 -40 68 -40 23 0 52 7 65 15 18 14 21
22 15 60 -8 60 16 120 78 197 84 105 149 136 169 83 14 -36 -7 -175 -26 -175
-9 0 -14 11 -14 29 0 32 -34 81 -56 81 -19 0 -64 -45 -64 -64 0 -8 11 -28 25
-44 14 -17 25 -32 25 -35 0 -3 -16 -3 -35 0 -23 4 -43 0 -60 -11 -21 -14 -25
-23 -22 -54 5 -43 24 -51 61 -27 14 9 30 14 35 11 12 -8 31 25 31 53 0 13 6
21 18 21 10 0 28 7 41 16 21 15 25 15 32 2 5 -9 23 -21 41 -29 18 -7 36 -18
40 -23 5 -7 8 -7 8 2 0 7 13 12 30 12 19 0 40 9 53 23 35 35 158 263 151 280
-3 10 4 22 20 32 14 10 44 50 66 91 38 67 43 72 61 61 10 -6 19 -15 19 -19 0
-16 -84 -118 -101 -123 -11 -4 -19 -11 -19 -17 0 -6 -7 -19 -15 -28 -13 -14
-11 -22 10 -65 14 -28 29 -67 35 -88 11 -39 38 -57 83 -57 28 0 97 -55 98 -78
0 -11 2 -12 6 -4 2 6 15 12 27 12 49 0 94 56 182 226 30 57 54 115 54 129 0
14 -9 43 -20 65 -21 41 -26 80 -11 80 14 0 21 -28 8 -33 -7 -2 8 -10 33 -17
39 -11 49 -10 74 4 16 9 31 14 34 12 3 -3 -3 -8 -12 -12 -16 -6 -22 -50 -8
-70 42 -63 187 -31 269 59 29 33 34 44 29 71 -10 47 -30 61 -89 61 -64 0 -107
-11 -107 -28 0 -7 -9 -18 -20 -25 -11 -7 -20 -8 -20 -3 0 4 9 20 20 34 12 15
20 40 20 62 0 30 -8 45 -39 77 -22 21 -34 41 -28 42 112 32 148 68 127 130
-16 48 -61 87 -109 93 -33 5 -54 -1 -105 -26 -123 -60 -155 -115 -96 -164 24
-21 37 -24 69 -20 48 7 94 -3 85 -18 -4 -7 -29 -9 -68 -5 -55 5 -66 3 -99 -20
-20 -13 -37 -33 -37 -43 0 -19 -27 -48 -36 -38 -3 2 4 22 15 43 12 21 21 44
21 51 0 24 -71 92 -114 108 -75 29 -112 0 -141 -113 -17 -69 -11 -96 27 -107
13 -3 33 -11 46 -17 17 -9 34 -8 76 5 67 22 66 22 66 -8 0 -17 -4 -23 -15 -19
-19 8 -111 -37 -157 -77 -37 -31 -38 -32 -58 -14 -14 13 -20 31 -20 62 0 28
-11 71 -30 113 -16 38 -30 75 -30 83 0 27 -47 73 -139 135 -143 98 -150 94
-126 -65 8 -57 3 -63 -28 -35 -19 17 -20 16 -7 -8 7 -14 17 -28 23 -31 16 -11
20 -94 7 -135 -18 -55 -196 -230 -284 -279 -73 -41 -91 -61 -107 -120 -15 -56
-38 -103 -54 -109 -18 -6 -62 28 -80 64 -14 26 -12 33 40 136 30 60 55 113 55
119 0 18 61 70 115 100 62 33 83 52 102 89 19 38 13 106 -15 168 -28 61 -28
93 3 123 30 31 77 33 105 5 24 -24 24 -32 4 -85 -21 -55 -44 -163 -44 -205 0
-77 61 -105 104 -47 16 21 20 43 21 105 1 42 -2 88 -7 102 -5 13 -13 55 -18
94 -11 88 -36 117 -107 123 -42 4 -54 1 -78 -20 -26 -22 -29 -32 -34 -103 l-6
-79 -32 81 c-25 65 -30 88 -24 120 10 54 27 81 61 99 38 19 53 19 80 -3 l21
-17 -21 -28 c-12 -16 -21 -29 -19 -31 2 -2 33 -6 68 -10 l65 -6 -28 29 c-38
39 -32 66 14 65 65 -3 69 -4 80 -25 9 -16 7 -27 -9 -55 -15 -26 -21 -51 -20
-92 1 -31 4 -46 6 -32 4 28 15 54 46 117 l21 41 -29 74 c-33 85 -75 131 -130
147 -51 14 -81 13 -127 -3z m152 -41 c17 -9 39 -34 51 -58 12 -23 28 -50 37
-60 14 -16 13 -16 -16 -1 -36 17 -100 10 -109 -12 -4 -11 -12 -8 -35 11 -44
37 -91 32 -144 -16 -20 -19 -20 -19 -37 16 -16 34 -16 35 10 65 14 17 42 39
62 50 45 24 140 26 181 5z m-264 -151 c10 -25 14 -52 10 -83 -5 -38 0 -61 29
-131 25 -61 39 -85 52 -85 29 -1 42 -14 54 -55 18 -61 -9 -122 -69 -157 -121
-69 -126 -74 -196 -215 -36 -74 -66 -143 -66 -154 0 -25 63 -100 91 -109 37
-12 67 20 90 96 23 76 39 95 109 136 62 37 158 118 200 170 34 42 35 42 38 17
2 -14 -4 -49 -13 -78 -16 -50 -16 -58 1 -127 10 -40 19 -68 21 -63 2 6 17 8
33 6 52 -7 119 8 147 34 14 13 28 24 29 24 9 0 2 -12 -25 -39 -16 -16 -52 -73
-81 -125 -41 -77 -57 -97 -78 -102 -15 -3 -32 -7 -38 -9 -6 -2 -26 6 -44 16
l-33 20 7 86 c6 69 4 89 -9 109 -19 30 -36 30 -83 0 -46 -29 -93 -81 -144
-160 -31 -49 -38 -68 -38 -111 0 -61 -12 -75 -62 -75 -35 0 -39 3 -64 53 -15
28 -46 77 -69 107 -50 64 -60 84 -85 154 l-18 53 44 0 c56 0 94 26 114 79 24
63 58 111 103 145 81 62 137 122 137 147 0 13 -15 41 -33 62 -25 29 -36 56
-46 107 -7 37 -22 88 -33 113 -27 61 -48 130 -48 158 0 17 6 22 26 22 19 0 28
-8 40 -36z m224 -29 c0 -8 -7 -15 -15 -15 -9 0 -12 6 -9 15 4 8 10 15 15 15 5
0 9 -7 9 -15z m20 -75 c11 -6 25 -20 31 -32 11 -20 10 -20 -12 -4 -30 20 -88
21 -117 0 -24 -17 -29 -7 -9 18 21 28 73 36 107 18z m1050 -50 c15 -16 30 -39
33 -50 13 -49 -65 -90 -170 -90 -52 0 -90 15 -107 42 -14 23 18 55 94 97 72
40 113 40 150 1z m-801 -61 c49 -33 94 -66 100 -72 18 -22 53 -132 55 -169 1
-42 -13 -52 -29 -20 -18 34 -37 52 -54 52 -10 0 -28 11 -40 24 -19 20 -21 28
-11 45 16 31 4 61 -26 61 -30 0 -32 -16 -3 -23 12 -3 18 -10 14 -17 -4 -6 -13
-9 -21 -6 -27 10 -14 -19 22 -48 l36 -28 -21 -22 c-31 -33 -28 -89 5 -115 53
-42 128 -15 150 54 14 40 14 40 8 5 -3 -19 -7 -45 -10 -56 -7 -35 -115 -214
-138 -229 -55 -36 -166 -39 -166 -5 0 9 -7 32 -16 50 -15 30 -15 35 0 66 9 19
16 54 16 78 0 24 9 64 20 90 25 54 26 162 4 271 -8 39 -14 71 -14 73 0 13 44
-8 119 -59z m-195 36 c3 -8 1 -15 -4 -15 -6 0 -10 7 -10 15 0 8 2 15 4 15 2 0
6 -7 10 -15z m6 -95 c0 -20 -5 -30 -15 -30 -16 0 -19 17 -9 44 10 26 24 18 24
-14z m618 -18 c39 -35 41 -39 34 -77 -7 -36 -11 -41 -57 -58 -43 -16 -55 -17
-88 -6 -53 17 -57 26 -42 84 19 74 26 86 48 94 32 12 61 2 105 -37z m-610
-104 c2 -67 0 -80 -18 -98 -27 -27 -42 -22 -52 16 -9 30 -4 76 13 132 9 26 16
32 32 30 20 -3 22 -10 25 -80z m915 19 c41 -31 49 -61 31 -114 -30 -88 -114
-119 -173 -64 -25 23 -31 37 -31 69 0 78 71 121 120 72 36 -36 21 -90 -27 -90
-23 0 -43 26 -36 48 6 15 43 16 43 0 0 -9 3 -9 11 -1 16 16 2 33 -26 33 -25 0
-55 -24 -55 -43 0 -7 7 -23 16 -35 18 -27 69 -30 96 -5 25 23 24 81 -4 110
-70 75 -207 -35 -158 -127 9 -16 8 -18 -6 -13 -13 5 -15 3 -9 -7 6 -9 4 -11
-4 -6 -7 5 -10 10 -7 13 3 3 -1 15 -9 27 -21 30 -19 80 5 101 11 10 37 29 58
42 49 31 117 27 165 -10z m-649 -86 c19 -21 14 -41 -10 -41 -8 0 -14 9 -14 20
0 22 -16 27 -23 8 -14 -39 46 -65 73 -33 10 12 16 13 24 5 8 -8 5 -17 -13 -31
-28 -23 -49 -24 -79 -3 -27 19 -30 68 -4 83 24 14 26 14 46 -8z m857 -51 c33
-18 25 -64 -18 -98 -79 -62 -162 -81 -197 -46 -19 19 -19 18 -2 52 40 77 154
125 217 92z m-459 -22 c14 -13 40 -51 57 -86 29 -58 31 -66 20 -105 -20 -77
-53 -122 -100 -136 -32 -10 -44 -10 -49 -1 -5 8 -9 7 -14 -5 -4 -12 -17 -15
-53 -13 -46 3 -49 5 -90 67 -51 75 -53 105 -14 151 l29 35 49 -46 c26 -25 57
-51 68 -59 11 -7 -9 14 -45 47 l-65 61 20 22 c31 35 117 90 141 90 11 0 32
-10 46 -22z m-292 -216 c0 -11 58 -101 83 -129 15 -17 31 -23 64 -23 34 0 43
-4 44 -17 1 -15 2 -15 6 -2 3 14 80 46 89 37 1 -2 -14 -31 -35 -64 -51 -81
-96 -101 -72 -33 6 18 9 34 7 36 -2 3 -9 -12 -16 -31 -6 -20 -14 -36 -16 -36
-3 0 -22 14 -44 31 -22 18 -51 31 -70 32 -18 1 -36 9 -40 17 -75 156 -77 164
-36 180 28 11 36 12 36 2z m-493 -193 c25 -52 -9 -93 -53 -64 -31 20 -31 59
-2 79 28 20 40 16 55 -15z m-69 -130 c5 -25 -27 -51 -57 -47 -32 4 -41 36 -15
55 24 18 68 13 72 -8z"/>
<path d="M2622 3660 c0 -14 2 -19 5 -12 2 6 2 18 0 25 -3 6 -5 1 -5 -13z"/>
<path d="M2611 3604 c0 -11 3 -14 6 -6 3 7 2 16 -1 19 -3 4 -6 -2 -5 -13z"/>
<path d="M2711 4144 c0 -11 3 -14 6 -6 3 7 2 16 -1 19 -3 4 -6 -2 -5 -13z"/>
<path d="M2702 4090 c0 -14 2 -19 5 -12 2 6 2 18 0 25 -3 6 -5 1 -5 -13z"/>
<path d="M2691 4034 c0 -11 3 -14 6 -6 3 7 2 16 -1 19 -3 4 -6 -2 -5 -13z"/>
<path d="M2681 3984 c0 -11 3 -14 6 -6 3 7 2 16 -1 19 -3 4 -6 -2 -5 -13z"/>
<path d="M2671 3924 c0 -11 3 -14 6 -6 3 7 2 16 -1 19 -3 4 -6 -2 -5 -13z"/>
<path d="M2690 3901 c-14 -28 -13 -47 6 -66 30 -30 57 20 38 69 -8 22 -31 20
-44 -3z m30 -33 c0 -16 -3 -19 -11 -11 -6 6 -8 16 -5 22 11 17 16 13 16 -11z"/>
<path d="M2661 3874 c0 -11 3 -14 6 -6 3 7 2 16 -1 19 -3 4 -6 -2 -5 -13z"/>
<path d="M2652 3820 c0 -14 2 -19 5 -12 2 6 2 18 0 25 -3 6 -5 1 -5 -13z"/>
<path d="M2405 4547 c-10 -23 15 -50 38 -41 9 3 16 16 16 28 -1 16 -2 17 -6 4
-6 -26 -31 -22 -36 5 -3 20 -4 20 -12 4z"/>
<path d="M2573 4527 c-4 -8 -15 -17 -23 -20 -10 -3 -7 -6 8 -6 12 -1 25 6 29
14 7 21 -3 30 -14 12z"/>
<path d="M2150 4241 c0 -20 -8 -35 -22 -45 -29 -21 -39 -20 -31 2 4 11 -1 8
-15 -8 l-21 -25 -1 28 c0 16 8 36 18 45 10 10 13 14 7 10 -7 -4 -14 -5 -18 -2
-11 12 -28 -38 -22 -66 8 -36 24 -48 39 -29 6 8 25 21 41 31 17 9 34 29 39 47
6 18 18 32 30 34 13 3 8 5 -11 6 -30 1 -33 -2 -33 -28z"/>
<path d="M2105 4239 c-4 -6 -5 -12 -2 -15 2 -3 7 2 10 11 7 17 1 20 -8 4z"/>
<path d="M2463 4233 c9 -2 23 -2 30 0 6 3 -1 5 -18 5 -16 0 -22 -2 -12 -5z"/>
<path d="M1992 4005 c-17 -36 -30 -65 -27 -65 7 0 67 121 63 126 -2 2 -18 -26
-36 -61z"/>
<path d="M1573 3838 c-14 -27 -17 -61 -18 -188 0 -85 -4 -160 -8 -167 -7 -11
12 -121 33 -188 6 -19 6 -33 0 -39 -6 -6 -10 -24 -10 -40 0 -50 -13 -61 -43
-41 -38 25 -103 22 -133 -6 -36 -34 -33 -82 10 -125 44 -44 82 -45 126 -4 27
25 35 28 53 19 20 -11 19 -12 -9 -24 -43 -18 -56 -39 -58 -96 -1 -45 2 -54 26
-72 26 -19 32 -20 97 -8 84 15 116 42 109 92 -4 25 1 39 20 61 14 15 32 28 41
28 19 0 71 79 71 107 0 11 11 25 25 31 14 6 25 18 25 27 0 19 -11 19 -36 0
-10 -8 -31 -15 -46 -15 -22 0 -29 6 -34 27 -11 42 15 78 56 79 38 0 50 26 17
32 -24 5 -71 -7 -63 -15 3 -4 -1 -17 -10 -31 -10 -14 -14 -38 -12 -58 5 -40
-6 -43 -52 -11 -45 30 -47 43 -8 56 37 12 82 55 92 88 4 12 8 107 9 210 2 173
0 191 -19 223 -25 44 -51 48 -99 16 -45 -31 -65 -33 -65 -6 0 70 -57 94 -87
38z m58 -43 c10 -40 15 -45 39 -45 15 0 44 11 64 25 47 32 54 31 68 -2 11 -27
16 -249 5 -259 -2 -3 -20 4 -38 15 -19 11 -59 27 -90 36 -83 23 -94 40 -93
138 0 72 14 137 29 137 2 0 10 -20 16 -45z m29 -247 c56 -15 93 -30 123 -50
24 -17 27 -25 26 -71 0 -29 -6 -70 -13 -92 -16 -53 -58 -69 -136 -52 l-54 12
-18 80 c-15 68 -16 89 -6 138 10 45 15 56 28 51 8 -3 31 -10 50 -16z m-15
-278 c3 -5 -3 -10 -14 -10 -11 0 -23 5 -26 10 -3 6 3 10 14 10 11 0 23 -4 26
-10z m76 -46 c13 -15 48 -37 77 -50 28 -13 52 -27 52 -32 0 -17 -59 -101 -79
-111 -25 -14 -67 -14 -93 0 -15 8 -19 8 -14 0 5 -7 -2 -11 -19 -11 -28 0 -46
27 -25 40 7 4 28 1 47 -7 31 -12 38 -12 59 2 49 32 52 95 7 137 -19 18 -36 23
-79 23 -32 0 -54 4 -54 11 0 19 12 24 55 24 32 0 47 -6 66 -26z m0 -50 c22
-20 26 -76 7 -91 -28 -22 -49 -22 -69 -2 -22 22 -21 37 4 53 12 8 20 7 29 -2
11 -11 9 -16 -6 -28 -23 -17 -12 -33 12 -18 37 24 21 74 -24 74 -29 0 -58 -41
-49 -70 8 -25 -3 -25 -34 -1 -19 14 -22 24 -17 45 12 47 43 69 88 63 22 -3 48
-13 59 -23z m-201 -34 c26 -26 25 -32 -6 -69 -30 -36 -51 -39 -88 -10 -28 22
-35 66 -14 87 20 20 85 15 108 -8z m169 -156 c17 -14 31 -34 31 -45 0 -35
-104 -68 -155 -49 -26 10 -27 14 -22 52 3 23 14 48 23 55 30 22 89 16 123 -13z"/>
<path d="M2417 3390 c-14 -11 -34 -21 -45 -23 -34 -5 -54 -29 -98 -120 -67
-138 -72 -245 -13 -296 16 -14 29 -29 29 -33 0 -15 -19 -8 -39 13 -21 23 -61
19 -61 -7 0 -8 4 -13 9 -9 6 3 48 -29 95 -71 77 -69 86 -81 86 -112 0 -47 -35
-117 -70 -142 -15 -11 -30 -20 -32 -20 -1 0 -3 38 -3 84 0 78 -2 88 -30 128
-17 23 -45 52 -63 63 -32 21 -44 42 -17 31 11 -4 15 1 15 19 0 54 -28 33 -110
-79 -64 -88 -130 -216 -130 -254 0 -39 72 -187 95 -196 30 -11 37 -7 102 60
39 39 71 63 79 60 8 -3 14 0 14 7 0 7 17 21 37 32 21 11 43 31 49 43 19 39 34
49 34 25 0 -12 -4 -23 -10 -25 -14 -4 24 -77 66 -127 l36 -42 -26 -20 c-43
-34 -69 -95 -68 -164 0 -76 32 -179 63 -204 13 -11 20 -23 16 -28 -5 -4 -17 3
-28 15 -14 18 -29 24 -61 24 -60 1 -237 -31 -271 -48 -66 -35 -54 -97 31 -159
122 -89 288 -87 365 4 30 36 34 66 12 95 -18 23 -20 45 -4 29 6 -6 16 -22 23
-34 26 -53 132 -81 184 -49 65 40 61 166 -11 360 -25 65 -38 88 -58 97 -15 7
-32 20 -39 28 -21 25 11 19 49 -10 32 -23 38 -24 135 -18 55 3 109 10 119 15
23 12 22 53 -2 120 -11 29 -27 78 -36 108 -17 60 -33 83 -82 118 -22 16 -33
32 -34 50 -2 24 -2 24 -6 5 -2 -13 -8 -23 -12 -23 -4 0 -47 18 -96 39 -93 42
-131 45 -167 14 -9 -8 -22 -12 -28 -8 -10 6 -60 98 -60 110 0 3 22 -6 50 -20
27 -14 60 -25 74 -25 13 0 26 -5 28 -11 8 -23 173 87 214 143 32 43 55 117 56
177 0 59 -32 118 -101 186 -29 27 -41 48 -42 70 -1 24 -3 26 -6 7 -3 -18 -9
-22 -21 -16 -95 40 -147 44 -185 14z m122 -25 c49 -17 90 -45 91 -62 0 -7 6
-13 13 -13 18 -1 91 -95 98 -127 9 -46 -15 -139 -48 -185 -40 -57 -158 -138
-209 -144 -56 -7 -168 62 -203 126 -39 70 -36 156 9 245 42 84 71 99 143 71
102 -39 103 -176 2 -202 -58 -14 -111 69 -70 110 31 31 81 10 73 -31 -3 -13
-12 -17 -31 -16 -18 1 -27 -3 -27 -13 0 -8 4 -14 9 -14 5 0 16 -3 24 -6 21 -8
57 30 57 59 0 33 -34 60 -72 59 -74 -2 -99 -91 -40 -143 46 -41 91 -39 140 5
33 31 37 40 37 83 0 85 -71 149 -156 141 -21 -2 -39 -1 -39 3 0 13 40 41 77
55 49 17 72 17 122 -1z m-209 -65 c0 -5 -5 -10 -11 -10 -5 0 -7 5 -4 10 3 6 8
10 11 10 2 0 4 -4 4 -10z m-51 -404 c31 -16 91 -80 91 -97 0 -6 -27 12 -60 41
-81 70 -90 86 -31 56z m-118 -66 c10 -6 19 -18 19 -28 0 -13 2 -14 9 -4 13 21
49 -37 60 -94 14 -72 0 -164 -25 -164 -8 0 -49 -34 -90 -77 -85 -87 -81 -87
-133 12 -34 67 -37 90 -17 138 11 28 19 33 51 35 40 3 65 -11 64 -37 0 -10 -3
-8 -10 7 -7 18 -15 23 -36 20 -31 -3 -43 -38 -23 -64 18 -21 67 -18 80 5 25
47 2 90 -53 100 l-35 6 50 78 c28 42 55 77 60 77 5 0 18 -5 29 -10z m380 -86
c70 -28 99 -54 99 -89 0 -28 -25 -55 -48 -54 -12 0 -11 3 6 9 27 11 30 55 5
68 -20 11 -63 -2 -63 -18 0 -22 -28 -8 -70 36 -43 44 -44 46 -26 60 25 18 21
18 97 -12z m-134 -26 c-3 -8 -6 -5 -6 6 -1 11 2 17 5 13 3 -3 4 -12 1 -19z
m101 -70 c39 -40 95 -92 126 -116 50 -38 56 -47 56 -80 0 -20 -9 -51 -20 -69
-22 -36 -25 -36 -134 10 -77 32 -126 71 -126 101 0 37 46 64 74 43 14 -10 12
-12 -16 -12 -27 0 -34 -4 -36 -23 -7 -47 43 -69 80 -35 25 22 23 49 -7 78 -31
32 -56 31 -93 0 l-29 -24 -12 25 c-15 34 -14 39 14 83 13 22 27 51 31 65 3 14
10 26 14 26 4 0 39 -33 78 -72z m149 56 c3 -8 16 -20 30 -25 13 -5 28 -19 33
-31 5 -13 9 -17 9 -10 2 37 64 -30 77 -83 7 -29 6 -29 -12 -14 -10 8 -27 14
-36 12 -22 -5 -33 -46 -19 -70 9 -16 11 -14 17 15 3 17 10 32 15 32 13 0 11
-38 -3 -42 -13 -5 -2 -28 13 -28 6 0 15 13 22 28 12 29 12 28 36 -45 30 -90
28 -93 -82 -93 l-78 0 18 33 c26 49 21 147 -11 232 -15 38 -34 77 -43 87 -10
11 -12 18 -4 18 6 0 14 -7 18 -16z m-647 -34 c0 -5 -5 -10 -11 -10 -5 0 -7 5
-4 10 3 6 8 10 11 10 2 0 4 -4 4 -10z m590 -25 c0 -8 -4 -15 -10 -15 -5 0 -10
7 -10 15 0 8 5 15 10 15 6 0 10 -7 10 -15z m-530 -34 c0 -5 -7 -11 -15 -15
-15 -5 -20 5 -8 17 9 10 23 9 23 -2z m610 -52 c7 -27 11 -52 9 -54 -2 -2 -21
12 -41 31 l-37 34 22 23 c12 13 25 22 28 20 4 -2 12 -26 19 -54z m-210 -71 c0
-16 -3 -19 -11 -11 -6 6 -8 16 -5 22 11 17 16 13 16 -11z m31 -1 c-10 -9 -11
-8 -5 6 3 10 9 15 12 12 3 -3 0 -11 -7 -18z m-26 -87 c3 -5 -1 -10 -10 -10 -9
0 -13 5 -10 10 3 6 8 10 10 10 2 0 7 -4 10 -10z m100 -83 c41 -44 102 -188 89
-209 -11 -17 -86 1 -137 34 -56 36 -127 124 -127 157 0 12 12 34 26 48 22 22
32 25 67 20 33 -4 50 -15 82 -50z m-9 -225 c23 -7 57 -12 77 -12 42 0 47 -10
47 -99 0 -82 -13 -103 -63 -103 -46 0 -137 53 -173 100 -33 43 -62 129 -70
208 l-7 65 74 -74 c52 -51 86 -77 115 -85z m-159 -118 c78 -50 62 -148 -30
-183 -45 -17 -147 -13 -187 7 -46 23 -55 72 -16 97 35 24 68 12 64 -23 -2 -19
-9 -27 -23 -27 -11 0 -20 7 -20 15 0 9 7 14 18 12 21 -4 23 14 2 22 -24 9 -45
-4 -45 -28 0 -28 18 -46 45 -46 44 0 61 56 28 92 -37 42 -113 7 -113 -52 0
-38 -6 -38 -47 2 -67 65 -37 93 124 118 123 19 163 18 200 -6z"/>
<path d="M2642 3240 c0 -14 2 -19 5 -12 2 6 2 18 0 25 -3 6 -5 1 -5 -13z"/>
<path d="M2652 3170 c0 -14 2 -19 5 -12 2 6 2 18 0 25 -3 6 -5 1 -5 -13z"/>
<path d="M2662 3090 c0 -14 2 -19 5 -12 2 6 2 18 0 25 -3 6 -5 1 -5 -13z"/>
<path d="M2672 3020 c0 -14 2 -19 5 -12 2 6 2 18 0 25 -3 6 -5 1 -5 -13z"/>
<path d="M2192 2740 c0 -14 2 -19 5 -12 2 6 2 18 0 25 -3 6 -5 1 -5 -13z"/>
<path d="M2202 2660 c0 -14 2 -19 5 -12 2 6 2 18 0 25 -3 6 -5 1 -5 -13z"/>
<path d="M2212 2580 c0 -14 2 -19 5 -12 2 6 2 18 0 25 -3 6 -5 1 -5 -13z"/>
<path d="M2732 2580 c0 -14 2 -19 5 -12 2 6 2 18 0 25 -3 6 -5 1 -5 -13z"/>
<path d="M3066 3345 c-9 -26 -7 -32 5 -12 6 10 9 21 6 23 -2 3 -7 -2 -11 -11z"/>
<path d="M1970 3216 c0 -2 8 -10 18 -17 15 -13 16 -12 3 4 -13 16 -21 21 -21
13z"/>
<path d="M2000 3176 c0 -2 8 -10 18 -17 15 -13 16 -12 3 4 -13 16 -21 21 -21
13z"/>
<path d="M2997 3147 c-3 -8 -19 -18 -36 -22 -16 -3 -48 -20 -71 -36 -75 -54
-90 -138 -42 -230 31 -59 80 -99 123 -99 98 0 204 251 140 332 -12 15 -38 32
-59 39 -20 6 -40 16 -43 21 -3 5 -9 3 -12 -5z m91 -77 c31 -59 -26 -233 -87
-264 -16 -9 -34 -16 -40 -16 -19 0 -72 53 -91 91 -58 113 17 218 153 215 44
-1 53 -5 65 -26z"/>
<path d="M2030 3136 c0 -2 8 -10 18 -17 15 -13 16 -12 3 4 -13 16 -21 21 -21
13z"/>
<path d="M2099 3048 c24 -32 45 -58 48 -58 7 0 -59 89 -76 103 -8 7 5 -14 28
-45z"/>
<path d="M1824 3019 c-10 -12 -29 -25 -41 -30 -47 -18 -14 -89 48 -104 29 -7
85 13 112 39 9 10 17 30 17 46 0 60 -95 94 -136 49z m87 -19 c46 -25 4 -80
-62 -80 -46 0 -66 21 -51 55 14 31 76 44 113 25z"/>
<path d="M2692 2870 c0 -14 2 -19 5 -12 2 6 2 18 0 25 -3 6 -5 1 -5 -13z"/>
<path d="M2702 2800 c0 -14 2 -19 5 -12 2 6 2 18 0 25 -3 6 -5 1 -5 -13z"/>
</g>
</svg>
