<?xml version="1.0" standalone="no"?>
<!DOCTYPE svg PUBLIC "-//W3C//DTD SVG 20010904//EN"
 "http://www.w3.org/TR/2001/REC-SVG-20010904/DTD/svg10.dtd">
<svg version="1.0" xmlns="http://www.w3.org/2000/svg"
 width="515.000000pt" height="627.000000pt" viewBox="0 0 515.000000 627.000000"
 preserveAspectRatio="xMidYMid meet">

<g transform="translate(0.000000,627.000000) scale(0.100000,-0.100000)"
fill="#000000" stroke="none">
<path d="M2415 4883 c-100 -22 -144 -37 -172 -59 -36 -27 -63 -71 -63 -103 0
-11 -9 -22 -20 -26 -62 -20 -63 -95 -5 -298 l37 -127 -42 -38 c-42 -37 -42
-37 -41 -106 0 -38 13 -118 27 -179 l27 -110 -49 -99 -48 -98 19 -37 c11 -20
44 -63 73 -94 46 -50 60 -59 100 -65 78 -11 78 -15 12 -78 -60 -58 -61 -58
-108 -51 -86 12 -391 -54 -494 -106 -58 -30 -66 -55 -66 -209 0 -74 -10 -224
-22 -333 -25 -235 -26 -230 84 -305 58 -39 87 -70 168 -178 53 -72 109 -139
123 -148 37 -24 138 -61 262 -96 96 -27 110 -34 175 -90 80 -69 139 -101 218
-119 30 -6 82 -26 115 -44 58 -31 60 -34 65 -77 l5 -45 70 1 c72 0 127 20 152
53 16 20 16 66 2 106 -11 30 -9 35 48 107 87 109 108 157 108 243 -1 79 -12
107 -72 174 -25 28 -44 42 -52 37 -8 -5 -1 -19 25 -48 79 -88 94 -178 45 -276
-28 -55 -113 -176 -132 -188 -14 -8 -39 60 -39 108 0 63 -10 73 -70 70 -50 -2
-51 -1 -66 33 -17 42 -17 45 -1 45 25 0 123 52 155 83 40 38 72 97 72 132 0
21 -8 30 -45 46 -45 20 -62 36 -26 24 10 -3 25 0 32 7 8 8 27 15 43 16 24 2
27 0 16 -13 -40 -48 81 26 126 77 49 56 67 114 63 206 -3 67 -8 85 -33 121
-16 23 -49 54 -73 69 -24 15 -70 44 -101 64 -35 23 -59 32 -61 25 -2 -6 9 -20
24 -32 124 -89 147 -122 148 -208 1 -117 -47 -190 -167 -253 -48 -25 -56 -26
-84 -15 l-32 13 32 22 c51 34 68 67 82 155 10 59 11 106 4 169 -20 197 -22
180 24 231 84 95 107 194 73 321 -32 119 -18 182 88 398 31 62 71 158 89 212
30 93 33 98 50 84 28 -27 98 -29 144 -6 49 25 67 45 93 102 38 82 19 210 -44
310 -34 53 -124 144 -164 165 -16 8 -38 29 -49 47 -44 72 -179 138 -281 138
-26 0 -42 9 -73 41 -71 73 -164 103 -246 80 -25 -8 -42 -6 -75 9 -40 19 -147
26 -202 13z m182 -36 c2 -3 0 -15 -7 -26 -8 -15 -20 -21 -46 -21 -41 0 -93
-20 -112 -43 -8 -9 -14 -33 -15 -52 -1 -32 -4 -36 -22 -30 -11 3 -45 8 -75 11
-72 7 -95 -8 -95 -65 0 -37 -2 -40 -30 -43 -24 -2 -31 -8 -35 -33 -6 -30 -6
-30 -13 -5 -11 39 -8 105 5 118 7 7 24 12 38 12 24 0 25 3 22 38 -6 67 44 110
161 137 57 13 211 14 224 2z m53 -5 c0 -4 -5 -13 -12 -20 -18 -18 -28 -15 -28
8 0 13 7 20 20 20 11 0 20 -4 20 -8z m170 -17 c23 -8 59 -28 80 -45 21 -16 43
-30 49 -30 6 0 11 -3 11 -8 0 -11 -144 -6 -168 7 -11 6 -40 11 -64 11 -52 0
-125 -41 -147 -83 -11 -20 -22 -27 -43 -27 l-29 0 22 39 c31 56 99 120 145
136 51 18 92 18 144 0z m-268 -51 c3 -3 -9 -27 -27 -54 -18 -27 -35 -55 -38
-62 -9 -25 -42 7 -45 44 -3 40 12 57 61 68 44 11 43 11 49 4z m220 -45 c17 -9
18 -13 7 -20 -20 -12 -23 -11 -37 11 -14 23 -2 26 30 9z m-32 -51 c20 -46 41
-176 30 -183 -4 -2 -25 -7 -46 -11 l-40 -6 -17 74 c-31 139 -26 167 31 168 18
0 28 -10 42 -42z m402 4 c59 -26 165 -105 149 -110 -7 -2 -20 3 -29 11 -9 8
-42 20 -72 26 -30 7 -74 16 -98 22 -65 14 -109 11 -204 -13 -48 -12 -89 -20
-92 -18 -2 3 -6 23 -8 45 -3 40 -3 40 42 52 71 20 254 11 312 -15z m-521 -16
c-6 -14 -15 -26 -21 -26 -14 0 -12 12 6 38 20 29 28 23 15 -12z m-210 -21 c52
-15 110 -25 152 -25 37 0 67 -3 67 -7 0 -5 3 -18 6 -30 6 -22 4 -23 -72 -23
-63 0 -90 5 -133 26 -67 30 -130 40 -160 25 -19 -11 -21 -9 -21 17 0 16 3 32
7 35 13 13 70 7 154 -18z m649 -23 c0 -19 -23 -32 -37 -21 -20 17 -15 29 12
29 14 0 25 -4 25 -8z m-41 -44 c6 -18 45 -71 87 -118 45 -51 90 -115 112 -159
34 -70 37 -81 37 -165 0 -80 -3 -98 -28 -146 -54 -105 -121 -147 -219 -138
-68 7 -108 47 -108 108 0 46 22 63 47 38 13 -14 13 -18 -5 -34 -42 -41 24
-101 100 -91 101 14 163 100 163 227 0 129 -41 190 -243 370 -51 45 -62 61
-62 86 0 27 5 32 38 41 62 17 70 15 81 -19z m-653 11 c24 -6 44 -14 44 -16 0
-3 -9 -16 -20 -30 -20 -25 -27 -63 -12 -63 4 0 15 18 25 40 23 50 50 54 45 8
-2 -25 -10 -36 -31 -46 -19 -9 -26 -17 -19 -24 6 -6 17 -6 30 1 27 14 32 14
32 -3 0 -19 60 -75 86 -82 25 -6 23 -26 -5 -63 -17 -22 -20 -23 -34 -9 -9 9
-14 18 -11 21 3 3 3 15 -1 27 -7 23 -36 20 -66 -6 -26 -23 -65 -17 -84 12 -14
22 -15 28 -4 35 10 6 21 1 35 -17 18 -22 25 -24 43 -15 11 7 21 18 21 26 0 13
-4 13 -21 3 -18 -11 -23 -10 -27 2 -3 8 -18 28 -34 44 -23 22 -35 27 -58 23
-25 -5 -32 -2 -49 27 -12 18 -21 38 -21 44 0 17 43 59 65 65 11 2 21 5 23 6 2
0 23 -4 48 -10z m859 -20 c121 -33 225 -123 283 -246 37 -80 39 -188 2 -251
-47 -83 -127 -106 -182 -52 -34 34 -34 63 1 68 22 3 23 1 18 -27 -6 -28 -3
-33 20 -42 33 -12 60 -4 97 30 56 51 68 116 41 209 -40 134 -204 253 -370 269
-54 5 -65 9 -74 30 -6 13 -11 28 -11 34 0 13 86 2 175 -22z m-348 -7 c2 -24
-3 -30 -32 -41 -43 -15 -55 -8 -55 29 0 25 4 29 33 33 17 2 37 5 42 5 6 1 11
-11 12 -26z m-656 -65 c11 -21 42 -68 69 -104 46 -61 49 -67 32 -79 -9 -7 -20
-14 -24 -14 -10 0 -86 132 -105 184 -10 26 -13 51 -8 62 6 15 8 16 12 4 3 -8
14 -32 24 -53z m351 19 c28 -49 43 -58 103 -58 39 0 84 9 130 26 l70 25 29
-28 28 -29 -54 -20 c-69 -26 -194 -52 -249 -52 -88 0 -159 60 -159 135 0 27 1
27 48 20 26 -4 50 -12 54 -19z m78 17 c0 -5 3 -18 6 -30 5 -19 2 -23 -14 -23
-19 0 -52 33 -52 52 0 10 60 10 60 1z m456 -23 c5 -5 27 -10 49 -11 22 -1 63
-13 92 -27 43 -22 53 -32 63 -67 28 -91 22 -181 -16 -272 -3 -7 2 -10 13 -9
24 4 52 87 53 154 0 64 -17 137 -36 153 -19 15 -18 30 1 23 8 -4 15 -11 15
-18 0 -6 16 -24 36 -40 112 -89 145 -261 63 -330 -36 -31 -49 -33 -49 -8 0 26
-29 62 -50 62 -25 0 -50 -37 -50 -74 0 -16 -6 -34 -14 -40 -7 -6 -26 -49 -41
-96 -15 -47 -61 -155 -101 -240 -58 -124 -93 -182 -174 -289 -93 -125 -100
-137 -100 -180 l1 -46 52 100 c42 81 121 205 131 205 1 0 0 -18 -2 -39 -2 -22
6 -86 18 -142 13 -58 20 -116 17 -136 -10 -58 -46 -121 -116 -198 -36 -41 -84
-95 -106 -120 -37 -43 -45 -47 -105 -55 -36 -5 -119 -10 -184 -10 l-119 0
-101 -56 c-56 -31 -105 -61 -111 -67 -5 -6 11 2 38 17 26 15 51 24 56 21 5 -3
12 -1 15 4 4 5 26 20 49 34 40 22 59 24 222 31 128 5 185 11 207 22 16 8 50
44 76 80 l47 64 9 -27 c5 -16 9 -98 10 -183 1 -147 0 -158 -24 -205 -37 -74
-70 -88 -189 -80 l-93 6 43 -52 c24 -28 50 -59 58 -70 12 -18 16 -16 58 31
l44 49 33 -20 c19 -11 36 -30 40 -42 20 -77 -138 -197 -258 -197 -87 1 -206
27 -231 50 -14 13 -25 26 -25 29 0 3 15 15 33 27 59 39 166 194 222 326 26 61
36 72 87 104 32 19 58 37 58 40 0 2 -38 4 -84 4 l-84 0 -69 -88 c-131 -165
-252 -282 -292 -282 -9 0 -54 34 -101 76 l-85 76 82 -80 c61 -60 78 -82 67
-86 -40 -15 -228 0 -349 29 -28 7 -26 3 31 -54 54 -56 68 -64 135 -83 57 -16
106 -21 212 -22 115 -2 140 -5 154 -19 16 -16 15 -17 -20 -17 -58 0 -124 -20
-151 -45 -19 -17 -26 -37 -32 -84 -3 -34 -9 -61 -12 -61 -20 0 -158 48 -209
72 -55 27 -69 41 -134 132 -93 128 -139 177 -209 227 -32 22 -62 50 -69 62 -9
17 -7 61 9 206 12 101 22 250 23 331 3 159 5 168 59 196 98 51 433 121 469 98
9 -5 -53 -71 -192 -208 -113 -111 -167 -165 -120 -121 47 45 143 135 212 202
l125 121 70 7 c38 4 84 10 101 15 31 8 32 7 22 -12 -18 -34 -81 -98 -128 -130
-61 -43 -260 -209 -352 -296 -78 -73 -109 -86 -139 -59 -12 10 -12 9 -1 -5 12
-16 11 -18 -4 -18 -14 0 -16 -6 -11 -32 9 -43 12 -45 41 -18 l24 23 139 -132
c77 -72 142 -131 146 -131 3 0 -31 35 -77 78 -45 42 -109 103 -142 134 l-60
56 65 60 c143 130 278 246 339 290 112 82 142 114 220 232 41 63 92 137 114
164 44 57 118 206 142 286 12 42 25 62 55 85 42 33 91 108 111 170 18 59 16
180 -5 255 -10 36 -19 71 -19 78 -2 11 89 51 119 52 6 0 45 -29 87 -65 81 -69
130 -149 143 -232 6 -40 5 -43 -20 -53 -41 -15 -91 -12 -116 8 -20 16 -21 19
-6 31 23 19 20 57 -5 75 -41 28 -79 -5 -79 -69 0 -50 20 -79 72 -106 29 -15
55 -20 89 -17 27 1 49 0 49 -3 0 -24 -52 -76 -92 -93 -47 -19 -78 -18 -112 7
-18 13 -18 15 -1 41 25 37 8 76 -34 76 -38 0 -50 -17 -53 -75 -1 -43 2 -51 35
-81 56 -52 137 -64 201 -31 54 27 -199 -263 -300 -344 -38 -31 -107 -78 -153
-105 -77 -45 -231 -187 -231 -213 0 -6 15 -5 38 1 61 17 72 26 72 61 0 23 8
41 28 59 34 31 104 79 157 106 102 52 353 308 464 473 72 106 92 185 95 358 1
109 -1 120 -28 174 -16 33 -37 62 -50 67 -31 11 -31 5 -2 -32 33 -44 81 -180
72 -204 -7 -18 -8 -18 -17 -2 -5 10 -11 33 -12 52 -2 18 -11 45 -20 59 -36 55
-119 147 -132 147 -8 0 -15 5 -15 10 0 13 13 13 26 0z m-884 -135 c30 -58 60
-95 77 -95 6 0 23 7 37 16 19 13 38 15 81 11 83 -9 92 -27 13 -27 -52 0 -68
-4 -87 -22 -33 -31 -29 -45 23 -71 l46 -23 -59 1 c-61 1 -100 -9 -120 -33 -9
-10 -6 -29 13 -84 l24 -70 -38 -54 c-20 -30 -40 -54 -43 -54 -10 0 -49 220
-49 273 0 40 4 49 37 76 21 17 42 31 48 31 5 0 19 8 30 17 19 15 19 15 -7 9
-25 -6 -28 -3 -38 36 -6 24 -20 73 -30 110 -24 80 -25 97 -2 43 10 -22 29 -62
44 -90z m114 54 c9 -16 -18 -30 -33 -17 -7 6 -10 14 -7 19 7 13 31 11 40 -2z
m490 -101 c9 -29 18 -96 21 -148 4 -82 2 -103 -17 -154 -44 -116 -156 -198
-245 -182 -38 7 -70 39 -62 61 9 21 34 19 47 -5 16 -29 74 -27 120 5 48 33 77
86 89 167 13 76 4 134 -33 225 -15 35 -26 65 -26 67 0 3 15 7 33 9 17 2 37 5
44 5 7 1 20 -22 29 -50z m-226 17 c-7 -9 -15 -13 -17 -11 -7 7 7 26 19 26 6 0
6 -6 -2 -15z m126 -57 c25 -62 29 -86 29 -168 0 -83 -3 -101 -25 -138 -25 -45
-74 -82 -107 -82 -11 0 -28 9 -38 20 -20 22 -55 26 -73 8 -20 -20 -14 -53 14
-79 22 -20 36 -24 90 -24 35 0 64 -3 64 -6 0 -16 -78 -198 -103 -241 -37 -64
-129 -141 -168 -141 -43 0 -48 12 -16 39 15 13 25 24 21 24 -5 0 -20 -12 -35
-26 -24 -23 -29 -24 -49 -12 -30 18 -141 243 -147 299 -5 40 -1 51 46 119 61
90 90 125 97 118 3 -3 -2 -34 -11 -67 -10 -41 -15 -93 -13 -154 2 -51 -1 -108
-5 -127 -8 -34 -7 -36 45 -65 29 -16 58 -31 65 -33 12 -3 29 36 19 45 -3 4 -6
-1 -6 -10 0 -9 -4 -17 -9 -17 -13 0 -66 133 -81 201 -13 59 -6 149 11 149 5 0
9 14 9 31 0 43 20 121 36 138 10 12 18 12 43 1 17 -7 31 -16 31 -20 0 -5 -16
-46 -35 -91 -19 -46 -35 -87 -35 -91 0 -9 62 -67 72 -68 3 0 2 16 -4 36 -18
68 13 186 96 369 43 94 79 135 116 135 24 0 30 -8 56 -72z m-251 42 c-3 -5
-10 -10 -16 -10 -5 0 -9 5 -9 10 0 6 7 10 16 10 8 0 12 -4 9 -10z m41 -135
c-22 -52 -44 -95 -47 -95 -4 0 -7 17 -6 38 1 20 -2 49 -7 64 -7 24 -5 29 15
37 13 6 38 19 54 30 17 12 31 21 31 21 1 0 -17 -43 -40 -95z m-46 63 c0 -12
-48 -10 -55 2 -3 5 7 8 25 7 16 -1 30 -5 30 -9z m-55 -18 c18 -8 17 -9 -7 -9
-15 -1 -30 4 -33 9 -7 12 12 12 40 0z m-11 -29 c22 -5 32 -14 38 -36 11 -42 3
-58 -26 -51 -19 5 -29 0 -45 -20 l-21 -27 0 27 c0 39 2 41 43 38 32 -3 37 0
37 17 0 14 -15 29 -47 46 -27 15 -39 23 -28 19 11 -3 33 -9 49 -13z m633 -47
c4 -10 -1 -22 -10 -29 -25 -18 -21 -41 10 -65 22 -17 38 -21 81 -18 42 2 52 0
50 -12 -3 -11 -18 -15 -62 -15 -54 1 -60 3 -92 38 -33 35 -41 67 -28 101 8 21
43 21 51 0z m-715 -38 c11 -16 10 -58 -1 -51 -5 3 -11 -9 -13 -27 -2 -17 -8
-33 -14 -35 -11 -4 -44 75 -44 103 0 20 60 29 72 10z m118 -216 c0 -40 -3 -48
-15 -44 -8 4 -15 14 -15 25 0 17 20 69 27 69 1 0 3 -22 3 -50z m-196 -359 c59
-101 15 -112 -71 -17 -79 86 -82 97 -49 163 l28 57 27 -69 c15 -39 44 -99 65
-134z m116 89 c16 -48 9 -58 -25 -36 -25 16 -32 46 -19 80 9 24 28 5 44 -44z
m130 -194 c0 -2 -24 -29 -53 -59 -46 -48 -58 -56 -102 -61 -28 -4 -63 -9 -80
-12 -29 -4 -28 -3 24 50 l54 54 54 -5 c47 -5 56 -3 69 16 13 18 34 29 34 17z
m410 -187 c-7 -11 -14 -18 -17 -15 -3 3 0 12 7 21 18 21 23 19 10 -6z m-377
-29 c-5 -17 -53 -35 -53 -20 0 4 10 20 21 34 23 29 41 21 32 -14z m637 -456
c31 -26 60 -72 60 -95 0 -7 -9 -5 -22 7 -19 15 -20 16 -9 2 12 -16 11 -18 -3
-18 -9 0 -16 8 -16 18 0 10 -4 22 -8 28 -22 24 -53 84 -44 84 6 0 24 -12 42
-26z m-1370 -19 c0 -8 -7 -15 -15 -15 -8 0 -15 7 -15 15 0 8 7 15 15 15 8 0
15 -7 15 -15z m970 -72 c0 -5 -16 -18 -35 -31 -26 -16 -48 -48 -86 -125 -28
-56 -67 -125 -85 -153 -38 -56 -132 -154 -150 -154 -6 0 -32 19 -58 41 l-47
42 28 17 c54 33 157 135 235 235 44 55 85 108 93 118 10 11 29 17 60 17 25 0
45 -3 45 -7z m440 -47 c0 -11 -19 -15 -25 -6 -3 5 1 10 9 10 9 0 16 -2 16 -4z
m20 -36 c0 -5 -2 -10 -4 -10 -3 0 -8 5 -11 10 -3 6 -1 10 4 10 6 0 11 -4 11
-10z m-20 -26 c0 -2 -7 -4 -15 -4 -8 0 -15 4 -15 10 0 5 7 7 15 4 8 -4 15 -8
15 -10z m12 -49 c-4 -25 -5 -25 -24 -8 -18 16 -18 18 -1 24 29 12 31 10 25
-16z m-42 -31 c0 -8 -7 -14 -15 -14 -15 0 -21 21 -9 33 10 9 24 -2 24 -19z
m14 -46 c-19 -34 -27 -39 -35 -26 -16 24 -9 38 17 38 17 0 23 -4 18 -12z m-64
-12 c0 -8 7 -22 16 -31 13 -12 14 -19 5 -28 -8 -8 -11 -7 -11 6 0 10 -12 22
-26 27 -22 9 -24 13 -14 25 16 19 30 19 30 1z m-260 -45 c0 -16 -80 -83 -93
-78 -20 8 -79 85 -67 89 18 6 160 -3 160 -11z m189 -33 c1 -4 -10 -2 -24 4
-23 10 -23 12 -7 24 14 10 18 10 24 -4 4 -9 7 -20 7 -24z m53 31 c20 -11 20
-11 -2 -26 -24 -17 -25 -17 -34 15 -8 25 3 28 36 11z m-114 -48 c3 -8 -1 -12
-9 -9 -7 2 -15 10 -17 17 -3 8 1 12 9 9 7 -2 15 -10 17 -17z m-911 -40 c48 -5
117 -7 153 -4 l65 5 43 -45 c33 -33 41 -47 31 -53 -8 -4 -56 -8 -109 -7 -127
1 -242 31 -287 75 -39 38 -42 52 -9 44 14 -3 64 -10 113 -15z m940 -36 c9 -25
-2 -27 -22 -5 -17 18 -17 20 -1 20 9 0 19 -7 23 -15z m-30 -31 c-2 -2 -12 -1
-24 2 -14 4 -20 11 -16 20 5 13 8 12 24 -2 11 -10 18 -19 16 -20z m21 -30 c2
-1 -4 -14 -14 -29 -18 -28 -24 -26 -42 17 -11 27 -11 27 21 21 18 -3 33 -7 35
-9z m-75 -24 c4 -17 2 -18 -14 -9 -11 5 -17 14 -14 20 10 15 22 10 28 -11z
m-68 -79 c-3 -2 -14 4 -26 15 -19 17 -20 19 -2 31 16 12 19 11 25 -14 4 -15 5
-29 3 -32z m59 38 l25 -12 -24 -18 c-31 -25 -35 -24 -35 11 0 34 0 34 34 19z
m-504 -16 c0 -5 -3 -18 -6 -30 l-6 -22 -29 21 c-38 28 -37 38 6 38 19 0 35 -3
35 -7z m85 -5 c11 1 15 -2 10 -6 -6 -4 -10 -13 -11 -19 -3 -43 -13 -44 -37 -4
-22 37 -21 45 1 36 9 -4 26 -7 37 -7z m-170 -40 c7 -26 5 -27 -37 -30 l-43 -4
43 -8 c44 -9 47 -12 32 -36 -8 -12 -13 -11 -33 8 -40 37 -42 24 -2 -19 20 -22
34 -43 31 -46 -3 -3 -21 -2 -41 1 -33 6 -35 9 -35 45 0 68 11 101 39 116 30
15 37 11 46 -27z m447 17 c-4 -24 -5 -24 -17 -8 -10 13 -10 20 -2 25 20 13 24
9 19 -17z m-175 9 c19 -5 20 -9 11 -30 -14 -31 -22 -30 -36 1 -18 39 -17 40
25 29z m242 -37 c-2 -3 -14 -8 -26 -11 -22 -7 -22 -6 -14 54 1 2 11 -5 23 -17
12 -13 20 -24 17 -26z m-389 -10 c0 -20 -25 1 -28 24 -2 23 -2 23 13 5 8 -11
15 -24 15 -29z m94 21 c1 -7 5 -19 10 -26 11 -19 3 -24 -28 -16 -31 7 -34 24
-7 31 13 3 18 11 14 21 -4 10 -3 14 1 10 4 -3 8 -12 10 -20z m156 18 c0 -2 -3
-12 -6 -20 -5 -13 -9 -14 -20 -5 -20 16 -17 29 6 29 11 0 20 -2 20 -4z m-334
-43 c-4 -4 -11 -1 -16 7 -16 25 -11 35 7 17 9 -9 13 -20 9 -24z m294 -15 c0
-4 -11 -8 -25 -8 -28 0 -30 3 -14 32 11 21 12 21 25 3 8 -10 14 -22 14 -27z
m80 4 c-27 -4 -34 2 -26 24 6 15 8 15 27 -2 l21 -19 -22 -3z m-267 -15 c37
-10 74 -36 174 -123 70 -60 138 -117 152 -127 l26 -19 -26 24 c-22 21 -24 26
-11 34 12 8 -5 28 -83 102 l-99 92 45 0 c24 0 60 3 80 6 33 6 38 4 44 -17 22
-79 24 -81 76 -74 41 6 49 4 58 -14 6 -11 11 -37 11 -58 0 -28 9 -51 32 -83
26 -35 32 -53 33 -94 0 -45 -3 -51 -30 -67 -17 -10 -56 -21 -88 -25 -53 -6
-57 -5 -57 14 0 15 9 21 35 26 46 9 54 39 26 102 -17 37 -24 45 -33 36 -9 -9
-8 -19 6 -44 19 -31 19 -31 -3 -49 -22 -18 -24 -17 -89 26 -46 30 -91 51 -144
64 -129 32 -268 141 -268 210 0 66 37 83 133 58z m217 -109 c52 -50 86 -84 75
-76 -18 13 -175 139 -199 160 -6 5 -2 8 10 8 10 0 62 -41 114 -92z m172 -270
c-7 -7 -12 -8 -12 -2 0 14 12 26 19 19 2 -3 -1 -11 -7 -17z"/>
<path d="M2330 2620 l-5 -35 -59 2 c-67 2 -74 6 -56 28 12 14 9 14 -23 -1 -20
-10 -35 -20 -32 -22 6 -6 178 -31 183 -27 2 2 2 23 0 46 -4 44 -4 44 -8 9z"/>
<path d="M2281 4194 c0 -11 3 -14 6 -6 3 7 2 16 -1 19 -3 4 -6 -2 -5 -13z"/>
<path d="M2351 3884 c0 -11 3 -14 6 -6 3 7 2 16 -1 19 -3 4 -6 -2 -5 -13z"/>
<path d="M2361 3844 c0 -11 3 -14 6 -6 3 7 2 16 -1 19 -3 4 -6 -2 -5 -13z"/>
<path d="M2381 3754 c0 -11 3 -14 6 -6 3 7 2 16 -1 19 -3 4 -6 -2 -5 -13z"/>
<path d="M2391 3714 c0 -11 3 -14 6 -6 3 7 2 16 -1 19 -3 4 -6 -2 -5 -13z"/>
<path d="M2411 3624 c0 -11 3 -14 6 -6 3 7 2 16 -1 19 -3 4 -6 -2 -5 -13z"/>
<path d="M2301 4104 c0 -11 3 -14 6 -6 3 7 2 16 -1 19 -3 4 -6 -2 -5 -13z"/>
</g>
</svg>
