<?xml version="1.0" standalone="no"?>
<!DOCTYPE svg PUBLIC "-//W3C//DTD SVG 20010904//EN"
 "http://www.w3.org/TR/2001/REC-SVG-20010904/DTD/svg10.dtd">
<svg version="1.0" xmlns="http://www.w3.org/2000/svg"
 width="515.000000pt" height="627.000000pt" viewBox="0 0 515.000000 627.000000"
 preserveAspectRatio="xMidYMid meet">

<g transform="translate(0.000000,627.000000) scale(0.100000,-0.100000)"
fill="#000000" stroke="none">
<path d="M2790 4760 c-8 -5 -35 -6 -60 -3 -90 10 -150 -48 -189 -184 -14 -47
-34 -90 -51 -108 -45 -50 -60 -78 -60 -115 0 -32 -4 -36 -46 -54 -56 -23 -86
-66 -113 -163 -11 -40 -22 -77 -25 -82 -4 -5 -2 -12 3 -16 7 -4 7 -15 1 -31
-6 -14 -10 -71 -10 -127 l0 -102 -65 -130 c-72 -143 -89 -207 -74 -275 13 -56
89 -161 89 -122 0 4 6 45 14 92 21 128 55 244 86 294 34 53 108 101 141 91 21
-7 21 -8 -9 -20 -72 -31 -150 -191 -159 -330 -5 -68 -9 -85 -32 -110 l-26 -30
26 23 27 23 7 -158 c9 -181 1 -354 -18 -431 -12 -43 -12 -50 -1 -41 30 25 37
86 39 368 l3 284 37 36 c23 22 35 29 31 18 -3 -10 -6 -47 -6 -82 0 -62 -1 -64
-27 -68 l-28 -4 29 -2 29 -1 -6 -312 c-4 -271 -8 -322 -24 -380 -32 -108 -65
-144 -107 -118 -19 12 -20 12 -7 -3 17 -22 13 -21 -49 3 -55 22 -105 25 -144
10 -36 -13 -35 10 4 87 37 73 49 85 98 89 20 2 50 6 66 10 l28 6 -32 -47 c-18
-27 -29 -45 -24 -42 17 10 87 117 81 124 -4 3 -22 -2 -41 -11 -19 -9 -52 -16
-75 -16 -38 0 -41 2 -41 28 0 19 15 45 50 84 57 64 59 72 62 315 2 136 -2 176
-17 162 -2 -3 -7 -91 -11 -197 -4 -107 -12 -200 -18 -211 -6 -10 -30 -42 -53
-71 -32 -38 -43 -61 -43 -86 0 -22 -12 -53 -35 -87 -19 -28 -39 -74 -45 -102
-6 -27 -18 -60 -26 -72 -7 -12 -14 -40 -14 -62 0 -30 -5 -43 -20 -51 -27 -14
-70 -80 -70 -107 0 -12 17 -42 38 -67 111 -132 107 -125 88 -156 -35 -61 -8
-109 88 -154 70 -32 145 -47 246 -47 81 0 89 2 173 45 l88 46 23 -26 c18 -22
27 -25 53 -20 36 8 113 56 113 71 1 24 21 38 71 50 l54 12 -3 52 c-4 50 12
111 28 111 4 0 10 9 13 20 3 11 10 20 16 20 16 0 13 -27 -4 -34 -15 -5 -19
-43 -9 -83 4 -15 17 -23 42 -28 62 -11 68 -14 101 -60 42 -58 87 -73 166 -56
61 14 63 18 44 97 -12 46 -48 84 -79 84 -25 0 -70 56 -70 86 0 14 7 35 15 48
14 20 14 27 -1 61 -14 34 -14 46 1 139 8 55 17 112 19 126 2 14 -1 41 -8 60
-10 30 -8 50 17 145 20 79 27 129 25 176 -2 54 1 70 19 93 60 76 81 232 47
347 -9 30 -17 83 -18 119 -1 50 -9 81 -33 135 -28 61 -33 87 -42 204 -15 183
-16 174 12 161 l22 -11 -22 17 c-21 15 -23 25 -23 103 0 135 -34 207 -112 234
-10 3 -19 22 -23 49 -4 24 -23 70 -42 102 -31 50 -37 72 -44 147 -9 96 -22
130 -66 170 -34 32 -55 40 -73 29z m101 -83 c6 -10 9 -26 7 -35 -2 -12 -9 -7
-26 20 -27 43 -43 51 -79 37 -18 -7 -30 -6 -37 1 -20 20 -71 11 -98 -17 -32
-35 -46 -61 -65 -126 -20 -67 -53 -132 -92 -181 -17 -22 -34 -50 -37 -63 -4
-12 -10 -23 -15 -23 -12 0 -11 17 1 25 6 3 10 17 10 31 0 32 21 73 54 103 16
16 34 51 47 95 27 91 52 139 85 165 28 22 83 28 114 11 13 -7 21 -6 30 5 10
12 17 11 52 -8 21 -12 44 -30 49 -40z m-180 -8 c-11 -12 -29 -56 -40 -98 -24
-89 -24 -91 -11 -91 5 0 14 19 20 43 6 23 15 53 20 67 9 24 10 23 5 -5 -16
-113 -17 -115 -36 -115 -10 0 -23 -10 -30 -22 -6 -13 -41 -53 -77 -91 -60 -60
-67 -71 -67 -107 0 -49 28 -80 82 -90 l38 -8 -36 -1 c-45 -1 -84 27 -99 74
-17 50 -6 84 50 156 28 35 50 72 50 81 0 9 4 19 9 22 5 3 14 27 20 52 15 57
56 140 73 147 7 3 21 6 31 6 16 1 16 -1 -2 -20z m143 -5 c29 -28 38 -56 47
-133 7 -59 15 -84 38 -117 30 -41 51 -106 50 -154 l-1 -25 -11 26 c-7 14 -27
43 -46 64 -48 55 -67 106 -80 215 -7 52 -19 105 -27 118 -13 19 -13 22 0 22 8
0 22 -7 30 -16z m-40 -28 c10 -37 7 -55 -15 -77 -20 -20 -23 -20 -31 -5 -5 9
-16 16 -24 16 -13 0 -14 8 -9 43 9 55 9 54 44 49 19 -3 31 -11 35 -26z m-54
-141 c0 -20 -5 -25 -26 -25 -20 0 -25 4 -20 16 3 9 6 20 6 25 0 5 9 9 20 9 15
0 20 -7 20 -25z m74 3 c3 -13 8 -41 11 -63 l7 -40 -23 24 c-13 14 -24 20 -27
13 -2 -6 6 -21 17 -33 28 -30 45 -111 38 -179 -8 -71 -16 -93 -33 -86 -7 3
-18 -3 -24 -12 -10 -16 -12 -15 -26 6 -23 32 -34 27 -23 -10 5 -18 9 -49 9
-68 1 -34 1 -34 29 24 17 37 30 55 35 48 8 -14 3 -36 -27 -105 -19 -47 -20
-47 -35 -25 -21 30 -54 148 -41 148 6 0 3 7 -5 16 -19 19 -22 133 -5 185 12
35 49 83 57 74 3 -3 -3 -12 -14 -19 -18 -14 -18 -15 -1 -21 21 -9 23 -51 2
-59 -11 -4 -15 -23 -15 -81 0 -43 4 -75 10 -75 12 0 13 7 12 80 -1 46 1 50 7
25 7 -25 9 -19 10 33 1 55 4 65 21 69 26 7 26 23 -1 30 -11 3 -18 11 -15 19 3
7 -2 18 -9 24 -12 10 -21 6 -44 -18 -31 -31 -45 -24 -30 16 6 16 16 22 38 22
23 0 34 7 48 30 21 36 41 39 47 8z m-154 -48 c0 -20 -28 -65 -60 -95 -58 -55
-71 -98 -46 -147 16 -30 8 -35 -25 -17 -27 14 -41 53 -29 83 4 13 33 47 63 75
30 29 60 65 67 81 12 29 30 41 30 20z m1 -136 l-9 -49 -1 65 c0 44 3 60 9 49
5 -9 5 -36 1 -65z m213 -26 c4 -21 3 -38 -2 -38 -5 0 -12 21 -15 48 -3 26 -8
56 -11 67 -4 11 0 7 8 -10 7 -16 16 -47 20 -67z m-246 9 c0 -29 3 -67 6 -85 6
-27 5 -32 -10 -32 -56 0 -72 79 -26 136 15 18 28 34 29 34 1 0 1 -24 1 -53z
m312 -68 c0 -31 -30 -69 -55 -69 -14 0 -14 4 1 32 11 21 15 46 11 77 l-5 46
24 -28 c14 -16 24 -41 24 -58z m-505 6 c14 -55 31 -82 56 -90 11 -4 24 -18 30
-32 7 -20 14 -24 34 -19 20 5 25 2 29 -16 3 -13 17 -81 31 -152 15 -71 34
-151 44 -177 l19 -48 -24 -22 -23 -22 -11 28 c-11 28 -54 252 -66 343 -3 28
-11 52 -17 52 -20 0 14 -230 55 -367 21 -70 21 -73 3 -93 -10 -11 -21 -20 -26
-20 -8 0 -52 119 -70 190 -25 99 -47 275 -35 282 8 5 8 8 0 8 -6 0 -16 30 -22
68 -9 54 -17 72 -41 94 -31 28 -30 41 3 36 14 -2 23 -15 31 -43z m-50 -9 c24
-24 42 -99 32 -136 -3 -11 -2 -20 3 -20 4 0 13 -39 19 -87 10 -76 10 -93 -3
-125 -9 -21 -16 -51 -16 -68 0 -20 -6 -32 -17 -36 -64 -20 -100 -44 -134 -86
-49 -63 -73 -129 -96 -269 l-20 -114 -17 28 c-51 77 -39 157 48 327 l63 125 5
139 c3 86 9 141 15 143 6 2 9 12 6 23 -6 22 22 124 44 156 19 30 38 30 68 0z
m596 -81 c-7 -47 -18 -88 -24 -92 -7 -4 -8 0 -3 13 4 10 12 54 18 96 6 43 13
76 16 73 3 -3 0 -43 -7 -90z m106 8 c17 -43 18 -197 1 -187 -10 6 -10 4 -2 -7
7 -8 15 -59 18 -114 4 -55 9 -119 13 -142 5 -42 5 -43 -25 -43 -16 0 -41 -9
-55 -21 l-26 -20 -22 46 c-21 45 -21 48 -6 113 9 37 21 98 27 137 6 38 13 71
15 73 2 2 14 -1 27 -8 19 -9 18 -7 -4 10 -20 15 -27 28 -23 43 2 12 7 57 10
100 6 69 9 77 22 65 9 -7 22 -27 30 -45z m-78 -43 c-5 -47 -11 -109 -13 -139
-9 -91 -37 -212 -69 -296 -37 -98 -109 -177 -177 -195 -39 -11 -46 -9 -88 17
-24 15 -55 42 -68 59 l-24 31 24 22 25 23 20 -41 c37 -71 106 -91 160 -45 72
60 128 208 186 484 2 9 6 43 10 75 7 63 15 99 20 93 1 -2 -1 -41 -6 -88z m-60
38 c-17 -82 -20 -89 -27 -84 -5 3 -7 -7 -5 -22 6 -38 -61 -226 -103 -289 -20
-32 -44 -55 -58 -59 -30 -7 -49 3 -42 23 3 8 2 12 -3 9 -23 -14 -43 44 -81
237 -21 104 -25 144 -17 149 16 10 22 -4 42 -107 19 -92 47 -165 65 -165 6 0
11 -15 11 -32 2 -31 2 -31 6 -5 2 15 8 27 13 27 27 0 71 57 98 128 16 42 33
86 37 97 4 11 9 25 10 31 8 34 18 56 38 79 12 13 23 25 23 25 1 0 -2 -19 -7
-42z m-324 -18 c-3 -5 -10 -10 -16 -10 -5 0 -9 5 -9 10 0 6 7 10 16 10 8 0 12
-4 9 -10z m255 -10 c0 -5 -5 -12 -11 -16 -14 -8 -33 11 -25 25 7 11 36 4 36
-9z m-306 1 c3 -5 -1 -12 -10 -15 -22 -9 -24 -8 -24 9 0 16 25 21 34 6z m126
-96 c18 -55 30 -108 28 -127 l-4 -33 -13 30 c-10 23 -51 201 -51 221 0 19 13
-11 40 -91z m154 31 c-2 -47 -73 -190 -96 -194 -22 -4 -23 25 -3 52 8 11 29
57 46 103 33 87 55 103 53 39z m100 -58 c-12 -66 -46 -195 -70 -262 -42 -121
-98 -196 -147 -196 -25 0 -97 74 -97 99 0 25 48 57 63 42 17 -17 62 -13 90 9
34 27 96 153 127 257 25 82 45 113 34 51z m-475 -215 c8 -32 24 -87 37 -123
15 -40 18 -57 9 -45 -78 103 -85 117 -85 153 0 45 10 83 19 77 4 -2 13 -30 20
-62z m-10 -130 l31 -38 -34 -17 c-50 -25 -81 -69 -106 -145 -21 -63 -70 -133
-93 -133 -15 0 0 120 23 186 33 96 99 184 136 184 7 0 26 -17 43 -37z m510
-22 c15 -47 14 -106 -3 -120 -20 -17 -77 -24 -104 -14 -22 8 -22 9 17 61 22
29 46 68 52 87 14 39 21 36 38 -14z m146 -21 c16 -30 16 -31 -8 -25 -13 4 -40
0 -60 -9 -48 -20 -56 -4 -18 34 38 39 66 39 86 0z m-600 -31 c7 -10 -144 -163
-153 -155 -2 3 6 26 17 52 35 78 115 139 136 103z m628 -34 c15 -14 37 -96 37
-136 0 -19 -2 -18 -37 6 -21 14 -54 28 -74 31 -28 5 -39 13 -51 40 -15 33 -15
35 9 54 31 24 95 27 116 5z m-573 -40 c7 -9 21 -13 30 -10 11 4 37 -8 69 -32
54 -40 60 -51 17 -32 -14 7 -29 9 -33 5 -14 -14 15 -41 63 -59 l49 -17 -45 4
c-25 2 -54 7 -64 12 -13 5 -17 4 -12 -4 4 -6 26 -17 49 -23 27 -8 36 -14 24
-17 -10 -2 -36 4 -59 13 -56 22 -61 10 -7 -15 51 -23 36 -27 -18 -5 -44 19
-54 19 -29 0 14 -11 16 -15 5 -15 -21 0 -32 11 -51 52 -9 20 -31 47 -47 59
-29 21 -29 23 -15 50 13 25 39 48 55 49 4 0 12 -7 19 -15z m440 -48 c0 -4 -4
-17 -10 -27 -9 -16 -15 -17 -47 -8 -34 9 -113 45 -113 51 0 1 21 1 47 -1 27
-1 59 3 73 11 22 12 27 12 38 -1 6 -9 12 -20 12 -25z m-541 11 c-22 -42 -34
-363 -21 -587 6 -113 16 -223 21 -245 18 -73 44 -73 62 0 11 48 21 461 10 419
-4 -16 -6 -44 -3 -61 3 -26 0 -33 -17 -39 -11 -3 -21 -12 -21 -20 0 -7 -4 -15
-9 -17 -5 -1 2 -25 16 -53 20 -41 23 -58 18 -95 -4 -25 -8 -65 -9 -89 0 -25
-6 -46 -13 -48 -24 -8 -35 53 -40 230 l-6 177 27 0 c33 0 34 16 1 24 -29 7
-40 40 -31 92 7 33 9 35 44 32 36 -3 37 -4 43 -53 l6 -50 1 48 c1 26 7 47 12
47 11 0 10 -379 -3 -720 -7 -207 -36 -353 -93 -468 -47 -96 -89 -137 -161
-158 -85 -25 -212 -7 -227 32 -7 19 -2 21 101 33 149 18 206 50 250 139 24 49
27 68 27 147 0 97 -10 251 -18 263 -25 41 -43 780 -23 925 6 38 17 67 34 87
29 36 38 39 22 8z m281 -28 c0 -5 -7 -7 -15 -4 -8 4 -12 10 -9 15 6 11 24 2
24 -11z m238 -63 c19 -13 14 -27 -10 -27 -27 0 -115 49 -141 78 -15 17 -6 15
60 -12 43 -17 84 -35 91 -39z m-598 -33 c-19 -144 -9 -685 16 -874 6 -43 4
-47 -21 -58 -15 -7 -30 -10 -34 -7 -3 4 -7 182 -9 397 -3 314 -1 393 10 399
10 7 10 9 1 9 -29 0 -8 182 23 205 11 7 20 12 21 11 2 -1 -2 -38 -7 -82z m447
52 c70 -49 108 -66 147 -66 44 0 69 -32 64 -82 -3 -30 -5 -33 -33 -29 -49 5
-99 37 -151 94 -47 52 -91 117 -80 117 3 0 27 -15 53 -34z m298 -5 c50 -36 74
-103 74 -211 1 -92 -9 -131 -51 -195 -29 -45 -33 -47 -36 -27 -2 14 5 33 17
45 30 33 41 71 41 140 -1 98 -47 176 -117 193 -28 7 -56 55 -46 79 9 25 67 13
118 -24z m-618 7 c11 -13 26 -34 33 -48 17 -31 24 -150 10 -150 -5 0 -10 12
-11 28 l-1 27 -7 -25 c-5 -20 -14 -26 -44 -28 l-37 -3 0 88 c0 98 7 133 24
133 7 0 22 -10 33 -22z m178 12 c3 -5 2 -10 -4 -10 -5 0 -13 5 -16 10 -3 6 -2
10 4 10 5 0 13 -4 16 -10z m69 -5 c4 -11 -2 -15 -27 -15 l-32 0 25 14 c14 8
26 14 26 15 1 1 4 -6 8 -14z m64 -91 c43 -52 116 -101 172 -114 48 -11 49 -13
55 -55 7 -43 -6 -85 -26 -85 -19 0 -74 32 -105 62 -18 16 -34 25 -38 20 -9
-14 66 -78 107 -91 26 -9 42 -9 56 -2 42 23 68 -67 37 -128 -16 -31 -56 -61
-81 -61 -38 0 -140 121 -199 237 -32 63 -32 63 -3 64 21 1 21 1 -3 8 -17 4
-33 23 -52 61 -33 66 -35 86 -8 93 16 4 26 -8 57 -64 34 -63 53 -84 53 -59 0
5 -16 38 -35 73 -19 35 -35 67 -35 70 0 17 21 4 48 -29z m298 -60 c11 -45 -1
-142 -21 -164 -10 -11 -20 -18 -22 -16 -3 2 -7 48 -9 103 -2 54 -7 109 -10
121 l-5 24 31 -22 c16 -12 33 -32 36 -46z m-508 34 c5 -7 15 -30 23 -50 7 -21
17 -38 21 -38 12 0 10 16 -6 55 -13 29 -12 34 1 39 31 12 41 4 62 -50 25 -67
25 -64 4 -65 -13 -1 -12 -3 4 -7 15 -5 35 -30 57 -74 51 -100 103 -173 153
-218 39 -34 43 -40 24 -40 -63 0 -148 88 -218 225 -26 52 -52 95 -56 95 -14 0
2 -40 52 -129 50 -92 118 -174 162 -196 56 -30 122 -12 181 49 29 30 37 34 42
20 13 -34 5 -125 -18 -197 -13 -42 -27 -90 -31 -106 -8 -35 -32 -46 -83 -36
-58 11 -106 40 -159 98 -75 83 -183 304 -183 376 0 16 -4 31 -9 33 -6 2 -16
25 -23 51 -11 41 -10 49 2 57 13 8 12 10 -2 10 -12 0 -19 14 -27 50 -6 28 -11
53 -11 55 0 10 28 4 38 -7z m-17 -145 c6 -16 12 -59 15 -98 6 -108 8 -130 15
-135 4 -3 17 -41 29 -84 91 -326 240 -556 377 -582 27 -5 33 -11 39 -40 8 -44
-7 -62 -54 -62 -21 0 -58 -9 -82 -18 l-43 -17 -34 39 c-19 21 -56 84 -83 139
-44 89 -48 101 -32 107 16 6 16 7 -1 7 -22 1 -30 23 -72 184 -18 70 -35 131
-39 134 -14 14 -4 -52 25 -163 17 -66 31 -126 32 -134 1 -8 4 -17 8 -20 3 -3
13 -27 23 -55 23 -63 68 -143 113 -202 31 -41 33 -47 18 -56 -36 -20 -60 -128
-34 -154 17 -17 4 -30 -38 -39 -57 -12 -58 -12 -55 26 5 49 10 53 39 35 14 -9
27 -15 29 -12 7 7 -68 53 -109 66 -21 7 -52 11 -68 9 -22 -3 -29 -1 -28 11 0
9 6 90 13 179 7 90 11 175 8 189 -5 25 -3 26 34 20 38 -6 38 -6 8 5 l-32 10
-7 149 c-5 111 -11 149 -20 149 -9 0 -13 17 -13 59 0 73 13 98 21 39 3 -24 2
-47 -4 -53 -18 -18 -9 -28 11 -10 16 14 20 31 20 77 0 33 -4 57 -9 54 -7 -5
-20 74 -38 232 -6 48 3 55 18 15z m566 -34 c-6 -50 -29 -99 -46 -99 -4 0 -13
11 -19 24 -9 21 -7 30 19 62 16 20 29 43 29 50 0 8 5 14 11 14 8 0 10 -16 6
-51z m-454 -296 c47 -96 85 -149 142 -201 53 -50 99 -72 150 -72 34 0 35 -2
37 -37 l1 -38 4 38 c3 29 9 37 24 37 20 0 22 -9 20 -70 -1 -39 -30 -202 -37
-209 -10 -11 -120 58 -148 92 -26 32 -28 40 -16 48 13 9 12 10 -2 5 -23 -7
-47 28 -104 149 -45 94 -135 353 -133 384 0 9 6 0 13 -19 7 -19 29 -67 49
-107z m-116 -200 c-3 -10 -5 -2 -5 17 0 19 2 27 5 18 2 -10 2 -26 0 -35z m-6
-161 c-8 -13 -10 -4 -11 38 0 85 14 119 18 42 2 -34 -2 -70 -7 -80z m-286 -78
c-15 -11 -14 -13 4 -19 19 -6 16 -11 -29 -57 l-50 -51 -72 7 c-40 4 -93 12
-118 17 -25 6 -59 8 -76 4 -61 -11 -56 63 7 95 48 25 102 25 158 0 61 -28 98
-26 128 8 27 30 52 83 55 116 1 11 3 -8 5 -44 3 -51 1 -67 -12 -76z m275 -194
c-18 -187 -45 -329 -67 -345 -10 -8 -47 -29 -82 -47 -55 -28 -78 -34 -149 -37
-242 -10 -408 95 -294 186 53 42 89 59 179 84 43 12 91 28 106 36 46 23 68 87
74 218 6 108 7 114 30 124 14 6 28 9 32 6 5 -2 14 -53 21 -112 28 -249 -39
-348 -250 -372 -110 -12 -122 -17 -118 -49 5 -45 58 -67 158 -67 69 0 94 4
133 23 94 47 171 199 207 408 11 64 21 135 22 157 1 28 3 19 6 -23 2 -36 -2
-121 -8 -190z m-255 63 c-10 -111 -29 -151 -79 -174 -101 -46 -213 -4 -261 98
-15 32 -15 36 0 53 23 25 53 29 144 16 102 -15 134 -6 167 44 15 22 29 40 32
40 2 0 1 -35 -3 -77z m-343 1 c-27 -18 -29 -61 -6 -110 17 -36 95 -93 128 -95
13 0 0 -10 -34 -26 -30 -13 -63 -32 -74 -41 -18 -16 -20 -15 -40 13 -11 16
-42 52 -68 81 -32 33 -48 60 -48 77 0 51 78 116 140 117 l24 0 -22 -16z m1081
-159 c13 -41 63 -92 97 -99 32 -6 45 -24 55 -78 l7 -36 -46 -7 c-61 -10 -96 6
-135 60 -25 35 -39 45 -81 55 -47 11 -50 14 -50 44 0 42 23 73 63 85 54 16 79
10 90 -24z m-376 -100 c35 -15 35 -16 29 -57 -10 -63 -27 -90 -71 -115 -53
-30 -64 -29 -79 8 -25 60 22 179 70 179 8 0 31 -7 51 -15z"/>
<path d="M2800 4251 c0 -70 12 -100 24 -58 8 29 8 91 0 111 -14 35 -24 12 -24
-53z"/>
<path d="M2566 2575 c-9 -26 -7 -32 5 -12 6 10 9 21 6 23 -2 3 -7 -2 -11 -11z"/>
<path d="M2535 3320 c4 -6 11 -8 16 -5 14 9 11 15 -7 15 -8 0 -12 -5 -9 -10z"/>
<path d="M2682 3135 c0 -16 2 -22 5 -12 2 9 2 23 0 30 -3 6 -5 -1 -5 -18z"/>
<path d="M3091 2724 c0 -11 3 -14 6 -6 3 7 2 16 -1 19 -3 4 -6 -2 -5 -13z"/>
<path d="M3082 2620 c0 -19 2 -27 5 -17 2 9 2 25 0 35 -3 9 -5 1 -5 -18z"/>
<path d="M2995 2430 c-13 -5 -14 -9 -5 -9 8 0 24 4 35 9 13 5 14 9 5 9 -8 0
-24 -4 -35 -9z"/>
</g>
</svg>
