<?xml version="1.0" standalone="no"?>
<!DOCTYPE svg PUBLIC "-//W3C//DTD SVG 20010904//EN"
 "http://www.w3.org/TR/2001/REC-SVG-20010904/DTD/svg10.dtd">
<svg version="1.0" xmlns="http://www.w3.org/2000/svg"
 width="515.000000pt" height="627.000000pt" viewBox="0 0 515.000000 627.000000"
 preserveAspectRatio="xMidYMid meet">

<g transform="translate(0.000000,627.000000) scale(0.100000,-0.100000)"
fill="#000000" stroke="none">
<path d="M2445 4930 c-17 -10 -66 -60 -109 -110 -43 -50 -92 -98 -108 -106
-17 -9 -71 -22 -121 -29 -100 -15 -129 -31 -266 -148 -50 -42 -78 -74 -86 -97
l-12 -35 -99 -5 c-109 -6 -129 -13 -167 -63 -18 -23 -38 -37 -61 -41 -40 -8
-159 -83 -231 -147 -27 -24 -72 -62 -100 -84 -88 -71 -185 -167 -185 -184 0
-45 44 -52 104 -18 23 13 47 22 54 21 6 -1 52 -2 102 -3 l89 -1 49 -42 c27
-24 61 -52 76 -63 l28 -20 -22 -65 c-18 -53 -21 -81 -18 -154 3 -59 1 -80 -5
-65 -8 22 -11 20 -38 -34 l-30 -58 -97 67 c-113 77 -163 123 -239 218 -50 61
-57 67 -66 50 -6 -11 -11 -62 -12 -114 0 -79 4 -104 23 -145 44 -96 146 -178
256 -206 25 -6 46 -13 46 -16 0 -2 -11 -26 -25 -54 -28 -55 -30 -52 49 -69 42
-9 50 -8 62 7 10 14 15 16 25 6 7 -7 26 -13 42 -13 15 0 38 -5 50 -11 32 -18
151 -14 179 5 12 9 30 16 39 16 24 0 50 34 51 67 1 38 -14 66 -46 82 -22 12
-26 22 -32 95 -4 44 -7 90 -5 101 l3 20 -16 -20 c-8 -11 -16 -28 -16 -37 0
-22 0 -22 -37 -3 -17 9 -53 17 -79 19 -40 3 -49 8 -49 23 0 15 10 19 65 23 75
6 59 20 -22 20 l-51 0 5 80 c4 68 10 92 41 151 21 38 37 77 37 85 0 8 15 21
34 29 18 8 47 26 63 39 77 65 134 55 187 -32 l35 -57 -36 -18 c-19 -10 -33
-21 -30 -23 3 -3 19 4 38 15 29 18 35 18 60 5 16 -8 67 -28 114 -45 83 -30 88
-31 125 -16 l39 15 67 -94 c69 -97 162 -192 215 -220 16 -8 27 -19 24 -24 -17
-27 -151 6 -208 51 -20 17 -53 37 -72 45 -19 8 -35 19 -35 24 0 13 23 13 36 1
5 -6 21 -5 39 3 28 12 25 13 -51 18 -45 3 -97 13 -115 22 -19 9 -83 55 -143
101 -100 79 -136 99 -136 76 0 -5 7 -14 15 -21 25 -21 17 -30 -26 -30 -26 0
-38 4 -34 11 4 6 -2 5 -14 -3 -12 -7 -21 -19 -21 -27 0 -8 -16 -45 -35 -82
-32 -62 -37 -99 -14 -99 11 0 49 73 64 125 12 38 15 40 60 47 26 4 51 12 55
19 6 8 27 -3 69 -37 89 -70 156 -111 197 -119 21 -3 62 -27 95 -53 71 -56 65
-66 -43 -76 -49 -4 -94 -16 -136 -36 l-64 -30 20 -28 20 -28 -93 -47 c-119
-61 -165 -108 -165 -172 0 -65 19 -141 39 -160 42 -37 170 -88 281 -111 75
-16 118 -30 125 -41 33 -54 53 -67 111 -74 112 -14 166 -11 189 11 21 20 23
20 93 3 69 -16 75 -20 135 -87 99 -112 93 -95 64 -185 -22 -65 -24 -85 -16
-115 11 -39 45 -63 74 -53 8 4 41 59 73 124 54 111 57 121 56 188 -1 39 -7 82
-14 96 -7 13 -9 20 -4 16 5 -5 22 -34 39 -65 19 -37 48 -70 83 -97 63 -48 102
-100 107 -146 3 -18 25 -63 50 -100 25 -36 45 -75 45 -87 0 -29 37 -52 86 -52
38 0 48 -7 127 -81 104 -96 110 -113 105 -262 l-3 -106 -33 -28 c-27 -22 -33
-34 -30 -58 5 -46 33 -51 231 -36 209 15 216 19 197 103 -6 29 -22 87 -35 128
-13 41 -26 105 -29 142 -6 82 -21 113 -75 156 -34 27 -41 39 -41 68 0 28 -10
48 -52 95 l-51 59 18 39 c21 48 14 73 -28 102 -18 12 -69 58 -113 101 -77 73
-114 93 -129 68 -3 -5 -39 13 -79 40 l-73 50 -22 88 c-13 48 -41 140 -63 205
l-40 118 28 22 c15 12 34 27 41 32 10 8 7 19 -16 54 -23 34 -28 49 -20 63 5
10 17 18 25 18 8 0 28 7 44 15 28 15 34 13 237 -86 236 -114 513 -238 590
-263 29 -10 69 -16 90 -14 33 3 38 7 41 30 5 45 -40 91 -156 159 -59 34 -143
83 -187 109 -44 26 -174 98 -290 160 -257 138 -256 138 -262 161 -3 10 -9 16
-14 13 -13 -8 -11 5 4 21 6 7 24 34 39 59 28 46 28 46 55 32 59 -30 113 -77
113 -96 0 -31 31 -40 117 -34 82 7 123 23 123 50 0 14 10 16 62 12 52 -4 65
-9 85 -33 23 -26 24 -33 18 -99 l-6 -71 155 -140 c199 -178 249 -208 284 -173
25 25 10 53 -76 142 -77 80 -93 102 -125 180 -21 50 -51 142 -68 205 -34 130
-91 256 -141 316 -52 61 -79 102 -88 135 -8 28 -7 30 19 30 31 0 61 27 61 55
0 10 -22 60 -50 111 -45 84 -69 164 -70 242 0 8 -15 12 -43 12 -34 0 -49 6
-69 28 -46 49 -89 121 -105 174 -18 64 -78 128 -117 128 -41 0 -296 -97 -351
-134 -27 -19 -81 -61 -118 -95 -49 -44 -76 -61 -96 -61 -44 0 -90 -19 -176
-74 l-80 -51 -93 3 c-67 2 -100 -2 -121 -13 -26 -13 -30 -13 -42 1 -7 9 -23
20 -36 25 -13 5 -23 13 -23 18 0 5 11 5 28 -1 34 -13 93 9 116 44 22 34 126
337 126 368 0 51 -34 63 -85 30z m55 -34 c0 -13 -16 -68 -35 -122 -81 -224
-94 -246 -153 -263 -24 -7 -36 -6 -46 5 -8 8 -22 14 -30 14 -25 0 -19 11 31
62 43 44 82 68 53 33 -7 -8 -10 -15 -7 -15 9 0 50 61 45 66 -3 2 -38 -25 -78
-61 -48 -43 -81 -65 -97 -65 -20 0 -23 -3 -14 -13 8 -11 -15 -37 -110 -123
-67 -60 -133 -119 -148 -131 -14 -12 -22 -22 -18 -23 6 0 131 110 263 232 20
18 37 26 47 22 22 -8 21 -19 -4 -57 l-21 -32 29 34 29 33 76 -73 c42 -41 92
-88 112 -105 27 -24 36 -39 36 -63 0 -58 -35 -110 -106 -159 -17 -11 -17 -11
3 -2 12 5 24 10 26 10 8 0 -71 -144 -95 -173 l-23 -28 3 68 c3 55 8 71 25 86
l22 18 -22 -10 c-30 -15 -30 -15 -37 20 -3 17 -23 48 -43 68 -30 30 -51 40
-100 51 -35 7 -63 16 -63 20 0 3 -50 6 -111 6 -98 -1 -112 -3 -126 -21 -21
-29 -11 -76 35 -167 25 -49 35 -79 28 -82 -6 -2 -4 -5 4 -5 8 -1 27 -17 43
-36 l27 -35 -27 -6 c-23 -6 -32 -1 -60 31 -18 21 -32 43 -30 49 2 5 -5 18 -15
28 -10 10 -18 28 -18 41 0 12 -16 49 -36 82 -52 85 -54 126 -11 196 24 39 36
73 39 110 5 48 10 57 44 84 20 16 59 49 86 72 67 59 98 73 201 90 49 8 102 20
116 28 15 7 60 51 100 97 120 135 161 164 161 114z m920 -66 c21 -11 94 -129
86 -137 -10 -11 36 -85 83 -134 39 -40 54 -49 82 -49 32 0 35 -2 37 -32 5 -81
17 -119 64 -201 27 -48 48 -95 46 -105 -2 -12 -15 -18 -46 -20 -28 -2 -42 -8
-42 -17 0 -51 56 -146 180 -307 27 -35 18 -36 -18 -2 -15 14 -49 37 -77 51
-66 34 -205 132 -212 149 -3 8 -9 11 -14 8 -5 -3 -35 10 -67 29 -31 19 -81 47
-110 61 -59 30 -101 79 -198 233 -62 98 -62 98 -100 96 -22 -1 -55 -4 -74 -8
l-35 -6 38 21 c54 30 46 35 -11 6 -41 -21 -60 -24 -147 -23 -74 0 -108 -4
-131 -16 -40 -21 -97 -87 -125 -143 -11 -24 -33 -53 -47 -64 -15 -12 -20 -18
-12 -14 8 4 2 -8 -13 -27 -15 -18 -43 -66 -62 -106 -29 -62 -42 -77 -92 -110
-45 -30 -61 -48 -73 -80 -19 -52 -26 -59 -69 -68 -24 -5 -31 -4 -27 4 4 6 12
8 18 5 7 -5 8 -2 4 5 -5 7 10 35 37 70 25 32 57 82 72 112 34 73 78 125 126
149 21 11 39 23 39 25 0 3 -13 -1 -30 -10 -38 -20 -43 -19 -30 4 15 29 12 103
-5 128 -8 12 -38 38 -67 59 l-51 38 29 13 c17 7 65 11 119 10 l90 -2 60 41
c85 58 119 74 181 84 48 8 63 17 138 84 86 76 132 105 221 137 27 10 82 29
120 43 79 29 89 30 115 16z m-215 -499 c101 -162 129 -191 252 -257 59 -32
117 -67 129 -78 12 -12 27 -22 33 -24 6 -1 33 -17 59 -36 27 -18 64 -41 83
-51 54 -27 158 -99 164 -113 5 -15 -28 -162 -43 -189 -8 -13 -12 -11 -27 14
-26 44 -52 56 -132 61 -70 4 -73 4 -82 -20 -10 -26 -21 -30 -127 -44 -49 -6
-52 -5 -58 20 -6 26 -93 98 -141 116 -24 9 -24 12 -19 68 5 40 1 76 -10 114
-9 31 -16 67 -16 80 0 14 -8 32 -18 41 -25 23 -167 73 -247 86 -44 8 -87 23
-115 41 -69 44 -152 80 -185 80 -16 0 -38 7 -47 14 -16 12 -15 17 20 67 58 83
89 99 186 99 78 -1 80 -1 54 -16 -43 -23 -33 -27 12 -4 23 12 59 20 87 20 26
0 55 5 63 10 40 26 56 12 125 -99z m-1447 32 c-2 -5 -16 -32 -31 -61 -40 -77
-38 -118 10 -195 22 -35 43 -80 46 -102 4 -23 23 -60 51 -95 34 -44 41 -61 33
-69 -9 -9 -8 -11 5 -6 10 4 41 -4 73 -20 31 -14 78 -29 106 -32 58 -7 62 -18
15 -38 -33 -14 -40 -13 -133 21 -54 19 -99 40 -101 45 -2 5 -10 9 -17 9 -8 0
-26 22 -41 50 -31 56 -52 73 -115 91 l-44 12 30 8 c30 7 30 7 -7 8 -49 1 -90
38 -124 109 -38 80 -51 92 -94 92 -45 0 -66 -21 -75 -75 -9 -49 -30 -85 -51
-85 -8 0 -13 -4 -9 -9 7 -12 -85 -55 -192 -92 -46 -15 -93 -35 -105 -43 -24
-17 -58 -21 -58 -8 0 12 93 98 224 207 147 122 190 152 259 177 41 15 68 33
89 59 17 21 38 40 47 42 28 8 213 7 209 0z m1045 -180 c28 -14 67 -36 87 -48
19 -13 73 -31 119 -40 85 -16 204 -56 228 -76 7 -6 13 -23 13 -38 0 -14 7 -48
16 -76 10 -35 13 -68 9 -110 -8 -72 -29 -112 -94 -183 l-25 -27 -11 29 c-17
41 -64 86 -96 93 -36 7 -40 43 -6 67 l22 17 -23 -11 c-20 -10 -24 -8 -37 24
-21 49 -19 58 15 91 l30 29 56 -27 c31 -16 58 -26 61 -24 2 2 -10 10 -27 17
-16 7 -28 16 -25 20 8 13 -42 40 -73 40 -23 0 -33 -8 -51 -40 -23 -41 -30 -44
-123 -44 -9 0 -15 -3 -12 -8 7 -11 0 -10 -29 3 -29 13 -47 48 -47 91 0 31 1
31 16 12 9 -10 6 -1 -7 21 -25 45 -43 68 -35 45 7 -20 -68 -75 -114 -85 -19
-4 -47 -13 -61 -21 -35 -18 -79 -71 -79 -95 0 -24 59 -55 123 -64 58 -9 69
-26 52 -76 -24 -67 -21 -119 6 -119 6 0 7 14 4 33 -4 21 -1 47 8 69 13 32 19
36 62 40 53 6 89 35 111 88 18 41 29 50 69 50 26 0 32 -5 43 -40 16 -52 15
-60 -5 -76 -16 -12 -16 -12 5 -7 17 4 22 1 22 -14 0 -26 -19 -43 -47 -43 -13
0 -30 -8 -37 -17 -8 -10 -36 -44 -62 -76 -36 -45 -51 -57 -67 -53 -21 5 -18 2
26 -31 l28 -21 -36 -12 c-41 -13 -48 -45 -12 -56 12 -3 29 -12 37 -19 40 -35
162 -49 223 -27 46 17 53 30 62 107 13 99 48 130 94 81 20 -21 21 -27 11 -72
-16 -71 -48 -121 -89 -140 -20 -9 -48 -31 -62 -47 -23 -28 -33 -31 -92 -35
-37 -2 -92 -1 -123 3 -48 6 -62 13 -98 49 l-43 42 -6 99 c-7 99 -19 134 -37
105 -6 -9 -5 -17 3 -22 19 -12 -23 -60 -76 -87 -53 -26 -114 -34 -109 -13 1 8
-2 11 -7 8 -22 -14 -168 179 -213 280 -25 59 -19 77 27 72 27 -3 32 -1 23 9
-7 9 -7 13 0 13 6 0 18 22 27 50 14 42 25 55 73 87 48 32 62 49 92 109 19 40
53 93 74 119 l39 47 65 -6 c38 -4 85 -17 115 -33z m-914 15 c11 -10 13 -10 7
0 -8 13 30 16 82 6 l31 -6 -22 -44 c-13 -27 -26 -43 -34 -40 -7 3 11 -31 40
-76 28 -45 57 -80 62 -80 6 1 11 14 13 29 1 16 -1 23 -5 17 -5 -8 -18 4 -35
32 -26 42 -18 50 21 20 20 -15 71 45 71 84 0 35 25 40 60 12 l21 -17 -20 -47
c-11 -25 -36 -64 -55 -86 -20 -21 -33 -42 -30 -45 7 -6 104 39 104 48 0 3 -14
-2 -31 -11 l-32 -16 22 30 c12 17 30 50 41 74 l19 42 10 -28 c6 -15 11 -40 11
-54 0 -15 3 -48 6 -73 5 -39 2 -50 -19 -75 -23 -26 -27 -27 -53 -16 l-29 13
24 -20 24 -19 -31 -16 c-46 -24 -83 -20 -136 16 l-48 31 42 22 43 22 -68 71
c-61 65 -71 72 -106 72 -37 0 -38 1 -56 56 -17 55 -17 57 2 70 23 17 37 18 54
2z m151 -9 c0 -8 4 -8 13 -1 18 15 47 -10 47 -40 0 -14 -9 -36 -21 -49 l-20
-24 4 35 c2 19 7 43 12 53 5 13 4 16 -8 11 -9 -3 -20 -19 -26 -35 -6 -18 -6
-27 -1 -24 6 4 10 0 10 -8 0 -9 -11 -14 -32 -13 -38 1 -39 6 -12 63 18 41 34
56 34 32z m-554 -87 c17 -34 39 -71 48 -81 14 -15 14 -20 4 -24 -8 -3 -6 -6 5
-6 11 -1 29 -9 42 -19 l24 -19 -47 -35 c-26 -19 -62 -40 -79 -48 -23 -9 -33
-19 -33 -34 0 -12 -6 -31 -14 -41 -13 -17 -15 -17 -52 11 -21 15 -58 45 -81
66 -41 36 -46 38 -115 39 l-73 0 55 22 c89 35 161 79 175 107 7 14 17 44 20
65 10 53 22 67 59 63 27 -3 35 -11 62 -66z m428 -51 c3 -5 -1 -12 -10 -15 -27
-10 -44 -7 -44 9 0 16 45 21 54 6z m29 -36 c-3 -13 -30 -18 -51 -10 -14 5 -14
7 -2 16 19 11 56 8 53 -6z m52 -45 c18 -20 17 -20 -16 -21 l-34 -2 35 -7 35
-7 -35 -2 c-24 -1 -41 5 -53 19 -22 26 -22 28 6 33 40 8 44 7 62 -13z m772
-42 c6 -29 14 -64 18 -78 4 -15 1 -33 -9 -45 -12 -17 -26 -20 -95 -20 -114 0
-134 31 -21 33 36 1 103 75 95 105 -4 12 -9 30 -11 40 -3 9 -2 17 3 17 5 0 14
-24 20 -52z m-33 0 c9 -38 -44 -84 -107 -92 -29 -3 -64 -9 -79 -12 -19 -4 -28
-2 -28 6 0 21 79 90 103 90 12 1 36 7 52 15 43 19 52 18 59 -7z m-732 -88 c22
-16 48 -30 56 -30 9 0 13 -3 9 -6 -6 -7 -64 10 -115 34 -24 11 -30 17 -20 23
20 13 25 11 70 -21z m198 -15 c-7 -8 -17 -15 -23 -15 -6 0 -2 7 9 15 25 19 30
19 14 0z m638 3 c25 -31 -29 -90 -84 -92 -52 -1 -53 18 -2 30 36 8 44 14 52
42 10 34 18 39 34 20z m-715 -35 c-7 -2 -21 -2 -30 0 -10 3 -4 5 12 5 17 0 24
-2 18 -5z m103 -30 c19 -59 86 -172 150 -251 40 -51 68 -92 60 -92 -24 0 -105
61 -166 126 -77 83 -154 198 -147 219 9 23 96 21 103 -2z m-450 -60 c-7 -7
-26 7 -26 19 0 6 6 6 15 -2 9 -7 13 -15 11 -17z m2221 -163 c43 -144 85 -215
180 -307 83 -80 94 -103 50 -103 -28 1 -76 38 -236 185 -148 137 -149 137
-102 238 15 34 34 87 42 117 l13 55 13 -50 c8 -27 25 -88 40 -135z m-3001 30
c55 -57 112 -104 186 -152 110 -71 138 -107 76 -94 -80 16 -206 105 -267 188
-21 29 -31 36 -31 24 0 -33 138 -164 213 -201 38 -19 78 -35 89 -35 35 0 12
-25 -26 -28 -74 -6 -199 51 -261 120 -53 58 -67 100 -72 208 -2 63 0 88 6 74
5 -11 44 -58 87 -104z m2073 105 c16 -8 36 -31 46 -52 18 -36 17 -38 -4 -75
-13 -23 -21 -54 -21 -85 0 -54 -5 -65 -38 -82 -33 -18 -38 -7 -7 13 51 33 13
34 -42 0 -58 -35 -98 -47 -53 -16 46 32 75 60 68 67 -4 4 -24 -7 -45 -24 -30
-25 -46 -31 -83 -30 -44 1 -44 1 -14 11 35 11 65 48 39 48 -20 0 -19 5 5 38
21 29 19 62 -5 62 -7 0 -24 -9 -38 -20 -37 -30 -55 -25 -25 8 13 15 35 43 48
62 30 43 38 50 70 50 14 0 31 9 38 20 15 24 24 25 61 5z m-161 -167 c-9 -13
-26 -24 -39 -26 -21 -3 -20 -1 10 22 43 32 48 32 29 4z m587 -133 c88 -48 204
-112 258 -141 283 -155 319 -179 342 -225 14 -26 14 -30 0 -35 -8 -4 -57 8
-108 26 -50 18 -98 33 -104 33 -7 0 -13 4 -13 8 0 4 -9 11 -20 14 -11 4 -18
10 -15 15 3 4 -2 11 -11 14 -9 3 -12 2 -9 -5 4 -5 -8 -3 -27 5 -50 21 -422
197 -510 241 l-76 37 16 33 c9 18 20 31 25 28 4 -2 7 17 7 42 l0 47 43 -25
c23 -13 114 -64 202 -112z m-813 54 c-4 -36 -9 -43 -39 -55 -46 -20 -147 -28
-219 -19 l-59 8 95 17 c95 17 178 49 201 76 19 23 25 16 21 -27z m208 11 c0
-13 -41 -23 -71 -18 l-24 5 25 11 c32 14 70 15 70 2z m-1505 -20 c17 -19 16
-23 -45 -142 -79 -154 -74 -149 -110 -136 l-30 10 15 36 c9 21 25 44 38 52 43
30 57 50 57 85 0 36 33 115 49 115 4 0 16 -9 26 -20z m896 -30 c30 -11 46 -19
36 -20 -26 0 -117 40 -117 52 0 6 6 6 14 -1 8 -7 38 -20 67 -31z m-761 12 c28
-15 37 -28 47 -68 6 -26 10 -50 8 -52 -1 -2 -14 2 -27 9 -48 25 -58 29 -76 29
-10 0 -24 6 -30 12 -10 10 -17 10 -31 1 -18 -11 -18 -9 2 37 25 57 48 63 107
32z m742 -35 c49 -20 54 -25 40 -35 -14 -10 -13 -11 5 -2 28 13 116 13 111 0
-1 -5 -38 -38 -80 -74 l-77 -64 -66 16 -66 16 23 19 c23 18 23 18 -10 2 -31
-15 -37 -15 -97 5 -62 21 -115 53 -115 70 0 15 109 50 158 51 26 1 58 5 72 9
38 12 41 12 102 -13z m495 -95 c50 -39 118 -52 214 -43 42 5 81 11 87 15 6 3
20 -10 32 -29 l22 -35 -24 -20 c-38 -32 -86 -42 -239 -47 -120 -4 -171 -1
-285 17 -77 12 -142 25 -146 28 -3 4 11 43 32 88 l37 81 69 5 c38 3 83 12 99
21 30 15 30 15 47 -18 10 -18 34 -46 55 -63z m428 69 c-3 -6 -11 -11 -17 -11
-6 0 -6 6 2 15 14 17 26 13 15 -4z m-766 -110 c-23 -50 -40 -93 -38 -95 2 -1
91 -15 198 -30 185 -27 201 -27 324 -16 71 6 132 8 137 3 13 -15 61 -157 80
-238 21 -92 77 -252 91 -261 15 -9 10 30 -7 54 -8 12 -10 22 -5 22 6 0 11 -3
11 -8 0 -4 27 -28 60 -52 68 -51 75 -64 65 -126 -8 -59 -45 -100 -95 -109 -63
-11 -94 1 -124 47 -15 22 -25 42 -24 43 2 2 19 7 38 12 34 9 34 9 -35 26 -84
21 -112 40 -145 98 -14 25 -41 61 -60 80 -19 19 -89 96 -154 172 -139 159
-246 249 -294 247 -14 -1 41 -40 55 -40 13 0 13 -3 2 -16 -11 -14 -14 -14 -19
-1 -4 12 -15 12 -80 -4 -41 -10 -94 -18 -117 -19 -103 -1 -273 -49 -273 -77 0
-10 -19 0 -52 28 -68 55 -93 72 -54 36 49 -45 151 -123 142 -109 -4 7 -3 12 1
12 5 0 13 13 19 28 11 29 22 33 192 57 26 4 28 -10 11 -101 -13 -71 -32 -104
-60 -104 -12 0 -51 24 -87 53 -37 28 -63 47 -59 41 4 -7 29 -29 57 -50 34 -26
46 -40 37 -45 -7 -4 -69 4 -137 17 -136 27 -280 87 -300 124 -6 12 -14 51 -17
89 -5 65 -5 68 27 105 34 38 199 126 237 126 11 0 41 -7 68 -16 l48 -17 -24
-19 -24 -19 34 16 c32 16 38 16 112 -5 l79 -23 32 26 c18 14 62 50 98 80 36
30 66 54 68 52 2 -2 -15 -44 -39 -94z m-959 8 c0 -21 -5 -41 -10 -44 -6 -4 -8
-11 -4 -16 3 -6 12 -5 21 3 11 9 14 26 11 65 -5 63 6 69 23 12 10 -30 10 -48
2 -70 -13 -32 -2 -47 17 -24 15 18 18 60 7 93 -6 17 -5 22 7 22 19 0 30 -40
23 -80 -7 -31 7 -50 17 -24 3 9 6 29 6 45 0 16 5 29 11 29 5 0 7 4 4 10 -3 6
1 7 10 4 27 -11 46 -59 35 -88 -14 -37 -31 -33 -20 4 9 32 3 70 -11 70 -5 0
-9 -17 -9 -39 0 -47 -33 -93 -64 -90 -11 1 -29 -1 -38 -5 -9 -4 -23 -4 -30 0
-7 5 -23 7 -36 5 -13 -1 -25 4 -28 13 -4 11 -14 13 -35 9 -26 -5 -59 9 -59 26
1 21 19 33 36 23 13 -7 26 -6 46 4 29 15 32 23 29 89 l-2 40 21 -24 c12 -14
20 -37 20 -62z m-60 22 c0 -31 -4 -41 -20 -46 -20 -6 -40 0 -40 13 0 14 40 72
50 72 5 0 10 -18 10 -39z m1660 -151 c0 -5 -4 -10 -10 -10 -5 0 -10 5 -10 10
0 6 5 10 10 10 6 0 10 -4 10 -10z m-585 -111 c14 -27 15 -40 4 -102 -16 -96
-34 -146 -66 -179 -23 -24 -35 -28 -77 -27 -121 1 -186 23 -186 60 0 19 43 19
78 -1 20 -12 27 -14 16 -5 l-22 16 28 27 c29 29 50 101 50 171 l0 37 73 16
c39 8 75 16 79 17 4 0 15 -13 23 -30z m88 -6 l41 -36 -35 6 c-32 7 -69 38 -69
58 0 18 24 8 63 -28z m-513 -43 c0 -5 -5 -10 -11 -10 -5 0 -7 5 -4 10 3 6 8
10 11 10 2 0 4 -4 4 -10z m523 -20 c31 -11 63 -20 71 -20 7 0 59 -51 113 -113
99 -112 100 -113 101 -167 1 -30 4 -67 7 -81 11 -50 -92 -283 -122 -277 -31 6
-34 55 -8 135 30 92 26 104 -72 211 -62 67 -73 75 -128 88 -33 8 -65 17 -72
19 -9 3 -7 16 7 47 10 24 25 74 32 111 7 37 13 67 13 67 0 0 26 -9 58 -20z
m877 -406 c36 -36 84 -79 108 -95 23 -17 42 -37 42 -45 0 -30 -50 -113 -87
-143 -63 -52 -150 -91 -204 -91 -61 0 -79 7 -79 32 0 11 -20 47 -43 81 -66 94
-66 96 1 90 43 -3 66 0 91 14 57 30 75 64 78 146 1 39 3 73 3 75 0 1 6 2 13 2
7 0 42 -30 77 -66z m-375 -42 c0 -18 -20 -15 -23 4 -3 10 1 15 10 12 7 -3 13
-10 13 -16z m555 -264 c33 -42 40 -58 36 -81 -6 -30 10 -52 62 -82 39 -23 52
-53 63 -140 4 -38 19 -104 32 -145 30 -92 39 -150 27 -169 -6 -11 -50 -18
-172 -27 -212 -15 -235 -7 -170 59 l37 38 0 127 c-1 153 -5 162 -110 260 -41
38 -75 72 -75 75 0 3 13 8 30 12 34 7 136 72 164 103 11 12 23 22 27 22 4 0
26 -24 49 -52z"/>
<path d="M2280 4570 c-12 -16 -19 -30 -16 -30 2 0 14 14 26 30 12 17 19 30 16
30 -2 0 -14 -13 -26 -30z"/>
<path d="M2159 4403 c-13 -16 -12 -17 4 -4 16 13 21 21 13 21 -2 0 -10 -8 -17
-17z"/>
<path d="M2120 4350 c-12 -16 -19 -30 -16 -30 2 0 14 14 26 30 12 17 19 30 16
30 -2 0 -14 -13 -26 -30z"/>
<path d="M2080 4295 c-7 -9 -11 -17 -9 -20 3 -2 10 5 17 15 14 24 10 26 -8 5z"/>
<path d="M3368 4649 c-21 -11 -38 -22 -38 -24 0 -3 18 4 40 15 22 11 40 23 40
25 0 7 0 7 -42 -16z"/>
<path d="M3461 4624 c0 -11 3 -14 6 -6 3 7 2 16 -1 19 -3 4 -6 -2 -5 -13z"/>
<path d="M3258 4589 c-21 -11 -38 -22 -38 -24 0 -3 18 4 40 15 22 11 40 23 40
25 0 7 0 7 -42 -16z"/>
<path d="M3471 4574 c0 -11 3 -14 6 -6 3 7 2 16 -1 19 -3 4 -6 -2 -5 -13z"/>
<path d="M3148 4529 c-21 -11 -38 -22 -38 -24 0 -3 18 4 40 15 22 11 40 23 40
25 0 7 0 7 -42 -16z"/>
<path d="M3481 4534 c0 -11 3 -14 6 -6 3 7 2 16 -1 19 -3 4 -6 -2 -5 -13z"/>
<path d="M3491 4484 c0 -11 3 -14 6 -6 3 7 2 16 -1 19 -3 4 -6 -2 -5 -13z"/>
<path d="M3511 4394 c0 -11 3 -14 6 -6 3 7 2 16 -1 19 -3 4 -6 -2 -5 -13z"/>
<path d="M3521 4344 c0 -11 3 -14 6 -6 3 7 2 16 -1 19 -3 4 -6 -2 -5 -13z"/>
<path d="M3531 4304 c0 -11 3 -14 6 -6 3 7 2 16 -1 19 -3 4 -6 -2 -5 -13z"/>
<path d="M3541 4254 c0 -11 3 -14 6 -6 3 7 2 16 -1 19 -3 4 -6 -2 -5 -13z"/>
<path d="M3561 4164 c0 -11 3 -14 6 -6 3 7 2 16 -1 19 -3 4 -6 -2 -5 -13z"/>
<path d="M3571 4114 c0 -11 3 -14 6 -6 3 7 2 16 -1 19 -3 4 -6 -2 -5 -13z"/>
<path d="M3581 4074 c0 -11 3 -14 6 -6 3 7 2 16 -1 19 -3 4 -6 -2 -5 -13z"/>
<path d="M2818 4349 c-21 -11 -38 -22 -38 -24 0 -3 18 4 40 15 22 11 40 23 40
25 0 7 0 7 -42 -16z"/>
<path d="M2708 4289 c-21 -11 -38 -22 -38 -24 0 -3 18 4 40 15 22 11 40 23 40
25 0 7 0 7 -42 -16z"/>
<path d="M3611 3934 c0 -11 3 -14 6 -6 3 7 2 16 -1 19 -3 4 -6 -2 -5 -13z"/>
<path d="M3621 3884 c0 -11 3 -14 6 -6 3 7 2 16 -1 19 -3 4 -6 -2 -5 -13z"/>
<path d="M3631 3844 c0 -11 3 -14 6 -6 3 7 2 16 -1 19 -3 4 -6 -2 -5 -13z"/>
<path d="M3641 3794 c0 -11 3 -14 6 -6 3 7 2 16 -1 19 -3 4 -6 -2 -5 -13z"/>
<path d="M1713 3973 c9 -2 23 -2 30 0 6 3 -1 5 -18 5 -16 0 -22 -2 -12 -5z"/>
<path d="M2860 4015 c36 -19 70 -34 75 -34 6 0 -19 15 -55 34 -36 19 -69 34
-75 34 -5 0 19 -15 55 -34z"/>
<path d="M2820 3920 c6 -11 13 -20 16 -20 2 0 0 9 -6 20 -6 11 -13 20 -16 20
-2 0 0 -9 6 -20z"/>
<path d="M3181 3834 c0 -11 3 -14 6 -6 3 7 2 16 -1 19 -3 4 -6 -2 -5 -13z"/>
<path d="M2890 3800 c6 -11 13 -20 16 -20 2 0 0 9 -6 20 -6 11 -13 20 -16 20
-2 0 0 -9 6 -20z"/>
<path d="M3192 3770 c0 -14 2 -19 5 -12 2 6 2 18 0 25 -3 6 -5 1 -5 -13z"/>
<path d="M2340 3776 c0 -3 9 -10 20 -16 11 -6 20 -8 20 -6 0 3 -9 10 -20 16
-11 6 -20 8 -20 6z"/>
<path d="M2920 3750 c6 -11 13 -20 16 -20 2 0 0 9 -6 20 -6 11 -13 20 -16 20
-2 0 0 -9 6 -20z"/>
<path d="M2410 3736 c0 -3 9 -10 20 -16 11 -6 20 -8 20 -6 0 3 -9 10 -20 16
-11 6 -20 8 -20 6z"/>
<path d="M3202 3700 c0 -14 2 -19 5 -12 2 6 2 18 0 25 -3 6 -5 1 -5 -13z"/>
<path d="M2460 3706 c0 -3 14 -12 30 -21 17 -9 30 -13 30 -11 0 3 -13 12 -30
21 -16 9 -30 13 -30 11z"/>
<path d="M2530 3666 c0 -3 14 -12 30 -21 17 -9 30 -13 30 -11 0 3 -13 12 -30
21 -16 9 -30 13 -30 11z"/>
<path d="M2815 3634 c-51 -34 -69 -52 -29 -29 35 20 82 54 74 55 -3 0 -23 -12
-45 -26z"/>
<path d="M2600 3626 c0 -3 9 -10 20 -16 11 -6 20 -8 20 -6 0 3 -9 10 -20 16
-11 6 -20 8 -20 6z"/>
<path d="M2618 3514 c-38 -20 -36 -28 2 -9 17 9 30 18 30 20 0 7 -1 6 -32 -11z"/>
<path d="M2548 3474 c-38 -20 -36 -28 2 -9 17 9 30 18 30 20 0 7 -1 6 -32 -11z"/>
<path d="M2100 3916 c0 -3 9 -10 20 -16 11 -6 20 -8 20 -6 0 3 -9 10 -20 16
-11 6 -20 8 -20 6z"/>
<path d="M1373 4013 c9 -2 23 -2 30 0 6 3 -1 5 -18 5 -16 0 -22 -2 -12 -5z"/>
<path d="M1463 4003 c9 -2 23 -2 30 0 6 3 -1 5 -18 5 -16 0 -22 -2 -12 -5z"/>
<path d="M2945 3459 c-12 -19 5 -23 22 -6 16 16 16 17 1 17 -9 0 -20 -5 -23
-11z"/>
<path d="M3290 3365 c0 -2 18 -14 40 -25 22 -11 40 -18 40 -15 0 2 -18 14 -40
25 -22 11 -40 18 -40 15z"/>
<path d="M3400 3305 c0 -2 23 -16 50 -30 28 -14 50 -23 50 -20 0 2 -22 16 -50
30 -27 14 -50 23 -50 20z"/>
<path d="M3537 3229 c7 -7 15 -10 18 -7 3 3 -2 9 -12 12 -14 6 -15 5 -6 -5z"/>
<path d="M3600 3196 c0 -2 7 -7 16 -10 8 -3 12 -2 9 4 -6 10 -25 14 -25 6z"/>
<path d="M3680 3155 c0 -2 18 -14 40 -25 22 -11 40 -18 40 -15 0 2 -18 14 -40
25 -22 11 -40 18 -40 15z"/>
<path d="M2228 3294 c-38 -20 -36 -28 2 -9 17 9 30 18 30 20 0 7 -1 6 -32 -11z"/>
<path d="M1958 3142 c-37 -21 -71 -42 -75 -47 -9 -10 127 63 142 76 17 16 1 9
-67 -29z"/>
</g>
</svg>
