<?xml version="1.0" encoding="UTF-8" standalone="no"?>
<svg
   version="1.0"
   width="515pt"
   height="627pt"
   viewBox="0 0 515 627"
   preserveAspectRatio="xMidYMid"
   id="svg78"
   sodipodi:docname="Warrior.svg"
   inkscape:version="1.4.2 (f4327f4, 2025-05-13)"
   xmlns:inkscape="http://www.inkscape.org/namespaces/inkscape"
   xmlns:sodipodi="http://sodipodi.sourceforge.net/DTD/sodipodi-0.dtd"
   xmlns="http://www.w3.org/2000/svg"
   xmlns:svg="http://www.w3.org/2000/svg">
  <defs
     id="defs78" />
  <sodipodi:namedview
     id="namedview78"
     pagecolor="#ffffff"
     bordercolor="#000000"
     borderopacity="0.25"
     inkscape:showpageshadow="2"
     inkscape:pageopacity="0.0"
     inkscape:pagecheckerboard="0"
     inkscape:deskcolor="#d1d1d1"
     inkscape:document-units="pt"
     inkscape:zoom="0.43955626"
     inkscape:cx="-779.19491"
     inkscape:cy="815.59526"
     inkscape:window-width="2560"
     inkscape:window-height="1369"
     inkscape:window-x="-8"
     inkscape:window-y="-8"
     inkscape:window-maximized="1"
     inkscape:current-layer="svg78" />
  <g
     transform="matrix(0.07363704,0,0,-0.07363704,128.975,448.25578)"
     fill="#000000"
     stroke="none"
     id="g78">
    <path
       d="m 1614,3473 c -56,-91 -70,-108 -134,-149 -79,-51 -102,-72 -95,-84 8,-14 155,84 198,132 21,23 41,55 44,70 3,15 9,28 13,28 5,0 6,-8 3,-18 -8,-31 36,-129 81,-179 83,-94 109,-150 84,-181 -10,-12 -10,-14 0,-8 9,5 12,-5 12,-41 0,-26 -3,-58 -6,-71 -7,-23 -7,-23 -43,10 -20,18 -26,22 -14,8 12,-14 46,-58 77,-99 43,-58 53,-78 45,-92 -11,-21 -78,-76 -131,-108 l -37,-22 -11,39 c -5,22 -19,50 -29,64 -19,24 -19,24 9,84 15,32 31,83 34,112 l 7,53 -38,-26 c -21,-14 -55,-28 -75,-31 -32,-6 -38,-10 -39,-33 0,-14 -6,-44 -14,-66 l -13,-40 -1,72 c -1,62 -4,72 -21,78 -11,3 -35,24 -54,47 l -35,40 -6,-28 c -4,-16 -9,-36 -11,-45 -2,-9 0,-48 6,-86 l 10,-71 -38,-39 c -20,-21 -41,-46 -47,-56 -9,-15 -15,-11 -53,35 -23,29 -52,73 -64,97 -21,43 -21,45 -3,55 35,21 95,78 95,92 0,7 18,23 40,34 21,11 45,30 52,43 15,27 11,77 -8,98 -8,8 -14,20 -14,26 0,6 -4,13 -9,15 -6,2 -5,25 1,58 20,108 -24,206 -88,198 l -29,-3 3,-74 c 3,-88 -21,-166 -47,-156 -13,5 -14,4 -3,-6 6,-7 12,-33 12,-59 0,-45 28,-121 49,-134 30,-19 -19,-88 -84,-118 -19,-9 -22,-15 -15,-38 12,-43 34,-75 50,-75 8,0 16,-9 18,-21 2,-11 25,-42 52,-69 l 48,-48 22,43 22,43 17,-30 c 24,-39 78,-83 102,-83 14,0 19,-7 19,-28 v -29 l -65,33 c -36,18 -92,38 -125,45 -55,11 -60,14 -70,45 -7,19 -20,40 -30,47 -10,7 -40,39 -66,70 -26,32 -49,55 -52,53 -2,-3 -11,1 -19,9 -24,25 -44,17 -92,-34 -25,-26 -62,-58 -83,-70 -53,-31 -106,-95 -112,-133 -3,-18 -8,-66 -11,-107 -3,-40 -15,-95 -27,-122 -25,-59 -17,-89 32,-114 24,-12 30,-21 24,-33 -4,-9 -10,-75 -15,-147 -7,-121 -6,-131 12,-147 10,-9 19,-21 19,-28 0,-20 32,-74 64,-108 17,-19 59,-47 94,-62 34,-16 62,-30 62,-32 0,-2 -198,-1 -441,0 -432,4 -496,1 -484,-18 9,-15 155,-13 155,3 0,9 2,9 8,-1 8,-12 174,-18 620,-21 128,-1 152,-3 152,-16 0,-11 -13,-15 -47,-17 l -48,-1 50,-6 c 40,-5 51,-10 53,-26 3,-20 -4,-20 -305,-23 -461,-4 -656,-11 -667,-22 -7,-7 146,-10 480,-8 l 491,3 6,-75 c 4,-41 13,-99 21,-129 l 14,-54 -55,-66 c -30,-36 -64,-87 -76,-113 -14,-31 -31,-51 -47,-57 -53,-19 -70,-47 -70,-115 0,-35 -3,-78 -7,-96 -6,-32 -5,-33 25,-28 18,2 32,2 32,-1 -1,-46 -42,-295 -54,-322 -8,-20 -35,-56 -59,-80 -24,-24 -47,-55 -50,-69 -3,-14 0,-67 7,-119 16,-118 28,-131 125,-131 70,0 152,18 188,41 40,24 49,64 29,123 -17,50 -17,53 3,113 12,35 21,74 21,88 0,30 54,141 72,148 10,4 10,6 1,6 -15,1 -18,37 -4,45 5,4 12,0 14,-6 3,-7 3,2 0,20 -4,25 1,41 22,71 15,22 32,37 40,35 33,-13 75,93 75,192 0,25 6,69 14,97 8,29 17,64 20,79 4,18 19,35 44,48 20,12 28,18 17,15 -11,-3 8,22 45,60 35,36 74,68 85,71 11,3 27,14 35,24 14,18 19,18 125,-7 61,-13 143,-28 184,-31 l 74,-7 -103,-115 c -57,-63 -113,-126 -124,-140 l -20,-25 26,25 c 14,14 72,77 128,140 56,63 109,119 116,123 30,17 10,25 -64,25 -46,0 -111,9 -159,21 -45,12 -99,21 -120,21 h -38 l 48,41 c 26,22 47,45 47,50 0,14 -26,11 -40,-6 -25,-30 -29,-14 -8,30 12,25 25,45 30,45 4,0 5,7 2,15 -5,12 -32,15 -156,15 -145,0 -150,1 -145,20 3,11 1,23 -4,26 -5,3 -9,12 -9,20 0,11 21,14 113,14 104,0 116,-2 146,-25 l 34,-24 -79,-4 -79,-3 90,-2 90,-1 -35,29 -35,29 480,-6 c 295,-3 482,-9 486,-15 4,-6 9,-6 13,1 4,6 18,11 32,11 20,0 24,-5 24,-30 0,-27 -3,-30 -32,-31 -27,0 -29,-2 -13,-8 l 20,-8 -20,-5 c -14,-4 -10,-6 13,-7 19,-1 32,-6 32,-14 0,-26 27,-49 56,-49 16,0 32,-5 36,-11 10,-16 -21,-107 -57,-162 -48,-75 -74,-94 -140,-105 -60,-10 -102,-31 -112,-56 -3,-8 -9,-14 -13,-14 -11,0 36,171 60,218 21,39 25,94 9,117 -4,6 -10,25 -14,43 -7,32 -6,32 32,33 21,1 29,4 19,6 -15,4 -16,7 -5,14 8,5 -94,9 -251,9 -146,0 -314,2 -375,4 -84,3 -94,2 -40,-3 l 70,-7 -87,-2 c -47,-1 -93,-5 -102,-8 -18,-7 -22,-24 -5,-24 6,0 30,-14 53,-31 l 41,-31 -35,31 -34,31 h 129 c 72,1 225,3 341,6 l 212,5 11,-48 c 18,-74 16,-114 -8,-158 -11,-22 -21,-45 -21,-52 0,-7 -9,-13 -20,-13 -25,0 -25,4 1,43 l 21,32 -26,-30 -25,-29 -156,-1 c -85,0 -155,1 -155,2 0,1 28,26 63,55 34,28 53,48 42,44 -11,-4 -46,-14 -78,-23 -31,-9 -55,-18 -52,-21 2,-3 -3,-11 -13,-19 -16,-12 -15,-13 3,-6 11,3 22,10 25,13 10,14 50,22 50,10 0,-11 -68,-45 -82,-42 -5,1 -8,-5 -8,-13 0,-7 -6,-18 -13,-22 -46,-28 -60,-100 -27,-133 11,-11 20,-30 20,-42 0,-33 -42,-119 -79,-160 -40,-46 -61,-106 -61,-175 0,-44 5,-58 25,-78 27,-28 39,-29 199,-18 88,5 97,8 80,20 -15,11 -42,13 -132,7 -135,-8 -142,-4 -142,71 0,66 15,112 50,150 34,37 78,122 88,172 9,44 28,54 42,21 10,-23 11,-23 6,0 -3,18 0,22 22,22 41,0 172,-32 172,-43 0,-5 -21,-47 -46,-93 -33,-61 -44,-91 -40,-109 12,-48 74,-80 258,-130 42,-11 59,-21 64,-38 17,-50 17,-50 -54,-42 -37,4 -71,11 -77,16 -15,15 -129,11 -150,-5 -19,-13 -18,-15 15,-20 19,-3 91,-11 159,-17 124,-11 125,-11 143,11 17,22 17,23 -4,62 -28,49 -32,51 -141,77 -104,25 -164,53 -178,85 -9,20 -5,34 28,92 21,38 42,76 45,85 4,9 23,19 46,22 21,4 51,16 65,27 l 26,21 -14,-35 c -15,-35 -20,-131 -10,-158 5,-12 18,-13 71,-6 92,13 117,8 125,-22 6,-23 7,-23 8,-3 1,12 -4,25 -9,28 -6,4 -8,10 -5,14 8,13 -50,21 -110,15 l -55,-6 1,54 c 1,71 11,102 33,106 14,3 17,0 13,-12 -4,-9 -9,-38 -13,-65 l -6,-50 53,6 c 77,7 201,-13 258,-42 27,-13 62,-40 78,-60 l 29,-35 22,30 c 12,16 42,41 66,55 54,32 190,59 268,53 l 58,-4 -1,30 c 0,50 -22,100 -49,113 -34,17 -37,8 -7,-19 15,-14 27,-38 30,-61 l 6,-37 h -57 c -141,-1 -257,-35 -311,-94 l -24,-25 -35,31 c -64,56 -148,80 -317,90 -34,3 -40,6 -37,23 8,58 12,64 52,75 22,5 58,15 81,21 79,20 176,144 209,267 11,41 12,43 29,28 17,-15 19,-15 31,-1 12,14 16,9 35,-43 26,-70 65,-140 106,-187 50,-57 159,-98 159,-59 0,8 -5,12 -11,9 -20,-13 -97,26 -133,65 -40,44 -75,110 -101,189 -14,44 -15,60 -6,92 10,32 16,39 38,39 25,0 25,-1 10,-18 -59,-65 53,-297 161,-334 20,-6 43,-11 50,-9 7,1 29,-3 49,-10 46,-15 72,-71 73,-153 v -59 l -52,6 c -82,8 -219,-8 -265,-31 -21,-11 -56,-39 -76,-61 -42,-47 -72,-52 -89,-16 -14,32 -74,73 -134,91 -55,16 -87,19 -65,5 11,-7 11,-9 0,-14 -9,-3 -6,-6 7,-6 48,-2 115,-34 149,-72 19,-21 35,-44 35,-49 0,-6 20,-10 45,-10 25,0 45,4 45,10 0,5 16,28 36,50 26,29 51,44 90,56 55,16 186,23 259,14 l 40,-5 v 85 c -1,139 -29,177 -150,199 -46,9 -67,19 -96,47 -42,41 -98,148 -101,196 -3,30 -1,33 26,34 19,1 38,11 52,28 13,14 40,32 60,39 47,15 61,37 49,74 -8,20 -20,30 -50,38 -23,5 -51,20 -63,32 -12,13 -28,23 -35,23 -15,0 -69,55 -86,87 -6,13 -28,32 -49,42 -20,11 -50,33 -66,50 -17,17 -35,31 -40,31 -6,0 7,-16 29,-36 22,-19 35,-37 29,-40 -29,-12 -46,-32 -58,-68 -14,-40 -40,-60 -90,-71 -16,-3 -30,-14 -33,-25 -4,-17 -14,-20 -59,-20 -30,0 -54,-4 -54,-10 0,-11 -33,-14 -43,-3 -10,10 29,34 46,28 7,-3 20,1 27,10 7,8 16,15 21,15 13,0 79,74 126,143 24,34 57,98 74,142 28,70 33,95 37,201 4,102 1,132 -17,199 -60,217 -211,383 -422,465 -153,59 -348,51 -504,-19 l -65,-30 -17,26 c -17,25 -16,27 1,37 42,24 90,73 103,104 8,19 14,69 14,118 0,70 5,93 24,130 25,48 24,68 -6,84 -25,14 -60,-2 -92,-39 -26,-32 -42,-73 -53,-144 l -7,-38 -20,33 c -11,18 -41,56 -67,85 -46,50 -80,122 -80,168 0,21 -17,45 -32,45 -4,0 -15,-12 -24,-27 z m -277,-40 c 14,-21 18,-48 18,-118 0,-79 3,-94 23,-119 24,-31 30,-62 10,-50 -10,6 -9,3 0,-8 18,-23 2,-52 -38,-68 -30,-12 -33,-11 -56,16 -42,52 -43,114 -4,220 10,29 17,53 16,55 -2,2 -7,25 -10,52 -6,39 -4,47 8,47 9,0 24,-12 33,-27 z m 648,-74 c 4,-5 -5,-27 -19,-48 -20,-28 -26,-50 -26,-87 0,-28 -6,-56 -12,-63 -10,-11 -10,-13 0,-7 17,10 16,-57 -3,-93 -8,-16 -29,-41 -47,-56 l -33,-28 -3,57 c -2,37 2,64 10,74 10,12 10,14 1,8 -16,-9 -17,16 -2,31 5,5 19,46 30,89 15,61 26,85 49,107 33,29 45,33 55,16 z m -529,-365 c -4,-10 7,-22 29,-35 54,-32 39,-54 -19,-28 -25,12 -43,51 -26,57 5,2 6,10 3,19 -4,11 -3,14 6,9 7,-5 10,-15 7,-22 z m 231,-59 c -4,-10 -19,-15 -44,-15 l -38,1 40,18 c 44,20 50,19 42,-4 z m 689,-11 c 251,-63 442,-291 468,-559 12,-117 -30,-322 -63,-310 -12,5 -13,4 -4,-6 14,-14 9,-25 -45,-107 -25,-39 -37,-50 -43,-40 -7,10 -9,9 -9,-3 0,-26 -37,-66 -100,-109 l -59,-40 h -115 c -65,0 -126,-5 -140,-11 -18,-9 -33,-9 -53,-1 -26,10 -522,27 -658,23 -50,-2 -64,2 -79,18 -10,11 -46,29 -80,41 -33,11 -72,29 -86,40 -20,15 -10,13 50,-10 41,-16 110,-39 153,-52 77,-24 77,-24 135,-6 31,10 63,18 71,18 8,0 39,12 69,26 63,30 68,29 277,-37 75,-24 123,-35 130,-29 6,5 47,8 91,7 76,-2 84,0 168,42 64,31 85,46 75,52 -11,7 -10,9 4,9 9,0 17,5 17,11 0,6 7,9 15,6 20,-8 86,71 130,155 114,216 75,468 -99,643 -136,136 -313,190 -498,150 -37,-7 -88,-23 -113,-34 l -46,-20 -9,23 c -5,13 -14,26 -21,28 -46,15 87,80 202,98 68,11 186,3 265,-16 z m -906,-20 c 0,-2 -7,-4 -15,-4 -8,0 -15,4 -15,10 0,5 7,7 15,4 8,-4 15,-8 15,-10 z m 43,-11 c -7,-2 -19,-2 -25,0 -7,3 -2,5 12,5 14,0 19,-2 13,-5 z m -385,-40 c 13,-14 21,-30 19,-37 -12,-35 -113,-48 -111,-13 2,13 -1,15 -11,7 -9,-7 -15,-8 -20,-1 -3,6 9,26 26,46 37,40 59,40 97,-2 z m 535,30 c -7,-2 -21,-2 -30,0 -10,3 -4,5 12,5 17,0 24,-2 18,-5 z m -162,-13 c 16,0 19,-7 19,-40 0,-35 -3,-40 -27,-45 -16,-4 -36,-10 -45,-16 -23,-12 -25,-12 -32,6 -4,10 3,19 18,27 21,9 24,15 19,46 -5,31 -4,34 11,29 10,-4 26,-7 37,-7 z m 100,-27 c 1,-17 2,-17 6,0 2,9 13,17 24,17 22,0 23,-1 7,-35 -8,-19 -14,-22 -20,-13 -6,8 -7,1 -3,-19 l 6,-32 -35,11 c -19,6 -33,16 -30,22 18,52 25,66 34,66 5,0 11,-8 11,-17 z m 750,-39 c 116,-35 221,-111 290,-210 81,-118 105,-311 56,-451 -24,-71 -108,-203 -128,-203 -6,0 -18,-9 -28,-21 -17,-21 -17,-21 -96,45 -44,37 -82,71 -83,76 -2,6 10,28 27,49 45,57 67,116 62,169 -2,20 -18,14 -24,-9 -5,-19 -10,-20 -49,-14 -56,9 -132,51 -169,92 -33,39 -35,46 -13,63 13,11 19,8 45,-22 16,-20 52,-48 81,-62 54,-27 118,-35 118,-14 0,19 20,-5 25,-30 6,-34 25,-62 40,-62 22,0 19,8 -30,84 -25,38 -42,73 -39,77 13,21 33,5 69,-56 21,-36 44,-65 51,-65 20,0 17,23 -6,53 -26,32 -25,39 5,67 32,30 31,62 -6,125 -16,28 -33,59 -38,70 -5,11 -28,40 -50,64 -41,43 -41,43 -94,37 -51,-7 -53,-6 -71,25 -15,26 -16,33 -5,40 10,6 8,9 -8,9 -13,0 -23,4 -23,10 0,5 -7,7 -15,4 -8,-4 -15,-13 -15,-21 0,-11 -7,-14 -22,-10 -12,4 -28,1 -35,-4 -10,-9 -8,-15 9,-29 l 21,-17 -26,-7 c -35,-8 -35,-35 -2,-84 18,-27 25,-50 25,-86 0,-43 -5,-54 -39,-91 l -39,-43 -12,28 c -6,15 -27,45 -46,65 -25,27 -34,47 -35,74 -1,20 -4,47 -8,61 -6,17 -3,31 8,45 15,18 15,19 -1,6 -15,-11 -21,-9 -42,16 -27,32 -81,53 -118,46 -12,-2 -31,2 -40,9 -16,12 -13,17 28,61 37,38 48,45 58,34 15,-15 10,-34 -18,-66 l -21,-24 40,26 40,25 50,-46 49,-47 -43,49 c -41,45 -42,49 -25,59 82,46 262,61 365,31 z M 995,2790 c 4,-6 1,-19 -7,-28 -11,-15 -11,-16 3,-4 11,8 31,10 56,6 27,-4 51,-1 79,12 21,9 44,18 51,19 41,9 94,-99 96,-195 1,-55 -27,-160 -43,-160 -5,0 -24,9 -42,20 -71,41 -225,78 -256,61 -17,-9 -12,-11 108,-31 61,-11 180,-64 180,-80 0,-15 -28,-31 -35,-20 -3,6 -30,22 -58,37 -103,52 -258,43 -324,-20 -13,-11 -23,-15 -23,-9 0,7 4,12 9,12 5,0 14,14 21,31 8,18 27,37 48,47 20,9 38,23 40,30 3,11 -3,10 -26,-2 -17,-9 -34,-16 -38,-16 -12,0 7,175 22,197 16,25 110,103 124,103 5,0 12,-5 15,-10 z m 658,-35 c 4,-8 2,-17 -3,-20 -6,-4 -10,-4 -10,-1 0,2 -3,11 -6,20 -3,9 -2,16 4,16 5,0 12,-7 15,-15 z m -64,-8 c 53,-26 26,-67 -44,-67 -51,0 -103,35 -92,63 8,21 99,23 136,4 z m 91,-61 c 0,-54 8,-57 63,-24 48,28 55,30 97,20 75,-18 120,-41 133,-69 11,-25 7,-30 -92,-125 -57,-54 -108,-97 -115,-95 -6,2 -20,17 -31,35 -11,17 -25,32 -31,34 -6,2 -41,31 -78,65 -57,54 -66,67 -66,98 0,21 5,35 13,35 6,0 25,7 40,15 26,14 28,13 37,-11 6,-14 10,-30 10,-36 0,-6 3,-9 6,-5 4,3 1,20 -5,38 -11,32 -8,49 10,49 5,0 9,-11 9,-24 z m 595,-27 c 13,-25 11,-39 -5,-39 -4,0 -19,18 -33,39 -18,27 -23,41 -14,44 16,6 35,-10 52,-44 z m -820,-43 c 85,-40 125,-76 125,-111 0,-41 -46,-38 -137,11 -36,19 -82,37 -104,40 -32,5 -39,11 -39,29 0,12 -3,36 -6,53 l -6,30 48,-9 c 27,-5 81,-24 119,-43 z m 770,34 c 3,-5 1,-10 -4,-10 -6,0 -11,5 -11,10 0,6 2,10 4,10 3,0 8,-4 11,-10 z m 5,-42 c 11,-12 20,-35 20,-51 0,-20 6,-30 20,-34 13,-4 20,-14 20,-29 0,-17 8,-27 25,-34 14,-5 25,-17 25,-25 0,-9 7,-18 15,-21 8,-4 15,-12 15,-18 0,-7 14,-31 31,-54 l 31,-42 h -24 c -38,0 -126,49 -153,84 -20,26 -25,45 -25,92 0,45 -6,68 -25,99 -13,22 -25,43 -25,48 0,15 30,6 50,-15 z m 207,-7 c 6,-13 19,-28 27,-33 9,-5 16,-19 16,-31 0,-12 9,-28 20,-35 11,-7 20,-18 20,-26 0,-7 7,-19 15,-26 20,-16 19,-49 -2,-72 -23,-25 -35,-23 -27,7 6,23 4,24 -23,16 -15,-5 -40,-14 -55,-20 -24,-9 -28,-8 -28,8 0,24 30,49 68,57 17,4 29,10 26,15 -9,15 -43,10 -85,-12 -23,-11 -43,-18 -46,-15 -13,13 11,39 54,59 45,21 46,22 20,25 -16,2 -43,-6 -63,-17 -41,-24 -64,-27 -64,-7 0,20 44,53 81,61 16,4 27,11 23,16 -9,15 -42,10 -86,-12 -49,-25 -70,-14 -44,25 31,48 131,59 153,17 z m -437,-90 c 0,-37 5,-49 39,-81 25,-24 48,-62 66,-109 16,-40 43,-88 59,-106 37,-39 107,-65 176,-65 28,0 50,-3 50,-7 0,-14 -52,-73 -64,-73 -7,0 -21,9 -32,21 -10,12 -32,30 -49,41 -16,11 -6,-1 23,-27 50,-45 52,-48 36,-66 -23,-26 -39,-24 -101,11 -29,17 -86,37 -126,46 -69,14 -125,44 -162,84 -14,15 -15,24 -5,59 14,52 1,103 -39,157 l -29,39 71,72 c 77,79 87,79 87,4 z m -622,13 c 20,-8 63,-32 94,-52 l 58,-37 v -112 c 0,-64 4,-114 10,-118 6,-4 10,32 10,102 v 108 l 30,-31 c 28,-27 30,-32 19,-62 -28,-80 40,-182 121,-182 16,0 20,-7 21,-32 l 1,-33 7,30 c 9,43 44,46 61,5 10,-24 10,-40 1,-69 -6,-21 -11,-48 -11,-59 0,-23 -6,-29 -41,-36 -13,-3 -40,-9 -59,-14 -38,-9 -163,-7 -220,3 -62,12 -153,46 -193,73 -36,26 -97,122 -97,156 0,7 -9,24 -21,37 l -20,24 4,-40 c 3,-22 9,-49 13,-59 6,-16 4,-18 -11,-12 -10,3 0,-13 23,-39 30,-32 42,-53 42,-75 0,-16 -2,-30 -4,-30 -2,0 -21,26 -42,58 -21,31 -46,66 -56,78 -17,19 -17,22 2,62 12,24 20,48 19,55 -1,7 -1,21 0,31 1,18 3,18 26,-4 14,-13 24,-30 23,-38 -4,-22 42,-51 94,-58 83,-11 162,44 175,122 7,46 -22,111 -58,130 -74,38 -161,-5 -161,-80 0,-40 13,-63 31,-52 6,4 7,15 2,29 -16,44 16,87 65,87 46,0 63,-8 79,-41 31,-58 8,-126 -51,-154 -100,-47 -204,28 -204,145 l 1,45 19,-23 19,-24 31,49 c 17,26 38,71 47,100 19,60 34,65 101,37 z m 348,-136 c 3,-10 9,-16 12,-14 4,2 16,-2 27,-10 10,-8 16,-14 12,-14 -4,0 10,-24 31,-52 62,-83 64,-89 46,-141 l -16,-46 -44,66 c -33,49 -44,76 -45,107 -2,40 -2,40 -8,8 l -6,-33 -92,94 -92,93 29,11 c 21,8 30,18 30,34 0,21 7,17 55,-31 30,-30 58,-62 61,-72 z m -780,35 c 13,-17 14,-17 7,1 -6,18 -2,19 48,12 30,-4 71,-12 92,-17 l 38,-10 -7,-87 c -3,-48 -11,-98 -16,-112 l -9,-25 -20,25 -20,25 12,-25 c 7,-14 13,-50 14,-80 1,-55 0,-55 -40,-75 -57,-29 -85,-75 -85,-143 v -55 l -25,23 c -13,13 -32,44 -41,69 -10,25 -25,53 -35,61 -27,24 -11,240 25,335 15,39 29,76 31,83 6,17 15,15 31,-5 z m -56,-3 c 0,-24 -30,-80 -42,-80 -21,0 -59,30 -53,41 7,10 75,48 88,49 4,0 7,-5 7,-10 z m 979,-73 c 22,-46 26,-83 12,-106 -7,-11 -10,-9 -16,7 -3,12 -24,45 -45,74 -37,48 -38,53 -24,70 23,24 47,9 73,-45 z m 387,-88 c 24,-16 69,-35 99,-42 65,-13 74,-40 15,-45 -70,-7 -140,17 -187,63 -25,26 -43,53 -43,66 0,27 11,18 28,-24 8,-22 11,-24 7,-7 -3,14 -8,39 -11,55 l -6,30 27,-33 c 14,-17 46,-46 71,-63 z m -516,-64 c 0,-32 -26,-33 -71,-2 -37,25 -55,71 -44,114 l 7,28 54,-58 c 35,-37 54,-67 54,-82 z m 25,-15 c 3,-5 1,-10 -4,-10 -6,0 -11,5 -11,10 0,6 2,10 4,10 3,0 8,-4 11,-10 z m 237,-94 c 18,-8 53,-17 78,-21 25,-3 70,-22 102,-41 65,-39 95,-42 132,-13 15,11 32,19 39,16 7,-3 45,-33 86,-68 l 74,-62 -26,-23 c -37,-32 -130,-65 -217,-77 -67,-9 -83,-8 -140,11 -36,11 -111,35 -167,52 -83,25 -103,34 -103,50 0,10 -7,25 -15,34 -20,20 -20,28 12,133 l 28,91 42,-34 c 23,-19 57,-41 75,-48 z m -875,-51 c 2,-6 -11,-15 -29,-20 -41,-12 -78,-79 -78,-142 0,-46 0,-46 -24,-37 -21,8 -22,104 -1,145 28,52 120,90 132,54 z m 41,-55 c 11,-18 10,-20 -9,-20 -26,0 -57,-16 -93,-49 -22,-20 -28,-22 -23,-8 4,10 7,24 7,31 0,7 11,25 25,40 29,32 75,35 93,6 z m 165,-26 c 17,-9 48,-28 67,-42 33,-24 34,-25 15,-2 l -20,23 29,-7 c 15,-4 41,-10 57,-13 27,-5 28,-7 15,-32 -7,-14 -11,-32 -8,-40 6,-19 -27,-10 -156,41 -82,33 -102,44 -96,57 3,9 8,24 11,33 5,18 20,15 86,-18 z m -122,-37 c 16,-22 15,-22 -21,-22 -46,-1 -89,-28 -103,-66 -13,-34 -31,-33 -35,2 -5,46 65,108 123,108 11,0 27,-10 36,-22 z m 607,11 c 23,-23 13,-47 -28,-68 -22,-11 -40,-17 -40,-13 0,4 -5,2 -12,-5 -19,-19 -38,-14 -38,9 0,11 -5,29 -10,40 -9,17 -7,19 19,19 16,0 42,7 57,15 35,18 37,18 52,3 z m -548,-38 c 13,-8 13,-10 -2,-10 -9,0 -20,5 -23,10 -8,13 5,13 25,0 z m 394,-9 c 31,-34 -3,-71 -66,-71 -62,0 -104,54 -60,79 30,18 107,13 126,-8 z m 1280,-3 c 9,-12 13,-31 10,-42 -4,-17 2,-24 26,-33 17,-7 34,-21 37,-32 5,-21 23,-29 23,-11 0,16 37,11 44,-6 10,-27 7,-126 -4,-119 -5,3 -10,31 -10,61 0,30 -4,54 -10,54 -5,0 -10,-7 -10,-15 0,-24 -15,-18 -53,20 -19,19 -42,35 -50,35 -12,0 -15,10 -14,43 2,37 -1,42 -22,45 -31,5 -43,-15 -36,-55 5,-26 3,-33 -11,-33 -9,0 -32,-16 -51,-35 -38,-38 -53,-44 -53,-20 0,8 -4,15 -10,15 -5,0 -10,-15 -10,-34 0,-19 -5,-38 -11,-41 -7,-5 -9,9 -7,42 3,41 6,48 26,51 12,2 22,-1 22,-7 0,-19 15,-12 25,12 6,12 24,27 42,32 27,9 30,13 21,29 -7,13 -7,26 1,42 14,32 63,33 85,2 z m -1631,-42 c 34,-19 81,-40 105,-47 43,-13 56,-29 23,-29 -37,0 -51,-12 -51,-41 v -29 h -73 -73 l 4,-40 c 6,-61 -24,-52 -37,12 -9,44 -26,29 -23,-20 4,-38 2,-43 -15,-40 -10,1 -26,20 -37,42 -16,32 -16,40 -5,47 11,7 11,9 -2,9 -10,0 -19,12 -23,31 -11,59 -7,89 19,114 38,38 109,35 188,-9 z m 1650,-77 c 14,-6 30,-22 36,-35 6,-14 19,-24 31,-24 13,0 20,-7 20,-20 0,-15 -7,-20 -29,-20 -16,0 -35,-7 -42,-16 -10,-12 -23,-14 -50,-10 -43,7 -60,-8 -37,-31 13,-13 17,-13 31,1 27,27 35,19 24,-24 -10,-36 -12,-38 -28,-24 -14,13 -18,13 -29,-2 -12,-14 -16,-10 -28,32 -16,54 -35,73 -74,74 -21,0 -28,5 -28,20 0,13 7,20 20,20 12,0 25,10 31,24 6,13 21,29 33,34 28,14 90,15 119,1 z m 191,-68 c 16,-18 16,-19 -9,-23 -21,-4 -25,-2 -25,18 0,29 11,30 34,5 z m 31,8 c 11,-17 -1,-21 -15,-4 -8,9 -8,15 -2,15 6,0 14,-5 17,-11 z m -1859,-45 c 7,-27 -7,-51 -24,-40 -6,3 -15,19 -20,36 -10,28 -9,30 13,30 18,0 26,-7 31,-26 z m 72,-6 c -2,-21 -8,-33 -17,-33 -8,0 -21,15 -28,33 -13,32 -13,32 18,32 28,0 30,-2 27,-32 z m -268,-31 c 16,-33 53,-48 73,-28 7,7 15,7 24,-1 11,-9 18,-8 30,5 13,12 20,13 34,4 14,-9 24,-9 37,-1 12,8 24,8 41,1 19,-9 26,-8 36,6 10,15 32,17 154,17 77,0 141,-3 141,-7 0,-5 -15,-35 -33,-68 -24,-44 -52,-75 -107,-119 -41,-33 -102,-88 -135,-122 -33,-34 -69,-67 -80,-73 -15,-9 -15,-11 -2,-7 22,7 23,-20 1,-89 l -17,-52 -53,13 c -29,6 -81,15 -115,19 -41,5 -57,10 -48,16 8,5 10,9 4,9 -5,0 -14,-4 -20,-8 -27,-19 -8,-29 73,-40 48,-7 104,-17 126,-23 l 39,-11 -6,-62 c -7,-77 -25,-119 -46,-112 -72,23 -151,63 -160,80 -11,20 -11,20 -5,-2 5,-21 3,-23 -15,-17 -11,3 -46,1 -78,-6 -32,-6 -70,-13 -85,-16 l -28,-5 v 70 c 0,64 2,72 26,91 15,12 41,21 60,21 37,0 52,14 28,28 -14,8 -14,13 4,49 12,22 42,64 67,94 61,70 67,87 49,138 -7,22 -17,79 -20,126 -5,62 -11,85 -20,85 -15,0 -18,12 -7,23 11,12 18,7 33,-26 z m 1913,16 c -7,-2 -21,-2 -30,0 -10,3 -4,5 12,5 17,0 24,-2 18,-5 z m -212,-25 c 24,-44 15,-111 -25,-193 -47,-95 -107,-159 -161,-173 -92,-24 -147,-34 -152,-29 -17,17 26,35 120,52 43,7 107,59 142,115 36,57 67,150 60,181 -6,28 -45,72 -45,51 0,-7 -9,-12 -20,-12 -11,0 -20,4 -20,10 0,5 7,7 15,4 8,-4 15,-1 15,5 0,6 13,11 30,11 20,0 33,-7 41,-22 z m 249,0 c 0,-4 -9,-8 -20,-8 -11,0 -20,4 -20,8 0,4 9,8 20,8 11,0 20,-4 20,-8 z m -694,-261 c 4,-3 -3,-19 -15,-35 -12,-17 -21,-34 -21,-38 0,-5 11,8 25,29 18,26 33,37 50,37 14,0 25,-6 25,-14 0,-25 -23,-81 -38,-93 -13,-11 -13,-13 -1,-13 10,-1 9,-5 -5,-15 -26,-19 -85,-19 -134,0 -45,18 -177,34 -194,24 -19,-12 -58,12 -58,35 0,27 28,68 41,61 5,-4 9,1 9,9 0,10 13,16 43,19 55,6 266,1 273,-6 z M 1150,883 c 19,-34 21,-29 4,12 -3,8 -2,15 4,15 10,0 84,-29 91,-36 5,-5 -42,-74 -51,-74 -4,0 -10,9 -13,21 -4,11 -9,18 -12,16 -2,-3 0,-14 6,-25 16,-30 -8,-144 -32,-150 -13,-3 -15,-7 -7,-12 9,-5 8,-15 -4,-38 -9,-17 -23,-65 -31,-106 -7,-41 -21,-86 -29,-99 -15,-21 -14,-27 6,-75 26,-61 17,-91 -34,-118 -42,-22 -201,-32 -222,-15 -14,12 -34,151 -28,194 1,11 22,42 47,70 54,61 80,126 90,222 13,123 32,208 51,222 10,7 45,13 81,13 62,0 63,0 83,-37 z"
       id="path1" />
    <path
       d="m 1285,3205 c 11,-9 29,-21 40,-26 l 20,-10 -20,16 c -11,9 -29,21 -40,26 l -20,10 z"
       id="path2" />
    <path
       d="m 1884,3134 c -18,-14 -18,-15 4,-4 12,6 22,13 22,15 0,8 -5,6 -26,-11 z"
       id="path3" />
    <path
       d="m 2140,2904 c 0,-9 5,-14 12,-12 18,6 21,28 4,28 -9,0 -16,-7 -16,-16 z"
       id="path4" />
    <path
       d="m 2220,2911 c 0,-5 7,-11 15,-15 9,-3 15,0 15,9 0,8 -7,15 -15,15 -8,0 -15,-4 -15,-9 z"
       id="path5" />
    <path
       d="m 2057,2903 c -12,-11 -8,-23 8,-23 8,0 15,7 15,15 0,16 -12,20 -23,8 z"
       id="path6" />
    <path
       d="m 2312,2899 c 2,-6 8,-10 13,-10 5,0 11,4 13,10 2,6 -4,11 -13,11 -9,0 -15,-5 -13,-11 z"
       id="path7" />
    <path
       d="m 2392,2878 c 6,-18 28,-21 28,-4 0,9 -7,16 -16,16 -9,0 -14,-5 -12,-12 z"
       id="path8" />
    <path
       d="m 1970,2865 c 0,-8 7,-15 15,-15 8,0 15,7 15,15 0,8 -7,15 -15,15 -8,0 -15,-7 -15,-15 z"
       id="path9" />
    <path
       d="m 2470,2846 c 0,-9 7,-16 16,-16 17,0 14,22 -4,28 -7,2 -12,-3 -12,-12 z"
       id="path10" />
    <path
       d="m 2547,2806 c -6,-15 1,-26 15,-26 11,0 10,27 -1,34 -5,3 -11,0 -14,-8 z"
       id="path11" />
    <path
       d="m 2616,2753 c -11,-11 -6,-23 9,-23 8,0 15,4 15,9 0,13 -16,22 -24,14 z"
       id="path12" />
    <path
       d="m 2675,2690 c -4,-6 -3,-16 3,-22 6,-6 12,-6 17,2 4,6 3,16 -3,22 -6,6 -12,6 -17,-2 z"
       id="path13" />
    <path
       d="m 2714,2619 c -10,-17 13,-36 27,-22 12,12 4,33 -11,33 -5,0 -12,-5 -16,-11 z"
       id="path14" />
    <path
       d="m 2757,2544 c -8,-8 1,-24 14,-24 5,0 9,7 9,15 0,15 -12,20 -23,9 z"
       id="path15" />
    <path
       d="m 2786,2463 c -11,-11 -6,-23 9,-23 8,0 15,4 15,9 0,13 -16,22 -24,14 z"
       id="path16" />
    <path
       d="m 2797,2374 c -8,-8 1,-24 14,-24 5,0 9,7 9,15 0,15 -12,20 -23,9 z"
       id="path17" />
    <path
       d="m 2800,2280 c 0,-5 7,-10 15,-10 8,0 15,5 15,10 0,6 -7,10 -15,10 -8,0 -15,-4 -15,-10 z"
       id="path18" />
    <path
       d="m 2790,2194 c 0,-9 5,-14 12,-12 18,6 21,28 4,28 -9,0 -16,-7 -16,-16 z"
       id="path19" />
    <path
       d="m 2770,2116 c 0,-9 5,-16 10,-16 6,0 10,4 10,9 0,6 -4,13 -10,16 -5,3 -10,-1 -10,-9 z"
       id="path20" />
    <path
       d="m 2726,2048 c -8,-33 -8,-36 9,-34 24,4 28,14 12,36 l -14,21 z"
       id="path21" />
    <path
       d="m 2699,1979 c -9,-11 -14,-29 -12,-40 5,-19 6,-19 17,-2 10,15 20,63 13,63 -1,0 -9,-10 -18,-21 z"
       id="path22" />
    <path
       d="m 2636,1903 c -11,-11 -6,-23 9,-23 8,0 15,4 15,9 0,13 -16,22 -24,14 z"
       id="path23" />
    <path
       d="m 2570,1835 c 0,-9 5,-15 11,-13 6,2 11,8 11,13 0,5 -5,11 -11,13 -6,2 -11,-4 -11,-13 z"
       id="path24" />
    <path
       d="m 2500,1785 c 0,-9 5,-15 11,-13 6,2 11,8 11,13 0,5 -5,11 -11,13 -6,2 -11,-4 -11,-13 z"
       id="path25" />
    <path
       d="m 1056,2852 -19,-27 24,22 c 12,12 21,24 18,27 -2,2 -13,-8 -23,-22 z"
       id="path26" />
    <path
       d="m 2370,2706 c 0,-3 9,-10 20,-16 11,-6 20,-8 20,-6 0,3 -9,10 -20,16 -11,6 -20,8 -20,6 z"
       id="path27" />
    <path
       d="m 2420,2676 c 0,-3 9,-10 20,-16 11,-6 20,-8 20,-6 0,3 -9,10 -20,16 -11,6 -20,8 -20,6 z"
       id="path28" />
    <path
       d="m 2515,2615 c 11,-9 29,-21 40,-26 l 20,-10 -20,16 c -11,9 -29,21 -40,26 l -20,10 z"
       id="path29" />
    <path
       d="m 2071,2584 c 0,-11 3,-14 6,-6 3,7 2,16 -1,19 -3,4 -6,-2 -5,-13 z"
       id="path30" />
    <path
       d="m 2587,2569 c 7,-7 15,-10 18,-7 3,3 -2,9 -12,12 -14,6 -15,5 -6,-5 z"
       id="path31" />
    <path
       d="m 2612,2475 c 0,-16 2,-22 5,-12 2,9 2,23 0,30 -3,6 -5,-1 -5,-18 z"
       id="path32" />
    <path
       d="m 2111,2454 c 0,-11 3,-14 6,-6 3,7 2,16 -1,19 -3,4 -6,-2 -5,-13 z"
       id="path33" />
    <path
       d="m 2602,2380 c 0,-19 2,-27 5,-17 2,9 2,25 0,35 -3,9 -5,1 -5,-18 z"
       id="path34" />
    <path
       d="m 2592,2285 c 0,-16 2,-22 5,-12 2,9 2,23 0,30 -3,6 -5,-1 -5,-18 z"
       id="path35" />
    <path
       d="m 2582,2190 c 0,-19 2,-27 5,-17 2,9 2,25 0,35 -3,9 -5,1 -5,-18 z"
       id="path36" />
    <path
       d="m 2572,2095 c 0,-16 2,-22 5,-12 2,9 2,23 0,30 -3,6 -5,-1 -5,-18 z"
       id="path37" />
    <path
       d="m 2562,2000 c 0,-19 2,-27 5,-17 2,9 2,25 0,35 -3,9 -5,1 -5,-18 z"
       id="path38" />
    <path
       d="m 1180,2785 c 0,-5 5,-17 10,-25 5,-8 10,-10 10,-5 0,6 -5,17 -10,25 -5,8 -10,11 -10,5 z"
       id="path39" />
    <path
       d="m 959,2723 c -29,-35 -41,-53 -36,-53 2,0 17,16 31,35 28,36 31,49 5,18 z"
       id="path40" />
    <path
       d="m 1671,2594 c 0,-11 3,-14 6,-6 3,7 2,16 -1,19 -3,4 -6,-2 -5,-13 z"
       id="path41" />
    <path
       d="m 1681,2560 c 0,-8 4,-24 9,-35 5,-13 9,-14 9,-5 0,8 -4,24 -9,35 -5,13 -9,14 -9,5 z"
       id="path42" />
    <path
       d="m 1390,2115 c 0,-19 56,-29 160,-29 102,0 163,10 157,27 -2,8 -20,10 -53,7 -70,-7 -151,-6 -211,2 -42,6 -53,4 -53,-7 z"
       id="path43" />
    <path
       d="m 1423,2025 c 10,-28 247,-30 247,-2 0,9 -36,12 -125,12 -80,0 -124,-3 -122,-10 z"
       id="path44" />
    <path
       d="m 978,2370 c 45,-82 74,-130 79,-130 5,0 -56,109 -80,141 -16,20 -15,19 1,-11 z"
       id="path45" />
    <path
       d="m 1440,1886 c 0,-2 8,-10 18,-17 15,-13 16,-12 3,4 -13,16 -21,21 -21,13 z"
       id="path46" />
    <path
       d="m 1290,1210 c -8,-5 -10,-10 -5,-10 6,0 17,5 25,10 8,5 11,10 5,10 -5,0 -17,-5 -25,-10 z"
       id="path47" />
    <path
       d="m 1080,1045 c 0,-5 5,-17 10,-25 5,-8 10,-10 10,-5 0,6 -5,17 -10,25 -5,8 -10,11 -10,5 z"
       id="path48" />
    <path
       d="m 1068,633 c 7,-3 16,-2 19,1 4,3 -2,6 -13,5 -11,0 -14,-3 -6,-6 z"
       id="path49" />
    <path
       d="m 2174,3304 c -18,-14 -18,-15 4,-4 12,6 22,13 22,15 0,8 -5,6 -26,-11 z"
       id="path50" />
    <path
       d="m 2118,3274 c -38,-20 -36,-28 2,-9 17,9 30,18 30,20 0,7 -1,6 -32,-11 z"
       id="path51" />
    <path
       d="m 2054,3234 c -18,-14 -18,-15 4,-4 12,6 22,13 22,15 0,8 -5,6 -26,-11 z"
       id="path52" />
    <path
       d="m 2004,3204 c -18,-14 -18,-15 4,-4 12,6 22,13 22,15 0,8 -5,6 -26,-11 z"
       id="path53" />
    <path
       d="m 1485,3075 c 11,-9 29,-21 40,-26 l 20,-10 -20,16 c -11,9 -29,21 -40,26 l -20,10 z"
       id="path54" />
    <path
       d="m 1764,3064 c -18,-14 -18,-15 4,-4 12,6 22,13 22,15 0,8 -5,6 -26,-11 z"
       id="path55" />
    <path
       d="m 1623,3033 c 15,-2 39,-2 55,0 15,2 2,4 -28,4 -30,0 -43,-2 -27,-4 z"
       id="path56" />
    <path
       d="m 468,1713 c 23,-2 59,-2 80,0 20,2 1,4 -43,4 -44,0 -61,-2 -37,-4 z"
       id="path57" />
    <path
       d="m 748,1703 c 23,-2 59,-2 80,0 20,2 1,4 -43,4 -44,0 -61,-2 -37,-4 z"
       id="path58" />
    <path
       d="m 1870,1556 c 0,-2 8,-10 18,-17 15,-13 16,-12 3,4 -13,16 -21,21 -21,13 z"
       id="path59" />
    <path
       d="m 1917,1519 c 14,-17 103,-83 103,-76 0,3 -26,24 -57,48 -32,23 -53,36 -46,28 z"
       id="path60" />
    <path
       d="m 2880,1455 -24,-26 26,-25 25,-26 26,25 26,24 -27,26 -28,27 z m 47,-39 c -8,-20 -36,-21 -43,-1 -4,8 0,22 7,31 11,13 14,13 27,0 8,-8 12,-22 9,-30 z"
       id="path61" />
    <path
       d="m 1575,1369 c -4,-6 -5,-12 -2,-15 2,-3 7,2 10,11 7,17 1,20 -8,4 z"
       id="path62" />
    <path
       d="m 2869,1329 -35,-39 35,-34 36,-35 39,33 40,33 -40,40 -39,40 z m 70,-13 23,-24 -23,-26 c -26,-30 -36,-32 -61,-9 -22,20 -23,41 -1,65 22,24 35,23 62,-6 z"
       id="path63" />
    <path
       d="m 1490,1290 c -8,-5 -10,-10 -5,-10 6,0 17,5 25,10 8,5 11,10 5,10 -5,0 -17,-5 -25,-10 z"
       id="path64" />
    <path
       d="m 1608,1243 c 17,-21 54,-60 83,-88 36,-34 27,-22 -26,38 -83,91 -107,113 -57,50 z"
       id="path65" />
    <path
       d="m 2558,1183 c 7,-3 16,-2 19,1 4,3 -2,6 -13,5 -11,0 -14,-3 -6,-6 z"
       id="path66" />
    <path
       d="m 2598,1173 c 7,-3 16,-2 19,1 4,3 -2,6 -13,5 -11,0 -14,-3 -6,-6 z"
       id="path67" />
    <path
       d="m 2111,1144 c 0,-11 3,-14 6,-6 3,7 2,16 -1,19 -3,4 -6,-2 -5,-13 z"
       id="path68" />
    <path
       d="m 2708,1143 c 7,-3 16,-2 19,1 4,3 -2,6 -13,5 -11,0 -14,-3 -6,-6 z"
       id="path69" />
    <path
       d="m 2748,1133 c 7,-3 16,-2 19,1 4,3 -2,6 -13,5 -11,0 -14,-3 -6,-6 z"
       id="path70" />
    <path
       d="m 2121,1104 c 0,-11 3,-14 6,-6 3,7 2,16 -1,19 -3,4 -6,-2 -5,-13 z"
       id="path71" />
    <path
       d="m 2858,1101 c 10,-6 10,-10 -2,-20 -13,-11 -10,-17 20,-43 l 35,-31 29,28 c 35,34 36,37 10,52 -16,11 -18,10 -14,-1 7,-19 -13,-56 -30,-56 -24,0 -41,29 -28,50 12,20 7,30 -17,30 -12,0 -13,-2 -3,-9 z"
       id="path72" />
    <path
       d="m 2161,954 c 0,-11 3,-14 6,-6 3,7 2,16 -1,19 -3,4 -6,-2 -5,-13 z"
       id="path73" />
    <path
       d="m 2622,915 c 0,-16 2,-22 5,-12 2,9 2,23 0,30 -3,6 -5,-1 -5,-18 z"
       id="path74" />
    <path
       d="m 2171,914 c 0,-11 3,-14 6,-6 3,7 2,16 -1,19 -3,4 -6,-2 -5,-13 z"
       id="path75" />
    <path
       d="m 2181,874 c 0,-11 3,-14 6,-6 3,7 2,16 -1,19 -3,4 -6,-2 -5,-13 z"
       id="path76" />
    <path
       d="m 2612,840 c 0,-14 2,-19 5,-12 2,6 2,18 0,25 -3,6 -5,1 -5,-13 z"
       id="path77" />
    <path
       d="m 2191,834 c 0,-11 3,-14 6,-6 3,7 2,16 -1,19 -3,4 -6,-2 -5,-13 z"
       id="path78" />
  </g>
</svg>
