<?xml version="1.0" encoding="UTF-8" standalone="no"?>
<!-- Created with Inkscape (http://www.inkscape.org/) -->

<svg
   version="1.1"
   id="svg1"
   width="1024"
   height="1024"
   viewBox="0 0 1024 1024"
   sodipodi:docname="argonian.svg"
   inkscape:version="1.3.2 (091e20e, 2023-11-25, custom)"
   xml:space="preserve"
   xmlns:inkscape="http://www.inkscape.org/namespaces/inkscape"
   xmlns:sodipodi="http://sodipodi.sourceforge.net/DTD/sodipodi-0.dtd"
   xmlns="http://www.w3.org/2000/svg"
   xmlns:svg="http://www.w3.org/2000/svg"><defs
     id="defs1" /><sodipodi:namedview
     id="namedview1"
     pagecolor="#ffffff"
     bordercolor="#000000"
     borderopacity="0.25"
     inkscape:showpageshadow="2"
     inkscape:pageopacity="0.0"
     inkscape:pagecheckerboard="0"
     inkscape:deskcolor="#d1d1d1"
     inkscape:zoom="1.1455078"
     inkscape:cx="511.56352"
     inkscape:cy="511.12703"
     inkscape:window-width="2560"
     inkscape:window-height="1369"
     inkscape:window-x="-8"
     inkscape:window-y="-8"
     inkscape:window-maximized="1"
     inkscape:current-layer="g1" /><g
     inkscape:groupmode="layer"
     inkscape:label="Image"
     id="g1"><path
       style="fill:#000000"
       d="M 486.5,946.50009 C 320.79598,940.29194 167.78935,829.28261 103.38457,677.56335 38.675607,528.67763 61.062458,343.7395 167.73158,219.62923 256.97031,110.78316 399.53085,47.191621 540.40199,58.469794 705.74479,66.430288 859.06664,176.25567 923.65993,328.14927 1006.2925,509.03007 942.99528,740.49194 782.5,857.01167 c -84.26671,64.28065 -190.39583,95.6258 -296,89.48842 z m 34.95249,-13.68658 C 509.00813,893.2085 513.78613,823.54902 459.45263,818.76896 378.71425,806.4918 294.45201,783.29017 235.95098,722.65706 c -19.49127,-22.05862 -51.60445,-79.19139 -63.2283,-29.83824 57.37364,86.21781 154.8614,138.99294 256.21157,152.8086 51.91401,-1.1607 55.67378,62.70924 66.72542,91.74026 4.91311,-3.35033 29.71359,6.49226 25.79282,-4.55417 z m 16.63221,-6.25 c 4.42874,-39.58576 -29.57477,-88.48087 0.75064,-120.72464 28.0378,-7.27939 37.64909,-31.73988 29.17118,-55.15683 3.90488,20.8802 10.91811,37.49052 15.1621,4.48718 11.90842,-28.30152 -30.43397,-70.57839 -33.69331,-21.32556 -6.73936,17.87986 -17.93308,68.23859 -14.07172,19.23197 13.25805,-39.57424 26.94213,-79.51262 42.30628,-118.30261 27.40626,-39.06616 76.93289,-56.5736 119.13146,-71.16757 -88.89581,-11.97665 -169.75868,50.72619 -258.73483,37.93191 -31.90148,-1.94254 -57.07139,-49.94104 -80.14539,-46.33166 6.09381,25.47914 11.71949,47.6191 21.49301,72.18338 25.5558,7.53382 3.69843,57.78293 40.52373,61.21583 6.07582,35.743 28.81364,59.18809 47.68276,91.58056 29.17311,33.53846 -33.80585,-21.34503 -29.91135,-41.25416 -21.46859,-23.53302 -20.64599,-52.64368 -47.53119,-71.26576 8.86296,-35.51767 -35.14746,-41.15521 -23.96385,-76.59515 -26.22933,-20.10658 3.08753,-52.0629 -30.11966,-68.65792 -28.83237,-46.90524 28.19742,-82.02498 31.04669,-126.09954 8.89878,-22.56837 -14.86839,51.63128 20.5552,25.89454 18.78688,-24.13476 6.4304,18.82709 32.91524,-3.28602 29.66417,-8.17468 -39.45636,14.91565 -1.12342,23.21831 19.97254,7.20398 30.68963,-27.49418 26.72173,7.02399 14.82075,21.63359 48.20279,5.88563 30.56304,-18.01812 0.67122,-1.16566 17.08564,36.17525 35.29826,14.61511 -3.83107,34.51174 36.62184,-14.57202 28.4343,13.65944 18.53638,31.03241 35.1252,-7.33592 33.29126,-8.85668 3.02374,45.26177 -50.93737,5.51216 -71.99934,4.90696 -23.70745,-3.07504 -50.42974,18.14946 -65.72632,-9.44369 -31.54527,7.88369 -37.68361,-35.88413 -68.94861,-16.47731 -20.8455,17.85975 -42.12411,58.6811 -24.08996,87.05763 29.84585,30.69277 62.32719,69.13441 106.62872,76.20309 83.77232,6.77354 158.64258,-48.3995 242.72949,-40.08839 37.08533,1.53862 -6.72189,67.85111 31.82131,33.38945 10.74132,-15.98513 42.98309,-22.53695 28.1736,6.21088 25.17229,-25.80142 51.28671,-22.60859 52.99526,0.72872 12.96699,-16.02421 27.64638,-75.15137 3.09882,-52.20453 17.22557,-14.25535 40.48833,-52.38453 -1.25094,-32.6638 -67.39099,14.2786 -134.05289,-14.42269 -201.86822,-7.10779 -31.50009,-1.67254 -98.69423,7.96666 -109.98829,-6.15248 77.64161,-1.39557 155.99991,-11.85318 232.82871,4.73952 39.18215,1.36726 101.89757,10.78364 126.12187,-19.10033 -0.75101,-44.80683 -14.72648,-92.18226 -51.76528,-120.45323 -14.21629,-17.75288 -63.20992,-66.35029 -61.61456,-17.35729 15.3577,7.87478 53.79557,23.07887 57.0413,33.80193 -19.6218,-8.00333 -52.70875,-41.3766 -68.82659,-18.24839 17.25941,16.60034 69.1717,49.42335 18.81391,26.49997 -17.92808,-5.70995 -67.88447,-17.65022 -22.06749,-10.05867 54.33678,8.36444 -61.95497,-31.65755 -3.14009,-21.3933 50.01722,-22.55426 -69.44583,-80.54473 -43.7079,-24.9171 31.46819,23.52161 -38.70047,-13.13264 -41.7648,-24.51435 -26.18021,-31.42519 -65.06074,-52.89968 -106.65456,-39.9076 -22.40953,3.75339 -86.5928,17.45302 -30.68977,1.03919 39.19447,-9.50362 86.88599,-18.55472 118.24101,14.27014 16.90867,14.28949 63.55934,68.84409 52.76088,18.8934 -14.10024,-7.91061 -61.69465,-36.04279 -22.51537,-16.95649 21.01298,21.63593 80.05717,31.41606 45.9502,-12.58999 -12.61017,-6.93455 -35.23892,-30.91256 -24.6315,1.02626 -3.77406,-31.15562 -60.58152,-54.0365 -45.05511,-20.03386 1.72752,-30.50697 -58.83865,-48.7851 -64.54087,-36.01529 3.67895,38.10236 -4.96607,-28.44329 -29.76246,-14.37966 -24.7326,-7.22158 -56.82046,-7.85888 -44.0465,15.45835 0.15869,-23.68513 -33.17776,-24.7757 -44.26827,-12.50487 -21.32158,44.73271 -85.46402,23.86287 -110.52404,62.73378 -22.6974,14.55744 -39.09751,82.05526 0.5902,46.94811 22.41732,-1.64108 -5.36197,-41.0166 24.00456,-49.64954 14.33555,-13.93407 54.89914,-23.42699 13.90327,-5.15531 -45.26643,18.41101 -21.23515,76.4418 21.94698,44.49176 29.296,-9.83141 -28.88881,22.25579 -43.90732,12.60254 -46.61462,-7.88526 -56.19368,93.84076 -4.5571,55.10879 17.66685,-7.97752 20.72868,-50.27388 27.87931,-12.17474 14.57226,5.96617 65.9118,-17.81259 25.12638,2.44098 -24.69725,8.16667 -37.99277,-11.323 -53.70592,16.83606 -40.08738,29.07141 -44.53687,-25.02262 -36.77512,-48.80263 -6.6247,-39.40657 -25.9341,25.44097 -31.06591,38.07553 -25.92802,82.67239 3.98093,172.66696 -27.16021,253.97219 -19.34021,28.39252 -65.53685,46.28397 -22.46075,79.74551 55.63313,68.41721 143.76927,98.01118 228.41053,109.49231 55.10944,-2.1959 59.9154,59.1881 70.62187,99.09056 -1.06483,10.89499 8.54379,50.34269 13.63883,18.58702 z m -97.37631,-136.75 c -12.87003,-17.81147 -12.67321,-34.71727 0.16927,-6.54709 3.00189,3.45711 8.70172,18.78573 -0.16927,6.54709 z m 67.93669,-5.52797 c 2.59994,-28.44369 14.15878,-56.53393 -24.03962,-63.14355 -15.92043,-5.4452 -54.9516,-49.26252 -18.99996,-18.04923 27.27542,25.8284 63.06471,37.96628 59.02801,-12.2765 -34.02976,-2.58211 -86.14638,-45.96571 -89.21908,-59.62743 25.6425,23.02851 94.74999,90.57553 103.23553,23.69852 -19.76066,-4.89512 -61.87074,-40.30508 -18.20174,-12.38103 27.59945,36.36771 57.12999,-50.06063 58.57063,-29.3038 -30.52149,32.38971 -51.57989,72.06109 -57.92578,116.48757 -4.45649,16.28602 -7.41053,45.39863 -12.44799,54.59545 z M 376,752.62404 c -25.18019,-2.10292 -30.99301,-61.38107 -13.63928,-15.41468 13.63014,27.20905 71.38617,-14.23959 25.62049,14.27241 l -7.94131,1.96674 z m -75.7624,-37.17195 c -10.02742,-24.70523 -36.24774,-21.19949 -45.64035,-44.23613 13.77291,29.08935 42.3883,-5.17116 38.03736,29.80232 5.12519,20.08834 49.01589,4.98851 14.4721,16.43882 l -6.86911,-2.00499 z m 47.22369,-6.76705 c -24.03391,-7.25219 -17.48604,-70.95264 -11.6587,-23.87772 -2.52194,40.96779 74.06525,-0.74184 28.4099,23.75604 l -8.8561,1.88269 z m -49.64157,-45.70111 c -26.45536,-1.87294 -26.01164,-71.16095 -15.93707,-23.97411 -1.16193,19.95536 54.03042,26.38189 15.93707,23.97411 z m 34.80778,-10.88859 c -31.89671,-7.30725 -16.40397,-86.53227 -14.61625,-26.12685 -2.85584,26.38266 60.31723,26.32353 14.61625,26.12685 z M 312.5,588.69785 c -26.65831,-8.95423 -21.51252,-85.5669 -14.22185,-30.32077 -7.49603,23.90457 53.98014,32.4793 14.22185,30.32077 z M 459.42232,567.1451 c -12.73911,-16.67158 -11.98793,-25.88615 -32.41886,-8.81263 -35.30798,-0.42345 -27.65782,-49.0497 -62.93972,-47.71353 -38.3135,-34.30587 79.07433,-76.70321 15.17668,-40.65025 -45.81958,30.5563 17.96972,62.35572 41.69185,27.10676 22.04587,-13.82084 30.26697,-12.24311 4.89607,1.40248 -21.16303,15.15687 44.94723,39.55267 59.29126,19.29211 -30.9032,1.58455 -48.03744,53.85311 -6.71113,42.57079 19.58186,-4.36805 55.95789,-53.37663 45.11663,-14.49554 17.03801,6.89265 40.35656,-13.43167 11.48205,7.05331 -30.68452,-24.35072 -38.24815,19.30986 -75.58483,14.2465 z m -27.57345,-15.27139 c 35.12825,-17.55474 13.36171,-28.97097 -12.62157,-39.21563 -40.33568,-14.20488 -16.84921,50.93952 12.62157,39.21563 z M 576,544.71189 c 12.4105,-15.61724 33.25247,-22.33588 6.80085,-2.7362 l -4.78393,2.67404 z m 191.71288,-7.26126 c 22.69633,-9.95045 44.88926,-10.35703 7.88006,0.47626 -0.0648,-1.77041 -8.37774,3.22277 -7.88006,-0.47626 z M 293.6193,482.46149 c -20.80888,-11.99975 -3.30417,-64.40227 -5.59841,-18.54297 -0.77681,37.41619 47.91631,-21.40165 17.45639,16.13471 -3.46702,2.03408 -7.77304,3.9478 -11.85798,2.40826 z m 536.11619,-35.10136 c -3.76061,-21.46298 -12.41431,-46.6636 2.50031,-11.45546 7.29633,5.48831 -1.68214,33.84902 -2.50031,11.45546 z m -51.68703,-1.25207 c -23.33173,-0.97814 -48.34869,-37.39456 -10.61018,-37.30619 21.13425,-1.45419 45.84092,57.14663 15.00405,20.5262 -27.74371,-6.05071 9.22021,-12.32001 -22.71036,-13.13268 -27.32674,3.15743 61.00178,43.3892 18.31649,29.91267 z m -189.21215,2.45511 c -33.23752,3.94023 21.18501,-32.62068 -4.28404,-4.99966 16.14899,1.18041 29.62751,10.36202 4.28404,4.99966 z m -270.81588,-9.24966 c -14.55709,-11.5794 -0.5306,-30.84634 -26.53447,-21.61131 -19.40153,-15.22801 -2.15084,-64.62033 -4.64262,-19.41209 2.25716,38.52557 47.38294,-17.17942 27.25343,25.78413 1.90903,25.30926 62.30665,3.53257 14.00979,17.48929 l -5.37417,-0.5427 -4.71195,-1.7073 z m 236.69442,-3.85652 c -32.31509,-11.2006 -63.24786,-4.11507 -84.97345,-38.16928 -16.5891,22.72213 -70.44564,-13.32008 -22.32624,4.25384 21.44879,-3.51406 29.49438,-32.40607 31.15333,0.4581 13.90873,23.44289 41.70023,-14.26429 26.31211,19.08665 17.2956,19.45333 45.77264,-28.04354 35.5706,6.03719 14.19376,2.86 50.458,14.00805 14.26365,8.3335 z m 16.18035,-46.39757 c -33.70265,-3.82268 -99.6802,-61.15496 -34.45211,-72.58093 14.32232,-7.4291 74.3423,-11.14471 25.77283,-11.02641 -34.40908,6.99 -113.08374,42.17999 -113.46592,12.49097 39.2302,25.96644 76.96888,-23.14532 118.58552,-17.54708 32.72747,-4.53882 69.87029,44.00742 75.95953,55.78295 -16.62053,-9.37474 -26.47506,-21.80436 -23.72109,3.68093 -27.56137,38.14235 -80.72064,2.47891 -98.94057,-28.27438 -21.19132,25.29169 48.58666,62.1868 78.10176,53.57736 21.05328,-3.70053 53.29557,-11.94822 11.82389,1.8048 -12.74565,4.04369 -26.55261,4.304 -39.66384,2.09179 z m 30.75137,-23.56686 c 27.54665,-17.20414 -14.47074,-65.88845 -4.37464,-17.91357 -14.60268,47.37017 -15.808,-18.45276 -21.34274,-30.35158 -31.47083,-1.71641 -58.32214,16.46428 -20.82165,37.84157 12.6516,10.84787 30.45743,15.9833 46.53903,10.42358 z M 438.0638,273.91402 c 1.52944,-20.61421 -54.04853,-41.72389 -12.30234,-27.11108 9.38265,0.20201 20.93253,38.27755 12.30234,27.11108 z M 514,228.88064 c -16.37269,-3.29358 -70.13363,2.05144 -67.5,-0.86455 9.78226,-9.63075 100.92502,-0.23492 67.5,0.86455 z M 485.26085,929.81351 C 491.57193,871.34365 438.32417,843.20638 387.6848,842.411 297.08144,822.68713 215.67727,766.85747 164.3252,689.66503 c -64.31477,16.20045 -1.21039,65.55589 18.11964,95.62842 74.35732,89.44679 187.13535,145.3253 303.14995,151.27006 -0.11131,-2.25 -0.22263,-4.5 -0.33394,-6.75 z m 74.80932,5.2187 c 28.55079,-10.90326 -13.92226,-70.01402 4.84688,-94.04167 32.60352,-19.69321 61.62123,-58.16135 48.83391,-97.71237 -38.79788,-36.43689 -13.24181,22.41452 -33.03917,40.14947 -31.09403,21.81473 -62.20629,44.37584 -41.79085,87.63587 12.23179,14.74185 -8.3866,73.61456 21.14923,63.9687 z M 600,928.97768 C 660.45155,916.95939 718.61769,891.95315 768,855.02859 736.9802,798.76987 675.72185,772.86475 620.42211,746.896 c 6.90216,42.01524 -20.42132,79.74771 -55.53027,99.83801 8.05308,24.45707 -5.71281,81.88391 23.81315,84.40038 l 5.06212,-0.93602 z M 789.38354,839.89807 C 911.80279,741.29418 972.36736,573.97318 941.69508,419.86266 909.11957,253.17302 772.60226,111.46901 605.21275,77.992182 449.99423,41.663386 278.57059,100.99651 177.78161,224.11688 65.663572,352.95813 46.749832,550.96156 126.24821,700.94973 c 35.06546,-17.60696 69.2748,-42.38078 100.10549,-67.8813 22.76487,-20.35391 31.56125,-72.0928 23.09173,-90.53898 -54.10691,9.58197 49.45753,-95.98791 -19.22052,-59.33488 -33.31464,-22.37049 74.28066,-82.07406 -1.39557,-87.19406 -58.94236,4.0026 18.33955,-49.14153 41.65567,-47.06449 41.28733,-43.49255 -27.21898,-55.27186 -60.66643,-62.46961 17.17651,-30.69069 77.56338,-29.80496 112.44591,-22.51159 9.95116,-22.38035 59.86625,-28.41559 15.73552,-42.22583 -17.42528,-16.20213 -107.42693,-13.35296 -53.20896,-41.72619 52.02806,-28.30866 114.16819,-11.40779 164.42368,10.33663 55.31864,6.83581 -52.50432,-67.69415 8.2313,-53.62359 35.12853,9.61859 59.2246,39.79521 88.61732,57.60664 30.80619,18.29337 -8.11584,-56.77828 29.52523,-23.76747 19.31895,12.78475 54.84836,80.08271 55.48865,30.99 28.1246,24.02362 49.50967,55.60552 85.09866,73.36869 44.14411,36.61792 90.68152,72.19028 126.08724,117.69412 10.03338,31.46417 40.53305,88.73168 3.5343,109.77742 -27.62472,26.18113 -6.14593,90.77118 -49.10634,104.57888 -5.18335,-19.67438 -4.39388,-42.38036 -26.19136,-15.06894 -20.8548,18.75672 -34.8719,10.63091 -24.36273,-12.73008 -24.34819,27.96494 -61.12494,33.31839 -47.61702,-6.10645 -45.58484,14.87488 -99.69245,33.91009 -120.31889,81.15842 -22.39112,34.46191 -8.31579,60.54152 28.79892,73.87318 59.24195,31.61516 128.72922,54.84136 165.34647,115.72326 3.33624,14.06457 11.65935,-2.57467 17.03706,-3.91544 z M 249.76524,534.58362 c 11.57043,-11.6389 4.2286,-48.13685 -4.89918,-12.78315 -2.57857,6.47686 -10.14998,20.83879 4.89918,12.78315 z m -5.48991,-65.66111 c 21.90594,-13.17959 9.09563,-48.68826 -5.96691,-12.58144 -6.4329,10.82499 -16.60913,28.27682 5.96691,12.58144 z m 15.19776,-74.609 c 3.01218,-12.46871 9.66979,-25.94902 -8.28926,-19.90955 57.21374,-38.46959 -73.3274,16.79471 -19.99937,13.56498 8.60398,-2.24377 22.56313,9.90766 28.28863,6.34457 z m 487.43557,-73.7034 c 10.30359,-8.21227 -49.93753,-64.12679 -38.64493,-23.88608 -2.28779,12.44875 28.13632,30.28684 38.64493,23.88608 z m -447.90399,-22.2966 c 46.2685,-47.90583 -47.71353,-29.90281 -73.78427,-19.07075 -0.51447,-8.04611 70.15745,42.49655 73.78427,19.07075 z M 271,282.72403 c 11.8678,-10.76865 45.80954,0.5691 11.28491,0.31807 l -6.12888,0.3768 z m 117.17852,-51.13802 c 29.39986,-0.8519 76.7046,-44.44476 22.41298,-47.36058 -43.47462,-13.8305 -95.29273,-17.68818 -134.3941,9.86763 42.0837,-0.58024 75.19781,39.81986 111.98112,37.49295 z M 390.5,199.93058 c -14.73234,-6.47646 -69.00914,-24.64563 -24.11452,-13.85269 7.27277,-0.78337 53.55996,26.46483 24.11452,13.85269 z m 258.56548,25.82978 c -14.22708,-28.34062 -26.96121,-9.70767 -3.40384,4.64524 l 8.17512,3.63648 z M 603,211.05364 c -11.89721,-17.86751 -56.60046,-66.65168 -35.56049,-14.40463 4.72612,9.91407 26.27942,9.22526 35.56049,14.40463 z M 524.41661,187.045 c -18.86233,-16.13809 -65.15804,-51.18492 -76.07509,-40.09037 15.25083,29.93692 33.32755,51.07472 69.90273,42.98214 2.19184,-2.4742 17.58322,5.06388 6.17236,-2.89177 z"
       id="path1" /></g></svg>
