<svg width="1024" height="1024" version="1.1" viewBox="0 0 1024 1024" xml:space="preserve" xmlns="http://www.w3.org/2000/svg"><path d="m480 958.48c-182.03-11.695-351.06-138.38-409.68-311.65-63.517-177.07 2.0129-387.95 150.68-501.8 166.83-134.51 426.52-132.04 590.42 6.3053 153.67 122.99 211.27 351.67 128.69 531.25-77.31 175.55-268.37 291.74-460.1 275.89zm38.542-7.1683c-13.667-39.537 3.4294-104.59-43.644-122.32-79.664-11.133-168-31.347-217.95-100.53-10.351-32.428-26.982-33.381-51.391-14.134-36.764 18.706-98.986 37.67-44.885 76.238 87.51 104.01 222.61 164.92 358.37 163zm25.156 0.88577c-7.4548-45.34-13.258-91.156-23.84-135.87-36.248-25.151-89.839-16.868-131.5-35.517-50.813-16.173-99.15-46.643-124.86-94.827-43.641 12.947 16.171 60 35.963 77.619 53.509 42.863 123.5 48.907 187.5 64.576 36.505 27.021 23.536 83.102 35.652 122.77 0.21525 7.0831 17.339-0.62362 21.088 1.2427zm17.614-1.1734c13.605-21.25-5.6794-70.13-2.538-100.75-20.718-50.082 38.742-63.366 46.309-104.37 10.132-26.376-28.612-76.257-20.848-21.276 1.157 25.495 1.1032 54.064-5.1927 13.784-5.3618-17.605 6.9582-86.247 0.39857-76.975-9.9272 35.993-40.625 63.336-43.371 101.62-1.3637-44.059 35.246-76.669 42.689-119.04-54.968-27.507-107.24-60.505-155.44-98.625-15.031-31.615-8.3154-71.064-53.765-61.757-22.753-16.671-30.937-22.265-22.798 10.563 7.3856 63.628-0.21792 141.25-61.397 176.9-37.148 23.006 33.335 66.827 56.969 81.988 53.587 30.322 115.98 34.98 174.26 50.666 25.345 42.183 19.052 101.31 33.459 148.61l2.1867-0.21777zm-96.179-214.57c-22.227-52.556-42.746-112.87-53.753-164.78 18.065 55.659 37.334 110.96 55.186 166.66zm117.87 211.75c16.544-34.841-17.27-95.409 8.0935-134.62 31.982-17.326 52.837-60.936 34.159-93.862-39.319-33.131 5.2772 49.871-32.83 63.371-49.89 23.771-21.799 83.488-24.089 126 5.6621 11.314-7.9474 49.019 14.667 39.12zm21.5-3.6895c79.215-16.491 153.84-54.297 214.19-108.14-54.062-47.728-121.73-75.879-184.15-110.69 22.832 59.213-57.797 79.546-47.286 133.52 7.6108 22.074-9.0277 84.613 17.248 85.298zm240.27-132.36c115.53-114.88 158.19-295.76 103.15-449.53-57.68-181.64-241.34-310.58-431.12-307.9-168.11-5.4985-333.61 91.066-411.52 240.17-74.911 139.78-71.608 323.78 24.083 452.83 58.477-34.489 124.42-57.822 176.66-101.96 34.775-37.434 42.821-100.16 29.628-145.48-15.604-7.0027-37.464-35.451-25.049-0.16639 11.053 33.182-5.7168 104.61-24.556 107.36 11.265-19.985 12.261-90.201-2.3768-34.58-23.217 50.394-71.217 85.43-122.94 102.56 35.324-31.843 54.508-78.714 59.375-125.39-12.321 34.403-38.653 61.712-70.603 78.694 32.939-29.44 39.039-75.24 45.01-116.44-2.4465 15.582-54.585 64.38-48.971 51.392 39.227-50.097 31.097-128.08 89.651-164.91 39.089-33.871-36.035 4.0074-46.035 19.266-17.975 4.8902-37.467 61.015-39.093 51.502 0.78158-50.933 47.888-88.595 94.605-97.955-7.8724-38.802-38.713-68.373-50.948-106.05-20.561-26.001 0.10478-39.939 21.549-17.229 25.284 23.512 40.739 22.589 44.07-13.282 32.176-88.882 125.37-146.29 218.68-143.39 76.354-1.3373 160.65 20.277 211.9 80.283 22.566 41.472 40.995 85.202 56.28 130.67 31 40.233-20.528 78.983-0.96869 124.01-13.356 44.132-28.027 85.74-32.949 132.26-15.431 40.188 2.3886 117.79-65.544 106.51-32.981-7.0624-75.139-26.834-55.824 24.002 74.756 52.15 164.64 80.968 232.45 143.05 7.5305-6.331 14.58-13.204 21.403-20.286zm-179.3-154.66c49.961-10.702 22.723-81.099 43.915-116.51 13.26-27.026 4.2011-60.593-21.768-37.648-1.1391 48.243-15.525-31.696 23.414-13.419 29.962-21.102-13.459-71.216-13.585-103.5-11.193-24.071-2.7609-68.697 8.414-36.873 27.603-13.955 60.883-16.511 29.821-51.224-9.8914-41.156-33.216-76.015-47.127-114.07-30.558-41.736-80.306-64.125-129.18-76.405 45.063 19.752 90.351 50.509 108.33 98.336-43.155-77.281-135.9-119.39-222.66-104.06-53.591 6.8334-105.43 32.11-140.79 73.456 81.772-65.784 206.7-74.538 291.99-10.279 21.775 12.113 54.534 60.407 16.652 20.377-77.322-69.436-198.81-75.813-285.69-20.256-21.231 3.5316-72.799 68.39-27.552 33.356 79.165-43.873 184.31-58.861 264.96-10.414 17.25 11.589 28.064 26.399 1.9456 7.0334-78.06-47.169-178.36-33.194-257.45 3.9179-26.871 3.5978-54.251 53.74-45.293 54.317 56.907-55.141 144.23-59.788 218.55-48.843 54.364 13.148-29.699-1.6332-46.839 0.94302-61.554-0.76655-129.63 9.6736-175.12 54.867-8.845 38.731 48.857-17.983 69.176-9.3041 49.026-7.9779 99.107-5.1214 148.14-13.341-67.102 25.369-148.56-0.56896-209.55 43.118 20.458 8.5681 39.134 36.692 62.478 19.597 50.399-13.398 111.17-8.9836 148.7-51.611-31.902 53.42-102.44 41.991-153.82 59.342-5.5856 5.5784 31.41 36.79 49.315 28.069 36.469-6.475 76.898-27.194 97.611-52.911-27.599 29.747-31.691 97.864-57.433 112.05-55.074-59.276-131.56-92.061-197.96-136.59-47.879-36.176 10.261 53.098 20.738 73.835 35.572 55.558 79.157 108.54 135.36 143.98 23.504 9.366 43.298-17.497 41.883 21.807 2.5323 50.852 53.794 69.981 89.358 95.824 44.945 25.405 90.041 58.515 142.55 63.964l9.8056-0.17259 8.7057-0.75972zm-20.232-64.003c22.251-11.186 52.897 4.6055 11.609-0.41928-0.17325-1.7967-21.187 6.0736-11.609 0.41928zm-7.7376-23.845c-8.4417-10.198 86.891-0.67153 28.372 0.75-9.46-0.10214-18.926-0.15521-28.372-0.75zm-46-14.669c27.237-18.204 90.45-31.647 106.69-5.8596-36.033-9.9451-74.699-2.9696-109.69 8.2934l2.0269-1.6444zm-88.5-28.792c12.297-28.438 50.433-70.217 65.753-78.206-24.267 24.051-45.892 50.448-65.753 78.206zm78.134-13.882c11.273-17.322 49.748-63.764 57.232-55.857-10.529 16.203 19.895 52.751-5.7504 22.443 4.8321-48.575-49.278 40.284-51.481 33.414zm108.87-23.402c-18.74-1.1802-55.759-13.557-13.823-9.738 2.3211-0.82788 30.262 15.172 13.823 9.738zm-174.75-24.085c-6.9936-16.793-61.167-52.231-47.566-52.267 16.024 8.9146 60.681 51.519 47.566 52.267zm-123.51-20.763c9.346-31.078-34.857-55.831-21.064-10.357 4.2358 23.427-12.925-27.776-1.8631-36.727-16.153-15.405-42.851-42.589-34.762 0.70465 8.0098 28.3 5.5682 32.255-4.465 2.3341 10.785-30.095-7.549-46.796-33.183-60.188-9.1502 19.001 24.269 78.624-0.76818 35.315 4.0285-45.883-36.702-61.847-65.684-90.654 27.227 14.757 70.365 47.533 101.24 71.307 25.903 20.215 83.627 59.233 60.434 88.736zm276.49-38.779c-12.301-24.486-13.265-37.016 0.33453-5.3739 9.2541 18.228 11.008 33.733-0.33453 5.3739zm-64.231 5.8113c15.25-8.5422 42.35-30.951 14.158-5.248-4.5814 1.294-8.9315 6.2654-14.158 5.248zm-20.5-20.461c-16.748-10.072-71.259-33.739-24.147-36.798 29.07-12.569 95.487 2.0155 71.897 11.286-15.891-17.06-26.299 41.411-46.475 5.2186-3.273-24.828-50.514-1.7381-11.977 9.1723 20.767 11.821 64.422 13.708 10.702 11.122zm57.5-36.027c-38.186-15.19-79.573-43.799-120.35-16.984-14.694 1.8171 40.344-36.535 58.954-25.148 30.506 3.2791 95.959 63.77 94.477 1.3024 12.476 11.289-2.8743 52.255-33.086 40.83zm-126.26-48.544c-4.7888-19.342-9.2128-55.904-0.20551-15.085 1.1822-0.88074 1.9672 29.651 0.20551 15.085zm-319.22 347.43c54.006-27.364 94.47-82.078 97.816-143.43 7.4575 19.956 5.9914 92.708 12.631 40.849 1.4056-25.237-1.279-89.08-16.89-91.193 1.1929 23.292-11.223 87.565-15.046 81.338 2.6293-31.014 15.943-66.448 7.1631-96.288-21.857-39.456-8.9706 42.439-14.59 58.856 1.9167 35.568-19.962 91.946-35.647 106.15 36.894-56.78 27.269-126.1 34.423-189.97-15.979-39.917-48.332 64.528-46.021 46.444-10.649-26.747 52.713-63.625 27.8-70.669-52.244 29.373-59.7 91.807-78.871 142.62 19.677-16.232 46.882-101.13 33.738-37.107-1.7183 26.003-18.454 88.426-17.591 93.32 25.337-21.013 37.012-71.829 46.618-89.501-5.7904 52.833-11.428 108.4-44.228 152.66zm47.924-87.933c17.193-50.126-19.905-107.07 13.078-153.8-17.564 42.563-2.2403 87.899-5.4153 131.64-0.20921 3.2734-7.2257 27.891-7.6628 22.16zm93.361-89.164c2.9587-25.525-55.255-57.64-46.496-54.388-3.102 19.781 49.482 102.99 46.496 54.388zm397.26-32.952c8.7374-22.36 1.3598-65.932-3.3997-77.306-6.7706 36.768-48.087-27.404-23.296 19.528 39.228 13.874-19.091-8.6514 5.2664 23.492 5.5104 7.4122 11.412 78.987 21.43 34.287zm-443.66-3.3557c3.6698-17.743-28.382-72.538-17.739-28.392-2.3908 6.3778 24.046 50.007 17.739 28.392zm-103.42-26.582c18.62-14.393 67.033-42.908 19.56-19.451-16.811 8.1984-56.022 54.626-19.56 19.451zm80.675-5.6956c4.7228-21.4-29.78-63.526-11.438-21.25 2.7287 6.466 7.7699 17.81 11.438 21.25zm155.47-27c12.392-23.482 16.251-40.102-8.3811-12.342-18.475-1.0484 9.2849 32.126 8.3811 12.342zm-12.775-16.379c17.051-7.4002 69.576-79.181 23.335-42.324-21.985 17.197-94.347 14.613-39.692 41.904 4.6538 14.508 11.129 2.5222 16.357 0.41967zm335.25-15.223c8.756-14.866-50.827 14.235-7.1776 8.4795l2.3324-0.4546 4.8451-8.0249z"/></svg>
