<?xml version="1.0" encoding="UTF-8" standalone="no"?>
<!-- Created with Inkscape (http://www.inkscape.org/) -->

<svg
   version="1.1"
   id="svg1"
   width="1024"
   height="1024"
   viewBox="0 0 1024 1024"
   sodipodi:docname="imperial.svg"
   inkscape:version="1.3.2 (091e20e, 2023-11-25, custom)"
   xml:space="preserve"
   xmlns:inkscape="http://www.inkscape.org/namespaces/inkscape"
   xmlns:sodipodi="http://sodipodi.sourceforge.net/DTD/sodipodi-0.dtd"
   xmlns="http://www.w3.org/2000/svg"
   xmlns:svg="http://www.w3.org/2000/svg"><defs
     id="defs1" /><sodipodi:namedview
     id="namedview1"
     pagecolor="#ffffff"
     bordercolor="#000000"
     borderopacity="0.25"
     inkscape:showpageshadow="2"
     inkscape:pageopacity="0.0"
     inkscape:pagecheckerboard="0"
     inkscape:deskcolor="#d1d1d1"
     inkscape:zoom="1.1455078"
     inkscape:cx="511.56352"
     inkscape:cy="511.12703"
     inkscape:window-width="2560"
     inkscape:window-height="1369"
     inkscape:window-x="-8"
     inkscape:window-y="-8"
     inkscape:window-maximized="1"
     inkscape:current-layer="g1" /><g
     inkscape:groupmode="layer"
     inkscape:label="Image"
     id="g1"><path
       style="fill:#000000"
       d="M 479,951.46129 C 305.49703,942.09725 148.79763,817.37293 92.555908,654.33303 38.776704,504.13601 71.746699,326.27004 180.05767,208.18533 296.52739,73.946438 497.49243,23.708878 663.58506,86.842287 840.69512,148.23463 966.3463,331.55296 956.73779,519.25109 953.09652,660.73425 877.22127,796.49539 760.61738,876.07619 678.86443,932.46964 577.94689,958.9687 479,951.46129 Z m 58.57479,-9.13924 C 523.51125,895.93899 518.88304,847.40662 509.00701,800.07195 417.52168,791.28164 321.4965,751.8527 274.23898,668.70273 c -13.75775,-44.93681 -66.72479,13.83917 -98.46482,17.63274 -27.56217,11.50485 -69.16756,20.07998 -31.69141,53.05331 77.9437,125.49122 222.00995,207.85643 370.56587,203.78226 7.64248,-0.15704 15.32125,0.13262 22.92617,-0.84899 z m 25.38822,-1.80338 c 19.77783,-21.14469 -10.7847,-75.83378 -11.88172,-110.73542 0.30595,-45.10753 -19.87552,-77.67358 -68.37649,-71.45564 -74.76072,-13.01369 -155.1399,-52.53366 -182.99334,-127.76334 -58.43257,12.85741 5.14887,70.14977 27.8704,92.18193 50.54469,47.55341 120.70066,61.76164 186.36175,73.38059 13.42773,47.48108 12.12434,100.88755 32.38644,146.11968 5.57309,-0.25554 11.07518,-1.29988 16.63296,-1.7278 z m 34.27107,-5.50705 c 37.09744,-13.45676 4.19053,-80.04174 13.21019,-113.20495 -17.93287,-52.52063 61.33262,-49.0583 65.32082,-98.07511 10.54747,-27.03675 1.80749,-72.05427 -30.36213,-67.91805 18.54268,43.7935 -4.23103,89.24872 -49.78054,101.87987 -28.58816,22.84116 -5.7249,71.88886 -12.37303,105.32329 6.87937,18.09585 -14.07844,81.53803 13.98469,71.99495 z m 40.2476,-10.04782 C 727.96785,899.00786 805.12227,839.10355 862.33541,765.44821 818.8173,720.6831 755.38974,705.62993 701.1527,678.01583 c -35.77044,-20.38461 -2.26278,49.07287 -27.56137,67.46219 -8.07691,28.1305 -54.06274,29.7332 -58.11202,53.40053 2.73328,43.5608 3.07019,87.21907 3.84839,130.84607 6.18855,-0.99005 12.1418,-3.07258 18.15398,-4.76082 z M 573.6895,829.76099 c -4.52919,-40.90159 -4.03454,-85.41264 45.3992,-95.45852 33.16263,-5.91122 25.81622,-89.29692 5.51742,-75.53375 5.18086,18.41004 -7.45939,47.60999 -8.47155,38.02779 -11.4394,15.55298 21.08764,-58.79704 -16.43479,-38.91176 C 555.74375,662.46599 513.94502,642.34064 478,619.60897 438.83589,590.50437 386.98228,566.88256 373.25135,515.56224 c 2.97031,-38.01561 -28.55931,-22.83136 -19.49794,5.88295 0.0676,38.77962 0.11446,89.42772 -42.45586,106.69007 15.75383,58.99483 76.56473,93.15212 131.3101,110.68023 35.08037,20.12026 101.28913,-2.99819 109.11526,48.69384 8.10032,29.15686 15.0575,84.96972 22.15946,98.25648 0.17149,-18.66793 -0.0222,-37.33759 -0.19287,-56.00482 z M 486.96938,728.52221 c -14.83945,-21.50222 -40.07839,-69.50239 -39.94478,-79.84837 12.96988,24.4985 33.86032,64.74004 39.94478,79.84837 z M 566,729.21169 c 2.05416,-20.19726 35.00404,-68.96949 11.79534,-21.42545 -4.48975,6.68158 -6.69371,15.36281 -11.79534,21.42545 z M 398.3437,647.81351 c -9.83024,-15.47737 -16.51068,-65.61532 -5.00693,-22.31055 0.22988,3.99956 9.11065,24.95838 5.00693,22.31055 z M 873.90888,749.32826 C 961.86034,617.54798 973.66673,437.60176 895.79259,298.40581 821.01526,158.0066 665.68414,65.993574 506.4766,69.006314 329.18631,68.906548 160.27519,188.93771 101.92935,356.37736 61.696815,467.3703 68.647998,595.37591 122.46769,700.56351 c 67.47943,-33.43477 138.75037,-59.37182 204.53472,-95.9996 22.21731,-33.01451 15.94216,-75.4453 18.17712,-113.5004 -38.80029,-23.23327 -65.68761,-68.58474 -68.0991,-113.64768 8.2928,-30.35195 26.59102,-50.29654 14.22867,-84.97077 -5.0949,-57.66376 16.16929,-119.92713 67.83907,-150.54129 68.74185,-46.522692 163.06302,-57.616638 239.76024,-24.70569 39.65572,15.06586 61.56453,51.63584 81.62516,86.54169 19.083,37.94674 17.69146,81.96944 31.18556,121.79888 -24.44718,41.79067 11.46772,86.34854 -12.95052,129.42499 -4.68728,54.08296 -4.74342,109.4315 -23.88712,160.89905 -16.07318,20.7082 -27.18304,39.00363 7.68876,43.11203 57.18383,28.58267 120.52334,46.97528 172.0504,85.62169 8.0956,4.3108 13.2116,21.76803 19.28823,4.73185 z M 587.61285,648.04108 c 19.91899,-8.43103 11.86203,-65.47586 15.09265,-17.48562 -2.26862,12.37361 -9.94685,25.05745 6.86255,11.85154 -6.86855,32.51088 42.47532,-21.44373 34.33221,-27.85075 3.74244,14.81317 -17.30107,43.65864 9.40251,23.96178 14.70655,-19.73245 1.99705,-73.3438 15.65293,-29.45452 5.39435,-24.42654 18.38338,-79.83032 -4.9999,-88.90103 -18.89499,-30.54651 20.02346,24.98662 2.39994,-15.59692 11.11944,5.26056 18.78131,74.61714 18.52189,24.89785 -7.86969,-47.56278 20.2264,-91.98749 11.6868,-138.01198 0.18466,-33.09224 -26.17544,6.30657 -7.96834,-24.3611 -7.83585,-24.03652 -29.19689,31.9149 -41.42586,-5.03039 26.61633,19.02687 -22.41656,-24.30017 -18.11479,11.3292 15.02167,30.21161 16.95669,65.55236 25.72859,96.03946 10.93693,14.49935 28.83327,59.93008 7.3771,22.32791 1.14876,-43.14909 -41.78763,0.37065 -27.66113,-14.53841 -12.28197,12.9648 -45.66732,-6.76789 -8.93654,-3.09682 38.4606,-24.81955 -0.58194,-78.84865 -9.96346,-112.85382 11.69017,-13.98659 1.48175,-66.23231 18.6869,-31.97508 20.35553,-3.63586 52.91186,-17.07345 65.84403,-13.58342 -14.40177,-46.21399 -11.65967,-99.4592 -46.50255,-137.2151 -14.5315,13.89195 -64.44903,42.10569 -32.73201,2.662 -1.48997,-18.46098 -13.4666,-42.7308 2.22972,-13.59235 -1.72408,29.27074 14.70753,24.45149 8.40708,-1.48901 -12.31002,-48.89656 -77.18563,-55.48263 -120.21463,-58.61446 -75.44633,-0.57636 -161.99023,28.36763 -198.03825,99.41959 -15.0265,39.6925 -16.87912,87.30989 -7.55767,127.20777 26.78937,-7.54551 55.65067,43.42862 52.02901,-2.67933 0.13269,22.42935 13.70625,86.92862 23.81182,31.71847 -7.03264,-10.28689 5.61825,-26.73891 4.86817,-52.56303 -22.6954,28.15755 10.9588,-39.01754 6.00159,-13.07625 12.19826,-17.28225 10.45484,-59.07355 -3.03005,-42.64194 12.91184,-21.53289 22.23219,-83.08701 -17.61999,-72.7274 16.17747,-7.90482 90.02495,-16.77977 39.71682,-20.80992 24.46319,-5.91729 75.19843,12.94176 77.95944,8.65425 -11.36594,-9.11229 -73.24189,-33.77629 -27.02303,-18.91575 19.72827,2.59555 73.03838,44.46979 67.34786,27.51701 -14.33832,-16.042 -75.02366,-64.18833 -25.41514,-29.29348 9.22549,10.8865 39.25593,39.46163 14.81239,11.88747 13.59581,17.89632 65.96386,41.46179 27.864,8.65689 -44.4834,-45.99148 49.99573,33.37005 31.01613,30.62722 -33.89292,-16.56789 -75.5983,-13.68826 -111.75524,-26.79898 -23.35012,-4.04616 -87.84012,-3.51935 -60.67372,31.16232 -8.44644,31.05367 6.35273,61.63061 -5.82759,92.02169 -23.1258,24.61172 3.71849,98.68095 -37.49026,94.42008 14.74615,-2.40552 -35.24365,-69.75179 -66.42157,-40.65177 -26.79725,41.81133 8.644,94.60104 40.12551,123.69545 27.63565,30.647 35.04475,-11.37259 38.33149,-13.14369 2.51952,12.36904 -0.40018,32.56852 6.58205,21.33489 -2.01858,15.91768 -3.12039,25.0901 7.70659,7.58191 -11.6194,21.41637 4.57311,71.8365 4.80265,22.27492 10.71555,-30.04633 -3.9072,56.01174 15.41096,43.66885 0.67277,-43.48758 -0.72389,-1.59601 11.11095,13.55623 2.04385,-16.81402 7.58529,-46.35817 5.54596,-11.19644 3.64764,25.59594 36.93039,49.19295 19.61571,6.86512 1.90874,-22.32788 12.27062,-41.83566 4.82223,-8.2777 -11.12207,27.03902 42.18707,72.8821 46.2611,58.34083 -20.36021,-49.64923 42.19792,57.49928 18.87332,1.5261 -4.63031,-48.3311 3.976,23.80451 27.21968,25.92977 21.08499,13.39602 -9.7722,-41.6142 8.05389,-43.18768 -7.27851,22.56538 8.64292,61.35593 37.2575,48.47757 z M 641,642.12253 c 16.19665,-41.50048 17.32307,-16.23632 0,0 z m -61.99684,-10.30479 c -4.19286,-21.89689 0.89931,-32.63766 1.0945,-3.23444 l 0.64235,5.31757 z m 42.0207,2.05479 c 2.50969,-15.977 2.98287,-51.86854 4.88281,-15.07053 1.00126,-1.25958 -2.35141,18.24467 -4.88281,15.07053 z m -89.63268,-18.90548 c -1.7839,-29.22478 1.92256,-17.51587 2.10313,3.1942 z m 132.23911,-31.65354 c -2.65505,-10.06632 8.02198,7.51171 0,0 z m -159.06194,-3.75 c 6.99221,-21.73773 41.00547,-81.51229 43.09741,-73.5 -23.81672,38.10753 42.80935,-3.3562 64.22006,9.59132 23.40472,-2.74272 47.90744,11.8043 27.1749,-20.73591 17.98396,21.31497 36.55609,76.12408 10.43884,31.53721 -38.15973,1.47114 -92.48857,-10.0088 -121.04052,15.48079 -8.19609,12.38611 -14.90216,25.78539 -23.89069,37.62659 z m -35.76323,-2 c -6.94301,-22.79453 17.6244,-62.03572 2.07443,-17.82539 l -0.77006,8.82539 z M 573,573.53389 c 9.7427,-29.153 96.70443,-2.97055 40.14176,-7.20173 -8.52089,-6.11493 -49.10971,12.51667 -40.14176,7.20173 z m -80.07137,-14.22038 c 7.14315,-25.65993 48.62292,-64.96768 17.71819,-22.73338 -6.33667,5.97982 -15.30056,20.84568 -17.71819,22.73338 z m 80.07615,-3.19625 c 15.61929,-13.79935 -7.8797,-15.76324 19.78157,-10.8341 18.80734,2.52613 41.16503,8.74243 41.64463,1.0139 31.63817,-31.25499 -10.43392,20.35246 -33.98755,5.82398 -9.97285,0.47693 -20.58927,-6.65361 -27.43865,3.99622 z M 573,547.56351 c 2.56315,-3.70389 3.84426,3.58521 0,0 z m -63.45776,-31.25 C 524.90409,493.02606 550.57331,444.89896 568,442.19808 c -28.35377,19.27126 37.39739,46.44908 -11.09079,24.45649 -13.99279,2.46733 -37.88333,40.51539 -47.36697,49.65894 z m 49.73416,-5.75 c 8.42567,-26.82045 18.67487,-22.19031 0,0 z m 49.92683,-12.50238 c 3.55891,-44.44754 3.02049,42.40499 0,0 z m -26.17143,11.31633 c 5.28674,-25.18546 10.62909,-11.89035 0,0 z m 45.63671,-6.3841 c -2.14841,-38.28558 5.14593,20.21083 0,0 z m -159.10949,-4.92985 c 3.33806,-19.26916 16.84287,-54.67413 6.40703,-16.34498 -0.60578,1.90251 -6.68921,23.85165 -6.40703,16.34498 z M 440.9877,471.63579 c -7.54432,-13.1561 -70.03861,-92.99194 -49.16355,-73.50107 16.31383,25.18287 50.42073,57.96929 53.01596,79.72922 z m 141.2623,2.2384 c 7.74545,-1.55621 1.48708,1.60847 0,0 z m 15.25,-1.56375 c -46.81762,-3.46118 9.00889,-16.44785 13.19424,-1.21533 l -6.42827,2.43363 z M 352.21057,442.02548 c -46.40648,4.52567 -33.12379,-45.38416 -23.60356,-65.35825 -11.95406,-1.84818 -23.65524,18.57797 -8.7376,-7.12565 -42.47866,-21.29968 5.17221,99.30997 -22.95616,31.41318 -19.23538,-36.82819 25.78059,-59.32064 42.99728,-21.22543 12.47662,16.75841 4.487,49.35163 12.30004,62.29615 z m -7.6517,-8.9034 c -7.86515,-10.95134 0.99044,-66.42302 -19.2998,-28.85594 -6.72143,13.01726 2.58571,34.75956 19.2998,28.85594 z M 527.8877,407.90096 c 14.95541,-9.89644 38.65474,-33.41117 13.95617,-5.6382 -1.21959,4.47654 -32.62418,16.02091 -13.95617,5.6382 z M 660,408.64911 c -16.554,-13.58272 -27.23418,-27.49312 -4.17307,-6.64009 -0.0807,-9.83717 8.39059,12.23156 4.17307,6.64009 z M 491.8148,388.52867 c -14.4611,-10.1655 14.00634,6.79457 0,0 z M 515,383.67192 c 11.67212,-6.40963 30.39304,-0.43514 7.22725,0.85825 z m 83.29787,-3.35841 c -19.1389,-23.63893 2.07055,-16.19165 3.94383,2.25 z m -83.53685,-6.81243 c 0.88986,-24.19403 -45.16057,-11.7765 -16.18956,-1.17569 -9.9669,-11.60757 -70.69364,1.99643 -27.83263,-9.95496 21.4416,-14.0801 61.44163,-11.52359 76.76117,-9.23892 -22.42111,-16.34518 -81.05753,8.17573 -81.03438,4.50004 16.54539,-15.15533 77.50067,-16.73341 71.53438,-14.92152 -24.59208,-21.42013 -70.65754,-7.15842 -85.56143,-5.05817 31.76281,-43.41224 84.185,-13.18594 125.7309,-8.65712 20.02677,-4.57917 21.46077,-20.75235 17.49202,9.50001 -10.8406,28.6161 -57.08222,0.0238 -41.23037,21.45607 11.51236,19.07814 -36.59095,17.51822 -3.20606,6.58902 -13.61015,-22.86702 -13.57587,24.26709 -36.46404,6.96124 z m 6.23628,-3.84808 c -13.15815,-24.87877 -20.98609,0.62676 0,0 z M 638,372.21688 c -20.56075,-9.05247 17.40827,4.15221 0,0 z M 373.61993,348.56351 c 7.38007,-24.37341 -2.2437,15.199 0,0 z m -40.26223,-46.5 c 3.01156,-32.99759 4.91949,-8.05558 -0.0378,9.45819 l 0.0378,-9.45819 z m -17.83967,-10 c 0.582,-28.05274 4.23591,-1.88586 0.0645,9.86323 l -0.24445,-1.04041 z m 44.03398,2.12602 c -2.38868,-15.02433 6.24518,-47.54128 2.28803,-15.43461 -0.89556,3.04702 0.0889,16.48216 -2.28803,15.43461 z M 575,275.46868 c -59.04613,-8.1151 20.54602,-1.78807 37.19216,-3.66336 23.39703,-1.07982 41.51077,1.11435 6.91583,3.37108 -14.67699,0.81362 -29.42843,1.313 -44.10799,0.29228 z m -197.58181,-6.19811 c 0.5315,-18.7035 26.51946,-60.05651 8.36597,-20.20167 -2.68664,3.42568 -10.59147,36.44927 -8.36597,20.20167 z m -51.96005,-21.20706 c 8.35888,-24.50819 26.28713,-40.15988 4.95507,-6.5 z M 360,248.83572 c 6.02579,-16.16118 31.93155,-54.6089 11.15945,-16.87288 -3.73973,5.55092 -6.48177,11.96838 -11.15945,16.87288 z m -46,-4.07804 c 4.89747,-23.62526 5.49432,-1.99383 0,0 z m 41,-3.6002 c 11.83944,-36.6405 11.54592,-16.27534 0,0 z m -36,-31.13381 4.63952,-8.15397 -4.15984,8.69381 z m 282,-5.38785 c 9.27803,-18.33094 -0.89938,-68.70158 8.14111,-22.91744 0.19549,7.58168 2.55084,21.23868 -8.14111,22.91744 z m -7.28983,-2.26848 c -11.78759,-11.39161 -16.96674,-55.57757 -43.64768,-68.19965 27.31505,-0.96228 42.68459,67.42339 43.88501,57.89582 -0.24964,-20.15701 7.50001,17.88499 -0.23733,10.30383 z m 40.03607,154.69135 c 13.73615,-17.91869 89.29399,7.9518 40.50333,-9.47239 -8.03559,-9.38631 -70.66538,20.36599 -40.50333,9.47239 z m 64.8614,-14.02178 c 10.37839,-27.96885 -67.53848,5.80807 -16.81093,1.91547 6.46313,-2.95872 15.65126,15.51841 16.81093,-1.91547 z M 641.64836,180.74513 c 14.99625,-2.86782 -1.18192,-25.32655 -2.17485,-21.39298 -15.02763,-31.7887 1.09887,31.27337 2.17485,21.39298 z"
       id="path1" /></g></svg>
