<?xml version="1.0" encoding="UTF-8" standalone="no"?>
<!-- Created with Inkscape (http://www.inkscape.org/) -->

<svg
   version="1.1"
   id="svg1"
   width="1024"
   height="1024"
   viewBox="0 0 1024 1024"
   sodipodi:docname="khajit.svg"
   inkscape:version="1.3.2 (091e20e, 2023-11-25, custom)"
   xml:space="preserve"
   xmlns:inkscape="http://www.inkscape.org/namespaces/inkscape"
   xmlns:sodipodi="http://sodipodi.sourceforge.net/DTD/sodipodi-0.dtd"
   xmlns="http://www.w3.org/2000/svg"
   xmlns:svg="http://www.w3.org/2000/svg"><defs
     id="defs1" /><sodipodi:namedview
     id="namedview1"
     pagecolor="#ffffff"
     bordercolor="#000000"
     borderopacity="0.25"
     inkscape:showpageshadow="2"
     inkscape:pageopacity="0.0"
     inkscape:pagecheckerboard="0"
     inkscape:deskcolor="#d1d1d1"
     inkscape:zoom="1.1455078"
     inkscape:cx="511.56352"
     inkscape:cy="511.12703"
     inkscape:window-width="2560"
     inkscape:window-height="1369"
     inkscape:window-x="-8"
     inkscape:window-y="-8"
     inkscape:window-maximized="1"
     inkscape:current-layer="g1" /><g
     inkscape:groupmode="layer"
     inkscape:label="Image"
     id="g1"><path
       style="fill:#000000"
       d="M 476.41101,952.11564 C 303.60329,939.86121 145.61768,817.68696 90.236335,653.59662 23.728351,470.72244 87.205595,248.91071 244.37048,132.90341 387.55805,21.664633 598.98479,14.117732 751.16627,111.77215 c 152.03666,94.29591 232.7817,283.67536 204.53905,459.05191 -23.86789,178.19473 -165.39893,333.0187 -341.30728,371.16829 -45.10723,10.96452 -91.806,12.86547 -137.98703,10.12329 z m 33.13198,-31.78352 C 497.59625,883.21934 510.0741,824.7213 471.94868,804.8964 365.49614,787.88508 258.28455,737.13893 194.04603,648.07472 c -19.32763,-12.28165 -62.14002,26.04752 -82.07947,36.86692 62.08978,140.12668 200.84915,242.37295 353.78558,257.27712 20.50678,-3.30841 61.29036,19.057 43.79085,-21.88664 z m 45.61274,22.46073 C 549.57058,892.30072 544.73873,840.55587 528.45237,792.19674 507.68775,744.25698 444.16327,755.19725 404.3216,733.97251 336.69659,709.14458 273.34601,669.30076 226.79454,613.78205 c -28.70777,12.61406 -38.31275,32.34302 -7.81404,53.8064 68.38748,75.20423 166.33571,115.83737 264.84191,132.90405 30.97277,33.74613 23.80877,87.30689 34.21837,130.07101 -4.30378,24.18056 23.79284,10.89195 37.11495,12.22934 z m 14.38943,-18.10055 c -1.07011,-48.58085 -7.11245,-97.00282 -7.12246,-145.56843 32.80125,-22.93912 30.84718,-59.9748 29.59894,-96.52223 -13.11538,15.46731 -54.29873,88.48556 -28.90498,31.1002 4.94917,-24.11632 54.43879,-46.5055 21.95758,-66.52015 -7.27758,-7.27958 -21.27144,-32.14277 -17.61535,-7.61818 -24.06051,-14.28225 -73.42555,-40.34561 -80.45887,-36 6.97237,36.16389 -78.92418,-53.20123 -54.01746,-1.75 -24.78308,-2.60975 -48.66086,-44.05475 -46.99946,-14.24163 -27.69758,-10.32256 -51.17334,-77.65789 -44.74319,-70.87453 -3.38162,24.38855 -9.76453,40.27388 -14.76004,7.27922 -11.22753,-13.7266 14.63227,-71.88547 2.00261,-61.37875 -39.87815,44.75408 -1.80178,-48.43869 14.44007,-65.17025 -0.54621,-4.45616 -37.38822,27.86114 -16.34712,-3.90209 8.38066,-27.7492 62.2548,-48.28726 10.84218,-55.9651 -13.15879,-10.81067 33.55946,-8.28918 7.42257,-26.3296 -10.02554,-16.42578 -8.8565,-66.80119 -26.24158,-26.26667 -5.42292,9.403 -40.85278,64.93151 -13.11736,33.60297 33.10151,-33.51766 -13.38025,36.37805 -13.71278,52.99952 -24.60949,47.23189 40.72899,-40.53624 13.67611,7.12431 -12.18248,26.35972 -37.56609,76.0313 -37.62083,88.64174 9.95039,-14.16832 35.24588,-40.22327 16.09509,-6.06643 -7.65569,19.58687 -32.47465,80.87645 -25.37392,74.59246 9.21604,-17.45391 35.25761,-51.21367 15.42898,-11.54345 -7.96221,21.68053 -32.83687,67.42705 -26.43359,75.71976 37.42221,-19.1899 -33.92458,18.16569 4.80496,29.30346 64.54846,67.42589 153.86692,103.0855 243.42204,122.72427 52.06962,17.3211 49.63321,82.29535 58.89154,126.54862 -0.62219,-3.68986 12.46986,109.03465 14.88632,46.08096 z M 486.30454,717.28982 c -14.77672,-30.24076 -33.72073,-60.52358 -39.49833,-93.72631 14.59204,30.68091 45.95751,84.83388 45.50246,104.23598 l -2.77164,-4.65785 z M 370.27387,659.06351 c -8.79612,-19.22259 3.07421,-51.91009 1.59511,-12.87665 -2.36901,-4.91114 2.5246,20.97848 -1.59511,12.87665 z m -26.43756,-15.75 c -7.02716,-19.70386 9.27237,-57.06784 3.85579,-15.45039 -0.93141,2.83847 0.36222,29.56756 -3.85579,15.45039 z m -22.39912,-17.23309 c -5.40548,-21.23869 14.12044,-54.32058 4.17849,-13.7109 -1.2114,0.0197 -1.67658,25.15496 -4.17849,13.7109 z m -19.99405,-15.91189 c -2.75328,-22.39865 18.24056,-46.78114 4.83359,-11.21935 -1.19088,0.80993 -2.75215,16.39326 -4.83359,11.21935 z m -13.54446,-22.35502 c -2.04759,-21.11124 22.13997,-47.84405 6.32056,-14.54391 -1.71573,-0.6774 -3.89904,17.37278 -6.32056,14.54391 z m -11.28387,-26 c 2.11921,-19.59206 23.39821,-46.77076 7.30713,-9.98293 1.06132,-0.12189 -9.27399,19.82293 -7.30713,9.98293 z m 316.59973,375.75303 c 25.49736,-25.40146 -1.45273,-88.50659 4.92619,-128.22126 25.6309,-29.85497 43.20489,-74.19391 1.21135,-102.98982 0.25942,22.17498 0.76656,59.66769 -29.57407,72.43689 -1.2204,52.72016 7.40003,107.27764 7.48735,160.77116 5.3822,0.27873 10.67937,-1.24873 15.94918,-1.99697 z m 33.53623,-7.50823 c 66.57827,-18.32509 130.72726,-51.3299 180.34131,-99.50924 -20.41343,-61.00662 -88.65578,-78.74254 -139.38961,-107.02723 -18.50152,-7.25924 -94.64055,-55.08097 -51.60945,-9.76079 41.54854,34.57408 -1.96003,73.00686 -10.84545,105.85088 5.46376,35.88922 -2.00201,86.82517 11.83212,112.91828 z M 826.57676,813.34352 C 955.6103,684.38351 987.94307,474.51778 911.29369,310.09526 851.06695,172.44824 715.67467,72.794629 566.53014,55.688878 415.07603,35.536266 256.29873,102.01287 164.98544,224.65793 68.295521,350.64258 45.822617,528.07844 107.47348,674.37033 c 44.50155,-17.96222 84.74975,-45.74285 123.83775,-73.39456 7.11391,-7.71644 29.31582,-57.53541 11.4024,-38.41226 3.18342,-25.84112 22.58797,-67.39516 22.93727,-82.42812 -35.92708,49.94406 -1.44554,-28.78479 5.4681,-44.96111 6.87983,-17.1379 30.41121,-57.98253 3.16518,-20.83466 -9.40488,-6.41681 23.59796,-71.929 19.46144,-73.39512 -30.37087,30.84673 8.22175,-51.31579 20.63083,-65.98313 31.97435,-28.65791 2.6699,-75.99077 20.68965,-112.34631 4.37166,-33.73374 36.59718,-89.761142 60.93593,-33.88784 18.84318,22.79018 39.21851,44.23654 59.23613,65.98339 20.12739,-4.69363 73.39624,11.35334 34.50753,-13.1471 19.28116,-9.47555 83.54152,34.63532 51.13617,-4.43137 -15.20498,-25.95991 40.91384,24.35972 40.74337,-14.20593 11.45734,-26.03769 28.70241,-89.178289 50.8013,-32.82956 12.44936,18.71847 21.47674,72.98974 25.85122,71.11869 3.62523,-16.49524 21.91429,-52.34028 10.33475,-13.33371 -15.81996,18.56805 0.80777,89.88874 18.11576,41.06929 12.93384,-10.99975 -22.8202,35.91397 8.02477,41.00219 12.92923,5.46848 25.78065,39.36386 38.66494,27.67559 15.33029,-17.35389 28.48005,-24.03588 6.20374,1.73651 -18.92044,20.16349 41.84281,20.24537 12.0662,43.94257 -20.88826,31.60872 1.07787,51.05088 11.64207,79.77674 -6.77098,33.8648 4.35088,81.6437 48.53203,56.80477 57.03792,0.63349 -76.26682,5.20698 -23.86201,30.29815 20.92883,0.4237 71.10008,33.65037 24.33572,13.55716 -16.56641,-14.59648 -58.28226,-9.83316 -27.93209,10.73221 19.56302,9.52412 45.24029,42.77435 11.86742,15.13457 -28.47755,-37.98508 -56.18159,28.67728 -51.70892,52.22986 15.60709,16.22896 0.45636,76.21075 -14.14946,56.71774 -10.49711,24.86145 -34.99059,69.38913 -57.90877,26.44278 -22.65553,-37.04541 1.68105,36.12948 -27.0522,-5.79533 -13.57432,-20.94555 -17.45519,-33.06811 -15.41894,-1.64294 -11.50102,-19.27897 -36.92284,-17.2597 -25.32428,7.20846 56.04395,27.43634 113.92854,52.38863 166.56655,85.97904 23.75723,2.37206 36.00748,73.13923 55.30173,42.59253 z M 710.25755,678.6631 c 16.80651,-9.80756 14.38248,-69.78168 28.27327,-28.09959 18.70278,-38.92723 -14.97411,-84.70422 -57.4088,-61.24645 17.76883,-21.87633 81.59865,11.55946 54.97431,-33.97487 -40.7414,-4.92397 -85.46167,8.77896 -120.09446,30.94738 -21.45409,34.69492 -8.75823,-32.16594 -8.00187,1.69876 28.97418,-31.85812 75.1001,-31.25156 112.11985,-47.03328 22.7623,-31.81439 -15.65333,-48.66088 -40.08246,-53.11148 -22.23267,-18.43554 -14.02595,-27.60741 4.32932,-5.2918 -5.6483,-50.38943 98.85474,3.43775 53.36525,-47.5046 -28.73177,-26.93303 -48.08621,-68.62671 -33.16557,-106.2506 1.1813,23.64443 -1.2499,48.63126 17.86592,15.74356 24.8028,-8.25648 19.60137,-36.61994 -2.96565,-29.43843 5.71653,-19.177 -29.66572,-31.60948 -38.09362,-48.12793 -11.29241,-4.35962 -13.98114,29.2457 -10.90032,-3.82783 -0.0526,-16.13326 -59.28039,-64.81592 -38.15988,-29.58016 0.27135,18.02124 -39.52726,-31.29285 -56.40929,-37.74293 -17.89289,-14.31363 -28.23903,-17.548 -10.91335,4.62863 31.46979,41.50016 -79.91192,-39.41917 -36.53041,7.39806 -3.89263,5.82221 -94.58617,-24.83684 -47.6038,13.80605 18.00037,14.39625 28.99963,29.96595 1.64401,10.04923 -41.74593,-36.36972 -76.62177,-79.88288 -113.34614,-120.93242 -37.28948,47.00181 -38.38827,114.74864 -25.54685,171.21327 2.77044,20.38169 29.9157,49.83525 8.36136,53.49404 20.08026,7.9062 76.53059,-8.65454 27.26821,14.05968 -20.73656,10.04142 -61.33881,56.04641 -16.72653,26.16941 2.49981,12.48329 -44.30341,66.06535 -37.25491,78.8962 12.62765,-13.51534 37.30212,-37.86549 19.76622,-4.54149 -7.57179,8.61945 -18.41828,84.03123 -8.12866,58.5 6.72023,-20.93744 18.68002,-41.67547 14.31802,-5.62824 -1.04346,36.5213 27.56808,80.62641 33.72327,51.14188 12.87947,18.00388 49.08368,57.09892 32.88474,9.42141 9.46957,2.59461 71.00076,61.14153 52.4376,19.97935 2.11472,-14.83305 64.64588,42.15742 65.50591,26.30717 -12.06715,-16.62341 -10.59006,-36.2367 2.44842,-8.21233 10.97959,20.16863 29.38308,34.75519 18.71303,0.47393 -0.22867,-19.47164 43.3796,75.18905 33.09135,15.55311 2.18528,-4.21224 33.00901,65.55071 32.78278,36.24662 -2.18117,-22.66146 3.81707,-61.86688 8.96435,-16.34576 5.82912,18.96857 28.11971,58.45547 20.55991,15.58445 -1.78894,-29.68611 47.80505,77.91838 37.17408,19.05568 4.14473,-47.39347 2.399,54.7968 20.76144,6.52232 z m -36.64851,-41.22104 c -2.43711,-24.05545 8.15071,-33.82956 3.46215,-3.3844 -0.16249,4.08953 -3.76671,11.79209 -3.46215,3.3844 z m 21.97868,-10.12855 c -7.07061,-34.61039 9.62152,-5.61702 0.96892,5.934 z m 17.51045,2.5 c -6.94396,-16.99594 1.55803,-23.78048 2.64239,-3.7366 l -0.57051,7.4866 z M 565,575.69375 c 7.99576,-14.52127 72.38916,-34.75433 62.35916,-25.19575 -21.01072,7.37448 -42.00623,18.20515 -62.35916,25.19575 z m -3.60001,-24.53026 c 13.81657,-35.54999 -88.95463,18.95224 -41.96466,-8.5014 19.11683,-2.80641 62.83189,-14.75705 45.55874,-33.88045 -15.91065,3.69957 -58.97374,12.2604 -17.51543,-1.27528 33.39133,3.92047 49.70395,-47.8827 73.55168,-44.50325 -17.13228,11.34849 -59.05037,45.37089 -16.14637,37.19458 19.4796,-1.80761 47.18435,4.64403 11.20889,4.49007 -24.40651,-16.17835 -70.74338,31.74864 -26.37195,22.42651 24.77048,-3.10629 80.85289,-0.14249 24.88172,2.78343 -19.94306,4.41384 -52.01128,-2.76545 -53.20262,21.26579 z m -87.2417,-13.466 c -4.42824,-20.67622 10.6662,-35.80299 3.24,-5.38398 l -1.36899,9.25 z m -44.70517,0.43482 c -11.34441,-17.34624 -3.66266,-43.08666 1.20177,-8.20578 -0.32607,1.91884 6.35117,16.46023 -1.20177,8.20578 z m -46.47625,-4.8188 c -12.1468,-30.031 3.50905,-23.9581 2.97099,3.14731 z m 275.61287,-1.37675 c 4.16156,-12.6562 9.82899,5.38635 0,0 z m -3.95137,-23.87325 c -0.17275,-14.39599 14.528,6.07879 0,0 z m -145.6096,-16.07566 c 6.73274,-19.43594 44.91786,-35.0494 13.01409,-9.45685 -2.22414,0.88224 -14.29892,17.46512 -13.01409,9.45685 z m -20.00681,-7.67434 c 7.98594,-23.34477 27.18798,-25.89991 3.72594,-1.99825 l -2.94405,3.24825 z m -18.64909,-8.86697 c 18.66617,-50.52134 8.61211,5.44385 0,0 z m -22.59352,1.36697 c -1.66651,-18.78993 24.52815,-40.41019 6.26882,-9.96087 -2.54729,-1.77111 -2.47234,16.54397 -6.26882,9.96087 z m -25.76457,-3.3 c -1.62599,-25.28074 38.0956,-57.68758 9.0484,-15.42994 -1.84278,0.23797 -7.96878,24.73836 -9.0484,15.42994 z m -23.58851,-4.57078 c -4.07517,-20.74837 36.02336,-70.7094 13.8096,-27.00629 -3.0972,1.82707 -14.29387,46.12065 -13.8096,27.00629 z m 274.43542,-28.1553 c -19.78966,-22.63516 -9.93102,-26.66439 3.50985,-1.74059 6.00074,4.25663 5.00106,15.38973 -3.50985,1.74059 z m -286.37988,-2.72392 c 2.97144,-20.374 52.03206,-49.62039 17.49059,-17.37678 -2.60169,1.14468 -20.45785,26.62637 -17.49059,17.37678 z M 592,434.11697 c 17.52869,-16.25784 47.32076,-38.2774 16.82035,-6.00944 -4.71466,3.15517 -10.75486,7.91775 -16.82035,6.00944 z m -25.20965,-18.85626 c -17.64869,-15.19555 -78.51278,-64.12413 -22.65833,-52.60722 37.88903,-5.2014 85.93348,5.59712 95.25667,45.84564 -24.33176,-32.46926 -64.81664,21.02445 -88.31958,-24.05749 -32.74493,-34.18794 7.50544,25.78867 21.81964,33.01501 z m 35.54149,-19.51498 c 22.84693,-10.03509 -4.96834,-23.06107 -12.04526,-3.52377 -5.94821,-10.7519 -30.10708,-34.0931 -36.95386,-15.42277 10.6732,15.90585 29.93706,27.02812 48.99912,18.94654 z m -215.3862,14.91935 c 11.25968,-23.13302 69.85522,-45.27312 23.9757,-15.66046 -6.20409,3.32176 -20.83471,17.75105 -23.9757,15.66046 z M 666,399.63632 c 7.01611,-15.71447 50.02221,-10.32457 13.41685,-4.52291 -4.12922,-2.51834 -9.69897,8.70557 -13.41685,4.52291 z m -19.60596,-10.48833 c -2.12638,-20.65155 19.13177,5.62354 0,0 z m -12.22603,-14.15078 c -39.92916,-22.24829 -77.48594,-57.67406 -122.67841,-22.43057 -23.20961,10.3312 -30.68942,6.34307 -2.26983,-5.29553 21.7127,-8.69235 51.85325,-21.82324 10.19385,-18.85095 -7.25425,-10.66821 67.81272,-7.3838 83.20797,16.76515 17.23062,12.87266 46.25294,32.36165 61.63933,6.23912 1.06934,16.0417 -13.68181,30.8928 -30.09291,23.57278 z M 676,359.53197 c 2.31102,-21.6175 -58.8454,-74.17321 -13.85847,-37.91801 26.5478,53.16006 0.24118,-65.22456 17.06411,-4.47852 0.33554,10.14221 4.43112,43.52255 -3.20564,42.39653 z M 610.5,318.5085 c -6.97038,-15.63159 -94.93724,-54.64592 -61.09545,-41.71424 26.6551,0.47762 72.6255,38.15111 70.00531,49.70712 l -3.83107,-3.37045 z M 405,298.84867 c -14.81797,-13.08414 -60.83874,-46.89304 -13.49133,-28.43445 17.17686,3.4134 58.53961,22.67524 18.32792,12.60435 -52.20892,-26.69479 18.40515,24.6958 -4.83659,15.8301 z m 222.31895,-27.03516 c -14.08741,-14.50597 -48.6376,-55.63323 -12.19273,-23.41082 16.10113,11.19477 45.48559,65.9358 12.19273,23.41082 z m -18.59212,11.00756 c -11.8845,-15.89869 -64.697,-45.89357 -54.51177,-47.66611 20.40338,7.47847 57.29807,37.16704 54.51177,47.66611 z M 443.07201,266.05241 c -23.79776,-2.77793 -71.21141,-48.0305 -61.81196,-52.7551 13.60641,16.38618 67.0861,61.1486 33.09379,17.00896 -11.63002,-15.33884 -50.3694,-81.55921 -17.66789,-38.53616 17.41862,25.21995 -41.06671,-93.902053 -6.81773,-36.13346 25.32547,34.40351 29.86544,90.0496 71.049,108.57756 2.91232,4.76724 -15.68488,2.30888 -17.84521,1.8382 z M 604,655.23783 c -8.56821,-24.68956 -4.43099,8.31499 0,0 z M 753.50098,551.31351 c 19.58791,-16.28848 23.07865,-93.68806 -4.92951,-47.27183 -21.93645,10.44383 -28.42216,59.09556 4.92951,47.27183 z m -20.1067,-53.2316 c 12.97433,-27.81473 -2.69641,25.44089 16.16136,-5.6352 33.08135,-41.21353 -27.6662,-19.96125 -50.2353,-26.63892 -14.663,21.35751 1.15087,23.39518 14.90547,15.04519 8.98858,0.56914 9.4306,40.64223 19.16847,17.22893 z m 22.50604,-67.0869 c 8.4673,-27.1469 -34.56081,-55.47234 -28.03264,-20.3072 7.85698,4.06022 31.29092,54.04997 28.03264,20.3072 z M 724.67019,394.0015 c 17.19906,-31.74978 10.07793,-23.87657 -5.15209,-2.99572 -6.19848,-28.92168 -15.66973,13.63715 5.15209,2.99572 z m -12.10421,-20.77109 c 16.149,-7.02469 42.08955,-22.98554 29.76458,-38.69062 -8.3246,4.62825 -46.64107,52.93342 -29.76458,38.69062 z M 645.94971,199.43852 c -5.48009,-17.71434 -21.36442,-96.14758 -37.90624,-76.44475 -4.31543,33.06 -54.42749,66.61942 -3.44416,84.02849 24.82641,25.24489 7.49282,0.45766 3.96974,-14.83796 20.01751,6.97039 59.70131,68.9406 37.38066,7.25422 z"
       id="path1" /></g></svg>
