<?xml version="1.0" encoding="UTF-8" standalone="no"?>
<!-- Created with Inkscape (http://www.inkscape.org/) -->

<svg
   version="1.1"
   id="svg1"
   width="1024"
   height="1024"
   viewBox="0 0 1024 1024"
   sodipodi:docname="nord.svg"
   inkscape:version="1.3.2 (091e20e, 2023-11-25, custom)"
   xml:space="preserve"
   xmlns:inkscape="http://www.inkscape.org/namespaces/inkscape"
   xmlns:sodipodi="http://sodipodi.sourceforge.net/DTD/sodipodi-0.dtd"
   xmlns="http://www.w3.org/2000/svg"
   xmlns:svg="http://www.w3.org/2000/svg"><defs
     id="defs1" /><sodipodi:namedview
     id="namedview1"
     pagecolor="#ffffff"
     bordercolor="#000000"
     borderopacity="0.25"
     inkscape:showpageshadow="2"
     inkscape:pageopacity="0.0"
     inkscape:pagecheckerboard="0"
     inkscape:deskcolor="#d1d1d1"
     inkscape:zoom="1.1455078"
     inkscape:cx="511.56352"
     inkscape:cy="511.12703"
     inkscape:window-width="2560"
     inkscape:window-height="1369"
     inkscape:window-x="-8"
     inkscape:window-y="-8"
     inkscape:window-maximized="1"
     inkscape:current-layer="g1" /><g
     inkscape:groupmode="layer"
     inkscape:label="Image"
     id="g1"><path
       style="fill:#000000"
       d="M 479,970.87642 C 275.84653,958.18126 90.392964,797.51531 56.338436,595.64378 18.420147,415.20549 103.44138,218.96231 258.05178,119.89815 418.65145,14.453651 644.80211,22.141851 795.66502,142.20577 923.43927,237.90713 992.54327,403.16432 973.53895,561.3912 953.9849,771.29612 771.39366,950.84636 561.74208,969.11368 534.29501,971.93089 506.54648,971.74671 479,970.87642 Z m 47.99079,-10.06291 C 513.88968,919.71844 532.82294,858.05164 492.76178,831.86386 426.61957,815.74327 355.63142,805.89607 301.1727,761.0796 c -34.17046,-6.93262 -42.23907,-90.29901 -73.68289,-63.64283 29.55604,71.69888 99.47616,117.17021 172.64803,135.46525 36.48347,13.30953 98.99293,4.90057 100.99656,58.85763 10.79506,17.3411 -2.73055,77.75952 25.85639,69.05386 z M 507,960.00009 C 495.66541,922.05536 506.37592,857.33751 454.01135,850.49157 364.66782,836.76073 267.57459,798.18113 228.3658,710.03851 c -27.19325,-32.85564 -6.60362,39.08034 11.97715,48.06572 51.10743,71.73654 140.95923,94.95518 222.57384,111.44985 40.79338,11.79979 6.94752,92.05822 44.08321,90.44601 z m 41.88869,0.5838 c 22.40207,-27.73741 -19.43061,-93.68739 11.40946,-129.728 27.88472,-19.74352 93.38108,-50.6023 74.48779,-83.44343 -21.64308,9.47452 -26.48863,14.70115 -40.75198,-2.8201 -18.58531,-4.34854 -49.34982,77.35026 -25.73754,20.99958 36.4037,-36.68448 -36.84554,-34.26715 -56.79182,-50.42937 -42.74276,-26.37479 -91.51069,-46.9175 -124.7293,-86.09906 -23.96995,-28.29769 -23.44682,-69.21555 -17.5253,-101.0173 -23.41425,12.81616 -50.57801,-33.11992 -39.38763,8.35127 5.77156,52.49203 -12.10977,112.27685 -62.51768,137.06993 -35.71884,23.21809 25.97173,67.6823 45.23679,87.26063 54.43556,42.76672 124.95437,47.73348 188.74847,66.88088 36.765,31.20242 22.08845,89.83101 33.28958,133.148 4.62002,1.86325 9.57655,-0.24058 14.26916,-0.17303 z M 450.27025,759.81351 c -16.52598,-19.70503 -40.58157,-88.48756 -40.51837,-76.97612 6.78403,18.46274 49.3799,82.53001 40.51837,76.97612 z m 33.91333,198 c 4.58581,-49.25703 -15.15454,-97.61389 -72.03876,-93.43061 -75.97047,-16.76656 -152.35149,-54.10797 -191.60047,-124.54025 -10.58463,-58.30465 -63.87657,-6.33853 -95.98255,6.45006 75.87824,123.46964 214.08439,207.82575 359.30536,214.2708 l 0.29958,-2.60363 z m 93.43276,-0.69257 c 1.03764,-41.32358 -22.13619,-105.34931 29.7012,-124.10221 43.56235,-13.58442 54.64469,-61.3349 55.8972,-98.28402 14.41596,53.01835 -23.35621,96.01652 -70.00064,114.62337 -21.86002,25.39925 -15.55708,84.48093 -4.01598,106.08503 13.67334,-32.07469 -16.71104,-100.97874 43.57278,-112.84096 42.12273,-15.01064 63.64669,-95.02551 30.24558,-112.17603 -29.79195,13.82823 -12.55853,60.8001 -46.83239,73.28992 -40.47144,14.95041 -73.7818,49.61024 -57.23369,95.34747 6.58066,15.07767 -7.95258,65.39033 18.66594,58.05743 z m 41.15064,-7.0919 C 708.35391,927.91331 793.28065,879.4795 853,808.53003 804.02064,771.0578 744.45371,751.37316 692.40147,718.83492 c -31.5291,17.90573 11.17081,70.95394 -20.99936,97.61816 -21.04134,35.59224 -86.80907,40.01366 -72.16498,92.5433 4.53592,13.41466 -8.7688,55.64258 19.52985,41.03266 z M 868.74935,789.31351 C 1008.4317,622.88521 996.14806,353.65392 843.93665,199.29203 736.66223,82.03915 565.3298,29.385299 410.79949,66.70283 245.37464,100.53916 108.1581,236.78162 70.332187,400.95633 42.983366,513.50057 59.13012,638.45158 119.856,737.40509 c 45.36197,-23.52328 91.9837,-44.84639 136.48944,-70.12339 3.68768,-27.74536 -5.97716,-51.758 0.0315,-79.34861 -4.56012,-34.85937 0.0412,-64.92637 -3.37359,-100.02339 3.68713,-29.47169 -25.74168,-65.05077 -1.01333,-97.62665 12.07142,-44.66602 -8.89479,-96.79393 13.99232,-141.91039 10.43624,-47.15502 35.60445,-90.0256 83.65915,-107.75401 46.87395,-36.23761 111.44955,-38.40801 168.25727,-34.07772 63.40287,7.07833 135.82551,40.23593 152.50029,107.52258 40.13407,30.88005 32.08593,87.65187 59.91962,126.29005 8.27042,31.77514 -37.59386,56.53031 -8.71568,89.20995 4.63342,42.0004 -19.22347,83.78408 1.20696,124.19455 -8.43137,47.07766 16.28826,99.72907 -15.11819,142.30545 -18.08417,34.47957 58.51726,42.08211 80.71811,63.15932 26.80534,2.87128 60.75867,59.95992 80.33953,30.09068 z M 624.57062,737.97285 c 29.04737,-15.98057 24.49526,-68.5856 28.37818,-77.26844 10.9004,25.75532 -7.2645,64.11566 -14.62784,77.67626 24.53142,-8.3709 44.6368,-49.42403 42.18778,-61.0366 8.82417,22.44872 -20.68365,59.87201 10.14664,26.27742 21.33711,-26.0726 -23.40271,-109.61205 -16.13434,-94.32844 27.84114,8.30935 21.45187,80.67388 32.22307,73.22934 19.6983,-25.77194 -12.03375,-74.77005 -7.7993,-86.45888 5.01767,14.88928 27.09081,59.22831 16.22069,15.96911 -7.50459,-35.01247 9.39873,-88.10648 -32.50984,-105.84347 -44.76898,-0.0477 4.56877,23.18392 4.82191,45.56403 14.11789,38.84045 -4.1551,-0.8294 -29.858,10.89298 -48.11504,1.18374 -95.83675,13.17618 -135.51939,40.91735 19.07264,-10.2313 58.25618,-91.41498 32.3522,-34.2964 -16.05438,35.97835 36.46126,-19.3511 39.62962,-33.56125 12.44781,-8.06623 -29.08834,48.97954 1.25608,22.28021 11.72559,-14.55946 32.05566,-48.73475 14.02833,-11.17256 -14.34669,43.7397 35.41106,-37.77765 27.35058,-30.51389 -4.67561,21.43724 -21.52427,56.50525 9.59804,30.37433 0.49725,-16.89627 0.38408,-48.39024 4.66218,-12.19592 -11.30386,26.73982 31.8424,25.32828 11.91591,-1.50882 -6.2647,-26.5751 20.73784,49.11201 14.65634,7.92125 -18.3113,-22.45545 -26.92822,-36.87695 5.98891,-47.93544 7.96593,-43.34781 -27.66803,-82.23716 -29.46648,-123.90004 -0.43882,-22.34334 3.50987,-46.68662 5.46724,-8.26119 29.6846,-9.16733 80.7145,-12.64473 45.11423,-52.53245 -1.50125,-48.88542 -36.10865,-82.03242 -55.42894,-123.24576 -55.78584,-74.19549 -160.54623,-81.76344 -244.52027,-62.45645 -21.44133,3.12538 -42.84088,14.96951 -5.55919,11.24136 59.70316,5.83929 121.25227,29.339 160.98193,76.00012 C 505.99657,164.81787 435.21776,132.1964 363.34397,143.7826 342.08617,149.4289 280.86561,189.3187 328,194.22977 c 38.60064,-7.0121 86.10127,-8.38804 118.89379,11.21665 -51.16628,-10.58007 -111.12989,-16.86561 -156.20362,14.48203 -28.33322,37.3669 -38.81609,102.16544 -21.88661,139.65833 42.49088,-41.65755 104.04102,-57.27367 142.67342,-103.73597 14.77668,-16.055 37.68668,-34.16035 11.1257,-5.63392 -37.0045,47.74065 -96.32246,68.0992 -141.16928,105.92304 -24.08734,21.23953 -40.16966,90.95081 -22.20815,99.32792 -6.0441,-21.3568 17.59116,-76.12096 26.63787,-70.37333 -19.52644,14.36768 -32.89073,82.04264 -0.1043,36.73572 -7.6018,-61.6923 61.74792,-47.17132 96.6721,-69.42177 19.92194,-5.91938 45.8626,-62.22751 45.26858,-47.98601 -6.8406,40.61752 -65.61871,62.97057 -80.48771,73.14105 32.5423,33.8725 57.54146,-24.52119 70.16699,-29.09729 -7.71464,29.68381 -53.92341,43.16074 -41.32969,78.56696 6.2889,-18.94924 55.11363,-60.65737 18.57482,-18.7265 -18.73825,10.80537 -18.01035,62.35711 -25.86248,15.81065 9.50263,-45.77995 -83.2449,-66.83976 -71.25981,-9.05382 -1.90658,42.11491 23.92999,96.58938 65.42868,106.6941 15.81223,-0.20318 4.91293,-44.69113 16.51556,-9.11126 2.82721,16.81255 -15.64646,81.72469 -1.32134,69.39521 3.41843,-21.67319 31.18891,-52.92576 9.62046,-13.69101 -17.764,25.43276 18.244,93.56739 12.80563,35.39571 3.15791,-22.57864 23.39531,-49.37388 8.42732,-11.19402 -22.65826,27.62992 37.03806,100.02022 24.09844,40.16379 -0.36738,-28.79214 8.0344,-38.09023 6.26949,-4.37992 -12.56332,28.69732 57.45062,86.57628 30.80031,36.14264 -7.61744,-19.72806 1.22362,-67.81087 2.0901,-20.27423 -4.76765,24.64736 42.2975,75.69377 47.43505,59.2268 -19.32444,-24.61146 -16.41744,-63.11415 4.20831,-85.72227 -26.1476,39.6637 -3.41939,99.90232 39.70707,108.99129 -17.69194,-12.30765 -14.8814,-69.41386 -8.5566,-24.77198 1.77791,24.3046 59.94795,49.42535 24.11918,11.95751 -9.06192,-20.10983 -10.90575,-57.44846 -1.49809,-16.17858 9.60837,34.46567 42.36288,45.84048 32.29121,14.35622 9.67679,5.25144 -1.37597,40.62129 14.62822,25.90934 z m -7.58532,-50.90934 c -6.70033,-16.36319 5.20751,-62.10906 17.80109,-65.0595 -12.98033,11.58378 -15.6829,73.97914 -17.80109,65.0595 z m -29.65961,-3.25 c -18.60125,-21.2612 25.96033,-78.61823 25.85486,-64.73455 -18.68701,15.35584 -26.81483,55.45623 -25.85486,64.73455 z m -33.87993,-15.7631 c -13.0957,-20.75311 45.13339,-79.00496 14.29188,-34.89899 -6.96138,2.90605 -11.11408,46.06826 -14.29188,34.89899 z m 115.87193,-11.27582 c -8.85756,-12.0491 -20.54993,-65.24219 -4.68459,-23.95008 1.75924,0.10672 13.41621,41.61193 4.68459,23.95008 z m -135.67703,-1.42141 c -11.7792,-24.85375 36.0053,-79.00444 8.22726,-28.4057 -5.2408,3.99248 -4.55885,31.24988 -8.22726,28.4057 z m -51.62085,-32.48065 c 3.29689,-21.84966 19.09724,-92.73769 12.22752,-32.81699 -3.24076,10.08541 -5.78599,25.56346 -12.22752,32.81699 z M 581,612.68155 c 1.65005,-4.66874 3.47062,1.72383 0,0 z M 450.42444,600.84791 c 1.32153,-20.95434 34.42324,-83.99792 15.07387,-28.05394 -3.69045,2.782 -15.82106,43.53656 -15.07387,28.05394 z m 59.90809,-8.7844 c -0.84705,-34.05727 59.41905,-73.86452 67.96013,-67.61228 -30.02247,12.67842 -55.36601,43.72549 -67.96013,67.61228 z m 94.30957,0.01 c 21.22053,3.70597 84.80222,-23.41963 78.7977,-15.85812 -18.92274,20.45381 -53.55952,16.97254 -78.7977,15.85812 z M 433.45139,581.29742 c 0.10932,-23.62013 36.30474,-80.01815 12.47896,-25.23391 -5.00246,7.69358 -7.19737,18.58836 -12.47896,25.23391 z M 702.0106,569.56351 c 5.31525,-17.77893 -31.01649,-71.25945 -1.54308,-32.97164 5.36741,2.17251 4.38296,48.11526 1.54308,32.97164 z m -287.50719,-15.5 c 6.59581,-21.60391 32.58134,-65.72869 14.52219,-20.03353 -3.17123,1.64763 -14.40825,25.59055 -14.52219,20.03353 z M 401,536.2717 c 10.0751,-16.16925 19.22596,-90.34368 15.43737,-33.69159 C 414.6968,513.55625 407.82181,531.49234 401,536.2717 Z m 158.16904,-24.45819 c 11.55145,-13.42989 47.01557,-60.97951 52.11028,-45.72689 -30.35296,14.87855 -8.98149,46.04793 17.57669,24.47689 29.94532,3.03442 25.91499,20.82117 -1.70141,13.53608 -31.28854,14.41873 -41.06107,-36.61257 -60.45072,2.93245 -0.64267,0.43315 -15.15103,15.3534 -7.53484,4.78147 z M 623,502.68851 c -12.19093,-7.86124 -12.49561,4.4459 0,0 z m -142.80937,-4.375 c -13.91873,-10.98419 -30.90276,-47.78119 -7.10375,-14.20521 3.80938,4.56527 25.12374,31.88562 7.10375,14.20521 z m -73.17008,-9.5 c -5.73006,-19.35395 3.23116,-66.50225 1.97945,-20.80901 -1.28249,-0.50474 2.01993,35.3261 -1.97945,20.80901 z m -27.5327,-4.75 c -1.67852,-19.31098 28.94156,-92.96212 13.40175,-40.29499 -3.4581,12.41447 -8.17799,36.05128 -13.40175,40.29499 z m -30.59539,-11.8542 c -38.34801,-11.15845 -13.84466,-46.90518 -6.58912,-63.92249 -18.69507,-31.3125 -39.9928,31.42385 -38.90991,20.70812 -9.76049,-53.77848 53.23897,-38.41358 53.60657,1.90611 -5.70431,13.75404 20.00901,50.77364 -8.10754,41.30826 z m 0.69264,-6.3958 c 7.42912,-25.41972 -1.8482,-64.73668 -18.31073,-26.21796 -4.34135,7.83563 13.8288,35.63989 18.31073,26.21796 z m 4.4149,-4.05 c -5.89839,-18.77084 -3.22572,11.63177 0,0 z m 197.23664,-25.76997 c 17.87363,-3.70365 41.84187,-27.41535 14.78875,-1.03021 l -9.76135,1.54476 z m 85.91274,-15.54134 c -9.33103,-16.55208 -17.55713,-60.89029 -2.29929,-17.95904 0.41175,1.15716 6.74313,26.16346 2.29929,17.95904 z M 568.5,407.3924 c -21.8041,-2.25025 -49.8591,-21.51125 -64.73781,-15.20812 27.86777,-18.65506 65.72084,-25.14883 93.57648,-19.38922 C 560.10006,354.2543 517.2282,347.0076 478.5,365.70474 c 31.72755,-39.34432 81.30707,-28.3454 122.00811,-11.76597 23.46138,25.51195 30.74633,-26.04778 31.21515,-16.75849 9.84936,32.68945 -30.14891,51.59849 -55.67905,39.97477 12.40863,19.4141 13.90067,20.14362 1.45012,12.71773 -6.45645,12.58213 -17.9045,10.65047 -0.017,18.53605 l -8.97727,-1.01643 z m -15.20072,-9.07889 c -5.40831,-20.21208 2.46277,-26.44962 -23.54853,-10.90075 0.62179,3.34572 27.81524,19.41869 23.54853,10.90075 z m 7.5696,-11.09201 c 0.19261,-8.3951 -9.88744,4.67992 0,0 z M 333.5,345.87859 c 42.13707,-19.80812 76.24573,-51.31797 103.29046,-88.85795 -21.69847,42.94853 -61.5634,77.76221 -107.47633,91.86275 z m -37.27805,-36.48093 c 5.64249,-4.48793 2.71358,4.0664 0,0 z M 621.5,301.91818 c -20.59033,-2.29263 -77.51371,-17.11209 -69.16714,-11.79408 36.4521,7.45208 82.606,9.89735 113.9925,7.82235 -14.56767,3.78104 -29.83039,4.84873 -44.82536,3.97173 z m -344.42105,-1.938 c 1.44329,-2.66327 0.44609,4.31143 0,0 z M 375,236.56351 c 3.90318,-3.65313 3.90318,3.65313 0,0 z m -44,-3.62244 c 1.67154,-3.45618 4.31062,5.42016 0,0 z m 80,-6.2981 c 15.73344,-8.59381 49.28971,-14.20784 14.88594,-2.73434 -4.9315,0.0591 -9.78465,4.51349 -14.88594,2.73434 z m 103.5,-13.83053 c -55.22661,-24.79809 -115.9243,-54.1118 -177.93385,-42.76969 42.42933,-15.73392 92.63437,-1.64719 133.56498,15.48746 5.23601,0.0869 68.37187,35.82655 44.36887,27.28223 z m 125.12386,-2.74893 c 0.10675,-18.33459 -30.14451,-55.55388 -3.44988,-22.71673 9.666,1.39123 4.96879,42.39416 3.44988,22.71673 z m -30.15227,-6.9941 C 566.71022,154.33279 502.74985,128.43157 439,123.37679 c 65.07022,-3.09857 134.40381,24.54901 172.98537,78.27548 l 3.77391,8.4853 z M 272.08023,661.02286 c 16.06005,-12.1395 -19.3474,-35.99617 -8.16187,-3.94314 L 265,663.24717 Z M 296.4614,637.5807 c 27.07316,-16.67971 -2.20744,-58.20008 -4.4614,-20.55143 3.6238,55.48473 -30.7062,-66.50997 -30.50332,-2.52448 6.97604,10.19846 23.10764,55.03825 34.96472,23.07591 z m 7.72898,-53.83197 c 19.30103,-30.18456 -10.08811,-50.50919 -16.54302,-10.3075 4.14878,59.88122 -9.05405,-72.55901 -26.57037,-17.24322 -2.00853,25.69338 26.49581,71.81128 43.11339,27.55072 z m 16.21845,-27.68522 c 3.79668,-24.3512 -3.88078,-48.61117 -8.29137,-13.48968 13.0493,8.12197 -6.8849,80.31879 6.28178,51.48968 2.21906,-12.53585 1.84592,-25.3247 2.00959,-38 z m -27.2515,-5.34059 c 25.03633,-14.41117 24.12491,-83.10905 -3.65619,-34.48067 -16.56659,50.96999 6.98715,-35.37733 -25.1171,-35.48296 -17.42422,24.10503 10.04319,71.87199 28.77329,69.96363 z m 414.21686,-60.69315 c 12.45669,-28.86704 3.82309,-95.86566 -12.44947,-102.30475 6.8177,31.15411 -42.30273,5.12833 -23.53852,-9.16151 -30.55517,14.33519 32.6594,54.51064 13.2868,61.06734 17.1774,24.9617 -5.55753,58.75526 18.82705,75.99954 0.67139,-8.61467 1.8992,-17.1806 3.87414,-25.60062 z m -408.54014,5.53894 c 20.74375,-29.97747 -19.88467,-23.46344 -13.788,-15.36851 16.39002,-18.57885 0.0851,-74.66951 -13.818,-28.1969 -2.4005,13.28366 10.21243,60.64075 27.606,43.56541 z M 681,386.76351 c -4.70165,-8.53401 -9.96502,2.03633 0,0 z m 26.48451,-4.15119 c 23.56967,-28.92866 4.10925,-23.92497 -17.37934,-11.99943 -12.39992,-2.70906 -51.30402,6.64347 -19.78943,3.97258 15.9192,-7.09804 29.01954,0.48558 37.16877,8.02685 z M 296.38798,206.56046 c 39.75268,-49.72615 -35.50362,5.89484 0,0 z"
       id="path1" /></g></svg>
