<svg width="1024" height="1024" version="1.1" viewBox="0 0 1024 1024" xmlns="http://www.w3.org/2000/svg">
 <path d="m472 953.96c-26.27-2.2372-58.319-7.6973-79.321-13.514-19.661-5.4449-40.259-12.326-49.179-16.429-1.1-0.50594-6.5-2.7817-12-5.0573-17.648-7.3018-50.809-25.104-65.101-34.949-2.8053-1.9325-9.0274-6.1921-13.827-9.4658-34.565-23.577-75.418-63.979-102.77-101.64-34.074-46.909-63.242-110.08-75.455-163.41-8.803-38.441-11.385-60.089-11.929-100-0.48287-35.479 0.80977-54.284 6.0148-87.5 3.6921-23.561 15.672-63.612 27.687-92.559 9.1169-21.966 27.175-55.423 41.258-76.441 26.403-39.404 64.22-79.708 100.13-106.72 58.446-43.958 123.54-71.483 198-83.718 40.658-6.6816 91.76-7.4602 130-1.9808 24.009 3.4403 59.3 10.679 72.5 14.872 59.841 19.006 109.94 45.406 152.5 80.369 23.698 19.466 51.102 47.351 71.381 72.636 8.8298 11.009 29.149 42.048 37.34 57.038 10.136 18.55 19.872 39.069 25.386 53.5 1.3658 3.575 3.3446 8.75 4.3973 11.5 6.9504 18.157 16.172 53.086 19.009 72 0.65991 4.4 1.3745 8.9 1.5879 10 6.1987 31.945 6.9138 99.111 1.4001 131.5-0.51497 3.025-1.2162 7.75-1.5584 10.5-1.6613 13.353-9.4979 46.792-15.468 66-11.423 36.755-34.039 82.725-58.053 118-16.054 23.583-29.62 39.877-54.419 65.362-55.881 57.426-132.47 100.87-210.94 119.64-33.959 8.1248-54.874 10.517-96.058 10.988-17.6 0.20113-36.725-0.0367-42.5-0.52852zm50-7.6055c0-1.8185-9.7348-43.771-12.437-53.6-3.9908-14.513-5.2391-17.286-10.306-22.895-6.6644-7.3766-12.629-9.3983-36.486-12.366-12.899-1.6044-29.494-4.5236-36.456-6.4127-2.0984-0.5694-8.5403-2.1975-14.315-3.6181-46.021-11.32-91.595-32.484-131.78-61.195-14.194-10.142-38.183-32.297-40.404-37.316-0.71943-1.6253-1.6284-2.9551-2.0199-2.9551-0.39153 0-3.0015 1.35-5.7999 3s-5.2876 3-5.5316 3c-0.24394 0-5.2866 2.8457-11.206 6.3238s-18.531 10.712-28.025 16.075c-11.238 6.3486-17.026 10.161-16.585 10.926 3.7896 6.5732 33.865 38.536 50.893 54.087 37.641 34.376 94.138 67.444 143.95 84.258 38.156 12.878 69.272 19.095 113.5 22.677 5.6906 0.46093 43 0.46885 43 9e-3zm24.741-1.7647c0.19178-0.19177-0.0947-2.3159-0.63652-4.7203-0.54186-2.4044-1.7214-8.6466-2.6212-13.872-1.7066-9.9102-10.302-54.009-13.059-67-0.87547-4.125-2.5666-9.9095-3.7581-12.854-1.8254-4.512-3.0317-5.8793-7.6663-8.6902-3.025-1.8347-6.85-3.5406-8.5-3.7909s-4.125-0.73197-5.5-1.0703c-1.375-0.33835-7.45-1.2892-13.5-2.1129-44.761-6.0947-73.339-12.818-105.56-24.837-36.765-13.711-69.444-31.572-92.128-50.353-7.259-6.0099-19.824-19.335-23.45-24.869-0.90595-1.3827-2.1475-2.381-2.7589-2.2185-1.6532 0.43933-22.72 12.586-25.496 14.7l-2.397 1.8258 3.3658 3.8848c21.356 24.649 72.779 59.346 106.43 71.811 3.85 1.4262 7.9 3.021 9 3.5441 4.7462 2.257 20.594 8.0298 22.044 8.0298 0.873 0 2.3501 0.40827 3.2825 0.90727 1.8046 0.9658 29.364 9.0493 37.565 11.018 10.896 2.616 25.384 5.2284 41.793 7.5356 26.461 3.7206 33.483 6.7417 40.835 17.568 4.7514 6.9967 9.7198 21.609 12.394 36.451 1.1049 6.132 4.8 24.24 6.1679 30.226 0.77995 3.413 1.4181 7.1932 1.4181 8.4003 0 2.1696 0.12883 2.187 11.196 1.5148 6.158-0.37401 11.353-0.83693 11.545-1.0287zm9.9354-23.842c-0.35354-12.788-1.3646-34.725-2.2467-48.75-1.8421-29.286-1.6044-43.015 0.82418-47.6 1.6925-3.1953 10.481-12.4 11.84-12.4 1.455 0 12.914-8.0745 16.385-11.546 6.1731-6.1731 7.0207-8.7032 7.0198-20.954-7.7e-4 -10.127-0.29504-11.836-3.7094-21.537-4.203-11.942-13.345-32.463-14.462-32.463-0.84621 0-3.1295 7.3066-3.9062 12.5-0.2879 1.925-1.3811 7.775-2.4293 13-1.7436 8.6915-4.6531 26.812-7.145 44.5-0.54238 3.85-1.6063 7.6354-2.3644 8.4119-1.1817 1.2107-1.5517 1.0312-2.5952-1.2591-0.95661-2.0995-0.95462-4.8624 9e-3 -12.912 1.6118-13.46 2.603-20.055 4.0194-26.741 0.64081-3.025 1.8132-9.775 2.6052-15 2.2024-14.529 6.9578-37.231 8.3263-39.75 0.67234-1.2375 0.84316-2.25 0.37961-2.25-0.7915 0-7.2275 12.032-7.2275 13.512 0 0.37579-1.7308 4.3518-3.8463 8.8356-6.1876 13.115-22.153 53.164-22.153 55.57 0 1.4616-4.1504 10.265-4.6187 9.7968-0.24839-0.24838 0.41383-2.8733 1.4716-5.8331 1.0578-2.9598 3.3599-10.106 5.1158-15.882s4.2691-13.425 5.5848-17 3.578-10.1 5.0275-14.5c1.4494-4.4 3.2301-9.35 3.957-11 0.72691-1.65 2.7348-6.6 4.4619-11s4.6537-11.618 6.5035-16.041c8.2314-19.68 17.155-50.227 15.791-54.056-0.21482-0.60298-6.3315-3.0528-13.593-5.4442-12.493-4.1144-18.55-6.588-42.202-17.234-18.819-8.471-38.375-19.521-68.317-38.602-7.8744-5.018-14.549-9.1237-14.832-9.1237-0.93077 0-13.502-9.3833-20.507-15.307-7.4571-6.3058-10.84-11.732-13.357-21.426-0.82364-3.1717-2.5545-9.1418-3.8464-13.267-5.2656-16.813-7.7306-24.938-10.145-33.439-1.3964-4.9165-2.7586-9.1587-3.027-9.4271-0.26844-0.26844-1.7832 0.7527-3.3661 2.2692-3.5159 3.3685-9.6221 4.4052-15.167 2.5751-3.7307-1.2312-6.6253-0.67463-4.2967 0.8262 0.59413 0.38293 1.1694 4.2918 1.2798 8.6956 0.11028 4.4 0.3729 9.35 0.58359 11 0.74835 5.8604 2.5705 28.227 3.5438 43.5 0.5433 8.525 1.6571 24.725 2.4751 36 1.4654 20.198 3.1351 47.12 3.732 60.172 0.36972 8.0853-0.79897 8.1568-1.5355 0.094-0.28968-3.1713-1.2301-10.941-2.0899-17.266-3.6839-27.101-5.7363-44.908-7.6648-66.5-2.2746-25.467-2.6126-28.485-3.2643-29.136-0.24627-0.24627-0.66643 0.69616-0.9337 2.0943s-0.0433 2.542 0.49783 2.542c0.63312 0 0.64108 0.44554 0.0223 1.25-0.94049 1.2227-1.3317 3.2173-5.2464 26.75-7.8872 47.412-21.469 89.723-35.633 111-10.618 15.951-19.413 24.236-40.223 37.886l-8.2109 5.3859 2.6338 3.6141c4.2568 5.8411 21.158 21.799 30.371 28.676 28.933 21.596 73.76 42.035 118.53 54.038 14.319 3.8396 35.11 8.0951 53.5 10.95 5.225 0.81115 10.175 1.6684 11 1.905s3.975 0.71334 7 1.0594c7.0535 0.80698 21.762 4.3472 25 6.0173 3.2018 1.6514 7.3594 6.1315 9.2504 9.968 1.9611 3.9788 6.1682 21.22 8.6626 35.5 2.2495 12.878 3.8198 21.276 4.6747 25 0.98704 4.2996 4.3514 22.2 5.4504 29 1.8422 11.398 2.8012 14 5.1603 14 2.1192 0 2.1206-0.0218 1.4784-23.25zm-75.937-140.98c-8.6401-17.504-12.08-25.085-18.724-41.266-3.3874-8.25-6.7546-16.35-7.4826-18-0.72803-1.65-4.9238-13.35-9.324-26-10.622-30.538-23.559-75.62-30.273-105.5-1.6685-7.425-3.2556-14.4-3.527-15.5-0.37812-1.5329-0.14153-1.4161 1.0129 0.5 0.82845 1.375 1.5222 3.2337 1.5417 4.1304 0.0195 0.8967 2.44 10.122 5.3788 20.5 2.9389 10.378 6.5745 23.37 8.0792 28.87 3.1569 11.539 2.8657 10.564 10.001 33.5 6.0461 19.436 11.189 34.686 15.514 46 1.5768 4.125 4.7465 12.45 7.0437 18.5 3.5554 9.3637 12.089 30.324 15.063 37 5.8024 13.022 11.932 27.857 11.633 28.156-0.20708 0.20709-2.879-4.6932-5.9376-10.89zm94.726 162.17 6.1302-1.0675-0.74516-7.6825c-0.40984-4.2254-1.1953-22.082-1.7455-39.682-1.0388-33.232-0.39594-46.882 2.4096-51.164 1.3734-2.0961 9.6003-8.3358 10.991-8.3358 1.3455 0 12.471-9.1559 15.678-12.902 11.88-13.879 9.6229-42.368-6.1391-77.498-2.6651-5.94-3.2688-6.5406-11.926-11.865-5.0153-3.0847-9.1188-5.1906-9.1188-4.6796s2.8993 8.0394 6.4429 16.73c3.5436 8.6905 6.7127 17.132 7.0424 18.758 2.0166 9.9468 2.6925 16.825 2.3072 23.481-0.74373 12.847-5.7943 19.728-22.292 30.369-14.859 9.5841-16.01 12.024-15.123 32.063 0.36605 8.2744 0.90208 21.119 1.1912 28.544s0.95463 23.258 1.4789 35.185c0.52431 11.927 0.95329 23.739 0.95329 26.25 0 4.4592 0.0733 4.5648 3.1681 4.5648 1.7424 0 5.9267-0.48039 9.2983-1.0675zm25.081-4.4615c64.721-13.695 128.04-44.544 182.21-88.775l9.2276-7.5341-4.744-3.4583c-23.763-17.323-53.468-34.31-90.744-51.893-9.35-4.4104-33.088-16.061-52.75-25.89-28.266-14.13-35.75-17.499-35.75-16.09 0 0.97974 1.5957 5.7385 3.5459 10.575 10.924 27.092 11.626 49.682 2.0497 66.022-2.8876 4.9273-15.677 16.489-23.009 20.801-3.521 2.0704-5.1373 3.8776-6.7079 7.5-2.2138 5.106-2.2365 11.513-0.2563 72.522 0.71313 21.971-1.2698 20.071 16.925 16.221zm212.68-116.72c38.462-38.243 62.868-71.79 86.093-118.33 24.331-48.762 38.313-96.291 44.838-152.42 1.4991-12.895 1.8616-73.618 0.5428-90.915-2.2245-29.175-12.916-76.148-24.488-107.59-10.113-27.474-26.657-60.542-43.025-86-26.38-41.028-61.395-79.2-100.69-109.77-7.6225-5.9294-18.592-13.425-35.5-24.259-12.645-8.1019-43.736-24.532-52.739-27.87-2.0687-0.76696-7.8112-3.0429-12.761-5.0576-32.198-13.105-62.585-21.638-95-26.676-27.477-4.2708-34.854-4.9276-62.165-5.5344-95.188-2.115-182.24 22.845-257.45 73.814-59.485 40.315-111.85 99.937-143.9 163.85-4.5053 8.984-5.9681 12.096-12.456 26.5-11.894 26.405-23.018 64.126-28.541 96.782-3.9023 23.075-4.9764 35.943-5.6524 67.718-1.1722 55.092 4.8411 93.985 23.071 149.22 11.788 35.714 32.253 79.16 47.9 101.69l3.1907 4.594 0.6511-5.5c0.35811-3.025 0.69561-8.3232 0.75-11.774 0.20668-13.111 6.1459-55.455 9.7796-69.726 8.4731-33.276 22.132-70.829 37.908-104.22 1.8764-3.9718 3.4117-7.4147 3.4117-7.6507 0-0.23603 1.7455-4.1863 3.8789-8.7784 13.411-28.866 25.07-62.398 31.765-91.349 0.76303-3.3 2.4974-10.77 3.8541-16.599s2.9386-13.93 3.5153-18 1.2345-8.5257 1.4618-9.9007c1.7591-10.644 3.192-24.218 4.9084-46.5l1.2325-16-3.7359-6.1499c-14.623-24.073-27.592-49.85-35.668-70.893-7.1346-18.591-7.7747-25.748-2.5526-28.543 2.2449-1.2014 3.0613-1.0514 7.8104 1.4351 7.3491 3.8478 25.025 14.974 37.344 23.506 5.6728 3.9291 10.735 7.1438 11.25 7.1438s0.93574-1.0779 0.93574-2.3953c0-2.4204 2.6472-9.2697 10.282-26.605 15.598-35.414 36.162-60.617 65.218-79.929 22.362-14.863 45.327-26.204 66-32.591 42.153-13.024 77.557-18.306 114.64-17.104 47.334 1.5349 71.915 8.0276 103.86 27.432 17.043 10.353 29.617 21.76 41.547 37.691 7.0118 9.3634 14.448 24.026 14.453 28.5 3e-3 2.2566 1.2992 5.6315 3.6491 9.5 9.672 15.922 21.367 42.362 38.029 85.979 2.4119 6.3136 4.453 9.9159 6.8755 12.135 4.2812 3.9214 4.4137 6.7296 0.8125 17.218-4.0223 11.715-14.888 36.832-16.731 38.675-1.8559 1.8559-1.915 1.4606 2.918 19.493 5.0589 18.875 5.7444 23.695 5.2227 36.721-0.3509 8.7608-1.0559 13.445-2.7509 18.279-1.4961 4.2669-2.2186 8.4459-2.1032 12.164 0.211 6.7953-1.6496 11.682-6.7897 17.834-4.9111 5.8776-4.9905 6.0289-6.1288 11.675-0.53528 2.655-1.6436 7.7523-2.4628 11.327-1.2537 5.4705-2.9939 13.745-7.0453 33.5-0.33839 1.65-1.0076 6.15-1.4871 10s-1.3078 9.025-1.8405 11.5c-0.53277 2.475-1.2831 7.1842-1.6674 10.465s-0.82802 6.6557-0.98604 7.5-0.82174 5.8101-1.475 11.035c-0.6532 5.225-1.8028 13.775-2.5547 19-0.75185 5.225-1.6493 11.975-1.9943 15s-1.0158 7.075-1.4906 9c-0.47483 1.925-1.3663 6.042-1.981 9.1489-2.0102 10.159-9.3773 17.175-20.839 19.845-5.8356 1.3593-29.609 1.7023-37.931 0.5473l-5.25-0.72868v7.85c0 7.4395 2.5326 32.772 3.4199 34.208 0.22837 0.36952 0.6982 2.6873 1.044 5.1507 1.0895 7.7597 7.4632 29.979 10.865 37.876l3.267 7.5841 22.005 11.009c12.103 6.0552 33.231 16.515 46.952 23.244 46.074 22.595 69.05 35.627 91.447 51.869 2.475 1.7948 5.0401 3.2933 5.7002 3.3301 0.66013 0.0368 7.6494-6.3456 15.532-14.183zm-633.79-55.75c0.69018-6.0601 1.4206-9.5615 6.6759-32 3.0924-13.204 10.139-35.981 13.457-43.5 0.72815-1.65 3.179-7.725 5.4464-13.5 4.7704-12.15 19.775-43.057 24.647-50.769 1.8309-2.8982 3.329-5.5073 3.329-5.798s1.5892-3.013 3.5316-6.0494c6.7517-10.555 25.399-48.965 30.285-62.383 11.096-30.47 17.819-54.184 21.642-76.332 0.83833-4.8573 1.7458-9.19 2.0165-9.6281 0.75848-1.2272 5.5089-42.908 5.5174-48.411 7e-3 -4.4642-0.55131-5.6113-6.6878-13.743-3.7524-4.9723-6.987-8.4003-7.3589-7.7986-0.36492 0.59044-0.93787-0.20027-1.2732-1.7571s-4.6964-8.2307-9.6913-14.831c-4.9948-6.6-10.971-14.857-13.281-18.349l-4.1998-6.3493-0.6782 10.349c-0.9216 14.064-2.6993 30.508-4.47 41.349-0.80846 4.95-1.8654 11.475-2.3488 14.5-1.8528 11.594-3.1212 18.382-3.571 19.11-0.25707 0.41594-0.88668 2.6988-1.3991 5.0731-5.4168 25.096-9.6772 40.659-14.048 51.317-0.45114 1.1-2.7159 7.175-5.0329 13.5-4.315 11.779-9.6197 24.34-19.216 45.5-13.249 29.212-19.078 43.112-24.729 58.967-15.593 43.745-24.191 86.794-26.604 133.2l-0.68373 13.149 4.7775 6.8412c2.6276 3.7626 5.7204 7.9827 6.8729 9.378l2.0954 2.5368 14.241-7.0736zm-13.825-19c0.58919-29.843 3.6133-52.097 10.871-80 8.5119-32.724 18.728-59.499 37.772-99 24.576-50.974 44.363-108.84 48.708-142.45 0.63625-4.9217 1.3434-9.2505 1.5715-9.6195 0.22809-0.36907 0.68582-2.8672 1.0172-5.5515 0.33135-2.6843 1.2225-9.1555 1.9804-14.38l1.3779-9.5-0.48359 9c-0.26597 4.95-1.1874 14.175-2.0475 20.5-1.7109 12.581-9.0908 47.898-10.343 49.5-0.43019 0.55-1.087 2.6916-1.4596 4.7591-1.1287 6.2632-6.2913 21.716-14.78 44.241-4.3538 11.552-16.64 39.907-23.831 55-15.114 31.719-28.335 65.346-34.795 88.5-4.1824 14.99-8.0785 31.629-8.6645 37.003-0.32972 3.0236-0.78411 6.1724-1.0098 6.9974-0.22565 0.825-0.9459 6.225-1.6006 12-1.664 14.679-1.593 13.924-2.8245 30-0.61097 7.975-1.2845 16.75-1.4968 19.5-0.21225 2.75-0.19489-4.675 0.0386-16.5zm53.218-134.1c4.7078-8.917 22.423-48.781 24.176-54.402 0.68606-2.2 1.5669-4.45 1.9575-5 1.2752-1.7958 14.962-41.401 15.685-45.386 0.24169-1.3328 0.80061-3.1412 1.242-4.0186 0.44144-0.87742 2.0186-6.5453 3.5048-12.595s3.7728-15.05 5.0814-20c1.3086-4.95 3.3202-15.075 4.4703-22.5 1.1501-7.425 2.5958-16.65 3.2128-20.5 0.61697-3.85 1.4729-11.725 1.902-17.5 0.75547-10.167 0.76695-10.072 0.36177 3-0.48434 15.626-0.6924 17.576-3.9483 37-3.9452 23.537-11.484 54.093-16.406 66.5-0.43641 1.1-2.7047 7.625-5.0407 14.5-9.9171 29.187-33.714 83.029-38.407 86.902-0.95568 0.78844 0.0107-1.8369 2.2087-6zm-23.608 149.2c2.0508-1.4289 3.7383-3.1614 3.75-3.85 0.082-4.8082 12.51-34.496 17.902-42.765 3.53-5.4132 4.7032-7.2392 7.8964-12.291 5.9075-9.3465 19.154-29.653 27.3-41.85 17.321-25.935 33.553-57.779 40.274-79.009 0.89957-2.8416 2.1579-6.4416 2.7963-8 1.3407-3.273 1.1316-2.6081 3.8785-12.334 1.1651-4.125 2.5266-9.3 3.0256-11.5 5.4425-23.995 7.6204-35.438 9.4187-49.487 2.3746-18.552 4.4533-41.799 4.63-51.778l0.16401-9.2652-7.3818-9.5446c-4.06-5.2496-8.2818-10.98-9.3818-12.735l-2-3.1901-0.21657 6.5c-0.63413 19.032-5.069 50.291-10.783 76-3.1911 14.358-15.19 50.456-23.6 71-2.3641 5.775-8.7668 19.275-14.228 30-5.4614 10.725-15.415 30.3-22.119 43.5-16.291 32.076-26.352 58.001-33.959 87.5-3.6615 14.199-6.5946 29.643-6.5946 34.723v4.507l2.75-1.7669c1.5125-0.97181 4.4279-2.9361 6.4786-4.365zm15.771-49.988c0-1.2364 9.1272-24.156 12.897-32.385 1.7069-3.7263 3.1034-6.9728 3.1034-7.2144 0-0.24164 2.547-5.0679 5.66-10.725 3.113-5.6571 6.3274-11.636 7.143-13.286 1.6567-3.3513 10.624-19.572 14.651-26.5 7.9502-13.68 27.761-56.722 31.528-68.5 0.70365-2.2 1.6021-4.45 1.9965-5 0.63026-0.87882 5.6547-17.491 13.46-44.5 1.3509-4.675 2.4802-7.9112 2.5094-7.1915 0.13304 3.2706-11.642 47.1-13.068 48.642-0.48326 0.5225-0.87865 1.5716-0.87865 2.3314s-3.417 10.007-7.5933 20.55c-8.4563 21.347-23.491 52.161-33.992 69.669-6.288 10.483-20.139 36.421-24.031 45-4.2496 9.368-6.3058 14.164-9.3253 21.75-3.0724 7.719-4.059 9.5078-4.059 7.3598zm-2.0879 42.451c4.1733-2.4413 8.7129-5.0332 10.088-5.7598s6.2299-3.5666 10.789-6.3112c7.8762-4.7418 8.362-5.2411 9.7602-10.031 2.0146-6.9018 16.864-35.862 24.335-47.459 3.3659-5.225 7.9593-12.65 10.208-16.5s6.0876-10.15 8.5318-14c12.577-19.811 24.88-48.945 33.361-79 3.6679-12.999 9.7585-40.477 10.528-47.5 0.33156-3.025 1.0112-8.425 1.5104-12s1.146-10.325 1.4374-15c0.29142-4.675 0.96828-11.875 1.5041-16 0.53587-4.125 0.98819-10.051 1.0052-13.168 0.0341-6.2607 0.7704-9.1108 2.1357-8.267 1.4022 0.8666 1.0478-0.71715-0.43735-1.9545-0.73291-0.61063-4.4454-5.1012-8.25-9.9791l-6.9174-8.8688-0.66739 10.369c-1.9424 30.178-3.63 45.573-7.3849 67.369-4.4746 25.974-9.5741 45.088-18.142 68-5.6567 15.128-19.444 45.076-23.144 50.272-1.0997 1.5444-3.4477 5.49-5.2177 8.768-1.77 3.278-3.9778 6.86-4.9061 7.96-0.92834 1.1-3.4048 4.7-5.5032 8s-4.3152 6.45-4.9262 7c-0.61102 0.55-2.8882 3.925-5.0605 7.5-2.1723 3.575-4.4639 7.0242-5.0926 7.6648s-3.2979 4.6907-5.9317 9c-2.6338 4.3093-6.4643 10.31-8.5121 13.335-6.5928 9.7388-20.947 39.201-21.044 43.194-0.0175 0.71808-0.6925 2.1791-1.5 3.2467-1.5174 2.0062-1.9688 4.5589-0.80609 4.5589 0.36416 0 4.0767-1.9974 8.25-4.4388zm413.53-15.811c-0.38264-1.2375-1.4741-3.825-2.4255-5.75-1.8528-3.7488-2.6175-6.4301-3.5944-12.602-0.33932-2.1438-0.77654-4.1585-0.9716-4.4772s-0.82294-3.4686-1.3953-7c-0.57234-3.5314-1.2748-7.5456-1.561-8.9206-1.316-6.3223-3.473-29.358-3.4816-37.183-0.0105-9.5106 0.31678-9.0342-7.1105-10.347l-3.6008-0.63663-0.58628 4.9502c-1.278 10.79 4.5459 50.293 10.508 71.278 2.0261 7.1305 2.4084 7.7108 6.714 10.189 5.9118 3.4033 8.4549 3.5726 7.5047 0.49943zm-371.84-8.5868c42.236-22.954 60.177-38.562 71.661-62.341 6.8927-14.273 7.1684-14.938 11.939-28.822 6.5964-19.196 14.552-50.976 17.399-69.5 0.25357-1.65 1.117-6.3934 1.9188-10.541 1.919-9.9272 6.2158-47.667 6.9402-60.959l0.57228-10.5-11.884-9.4433-0.53187 2.7216c-0.29253 1.4969-0.80613 8.1217-1.1413 14.722-0.54727 10.775-2.6817 29.471-5.4232 47.5-4.4275 29.118-20.344 85.741-27.406 97.5-0.66067 1.1-2.2695 4.7-3.5751 8-1.3056 3.3-2.7046 6.45-3.1087 7s-3.4076 6.2057-6.6744 12.568c-5.6664 11.036-11.772 20.932-12.915 20.932-0.29344 0 0.35374-1.4625 1.4382-3.25 2.604-4.2923 12.032-22.992 17.21-34.136 10.461-22.512 22.536-58.028 26.389-77.614 0.27045-1.375 1.6455-8.35 3.0556-15.5 3.0154-15.289 6.1307-33.753 7.0019-41.5 1.4736-13.103 2.4318-25.078 2.6258-32.817l0.20854-8.317-5.3656-5.433c-2.951-2.9882-5.674-5.433-6.051-5.433s-0.9609 5.2875-1.2975 11.75c-1.1754 22.568-3.7522 47.226-6.0872 58.25-0.29125 1.375-1.1487 5.875-1.9054 10-8.3348 45.435-27.793 94.681-51.853 131.23-11.039 16.771-18.269 28.886-23.791 39.87-4.4657 8.8818-8.9934 18.897-8.5432 18.897 0.16221 0 4.2999-2.1766 9.195-4.8368zm35.9-39.163c0.33992-0.55 0.81648-1 1.059-1s0.44098 0.45 0.44098 1-0.47656 1-1.059 1-0.7809-0.45-0.44098-1zm319.72 38.75c-2.0487-3.4222-4.3609-11.891-6.2111-22.75-1.1654-6.8401-1.5435-8.9208-2.3622-13-1.5755-7.8505-3.6937-32.004-3.2175-36.689 0.48654-4.7862-0.32595-5.7623-5.5842-6.7088l-3.6574-0.65833-0.6643 4.2779c-1.0903 7.0213-5.4295 29.939-6.5849 34.778-0.59093 2.475-1.7164 6.9977-2.501 10.05-0.78461 3.0527-1.6212 7.6264-1.859 10.164-0.4887 5.2134-0.36053 5.3385 13.924 13.594 19.878 11.488 21.885 12.232 18.717 6.942zm50.204-83.176c12.069-3.6322 14.744-8.3866 17.64-31.351 1.0904-8.6476 3.1618-23.823 4.6031-33.723 1.4413-9.9 2.6689-18.882 2.728-19.959 0.10046-1.8324-0.44286-1.931-8.3926-1.5233-17.18 0.88107-36.609 0.15569-44.5-1.6615-17.095-3.9364-20.121-4.7165-21.5-5.542-1.3581-0.81315 3.3729-0.40382 9.5 0.82196 13.136 2.6279 39.02 3.5044 57.475 1.9461 8.1201-0.68563 9.0178-1.1311 9.4833-4.7063 0.17013-1.3067 0.65371-4.8062 1.0746-7.7768 0.48089-3.3939 0.40854-5.1805-0.19468-4.8077-0.52798 0.32631-6.2221 1.4934-12.654 2.5936-10.262 1.7554-13.499 1.8877-26.439 1.0803-15.905-0.99236-27.984-2.2233-43.745-4.4582-5.5-0.77989-12.475-1.6758-15.5-1.991-10.9-1.1356-18.543-2.6536-20.81-4.1334-3.6516-2.3831-2.5835-6.0941 2.5872-8.9885 2.3523-1.3168 4.8976-2.3941 5.6564-2.3941 1.7652 0 0.90801 3.6551-1.0318 4.3994-0.7708 0.29578-1.4015 0.90858-1.4015 1.3618 0 1.1227 8.2137 3.2388 12.572 3.2388 1.9486 0 5.4296 0.4189 7.7356 0.9309 5.778 1.2828 29.787 3.8876 50.193 5.4456 11.903 0.90874 19.848 1.0166 26.5 0.3596 5.225-0.51605 11.4-0.87562 13.721-0.79903 3.8573 0.12723 4.2722-0.10122 4.8102-2.6489 1.422-6.7328 1.455-6.5055-0.85147-5.8554-9.5846 2.7017-13.179 3.318-20.18 3.4599-7.5494 0.15306-48.422-2.4809-49.105-3.1646-0.17507-0.17507 14.177-0.29802 31.893-0.27322s33.802-0.29456 35.746-0.70968c3.484-0.74412 3.5522-0.85695 4.8326-8 0.71433-3.9849 2.4384-11.52 3.8313-16.745 3.8688-14.513 4.166-16 3.1969-16-0.49208 0-0.89469 0.44085-0.89469 0.97968 0 1.5402-7.5976 5.0203-10.96 5.0203-1.6719 0-3.0398-0.35428-3.0398-0.78729s-1.3232-0.88812-2.9404-1.0114c-6.1167-0.46607-10.68 10.272-8.1926 19.279 1.4308 5.182 0.87961 5.4093-1.9708 0.81252-3.1879-5.1409-3.3596-14.855-0.33431-18.908 3.6366-4.8708 6.9298-6.6536 12.903-6.985 7.3559-0.40809 14.322-4.2294 20.734-11.374 5.6791-6.3276 7.6367-9.6756 7.324-12.526-0.84421-7.6939-2.1049-13.327-5.0355-22.5-1.845-5.775-4.9861-16.125-6.9802-23s-4.0386-13.265-4.5433-14.199c-0.50469-0.93461-1.1449-2.9596-1.4228-4.5s-1.4382-5.2757-2.5786-8.3007c-10.472-27.779-12.048-34.268-10.087-41.542 2.0016-7.4247 14.144-17.41 32.734-26.92l7.1096-3.6369-4.7638-12.7c-14.637-39.023-23.934-59.587-38.14-84.367-2.7327-4.7669-5.0903-10.201-5.239-12.076-0.65845-8.2985-10.25-23.51-22.548-35.757-35.153-35.011-74.24-48.672-138.23-48.311-21.101 0.11895-34.021 1.0536-46.302 3.3497-2.75 0.51414-9.05 1.6712-14 2.5713-21.712 3.948-44.916 10.878-65.51 19.566-7.4624 3.1479-29.01 14.621-31.49 16.766-1.1 0.95184-5.2653 3.8658-9.2561 6.4754-31.066 20.314-54.55 51.304-69.729 92.016-4.926 13.212-5.0088 13.801-2.1923 15.567 1.3155 0.825 4.9094 3.1875 7.9865 5.25 3.077 2.0625 5.7819 3.75 6.0109 3.75 0.22894 0 1.1987-2.8125 2.155-6.25 7.2553-26.079 18.034-47.52 35.05-69.719 6.9987-9.1305 13.966-16.712 8.4357-9.1792-14.089 19.19-20.09 28.502-26.458 41.056-3.0263 5.9656-5.5024 11.113-5.5024 11.44s-1.0723 2.9691-2.383 5.8729c-3.2328 7.1624-7.2809 19.377-8.0882 24.405-0.59303 3.6933-0.37604 4.3501 2.0736 6.277 1.5047 1.1836 3.1677 2.0081 3.6954 1.8322 0.52775-0.17592 2.6192-4.5756 4.6478-9.777 9.9574-25.532 25.895-49.644 45.701-69.142 5.9695-5.8765 12.654-12.104 14.854-13.838s5.125-4.0345 6.5-5.1115c9.5335-7.4673 23.605-16.241 36-22.447 43.059-21.558 80.077-27.136 126-18.988 24.861 4.4109 52.276 16.425 66 28.924 4.6761 4.2585 12.158 12.82 11.649 13.33-0.16067 0.16066-2.553-1.8871-5.3163-4.5505-18.917-18.234-50.853-31.493-89.504-37.16-9.7975-1.4366-38.375-0.84457-48.328 1.0011-12.455 2.3097-20.306 4.2741-30 7.5065-23.879 7.9622-48.313 20.934-65.835 34.951-20.253 16.202-25.483 21.445-38.476 38.568-9.8752 13.014-14.442 20.24-20.347 32.196-4.6756 9.4665-11.962 26.035-11.591 26.354 2.0049 1.7241 12.304 8.4497 12.939 8.4497 0.47244 0 1.3221-1.2375 1.8882-2.75 5.5541-14.84 18.978-38.503 30.612-53.96 3.1255-4.1529 11.561-13.628 18.746-21.057 25.557-26.423 53.804-42.659 91.563-52.628 10.607-2.8004 22.642-4.0573 38.5-4.0208 19.443 0.0447 28.235 1.7166 46.841 8.9081 8.7988 3.4008 22.659 11.394 22.659 13.067 0 0.25472-3.5823-1.338-7.9606-3.5394-15.581-7.8338-31.82-12.691-50.061-14.972-12.201-1.526-35.814 0.31472-49.765 3.8795-12.832 3.279-31.05 9.9327-41.214 15.053-24.661 12.422-53.362 37.266-69.428 60.096-3.2603 4.633-7.0853 9.9794-8.5 11.881-6.519 8.7624-22.333 39.755-21.262 41.669 0.38112 0.68102 7.619 6.0354 16.084 11.899 8.4651 5.8632 18.139 12.63 21.498 15.037 3.3589 2.4074 8.239 5.8532 10.845 7.6574 20.102 13.918 36.762 27.667 36.762 30.338 0 0.62293-0.84242 1.895-1.872 2.8268-1.7753 1.6067-2.0982 1.5206-6.25-1.6664-18.42-14.14-27.416-20.86-41.237-30.806-17.46-12.564-41.087-28.914-47.821-33.093-2.3762-1.4743-11.52-7.6423-20.32-13.707-48.784-33.619-64.953-44.113-67.968-44.113-4.642 0 19.631 54.74 35.968 81.114 0.55 0.88792 1.9914 3.4162 3.2032 5.6184 2.5573 4.6475 9.891 15.572 15.284 22.767 2.0612 2.75 13.671 18.275 25.8 34.5 45.305 60.606 54.732 72.169 66.213 81.22 5.4185 4.2714 16.138 9.7804 19.032 9.7804 2.1895 0 11.968-5.9106 11.968-7.234 0-1.526 3.9525-0.72201 4.8374 0.98398 1.2347 2.3802 8.1054 22.802 13.205 39.25 2.3021 7.425 5.4449 17.1 6.9839 21.5s3.0646 8.9231 3.3902 10.051c1.6062 5.5656 29.425 26.237 60.583 45.017 24.021 14.478 56.227 30.584 74 37.006 26.8 9.6831 40.442 13.267 60.5 15.892 14.135 1.8502 38.934 1.9094 44.922 0.10735zm6.8774-66.556c-3.3038-2.8136-26.695-4.1536-35.771-2.0492-5.2715 1.2222-5.7681 0.44747-0.99236-1.548 7.696-3.2156 13.818-3.892 24.496-2.7069 8.4157 0.93398 10.838 1.6153 14.72 4.1409l4.6472 3.023-3.1505-0.0896c-1.7328-0.0493-3.5102-0.39587-3.9497-0.77022zm-123.39-30.701c-0.72962-2.1632-1.2826-8.3664-1.2763-14.317 9e-3 -8.7181 0.42949-11.603 2.4763-17 6.3288-16.688 22.608-33.472 53.252-54.906 4.875-3.4098 9.0662-5.9972 9.3137-5.7497 0.49508 0.49507-13.001 11.923-21.677 18.356-7.6765 5.6913-20.946 17.905-26.477 24.37-8.4509 9.8781-13.872 21.69-14.422 31.422-0.15507 2.7455-0.50391 5.3509-0.77519 5.7898-0.27128 0.43895 0.04 3.9595 0.69176 7.8236 1.3384 7.9348 0.81817 9.9162-1.1058 4.2119zm-54.039-68.776c-2.5452-2.7724-8.8442-9.7426-13.998-15.489s-13.35-14.734-18.215-19.973c-11.299-12.167-23.773-29.299-22.361-30.71 0.25325-0.25326 1.9482 1.4728 3.7665 3.8356 1.8183 2.3629 6.485 7.6834 10.371 11.823 3.8855 4.14 10.01 10.665 13.61 14.5 11.151 11.879 20.779 23.489 26.662 32.15 3.1033 4.5685 5.4511 8.4409 5.2175 8.6052-0.23365 0.16438-2.5072-1.9694-5.0524-4.7419zm139.15 2.1748c-3.5458-1.7941-4.9881-5.3339-5.005-12.284-0.0228-9.3844 2.3011-15.586 8.705-23.231 3.0871-3.6852 5.763-6.888 5.9465-7.1171 0.18354-0.22916 0.58963-0.16074 0.90242 0.15205s-1.0095 2.7655-2.9384 5.4504c-5.5278 7.6943-7.1152 13.801-6.7756 26.064 0.14378 5.1924 0.17993 5.25 3.2981 5.25 1.734 0 8.1465-1.975 14.25-4.3888 15.426-6.1009 17.924-6.7978 23.342-6.5131 5.1436 0.27018 11.087 3.4704 9.4619 5.0952-0.52103 0.52103-4.2682 1.1836-8.327 1.4723-6.963 0.49532-12.928 2.2066-30.38 8.7151-7.948 2.9642-9.0312 3.0801-12.48 1.3349zm-214.82-15.466c-3.4355-7.986-7.08-19.562-7.6481-24.292-0.39317-3.2736 0.26695-1.934 2.4846 5.0421 1.661 5.225 4.1814 12.563 5.6008 16.306 2.9771 7.8515 2.6426 10.103-0.43733 2.9436zm-50.903-21.676c-8.9933-5.1424-16.38-13.965-21.831-26.074-3.8036-8.4497-5.3505-17.326-5.1454-29.525 0.16365-9.7348 0.42819-11.035 3.5239-17.32 1.8408-3.7371 3.1908-6.9172 3-7.0668-0.19083-0.14961-2.822-2.0968-5.847-4.327-12.251-9.0326-33.701-25.238-36.75-27.765-1.7875-1.4814-3.25-2.4831-3.25-2.226 0 4.7086 7.1596 35.302 10.384 44.372 1.5153 4.2622 10.769 26.564 13.633 32.856 1.0009 2.199 1.6316 4.1865 1.4014 4.4167-0.51615 0.51616-0.0326 1.2273-6.0618-8.9149-11.262-18.944-19.348-43.726-21.861-67-0.38608-3.575-1.1192-7.2834-1.6291-8.2408-0.947-1.7782-7.2945-6.8608-18.232-14.599-7.0963-5.0205-14.097-10.56-17.536-13.875-1.3208-1.2734-2.6217-2.0952-2.8908-1.8261-0.2691 0.2691 5.1853 11.751 12.121 25.515 6.9356 13.764 12.454 25.026 12.264 25.026-1.1783 0-17.995-23.721-20.914-29.5-4.8116-9.5267-11.677-24.374-11.685-25.269-3e-3 -0.40193-0.72734-2.0808-1.6088-3.7308s-1.9568-4.125-2.3897-5.5-1.1191-3.3187-1.5248-4.3193c-1.072-2.6438 23.679 15.069 60.029 42.96 1.65 1.266 10.925 8.2773 20.612 15.581 25.526 19.246 50.594 39.637 56.638 46.07 6.8997 7.3448 7.0973 10.786 1.135 19.762-7.2353 10.893-7.2057 15.741 0.16549 27.146 4.5793 7.0851 4.8993 9.9417 1.495 13.346-3.4068 3.4069-11.315 3.42-17.246 0.0286zm11.125-5.824c-0.39049-1.2375-2.1686-3.9574-3.9512-6.0443-3.5994-4.2136-4.4767-7.2736-4.4669-15.581 5e-3 -4.6348 0.79004-7.2091 4.4568-14.624 3.8955-7.877 4.2882-9.2482 3.1508-11-1.8533-2.8544-25.702-22.747-26.415-22.033-1.7822 1.7821-4.2752 14.848-4.1863 21.94 0.1241 9.904 1.1872 15.574 4.4436 23.699 5.1832 12.933 17.335 24.601 26.861 25.791 0.44956 0.0562 0.4979-0.91041 0.10741-2.1479zm299.17-26.301c-0.42719-1.0722-2.4914-6.6744-4.5872-12.449-2.0958-5.775-5.6218-15.225-7.8356-21-7.1278-18.594-11.284-30.517-10.282-29.496 1.4658 1.4943 16 37.298 17.656 43.496 0.22052 0.825 1.7644 5.5485 3.4309 10.497 1.6664 4.9482 2.887 9.4254 2.7123 9.9494-0.17467 0.52401-0.6671 0.0755-1.0943-0.9967zm-97.59-6.917c0-0.2781 1.6875-1.2105 3.75-2.072 7.0454-2.9428 18.146-10.535 22.297-15.251 7.2435-8.2275 10.546-18.21 6.0243-18.21-1.0607 0-2.5837 0.65509-3.3843 1.4558-2.7801 2.7801-9.2271 5.3752-16.437 6.6164-12.849 2.212-27.692-1.8292-36.483-9.9332l-4.377-4.0346-7.9448 2.0563c-6.2767 1.6245-9.6492 1.9294-16.062 1.4521-6.6327-0.49364-15.383-2.7186-15.383-3.9116 0-0.14955 4.4018-0.0951 9.7819 0.12097 10.818 0.43452 14.768-0.46741 32.218-7.3571 17.64-6.9647 30.838-8.2261 45.284-4.3281 10.427 2.8135 15.584 6.707 18.09 13.657l1.8736 5.1973-2.3324 6.2367c-3.3287 8.9009-13.608 19.214-23.915 23.993-7.4181 3.4398-13 5.2911-13 4.3117zm-1-32.098c0-0.31116-0.44402-1.3954-0.98672-2.4094-0.60831-1.1366-0.65865-3.5997-0.13127-6.4226 1.1526-6.1695-0.23853-8.1432-4.9551-7.03-1.8848 0.44484-3.7572 0.72549-4.1609 0.62366-0.40368-0.10184-3.1664 0.96657-6.1394 2.3742-5.9568 2.8204-6.5158 4.9621-2.0576 7.8832 4.6304 3.034 18.431 6.7636 18.431 4.981zm23-6.4343c2.6339-2.6339 2.5237-3.8305-0.42091-4.5695-3.536-0.8875-6.0079-0.15802-6.4022 1.8894-0.90762 4.7129 3.1834 6.3198 6.8231 2.6801zm-192.22 9.5051c4.0044-3.6977 7.9635-8.0434 8.798-9.6572s3.2584-5.2345 5.3865-8.0462c3.5234-4.6553 17.895-32.278 22.992-44.193 2.5637-5.9924 3.779-5.5582 1.4463 0.51672-11.578 30.153-26.285 54.935-37.363 62.96-7.6679 5.5546-8.2272 4.8532-1.2602-1.5803zm123.24-21.926c1.7297-2.2414 14.397-8.2843 25.133-11.99 10.112-3.4903 25.57-4.4632 35.108-2.2099 8.295 1.9595 15.54 5.5418 20.777 10.273 4.6314 4.1842 5.4147 6.747 0.90147 2.9494-3.4702-2.92-13.992-8.009-19.655-9.5064-2.0803-0.55007-7.1573-1.2981-11.282-1.6623-13.709-1.2103-41.752 5.7491-50.483 12.528-1.8802 1.4599-1.9061 1.4402-0.5-0.38184zm-130.52-15.367c9.8665-5.265 17.596-11.236 28.057-21.675 11.669-11.644 24.921-29.618 31.62-42.889 1.6247-3.2182 3.2137-5.5915 3.5311-5.2742 0.31736 0.31737 0.15499 1.1504-0.36084 1.8512-0.51582 0.7008-2.0079 3.9742-3.3158 7.2742-1.3079 3.3-4.2024 8.925-6.4322 12.5-15.382 24.662-30.343 39.323-49.091 48.109-10.558 4.9477-13.215 5.016-4.0085 0.10307zm231 0.40421c-3.3-1.8361-11.164-6.3149-17.476-9.9529-6.3118-3.638-13.962-7.5615-17-8.7189-3.0382-1.1574-6.2044-2.4553-7.036-2.8843-6.2986-3.249-14.069-4.4878-27.988-4.4619-14.074 0.0262-14.823 0.13651-25.5 3.7558-10.512 3.5634-22.289 9.5884-34.766 17.785-7.1076 4.6695-6.1964 2.5352 2.4253-5.6811 11.192-10.665 21.319-16.713 36.051-21.527 16.058-5.2476 31.304-5.3942 48.163-0.46323 9.76 2.8546 13.368 4.3576 28.002 11.665 19.32 9.647 28.623 15.907 28.623 19.261 0 5.5132-4.978 5.964-13.5 1.2225zm-252.5-8.4509c0-0.41996 1.4961-1.3046 3.3247-1.9658 9.3978-3.3983 30.064-22.035 41.805-37.7 10.439-13.927 20.87-29.512 20.87-31.181 0-0.24136 1.4625-2.403 3.25-4.8037s5.2138-7.0987 7.6139-10.44c7.0894-9.8693 6.5556-6.9343-0.75927 4.1749-3.712 5.6375-7.0252 10.999-7.3627 11.915-0.33746 0.91549-3.5581 6.0905-7.157 11.5-16.731 25.148-30.612 40.513-46.238 51.179-6.2684 4.2788-15.347 8.6099-15.347 7.3218zm-17-20.312c9.8317-5.5915 33.041-27.082 43.161-39.966 23.708-30.182 46.336-50.803 62.484-56.942 3.8568-1.4664 3.332-1.0581-9.1751 7.1376-8.146 5.338-14.329 10.563-24.023 20.303-7.1798 7.2131-15.016 15.782-17.413 19.043-14.59 19.842-41.748 45.507-54.937 51.918-5.815 2.8264-5.8815 1.7977-0.0964-1.4924zm-21.962-5.4808c0.0208-0.47984 1.9908-2.4013 4.3778-4.27 5.4545-4.27 21.377-20.416 38.068-38.602 26.992-29.41 38.43-39.908 55.494-50.936 14.293-9.2365 32.707-16.383 51.522-19.994 7.4459-1.4291 23.328-1.6321 29.91-0.38229l6.91 1.3122-14.91 0.25455c-24.127 0.4119-44.003 5.7273-65.352 17.477-20.479 11.271-38.049 26.646-66.558 58.244-15.517 17.198-39.584 39.701-39.462 36.897zm316.6-110.21c-1.5226-9.5215-10.451-22.577-20.538-30.03-1.7619-1.3019-2.9752-2.5954-2.6961-2.8744 0.57466-0.57466 4.9147 2.8766 11.72 9.3201 5.389 5.1024 12.406 18.103 12.776 23.671 0.32453 4.8832-0.47604 4.8279-1.262-0.0872zm-16.333-1.9128c-7.9138-12.53-26.781-27.427-47.725-37.683-19.196-9.4002-46.376-17.463-66.29-19.664-6.163-0.68114-10.963-1.6314-10.666-2.1116s1.2893-0.65427 2.2055-0.38669c0.91621 0.26757 4.8158 0.74098 8.6658 1.052 13.747 1.1106 28.363 3.7633 41.795 7.5856 28.765 8.1851 54.431 24.052 67.564 41.768 4.5275 6.1072 7.84 12.189 6.6387 12.189-0.24871 0-1.2338-1.2375-2.1891-2.75zm79.154 239.64c2.3728-12.372 1.2675-22.57-5.1661-47.672l-1.609-6.2778-2.094 1.8926c-1.1517 1.0409-4.0066 2.715-6.344 3.7202s-4.25 2.3561-4.25 3.0019c0 0.6458 0.87266 3.3717 1.9392 6.0576 1.0666 2.6858 4.5041 12.983 7.6389 22.883s6.0872 18.428 6.5608 18.95c0.47361 0.5225 0.86111 2.06 0.86111 3.4167 0 4.1532 0.97433 1.7908 2.4633-5.9726zm-11.509-57.339c1.6873-2.0331 0.89914-5.9672-1.2787-6.3825-1.0034-0.19133-2.6216 0.37356-3.5959 1.2553-0.97432 0.88175-2.6283 1.4837-3.6756 1.3377-1.0473-0.14604-1.9041 0.18448-1.9041 0.73448s1.0546 1.0186 2.3435 1.0414c1.2889 0.0228 2.7738 0.81026 3.2997 1.75 1.1688 2.0885 3.2041 2.2 4.8111 0.26367zm8.2812-18.805c4.9438-11.172 11.764-29.689 11.764-31.938 0-1.9928-2.7703-0.68651-18.5 8.7235-15.613 9.3402-19.63 12.716-19.022 15.983 0.20294 1.0898 0.40341 2.5746 0.44549 3.2996 0.0551 0.94988 0.8462 0.77003 2.8318-0.64381 4.8566-3.4582 20.887-3.7486 22.003-0.39858 0.29426 0.88279-1.498 1.2395-6.4252 1.2787-8.775 0.0698-15.787 2.5973-15.948 5.7484-0.13962 2.7361 1.234 3.758 3.0384 2.2605 2.1024-1.7448 12.481-0.18863 13.9 2.0843 0.63629 1.0189 1.4052 1.8525 1.7087 1.8525 0.3035 0 2.1947-3.7125 4.2026-8.25z"/>
</svg>
