<svg width="1024" height="1024" version="1.1" viewBox="0 0 1024 1024" xml:space="preserve" xmlns="http://www.w3.org/2000/svg"><path d="m481 922.27c-60.303-5.5655-110.71-19.468-161.55-44.556-42.14-20.795-77.284-45.654-110.79-78.366-37.565-36.678-63.686-72.108-86.033-116.7-23.635-47.155-36.329-89.792-43.275-145.34-2.2853-18.278-2.6082-74.23-0.52803-91.5 6.0163-49.946 15.119-85.35 32.357-125.84 19.749-46.391 44.525-84.606 80.094-123.54 46.931-51.367 111.19-93.241 178.07-116.04 87.896-29.96 195.51-30.717 283.38-1.9927 22.418 7.3288 36.141 12.853 57.1 22.988 23.515 11.37 32.803 16.646 53.669 30.487 97.575 64.724 162.93 163.67 183.9 278.43 5.7157 31.271 8.236 80.524 5.6836 111.07-6.7782 81.118-30.488 148.02-75.716 213.64-29.951 43.458-74.835 87.24-118.4 115.49-35.599 23.086-66.692 38.36-102.47 50.337-29.4 9.8413-52.411 15.111-87.5 20.038-13.409 1.8829-72.508 2.8094-88 1.3796zm29-9.8216c0-2.8888-4.7375-23.377-7.5898-32.823-7.6884-25.463-9.4089-27.046-36.162-33.265-7.0113-1.63-21.748-5.0562-32.748-7.6138-76.799-17.856-129.69-45.43-157.86-82.292-7.1539-9.3628-14.724-23.797-18.002-34.325-0.42813-1.375-4.0276 0.42044-19.831 9.892-17.088 10.241-41.147 25.712-46.058 29.617-0.9625 0.7653-1.75 1.8124-1.75 2.327 0 1.523 26.598 28.893 38.5 39.617 29.398 26.489 68.517 52.247 104.1 68.545 51.523 23.599 101.27 36.423 155.4 40.058 17.754 1.1922 22 1.2431 22 0.26407zm30.722 0.0537c0.93889-0.59653 0.66154-3.2568-1.1972-11.483-7.8431-34.71-17.542-60.071-26.943-70.448-7.9126-8.7344-14.693-11.173-55.081-19.807-42.005-8.9798-72.691-19.002-99.738-32.575-27.348-13.724-48.793-31.135-60.564-49.172-4.7713-7.3112-11.198-21.76-11.198-25.176 0-0.84274-0.18541-1.5323-0.41202-1.5323-0.56535 0-20.893 12.911-21.886 13.901-0.43915 0.43763 0.33922 3.8182 1.7297 7.5124 11.749 31.215 38.89 56.582 83.069 77.638 29.331 13.98 52.101 21.212 107 33.988 19.833 4.6153 30.847 8.2606 37.335 12.357 8.3097 5.2457 15.285 19.715 21.228 44.038 1.6039 6.5635 3.2037 14.101 3.5551 16.75l0.63891 4.8164 10.621-0.0153c5.8416-8e-3 11.171-0.36469 11.843-0.79171zm26.599-1.8302 2.8215-0.55307-0.64298-92.31 2.8324-5.7707c1.8515-3.7723 6.6143-9.7546 13.753-17.275 6.0064-6.3272 12.03-13.261 13.385-15.408 3.8099-6.0353 5.0343-12.212 3.6484-18.404-1.2277-5.486-9.6482-24.267-10.743-23.962-1.0501 0.29251-19.099 34.984-23.839 45.821-4.6195 10.561-8.4126 23.467-11.001 37.43-0.85937 4.6364-1.8267 8.6864-2.1496 9-0.7332 0.7121 0.35325-13.084 1.7664-22.43 2.8751-19.015 6.7409-30.772 18.084-55 9.1705-19.587 16.294-38.411 21.683-57.3 2.244-7.8652 4.0799-14.45 4.0799-14.633s-3.9738-1.2951-8.8306-2.4719c-16.465-3.9892-29.53-9.8518-52.169-23.408-15.806-9.4649-98.865-64.664-110.55-73.468-17.967-13.538-27.369-32.663-31.844-64.771-0.81708-5.8628-1.6463-10.82-1.8428-11.017-0.19644-0.19643-2.5452 0.30134-5.2194 1.1062s-6.0282 1.4629-7.4533 1.4623l-2.5911-1e-3 0.3324 20.751c0.18281 11.413-0.18159 25.926-0.80979 32.251-1.3286 13.377-5.8011 36.602-9.5324 49.5-4.8459 16.751-19.761 49.261-28.327 61.744-8.6341 12.582-8.4416 11.18-2.3138 16.855 2.942 2.725 6.992 5.8624 9 6.9721l3.651 2.0176-10-0.47224c-10.124-0.47812-16.335-2.0836-25.599-6.6176l-4.599-2.2508-8.6665 6.7894c-9.6809 7.5841-9.3887 6.5035-4.6234 17.1 14.227 31.634 52.353 57.91 111.99 77.182 15.02 4.8538 41.5 11.78 63.898 16.714 9.0186 1.9865 20.179 4.9803 24.802 6.6528 9.3908 3.398 18.577 9.7116 22.593 15.528 9.1664 13.276 22.086 50.737 28.333 82.148 0.45382 2.2822 0.69464 2.3395 7.1726 1.7079 3.6866-0.35944 7.9726-0.90242 9.5245-1.2066zm-78.023-156.65c-16.082-30.353-40.618-85.038-52.966-118.05-6.156-16.457-15.472-46.155-14.008-44.659 0.26782 0.27387 6.56 15.123 13.983 32.998s19.803 47.125 27.511 65c7.7085 17.875 18.763 43.502 24.565 56.95 5.8025 13.447 10.434 24.566 10.291 24.709-0.14243 0.14242-4.3618-7.485-9.3764-16.95zm99.92 153.7 8.7179-1.6-0.58523-25.652c-0.6959-30.503 0.44391-45.839 3.981-53.565 1.7241-3.7659 4.8865-7.4803 11.606-13.632 9.6147-8.8017 15.673-16.596 19.196-24.698 2.8836-6.6312 3.578-18.946 1.5205-26.968-3.087-12.036-15.202-33.063-25.917-44.981-4.5054-5.0115-5.6985-5.8698-6.255-4.5-0.37821 0.93093-1.5294 4.0904-2.5581 7.0212l-1.8705 5.3286 5.9108 12.171c7.1785 14.782 9.089 20.315 9.7672 28.284 1.0868 12.771-3.8581 21.602-21.421 38.255-14.432 13.685-15.194 15.136-15.284 29.132-0.13132 20.44 2.3862 77 3.4274 77.002 0.57524 1e-3 4.9689-0.71798 9.7638-1.598zm32.489-6.9212c54.085-13.791 111.24-41.455 154-74.545 6.7088-5.1907 12.106-9.7118 11.993-10.047-0.43153-1.2869-28.894-19.998-43.204-28.403-8.25-4.8452-30.75-16.778-50-26.517-19.25-9.7392-43.505-22.267-53.9-27.839s-19.069-10.131-19.274-10.131 1.47 2.8125 3.7239 6.25c9.6918 14.782 15.977 32.118 15.936 43.958-0.0566 16.422-10.442 34.562-27.144 47.414-9.0062 6.9301-9.1664 7.7637-9.4418 49.128-0.21894 32.879-0.15317 34.25 1.6432 34.25 1.0292 0 8.0781-1.5827 15.664-3.5172zm185.91-101.31c27.265-24.844 55.012-58.155 74.694-89.673 11.125-17.816 27.136-49.868 34.111-68.289 11.484-30.326 19.374-61.289 24.669-96.81 2.6625-17.86 3.7187-63.189 1.9818-85.052-3.661-46.081-12.781-85.756-29.273-127.35-33.603-84.746-96.858-157.24-179.3-205.5-44.656-26.138-97.792-44.872-148.5-52.356-28.828-4.2544-34.874-4.6448-71.5-4.6159-37.472 0.02961-46.435 0.67736-76.5 5.5287-54.331 8.767-107.92 29.252-156.5 59.826-27.116 17.065-60.676 44.72-82.352 67.862-29.108 31.076-48.445 59.012-68.011 98.256-23.139 46.409-35.071 86.479-41.837 140.5-2.1967 17.539-2.512 76.702-0.50099 94 7.7006 66.239 29.046 125.68 64.988 180.97 8.3017 12.77 19.491 27.881 26.922 36.356l3.7907 4.3234 6-4.6988c9.7578-7.6417 27.574-19.266 50.5-32.949 16.837-10.049 57.735-36.056 59.903-38.092 0.22147-0.20801-0.90353-1.3566-2.5-2.5525-7.1859-5.3828-15.46-15.133-18.781-22.13-4.335-9.1351-5.6218-15.388-5.6218-27.315 0-16.097 3.8489-29.99 13.51-48.765 3.5338-6.8674 4.3022-9.1643 3.421-10.226-0.71431-0.8607-0.90215-3.1427-0.50565-6.1433 0.64494-4.8808 0.76994-8.2609 0.51955-14.05-0.0779-1.8016 0.5046-4.2766 1.2945-5.5 0.97227-1.5059 1.1849-3.1446 0.65832-5.0732-0.42782-1.5668-0.66363-11.242-0.52401-21.5 0.2059-15.128 0.56889-19.249 1.9217-21.816 1.4079-2.6717 1.5017-4.0639 0.60182-8.9317-0.58631-3.1716-0.8075-8.0474-0.49153-10.835 0.31596-2.7876 0.97395-9.5684 1.4622-15.068 0.48824-5.5 1.7408-12.475 2.7836-15.5l1.8958-5.5-5.8665-7.9617c-3.2266-4.3789-11.088-14.279-17.47-22-6.382-7.7211-11.749-14.234-11.926-14.474-0.56334-0.76044-24.533 12.062-30.832 16.493-7.4959 5.2734-16.87 15.282-21.318 22.762-7.1989 12.105-11.346 29.468-9.6258 40.303l0.77435 4.8776 1.7057-6.5c3.9076-14.891 13.415-31.842 24.692-44.022 6.0199-6.5022 11.745-10.925 20.569-15.89 6.1973-3.4868 7.8516-3.0284 2.4189 0.67016-10.332 7.0343-17.382 18.001-21.818 33.939-2.8812 10.353-3.1226 30.181-0.50572 41.533 0.98019 4.2518 2.1388 7.9509 2.5747 8.2203 0.43589 0.2694 1.7936-3.4343 3.0172-8.2304 6.4897-25.439 12.292-39.349 21.271-50.99 3.8172-4.9489 14.769-15.231 16.224-15.231 0.36357 0-2.0173 3.1119-5.2908 6.9154-12.373 14.376-17.932 26.903-26.669 60.098-6.5647 24.942-9.1617 32.242-14.499 40.76-4.4863 7.1594-3.958 7.1293 6.6683-0.38033 14.577-10.301 31.446-34.845 40.402-58.783 1.183-3.1617 2.3098-5.5896 2.5042-5.3953 0.73034 0.73034-5.8627 21.481-9.5216 29.968-9.3584 21.707-21.062 35.796-37.027 44.573-4.4896 2.4683-13.602 5.8054-33 12.085-0.825 0.26709 0.975 0.84357 4 1.2811 6.4009 0.92574 20.054-0.4886 26.826-2.7789 17.294-5.8492 34.927-19.103 40.837-30.693 4.3316-8.4962 3.736-4.1202-0.68661 5.0448-3.8903 8.062-5.484 10.027-18.896 23.305-15.337 15.183-23.455 25.936-29.283 38.788-8.5874 18.939-9.0329 39.137-1.2078 54.753 2.3396 4.6688 9.4108 14.528 9.4108 13.121 0-0.34082-1.0964-3.8916-2.4364-7.8907-3.3326-9.9457-3.9378-15.844-2.6127-25.462 2.2356-16.228 7.957-29.081 22.797-51.212 5.7524-8.5784 10.809-15.972 11.238-16.43 0.42852-0.45794-1.4007 5.2363-4.065 12.654-7.3924 20.581-9.2101 30.941-8.6284 49.179 0.75834 23.776 4.8475 34.877 17.439 47.343 4.0791 4.0384 7.6065 7.1526 7.8386 6.9205 0.23213-0.23214-0.89507-2.8613-2.5049-5.8426-4.8892-9.0545-7.9876-19.804-8.5182-29.552l-0.48266-8.8681 1.529 6.5c3.0166 12.824 5.4022 19.602 9.1244 25.925 3.8081 6.4689 13.22 16.933 18.782 20.882l3 2.1299-4.2045 0.0317c-9.4565 0.0712-26.022-8.9162-33.696-18.282-4.6076-5.623-9.0475-15.237-11.631-25.187-2.788-10.737-3.5744-30.151-1.6773-41.411 1.6588-9.8454 0.81495-9.4292-4.8878 2.4107-9.3996 19.515-9.7364 42.962-0.85085 59.25 1.8753 3.4375 3.0806 6.2458 2.6786 6.2406-2.4066-0.0309-11.673-6.6927-16.224-11.663-19.574-21.381-16.346-56.421 8.2548-89.6 3.6757-4.9574 5.2393-7.7485 4.0929-7.3061-11.128 4.2945-31.956 4.647-43.149 0.73032-3.4615-1.2113-8.4115-3.5324-11-5.158l-4.7064-2.9557 8.2008-0.019c15.717-0.0364 25.948-3.8273 35.506-13.156 5.7563-5.6185 10.359-13.823 12.763-22.752 0.89398-3.32 0.69708-4.5963-1.4242-9.2317-4.0045-8.7507-5.8618-22.22-5.223-37.879 0.30286-7.425 1.2488-15.975 2.102-19 2.2936-8.1317 1.9793-8.1833-3.047-0.5-10.72 16.387-14.676 28.981-14.189 45.171 0.17105 5.6833 0.0408 10.332-0.28938 10.331-1.1758-4e-3 -6.9027-12.61-8.6329-19.002-2.854-10.544-2.2498-24.273 1.5865-36.047 3.907-11.991 12.274-25.001 21.949-34.128l6.9872-6.5914-5.332-1.0708c-7.0068-1.4072-16.574-6.3076-21.901-11.218-3.5279-3.2519-10.557-14.116-10.557-16.316 0-0.3251 2.8154 0.95645 6.2565 2.8479 11.953 6.5704 23.905 7.8048 37.701 3.8938 5.6403-1.5989 15.043-5.9639 15.043-6.9834 0-0.31847-2.4476-4.2957-5.4392-8.8383-12.238-18.584-31.298-56.211-40.548-80.049-5.1475-13.265-5.882-17.524-3.6183-20.979 2.948-4.4993 3.5684-4.2634 34.13 12.979 11.693 6.5973 19.044 10.198 19.456 9.531 0.36443-0.58967 0.73452-3.6814 0.82242-6.8706 0.40804-14.806 10.722-43.562 22.69-63.264 28.195-46.414 84.571-83.465 154.01-101.21 28.14-7.1932 50.157-9.7634 83.553-9.7537 35.927 0.0104 59.939 2.6558 86.662 9.5471 43.535 11.227 71.258 32.092 81.38 61.25 2.7732 7.988 3.4929 20.411 1.5444 26.656l-1.5229 4.8811 2.9755-2.8507c7.6773-7.3554 10.767-21.543 7.4977-34.432-2.1379-8.4293-7.1321-18.91-13.526-28.386-2.8185-4.1768-4.7368-7.5941-4.263-7.5941 1.5129 0 14.657 14.312 17.983 19.581 4.0296 6.3832 6.7829 14.307 7.636 21.975 1.2151 10.922-3.8231 23.943-12.698 32.818-3.45 3.45-4.1546 4.5026-2.1669 3.2371 11.452-7.2915 21.384-17.101 24.656-24.352 3.1486-6.9781 2.932-19.119-0.53016-29.716-1.4298-4.3764-2.4587-8.098-2.2864-8.2703 0.43158-0.43158 4.8841 6.3923 7.4404 11.403 6.4534 12.65 3.121 31.369-7.408 41.615l-4.306 4.1902 8.6041 1.2421c11.637 1.68 19.559 5.5207 27.023 13.101 7.0327 7.1428 13.304 18.908 16.352 30.676 2.1666 8.3667 2.9689 26.659 1.4614 33.323-0.7106 3.1413-0.94128 2.7579-4.2112-7-4.4607-13.311-9.254-23.141-14.138-28.991-5.8321-6.9871-15.547-15.095-23.624-19.716-7.608-4.353-27.587-11.631-27.587-10.049 0 0.51361 0.4333 0.93383 0.96288 0.93383 1.7658 0 9.1216 8.415 13.549 15.5 5.1713 8.2756 11.891 24.612 17.626 42.855 5.1194 16.283 7.3844 21.481 14.899 34.195 9.1394 15.463 11.291 21.397 11.221 30.95-0.0678 9.225-1.7427 15.204-10.084 36-5.3201 13.263-5.6129 14.447-5.5628 22.5 0.0312 5.0228 1.1444 13.923 2.7211 21.757 4.4052 21.886 3.8479 27.052-7.847 72.743-4.0824 15.95-9.4731 38.9-11.979 51s-6.6191 29.875-9.1399 39.5c-4.0351 15.407-4.7412 19.713-5.904 36-0.75607 10.59-1.966 20.297-2.83 22.702-3.8195 10.635-14.035 21.978-24.069 26.724-8.1209 3.8418-17.396 4.8293-41.572 4.4265l-21.625-0.36028-2.6832 10.475c-2.5534 9.9685-2.5985 10.557-0.93282 12.171 1.7107 1.6578 10.561 6.6148 32.75 18.343 6.05 3.1977 17.525 9.2809 25.5 13.518 7.975 4.2374 25.3 13.229 38.5 19.982 26.763 13.691 27.55 14.12 46.5 25.348 14.964 8.8666 41.613 26.235 42.53 27.718 1.2884 2.0846 3.6787 0.52005 15.088-9.8757zm-481.23-116.78c-12.001-17.896-19.473-44.484-19.321-68.741 0.0387-6.1328 0.45703-12.051 0.92971-13.151 0.59408-1.3825 0.88119 0.16124 0.92991 5 0.13226 13.135 4.9048 37.088 9.9625 50l1.9585 5-0.41262-30.5c-0.22695-16.775-0.98091-35.655-1.6755-41.956l-1.2629-11.456-9-0.0859c-4.95-0.0473-9.9239-0.43389-11.053-0.85917-1.822-0.68616-2.5225 0.21949-6.2208 8.0419-8.7882 18.588-12.226 31.348-12.226 45.379 0 14.62 5.6533 29.308 14.629 38.008 4.537 4.3975 4.5544 4.4041 2.4544 0.92891-1.1632-1.925-3.2824-7.1-4.7094-11.5-3.0826-9.5055-4.2778-27.371-2.4753-37 1.0647-5.6875 6.0542-19.88 6.7458-19.189 0.1781 0.17809-0.43238 3.6684-1.3566 7.7562-2.3372 10.337-2.3144 29.097 0.0476 39.219 4.0922 17.536 13.924 30.71 28.507 38.197 3.6616 1.8799 6.9551 3.4401 7.3188 3.4672 0.36366 0.0271-1.333-2.9247-3.7704-6.5595zm14.747-19.742c1.646-3.2182 2.8076-6.0364 2.5812-6.2627-0.40598-0.40598-13.67 13.965-15.077 16.336-0.39892 0.67197 0.044 2.3959 0.98425 3.8309l1.7096 2.6091 3.4047-5.3309c1.8726-2.932 4.7515-7.9639 6.3975-11.182zm326.62 8.0332c10.258-3.8544 20.136-13.904 22.689-23.083 0.78001-2.8047 1.706-11.175 2.0579-18.6 0.8057-17.004 1.7392-23.14 5.4935-36.11 1.6542-5.7147 5.4958-22.09 8.5368-36.39 3.041-14.3 8.3992-37.25 11.907-51 7.7841-30.512 11.417-47.479 12.18-56.877 0.49489-6.1001 0.0506-9.202-3.0949-21.605-2.02-7.9655-3.6728-16.851-3.6728-19.746 0-3.8596 2.027-11.435 7.6009-28.404 4.1805-12.728 7.4751-23.265 7.3214-23.417-0.3454-0.34032-16.136 3.8521-23.131 6.1412-6.9482 2.2739-14.358 6.0469-18.899 9.6232-4.157 3.274-5.1572 5.7534-1.3018 3.2273 3.2906-2.1561 13.417-2.0741 18.097 0.14657 5.2953 2.5128 9.0606 8.2777 10.899 16.687 0.57207 2.6169 0.44822 2.7371-2.1687 2.1042-1.5265-0.3692-4.0129-1.5363-5.5254-2.5935l-2.75-1.9223-4e-3 5.3181c-6e-3 8.8636-4.7528 14.352-11.326 13.095-3.502-0.66946-5.3133-3.3217-6.7975-9.9539-1.3186-5.892-2.0994-6.434-4.3409-3.0129-1.3943 2.128-1.2452 3.1358 1.8866 12.75 1.8703 5.7417 6.6147 20.564 10.543 32.939s9.1695 26.858 11.647 32.184c4.151 8.9249 4.4223 9.9876 3.4605 13.559-0.57393 2.1314-2.4296 5.9679-4.1237 8.5255-3.8898 5.8726-9.9362 8.9152-23.446 11.798-11.64 2.484-15.557 3.9617-19.666 7.4197-1.643 1.3825-3.3714 2.5137-3.8408 2.5137-1.4298 0 0.76699-5.9967 3.5183-9.6038 3.4098-4.4704 6.2813-5.8377 16.489-7.8511 16.898-3.333 23.837-8.952 22.692-18.374-0.31229-2.5694-3.2879-11.093-6.6125-18.941-3.3246-7.848-7.3761-18.423-9.0034-23.5-6.9613-21.719-13.023-42.555-13.612-46.793-1.4544-10.452 3.3407-23.491 12.889-35.049 6.3403-7.6748 13.888-12.952 28.89-20.199 12.58-6.0767 12.393-5.4014 5.025-18.19-7.5839-13.163-8.8112-16.141-15.251-37-9.6851-31.371-16.305-44.323-27.813-54.417l-5.6907-4.9916-5.4051 5.1784 2.9174-7.5133c8.6647-22.314 4.9522-40.376-11.933-58.057-20.581-21.55-47.07-32.255-98.593-39.844-10.679-1.5729-21.003-2.1812-43.518-2.5641-26.26-0.44659-31.337-0.26528-46 1.6428-9.0652 1.1796-20.757 3.0149-25.982 4.0784-37.591 7.6511-76.787 23.708-107.14 43.89-37.248 24.765-59.821 51.217-74.804 87.659-6.5646 15.966-12.34 36.485-10.712 38.055 2.0335 1.9601 21.71 11.883 35.478 17.892 21.396 9.3379 48.65 25.473 64.388 38.118 11.644 9.3561 12.56 9.7171 23.101 9.1067 18.718-1.0839 33.198-8.3439 50.331-25.234 11.99-11.82 19.592-22.404 26.389-36.739 4.8909-10.316 5.064-7.7803 0.41733 6.1124-4.4872 13.416-10.714 23.501-20.507 33.217-17.328 17.19-39.289 27.807-57.825 27.955l-5.6135 0.0448 4.9726 4.4552c2.7349 2.4504 5.4393 4.4552 6.0096 4.4552 0.57035 0 2.368 4.3567 3.9949 9.6815 3.2583 10.665 8.4416 19.588 14.902 25.656 5.852 5.4958 15.516 11.663 18.276 11.663 1.2897 0 2.345 0.45 2.345 1s-2.1375 0.9956-4.75 0.99023c-12.848-0.0264-27.114-13.096-32.173-29.476-1.6296-5.276-2.9157-7.1129-9.2352-13.191-30.336-29.175-50.374-42.641-94.342-63.401-18.108-8.55-57.994-30.473-72.381-39.784-2.3129-1.4968-2.3597-1.4708-1.6332 0.90993 4.234 13.875 25.431 60.165 35.008 76.451 6.7741 11.52 19.484 28.885 35.499 48.5 6.9601 8.525 17.301 21.575 22.98 29 12.816 16.756 30.457 37.226 40.169 46.611 8.4776 8.1918 17.653 14.421 25.651 17.413 7.0273 2.6293 17.519 2.9006 22.027 0.56959 2.7709-1.4329 3.1803-2.1604 3.1803-5.651 0-4.3213 2.3154-10.942 3.8265-10.942 2.1908 0 3.3042 3.4622 4.7041 14.628 3.8538 30.738 4.748 35.993 7.6502 44.959 5.2147 16.109 12.382 25.42 29.068 37.759 12.22 9.037 90.429 60.7 105.99 70.016 37.223 22.28 59.502 28.118 101.26 26.53 10.923-0.41539 17.352-1.1165 20.261-2.2095zm-23.565-8.768c0.29475-0.77773 1.8337-5.464 3.4199-10.414 1.9328-6.0316 2.995-8.2151 3.2206-6.6201 0.37851 2.6764-4.4623 16.771-6.1097 17.789-0.63083 0.38988-0.84775 0.0815-0.53082-0.75475zm12.281-0.66405c2.0569-5.207 3.6222-18.226 3.337-27.754-0.17287-5.7749-0.0389-10.499 0.29765-10.498 0.95337 3e-3 2.888 10.802 2.888 16.12 0 6.0618-1.6628 13.866-4.1547 19.499-1.8305 4.1381-3.8492 6.3829-2.368 2.6331zm-37.397 0.25c-9e-3 -0.55 1.9763-7.3 4.4111-15 3.19-10.088 4.4383-13.011 4.4677-10.46 0.0592 5.1437-2.502 14.137-5.902 20.724-1.6286 3.155-2.9682 5.2864-2.9769 4.7364zm-10.697-1.6889c0.27859-0.9289 2.1062-6.7407 4.0614-12.915 1.9552-6.1744 3.5548-11.827 3.5548-12.561s0.37468-1.3348 0.83262-1.3348c1.3068 0-0.40938 9.9299-2.7652 16-2.1002 5.4115-6.6727 14.109-5.6836 10.811zm24.675-1.0611c0.0866-1.8329 7.8123-22.465 7.8819-21.049 0.13483 2.7422-2.3588 12.156-4.5162 17.049-2.2448 5.0915-3.487 6.5678-3.3657 4zm36.981 1.25c-0.0219-0.275 0.63506-4.0271 1.46-8.338 0.82491-4.3109 1.5401-12.186 1.5892-17.5l0.0894-9.662 1.3913 5c1.8114 6.51 1.7876 12.706-0.0764 19.863-1.2822 4.9227-4.3289 12.2-4.4535 10.637zm-74.499-6.25c1.33-4.4279 8.4886-22.279 9.5243-23.75 1.3395-1.9027 0.36342 3.5201-1.8 10-2.7862 8.3452-9.9095 21.025-7.7243 13.75zm85.952 0.75c2.8263-8.6082 3.7162-14.644 3.2435-22-0.49059-7.6341-0.45411-7.817 0.79765-4 2.5868 7.8881 1.0381 20.945-3.0858 26.017-1.6054 1.9746-1.6093 1.9745-0.95533-0.0174zm-100.49-7.3625c0-2.6228 9.8716-23.798 9.9558-21.356 0.0786 2.2792-3.7391 12.587-6.4697 17.468-2.5952 4.6393-3.4861 5.6328-3.4861 3.8875zm-11.993-8.0298c-9e-3 -1.94 8.9717-20.463 9.6113-19.823 0.67571 0.67571-5.0276 14.323-7.6126 18.215-1.0956 1.65-1.9951 2.3735-1.9987 1.6078zm-9.4596-8.3578c1.1997-3.9593 7.8419-16.083 8.2086-14.983 0.19443 0.5833-1.4761 4.6994-3.7122 9.1469-3.9688 7.8935-5.8659 10.356-4.4964 5.8363zm-10.053-10c1.1552-5.7531 4.7785-16.8 5.6962-17.367 1.1313-0.69918 0.29482 3.0641-2.8601 12.867-2.5687 7.9818-3.9872 10.233-2.8362 4.5zm-13.931-7.75c1.1564-7.2321 3.6586-18 4.1828-18 1.2467 0-0.78372 12.87-2.6839 17.013-2.0177 4.3984-2.0474 4.418-1.4989 0.98733zm91.938-6.9027c8.4438-4.091 15.702-5.4056 27.169-4.9211 8.0768 0.34122 10.812 0.89223 15.331 3.0886l5.5 2.6733-5-0.64729c-7.953-1.0296-31.477-0.74094-37.525 0.46044-3.0386 0.60361-6.8636 1.3575-8.5 1.6752-1.918 0.37245-0.84315-0.45528 3.0247-2.3292zm11.159-13.19c-3.7626-1.0727-8.2626-2.6824-10-3.5772-3.5156-1.8105-9.8699-6.4528-9.4319-6.8908 0.15486-0.15486 3.8796 0.61085 8.2772 1.7016 10.282 2.5502 32.09 3.5924 40.51 1.9359 3.3625-0.66153 8.1736-2.0858 10.691-3.165 2.5178-1.0792 4.775-1.765 5.0162-1.5239 0.89652 0.89652-2.9448 5.4939-6.6257 7.9298-8.8736 5.8722-25.111 7.3887-38.437 3.5896zm-125.29-10.658c0.27933-0.9625 1.0318-3.775 1.6721-6.25 1.2131-4.6889 6.4904-17 7.2872-17 0.64822 0-2.6353 10.265-5.8379 18.25-2.4902 6.2091-4.3254 9.1488-3.1214 5zm59.108-9.2798c-0.52814-0.85454 4.1802-4.7708 8.2764-6.8841 1.2419-0.64071 6.8785-1.5709 12.526-2.067 5.6473-0.49617 13.631-1.8164 17.742-2.9338 17.064-4.6384 36.339-6.242 49.373-4.1076 3.9881 0.6531 8.2887 0.61055 13.277-0.13136 6.3481-0.94416 8.0065-0.8574 11.879 0.6215 4.8803 1.8638 11.974 7.868 11.054 9.3564-0.32325 0.52304-3.06 0.0792-6.3388-1.028-4.5904-1.5501-7.0987-1.8037-12.27-1.2405-7.2669 0.7914-11.374 0.87554-28 0.57365-6.883-0.12498-17.723 0.58977-27 1.7803-8.525 1.094-20.9 2.4904-27.5 3.1031-6.6 0.61269-14.362 1.7177-17.25 2.4556-2.8873 0.73791-5.4833 0.96375-5.7687 0.50185zm-74.169-1.4702c0.29576-1.1 0.85032-3.575 1.2324-5.5 0.84031-4.2341 6.2672-16.521 6.9816-15.806 0.6631 0.6631-6.3773 21-7.7223 22.306-0.69954 0.67956-0.85709 0.35911-0.49167-1zm-15.861-15.75c0.85451-7.0137 2.5978-14.902 3.7015-16.75 1.1354-1.9007 0.17196 6.1177-1.8323 15.25-1.7653 8.0433-2.764 8.8448-1.8692 1.5zm90.714-4.9711c5.1051-6.4634 14.948-16.779 16.011-16.779 1.3913 0-4.8458 8.4391-11.203 15.159-6.4128 6.7779-9.7766 7.9116-4.8074 1.6202zm16.059-3.2789c1.2356-2.2 5.553-7.375 9.5942-11.5 5.4453-5.5582 6.873-6.6322 5.5143-4.1483-1.0083 1.8434-5.3257 7.0184-9.5942 11.5-6.423 6.7437-7.3736 7.4588-5.5143 4.1483zm-39.283-3.1658c7.0186-10.231 20.753-23.847 32.558-32.276 16.555-11.821 15.21-8.8098-3 6.7174-5.5 4.6896-15.352 13.746-21.894 20.125-11.58 11.293-11.782 11.436-7.6642 5.433zm146.38-0.54301c-3.7242-6.2468-5.9632-12.636-6.898-19.682-0.85039-6.4106 0.0627-6.5813 1.9213-0.35915 0.78039 2.6125 3.0599 8.9889 5.0655 14.17s3.5159 9.8119 3.3561 10.291-1.71-1.5095-3.445-4.4197zm7.2904-2.0412c-2.6271-6.0454-5.1009-14.591-4.4208-15.271 0.63298-0.63298 5.5988 11.616 6.7047 16.538 0.49226 2.1908 0.69308 3.9834 0.44628 3.9834-0.24681 0-1.4754-2.3625-2.7302-5.25zm-17.914-1.5698c-3.1879-5.8573-5.7209-15.158-5.6209-20.64 0.063-3.456 0.49343-2.5945 2.9778 5.9601 1.5972 5.5 3.6367 11.94 4.5322 14.311 2.2556 5.972 1.2656 6.1656-1.8891 0.36939zm-77.533 0.90203c1.2864-1.6048 4.0758-5.3894 6.1987-8.4103 3.6225-5.1548 11.934-13.94 10.097-10.672-3.1687 5.6362-7.8808 12.257-11.921 16.75-4.9606 5.5163-8.3945 7.3469-4.3747 2.3322zm51.869 1e-3c-0.0444-3.5263 5.1016-22.083 6.1238-22.083 1.1982 0 0.0799 7.1973-2.3306 15-2.5204 8.1582-3.7508 10.456-3.7932 7.0832zm-34.488-3.5832c2.6141-4.4246 12.828-17.352 13.772-17.432 1.788-0.15008-4.1562 8.6808-9.6792 14.38-3.753 3.8725-5.2269 4.9716-4.0927 3.052zm16.49 0.97909c-0.0402-1.2998 8.2115-15.172 10.992-18.479l2.102-2.5-0.67258 2.3839c-1.4755 5.23-12.332 21.482-12.421 18.595zm-15.771-33.635c-12.97-6.2904-16.182-22.115-7.3246-36.082 3.0233-4.7672 9.0033-8.7621 13.116-8.7621 1.8135 0 1.458 0.65472-2.3821 4.3868-12.41 12.061-12.037 26.646 0.98765 38.652 3.74 3.4474 4.0087 3.9551 2.0702 3.9118-1.2252-0.0274-4.1354-0.97515-6.4672-2.1061zm10.74-4.6335c0-1.953 7.0076-7.1214 10.559-7.7876 6.2484-1.1722 17.574 0.0727 22.191 2.4393 2.3375 1.1981 4.25 2.3378 4.25 2.5325s-3.9666 0.12796-8.8146-0.14846c-7.9483-0.45319-20.98 1.2026-26.68 3.39-0.82788 0.31768-1.5052 0.12608-1.5052-0.42579zm-158-8.7583c-13.166-8.5944-23.07-19.133-30.027-31.952l-3.256-6 4.7858 5.5c2.6322 3.025 12.118 12.812 21.081 21.75s16.209 16.25 16.105 16.25c-0.10434 0-4.0142-2.4965-8.6887-5.5477zm166.14-24.816c0.70582-1.5749 1.465-2.3182 1.6872-1.6518 0.22213 0.6664-0.35535 1.9549-1.2833 2.8634-1.5794 1.5463-1.6052 1.4688-0.40388-1.2116zm-274.22-4.9104c-8.2339-5.5488-9.9686-13.415-5.2682-23.889l2.6535-5.9127-1.7183-6.2123c-2.2182-8.0195-9.4595-23.274-13.07-27.532-3.3596-3.9629-3.5038-3.8149-7.1353 7.32-2.0544 6.2992-2.6304 10.126-2.7094 18-0.10871 10.842 0.84734 14.752 6.9688 28.5l3.3395 7.5-3.4705-4c-4.8023-5.535-9.1772-14.035-11.124-21.613-2.9386-11.438-0.0199-30.256 6.0891-39.258l2.4878-3.6659-3.7324-3.3424c-10.405-9.3179-16.494-14.4-24.228-20.221l-8.4957-6.3941-0.80879 2.747c-0.44483 1.5109-0.80211 7.3554-0.79395 12.988 0.023 15.888 4.5087 32.133 14.256 51.628 2.7139 5.4277 4.8001 9.9984 4.6361 10.157-0.164 0.15883-2.6877-2.707-5.6082-6.3685-6.8991-8.6495-13.428-22.135-16.779-34.657-3.3601-12.555-3.8824-29.581-1.1016-35.904 0.94434-2.147 1.5986-3.99 1.4538-4.0957s-11.513-8.2082-25.263-18.006-26.552-18.979-28.45-20.404c-1.8973-1.4249-3.1847-2.1408-2.861-1.5908 0.32375 0.55 4.7396 8.425 9.8131 17.5 11.828 21.157 25.222 43.889 30.243 51.327 2.1634 3.2049 3.763 5.9976 3.5546 6.206-0.67725 0.67726-14.15-15.438-19.935-23.844-6.1262-8.9026-17.643-29.272-25.88-45.774-2.8593-5.728-6.2984-11.877-7.6426-13.665s-2.1811-3.25-1.8598-3.25c3.5066 0 50.642 29.542 75.518 47.33 20.569 14.709 32.755 25.892 42.795 39.271 6.8214 9.0908 10.455 16.045 14.157 27.096 3.4022 10.155 3.7572 15.041 1.5479 21.302-3.4251 9.7077-0.73894 16.216 8.0836 19.585 5.2185 1.993 4.3298 3.3753-2.1857 3.3996-2.631 0.01-5.3121-0.8001-7.4762-2.2585zm288.6-38.255c-0.92127-4.1409-3.4227-13.46-5.5587-20.708s-3.7439-13.319-3.5731-13.49c0.6571-0.6571 7.5099 15.567 8.9935 21.293 1.6523 6.3763 3.2735 20.435 2.3566 20.435-0.29877 0-1.297-3.388-2.2182-7.529zm-217.55 2.652c-14.28-4.5704-26.202-14.254-29.377-23.862-2.3859-7.2188-2.0126-29.262 0.49558-29.262 0.47287 0 0.60882 1.2547 0.30211 2.7883-0.90916 4.5458 1.4508 18.189 4.1793 24.16 2.8202 6.1723 7.0396 11.059 12.658 14.661 2.0516 1.315 3.9055 2.391 4.1198 2.391 0.2143 0-1.3147-3.2625-3.3977-7.25-5.802-11.106-7.2422-18.043-6.6962-32.25 0.6204-16.143 2.4857-21.039 2.4762-6.5-4e-3 6.5774 0.63618 13.115 1.7144 17.5 2.3541 9.574 10.341 25.696 16.472 33.25 2.7901 3.4375 4.5122 6.2258 3.8269 6.1962-0.68526-0.0296-3.7337-0.85001-6.7742-1.8232zm128.85-14.133c-2.0208-0.50977-5.1708-1.8852-7-3.0566-3.5307-2.261-2.142-2.1023 5.1742 0.59119 6.4336 2.3686 15.911 1.6332 23.373-1.8137 3.2304-1.492 5.3537-2.0866 4.7185-1.3212-3.6523 4.4008-18.485 7.5633-26.266 5.6004zm-0.81643-12.845c-3.9071-2.0954-8.0093-8.9084-8.0093-13.302 0-3.1917-0.89147-3.4624-4.7997-1.4574-3.7628 1.9304-17.397 4.8356-20.844 4.4414-2.6935-0.30806-2.402-0.65853 5.1099-6.1432 4.3815-3.199 11.195-7.3692 15.141-9.2671 12.999-6.2521 34.12-7.8413 42.764-3.2175 1.3394 0.71645 1.6743 0.6829 1.1792-0.11813-2.0012-3.238-18.62-9.1-25.694-9.0634-10.945 0.0566-29.657 7.394-38.149 14.959-7.9258 7.0608-6.5684 3.6404 1.8995-4.7862 8.7749-8.7321 15.377-12.443 26.231-14.743 17.48-3.7049 32.013 0.18925 42.307 11.336 4.3289 4.6877 9.7464 14.66 8.5914 15.815-0.33215 0.33214-2.2085-0.61996-4.1696-2.1158s-3.5622-2.5538-3.558-2.351c4e-3 0.20278 0.88997 3.2704 1.9684 6.817s1.7885 6.6205 1.578 6.831c-0.95292 0.95292-5.6515-2.6689-12.546-9.6707l-7.4918-7.6086-0.66027 7.3029c-0.78398 8.671-4.0783 14.556-9.3902 16.776-4.5383 1.8962-7.307 1.7913-11.457-0.43406zm55.491-35.027c-2.75-0.99552-12.2-5.2172-21-9.3814-24.603-11.642-46.768-18.662-59.09-18.715-10.62-0.0452-27.563 5.832-42.993 14.914-4.6292 2.7246-8.4167 4.58-8.4167 4.123 0-2.1475 9.2124-14.326 15.974-21.117 15.427-15.494 33.842-22.815 50.184-19.952 16.026 2.8082 45.492 12.334 68.341 22.093 12.022 5.1348 15.299 7.2677 16.106 10.483 0.33594 1.3385 1.012 2.4336 1.5024 2.4336 0.80489 0 1.3769-4.5878 0.96624-7.75-0.28478-2.193 0.82314-1.3483 2.5099 1.9136 2.1955 4.2456 1.5057 12.497-1.384 16.555-4.4 6.1792-13.117 7.8687-22.701 4.3995zm-282.94-28.963c-1.3725-0.57692 0.83427-1.1893 7.5-2.0812 19.784-2.6473 33.096-6.6027 48.32-14.357 12.619-6.4281 22.899-14.144 33.743-25.328 9.9167-10.228 16.003-19.198 23.086-34.025 2.7545-5.7662 5.2261-10.266 5.4925-9.9997 1.2821 1.2821-4.1968 17.855-8.9103 26.952-4.6391 8.9536-6.6684 11.576-16.782 21.69-15.991 15.992-33.785 27.234-54.004 34.12-8.5438 2.9097-10.859 3.2662-23 3.5414-7.425 0.16828-14.375-0.0619-15.445-0.51147zm-23.371-20.248c-2.9235-0.38707-5.5162-0.90457-5.7616-1.15s5.2965-0.74049 12.315-1.1001c21.395-1.0962 37.889-5.9449 55.148-16.211 11.411-6.7876 23.098-16.454 41.775-34.554 18.897-18.312 27.119-25.148 38.418-31.938 8.4066-5.0525 12.838-6.6599 7.4211-2.6916-1.65 1.2087-11.325 10.101-21.5 19.76-38.887 36.916-49.368 45.706-65.367 54.822-20.413 11.631-40.898 15.916-62.449 13.063zm-41.091-12.906c-0.0382-0.825 1.4431-4.9641 3.2916-9.198 12.166-27.866 46.237-59.488 83.393-77.401 7.303-3.5208 13.598-6.4014 13.989-6.4014s-6.0343 3.9977-14.278 8.8838c-17.144 10.161-27.214 17.201-39.448 27.581-9.0146 7.6481-22.628 21.569-29.372 30.035-5.0209 6.3028-14.179 20.386-16.069 24.713-0.79001 1.8078-1.4676 2.612-1.5057 1.787zm19.645-8.8935c-5.6705-1.1989-5.6774-2.1065-0.0161-2.1065 7.2497 0 20.322-2.6726 29.556-6.0424 17.24-6.292 32.875-16.429 56.179-36.425 15.503-13.303 21.368-17.67 32.042-23.86 25.187-14.606 60.558-21.831 92.129-18.818 9.7988 0.93516 24.962 3.8873 24.148 4.7014-0.1623 0.1623-6.7478-0.20823-14.634-0.82341-32.481-2.5336-65.914 3.5632-92.424 16.855-12.353 6.1934-20.526 11.802-34.125 23.417-29.55 25.24-47.373 36.249-67.206 41.512-7.0372 1.8674-20.414 2.6968-25.648 1.5902zm336.76-81.859c-7.15-7.4564-17.275-17.134-22.5-21.505-18.803-15.731-43.483-30.378-66.903-39.706-12.123-4.8282-35.03-11.694-42.18-12.643-2.729-0.36202-5.199-1.0421-5.489-1.5113-0.29-0.46922 0.7326-0.64436 2.2724-0.38919s7.7497 1.1508 13.8 1.9903c54.09 7.5055 108.25 41.163 132.37 82.266 1.6945 2.8875 2.7551 5.2061 2.3569 5.1524-0.39822-0.0537-6.574-6.1983-13.724-13.655zm27.06 8.0023c-10.108-32.204-38.206-57.814-81.995-74.737-6.0861-2.352-12.416-4.7441-14.066-5.3157-6.5922-2.2836 1.5867-1.1399 13.127 1.8355 26.673 6.8772 51.232 20.545 65.527 36.467 10.08 11.227 18.573 28.85 19.556 40.578 0.31916 3.807 0.37221 6.9217 0.11788 6.9217s-1.2746-2.5875-2.2672-5.75zm-46.56 0.37595c-14.139-4.0025-29.405-10.028-51-20.132-61.16-28.614-89.577-36.523-131.5-36.602-16.422-0.0308-38.56 3.0849-50.5 7.1073-3.4284 1.1549-6.4116 1.9217-6.6294 1.7038-0.77911-0.77911 13.29-6.6435 21.865-9.1139 28.93-8.3345 64.705-7.0856 100.08 3.494 22.86 6.8366 33.738 11.224 71.684 28.917 8.525 3.9749 24.725 11.502 36 16.728 17.37 8.0504 24.119 11.498 21.95 11.211-0.2475-0.0326-5.625-1.5243-11.95-3.3147zm-69.5-9.7473c-15.573-5.856-37.135-13.044-47.59-15.865-28.879-7.7911-60.943-9.8804-85.41-5.5654-13.459 2.3738-37.296 9.064-52.35 14.693-7.3424 2.7455-13.537 4.8048-13.766 4.5761s4.1776-2.5478 9.7919-5.1536c30.902-14.343 53.189-20.203 80.823-21.251 37.204-1.4113 78.563 8.9888 116.28 29.239 4.5222 2.4281 7.5471 4.3698 6.7221 4.315-0.825-0.0548-7.35-2.2995-14.5-4.9882zm-207.89 427.92c4.7464-14.392 7.1429-26.551 8.5167-43.21 1.317-15.97 0.3997-32.76-3.6654-67.092-1.3676-11.55-2.8176-26.119-3.2223-32.375l-0.73575-11.375-10.666-9.1523 0.67848 3.6166c0.42569 2.2691 0.0903 5.6401-0.90028 9.0474-1.1935 4.1056-1.4273 7.7363-0.9581 14.88 0.54167 8.2461 0.35547 10.048-1.4628 14.159-1.8424 4.165-1.9545 5.3249-0.96899 10.023 0.85644 4.0831 0.81687 6.5708-0.17094 10.745-0.70697 2.9873-1.1895 9.9314-1.0723 15.431 0.2481 11.64 0.22706 14.558-0.14424 20-0.15009 2.2 0.25971 8.05 0.91067 13s1.4352 19.575 1.7428 32.5c0.30759 12.925 0.82176 28.624 1.1426 34.886l0.58332 11.386 3.4321-7.8857c1.8877-4.3372 5.0198-12.7 6.9603-18.584zm8.9011 6.114c18.607-27.685 24.391-65.416 18.439-120.27l-2.3678-21.82-4.0394-2.0254c-2.2216-1.114-6.4363-3.8154-9.3659-6.003s-5.6087-3.6954-5.9536-3.3505c-0.34491 0.34491 0.63685 9.948 2.1817 21.34 5.2296 38.566 5.5694 41.694 6.2132 57.213 1.2574 30.312-1.8279 48.952-14.234 86-0.76526 2.2852 4.17-3.708 9.1273-11.084zm-31.258-74.768c1.9597-0.78315 2.75-1.8078 2.75-3.5655 0-2.4399-0.0746-2.4603-6.9074-1.8875-6.1637 0.51675-7.4018 0.30273-11.5-1.9878l-4.5926-2.5669v3.2746c0 7.162 10.467 10.642 20.25 6.7331zm-1.4725-12.705c1.2224-0.85619 2.2225-2.1993 2.2225-2.9847 0-1.1459-1.1674-1.306-5.9089-0.81036-5.0387 0.52665-6.3501 0.30347-8.9044-1.5153-3.7748-2.6878-4.404-2.6749-4.0062 0.0827 0.7605 5.273 11.64 8.6997 16.597 5.2277zm-0.0625-12.465 4.109-3.0218 0.70995-8.5228c0.39047-4.6876 0.52178-8.711 0.2918-8.941s-3.0456 1.3651-6.257 3.5447c-3.2114 2.1795-6.1471 3.9628-6.5238 3.9628s-2.566-1.6101-4.865-3.5779l-4.18-3.5779v5.3427c0 5.9211 2.528 11.862 6.6224 15.563 3.301 2.9838 5.1813 2.84 10.093-0.77183zm58.908-9.7282c-0.33008-7.0125-0.67137-16.35-0.75842-20.75-0.15327-7.7465-0.81399-9.4513-3.676-9.4847-0.96367-0.0113-1.1652 1.1113-0.76015 4.2347 0.30312 2.3375 1.207 9.2 2.0087 15.25 0.80167 6.05 1.7504 13.812 2.1083 17.25 1.1023 10.587 1.7094 6.9251 1.0775-6.5zm-58.966-15.658c3.3318-2.4244 6.3468-5.1612 6.7001-6.0818 0.82254-2.1435 0.8397-12.98 0.0218-13.797-0.34126-0.34126-2.6709 0.94516-5.177 2.8587-6.6573 5.0832-8.6855 5.3219-12.642 1.4875-2.8326-2.7455-3.3865-2.9559-3.9456-1.499-0.95701 2.4939 0.38076 11.555 2.132 14.44 1.843 3.0363 5.3689 7 6.227 7 0.34408 0 3.3516-1.9836 6.6834-4.4079zm-0.42787-23.588c2.8986-2.1976 5.5952-3.9976 5.9924-4 1.6122-0.01 3.9688-11.25 3.3232-15.851-0.8468-6.0362-2.4758-11.153-3.5504-11.153-0.46752 0-2.4225 2.5886-4.3444 5.7524-1.9219 3.1638-4.6922 6.8763-6.1563 8.25l-2.6619 2.4976-2.3682-2.75c-1.3025-1.5125-2.6788-2.75-3.0586-2.75-1.1389 0 0.44461 11.705 2.1299 15.744 1.683 4.0334 4.2237 8.2561 4.9674 8.2561 0.25116 0 2.8283-1.7981 5.727-3.9957zm-2.2161-30.523 4.0767-5.5185-5.287-6.4251c-5.9813-7.2688-6.46-7.1164-7.4518 2.373-0.47455 4.5403-0.20091 7.1949 1.0902 10.575 0.94806 2.4825 2.1223 4.5136 2.6095 4.5136 0.48716 0 2.7203-2.4833 4.9625-5.5185zm-57.713-67.468 9.7438-3.1212-7.4043-10.595-7.251 3.3502c-14.084 6.5073-29.937 8.0761-39.832 3.9418l-3.9073-1.6326 1.9238 2.1257c1.0581 1.1692 3.7352 3.1873 5.9492 4.4848 10.455 6.127 24.6 6.6288 40.778 1.4467zm438.85-12.487c4.1621-3.5022 9.3357-4.6704 15.888-3.5878 3.0033 0.49622 6.3606 1.2473 7.4606 1.6691 3.3714 1.2927-0.01-2.1471-3.9471-4.0155-7.2339-3.4327-16.309-1.05-21.55 5.6579-2.6692 3.4165-1.728 3.5375 2.1478 0.2763zm58.835-130.68c-2.0257-7.6921-7.7829-18.408-12.701-23.639-8.4356-8.9736-23.967-14.214-34.178-11.531l-3.3931 0.89132 6.9649 2.7326c15.555 6.1028 34.247 20.532 40.821 31.511 1.65 2.7556 3.1421 4.8699 3.3157 4.6984s-0.19989-2.2698-0.83008-4.6628z"/></svg>
